<?xml version="1.0" encoding="UTF-8"?>
<svg id="Ebene_1" data-name="Ebene 1" xmlns="http://www.w3.org/2000/svg" viewBox="0 0 965.2 577.58">
  <g>
    <path id="ma1594967eb" d="M159.52,437.45c.86,0,1.69-.34,2.29-.95,.61-.61,.95-1.43,.95-2.29s-.34-1.69-.95-2.29c-.61-.61-1.43-.95-2.29-.95s-1.69,.34-2.29,.95c-.61,.61-.95,1.43-.95,2.29s.34,1.69,.95,2.29c.61,.61,1.43,.95,2.29,.95Z" fill="#069" stroke="#069" stroke-linejoin="round" stroke-width="2.6"/>
    <path id="ma1594967eb-2" data-name="ma1594967eb" d="M166.93,342.41c.86,0,1.69-.34,2.29-.95,.61-.61,.95-1.43,.95-2.29s-.34-1.69-.95-2.29c-.61-.61-1.43-.95-2.29-.95s-1.69,.34-2.29,.95c-.61,.61-.95,1.43-.95,2.29s.34,1.69,.95,2.29c.61,.61,1.43,.95,2.29,.95Z" fill="#069" stroke="#069" stroke-linejoin="round" stroke-width="2.6"/>
    <path id="ma1594967eb-3" data-name="ma1594967eb" d="M174.34,425.87c.86,0,1.69-.34,2.29-.95,.61-.61,.95-1.43,.95-2.29s-.34-1.69-.95-2.29c-.61-.61-1.43-.95-2.29-.95s-1.69,.34-2.29,.95c-.61,.61-.95,1.43-.95,2.29s.34,1.69,.95,2.29c.61,.61,1.43,.95,2.29,.95Z" fill="#069" stroke="#069" stroke-linejoin="round" stroke-width="2.6"/>
    <path id="ma1594967eb-4" data-name="ma1594967eb" d="M181.74,435.6c.86,0,1.69-.34,2.29-.95,.61-.61,.95-1.43,.95-2.29s-.34-1.69-.95-2.29c-.61-.61-1.43-.95-2.29-.95s-1.69,.34-2.29,.95c-.61,.61-.95,1.43-.95,2.29s.34,1.69,.95,2.29c.61,.61,1.43,.95,2.29,.95Z" fill="#069" stroke="#069" stroke-linejoin="round" stroke-width="2.6"/>
    <path id="ma1594967eb-5" data-name="ma1594967eb" d="M189.15,426.61c.86,0,1.69-.34,2.29-.95,.61-.61,.95-1.43,.95-2.29s-.34-1.69-.95-2.29c-.61-.61-1.43-.95-2.29-.95s-1.69,.34-2.29,.95c-.61,.61-.95,1.43-.95,2.29s.34,1.69,.95,2.29c.61,.61,1.43,.95,2.29,.95Z" fill="#069" stroke="#069" stroke-linejoin="round" stroke-width="2.6"/>
    <path id="ma1594967eb-6" data-name="ma1594967eb" d="M196.55,451.66c.86,0,1.69-.34,2.29-.95,.61-.61,.95-1.43,.95-2.29s-.34-1.69-.95-2.29c-.61-.61-1.43-.95-2.29-.95s-1.69,.34-2.29,.95c-.61,.61-.95,1.43-.95,2.29s.34,1.69,.95,2.29c.61,.61,1.43,.95,2.29,.95Z" fill="#069" stroke="#069" stroke-linejoin="round" stroke-width="2.6"/>
    <path id="ma1594967eb-7" data-name="ma1594967eb" d="M203.96,424.55c.86,0,1.69-.34,2.29-.95,.61-.61,.95-1.43,.95-2.29s-.34-1.69-.95-2.29c-.61-.61-1.43-.95-2.29-.95s-1.69,.34-2.29,.95c-.61,.61-.95,1.43-.95,2.29s.34,1.69,.95,2.29c.61,.61,1.43,.95,2.29,.95Z" fill="#069" stroke="#069" stroke-linejoin="round" stroke-width="2.6"/>
    <path id="ma1594967eb-8" data-name="ma1594967eb" d="M211.37,472.44c.86,0,1.69-.34,2.29-.95,.61-.61,.95-1.43,.95-2.29s-.34-1.69-.95-2.29c-.61-.61-1.43-.95-2.29-.95s-1.69,.34-2.29,.95c-.61,.61-.95,1.43-.95,2.29s.34,1.69,.95,2.29c.61,.61,1.43,.95,2.29,.95Z" fill="#069" stroke="#069" stroke-linejoin="round" stroke-width="2.6"/>
    <path id="ma1594967eb-9" data-name="ma1594967eb" d="M218.77,431.66c.86,0,1.69-.34,2.29-.95,.61-.61,.95-1.43,.95-2.29s-.34-1.69-.95-2.29c-.61-.61-1.43-.95-2.29-.95s-1.69,.34-2.29,.95c-.61,.61-.95,1.43-.95,2.29s.34,1.69,.95,2.29c.61,.61,1.43,.95,2.29,.95Z" fill="#069" stroke="#069" stroke-linejoin="round" stroke-width="2.6"/>
    <path id="ma1594967eb-10" data-name="ma1594967eb" d="M226.18,465.3c.86,0,1.69-.34,2.29-.95,.61-.61,.95-1.43,.95-2.29s-.34-1.69-.95-2.29c-.61-.61-1.43-.95-2.29-.95s-1.69,.34-2.29,.95c-.61,.61-.95,1.43-.95,2.29s.34,1.69,.95,2.29c.61,.61,1.43,.95,2.29,.95Z" fill="#069" stroke="#069" stroke-linejoin="round" stroke-width="2.6"/>
    <path id="ma1594967eb-11" data-name="ma1594967eb" d="M233.58,393.51c.86,0,1.69-.34,2.29-.95,.61-.61,.95-1.43,.95-2.29s-.34-1.69-.95-2.29c-.61-.61-1.43-.95-2.29-.95s-1.69,.34-2.29,.95c-.61,.61-.95,1.43-.95,2.29s.34,1.69,.95,2.29c.61,.61,1.43,.95,2.29,.95Z" fill="#069" stroke="#069" stroke-linejoin="round" stroke-width="2.6"/>
    <path id="ma1594967eb-12" data-name="ma1594967eb" d="M240.99,446.47c.86,0,1.69-.34,2.29-.95,.61-.61,.95-1.43,.95-2.29s-.34-1.69-.95-2.29c-.61-.61-1.43-.95-2.29-.95s-1.69,.34-2.29,.95c-.61,.61-.95,1.43-.95,2.29s.34,1.69,.95,2.29c.61,.61,1.43,.95,2.29,.95Z" fill="#069" stroke="#069" stroke-linejoin="round" stroke-width="2.6"/>
    <path id="ma1594967eb-13" data-name="ma1594967eb" d="M248.39,437.31c.86,0,1.69-.34,2.29-.95,.61-.61,.95-1.43,.95-2.29s-.34-1.69-.95-2.29c-.61-.61-1.43-.95-2.29-.95s-1.69,.34-2.29,.95c-.61,.61-.95,1.43-.95,2.29s.34,1.69,.95,2.29c.61,.61,1.43,.95,2.29,.95Z" fill="#069" stroke="#069" stroke-linejoin="round" stroke-width="2.6"/>
    <path id="ma1594967eb-14" data-name="ma1594967eb" d="M255.8,432.33c.86,0,1.69-.34,2.29-.95,.61-.61,.95-1.43,.95-2.29s-.34-1.69-.95-2.29c-.61-.61-1.43-.95-2.29-.95s-1.69,.34-2.29,.95c-.61,.61-.95,1.43-.95,2.29s.34,1.69,.95,2.29c.61,.61,1.43,.95,2.29,.95Z" fill="#069" stroke="#069" stroke-linejoin="round" stroke-width="2.6"/>
    <path id="ma1594967eb-15" data-name="ma1594967eb" d="M263.21,443.91c.86,0,1.69-.34,2.29-.95,.61-.61,.95-1.43,.95-2.29s-.34-1.69-.95-2.29c-.61-.61-1.43-.95-2.29-.95s-1.69,.34-2.29,.95c-.61,.61-.95,1.43-.95,2.29s.34,1.69,.95,2.29c.61,.61,1.43,.95,2.29,.95Z" fill="#069" stroke="#069" stroke-linejoin="round" stroke-width="2.6"/>
    <path id="ma1594967eb-16" data-name="ma1594967eb" d="M270.61,419.34c.86,0,1.69-.34,2.29-.95,.61-.61,.95-1.43,.95-2.29s-.34-1.69-.95-2.29c-.61-.61-1.43-.95-2.29-.95s-1.69,.34-2.29,.95c-.61,.61-.95,1.43-.95,2.29s.34,1.69,.95,2.29c.61,.61,1.43,.95,2.29,.95Z" fill="#069" stroke="#069" stroke-linejoin="round" stroke-width="2.6"/>
    <path id="ma1594967eb-17" data-name="ma1594967eb" d="M278.02,417.93c.86,0,1.69-.34,2.29-.95,.61-.61,.95-1.43,.95-2.29s-.34-1.69-.95-2.29c-.61-.61-1.43-.95-2.29-.95s-1.69,.34-2.29,.95c-.61,.61-.95,1.43-.95,2.29s.34,1.69,.95,2.29c.61,.61,1.43,.95,2.29,.95Z" fill="#069" stroke="#069" stroke-linejoin="round" stroke-width="2.6"/>
    <path id="ma1594967eb-18" data-name="ma1594967eb" d="M285.42,438.18c.86,0,1.69-.34,2.29-.95,.61-.61,.95-1.43,.95-2.29s-.34-1.69-.95-2.29c-.61-.61-1.43-.95-2.29-.95s-1.69,.34-2.29,.95c-.61,.61-.95,1.43-.95,2.29s.34,1.69,.95,2.29c.61,.61,1.43,.95,2.29,.95Z" fill="#069" stroke="#069" stroke-linejoin="round" stroke-width="2.6"/>
    <path id="ma1594967eb-19" data-name="ma1594967eb" d="M292.83,413.96c.86,0,1.69-.34,2.29-.95,.61-.61,.95-1.43,.95-2.29s-.34-1.69-.95-2.29c-.61-.61-1.43-.95-2.29-.95s-1.69,.34-2.29,.95c-.61,.61-.95,1.43-.95,2.29s.34,1.69,.95,2.29c.61,.61,1.43,.95,2.29,.95Z" fill="#069" stroke="#069" stroke-linejoin="round" stroke-width="2.6"/>
    <path id="ma1594967eb-20" data-name="ma1594967eb" d="M300.24,410c.86,0,1.69-.34,2.29-.95,.61-.61,.95-1.43,.95-2.29s-.34-1.69-.95-2.29c-.61-.61-1.43-.95-2.29-.95s-1.69,.34-2.29,.95c-.61,.61-.95,1.43-.95,2.29s.34,1.69,.95,2.29c.61,.61,1.43,.95,2.29,.95Z" fill="#069" stroke="#069" stroke-linejoin="round" stroke-width="2.6"/>
    <path id="ma1594967eb-21" data-name="ma1594967eb" d="M307.64,463.8c.86,0,1.69-.34,2.29-.95,.61-.61,.95-1.43,.95-2.29s-.34-1.69-.95-2.29c-.61-.61-1.43-.95-2.29-.95s-1.69,.34-2.29,.95c-.61,.61-.95,1.43-.95,2.29s.34,1.69,.95,2.29c.61,.61,1.43,.95,2.29,.95Z" fill="#069" stroke="#069" stroke-linejoin="round" stroke-width="2.6"/>
    <path id="ma1594967eb-22" data-name="ma1594967eb" d="M315.05,382.55c.86,0,1.69-.34,2.29-.95,.61-.61,.95-1.43,.95-2.29s-.34-1.69-.95-2.29c-.61-.61-1.43-.95-2.29-.95s-1.69,.34-2.29,.95c-.61,.61-.95,1.43-.95,2.29s.34,1.69,.95,2.29c.61,.61,1.43,.95,2.29,.95Z" fill="#069" stroke="#069" stroke-linejoin="round" stroke-width="2.6"/>
    <path id="ma1594967eb-23" data-name="ma1594967eb" d="M322.45,409.89c.86,0,1.69-.34,2.29-.95,.61-.61,.95-1.43,.95-2.29s-.34-1.69-.95-2.29c-.61-.61-1.43-.95-2.29-.95s-1.69,.34-2.29,.95c-.61,.61-.95,1.43-.95,2.29s.34,1.69,.95,2.29c.61,.61,1.43,.95,2.29,.95Z" fill="#069" stroke="#069" stroke-linejoin="round" stroke-width="2.6"/>
    <path id="ma1594967eb-24" data-name="ma1594967eb" d="M329.86,407.05c.86,0,1.69-.34,2.29-.95,.61-.61,.95-1.43,.95-2.29s-.34-1.69-.95-2.29c-.61-.61-1.43-.95-2.29-.95s-1.69,.34-2.29,.95c-.61,.61-.95,1.43-.95,2.29s.34,1.69,.95,2.29c.61,.61,1.43,.95,2.29,.95Z" fill="#069" stroke="#069" stroke-linejoin="round" stroke-width="2.6"/>
    <path id="ma1594967eb-25" data-name="ma1594967eb" d="M337.27,368.92c.86,0,1.69-.34,2.29-.95,.61-.61,.95-1.43,.95-2.29s-.34-1.69-.95-2.29c-.61-.61-1.43-.95-2.29-.95s-1.69,.34-2.29,.95c-.61,.61-.95,1.43-.95,2.29s.34,1.69,.95,2.29c.61,.61,1.43,.95,2.29,.95Z" fill="#069" stroke="#069" stroke-linejoin="round" stroke-width="2.6"/>
    <path id="ma1594967eb-26" data-name="ma1594967eb" d="M344.67,435.37c.86,0,1.69-.34,2.29-.95,.61-.61,.95-1.43,.95-2.29s-.34-1.69-.95-2.29c-.61-.61-1.43-.95-2.29-.95s-1.69,.34-2.29,.95c-.61,.61-.95,1.43-.95,2.29s.34,1.69,.95,2.29c.61,.61,1.43,.95,2.29,.95Z" fill="#069" stroke="#069" stroke-linejoin="round" stroke-width="2.6"/>
    <path id="ma1594967eb-27" data-name="ma1594967eb" d="M352.08,406.91c.86,0,1.69-.34,2.29-.95,.61-.61,.95-1.43,.95-2.29s-.34-1.69-.95-2.29c-.61-.61-1.43-.95-2.29-.95s-1.69,.34-2.29,.95c-.61,.61-.95,1.43-.95,2.29s.34,1.69,.95,2.29c.61,.61,1.43,.95,2.29,.95Z" fill="#069" stroke="#069" stroke-linejoin="round" stroke-width="2.6"/>
    <path id="ma1594967eb-28" data-name="ma1594967eb" d="M359.48,442.02c.86,0,1.69-.34,2.29-.95,.61-.61,.95-1.43,.95-2.29s-.34-1.69-.95-2.29c-.61-.61-1.43-.95-2.29-.95s-1.69,.34-2.29,.95c-.61,.61-.95,1.43-.95,2.29s.34,1.69,.95,2.29c.61,.61,1.43,.95,2.29,.95Z" fill="#069" stroke="#069" stroke-linejoin="round" stroke-width="2.6"/>
    <path id="ma1594967eb-29" data-name="ma1594967eb" d="M366.89,430.96c.86,0,1.69-.34,2.29-.95,.61-.61,.95-1.43,.95-2.29s-.34-1.69-.95-2.29c-.61-.61-1.43-.95-2.29-.95s-1.69,.34-2.29,.95c-.61,.61-.95,1.43-.95,2.29s.34,1.69,.95,2.29c.61,.61,1.43,.95,2.29,.95Z" fill="#069" stroke="#069" stroke-linejoin="round" stroke-width="2.6"/>
    <path id="ma1594967eb-30" data-name="ma1594967eb" d="M374.3,458.71c.86,0,1.69-.34,2.29-.95,.61-.61,.95-1.43,.95-2.29s-.34-1.69-.95-2.29c-.61-.61-1.43-.95-2.29-.95s-1.69,.34-2.29,.95c-.61,.61-.95,1.43-.95,2.29s.34,1.69,.95,2.29c.61,.61,1.43,.95,2.29,.95Z" fill="#069" stroke="#069" stroke-linejoin="round" stroke-width="2.6"/>
    <path id="ma1594967eb-31" data-name="ma1594967eb" d="M381.7,434.84c.86,0,1.69-.34,2.29-.95,.61-.61,.95-1.43,.95-2.29s-.34-1.69-.95-2.29c-.61-.61-1.43-.95-2.29-.95s-1.69,.34-2.29,.95c-.61,.61-.95,1.43-.95,2.29s.34,1.69,.95,2.29c.61,.61,1.43,.95,2.29,.95Z" fill="#069" stroke="#069" stroke-linejoin="round" stroke-width="2.6"/>
    <path id="ma1594967eb-32" data-name="ma1594967eb" d="M389.11,433.35c.86,0,1.69-.34,2.29-.95,.61-.61,.95-1.43,.95-2.29s-.34-1.69-.95-2.29c-.61-.61-1.43-.95-2.29-.95s-1.69,.34-2.29,.95c-.61,.61-.95,1.43-.95,2.29s.34,1.69,.95,2.29c.61,.61,1.43,.95,2.29,.95Z" fill="#069" stroke="#069" stroke-linejoin="round" stroke-width="2.6"/>
    <path id="ma1594967eb-33" data-name="ma1594967eb" d="M396.51,445.19c.86,0,1.69-.34,2.29-.95,.61-.61,.95-1.43,.95-2.29s-.34-1.69-.95-2.29c-.61-.61-1.43-.95-2.29-.95s-1.69,.34-2.29,.95c-.61,.61-.95,1.43-.95,2.29s.34,1.69,.95,2.29c.61,.61,1.43,.95,2.29,.95Z" fill="#069" stroke="#069" stroke-linejoin="round" stroke-width="2.6"/>
    <path id="ma1594967eb-34" data-name="ma1594967eb" d="M403.92,416.29c.86,0,1.69-.34,2.29-.95,.61-.61,.95-1.43,.95-2.29s-.34-1.69-.95-2.29c-.61-.61-1.43-.95-2.29-.95s-1.69,.34-2.29,.95c-.61,.61-.95,1.43-.95,2.29s.34,1.69,.95,2.29c.61,.61,1.43,.95,2.29,.95Z" fill="#069" stroke="#069" stroke-linejoin="round" stroke-width="2.6"/>
    <path id="ma1594967eb-35" data-name="ma1594967eb" d="M411.33,467.97c.86,0,1.69-.34,2.29-.95,.61-.61,.95-1.43,.95-2.29s-.34-1.69-.95-2.29c-.61-.61-1.43-.95-2.29-.95s-1.69,.34-2.29,.95c-.61,.61-.95,1.43-.95,2.29s.34,1.69,.95,2.29c.61,.61,1.43,.95,2.29,.95Z" fill="#069" stroke="#069" stroke-linejoin="round" stroke-width="2.6"/>
    <path id="ma1594967eb-36" data-name="ma1594967eb" d="M418.73,368.72c.86,0,1.69-.34,2.29-.95,.61-.61,.95-1.43,.95-2.29s-.34-1.69-.95-2.29c-.61-.61-1.43-.95-2.29-.95s-1.69,.34-2.29,.95c-.61,.61-.95,1.43-.95,2.29s.34,1.69,.95,2.29c.61,.61,1.43,.95,2.29,.95Z" fill="#069" stroke="#069" stroke-linejoin="round" stroke-width="2.6"/>
    <path id="ma1594967eb-37" data-name="ma1594967eb" d="M426.14,370.14c.86,0,1.69-.34,2.29-.95,.61-.61,.95-1.43,.95-2.29s-.34-1.69-.95-2.29c-.61-.61-1.43-.95-2.29-.95s-1.69,.34-2.29,.95c-.61,.61-.95,1.43-.95,2.29s.34,1.69,.95,2.29c.61,.61,1.43,.95,2.29,.95Z" fill="#069" stroke="#069" stroke-linejoin="round" stroke-width="2.6"/>
    <path id="ma1594967eb-38" data-name="ma1594967eb" d="M433.54,320.34c.86,0,1.69-.34,2.29-.95,.61-.61,.95-1.43,.95-2.29s-.34-1.69-.95-2.29c-.61-.61-1.43-.95-2.29-.95s-1.69,.34-2.29,.95c-.61,.61-.95,1.43-.95,2.29s.34,1.69,.95,2.29c.61,.61,1.43,.95,2.29,.95Z" fill="#069" stroke="#069" stroke-linejoin="round" stroke-width="2.6"/>
    <path id="ma1594967eb-39" data-name="ma1594967eb" d="M440.95,344.09c.86,0,1.69-.34,2.29-.95,.61-.61,.95-1.43,.95-2.29s-.34-1.69-.95-2.29c-.61-.61-1.43-.95-2.29-.95s-1.69,.34-2.29,.95c-.61,.61-.95,1.43-.95,2.29s.34,1.69,.95,2.29c.61,.61,1.43,.95,2.29,.95Z" fill="#069" stroke="#069" stroke-linejoin="round" stroke-width="2.6"/>
    <path id="ma1594967eb-40" data-name="ma1594967eb" d="M448.35,234.4c.86,0,1.69-.34,2.29-.95,.61-.61,.95-1.43,.95-2.29s-.34-1.69-.95-2.29c-.61-.61-1.43-.95-2.29-.95s-1.69,.34-2.29,.95c-.61,.61-.95,1.43-.95,2.29s.34,1.69,.95,2.29c.61,.61,1.43,.95,2.29,.95Z" fill="#069" stroke="#069" stroke-linejoin="round" stroke-width="2.6"/>
    <path id="ma1594967eb-41" data-name="ma1594967eb" d="M455.76,236.79c.86,0,1.69-.34,2.29-.95,.61-.61,.95-1.43,.95-2.29s-.34-1.69-.95-2.29c-.61-.61-1.43-.95-2.29-.95s-1.69,.34-2.29,.95c-.61,.61-.95,1.43-.95,2.29s.34,1.69,.95,2.29c.61,.61,1.43,.95,2.29,.95Z" fill="#069" stroke="#069" stroke-linejoin="round" stroke-width="2.6"/>
    <path id="ma1594967eb-42" data-name="ma1594967eb" d="M463.17,200.63c.86,0,1.69-.34,2.29-.95,.61-.61,.95-1.43,.95-2.29s-.34-1.69-.95-2.29c-.61-.61-1.43-.95-2.29-.95s-1.69,.34-2.29,.95c-.61,.61-.95,1.43-.95,2.29s.34,1.69,.95,2.29c.61,.61,1.43,.95,2.29,.95Z" fill="#069" stroke="#069" stroke-linejoin="round" stroke-width="2.6"/>
    <path id="ma1594967eb-43" data-name="ma1594967eb" d="M470.57,199.81c.86,0,1.69-.34,2.29-.95,.61-.61,.95-1.43,.95-2.29s-.34-1.69-.95-2.29c-.61-.61-1.43-.95-2.29-.95s-1.69,.34-2.29,.95c-.61,.61-.95,1.43-.95,2.29s.34,1.69,.95,2.29c.61,.61,1.43,.95,2.29,.95Z" fill="#069" stroke="#069" stroke-linejoin="round" stroke-width="2.6"/>
    <path id="ma1594967eb-44" data-name="ma1594967eb" d="M477.98,222.84c.86,0,1.69-.34,2.29-.95,.61-.61,.95-1.43,.95-2.29s-.34-1.69-.95-2.29c-.61-.61-1.43-.95-2.29-.95s-1.69,.34-2.29,.95c-.61,.61-.95,1.43-.95,2.29s.34,1.69,.95,2.29c.61,.61,1.43,.95,2.29,.95Z" fill="#069" stroke="#069" stroke-linejoin="round" stroke-width="2.6"/>
    <path id="ma1594967eb-45" data-name="ma1594967eb" d="M485.38,44.65c.86,0,1.69-.34,2.29-.95,.61-.61,.95-1.43,.95-2.29s-.34-1.69-.95-2.29c-.61-.61-1.43-.95-2.29-.95s-1.69,.34-2.29,.95c-.61,.61-.95,1.43-.95,2.29s.34,1.69,.95,2.29c.61,.61,1.43,.95,2.29,.95Z" fill="#069" stroke="#069" stroke-linejoin="round" stroke-width="2.6"/>
    <path id="ma1594967eb-46" data-name="ma1594967eb" d="M492.79,105.2c.86,0,1.69-.34,2.29-.95,.61-.61,.95-1.43,.95-2.29s-.34-1.69-.95-2.29c-.61-.61-1.43-.95-2.29-.95s-1.69,.34-2.29,.95c-.61,.61-.95,1.43-.95,2.29s.34,1.69,.95,2.29c.61,.61,1.43,.95,2.29,.95Z" fill="#069" stroke="#069" stroke-linejoin="round" stroke-width="2.6"/>
    <path id="ma1594967eb-47" data-name="ma1594967eb" d="M500.2,125.85c.86,0,1.69-.34,2.29-.95,.61-.61,.95-1.43,.95-2.29s-.34-1.69-.95-2.29c-.61-.61-1.43-.95-2.29-.95s-1.69,.34-2.29,.95c-.61,.61-.95,1.43-.95,2.29s.34,1.69,.95,2.29c.61,.61,1.43,.95,2.29,.95Z" fill="#069" stroke="#069" stroke-linejoin="round" stroke-width="2.6"/>
    <path id="ma1594967eb-48" data-name="ma1594967eb" d="M507.6,26.54c.86,0,1.69-.34,2.29-.95,.61-.61,.95-1.43,.95-2.29s-.34-1.69-.95-2.29c-.61-.61-1.43-.95-2.29-.95s-1.69,.34-2.29,.95c-.61,.61-.95,1.43-.95,2.29s.34,1.69,.95,2.29c.61,.61,1.43,.95,2.29,.95Z" fill="#069" stroke="#069" stroke-linejoin="round" stroke-width="2.6"/>
    <path id="ma1594967eb-49" data-name="ma1594967eb" d="M515.01,142.74c.86,0,1.69-.34,2.29-.95,.61-.61,.95-1.43,.95-2.29s-.34-1.69-.95-2.29c-.61-.61-1.43-.95-2.29-.95s-1.69,.34-2.29,.95c-.61,.61-.95,1.43-.95,2.29s.34,1.69,.95,2.29c.61,.61,1.43,.95,2.29,.95Z" fill="#069" stroke="#069" stroke-linejoin="round" stroke-width="2.6"/>
    <path id="ma1594967eb-50" data-name="ma1594967eb" d="M522.41,66.81c.86,0,1.69-.34,2.29-.95,.61-.61,.95-1.43,.95-2.29s-.34-1.69-.95-2.29c-.61-.61-1.43-.95-2.29-.95s-1.69,.34-2.29,.95c-.61,.61-.95,1.43-.95,2.29s.34,1.69,.95,2.29c.61,.61,1.43,.95,2.29,.95Z" fill="#069" stroke="#069" stroke-linejoin="round" stroke-width="2.6"/>
    <path id="ma1594967eb-51" data-name="ma1594967eb" d="M529.82,38.09c.86,0,1.69-.34,2.29-.95,.61-.61,.95-1.43,.95-2.29s-.34-1.69-.95-2.29c-.61-.61-1.43-.95-2.29-.95s-1.69,.34-2.29,.95c-.61,.61-.95,1.43-.95,2.29s.34,1.69,.95,2.29c.61,.61,1.43,.95,2.29,.95Z" fill="#069" stroke="#069" stroke-linejoin="round" stroke-width="2.6"/>
    <path id="ma1594967eb-52" data-name="ma1594967eb" d="M537.23,59.79c.86,0,1.69-.34,2.29-.95,.61-.61,.95-1.43,.95-2.29s-.34-1.69-.95-2.29c-.61-.61-1.43-.95-2.29-.95s-1.69,.34-2.29,.95c-.61,.61-.95,1.43-.95,2.29s.34,1.69,.95,2.29c.61,.61,1.43,.95,2.29,.95Z" fill="#069" stroke="#069" stroke-linejoin="round" stroke-width="2.6"/>
    <path id="ma1594967eb-53" data-name="ma1594967eb" d="M544.63,66.82c.86,0,1.69-.34,2.29-.95,.61-.61,.95-1.43,.95-2.29s-.34-1.69-.95-2.29c-.61-.61-1.43-.95-2.29-.95s-1.69,.34-2.29,.95c-.61,.61-.95,1.43-.95,2.29s.34,1.69,.95,2.29c.61,.61,1.43,.95,2.29,.95Z" fill="#069" stroke="#069" stroke-linejoin="round" stroke-width="2.6"/>
    <path id="ma1594967eb-54" data-name="ma1594967eb" d="M552.04,57.75c.86,0,1.69-.34,2.29-.95,.61-.61,.95-1.43,.95-2.29s-.34-1.69-.95-2.29c-.61-.61-1.43-.95-2.29-.95s-1.69,.34-2.29,.95c-.61,.61-.95,1.43-.95,2.29s.34,1.69,.95,2.29c.61,.61,1.43,.95,2.29,.95Z" fill="#069" stroke="#069" stroke-linejoin="round" stroke-width="2.6"/>
    <path id="ma1594967eb-55" data-name="ma1594967eb" d="M559.44,64.2c.86,0,1.69-.34,2.29-.95,.61-.61,.95-1.43,.95-2.29s-.34-1.69-.95-2.29c-.61-.61-1.43-.95-2.29-.95s-1.69,.34-2.29,.95c-.61,.61-.95,1.43-.95,2.29s.34,1.69,.95,2.29c.61,.61,1.43,.95,2.29,.95Z" fill="#069" stroke="#069" stroke-linejoin="round" stroke-width="2.6"/>
    <path id="ma1594967eb-56" data-name="ma1594967eb" d="M566.85,99.19c.86,0,1.69-.34,2.29-.95,.61-.61,.95-1.43,.95-2.29s-.34-1.69-.95-2.29c-.61-.61-1.43-.95-2.29-.95s-1.69,.34-2.29,.95c-.61,.61-.95,1.43-.95,2.29s.34,1.69,.95,2.29c.61,.61,1.43,.95,2.29,.95Z" fill="#069" stroke="#069" stroke-linejoin="round" stroke-width="2.6"/>
    <path id="ma1594967eb-57" data-name="ma1594967eb" d="M574.26,220.59c.86,0,1.69-.34,2.29-.95,.61-.61,.95-1.43,.95-2.29s-.34-1.69-.95-2.29c-.61-.61-1.43-.95-2.29-.95s-1.69,.34-2.29,.95c-.61,.61-.95,1.43-.95,2.29s.34,1.69,.95,2.29c.61,.61,1.43,.95,2.29,.95Z" fill="#069" stroke="#069" stroke-linejoin="round" stroke-width="2.6"/>
    <path id="ma1594967eb-58" data-name="ma1594967eb" d="M581.66,100.85c.86,0,1.69-.34,2.29-.95,.61-.61,.95-1.43,.95-2.29s-.34-1.69-.95-2.29c-.61-.61-1.43-.95-2.29-.95s-1.69,.34-2.29,.95c-.61,.61-.95,1.43-.95,2.29s.34,1.69,.95,2.29c.61,.61,1.43,.95,2.29,.95Z" fill="#069" stroke="#069" stroke-linejoin="round" stroke-width="2.6"/>
    <path id="ma1594967eb-59" data-name="ma1594967eb" d="M589.07,98.78c.86,0,1.69-.34,2.29-.95,.61-.61,.95-1.43,.95-2.29s-.34-1.69-.95-2.29c-.61-.61-1.43-.95-2.29-.95s-1.69,.34-2.29,.95c-.61,.61-.95,1.43-.95,2.29s.34,1.69,.95,2.29c.61,.61,1.43,.95,2.29,.95Z" fill="#069" stroke="#069" stroke-linejoin="round" stroke-width="2.6"/>
    <path id="ma1594967eb-60" data-name="ma1594967eb" d="M596.47,126.07c.86,0,1.69-.34,2.29-.95,.61-.61,.95-1.43,.95-2.29s-.34-1.69-.95-2.29c-.61-.61-1.43-.95-2.29-.95s-1.69,.34-2.29,.95c-.61,.61-.95,1.43-.95,2.29s.34,1.69,.95,2.29c.61,.61,1.43,.95,2.29,.95Z" fill="#069" stroke="#069" stroke-linejoin="round" stroke-width="2.6"/>
    <path id="ma1594967eb-61" data-name="ma1594967eb" d="M603.88,254.94c.86,0,1.69-.34,2.29-.95,.61-.61,.95-1.43,.95-2.29s-.34-1.69-.95-2.29c-.61-.61-1.43-.95-2.29-.95s-1.69,.34-2.29,.95c-.61,.61-.95,1.43-.95,2.29s.34,1.69,.95,2.29c.61,.61,1.43,.95,2.29,.95Z" fill="#069" stroke="#069" stroke-linejoin="round" stroke-width="2.6"/>
    <path id="ma1594967eb-62" data-name="ma1594967eb" d="M611.29,69.81c.86,0,1.69-.34,2.29-.95,.61-.61,.95-1.43,.95-2.29s-.34-1.69-.95-2.29c-.61-.61-1.43-.95-2.29-.95s-1.69,.34-2.29,.95c-.61,.61-.95,1.43-.95,2.29s.34,1.69,.95,2.29c.61,.61,1.43,.95,2.29,.95Z" fill="#069" stroke="#069" stroke-linejoin="round" stroke-width="2.6"/>
    <path id="ma1594967eb-63" data-name="ma1594967eb" d="M618.69,225.43c.86,0,1.69-.34,2.29-.95,.61-.61,.95-1.43,.95-2.29s-.34-1.69-.95-2.29c-.61-.61-1.43-.95-2.29-.95s-1.69,.34-2.29,.95c-.61,.61-.95,1.43-.95,2.29s.34,1.69,.95,2.29c.61,.61,1.43,.95,2.29,.95Z" fill="#069" stroke="#069" stroke-linejoin="round" stroke-width="2.6"/>
    <path id="ma1594967eb-64" data-name="ma1594967eb" d="M626.1,350.01c.86,0,1.69-.34,2.29-.95,.61-.61,.95-1.43,.95-2.29s-.34-1.69-.95-2.29c-.61-.61-1.43-.95-2.29-.95s-1.69,.34-2.29,.95c-.61,.61-.95,1.43-.95,2.29s.34,1.69,.95,2.29c.61,.61,1.43,.95,2.29,.95Z" fill="#069" stroke="#069" stroke-linejoin="round" stroke-width="2.6"/>
    <path id="ma1594967eb-65" data-name="ma1594967eb" d="M633.5,351.6c.86,0,1.69-.34,2.29-.95,.61-.61,.95-1.43,.95-2.29s-.34-1.69-.95-2.29c-.61-.61-1.43-.95-2.29-.95s-1.69,.34-2.29,.95c-.61,.61-.95,1.43-.95,2.29s.34,1.69,.95,2.29c.61,.61,1.43,.95,2.29,.95Z" fill="#069" stroke="#069" stroke-linejoin="round" stroke-width="2.6"/>
    <path id="ma1594967eb-66" data-name="ma1594967eb" d="M640.91,411.7c.86,0,1.69-.34,2.29-.95,.61-.61,.95-1.43,.95-2.29s-.34-1.69-.95-2.29c-.61-.61-1.43-.95-2.29-.95s-1.69,.34-2.29,.95c-.61,.61-.95,1.43-.95,2.29s.34,1.69,.95,2.29c.61,.61,1.43,.95,2.29,.95Z" fill="#069" stroke="#069" stroke-linejoin="round" stroke-width="2.6"/>
    <path id="ma1594967eb-67" data-name="ma1594967eb" d="M648.31,335.52c.86,0,1.69-.34,2.29-.95,.61-.61,.95-1.43,.95-2.29s-.34-1.69-.95-2.29c-.61-.61-1.43-.95-2.29-.95s-1.69,.34-2.29,.95c-.61,.61-.95,1.43-.95,2.29s.34,1.69,.95,2.29c.61,.61,1.43,.95,2.29,.95Z" fill="#069" stroke="#069" stroke-linejoin="round" stroke-width="2.6"/>
    <path id="ma1594967eb-68" data-name="ma1594967eb" d="M655.72,311.01c.86,0,1.69-.34,2.29-.95,.61-.61,.95-1.43,.95-2.29s-.34-1.69-.95-2.29c-.61-.61-1.43-.95-2.29-.95s-1.69,.34-2.29,.95c-.61,.61-.95,1.43-.95,2.29s.34,1.69,.95,2.29c.61,.61,1.43,.95,2.29,.95Z" fill="#069" stroke="#069" stroke-linejoin="round" stroke-width="2.6"/>
    <path id="ma1594967eb-69" data-name="ma1594967eb" d="M663.13,439.65c.86,0,1.69-.34,2.29-.95,.61-.61,.95-1.43,.95-2.29s-.34-1.69-.95-2.29c-.61-.61-1.43-.95-2.29-.95s-1.69,.34-2.29,.95c-.61,.61-.95,1.43-.95,2.29s.34,1.69,.95,2.29c.61,.61,1.43,.95,2.29,.95Z" fill="#069" stroke="#069" stroke-linejoin="round" stroke-width="2.6"/>
    <path id="ma1594967eb-70" data-name="ma1594967eb" d="M670.53,441.68c.86,0,1.69-.34,2.29-.95,.61-.61,.95-1.43,.95-2.29s-.34-1.69-.95-2.29c-.61-.61-1.43-.95-2.29-.95s-1.69,.34-2.29,.95c-.61,.61-.95,1.43-.95,2.29s.34,1.69,.95,2.29c.61,.61,1.43,.95,2.29,.95Z" fill="#069" stroke="#069" stroke-linejoin="round" stroke-width="2.6"/>
    <path id="ma1594967eb-71" data-name="ma1594967eb" d="M677.94,434.86c.86,0,1.69-.34,2.29-.95,.61-.61,.95-1.43,.95-2.29s-.34-1.69-.95-2.29c-.61-.61-1.43-.95-2.29-.95s-1.69,.34-2.29,.95c-.61,.61-.95,1.43-.95,2.29s.34,1.69,.95,2.29c.61,.61,1.43,.95,2.29,.95Z" fill="#069" stroke="#069" stroke-linejoin="round" stroke-width="2.6"/>
    <path id="ma1594967eb-72" data-name="ma1594967eb" d="M685.34,449.94c.86,0,1.69-.34,2.29-.95,.61-.61,.95-1.43,.95-2.29s-.34-1.69-.95-2.29c-.61-.61-1.43-.95-2.29-.95s-1.69,.34-2.29,.95c-.61,.61-.95,1.43-.95,2.29s.34,1.69,.95,2.29c.61,.61,1.43,.95,2.29,.95Z" fill="#069" stroke="#069" stroke-linejoin="round" stroke-width="2.6"/>
    <path id="ma1594967eb-73" data-name="ma1594967eb" d="M692.75,456.62c.86,0,1.69-.34,2.29-.95,.61-.61,.95-1.43,.95-2.29s-.34-1.69-.95-2.29c-.61-.61-1.43-.95-2.29-.95s-1.69,.34-2.29,.95c-.61,.61-.95,1.43-.95,2.29s.34,1.69,.95,2.29c.61,.61,1.43,.95,2.29,.95Z" fill="#069" stroke="#069" stroke-linejoin="round" stroke-width="2.6"/>
    <path id="ma1594967eb-74" data-name="ma1594967eb" d="M700.16,448.67c.86,0,1.69-.34,2.29-.95,.61-.61,.95-1.43,.95-2.29s-.34-1.69-.95-2.29c-.61-.61-1.43-.95-2.29-.95s-1.69,.34-2.29,.95c-.61,.61-.95,1.43-.95,2.29s.34,1.69,.95,2.29c.61,.61,1.43,.95,2.29,.95Z" fill="#069" stroke="#069" stroke-linejoin="round" stroke-width="2.6"/>
    <path id="ma1594967eb-75" data-name="ma1594967eb" d="M707.56,422.85c.86,0,1.69-.34,2.29-.95,.61-.61,.95-1.43,.95-2.29s-.34-1.69-.95-2.29c-.61-.61-1.43-.95-2.29-.95s-1.69,.34-2.29,.95c-.61,.61-.95,1.43-.95,2.29s.34,1.69,.95,2.29c.61,.61,1.43,.95,2.29,.95Z" fill="#069" stroke="#069" stroke-linejoin="round" stroke-width="2.6"/>
    <path id="ma1594967eb-76" data-name="ma1594967eb" d="M714.97,420.14c.86,0,1.69-.34,2.29-.95,.61-.61,.95-1.43,.95-2.29s-.34-1.69-.95-2.29c-.61-.61-1.43-.95-2.29-.95s-1.69,.34-2.29,.95c-.61,.61-.95,1.43-.95,2.29s.34,1.69,.95,2.29c.61,.61,1.43,.95,2.29,.95Z" fill="#069" stroke="#069" stroke-linejoin="round" stroke-width="2.6"/>
    <path id="ma1594967eb-77" data-name="ma1594967eb" d="M722.37,429.08c.86,0,1.69-.34,2.29-.95,.61-.61,.95-1.43,.95-2.29s-.34-1.69-.95-2.29c-.61-.61-1.43-.95-2.29-.95s-1.69,.34-2.29,.95c-.61,.61-.95,1.43-.95,2.29s.34,1.69,.95,2.29c.61,.61,1.43,.95,2.29,.95Z" fill="#069" stroke="#069" stroke-linejoin="round" stroke-width="2.6"/>
    <path id="ma1594967eb-78" data-name="ma1594967eb" d="M729.78,447.77c.86,0,1.69-.34,2.29-.95,.61-.61,.95-1.43,.95-2.29s-.34-1.69-.95-2.29c-.61-.61-1.43-.95-2.29-.95s-1.69,.34-2.29,.95c-.61,.61-.95,1.43-.95,2.29s.34,1.69,.95,2.29c.61,.61,1.43,.95,2.29,.95Z" fill="#069" stroke="#069" stroke-linejoin="round" stroke-width="2.6"/>
    <path id="ma1594967eb-79" data-name="ma1594967eb" d="M737.19,378.02c.86,0,1.69-.34,2.29-.95,.61-.61,.95-1.43,.95-2.29s-.34-1.69-.95-2.29c-.61-.61-1.43-.95-2.29-.95s-1.69,.34-2.29,.95c-.61,.61-.95,1.43-.95,2.29s.34,1.69,.95,2.29c.61,.61,1.43,.95,2.29,.95Z" fill="#069" stroke="#069" stroke-linejoin="round" stroke-width="2.6"/>
    <path id="ma1594967eb-80" data-name="ma1594967eb" d="M744.59,448.23c.86,0,1.69-.34,2.29-.95,.61-.61,.95-1.43,.95-2.29s-.34-1.69-.95-2.29c-.61-.61-1.43-.95-2.29-.95s-1.69,.34-2.29,.95c-.61,.61-.95,1.43-.95,2.29s.34,1.69,.95,2.29c.61,.61,1.43,.95,2.29,.95Z" fill="#069" stroke="#069" stroke-linejoin="round" stroke-width="2.6"/>
    <path id="ma1594967eb-81" data-name="ma1594967eb" d="M752,418.42c.86,0,1.69-.34,2.29-.95,.61-.61,.95-1.43,.95-2.29s-.34-1.69-.95-2.29c-.61-.61-1.43-.95-2.29-.95s-1.69,.34-2.29,.95c-.61,.61-.95,1.43-.95,2.29s.34,1.69,.95,2.29c.61,.61,1.43,.95,2.29,.95Z" fill="#069" stroke="#069" stroke-linejoin="round" stroke-width="2.6"/>
    <path id="ma1594967eb-82" data-name="ma1594967eb" d="M759.4,406.44c.86,0,1.69-.34,2.29-.95,.61-.61,.95-1.43,.95-2.29s-.34-1.69-.95-2.29c-.61-.61-1.43-.95-2.29-.95s-1.69,.34-2.29,.95c-.61,.61-.95,1.43-.95,2.29s.34,1.69,.95,2.29c.61,.61,1.43,.95,2.29,.95Z" fill="#069" stroke="#069" stroke-linejoin="round" stroke-width="2.6"/>
    <path id="ma1594967eb-83" data-name="ma1594967eb" d="M766.81,393.3c.86,0,1.69-.34,2.29-.95,.61-.61,.95-1.43,.95-2.29s-.34-1.69-.95-2.29c-.61-.61-1.43-.95-2.29-.95s-1.69,.34-2.29,.95c-.61,.61-.95,1.43-.95,2.29s.34,1.69,.95,2.29c.61,.61,1.43,.95,2.29,.95Z" fill="#069" stroke="#069" stroke-linejoin="round" stroke-width="2.6"/>
    <path id="ma1594967eb-84" data-name="ma1594967eb" d="M774.22,440.76c.86,0,1.69-.34,2.29-.95,.61-.61,.95-1.43,.95-2.29s-.34-1.69-.95-2.29c-.61-.61-1.43-.95-2.29-.95s-1.69,.34-2.29,.95c-.61,.61-.95,1.43-.95,2.29s.34,1.69,.95,2.29c.61,.61,1.43,.95,2.29,.95Z" fill="#069" stroke="#069" stroke-linejoin="round" stroke-width="2.6"/>
    <path id="ma1594967eb-85" data-name="ma1594967eb" d="M781.62,456.19c.86,0,1.69-.34,2.29-.95,.61-.61,.95-1.43,.95-2.29s-.34-1.69-.95-2.29c-.61-.61-1.43-.95-2.29-.95s-1.69,.34-2.29,.95c-.61,.61-.95,1.43-.95,2.29s.34,1.69,.95,2.29c.61,.61,1.43,.95,2.29,.95Z" fill="#069" stroke="#069" stroke-linejoin="round" stroke-width="2.6"/>
    <path id="ma1594967eb-86" data-name="ma1594967eb" d="M789.03,436.13c.86,0,1.69-.34,2.29-.95,.61-.61,.95-1.43,.95-2.29s-.34-1.69-.95-2.29c-.61-.61-1.43-.95-2.29-.95s-1.69,.34-2.29,.95c-.61,.61-.95,1.43-.95,2.29s.34,1.69,.95,2.29c.61,.61,1.43,.95,2.29,.95Z" fill="#069" stroke="#069" stroke-linejoin="round" stroke-width="2.6"/>
    <path id="ma1594967eb-87" data-name="ma1594967eb" d="M796.43,412.49c.86,0,1.69-.34,2.29-.95,.61-.61,.95-1.43,.95-2.29s-.34-1.69-.95-2.29c-.61-.61-1.43-.95-2.29-.95s-1.69,.34-2.29,.95c-.61,.61-.95,1.43-.95,2.29s.34,1.69,.95,2.29c.61,.61,1.43,.95,2.29,.95Z" fill="#069" stroke="#069" stroke-linejoin="round" stroke-width="2.6"/>
    <path id="ma1594967eb-88" data-name="ma1594967eb" d="M803.84,426.31c.86,0,1.69-.34,2.29-.95,.61-.61,.95-1.43,.95-2.29s-.34-1.69-.95-2.29c-.61-.61-1.43-.95-2.29-.95s-1.69,.34-2.29,.95c-.61,.61-.95,1.43-.95,2.29s.34,1.69,.95,2.29c.61,.61,1.43,.95,2.29,.95Z" fill="#069" stroke="#069" stroke-linejoin="round" stroke-width="2.6"/>
    <path id="ma1594967eb-89" data-name="ma1594967eb" d="M811.25,452.86c.86,0,1.69-.34,2.29-.95,.61-.61,.95-1.43,.95-2.29s-.34-1.69-.95-2.29c-.61-.61-1.43-.95-2.29-.95s-1.69,.34-2.29,.95c-.61,.61-.95,1.43-.95,2.29s.34,1.69,.95,2.29c.61,.61,1.43,.95,2.29,.95Z" fill="#069" stroke="#069" stroke-linejoin="round" stroke-width="2.6"/>
    <path id="ma1594967eb-90" data-name="ma1594967eb" d="M818.65,442.64c.86,0,1.69-.34,2.29-.95,.61-.61,.95-1.43,.95-2.29s-.34-1.69-.95-2.29c-.61-.61-1.43-.95-2.29-.95s-1.69,.34-2.29,.95c-.61,.61-.95,1.43-.95,2.29s.34,1.69,.95,2.29c.61,.61,1.43,.95,2.29,.95Z" fill="#069" stroke="#069" stroke-linejoin="round" stroke-width="2.6"/>
    <path id="ma1594967eb-91" data-name="ma1594967eb" d="M826.06,408.95c.86,0,1.69-.34,2.29-.95,.61-.61,.95-1.43,.95-2.29s-.34-1.69-.95-2.29c-.61-.61-1.43-.95-2.29-.95s-1.69,.34-2.29,.95c-.61,.61-.95,1.43-.95,2.29s.34,1.69,.95,2.29c.61,.61,1.43,.95,2.29,.95Z" fill="#069" stroke="#069" stroke-linejoin="round" stroke-width="2.6"/>
    <path id="ma1594967eb-92" data-name="ma1594967eb" d="M833.46,444.01c.86,0,1.69-.34,2.29-.95,.61-.61,.95-1.43,.95-2.29s-.34-1.69-.95-2.29c-.61-.61-1.43-.95-2.29-.95s-1.69,.34-2.29,.95c-.61,.61-.95,1.43-.95,2.29s.34,1.69,.95,2.29c.61,.61,1.43,.95,2.29,.95Z" fill="#069" stroke="#069" stroke-linejoin="round" stroke-width="2.6"/>
    <path id="ma1594967eb-93" data-name="ma1594967eb" d="M840.87,443.63c.86,0,1.69-.34,2.29-.95,.61-.61,.95-1.43,.95-2.29s-.34-1.69-.95-2.29c-.61-.61-1.43-.95-2.29-.95s-1.69,.34-2.29,.95c-.61,.61-.95,1.43-.95,2.29s.34,1.69,.95,2.29c.61,.61,1.43,.95,2.29,.95Z" fill="#069" stroke="#069" stroke-linejoin="round" stroke-width="2.6"/>
    <path id="ma1594967eb-94" data-name="ma1594967eb" d="M848.27,420.19c.86,0,1.69-.34,2.29-.95,.61-.61,.95-1.43,.95-2.29s-.34-1.69-.95-2.29c-.61-.61-1.43-.95-2.29-.95s-1.69,.34-2.29,.95c-.61,.61-.95,1.43-.95,2.29s.34,1.69,.95,2.29c.61,.61,1.43,.95,2.29,.95Z" fill="#069" stroke="#069" stroke-linejoin="round" stroke-width="2.6"/>
    <path id="ma1594967eb-95" data-name="ma1594967eb" d="M855.68,442.52c.86,0,1.69-.34,2.29-.95,.61-.61,.95-1.43,.95-2.29s-.34-1.69-.95-2.29c-.61-.61-1.43-.95-2.29-.95s-1.69,.34-2.29,.95c-.61,.61-.95,1.43-.95,2.29s.34,1.69,.95,2.29c.61,.61,1.43,.95,2.29,.95Z" fill="#069" stroke="#069" stroke-linejoin="round" stroke-width="2.6"/>
    <path id="ma1594967eb-96" data-name="ma1594967eb" d="M863.09,405.77c.86,0,1.69-.34,2.29-.95,.61-.61,.95-1.43,.95-2.29s-.34-1.69-.95-2.29c-.61-.61-1.43-.95-2.29-.95s-1.69,.34-2.29,.95c-.61,.61-.95,1.43-.95,2.29s.34,1.69,.95,2.29c.61,.61,1.43,.95,2.29,.95Z" fill="#069" stroke="#069" stroke-linejoin="round" stroke-width="2.6"/>
    <path id="ma1594967eb-97" data-name="ma1594967eb" d="M870.49,448.81c.86,0,1.69-.34,2.29-.95,.61-.61,.95-1.43,.95-2.29s-.34-1.69-.95-2.29c-.61-.61-1.43-.95-2.29-.95s-1.69,.34-2.29,.95c-.61,.61-.95,1.43-.95,2.29s.34,1.69,.95,2.29c.61,.61,1.43,.95,2.29,.95Z" fill="#069" stroke="#069" stroke-linejoin="round" stroke-width="2.6"/>
    <path id="ma1594967eb-98" data-name="ma1594967eb" d="M877.9,381.49c.86,0,1.69-.34,2.29-.95,.61-.61,.95-1.43,.95-2.29s-.34-1.69-.95-2.29c-.61-.61-1.43-.95-2.29-.95s-1.69,.34-2.29,.95c-.61,.61-.95,1.43-.95,2.29s.34,1.69,.95,2.29c.61,.61,1.43,.95,2.29,.95Z" fill="#069" stroke="#069" stroke-linejoin="round" stroke-width="2.6"/>
    <path id="ma1594967eb-99" data-name="ma1594967eb" d="M885.3,443.13c.86,0,1.69-.34,2.29-.95,.61-.61,.95-1.43,.95-2.29s-.34-1.69-.95-2.29c-.61-.61-1.43-.95-2.29-.95s-1.69,.34-2.29,.95c-.61,.61-.95,1.43-.95,2.29s.34,1.69,.95,2.29c.61,.61,1.43,.95,2.29,.95Z" fill="#069" stroke="#069" stroke-linejoin="round" stroke-width="2.6"/>
    <path id="ma1594967eb-100" data-name="ma1594967eb" d="M892.71,430.48c.86,0,1.69-.34,2.29-.95,.61-.61,.95-1.43,.95-2.29s-.34-1.69-.95-2.29c-.61-.61-1.43-.95-2.29-.95s-1.69,.34-2.29,.95c-.61,.61-.95,1.43-.95,2.29s.34,1.69,.95,2.29c.61,.61,1.43,.95,2.29,.95Z" fill="#069" stroke="#069" stroke-linejoin="round" stroke-width="2.6"/>
    <path id="ma1594967eb-101" data-name="ma1594967eb" d="M900.12,419.54c.86,0,1.69-.34,2.29-.95,.61-.61,.95-1.43,.95-2.29s-.34-1.69-.95-2.29c-.61-.61-1.43-.95-2.29-.95s-1.69,.34-2.29,.95c-.61,.61-.95,1.43-.95,2.29s.34,1.69,.95,2.29c.61,.61,1.43,.95,2.29,.95Z" fill="#069" stroke="#069" stroke-linejoin="round" stroke-width="2.6"/>
  </g>
  <path d="M159.52,448.03l26.45-2.3,23.51-2.51,20.57-2.65,19.1-2.95,16.16-2.96,14.69-3.14,13.22-3.28,13.22-3.79,11.76-3.89,10.29-3.89,10.29-4.42,8.82-4.28,8.82-4.81,8.82-5.43,7.35-5.07,7.35-5.63,7.35-6.28,7.35-7.02,5.88-6.22,5.88-6.82,5.88-7.49,5.88-8.24,5.88-9.07,5.88-9.99,5.88-11,5.88-12.12,5.88-13.34,5.88-14.66,5.88-16.06,5.88-17.52,5.88-19,5.88-20.43,7.35-27.32,10.29-40.47,10.29-40.3,5.88-21.21,4.41-14.24,4.41-12.27,2.94-6.86,2.94-5.66,2.94-4.36,2.94-2.97,1.47-.95,1.47-.58,1.47-.21,1.47,.16,1.47,.53,1.47,.9,1.47,1.26,2.94,3.58,2.94,4.94,2.94,6.2,2.94,7.34,4.41,12.89,4.41,14.71,5.88,21.64,10.29,40.54,10.29,40.25,7.35,27,5.88,20.13,5.88,18.68,5.88,17.2,5.88,15.75,5.88,14.37,5.88,13.07,5.88,11.87,5.88,10.77,5.88,9.78,5.88,8.88,5.88,8.07,5.88,7.34,5.88,6.68,7.35,7.54,7.35,6.73,7.35,6.03,7.35,5.41,7.35,4.87,8.82,5.23,8.82,4.64,8.82,4.13,10.29,4.27,10.29,3.76,11.76,3.77,13.22,3.68,13.22,3.18,14.69,3.05,16.16,2.88,17.63,2.67,20.57,2.62,23.51,2.48,13.22,1.2h0" fill="none" stroke="red" stroke-linecap="round" stroke-linejoin="round" stroke-width="4"/>
  <rect x="122.49" y="1" width="814.66" height="490.49" fill="none" stroke="#000" stroke-linecap="square" stroke-linejoin="round" stroke-width="2"/>
  <g>
    <path d="M76.07,62.37c-2.14-1.97-2.46-5.55-2.46-8.69s.31-6.69,2.46-8.66c.97-.89,2.32-1.63,4.23-1.63s3.29,.71,4.23,1.63c2.12,2.03,2.46,5.55,2.46,8.66s-.31,6.72-2.46,8.69c-.94,.89-2.32,1.63-4.23,1.63s-3.26-.74-4.23-1.63Zm7.52-.92c1.86-1.74,1.97-5.18,1.97-7.78s-.09-6-1.97-7.75c-.77-.71-1.8-1.17-3.29-1.17s-2.52,.49-3.26,1.17c-1.89,1.74-1.97,5.18-1.97,7.75s.09,6.03,1.97,7.78c.74,.69,1.8,1.17,3.26,1.17s2.54-.46,3.29-1.17Z"/>
    <path d="M93.86,61.03v2.57h-2.52v-2.57h2.52Z"/>
    <path d="M97.89,57.85h1.43c.14,2.8,2.09,4.78,5.09,4.78,3.17,0,4.98-2.23,4.98-5.23s-1.57-5.29-4.75-5.29c-1.77,0-3.52,.69-4.46,2.17h-1.69l.8-10.49h10.84v1.34h-9.61l-.66,7.72c1.09-1.4,3-2.09,4.78-2.09,4.09,0,6.18,2.86,6.18,6.63s-2.26,6.61-6.41,6.61-6.43-2.66-6.52-6.15Z"/>
  </g>
  <line x1="122.49" y1="56.27" x2="129.68" y2="56.27" fill="none" stroke="#000" stroke-linecap="round" stroke-linejoin="round" stroke-width="2"/>
  <g>
    <path d="M76.13,163.05c-2.15-1.97-2.46-5.55-2.46-8.69s.31-6.69,2.46-8.66c.97-.89,2.32-1.63,4.23-1.63s3.29,.71,4.23,1.63c2.12,2.03,2.46,5.55,2.46,8.66s-.31,6.72-2.46,8.69c-.94,.89-2.32,1.63-4.23,1.63s-3.26-.74-4.23-1.63Zm7.52-.92c1.86-1.74,1.97-5.18,1.97-7.78s-.09-6-1.97-7.75c-.77-.71-1.8-1.17-3.29-1.17s-2.52,.49-3.26,1.17c-1.89,1.74-1.97,5.18-1.97,7.75s.09,6.03,1.97,7.78c.74,.69,1.8,1.17,3.26,1.17s2.54-.46,3.29-1.17Z"/>
    <path d="M93.91,161.71v2.57h-2.52v-2.57h2.52Z"/>
    <path d="M107.13,159.62h-9.89v-1.72l8.58-13.44h1.69l-8.81,13.73h8.44v-6.55h1.46v6.55h2.95v1.43h-2.95v4.66h-1.46v-4.66Z"/>
  </g>
  <line x1="122.49" y1="156.95" x2="129.68" y2="156.95" fill="none" stroke="#000" stroke-linecap="round" stroke-linejoin="round" stroke-width="2"/>
  <g>
    <path d="M75.93,263.73c-2.15-1.97-2.46-5.55-2.46-8.69s.31-6.69,2.46-8.66c.97-.89,2.32-1.63,4.23-1.63s3.29,.71,4.23,1.63c2.12,2.03,2.46,5.55,2.46,8.66s-.31,6.72-2.46,8.69c-.94,.89-2.32,1.63-4.23,1.63s-3.26-.74-4.23-1.63Zm7.52-.92c1.86-1.74,1.97-5.18,1.97-7.78s-.09-6-1.97-7.75c-.77-.71-1.8-1.17-3.29-1.17s-2.52,.49-3.26,1.17c-1.89,1.74-1.97,5.18-1.97,7.75s.09,6.03,1.97,7.78c.74,.69,1.8,1.17,3.26,1.17s2.54-.46,3.29-1.17Z"/>
    <path d="M93.71,262.39v2.57h-2.52v-2.57h2.52Z"/>
    <path d="M97.78,259.1h1.46c.03,2.52,1.6,4.89,5,4.89,3.03,0,4.92-1.8,4.92-4.32,0-2.97-2-4.35-5-4.35h-1.12v-1.37h1.12c2.72,0,4.58-1.26,4.58-3.92,0-2.29-2.03-3.92-4.46-3.92-3.03,0-4.86,1.92-4.89,4.58h-1.46c.06-3.55,2.69-5.95,6.35-5.95,3.32,0,5.92,2.14,5.92,5.29,0,2.15-1.17,4-3.46,4.6,2.49,.6,3.92,2.66,3.92,5.03,0,3.29-2.77,5.69-6.41,5.69-4.03,0-6.38-2.66-6.46-6.26Z"/>
  </g>
  <line x1="122.49" y1="257.63" x2="129.68" y2="257.63" fill="none" stroke="#000" stroke-linecap="round" stroke-linejoin="round" stroke-width="2"/>
  <g>
    <path d="M76.87,364.41c-2.14-1.97-2.46-5.55-2.46-8.69s.31-6.69,2.46-8.66c.97-.89,2.32-1.63,4.23-1.63s3.29,.71,4.23,1.63c2.12,2.03,2.46,5.55,2.46,8.66s-.31,6.72-2.46,8.69c-.94,.89-2.32,1.63-4.23,1.63s-3.26-.74-4.23-1.63Zm7.52-.92c1.86-1.74,1.97-5.18,1.97-7.78s-.09-6-1.97-7.75c-.77-.71-1.8-1.17-3.29-1.17s-2.52,.49-3.26,1.17c-1.89,1.74-1.97,5.18-1.97,7.75s.09,6.03,1.97,7.78c.74,.69,1.8,1.17,3.26,1.17s2.54-.46,3.29-1.17Z"/>
    <path d="M94.66,363.06v2.57h-2.52v-2.57h2.52Z"/>
    <path d="M98.78,364.09l8.26-8.92c1.32-1.43,1.97-2.86,1.97-4.35,0-2.35-1.6-4.03-4.32-4.03s-4.43,1.86-4.43,5.09h-1.52c0-4,2.43-6.46,5.95-6.46,3.26,0,5.75,2.09,5.75,5.4,0,1.77-.86,3.66-2.29,5.18l-7.75,8.26h10.55v1.37h-12.18v-1.54Z"/>
  </g>
  <line x1="122.49" y1="358.3" x2="129.68" y2="358.3" fill="none" stroke="#000" stroke-linecap="round" stroke-linejoin="round" stroke-width="2"/>
  <g>
    <path d="M81.7,465.09c-2.15-1.97-2.46-5.55-2.46-8.69s.31-6.69,2.46-8.66c.97-.89,2.32-1.63,4.23-1.63s3.29,.71,4.23,1.63c2.12,2.03,2.46,5.55,2.46,8.66s-.31,6.72-2.46,8.69c-.94,.89-2.32,1.63-4.23,1.63s-3.26-.74-4.23-1.63Zm7.52-.92c1.86-1.74,1.97-5.18,1.97-7.78s-.09-6-1.97-7.75c-.77-.71-1.8-1.17-3.29-1.17s-2.52,.49-3.26,1.17c-1.89,1.74-1.97,5.18-1.97,7.75s.09,6.03,1.97,7.78c.74,.69,1.8,1.17,3.26,1.17s2.54-.46,3.29-1.17Z"/>
    <path d="M99.49,463.74v2.57h-2.52v-2.57h2.52Z"/>
    <path d="M102.75,451.96v-1.6l5.43-3.86h1.29v19.82h-1.43v-18.04l-5.29,3.69Z"/>
  </g>
  <line x1="122.49" y1="458.98" x2="129.68" y2="458.98" fill="none" stroke="#000" stroke-linecap="round" stroke-linejoin="round" stroke-width="2"/>
  <g>
    <path d="M18.06,276.61v9.61l6.38,2.43v1.57l-20.27-7.86v-1.8l20.27-7.95v1.54l-6.38,2.46Zm-1.37,.54l-11.15,4.32,11.15,4.23v-8.55Z"/>
    <path d="M15.2,263.51c-4.46,0-9.44-1.63-12.9-4.72l.69-.89c3.6,2.8,7.52,4.26,12.21,4.26s8.61-1.46,12.21-4.26l.69,.89c-3.46,3.09-8.44,4.72-12.9,4.72Z"/>
    <path d="M20.46,255.85c-2.54,0-4.12-1.94-4.32-4.8l-.37-5.26h-1.26c-2.4,0-3.43,1.74-3.43,3.95s1.03,3.92,3.17,4.06v1.43c-2.95-.2-4.52-2.57-4.52-5.43,0-3.26,1.6-5.43,4.89-5.43h7.06c.97,0,1.54-.14,1.54-1.12,0-.11,0-.29-.03-.4h1.26c.06,.2,.09,.46,.09,.69,0,1.77-1.34,2.26-2.86,2.26,2.03,.77,3.15,2.95,3.15,5.15,0,2.77-1.69,4.92-4.38,4.92Zm-2.63-10.07h-.74l.31,5.12c.14,2.2,1.34,3.49,3.03,3.49,2,0,3.09-1.54,3.09-3.57,0-3.6-2.92-5.03-5.69-5.03Z"/>
    <path d="M21.86,236.66h2.57v2.52h-2.57v-2.52Z"/>
    <path d="M19.38,231.71H10.14v-1.43h9.15c2.49,0,4.15-1.23,4.15-3.75,0-3.32-2.66-4.69-5.86-4.69h-7.43v-1.43h14.3v1.32l-2.69,.11c1.89,.8,3.09,2.63,3.09,4.78,0,3.23-2.26,5.09-5.46,5.09Z"/>
    <path d="M21.86,212.78h2.57v2.52h-2.57v-2.52Z"/>
    <path d="M27.41,209.74c-3.6-2.8-7.52-4.26-12.21-4.26s-8.61,1.46-12.21,4.26l-.69-.89c3.46-3.09,8.44-4.72,12.9-4.72s9.44,1.63,12.9,4.72l-.69,.89Z"/>
  </g>
  <line x1="189.05" y1="491.49" x2="189.05" y2="484.3" fill="none" stroke="#000" stroke-linecap="round" stroke-linejoin="round" stroke-width="2"/>
  <g>
    <path d="M164.71,516.8h-9.89v-1.72l8.58-13.44h1.69l-8.81,13.73h8.44v-6.55h1.46v6.55h2.95v1.43h-2.95v4.66h-1.46v-4.66Z"/>
    <path d="M174.98,518.89v2.57h-2.52v-2.57h2.52Z"/>
    <path d="M179.1,519.92l8.26-8.92c1.32-1.43,1.97-2.86,1.97-4.35,0-2.34-1.6-4.03-4.32-4.03s-4.43,1.86-4.43,5.09h-1.52c0-4,2.43-6.46,5.95-6.46,3.26,0,5.75,2.09,5.75,5.4,0,1.77-.86,3.66-2.29,5.18l-7.75,8.26h10.55v1.37h-12.18v-1.54Z"/>
    <path d="M194.31,515.71h1.43c.14,2.8,2.09,4.78,5.09,4.78,3.17,0,4.98-2.23,4.98-5.23s-1.57-5.29-4.75-5.29c-1.77,0-3.52,.69-4.46,2.17h-1.69l.8-10.49h10.84v1.34h-9.61l-.66,7.72c1.09-1.4,3-2.09,4.78-2.09,4.09,0,6.18,2.86,6.18,6.63s-2.26,6.61-6.41,6.61-6.43-2.66-6.52-6.15Z"/>
    <path d="M210.5,519.92l8.26-8.92c1.32-1.43,1.97-2.86,1.97-4.35,0-2.34-1.6-4.03-4.32-4.03s-4.43,1.86-4.43,5.09h-1.52c0-4,2.43-6.46,5.95-6.46,3.26,0,5.75,2.09,5.75,5.4,0,1.77-.86,3.66-2.29,5.18l-7.75,8.26h10.55v1.37h-12.18v-1.54Z"/>
  </g>
  <line x1="337.2" y1="491.49" x2="337.2" y2="484.3" fill="none" stroke="#000" stroke-linecap="round" stroke-linejoin="round" stroke-width="2"/>
  <g>
    <path d="M312.49,516.8h-9.89v-1.72l8.58-13.44h1.69l-8.81,13.73h8.44v-6.55h1.46v6.55h2.95v1.43h-2.95v4.66h-1.46v-4.66Z"/>
    <path d="M322.75,518.89v2.57h-2.52v-2.57h2.52Z"/>
    <path d="M326.87,519.92l8.26-8.92c1.32-1.43,1.97-2.86,1.97-4.35,0-2.34-1.6-4.03-4.32-4.03s-4.43,1.86-4.43,5.09h-1.52c0-4,2.43-6.46,5.95-6.46,3.26,0,5.75,2.09,5.75,5.4,0,1.77-.86,3.66-2.29,5.18l-7.75,8.26h10.55v1.37h-12.18v-1.54Z"/>
    <path d="M342.09,515.71h1.43c.14,2.8,2.09,4.78,5.09,4.78,3.17,0,4.98-2.23,4.98-5.23s-1.57-5.29-4.75-5.29c-1.77,0-3.52,.69-4.46,2.17h-1.69l.8-10.49h10.84v1.34h-9.61l-.66,7.72c1.09-1.4,3-2.09,4.78-2.09,4.09,0,6.18,2.86,6.18,6.63s-2.26,6.61-6.41,6.61-6.43-2.66-6.52-6.15Z"/>
    <path d="M367.37,516.8h-9.89v-1.72l8.58-13.44h1.69l-8.81,13.73h8.44v-6.55h1.46v6.55h2.95v1.43h-2.95v4.66h-1.46v-4.66Z"/>
  </g>
  <line x1="485.35" y1="491.49" x2="485.35" y2="484.3" fill="none" stroke="#000" stroke-linecap="round" stroke-linejoin="round" stroke-width="2"/>
  <g>
    <path d="M460.3,516.8h-9.89v-1.72l8.58-13.44h1.69l-8.81,13.73h8.44v-6.55h1.46v6.55h2.95v1.43h-2.95v4.66h-1.46v-4.66Z"/>
    <path d="M470.56,518.89v2.57h-2.52v-2.57h2.52Z"/>
    <path d="M474.68,519.92l8.26-8.92c1.32-1.43,1.97-2.86,1.97-4.35,0-2.34-1.6-4.03-4.32-4.03s-4.43,1.86-4.43,5.09h-1.52c0-4,2.43-6.46,5.95-6.46,3.26,0,5.75,2.09,5.75,5.4,0,1.77-.86,3.66-2.29,5.18l-7.75,8.26h10.55v1.37h-12.18v-1.54Z"/>
    <path d="M489.9,515.71h1.43c.14,2.8,2.09,4.78,5.09,4.78,3.17,0,4.98-2.23,4.98-5.23s-1.57-5.29-4.75-5.29c-1.77,0-3.52,.69-4.46,2.17h-1.69l.8-10.49h10.84v1.34h-9.61l-.66,7.72c1.09-1.4,3-2.09,4.78-2.09,4.09,0,6.18,2.86,6.18,6.63s-2.26,6.61-6.41,6.61-6.43-2.66-6.52-6.15Z"/>
    <path d="M508.12,519.43c-1.52-2.03-1.83-5.06-1.83-7.89,0-3.03,.4-6.32,2.34-8.41,.94-1,2.43-1.89,4.49-1.89,3.35,0,5.75,2.06,5.92,5.18h-1.46c-.2-2.29-1.72-3.8-4.46-3.8-4.43,0-5.35,4.78-5.35,9.49,.71-2.09,2.89-3.49,5.23-3.49,4.12,0,6.49,2.66,6.49,6.58,0,3.66-2.34,6.66-6.46,6.66-2.32,0-3.97-1.17-4.92-2.43Zm9.92-4.23c0-2.75-1.57-5.26-5-5.26-2.86,0-4.86,2.32-4.86,5.2s1.72,5.35,4.89,5.35c3.43,0,4.98-2.52,4.98-5.29Z"/>
  </g>
  <line x1="633.5" y1="491.49" x2="633.5" y2="484.3" fill="none" stroke="#000" stroke-linecap="round" stroke-linejoin="round" stroke-width="2"/>
  <g>
    <path d="M608.46,516.8h-9.89v-1.72l8.58-13.44h1.69l-8.81,13.73h8.44v-6.55h1.46v6.55h2.95v1.43h-2.95v4.66h-1.46v-4.66Z"/>
    <path d="M618.73,518.89v2.57h-2.52v-2.57h2.52Z"/>
    <path d="M622.85,519.92l8.26-8.92c1.32-1.43,1.97-2.86,1.97-4.35,0-2.34-1.6-4.03-4.32-4.03s-4.43,1.86-4.43,5.09h-1.52c0-4,2.43-6.46,5.95-6.46,3.26,0,5.75,2.09,5.75,5.4,0,1.77-.86,3.66-2.29,5.18l-7.75,8.26h10.55v1.37h-12.18v-1.54Z"/>
    <path d="M638.06,515.71h1.43c.14,2.8,2.09,4.78,5.09,4.78,3.17,0,4.98-2.23,4.98-5.23s-1.57-5.29-4.75-5.29c-1.77,0-3.52,.69-4.46,2.17h-1.69l.8-10.49h10.84v1.34h-9.61l-.66,7.72c1.09-1.4,3-2.09,4.78-2.09,4.09,0,6.18,2.86,6.18,6.63s-2.26,6.61-6.41,6.61-6.43-2.66-6.52-6.15Z"/>
    <path d="M654.36,516.23c0-2.23,1.43-4.38,3.69-5.12-1.94-.71-3.23-2.6-3.23-4.58,0-3.32,2.72-5.29,6.12-5.29s6.12,1.97,6.12,5.29c0,1.97-1.29,3.86-3.23,4.58,2.26,.74,3.69,2.89,3.69,5.12,0,3.54-3.03,5.63-6.58,5.63s-6.58-2.09-6.58-5.63Zm11.7-.09c0-2.83-2.29-4.4-5.12-4.4s-5.12,1.57-5.12,4.4,2.29,4.4,5.12,4.4,5.12-1.57,5.12-4.4Zm-.49-9.67c0-2.55-2.09-3.95-4.63-3.95s-4.63,1.4-4.63,3.95,2.03,4,4.63,4,4.63-1.4,4.63-4Z"/>
  </g>
  <line x1="781.65" y1="491.49" x2="781.65" y2="484.3" fill="none" stroke="#000" stroke-linecap="round" stroke-linejoin="round" stroke-width="2"/>
  <g>
    <path d="M756.07,516.8h-9.89v-1.72l8.58-13.44h1.69l-8.81,13.73h8.44v-6.55h1.46v6.55h2.95v1.43h-2.95v4.66h-1.46v-4.66Z"/>
    <path d="M766.33,518.89v2.57h-2.52v-2.57h2.52Z"/>
    <path d="M770.45,519.92l8.26-8.92c1.32-1.43,1.97-2.86,1.97-4.35,0-2.34-1.6-4.03-4.32-4.03s-4.43,1.86-4.43,5.09h-1.52c0-4,2.43-6.46,5.95-6.46,3.26,0,5.75,2.09,5.75,5.4,0,1.77-.86,3.66-2.29,5.18l-7.75,8.26h10.55v1.37h-12.18v-1.54Z"/>
    <path d="M787.78,519.43c-1.52-2.03-1.83-5.06-1.83-7.89,0-3.03,.4-6.32,2.34-8.41,.94-1,2.43-1.89,4.49-1.89,3.34,0,5.75,2.06,5.92,5.18h-1.46c-.2-2.29-1.72-3.8-4.46-3.8-4.43,0-5.35,4.78-5.35,9.49,.71-2.09,2.89-3.49,5.23-3.49,4.12,0,6.49,2.66,6.49,6.58,0,3.66-2.34,6.66-6.46,6.66-2.32,0-3.97-1.17-4.92-2.43Zm9.92-4.23c0-2.75-1.57-5.26-5-5.26-2.86,0-4.86,2.32-4.86,5.2s1.72,5.35,4.89,5.35c3.43,0,4.98-2.52,4.98-5.29Z"/>
    <path d="M805.17,520.23c-2.14-1.97-2.46-5.55-2.46-8.69s.31-6.69,2.46-8.66c.97-.89,2.32-1.63,4.23-1.63s3.29,.71,4.23,1.63c2.12,2.03,2.46,5.55,2.46,8.66s-.31,6.72-2.46,8.69c-.94,.89-2.32,1.63-4.23,1.63s-3.26-.74-4.23-1.63Zm7.52-.92c1.86-1.74,1.97-5.18,1.97-7.78s-.09-6-1.97-7.75c-.77-.71-1.8-1.17-3.29-1.17s-2.52,.49-3.26,1.17c-1.89,1.74-1.97,5.18-1.97,7.75s.09,6.03,1.97,7.78c.74,.69,1.8,1.17,3.26,1.17s2.54-.46,3.29-1.17Z"/>
  </g>
  <line x1="929.8" y1="491.49" x2="929.8" y2="484.3" fill="none" stroke="#000" stroke-linecap="round" stroke-linejoin="round" stroke-width="2"/>
  <g>
    <path d="M905.14,516.8h-9.89v-1.72l8.58-13.44h1.69l-8.81,13.73h8.44v-6.55h1.46v6.55h2.95v1.43h-2.95v4.66h-1.46v-4.66Z"/>
    <path d="M915.41,518.89v2.57h-2.52v-2.57h2.52Z"/>
    <path d="M919.53,519.92l8.26-8.92c1.32-1.43,1.97-2.86,1.97-4.35,0-2.34-1.6-4.03-4.32-4.03s-4.43,1.86-4.43,5.09h-1.52c0-4,2.43-6.46,5.95-6.46,3.26,0,5.75,2.09,5.75,5.4,0,1.77-.86,3.66-2.29,5.18l-7.75,8.26h10.55v1.37h-12.18v-1.54Z"/>
    <path d="M936.86,519.43c-1.52-2.03-1.83-5.06-1.83-7.89,0-3.03,.4-6.32,2.34-8.41,.94-1,2.43-1.89,4.49-1.89,3.34,0,5.75,2.06,5.92,5.18h-1.46c-.2-2.29-1.72-3.8-4.46-3.8-4.43,0-5.35,4.78-5.35,9.49,.71-2.09,2.89-3.49,5.23-3.49,4.12,0,6.49,2.66,6.49,6.58,0,3.66-2.34,6.66-6.46,6.66-2.32,0-3.97-1.17-4.92-2.43Zm9.92-4.23c0-2.75-1.57-5.26-5-5.26-2.86,0-4.86,2.32-4.86,5.2s1.72,5.35,4.89,5.35c3.43,0,4.98-2.52,4.98-5.29Z"/>
    <path d="M951.56,519.92l8.26-8.92c1.32-1.43,1.97-2.86,1.97-4.35,0-2.34-1.6-4.03-4.32-4.03s-4.43,1.86-4.43,5.09h-1.52c0-4,2.43-6.46,5.95-6.46,3.26,0,5.75,2.09,5.75,5.4,0,1.77-.86,3.66-2.29,5.18l-7.75,8.26h10.55v1.37h-12.18v-1.54Z"/>
  </g>
  <g>
    <path d="M428.9,556.04h-3.03v-1.32h3.03v-2.43c0-2.17,1.37-4.09,4.12-4.09,.83,0,1.49,.09,2.03,.23v1.29c-.51-.14-1.09-.23-1.92-.23-1.86,0-2.8,1.03-2.8,2.86v2.37h4.43v1.32h-4.43v12.98h-1.43v-12.98Z"/>
    <path d="M438.03,554.73h1.32l.11,2.95c.63-2,2.57-3.09,4.6-3.09,.43,0,.92,0,1.34,.14v1.37c-.46-.11-.94-.14-1.4-.14-3.32,0-4.55,2.75-4.55,5.92v7.15h-1.43v-14.3Z"/>
    <path d="M449.75,567.42c-1.17-1.37-1.89-3.32-1.89-5.49,0-1.8,.29-3.57,1.43-5.09,1.23-1.63,2.92-2.52,5-2.52,3.95,0,6.32,3.15,6.32,6.95,0,.34,0,.54-.03,.94h-11.3c.06,3.17,1.92,5.83,5.12,5.83,2.26,0,4.03-1.49,4.38-3.32h1.49c-.43,2.69-3,4.69-5.86,4.69-2.06,0-3.72-.92-4.66-2Zm9.38-6.49c-.06-2.72-1.74-5.26-4.83-5.26s-4.92,2.46-4.98,5.26h9.81Z"/>
    <path d="M475.09,566.25c-.66,1.89-2.77,3.17-4.83,3.17-1.74,0-3.06-.6-4.06-1.52-1.57-1.43-2.32-3.72-2.32-6.06s.77-4.75,2.43-6.15c1-.83,2.29-1.37,4.06-1.37,2.06,0,4.09,1.23,4.72,3.06l.11-2.66h1.34v19.99h-1.46v-8.46Zm-1.8,.63c1.34-1.23,1.83-2.89,1.83-5,0-1.97-.51-3.75-1.86-4.98-.77-.71-1.72-1.17-2.95-1.17s-2.23,.37-3,1.03c-1.34,1.14-1.97,3.09-1.97,5.12,0,1.83,.54,3.69,1.69,4.86,.77,.77,1.83,1.29,3.23,1.29,1.29,0,2.26-.46,3.03-1.14Z"/>
    <path d="M481.7,563.96v-9.24h1.43v9.15c0,2.49,1.23,4.15,3.75,4.15,3.32,0,4.69-2.66,4.69-5.86v-7.43h1.43v14.3h-1.32l-.11-2.69c-.8,1.89-2.63,3.09-4.78,3.09-3.23,0-5.09-2.26-5.09-5.46Z"/>
    <path d="M499.23,567.42c-1.17-1.37-1.89-3.32-1.89-5.49,0-1.8,.29-3.57,1.43-5.09,1.23-1.63,2.92-2.52,5-2.52,3.95,0,6.32,3.15,6.32,6.95,0,.34,0,.54-.03,.94h-11.3c.06,3.17,1.92,5.83,5.12,5.83,2.26,0,4.03-1.49,4.38-3.32h1.49c-.43,2.69-3,4.69-5.86,4.69-2.06,0-3.72-.92-4.66-2Zm9.38-6.49c-.06-2.72-1.74-5.26-4.83-5.26s-4.92,2.46-4.98,5.26h9.81Z"/>
    <path d="M514.33,554.73h1.32l.11,2.75c.74-1.97,2.97-3.15,4.98-3.15,3.26,0,5.06,2.17,5.06,5.35v9.35h-1.43v-9.21c0-2.4-1.23-4.09-3.77-4.09-3.17,0-4.83,2.63-4.83,5.8v7.49h-1.43v-14.3Z"/>
    <path d="M532.06,567.71c-1.52-1.52-2.06-3.4-2.06-5.83s.51-4.38,2.06-5.86c1.03-1,2.49-1.69,4.32-1.69,3.03,0,5.35,1.86,5.69,4.83h-1.52c-.31-1.97-1.94-3.43-4.17-3.43-1.4,0-2.52,.46-3.29,1.23-1.34,1.34-1.63,3.03-1.63,4.92s.31,3.55,1.66,4.89c.77,.77,1.89,1.23,3.29,1.23,2.23,0,3.86-1.46,4.17-3.43h1.49c-.37,2.95-2.69,4.83-5.69,4.83-1.83,0-3.29-.66-4.32-1.69Z"/>
    <path d="M544.45,574.6v-1.4c.51,.26,1.14,.43,1.86,.43,1.37,0,2.23-.63,2.89-2.29l.83-2.09-5.83-14.53h1.57l4.95,12.7,4.78-12.7h1.52l-6.55,17.1c-.89,2.32-2.17,3.17-4.06,3.17-.92,0-1.72-.26-1.94-.4Z"/>
    <path d="M566.41,559.79c0-4.46,1.63-9.44,4.72-12.9l.89,.69c-2.8,3.6-4.26,7.52-4.26,12.21s1.46,8.61,4.26,12.21l-.89,.69c-3.09-3.46-4.72-8.44-4.72-12.9Z"/>
    <path d="M577.13,567.25c-2.26-2.17-2.77-5.46-2.77-8.35s.46-6.15,2.77-8.32c1.34-1.26,3.26-2.23,5.55-2.23s4,.66,5.32,1.74c1.37,1.12,2.23,2.69,2.37,4.46h-1.54c-.11-1.23-.6-2.23-1.37-3-1.14-1.14-2.86-1.74-4.75-1.74s-3.32,.66-4.4,1.69c-1.97,1.89-2.37,4.92-2.37,7.41s.37,5.66,2.4,7.46c1.14,1.03,2.6,1.6,4.35,1.6,4.15,0,6.18-2.95,6.18-7.01v-.83h-6.61v-1.46h8.06v10.35h-1.17l-.23-3.35c-.94,2.12-3.26,3.75-6.23,3.75-2.29,0-4.23-.92-5.55-2.17Z"/>
    <path d="M596.95,548.75v8.98h11.15v-8.98h1.49v20.27h-1.49v-9.84h-11.15v9.84h-1.49v-20.27h1.49Z"/>
    <path d="M623.21,556.07h-9.15v-1.34h10.69v1.57l-9.15,11.35h9.24v1.37h-10.78v-1.6l9.15-11.35Z"/>
    <path d="M626.81,572c2.8-3.6,4.26-7.52,4.26-12.21s-1.46-8.61-4.26-12.21l.89-.69c3.09,3.46,4.72,8.44,4.72,12.9s-1.63,9.44-4.72,12.9l-.89-.69Z"/>
  </g>
</svg>