<?xml version="1.0" encoding="UTF-8"?>
<svg id="Ebene_1" data-name="Ebene 1" xmlns="http://www.w3.org/2000/svg" viewBox="0 0 938.15 577.58">
  <g>
    <path id="m81400b1a52" d="M159.49,55.35c.86,0,1.69-.34,2.29-.95,.61-.61,.95-1.43,.95-2.29s-.34-1.69-.95-2.29c-.61-.61-1.43-.95-2.29-.95s-1.69,.34-2.29,.95c-.61,.61-.95,1.43-.95,2.29s.34,1.69,.95,2.29c.61,.61,1.43,.95,2.29,.95Z" fill="#069" stroke="#069" stroke-linejoin="round" stroke-width="2.6"/>
    <path id="m81400b1a52-2" data-name="m81400b1a52" d="M166.9,56.08c.86,0,1.69-.34,2.29-.95,.61-.61,.95-1.43,.95-2.29s-.34-1.69-.95-2.29c-.61-.61-1.43-.95-2.29-.95s-1.69,.34-2.29,.95c-.61,.61-.95,1.43-.95,2.29s.34,1.69,.95,2.29c.61,.61,1.43,.95,2.29,.95Z" fill="#069" stroke="#069" stroke-linejoin="round" stroke-width="2.6"/>
    <path id="m81400b1a52-3" data-name="m81400b1a52" d="M174.3,61.11c.86,0,1.69-.34,2.29-.95,.61-.61,.95-1.43,.95-2.29s-.34-1.69-.95-2.29c-.61-.61-1.43-.95-2.29-.95s-1.69,.34-2.29,.95c-.61,.61-.95,1.43-.95,2.29s.34,1.69,.95,2.29c.61,.61,1.43,.95,2.29,.95Z" fill="#069" stroke="#069" stroke-linejoin="round" stroke-width="2.6"/>
    <path id="m81400b1a52-4" data-name="m81400b1a52" d="M181.71,55.34c.86,0,1.69-.34,2.29-.95,.61-.61,.95-1.43,.95-2.29s-.34-1.69-.95-2.29c-.61-.61-1.43-.95-2.29-.95s-1.69,.34-2.29,.95c-.61,.61-.95,1.43-.95,2.29s.34,1.69,.95,2.29c.61,.61,1.43,.95,2.29,.95Z" fill="#069" stroke="#069" stroke-linejoin="round" stroke-width="2.6"/>
    <path id="m81400b1a52-5" data-name="m81400b1a52" d="M189.12,60.46c.86,0,1.69-.34,2.29-.95,.61-.61,.95-1.43,.95-2.29s-.34-1.69-.95-2.29c-.61-.61-1.43-.95-2.29-.95s-1.69,.34-2.29,.95c-.61,.61-.95,1.43-.95,2.29s.34,1.69,.95,2.29c.61,.61,1.43,.95,2.29,.95Z" fill="#069" stroke="#069" stroke-linejoin="round" stroke-width="2.6"/>
    <path id="m81400b1a52-6" data-name="m81400b1a52" d="M196.52,30.36c.86,0,1.69-.34,2.29-.95,.61-.61,.95-1.43,.95-2.29s-.34-1.69-.95-2.29c-.61-.61-1.43-.95-2.29-.95s-1.69,.34-2.29,.95c-.61,.61-.95,1.43-.95,2.29s.34,1.69,.95,2.29c.61,.61,1.43,.95,2.29,.95Z" fill="#069" stroke="#069" stroke-linejoin="round" stroke-width="2.6"/>
    <path id="m81400b1a52-7" data-name="m81400b1a52" d="M203.93,30.28c.86,0,1.69-.34,2.29-.95,.61-.61,.95-1.43,.95-2.29s-.34-1.69-.95-2.29c-.61-.61-1.43-.95-2.29-.95s-1.69,.34-2.29,.95c-.61,.61-.95,1.43-.95,2.29s.34,1.69,.95,2.29c.61,.61,1.43,.95,2.29,.95Z" fill="#069" stroke="#069" stroke-linejoin="round" stroke-width="2.6"/>
    <path id="m81400b1a52-8" data-name="m81400b1a52" d="M211.34,32.79c.86,0,1.69-.34,2.29-.95,.61-.61,.95-1.43,.95-2.29s-.34-1.69-.95-2.29c-.61-.61-1.43-.95-2.29-.95s-1.69,.34-2.29,.95c-.61,.61-.95,1.43-.95,2.29s.34,1.69,.95,2.29c.61,.61,1.43,.95,2.29,.95Z" fill="#069" stroke="#069" stroke-linejoin="round" stroke-width="2.6"/>
    <path id="m81400b1a52-9" data-name="m81400b1a52" d="M218.74,37.62c.86,0,1.69-.34,2.29-.95,.61-.61,.95-1.43,.95-2.29s-.34-1.69-.95-2.29c-.61-.61-1.43-.95-2.29-.95s-1.69,.34-2.29,.95c-.61,.61-.95,1.43-.95,2.29s.34,1.69,.95,2.29c.61,.61,1.43,.95,2.29,.95Z" fill="#069" stroke="#069" stroke-linejoin="round" stroke-width="2.6"/>
    <path id="m81400b1a52-10" data-name="m81400b1a52" d="M226.15,58.68c.86,0,1.69-.34,2.29-.95,.61-.61,.95-1.43,.95-2.29s-.34-1.69-.95-2.29c-.61-.61-1.43-.95-2.29-.95s-1.69,.34-2.29,.95c-.61,.61-.95,1.43-.95,2.29s.34,1.69,.95,2.29c.61,.61,1.43,.95,2.29,.95Z" fill="#069" stroke="#069" stroke-linejoin="round" stroke-width="2.6"/>
    <path id="m81400b1a52-11" data-name="m81400b1a52" d="M233.55,67.14c.86,0,1.69-.34,2.29-.95,.61-.61,.95-1.43,.95-2.29s-.34-1.69-.95-2.29c-.61-.61-1.43-.95-2.29-.95s-1.69,.34-2.29,.95c-.61,.61-.95,1.43-.95,2.29s.34,1.69,.95,2.29c.61,.61,1.43,.95,2.29,.95Z" fill="#069" stroke="#069" stroke-linejoin="round" stroke-width="2.6"/>
    <path id="m81400b1a52-12" data-name="m81400b1a52" d="M240.96,49.71c.86,0,1.69-.34,2.29-.95,.61-.61,.95-1.43,.95-2.29s-.34-1.69-.95-2.29c-.61-.61-1.43-.95-2.29-.95s-1.69,.34-2.29,.95c-.61,.61-.95,1.43-.95,2.29s.34,1.69,.95,2.29c.61,.61,1.43,.95,2.29,.95Z" fill="#069" stroke="#069" stroke-linejoin="round" stroke-width="2.6"/>
    <path id="m81400b1a52-13" data-name="m81400b1a52" d="M248.37,55.11c.86,0,1.69-.34,2.29-.95,.61-.61,.95-1.43,.95-2.29s-.34-1.69-.95-2.29c-.61-.61-1.43-.95-2.29-.95s-1.69,.34-2.29,.95c-.61,.61-.95,1.43-.95,2.29s.34,1.69,.95,2.29c.61,.61,1.43,.95,2.29,.95Z" fill="#069" stroke="#069" stroke-linejoin="round" stroke-width="2.6"/>
    <path id="m81400b1a52-14" data-name="m81400b1a52" d="M255.77,57.96c.86,0,1.69-.34,2.29-.95,.61-.61,.95-1.43,.95-2.29s-.34-1.69-.95-2.29c-.61-.61-1.43-.95-2.29-.95s-1.69,.34-2.29,.95c-.61,.61-.95,1.43-.95,2.29s.34,1.69,.95,2.29c.61,.61,1.43,.95,2.29,.95Z" fill="#069" stroke="#069" stroke-linejoin="round" stroke-width="2.6"/>
    <path id="m81400b1a52-15" data-name="m81400b1a52" d="M263.18,43.81c.86,0,1.69-.34,2.29-.95,.61-.61,.95-1.43,.95-2.29s-.34-1.69-.95-2.29c-.61-.61-1.43-.95-2.29-.95s-1.69,.34-2.29,.95c-.61,.61-.95,1.43-.95,2.29s.34,1.69,.95,2.29c.61,.61,1.43,.95,2.29,.95Z" fill="#069" stroke="#069" stroke-linejoin="round" stroke-width="2.6"/>
    <path id="m81400b1a52-16" data-name="m81400b1a52" d="M270.59,39.14c.86,0,1.69-.34,2.29-.95,.61-.61,.95-1.43,.95-2.29s-.34-1.69-.95-2.29c-.61-.61-1.43-.95-2.29-.95s-1.69,.34-2.29,.95c-.61,.61-.95,1.43-.95,2.29s.34,1.69,.95,2.29c.61,.61,1.43,.95,2.29,.95Z" fill="#069" stroke="#069" stroke-linejoin="round" stroke-width="2.6"/>
    <path id="m81400b1a52-17" data-name="m81400b1a52" d="M277.99,69.63c.86,0,1.69-.34,2.29-.95,.61-.61,.95-1.43,.95-2.29s-.34-1.69-.95-2.29c-.61-.61-1.43-.95-2.29-.95s-1.69,.34-2.29,.95c-.61,.61-.95,1.43-.95,2.29s.34,1.69,.95,2.29c.61,.61,1.43,.95,2.29,.95Z" fill="#069" stroke="#069" stroke-linejoin="round" stroke-width="2.6"/>
    <path id="m81400b1a52-18" data-name="m81400b1a52" d="M285.4,70.36c.86,0,1.69-.34,2.29-.95,.61-.61,.95-1.43,.95-2.29s-.34-1.69-.95-2.29c-.61-.61-1.43-.95-2.29-.95s-1.69,.34-2.29,.95c-.61,.61-.95,1.43-.95,2.29s.34,1.69,.95,2.29c.61,.61,1.43,.95,2.29,.95Z" fill="#069" stroke="#069" stroke-linejoin="round" stroke-width="2.6"/>
    <path id="m81400b1a52-19" data-name="m81400b1a52" d="M292.8,33.99c.86,0,1.69-.34,2.29-.95,.61-.61,.95-1.43,.95-2.29s-.34-1.69-.95-2.29c-.61-.61-1.43-.95-2.29-.95s-1.69,.34-2.29,.95c-.61,.61-.95,1.43-.95,2.29s.34,1.69,.95,2.29c.61,.61,1.43,.95,2.29,.95Z" fill="#069" stroke="#069" stroke-linejoin="round" stroke-width="2.6"/>
    <path id="m81400b1a52-20" data-name="m81400b1a52" d="M300.21,47.29c.86,0,1.69-.34,2.29-.95,.61-.61,.95-1.43,.95-2.29s-.34-1.69-.95-2.29c-.61-.61-1.43-.95-2.29-.95s-1.69,.34-2.29,.95c-.61,.61-.95,1.43-.95,2.29s.34,1.69,.95,2.29c.61,.61,1.43,.95,2.29,.95Z" fill="#069" stroke="#069" stroke-linejoin="round" stroke-width="2.6"/>
    <path id="m81400b1a52-21" data-name="m81400b1a52" d="M307.62,64.42c.86,0,1.69-.34,2.29-.95,.61-.61,.95-1.43,.95-2.29s-.34-1.69-.95-2.29c-.61-.61-1.43-.95-2.29-.95s-1.69,.34-2.29,.95c-.61,.61-.95,1.43-.95,2.29s.34,1.69,.95,2.29c.61,.61,1.43,.95,2.29,.95Z" fill="#069" stroke="#069" stroke-linejoin="round" stroke-width="2.6"/>
    <path id="m81400b1a52-22" data-name="m81400b1a52" d="M315.02,66.27c.86,0,1.69-.34,2.29-.95,.61-.61,.95-1.43,.95-2.29s-.34-1.69-.95-2.29c-.61-.61-1.43-.95-2.29-.95s-1.69,.34-2.29,.95c-.61,.61-.95,1.43-.95,2.29s.34,1.69,.95,2.29c.61,.61,1.43,.95,2.29,.95Z" fill="#069" stroke="#069" stroke-linejoin="round" stroke-width="2.6"/>
    <path id="m81400b1a52-23" data-name="m81400b1a52" d="M322.43,35.15c.86,0,1.69-.34,2.29-.95,.61-.61,.95-1.43,.95-2.29s-.34-1.69-.95-2.29c-.61-.61-1.43-.95-2.29-.95s-1.69,.34-2.29,.95c-.61,.61-.95,1.43-.95,2.29s.34,1.69,.95,2.29c.61,.61,1.43,.95,2.29,.95Z" fill="#069" stroke="#069" stroke-linejoin="round" stroke-width="2.6"/>
    <path id="m81400b1a52-24" data-name="m81400b1a52" d="M329.84,51.74c.86,0,1.69-.34,2.29-.95,.61-.61,.95-1.43,.95-2.29s-.34-1.69-.95-2.29c-.61-.61-1.43-.95-2.29-.95s-1.69,.34-2.29,.95c-.61,.61-.95,1.43-.95,2.29s.34,1.69,.95,2.29c.61,.61,1.43,.95,2.29,.95Z" fill="#069" stroke="#069" stroke-linejoin="round" stroke-width="2.6"/>
    <path id="m81400b1a52-25" data-name="m81400b1a52" d="M337.24,74.69c.86,0,1.69-.34,2.29-.95,.61-.61,.95-1.43,.95-2.29s-.34-1.69-.95-2.29c-.61-.61-1.43-.95-2.29-.95s-1.69,.34-2.29,.95c-.61,.61-.95,1.43-.95,2.29s.34,1.69,.95,2.29c.61,.61,1.43,.95,2.29,.95Z" fill="#069" stroke="#069" stroke-linejoin="round" stroke-width="2.6"/>
    <path id="m81400b1a52-26" data-name="m81400b1a52" d="M344.65,37.74c.86,0,1.69-.34,2.29-.95,.61-.61,.95-1.43,.95-2.29s-.34-1.69-.95-2.29c-.61-.61-1.43-.95-2.29-.95s-1.69,.34-2.29,.95c-.61,.61-.95,1.43-.95,2.29s.34,1.69,.95,2.29c.61,.61,1.43,.95,2.29,.95Z" fill="#069" stroke="#069" stroke-linejoin="round" stroke-width="2.6"/>
    <path id="m81400b1a52-27" data-name="m81400b1a52" d="M352.05,69.24c.86,0,1.69-.34,2.29-.95,.61-.61,.95-1.43,.95-2.29s-.34-1.69-.95-2.29c-.61-.61-1.43-.95-2.29-.95s-1.69,.34-2.29,.95c-.61,.61-.95,1.43-.95,2.29s.34,1.69,.95,2.29c.61,.61,1.43,.95,2.29,.95Z" fill="#069" stroke="#069" stroke-linejoin="round" stroke-width="2.6"/>
    <path id="m81400b1a52-28" data-name="m81400b1a52" d="M359.46,75.81c.86,0,1.69-.34,2.29-.95,.61-.61,.95-1.43,.95-2.29s-.34-1.69-.95-2.29c-.61-.61-1.43-.95-2.29-.95s-1.69,.34-2.29,.95c-.61,.61-.95,1.43-.95,2.29s.34,1.69,.95,2.29c.61,.61,1.43,.95,2.29,.95Z" fill="#069" stroke="#069" stroke-linejoin="round" stroke-width="2.6"/>
    <path id="m81400b1a52-29" data-name="m81400b1a52" d="M366.87,56.74c.86,0,1.69-.34,2.29-.95,.61-.61,.95-1.43,.95-2.29s-.34-1.69-.95-2.29c-.61-.61-1.43-.95-2.29-.95s-1.69,.34-2.29,.95c-.61,.61-.95,1.43-.95,2.29s.34,1.69,.95,2.29c.61,.61,1.43,.95,2.29,.95Z" fill="#069" stroke="#069" stroke-linejoin="round" stroke-width="2.6"/>
    <path id="m81400b1a52-30" data-name="m81400b1a52" d="M374.27,83.01c.86,0,1.69-.34,2.29-.95,.61-.61,.95-1.43,.95-2.29s-.34-1.69-.95-2.29c-.61-.61-1.43-.95-2.29-.95s-1.69,.34-2.29,.95c-.61,.61-.95,1.43-.95,2.29s.34,1.69,.95,2.29c.61,.61,1.43,.95,2.29,.95Z" fill="#069" stroke="#069" stroke-linejoin="round" stroke-width="2.6"/>
    <path id="m81400b1a52-31" data-name="m81400b1a52" d="M381.68,85.4c.86,0,1.69-.34,2.29-.95,.61-.61,.95-1.43,.95-2.29s-.34-1.69-.95-2.29c-.61-.61-1.43-.95-2.29-.95s-1.69,.34-2.29,.95c-.61,.61-.95,1.43-.95,2.29s.34,1.69,.95,2.29c.61,.61,1.43,.95,2.29,.95Z" fill="#069" stroke="#069" stroke-linejoin="round" stroke-width="2.6"/>
    <path id="m81400b1a52-32" data-name="m81400b1a52" d="M389.09,78.66c.86,0,1.69-.34,2.29-.95,.61-.61,.95-1.43,.95-2.29s-.34-1.69-.95-2.29c-.61-.61-1.43-.95-2.29-.95s-1.69,.34-2.29,.95c-.61,.61-.95,1.43-.95,2.29s.34,1.69,.95,2.29c.61,.61,1.43,.95,2.29,.95Z" fill="#069" stroke="#069" stroke-linejoin="round" stroke-width="2.6"/>
    <path id="m81400b1a52-33" data-name="m81400b1a52" d="M396.49,69.78c.86,0,1.69-.34,2.29-.95,.61-.61,.95-1.43,.95-2.29s-.34-1.69-.95-2.29c-.61-.61-1.43-.95-2.29-.95s-1.69,.34-2.29,.95c-.61,.61-.95,1.43-.95,2.29s.34,1.69,.95,2.29c.61,.61,1.43,.95,2.29,.95Z" fill="#069" stroke="#069" stroke-linejoin="round" stroke-width="2.6"/>
    <path id="m81400b1a52-34" data-name="m81400b1a52" d="M403.9,60.76c.86,0,1.69-.34,2.29-.95,.61-.61,.95-1.43,.95-2.29s-.34-1.69-.95-2.29c-.61-.61-1.43-.95-2.29-.95s-1.69,.34-2.29,.95c-.61,.61-.95,1.43-.95,2.29s.34,1.69,.95,2.29c.61,.61,1.43,.95,2.29,.95Z" fill="#069" stroke="#069" stroke-linejoin="round" stroke-width="2.6"/>
    <path id="m81400b1a52-35" data-name="m81400b1a52" d="M411.3,63.99c.86,0,1.69-.34,2.29-.95,.61-.61,.95-1.43,.95-2.29s-.34-1.69-.95-2.29c-.61-.61-1.43-.95-2.29-.95s-1.69,.34-2.29,.95c-.61,.61-.95,1.43-.95,2.29s.34,1.69,.95,2.29c.61,.61,1.43,.95,2.29,.95Z" fill="#069" stroke="#069" stroke-linejoin="round" stroke-width="2.6"/>
    <path id="m81400b1a52-36" data-name="m81400b1a52" d="M418.71,99.72c.86,0,1.69-.34,2.29-.95,.61-.61,.95-1.43,.95-2.29s-.34-1.69-.95-2.29c-.61-.61-1.43-.95-2.29-.95s-1.69,.34-2.29,.95c-.61,.61-.95,1.43-.95,2.29s.34,1.69,.95,2.29c.61,.61,1.43,.95,2.29,.95Z" fill="#069" stroke="#069" stroke-linejoin="round" stroke-width="2.6"/>
    <path id="m81400b1a52-37" data-name="m81400b1a52" d="M426.12,71.17c.86,0,1.69-.34,2.29-.95,.61-.61,.95-1.43,.95-2.29s-.34-1.69-.95-2.29c-.61-.61-1.43-.95-2.29-.95s-1.69,.34-2.29,.95c-.61,.61-.95,1.43-.95,2.29s.34,1.69,.95,2.29c.61,.61,1.43,.95,2.29,.95Z" fill="#069" stroke="#069" stroke-linejoin="round" stroke-width="2.6"/>
    <path id="m81400b1a52-38" data-name="m81400b1a52" d="M433.52,77.36c.86,0,1.69-.34,2.29-.95,.61-.61,.95-1.43,.95-2.29s-.34-1.69-.95-2.29c-.61-.61-1.43-.95-2.29-.95s-1.69,.34-2.29,.95c-.61,.61-.95,1.43-.95,2.29s.34,1.69,.95,2.29c.61,.61,1.43,.95,2.29,.95Z" fill="#069" stroke="#069" stroke-linejoin="round" stroke-width="2.6"/>
    <path id="m81400b1a52-39" data-name="m81400b1a52" d="M440.93,83.58c.86,0,1.69-.34,2.29-.95,.61-.61,.95-1.43,.95-2.29s-.34-1.69-.95-2.29c-.61-.61-1.43-.95-2.29-.95s-1.69,.34-2.29,.95c-.61,.61-.95,1.43-.95,2.29s.34,1.69,.95,2.29c.61,.61,1.43,.95,2.29,.95Z" fill="#069" stroke="#069" stroke-linejoin="round" stroke-width="2.6"/>
    <path id="m81400b1a52-40" data-name="m81400b1a52" d="M448.34,130.69c.86,0,1.69-.34,2.29-.95,.61-.61,.95-1.43,.95-2.29s-.34-1.69-.95-2.29c-.61-.61-1.43-.95-2.29-.95s-1.69,.34-2.29,.95c-.61,.61-.95,1.43-.95,2.29s.34,1.69,.95,2.29c.61,.61,1.43,.95,2.29,.95Z" fill="#069" stroke="#069" stroke-linejoin="round" stroke-width="2.6"/>
    <path id="m81400b1a52-41" data-name="m81400b1a52" d="M455.74,111.57c.86,0,1.69-.34,2.29-.95,.61-.61,.95-1.43,.95-2.29s-.34-1.69-.95-2.29c-.61-.61-1.43-.95-2.29-.95s-1.69,.34-2.29,.95c-.61,.61-.95,1.43-.95,2.29s.34,1.69,.95,2.29c.61,.61,1.43,.95,2.29,.95Z" fill="#069" stroke="#069" stroke-linejoin="round" stroke-width="2.6"/>
    <path id="m81400b1a52-42" data-name="m81400b1a52" d="M463.15,161.2c.86,0,1.69-.34,2.29-.95,.61-.61,.95-1.43,.95-2.29s-.34-1.69-.95-2.29c-.61-.61-1.43-.95-2.29-.95s-1.69,.34-2.29,.95c-.61,.61-.95,1.43-.95,2.29s.34,1.69,.95,2.29c.61,.61,1.43,.95,2.29,.95Z" fill="#069" stroke="#069" stroke-linejoin="round" stroke-width="2.6"/>
    <path id="m81400b1a52-43" data-name="m81400b1a52" d="M470.55,148.23c.86,0,1.69-.34,2.29-.95,.61-.61,.95-1.43,.95-2.29s-.34-1.69-.95-2.29c-.61-.61-1.43-.95-2.29-.95s-1.69,.34-2.29,.95c-.61,.61-.95,1.43-.95,2.29s.34,1.69,.95,2.29c.61,.61,1.43,.95,2.29,.95Z" fill="#069" stroke="#069" stroke-linejoin="round" stroke-width="2.6"/>
    <path id="m81400b1a52-44" data-name="m81400b1a52" d="M477.96,189.34c.86,0,1.69-.34,2.29-.95,.61-.61,.95-1.43,.95-2.29s-.34-1.69-.95-2.29c-.61-.61-1.43-.95-2.29-.95s-1.69,.34-2.29,.95c-.61,.61-.95,1.43-.95,2.29s.34,1.69,.95,2.29c.61,.61,1.43,.95,2.29,.95Z" fill="#069" stroke="#069" stroke-linejoin="round" stroke-width="2.6"/>
    <path id="m81400b1a52-45" data-name="m81400b1a52" d="M485.37,200.76c.86,0,1.69-.34,2.29-.95,.61-.61,.95-1.43,.95-2.29s-.34-1.69-.95-2.29c-.61-.61-1.43-.95-2.29-.95s-1.69,.34-2.29,.95c-.61,.61-.95,1.43-.95,2.29s.34,1.69,.95,2.29c.61,.61,1.43,.95,2.29,.95Z" fill="#069" stroke="#069" stroke-linejoin="round" stroke-width="2.6"/>
    <path id="m81400b1a52-46" data-name="m81400b1a52" d="M492.77,241.57c.86,0,1.69-.34,2.29-.95,.61-.61,.95-1.43,.95-2.29s-.34-1.69-.95-2.29c-.61-.61-1.43-.95-2.29-.95s-1.69,.34-2.29,.95c-.61,.61-.95,1.43-.95,2.29s.34,1.69,.95,2.29c.61,.61,1.43,.95,2.29,.95Z" fill="#069" stroke="#069" stroke-linejoin="round" stroke-width="2.6"/>
    <path id="m81400b1a52-47" data-name="m81400b1a52" d="M500.18,280.95c.86,0,1.69-.34,2.29-.95,.61-.61,.95-1.43,.95-2.29s-.34-1.69-.95-2.29c-.61-.61-1.43-.95-2.29-.95s-1.69,.34-2.29,.95c-.61,.61-.95,1.43-.95,2.29s.34,1.69,.95,2.29c.61,.61,1.43,.95,2.29,.95Z" fill="#069" stroke="#069" stroke-linejoin="round" stroke-width="2.6"/>
    <path id="m81400b1a52-48" data-name="m81400b1a52" d="M507.59,366.72c.86,0,1.69-.34,2.29-.95,.61-.61,.95-1.43,.95-2.29s-.34-1.69-.95-2.29c-.61-.61-1.43-.95-2.29-.95s-1.69,.34-2.29,.95c-.61,.61-.95,1.43-.95,2.29s.34,1.69,.95,2.29c.61,.61,1.43,.95,2.29,.95Z" fill="#069" stroke="#069" stroke-linejoin="round" stroke-width="2.6"/>
    <path id="m81400b1a52-49" data-name="m81400b1a52" d="M514.99,394.45c.86,0,1.69-.34,2.29-.95,.61-.61,.95-1.43,.95-2.29s-.34-1.69-.95-2.29c-.61-.61-1.43-.95-2.29-.95s-1.69,.34-2.29,.95c-.61,.61-.95,1.43-.95,2.29s.34,1.69,.95,2.29c.61,.61,1.43,.95,2.29,.95Z" fill="#069" stroke="#069" stroke-linejoin="round" stroke-width="2.6"/>
    <path id="m81400b1a52-50" data-name="m81400b1a52" d="M522.4,456.38c.86,0,1.69-.34,2.29-.95,.61-.61,.95-1.43,.95-2.29s-.34-1.69-.95-2.29c-.61-.61-1.43-.95-2.29-.95s-1.69,.34-2.29,.95c-.61,.61-.95,1.43-.95,2.29s.34,1.69,.95,2.29c.61,.61,1.43,.95,2.29,.95Z" fill="#069" stroke="#069" stroke-linejoin="round" stroke-width="2.6"/>
    <path id="m81400b1a52-51" data-name="m81400b1a52" d="M529.8,463.61c.86,0,1.69-.34,2.29-.95,.61-.61,.95-1.43,.95-2.29s-.34-1.69-.95-2.29c-.61-.61-1.43-.95-2.29-.95s-1.69,.34-2.29,.95c-.61,.61-.95,1.43-.95,2.29s.34,1.69,.95,2.29c.61,.61,1.43,.95,2.29,.95Z" fill="#069" stroke="#069" stroke-linejoin="round" stroke-width="2.6"/>
    <path id="m81400b1a52-52" data-name="m81400b1a52" d="M537.21,453.36c.86,0,1.69-.34,2.29-.95,.61-.61,.95-1.43,.95-2.29s-.34-1.69-.95-2.29c-.61-.61-1.43-.95-2.29-.95s-1.69,.34-2.29,.95c-.61,.61-.95,1.43-.95,2.29s.34,1.69,.95,2.29c.61,.61,1.43,.95,2.29,.95Z" fill="#069" stroke="#069" stroke-linejoin="round" stroke-width="2.6"/>
    <path id="m81400b1a52-53" data-name="m81400b1a52" d="M544.62,418.01c.86,0,1.69-.34,2.29-.95,.61-.61,.95-1.43,.95-2.29s-.34-1.69-.95-2.29c-.61-.61-1.43-.95-2.29-.95s-1.69,.34-2.29,.95c-.61,.61-.95,1.43-.95,2.29s.34,1.69,.95,2.29c.61,.61,1.43,.95,2.29,.95Z" fill="#069" stroke="#069" stroke-linejoin="round" stroke-width="2.6"/>
    <path id="m81400b1a52-54" data-name="m81400b1a52" d="M552.02,348.16c.86,0,1.69-.34,2.29-.95,.61-.61,.95-1.43,.95-2.29s-.34-1.69-.95-2.29c-.61-.61-1.43-.95-2.29-.95s-1.69,.34-2.29,.95c-.61,.61-.95,1.43-.95,2.29s.34,1.69,.95,2.29c.61,.61,1.43,.95,2.29,.95Z" fill="#069" stroke="#069" stroke-linejoin="round" stroke-width="2.6"/>
    <path id="m81400b1a52-55" data-name="m81400b1a52" d="M559.43,312.63c.86,0,1.69-.34,2.29-.95,.61-.61,.95-1.43,.95-2.29s-.34-1.69-.95-2.29c-.61-.61-1.43-.95-2.29-.95s-1.69,.34-2.29,.95c-.61,.61-.95,1.43-.95,2.29s.34,1.69,.95,2.29c.61,.61,1.43,.95,2.29,.95Z" fill="#069" stroke="#069" stroke-linejoin="round" stroke-width="2.6"/>
    <path id="m81400b1a52-56" data-name="m81400b1a52" d="M566.84,235.12c.86,0,1.69-.34,2.29-.95,.61-.61,.95-1.43,.95-2.29s-.34-1.69-.95-2.29c-.61-.61-1.43-.95-2.29-.95s-1.69,.34-2.29,.95c-.61,.61-.95,1.43-.95,2.29s.34,1.69,.95,2.29c.61,.61,1.43,.95,2.29,.95Z" fill="#069" stroke="#069" stroke-linejoin="round" stroke-width="2.6"/>
    <path id="m81400b1a52-57" data-name="m81400b1a52" d="M574.24,208.12c.86,0,1.69-.34,2.29-.95,.61-.61,.95-1.43,.95-2.29s-.34-1.69-.95-2.29c-.61-.61-1.43-.95-2.29-.95s-1.69,.34-2.29,.95c-.61,.61-.95,1.43-.95,2.29s.34,1.69,.95,2.29c.61,.61,1.43,.95,2.29,.95Z" fill="#069" stroke="#069" stroke-linejoin="round" stroke-width="2.6"/>
    <path id="m81400b1a52-58" data-name="m81400b1a52" d="M581.65,170.22c.86,0,1.69-.34,2.29-.95,.61-.61,.95-1.43,.95-2.29s-.34-1.69-.95-2.29c-.61-.61-1.43-.95-2.29-.95s-1.69,.34-2.29,.95c-.61,.61-.95,1.43-.95,2.29s.34,1.69,.95,2.29c.61,.61,1.43,.95,2.29,.95Z" fill="#069" stroke="#069" stroke-linejoin="round" stroke-width="2.6"/>
    <path id="m81400b1a52-59" data-name="m81400b1a52" d="M589.05,155.29c.86,0,1.69-.34,2.29-.95,.61-.61,.95-1.43,.95-2.29s-.34-1.69-.95-2.29c-.61-.61-1.43-.95-2.29-.95s-1.69,.34-2.29,.95c-.61,.61-.95,1.43-.95,2.29s.34,1.69,.95,2.29c.61,.61,1.43,.95,2.29,.95Z" fill="#069" stroke="#069" stroke-linejoin="round" stroke-width="2.6"/>
    <path id="m81400b1a52-60" data-name="m81400b1a52" d="M596.46,123.99c.86,0,1.69-.34,2.29-.95,.61-.61,.95-1.43,.95-2.29s-.34-1.69-.95-2.29c-.61-.61-1.43-.95-2.29-.95s-1.69,.34-2.29,.95c-.61,.61-.95,1.43-.95,2.29s.34,1.69,.95,2.29c.61,.61,1.43,.95,2.29,.95Z" fill="#069" stroke="#069" stroke-linejoin="round" stroke-width="2.6"/>
    <path id="m81400b1a52-61" data-name="m81400b1a52" d="M603.87,116.17c.86,0,1.69-.34,2.29-.95,.61-.61,.95-1.43,.95-2.29s-.34-1.69-.95-2.29c-.61-.61-1.43-.95-2.29-.95s-1.69,.34-2.29,.95c-.61,.61-.95,1.43-.95,2.29s.34,1.69,.95,2.29c.61,.61,1.43,.95,2.29,.95Z" fill="#069" stroke="#069" stroke-linejoin="round" stroke-width="2.6"/>
    <path id="m81400b1a52-62" data-name="m81400b1a52" d="M611.27,112.22c.86,0,1.69-.34,2.29-.95,.61-.61,.95-1.43,.95-2.29s-.34-1.69-.95-2.29c-.61-.61-1.43-.95-2.29-.95s-1.69,.34-2.29,.95c-.61,.61-.95,1.43-.95,2.29s.34,1.69,.95,2.29c.61,.61,1.43,.95,2.29,.95Z" fill="#069" stroke="#069" stroke-linejoin="round" stroke-width="2.6"/>
    <path id="m81400b1a52-63" data-name="m81400b1a52" d="M618.68,113.32c.86,0,1.69-.34,2.29-.95,.61-.61,.95-1.43,.95-2.29s-.34-1.69-.95-2.29c-.61-.61-1.43-.95-2.29-.95s-1.69,.34-2.29,.95c-.61,.61-.95,1.43-.95,2.29s.34,1.69,.95,2.29c.61,.61,1.43,.95,2.29,.95Z" fill="#069" stroke="#069" stroke-linejoin="round" stroke-width="2.6"/>
    <path id="m81400b1a52-64" data-name="m81400b1a52" d="M626.09,96.52c.86,0,1.69-.34,2.29-.95,.61-.61,.95-1.43,.95-2.29s-.34-1.69-.95-2.29c-.61-.61-1.43-.95-2.29-.95s-1.69,.34-2.29,.95c-.61,.61-.95,1.43-.95,2.29s.34,1.69,.95,2.29c.61,.61,1.43,.95,2.29,.95Z" fill="#069" stroke="#069" stroke-linejoin="round" stroke-width="2.6"/>
    <path id="m81400b1a52-65" data-name="m81400b1a52" d="M633.49,69.62c.86,0,1.69-.34,2.29-.95,.61-.61,.95-1.43,.95-2.29s-.34-1.69-.95-2.29c-.61-.61-1.43-.95-2.29-.95s-1.69,.34-2.29,.95c-.61,.61-.95,1.43-.95,2.29s.34,1.69,.95,2.29c.61,.61,1.43,.95,2.29,.95Z" fill="#069" stroke="#069" stroke-linejoin="round" stroke-width="2.6"/>
    <path id="m81400b1a52-66" data-name="m81400b1a52" d="M640.9,91.75c.86,0,1.69-.34,2.29-.95,.61-.61,.95-1.43,.95-2.29s-.34-1.69-.95-2.29c-.61-.61-1.43-.95-2.29-.95s-1.69,.34-2.29,.95c-.61,.61-.95,1.43-.95,2.29s.34,1.69,.95,2.29c.61,.61,1.43,.95,2.29,.95Z" fill="#069" stroke="#069" stroke-linejoin="round" stroke-width="2.6"/>
    <path id="m81400b1a52-67" data-name="m81400b1a52" d="M648.3,70.21c.86,0,1.69-.34,2.29-.95,.61-.61,.95-1.43,.95-2.29s-.34-1.69-.95-2.29c-.61-.61-1.43-.95-2.29-.95s-1.69,.34-2.29,.95c-.61,.61-.95,1.43-.95,2.29s.34,1.69,.95,2.29c.61,.61,1.43,.95,2.29,.95Z" fill="#069" stroke="#069" stroke-linejoin="round" stroke-width="2.6"/>
    <path id="m81400b1a52-68" data-name="m81400b1a52" d="M655.71,73.7c.86,0,1.69-.34,2.29-.95,.61-.61,.95-1.43,.95-2.29s-.34-1.69-.95-2.29c-.61-.61-1.43-.95-2.29-.95s-1.69,.34-2.29,.95c-.61,.61-.95,1.43-.95,2.29s.34,1.69,.95,2.29c.61,.61,1.43,.95,2.29,.95Z" fill="#069" stroke="#069" stroke-linejoin="round" stroke-width="2.6"/>
    <path id="m81400b1a52-69" data-name="m81400b1a52" d="M663.12,63.04c.86,0,1.69-.34,2.29-.95,.61-.61,.95-1.43,.95-2.29s-.34-1.69-.95-2.29c-.61-.61-1.43-.95-2.29-.95s-1.69,.34-2.29,.95c-.61,.61-.95,1.43-.95,2.29s.34,1.69,.95,2.29c.61,.61,1.43,.95,2.29,.95Z" fill="#069" stroke="#069" stroke-linejoin="round" stroke-width="2.6"/>
    <path id="m81400b1a52-70" data-name="m81400b1a52" d="M670.52,53.14c.86,0,1.69-.34,2.29-.95,.61-.61,.95-1.43,.95-2.29s-.34-1.69-.95-2.29c-.61-.61-1.43-.95-2.29-.95s-1.69,.34-2.29,.95c-.61,.61-.95,1.43-.95,2.29s.34,1.69,.95,2.29c.61,.61,1.43,.95,2.29,.95Z" fill="#069" stroke="#069" stroke-linejoin="round" stroke-width="2.6"/>
    <path id="m81400b1a52-71" data-name="m81400b1a52" d="M677.93,60.09c.86,0,1.69-.34,2.29-.95,.61-.61,.95-1.43,.95-2.29s-.34-1.69-.95-2.29c-.61-.61-1.43-.95-2.29-.95s-1.69,.34-2.29,.95c-.61,.61-.95,1.43-.95,2.29s.34,1.69,.95,2.29c.61,.61,1.43,.95,2.29,.95Z" fill="#069" stroke="#069" stroke-linejoin="round" stroke-width="2.6"/>
    <path id="m81400b1a52-72" data-name="m81400b1a52" d="M685.34,63.4c.86,0,1.69-.34,2.29-.95,.61-.61,.95-1.43,.95-2.29s-.34-1.69-.95-2.29c-.61-.61-1.43-.95-2.29-.95s-1.69,.34-2.29,.95c-.61,.61-.95,1.43-.95,2.29s.34,1.69,.95,2.29c.61,.61,1.43,.95,2.29,.95Z" fill="#069" stroke="#069" stroke-linejoin="round" stroke-width="2.6"/>
    <path id="m81400b1a52-73" data-name="m81400b1a52" d="M692.74,54.08c.86,0,1.69-.34,2.29-.95,.61-.61,.95-1.43,.95-2.29s-.34-1.69-.95-2.29c-.61-.61-1.43-.95-2.29-.95s-1.69,.34-2.29,.95c-.61,.61-.95,1.43-.95,2.29s.34,1.69,.95,2.29c.61,.61,1.43,.95,2.29,.95Z" fill="#069" stroke="#069" stroke-linejoin="round" stroke-width="2.6"/>
    <path id="m81400b1a52-74" data-name="m81400b1a52" d="M700.15,42.99c.86,0,1.69-.34,2.29-.95,.61-.61,.95-1.43,.95-2.29s-.34-1.69-.95-2.29c-.61-.61-1.43-.95-2.29-.95s-1.69,.34-2.29,.95c-.61,.61-.95,1.43-.95,2.29s.34,1.69,.95,2.29c.61,.61,1.43,.95,2.29,.95Z" fill="#069" stroke="#069" stroke-linejoin="round" stroke-width="2.6"/>
    <path id="m81400b1a52-75" data-name="m81400b1a52" d="M707.55,59.85c.86,0,1.69-.34,2.29-.95,.61-.61,.95-1.43,.95-2.29s-.34-1.69-.95-2.29c-.61-.61-1.43-.95-2.29-.95s-1.69,.34-2.29,.95c-.61,.61-.95,1.43-.95,2.29s.34,1.69,.95,2.29c.61,.61,1.43,.95,2.29,.95Z" fill="#069" stroke="#069" stroke-linejoin="round" stroke-width="2.6"/>
    <path id="m81400b1a52-76" data-name="m81400b1a52" d="M714.96,54.55c.86,0,1.69-.34,2.29-.95,.61-.61,.95-1.43,.95-2.29s-.34-1.69-.95-2.29c-.61-.61-1.43-.95-2.29-.95s-1.69,.34-2.29,.95c-.61,.61-.95,1.43-.95,2.29s.34,1.69,.95,2.29c.61,.61,1.43,.95,2.29,.95Z" fill="#069" stroke="#069" stroke-linejoin="round" stroke-width="2.6"/>
    <path id="m81400b1a52-77" data-name="m81400b1a52" d="M722.37,63.4c.86,0,1.69-.34,2.29-.95,.61-.61,.95-1.43,.95-2.29s-.34-1.69-.95-2.29c-.61-.61-1.43-.95-2.29-.95s-1.69,.34-2.29,.95c-.61,.61-.95,1.43-.95,2.29s.34,1.69,.95,2.29c.61,.61,1.43,.95,2.29,.95Z" fill="#069" stroke="#069" stroke-linejoin="round" stroke-width="2.6"/>
    <path id="m81400b1a52-78" data-name="m81400b1a52" d="M729.77,65.19c.86,0,1.69-.34,2.29-.95,.61-.61,.95-1.43,.95-2.29s-.34-1.69-.95-2.29c-.61-.61-1.43-.95-2.29-.95s-1.69,.34-2.29,.95c-.61,.61-.95,1.43-.95,2.29s.34,1.69,.95,2.29c.61,.61,1.43,.95,2.29,.95Z" fill="#069" stroke="#069" stroke-linejoin="round" stroke-width="2.6"/>
    <path id="m81400b1a52-79" data-name="m81400b1a52" d="M737.18,58.28c.86,0,1.69-.34,2.29-.95,.61-.61,.95-1.43,.95-2.29s-.34-1.69-.95-2.29c-.61-.61-1.43-.95-2.29-.95s-1.69,.34-2.29,.95c-.61,.61-.95,1.43-.95,2.29s.34,1.69,.95,2.29c.61,.61,1.43,.95,2.29,.95Z" fill="#069" stroke="#069" stroke-linejoin="round" stroke-width="2.6"/>
    <path id="m81400b1a52-80" data-name="m81400b1a52" d="M744.59,64.34c.86,0,1.69-.34,2.29-.95,.61-.61,.95-1.43,.95-2.29s-.34-1.69-.95-2.29c-.61-.61-1.43-.95-2.29-.95s-1.69,.34-2.29,.95c-.61,.61-.95,1.43-.95,2.29s.34,1.69,.95,2.29c.61,.61,1.43,.95,2.29,.95Z" fill="#069" stroke="#069" stroke-linejoin="round" stroke-width="2.6"/>
    <path id="m81400b1a52-81" data-name="m81400b1a52" d="M751.99,48.6c.86,0,1.69-.34,2.29-.95,.61-.61,.95-1.43,.95-2.29s-.34-1.69-.95-2.29c-.61-.61-1.43-.95-2.29-.95s-1.69,.34-2.29,.95c-.61,.61-.95,1.43-.95,2.29s.34,1.69,.95,2.29c.61,.61,1.43,.95,2.29,.95Z" fill="#069" stroke="#069" stroke-linejoin="round" stroke-width="2.6"/>
    <path id="m81400b1a52-82" data-name="m81400b1a52" d="M759.4,42.56c.86,0,1.69-.34,2.29-.95,.61-.61,.95-1.43,.95-2.29s-.34-1.69-.95-2.29c-.61-.61-1.43-.95-2.29-.95s-1.69,.34-2.29,.95c-.61,.61-.95,1.43-.95,2.29s.34,1.69,.95,2.29c.61,.61,1.43,.95,2.29,.95Z" fill="#069" stroke="#069" stroke-linejoin="round" stroke-width="2.6"/>
    <path id="m81400b1a52-83" data-name="m81400b1a52" d="M766.8,42.07c.86,0,1.69-.34,2.29-.95,.61-.61,.95-1.43,.95-2.29s-.34-1.69-.95-2.29c-.61-.61-1.43-.95-2.29-.95s-1.69,.34-2.29,.95c-.61,.61-.95,1.43-.95,2.29s.34,1.69,.95,2.29c.61,.61,1.43,.95,2.29,.95Z" fill="#069" stroke="#069" stroke-linejoin="round" stroke-width="2.6"/>
    <path id="m81400b1a52-84" data-name="m81400b1a52" d="M774.21,60.04c.86,0,1.69-.34,2.29-.95,.61-.61,.95-1.43,.95-2.29s-.34-1.69-.95-2.29c-.61-.61-1.43-.95-2.29-.95s-1.69,.34-2.29,.95c-.61,.61-.95,1.43-.95,2.29s.34,1.69,.95,2.29c.61,.61,1.43,.95,2.29,.95Z" fill="#069" stroke="#069" stroke-linejoin="round" stroke-width="2.6"/>
    <path id="m81400b1a52-85" data-name="m81400b1a52" d="M781.62,37.59c.86,0,1.69-.34,2.29-.95,.61-.61,.95-1.43,.95-2.29s-.34-1.69-.95-2.29c-.61-.61-1.43-.95-2.29-.95s-1.69,.34-2.29,.95c-.61,.61-.95,1.43-.95,2.29s.34,1.69,.95,2.29c.61,.61,1.43,.95,2.29,.95Z" fill="#069" stroke="#069" stroke-linejoin="round" stroke-width="2.6"/>
    <path id="m81400b1a52-86" data-name="m81400b1a52" d="M789.02,55.17c.86,0,1.69-.34,2.29-.95,.61-.61,.95-1.43,.95-2.29s-.34-1.69-.95-2.29c-.61-.61-1.43-.95-2.29-.95s-1.69,.34-2.29,.95c-.61,.61-.95,1.43-.95,2.29s.34,1.69,.95,2.29c.61,.61,1.43,.95,2.29,.95Z" fill="#069" stroke="#069" stroke-linejoin="round" stroke-width="2.6"/>
    <path id="m81400b1a52-87" data-name="m81400b1a52" d="M796.43,30.62c.86,0,1.69-.34,2.29-.95,.61-.61,.95-1.43,.95-2.29s-.34-1.69-.95-2.29c-.61-.61-1.43-.95-2.29-.95s-1.69,.34-2.29,.95c-.61,.61-.95,1.43-.95,2.29s.34,1.69,.95,2.29c.61,.61,1.43,.95,2.29,.95Z" fill="#069" stroke="#069" stroke-linejoin="round" stroke-width="2.6"/>
    <path id="m81400b1a52-88" data-name="m81400b1a52" d="M803.84,67.53c.86,0,1.69-.34,2.29-.95,.61-.61,.95-1.43,.95-2.29s-.34-1.69-.95-2.29c-.61-.61-1.43-.95-2.29-.95s-1.69,.34-2.29,.95c-.61,.61-.95,1.43-.95,2.29s.34,1.69,.95,2.29c.61,.61,1.43,.95,2.29,.95Z" fill="#069" stroke="#069" stroke-linejoin="round" stroke-width="2.6"/>
    <path id="m81400b1a52-89" data-name="m81400b1a52" d="M811.24,61.49c.86,0,1.69-.34,2.29-.95,.61-.61,.95-1.43,.95-2.29s-.34-1.69-.95-2.29c-.61-.61-1.43-.95-2.29-.95s-1.69,.34-2.29,.95c-.61,.61-.95,1.43-.95,2.29s.34,1.69,.95,2.29c.61,.61,1.43,.95,2.29,.95Z" fill="#069" stroke="#069" stroke-linejoin="round" stroke-width="2.6"/>
    <path id="m81400b1a52-90" data-name="m81400b1a52" d="M818.65,49.55c.86,0,1.69-.34,2.29-.95,.61-.61,.95-1.43,.95-2.29s-.34-1.69-.95-2.29c-.61-.61-1.43-.95-2.29-.95s-1.69,.34-2.29,.95c-.61,.61-.95,1.43-.95,2.29s.34,1.69,.95,2.29c.61,.61,1.43,.95,2.29,.95Z" fill="#069" stroke="#069" stroke-linejoin="round" stroke-width="2.6"/>
    <path id="m81400b1a52-91" data-name="m81400b1a52" d="M826.05,27.54c.86,0,1.69-.34,2.29-.95,.61-.61,.95-1.43,.95-2.29s-.34-1.69-.95-2.29c-.61-.61-1.43-.95-2.29-.95s-1.69,.34-2.29,.95c-.61,.61-.95,1.43-.95,2.29s.34,1.69,.95,2.29c.61,.61,1.43,.95,2.29,.95Z" fill="#069" stroke="#069" stroke-linejoin="round" stroke-width="2.6"/>
    <path id="m81400b1a52-92" data-name="m81400b1a52" d="M833.46,29.99c.86,0,1.69-.34,2.29-.95,.61-.61,.95-1.43,.95-2.29s-.34-1.69-.95-2.29c-.61-.61-1.43-.95-2.29-.95s-1.69,.34-2.29,.95c-.61,.61-.95,1.43-.95,2.29s.34,1.69,.95,2.29c.61,.61,1.43,.95,2.29,.95Z" fill="#069" stroke="#069" stroke-linejoin="round" stroke-width="2.6"/>
    <path id="m81400b1a52-93" data-name="m81400b1a52" d="M840.87,67.02c.86,0,1.69-.34,2.29-.95,.61-.61,.95-1.43,.95-2.29s-.34-1.69-.95-2.29c-.61-.61-1.43-.95-2.29-.95s-1.69,.34-2.29,.95c-.61,.61-.95,1.43-.95,2.29s.34,1.69,.95,2.29c.61,.61,1.43,.95,2.29,.95Z" fill="#069" stroke="#069" stroke-linejoin="round" stroke-width="2.6"/>
    <path id="m81400b1a52-94" data-name="m81400b1a52" d="M848.27,26.54c.86,0,1.69-.34,2.29-.95,.61-.61,.95-1.43,.95-2.29s-.34-1.69-.95-2.29c-.61-.61-1.43-.95-2.29-.95s-1.69,.34-2.29,.95c-.61,.61-.95,1.43-.95,2.29s.34,1.69,.95,2.29c.61,.61,1.43,.95,2.29,.95Z" fill="#069" stroke="#069" stroke-linejoin="round" stroke-width="2.6"/>
    <path id="m81400b1a52-95" data-name="m81400b1a52" d="M855.68,61.4c.86,0,1.69-.34,2.29-.95,.61-.61,.95-1.43,.95-2.29s-.34-1.69-.95-2.29c-.61-.61-1.43-.95-2.29-.95s-1.69,.34-2.29,.95c-.61,.61-.95,1.43-.95,2.29s.34,1.69,.95,2.29c.61,.61,1.43,.95,2.29,.95Z" fill="#069" stroke="#069" stroke-linejoin="round" stroke-width="2.6"/>
    <path id="m81400b1a52-96" data-name="m81400b1a52" d="M863.09,55.51c.86,0,1.69-.34,2.29-.95,.61-.61,.95-1.43,.95-2.29s-.34-1.69-.95-2.29c-.61-.61-1.43-.95-2.29-.95s-1.69,.34-2.29,.95c-.61,.61-.95,1.43-.95,2.29s.34,1.69,.95,2.29c.61,.61,1.43,.95,2.29,.95Z" fill="#069" stroke="#069" stroke-linejoin="round" stroke-width="2.6"/>
    <path id="m81400b1a52-97" data-name="m81400b1a52" d="M870.49,59.08c.86,0,1.69-.34,2.29-.95,.61-.61,.95-1.43,.95-2.29s-.34-1.69-.95-2.29c-.61-.61-1.43-.95-2.29-.95s-1.69,.34-2.29,.95c-.61,.61-.95,1.43-.95,2.29s.34,1.69,.95,2.29c.61,.61,1.43,.95,2.29,.95Z" fill="#069" stroke="#069" stroke-linejoin="round" stroke-width="2.6"/>
    <path id="m81400b1a52-98" data-name="m81400b1a52" d="M877.9,62.13c.86,0,1.69-.34,2.29-.95,.61-.61,.95-1.43,.95-2.29s-.34-1.69-.95-2.29c-.61-.61-1.43-.95-2.29-.95s-1.69,.34-2.29,.95c-.61,.61-.95,1.43-.95,2.29s.34,1.69,.95,2.29c.61,.61,1.43,.95,2.29,.95Z" fill="#069" stroke="#069" stroke-linejoin="round" stroke-width="2.6"/>
    <path id="m81400b1a52-99" data-name="m81400b1a52" d="M885.3,50.6c.86,0,1.69-.34,2.29-.95,.61-.61,.95-1.43,.95-2.29s-.34-1.69-.95-2.29c-.61-.61-1.43-.95-2.29-.95s-1.69,.34-2.29,.95c-.61,.61-.95,1.43-.95,2.29s.34,1.69,.95,2.29c.61,.61,1.43,.95,2.29,.95Z" fill="#069" stroke="#069" stroke-linejoin="round" stroke-width="2.6"/>
    <path id="m81400b1a52-100" data-name="m81400b1a52" d="M892.71,42.31c.86,0,1.69-.34,2.29-.95,.61-.61,.95-1.43,.95-2.29s-.34-1.69-.95-2.29c-.61-.61-1.43-.95-2.29-.95s-1.69,.34-2.29,.95c-.61,.61-.95,1.43-.95,2.29s.34,1.69,.95,2.29c.61,.61,1.43,.95,2.29,.95Z" fill="#069" stroke="#069" stroke-linejoin="round" stroke-width="2.6"/>
    <path id="m81400b1a52-101" data-name="m81400b1a52" d="M900.12,34.29c.86,0,1.69-.34,2.29-.95,.61-.61,.95-1.43,.95-2.29s-.34-1.69-.95-2.29c-.61-.61-1.43-.95-2.29-.95s-1.69,.34-2.29,.95c-.61,.61-.95,1.43-.95,2.29s.34,1.69,.95,2.29c.61,.61,1.43,.95,2.29,.95Z" fill="#069" stroke="#069" stroke-linejoin="round" stroke-width="2.6"/>
  </g>
  <path d="M159.49,43.76l49.96,1.25,38.21,1.43,29.39,1.56,23.51,1.69,20.57,1.95,16.16,1.97,14.69,2.26,13.23,2.54,10.29,2.41,10.29,2.91,8.82,3,7.35,2.94,7.35,3.44,7.35,4.05,5.88,3.78,5.88,4.36,5.88,5.06,4.41,4.35,4.41,4.9,4.41,5.55,4.41,6.31,4.41,7.2,4.41,8.24,4.41,9.48,4.41,10.93,4.41,12.65,4.41,14.66,4.41,17.02,4.41,19.73,4.41,22.78,4.41,26.1,4.41,29.49,4.41,32.55,13.23,101.85,2.94,18.22,2.94,14.22,1.47,5.28,1.47,3.91,1.47,2.46,1.47,.97,1.47-.55,1.47-2.06,1.47-3.52,1.47-4.92,1.47-6.21,2.94-15.81,2.94-19.39,4.41-33.23,10.29-80.31,4.41-30.86,4.41-27.55,4.41-24.17,4.41-20.98,4.41-18.12,4.41-15.62,4.41-13.46,4.41-11.62,4.41-10.06,4.41-8.74,4.41-7.62,4.41-6.67,4.41-5.86,4.41-5.17,4.41-4.57,5.88-5.32,5.88-4.57,5.88-3.95,5.88-3.44,7.35-3.7,7.35-3.15,8.82-3.2,8.82-2.69,10.29-2.63,11.76-2.48,13.23-2.27,14.69-2.03,17.63-1.93,20.57-1.75,24.98-1.61,29.39-1.4,36.74-1.26,41.15-.99h0" fill="none" stroke="red" stroke-linecap="round" stroke-linejoin="round" stroke-width="4"/>
  <rect x="122.49" y="1" width="814.66" height="490.49" fill="none" stroke="#000" stroke-linecap="square" stroke-linejoin="round" stroke-width="2"/>
  <g>
    <path d="M61,51.86v-1.6l5.43-3.86h1.29v19.82h-1.43v-18.04l-5.29,3.69Z"/>
    <path d="M75.01,64.99c-2.15-1.97-2.46-5.55-2.46-8.69s.31-6.69,2.46-8.66c.97-.89,2.32-1.63,4.23-1.63s3.29,.71,4.23,1.63c2.12,2.03,2.46,5.55,2.46,8.66s-.31,6.72-2.46,8.69c-.94,.89-2.32,1.63-4.23,1.63s-3.26-.74-4.23-1.63Zm7.52-.92c1.86-1.74,1.97-5.18,1.97-7.78s-.09-6-1.97-7.75c-.77-.71-1.8-1.17-3.29-1.17s-2.52,.49-3.26,1.17c-1.89,1.74-1.97,5.18-1.97,7.75s.09,6.03,1.97,7.78c.74,.69,1.8,1.17,3.26,1.17s2.54-.46,3.29-1.17Z"/>
    <path d="M92.8,63.64v2.57h-2.52v-2.57h2.52Z"/>
    <path d="M99.61,64.99c-2.14-1.97-2.46-5.55-2.46-8.69s.31-6.69,2.46-8.66c.97-.89,2.32-1.63,4.23-1.63s3.29,.71,4.23,1.63c2.12,2.03,2.46,5.55,2.46,8.66s-.31,6.72-2.46,8.69c-.94,.89-2.32,1.63-4.23,1.63s-3.26-.74-4.23-1.63Zm7.52-.92c1.86-1.74,1.97-5.18,1.97-7.78s-.09-6-1.97-7.75c-.77-.71-1.8-1.17-3.29-1.17s-2.52,.49-3.26,1.17c-1.89,1.74-1.97,5.18-1.97,7.75s.09,6.03,1.97,7.78c.74,.69,1.8,1.17,3.26,1.17s2.54-.46,3.29-1.17Z"/>
  </g>
  <line x1="122.49" y1="58.88" x2="129.68" y2="58.88" fill="none" stroke="#000" stroke-linecap="round" stroke-linejoin="round" stroke-width="2"/>
  <g>
    <path d="M74.27,167.27h1.49c.14,2.29,1.86,3.83,4.49,3.83,4.78,0,5.29-5.38,5.29-9.92-.6,2.32-2.86,3.77-5.2,3.77-4.06,0-6.49-2.6-6.49-6.52,0-3.63,2.4-6.58,6.46-6.58,2.32,0,4.06,1.14,5,2.4,1.52,2.03,1.69,5.06,1.69,7.89s-.37,6.09-2.12,8.26c-1,1.26-2.49,2.06-4.63,2.06-3.4,0-5.78-2.09-5.98-5.2Zm10.89-8.78c0-2.75-1.72-5.26-4.89-5.26-3.43,0-4.98,2.46-4.98,5.2s1.6,5.2,5,5.2c2.75,0,4.86-2.32,4.86-5.15Z"/>
    <path d="M93.86,169.5v2.57h-2.52v-2.57h2.52Z"/>
    <path d="M97.89,166.32h1.43c.14,2.8,2.09,4.78,5.09,4.78,3.17,0,4.98-2.23,4.98-5.23s-1.57-5.29-4.75-5.29c-1.77,0-3.52,.69-4.46,2.17h-1.69l.8-10.49h10.84v1.34h-9.61l-.66,7.72c1.09-1.4,3-2.09,4.78-2.09,4.09,0,6.18,2.86,6.18,6.63s-2.26,6.61-6.41,6.61-6.43-2.66-6.52-6.15Z"/>
  </g>
  <line x1="122.49" y1="164.74" x2="129.68" y2="164.74" fill="none" stroke="#000" stroke-linecap="round" stroke-linejoin="round" stroke-width="2"/>
  <g>
    <path d="M73.21,273.12h1.49c.14,2.29,1.86,3.83,4.49,3.83,4.78,0,5.29-5.38,5.29-9.92-.6,2.32-2.86,3.77-5.2,3.77-4.06,0-6.49-2.6-6.49-6.52,0-3.63,2.4-6.58,6.46-6.58,2.32,0,4.06,1.14,5,2.4,1.52,2.03,1.69,5.06,1.69,7.89s-.37,6.09-2.12,8.26c-1,1.26-2.49,2.06-4.63,2.06-3.4,0-5.78-2.09-5.98-5.2Zm10.9-8.78c0-2.75-1.72-5.26-4.89-5.26-3.43,0-4.98,2.46-4.98,5.2s1.6,5.2,5,5.2c2.75,0,4.86-2.32,4.86-5.15Z"/>
    <path d="M92.8,275.35v2.57h-2.52v-2.57h2.52Z"/>
    <path d="M99.61,276.69c-2.15-1.97-2.46-5.55-2.46-8.69s.31-6.69,2.46-8.66c.97-.89,2.32-1.63,4.23-1.63s3.29,.71,4.23,1.63c2.12,2.03,2.46,5.55,2.46,8.66s-.31,6.72-2.46,8.69c-.94,.89-2.32,1.63-4.23,1.63s-3.26-.74-4.23-1.63Zm7.52-.92c1.86-1.74,1.97-5.18,1.97-7.78s-.09-6-1.97-7.75c-.77-.71-1.8-1.17-3.29-1.17s-2.52,.49-3.26,1.17c-1.89,1.74-1.97,5.18-1.97,7.75s.09,6.03,1.97,7.78c.74,.69,1.8,1.17,3.26,1.17s2.54-.46,3.29-1.17Z"/>
  </g>
  <line x1="122.49" y1="270.59" x2="129.68" y2="270.59" fill="none" stroke="#000" stroke-linecap="round" stroke-linejoin="round" stroke-width="2"/>
  <g>
    <path d="M73.95,378.54c0-2.23,1.43-4.38,3.69-5.12-1.94-.71-3.23-2.6-3.23-4.58,0-3.32,2.72-5.29,6.12-5.29s6.12,1.97,6.12,5.29c0,1.97-1.29,3.86-3.23,4.58,2.26,.74,3.69,2.89,3.69,5.12,0,3.55-3.03,5.63-6.58,5.63s-6.58-2.09-6.58-5.63Zm11.7-.09c0-2.83-2.29-4.4-5.12-4.4s-5.12,1.57-5.12,4.4,2.29,4.4,5.12,4.4,5.12-1.57,5.12-4.4Zm-.49-9.67c0-2.54-2.09-3.95-4.63-3.95s-4.63,1.4-4.63,3.95,2.03,4,4.63,4,4.63-1.4,4.63-4Z"/>
    <path d="M93.86,381.2v2.57h-2.52v-2.57h2.52Z"/>
    <path d="M97.89,378.03h1.43c.14,2.8,2.09,4.78,5.09,4.78,3.17,0,4.98-2.23,4.98-5.23s-1.57-5.29-4.75-5.29c-1.77,0-3.52,.69-4.46,2.17h-1.69l.8-10.49h10.84v1.34h-9.61l-.66,7.72c1.09-1.4,3-2.09,4.78-2.09,4.09,0,6.18,2.86,6.18,6.63s-2.26,6.61-6.41,6.61-6.43-2.66-6.52-6.15Z"/>
  </g>
  <line x1="122.49" y1="376.45" x2="129.68" y2="376.45" fill="none" stroke="#000" stroke-linecap="round" stroke-linejoin="round" stroke-width="2"/>
  <g>
    <path d="M72.89,484.4c0-2.23,1.43-4.38,3.69-5.12-1.94-.71-3.23-2.6-3.23-4.58,0-3.32,2.72-5.29,6.12-5.29s6.12,1.97,6.12,5.29c0,1.97-1.29,3.86-3.23,4.58,2.26,.74,3.69,2.89,3.69,5.12,0,3.55-3.03,5.63-6.58,5.63s-6.58-2.09-6.58-5.63Zm11.7-.09c0-2.83-2.29-4.4-5.12-4.4s-5.12,1.57-5.12,4.4,2.29,4.4,5.12,4.4,5.12-1.57,5.12-4.4Zm-.49-9.67c0-2.54-2.09-3.95-4.63-3.95s-4.63,1.4-4.63,3.95,2.03,4,4.63,4,4.63-1.4,4.63-4Z"/>
    <path d="M92.8,487.06v2.57h-2.52v-2.57h2.52Z"/>
    <path d="M99.61,488.41c-2.15-1.97-2.46-5.55-2.46-8.69s.31-6.69,2.46-8.66c.97-.89,2.32-1.63,4.23-1.63s3.29,.71,4.23,1.63c2.12,2.03,2.46,5.55,2.46,8.66s-.31,6.72-2.46,8.69c-.94,.89-2.32,1.63-4.23,1.63s-3.26-.74-4.23-1.63Zm7.52-.92c1.86-1.74,1.97-5.18,1.97-7.78s-.09-6-1.97-7.75c-.77-.71-1.8-1.17-3.29-1.17s-2.52,.49-3.26,1.17c-1.89,1.74-1.97,5.18-1.97,7.75s.09,6.03,1.97,7.78c.74,.69,1.8,1.17,3.26,1.17s2.54-.46,3.29-1.17Z"/>
  </g>
  <line x1="122.49" y1="482.3" x2="129.68" y2="482.3" fill="none" stroke="#000" stroke-linecap="round" stroke-linejoin="round" stroke-width="2"/>
  <g>
    <path d="M18.06,276.61v9.61l6.38,2.43v1.57l-20.27-7.86v-1.8l20.27-7.95v1.54l-6.38,2.46Zm-1.37,.54l-11.15,4.32,11.15,4.23v-8.55Z"/>
    <path d="M15.2,263.51c-4.46,0-9.44-1.63-12.9-4.72l.69-.89c3.6,2.8,7.52,4.26,12.21,4.26s8.61-1.46,12.21-4.26l.69,.89c-3.46,3.09-8.44,4.72-12.9,4.72Z"/>
    <path d="M20.46,255.85c-2.54,0-4.12-1.94-4.32-4.8l-.37-5.26h-1.26c-2.4,0-3.43,1.74-3.43,3.95s1.03,3.92,3.17,4.06v1.43c-2.95-.2-4.52-2.57-4.52-5.43,0-3.26,1.6-5.43,4.89-5.43h7.06c.97,0,1.54-.14,1.54-1.12,0-.11,0-.29-.03-.4h1.26c.06,.2,.09,.46,.09,.69,0,1.77-1.34,2.26-2.86,2.26,2.03,.77,3.15,2.95,3.15,5.15,0,2.77-1.69,4.92-4.38,4.92Zm-2.63-10.07h-.74l.31,5.12c.14,2.2,1.34,3.49,3.03,3.49,2,0,3.09-1.54,3.09-3.57,0-3.6-2.92-5.03-5.69-5.03Z"/>
    <path d="M21.86,236.66h2.57v2.52h-2.57v-2.52Z"/>
    <path d="M19.38,231.71H10.14v-1.43h9.15c2.49,0,4.15-1.23,4.15-3.75,0-3.32-2.66-4.69-5.86-4.69h-7.43v-1.43h14.3v1.32l-2.69,.11c1.89,.8,3.09,2.63,3.09,4.78,0,3.23-2.26,5.09-5.46,5.09Z"/>
    <path d="M21.86,212.78h2.57v2.52h-2.57v-2.52Z"/>
    <path d="M27.41,209.74c-3.6-2.8-7.52-4.26-12.21-4.26s-8.61,1.46-12.21,4.26l-.69-.89c3.46-3.09,8.44-4.72,12.9-4.72s9.44,1.63,12.9,4.72l-.69,.89Z"/>
  </g>
  <line x1="159.49" y1="491.49" x2="159.49" y2="484.3" fill="none" stroke="#000" stroke-linecap="round" stroke-linejoin="round" stroke-width="2"/>
  <g>
    <path d="M134.49,519.43c-1.52-2.03-1.83-5.06-1.83-7.89,0-3.03,.4-6.32,2.34-8.41,.94-1,2.43-1.89,4.49-1.89,3.35,0,5.75,2.06,5.92,5.18h-1.46c-.2-2.29-1.72-3.8-4.46-3.8-4.43,0-5.35,4.78-5.35,9.49,.71-2.09,2.89-3.49,5.23-3.49,4.12,0,6.49,2.66,6.49,6.58,0,3.66-2.34,6.66-6.46,6.66-2.32,0-3.97-1.17-4.92-2.43Zm9.92-4.23c0-2.75-1.57-5.26-5-5.26-2.86,0-4.86,2.32-4.86,5.2s1.72,5.35,4.89,5.35c3.43,0,4.98-2.52,4.98-5.29Z"/>
    <path d="M152.51,518.89v2.57h-2.52v-2.57h2.52Z"/>
    <path d="M165.72,516.8h-9.89v-1.72l8.58-13.44h1.69l-8.81,13.73h8.44v-6.55h1.46v6.55h2.95v1.43h-2.95v4.66h-1.46v-4.66Z"/>
    <path d="M175.36,520.23c-2.15-1.97-2.46-5.55-2.46-8.69s.31-6.69,2.46-8.66c.97-.89,2.32-1.63,4.23-1.63s3.29,.71,4.23,1.63c2.12,2.03,2.46,5.55,2.46,8.66s-.31,6.72-2.46,8.69c-.94,.89-2.32,1.63-4.23,1.63s-3.26-.74-4.23-1.63Zm7.52-.92c1.86-1.74,1.97-5.18,1.97-7.78s-.09-6-1.97-7.75c-.77-.71-1.8-1.17-3.29-1.17s-2.52,.49-3.26,1.17c-1.89,1.74-1.97,5.18-1.97,7.75s.09,6.03,1.97,7.78c.74,.69,1.8,1.17,3.26,1.17s2.54-.46,3.29-1.17Z"/>
  </g>
  <line x1="307.62" y1="491.49" x2="307.62" y2="484.3" fill="none" stroke="#000" stroke-linecap="round" stroke-linejoin="round" stroke-width="2"/>
  <g>
    <path d="M283.55,519.43c-1.52-2.03-1.83-5.06-1.83-7.89,0-3.03,.4-6.32,2.34-8.41,.94-1,2.43-1.89,4.49-1.89,3.35,0,5.75,2.06,5.92,5.18h-1.46c-.2-2.29-1.72-3.8-4.46-3.8-4.43,0-5.35,4.78-5.35,9.49,.71-2.09,2.89-3.49,5.23-3.49,4.12,0,6.49,2.66,6.49,6.58,0,3.66-2.34,6.66-6.46,6.66-2.32,0-3.97-1.17-4.92-2.43Zm9.92-4.23c0-2.75-1.57-5.26-5-5.26-2.86,0-4.86,2.32-4.86,5.2s1.72,5.35,4.89,5.35c3.43,0,4.98-2.52,4.98-5.29Z"/>
    <path d="M301.56,518.89v2.57h-2.52v-2.57h2.52Z"/>
    <path d="M314.78,516.8h-9.89v-1.72l8.58-13.44h1.69l-8.81,13.73h8.44v-6.55h1.46v6.55h2.95v1.43h-2.95v4.66h-1.46v-4.66Z"/>
    <path d="M321.73,519.92l8.26-8.92c1.32-1.43,1.97-2.86,1.97-4.35,0-2.34-1.6-4.03-4.32-4.03s-4.43,1.86-4.43,5.09h-1.52c0-4,2.43-6.46,5.95-6.46,3.26,0,5.75,2.09,5.75,5.4,0,1.77-.86,3.66-2.29,5.18l-7.75,8.26h10.55v1.37h-12.18v-1.54Z"/>
  </g>
  <line x1="455.74" y1="491.49" x2="455.74" y2="484.3" fill="none" stroke="#000" stroke-linecap="round" stroke-linejoin="round" stroke-width="2"/>
  <g>
    <path d="M431.3,519.43c-1.52-2.03-1.83-5.06-1.83-7.89,0-3.03,.4-6.32,2.34-8.41,.94-1,2.43-1.89,4.49-1.89,3.35,0,5.75,2.06,5.92,5.18h-1.46c-.2-2.29-1.72-3.8-4.46-3.8-4.43,0-5.35,4.78-5.35,9.49,.71-2.09,2.89-3.49,5.23-3.49,4.12,0,6.49,2.66,6.49,6.58,0,3.66-2.34,6.66-6.46,6.66-2.32,0-3.97-1.17-4.92-2.43Zm9.92-4.23c0-2.75-1.57-5.26-5-5.26-2.86,0-4.86,2.32-4.86,5.2s1.72,5.35,4.89,5.35c3.43,0,4.98-2.52,4.98-5.29Z"/>
    <path d="M449.32,518.89v2.57h-2.52v-2.57h2.52Z"/>
    <path d="M462.53,516.8h-9.89v-1.72l8.58-13.44h1.69l-8.81,13.73h8.44v-6.55h1.46v6.55h2.95v1.43h-2.95v4.66h-1.46v-4.66Z"/>
    <path d="M478.57,516.8h-9.89v-1.72l8.58-13.44h1.69l-8.81,13.73h8.44v-6.55h1.46v6.55h2.95v1.43h-2.95v4.66h-1.46v-4.66Z"/>
  </g>
  <line x1="603.87" y1="491.49" x2="603.87" y2="484.3" fill="none" stroke="#000" stroke-linecap="round" stroke-linejoin="round" stroke-width="2"/>
  <g>
    <path d="M579.08,519.43c-1.52-2.03-1.83-5.06-1.83-7.89,0-3.03,.4-6.32,2.34-8.41,.94-1,2.43-1.89,4.49-1.89,3.35,0,5.75,2.06,5.92,5.18h-1.46c-.2-2.29-1.72-3.8-4.46-3.8-4.43,0-5.35,4.78-5.35,9.49,.71-2.09,2.89-3.49,5.23-3.49,4.12,0,6.49,2.66,6.49,6.58,0,3.66-2.34,6.66-6.46,6.66-2.32,0-3.97-1.17-4.92-2.43Zm9.92-4.23c0-2.75-1.57-5.26-5-5.26-2.86,0-4.86,2.32-4.86,5.2s1.72,5.35,4.89,5.35c3.43,0,4.98-2.52,4.98-5.29Z"/>
    <path d="M597.1,518.89v2.57h-2.52v-2.57h2.52Z"/>
    <path d="M610.31,516.8h-9.89v-1.72l8.58-13.44h1.69l-8.81,13.73h8.44v-6.55h1.46v6.55h2.95v1.43h-2.95v4.66h-1.46v-4.66Z"/>
    <path d="M619.29,519.43c-1.52-2.03-1.83-5.06-1.83-7.89,0-3.03,.4-6.32,2.34-8.41,.94-1,2.43-1.89,4.49-1.89,3.35,0,5.75,2.06,5.92,5.18h-1.46c-.2-2.29-1.72-3.8-4.46-3.8-4.43,0-5.35,4.78-5.35,9.49,.71-2.09,2.89-3.49,5.23-3.49,4.12,0,6.49,2.66,6.49,6.58,0,3.66-2.34,6.66-6.46,6.66-2.32,0-3.97-1.17-4.92-2.43Zm9.92-4.23c0-2.75-1.57-5.26-5-5.26-2.86,0-4.86,2.32-4.86,5.2s1.72,5.35,4.89,5.35c3.43,0,4.98-2.52,4.98-5.29Z"/>
  </g>
  <line x1="751.99" y1="491.49" x2="751.99" y2="484.3" fill="none" stroke="#000" stroke-linecap="round" stroke-linejoin="round" stroke-width="2"/>
  <g>
    <path d="M727.22,519.43c-1.52-2.03-1.83-5.06-1.83-7.89,0-3.03,.4-6.32,2.34-8.41,.94-1,2.43-1.89,4.49-1.89,3.35,0,5.75,2.06,5.92,5.18h-1.46c-.2-2.29-1.72-3.8-4.46-3.8-4.43,0-5.35,4.78-5.35,9.49,.71-2.09,2.89-3.49,5.23-3.49,4.12,0,6.49,2.66,6.49,6.58,0,3.66-2.34,6.66-6.46,6.66-2.32,0-3.97-1.17-4.92-2.43Zm9.92-4.23c0-2.75-1.57-5.26-5-5.26-2.86,0-4.86,2.32-4.86,5.2s1.72,5.35,4.89,5.35c3.43,0,4.98-2.52,4.98-5.29Z"/>
    <path d="M745.24,518.89v2.57h-2.52v-2.57h2.52Z"/>
    <path d="M758.45,516.8h-9.89v-1.72l8.58-13.44h1.69l-8.81,13.73h8.44v-6.55h1.46v6.55h2.95v1.43h-2.95v4.66h-1.46v-4.66Z"/>
    <path d="M765.51,516.23c0-2.23,1.43-4.38,3.69-5.12-1.94-.71-3.23-2.6-3.23-4.58,0-3.32,2.72-5.29,6.12-5.29s6.12,1.97,6.12,5.29c0,1.97-1.29,3.86-3.23,4.58,2.26,.74,3.69,2.89,3.69,5.12,0,3.54-3.03,5.63-6.58,5.63s-6.58-2.09-6.58-5.63Zm11.7-.09c0-2.83-2.29-4.4-5.12-4.4s-5.12,1.57-5.12,4.4,2.29,4.4,5.12,4.4,5.12-1.57,5.12-4.4Zm-.49-9.67c0-2.55-2.09-3.95-4.63-3.95s-4.63,1.4-4.63,3.95,2.03,4,4.63,4,4.63-1.4,4.63-4Z"/>
  </g>
  <line x1="900.12" y1="491.49" x2="900.12" y2="484.3" fill="none" stroke="#000" stroke-linecap="round" stroke-linejoin="round" stroke-width="2"/>
  <g>
    <path d="M875.09,519.43c-1.52-2.03-1.83-5.06-1.83-7.89,0-3.03,.4-6.32,2.34-8.41,.94-1,2.43-1.89,4.49-1.89,3.35,0,5.75,2.06,5.92,5.18h-1.46c-.2-2.29-1.71-3.8-4.46-3.8-4.43,0-5.35,4.78-5.35,9.49,.71-2.09,2.89-3.49,5.23-3.49,4.12,0,6.49,2.66,6.49,6.58,0,3.66-2.34,6.66-6.46,6.66-2.32,0-3.97-1.17-4.92-2.43Zm9.92-4.23c0-2.75-1.57-5.26-5-5.26-2.86,0-4.86,2.32-4.86,5.2s1.72,5.35,4.89,5.35c3.43,0,4.98-2.52,4.98-5.29Z"/>
    <path d="M893.1,518.89v2.57h-2.52v-2.57h2.52Z"/>
    <path d="M897.14,515.71h1.43c.14,2.8,2.09,4.78,5.09,4.78,3.17,0,4.98-2.23,4.98-5.23s-1.57-5.29-4.75-5.29c-1.77,0-3.52,.69-4.46,2.17h-1.69l.8-10.49h10.84v1.34h-9.61l-.66,7.72c1.09-1.4,3-2.09,4.78-2.09,4.09,0,6.18,2.86,6.18,6.63s-2.26,6.61-6.41,6.61-6.43-2.66-6.52-6.15Z"/>
    <path d="M916.01,520.23c-2.14-1.97-2.46-5.55-2.46-8.69s.31-6.69,2.46-8.66c.97-.89,2.32-1.63,4.23-1.63s3.29,.71,4.23,1.63c2.12,2.03,2.46,5.55,2.46,8.66s-.31,6.72-2.46,8.69c-.94,.89-2.32,1.63-4.23,1.63s-3.26-.74-4.23-1.63Zm7.52-.92c1.86-1.74,1.97-5.18,1.97-7.78s-.09-6-1.97-7.75c-.77-.71-1.8-1.17-3.29-1.17s-2.52,.49-3.26,1.17c-1.89,1.74-1.97,5.18-1.97,7.75s.09,6.03,1.97,7.78c.74,.69,1.8,1.17,3.26,1.17s2.54-.46,3.29-1.17Z"/>
  </g>
  <g>
    <path d="M428.9,556.04h-3.03v-1.32h3.03v-2.43c0-2.17,1.37-4.09,4.12-4.09,.83,0,1.49,.09,2.03,.23v1.29c-.51-.14-1.09-.23-1.92-.23-1.86,0-2.8,1.03-2.8,2.86v2.37h4.43v1.32h-4.43v12.98h-1.43v-12.98Z"/>
    <path d="M438.03,554.73h1.32l.11,2.95c.63-2,2.57-3.09,4.6-3.09,.43,0,.92,0,1.34,.14v1.37c-.46-.11-.94-.14-1.4-.14-3.32,0-4.55,2.75-4.55,5.92v7.15h-1.43v-14.3Z"/>
    <path d="M449.75,567.42c-1.17-1.37-1.89-3.32-1.89-5.49,0-1.8,.29-3.57,1.43-5.09,1.23-1.63,2.92-2.52,5-2.52,3.95,0,6.32,3.15,6.32,6.95,0,.34,0,.54-.03,.94h-11.3c.06,3.17,1.92,5.83,5.12,5.83,2.26,0,4.03-1.49,4.38-3.32h1.49c-.43,2.69-3,4.69-5.86,4.69-2.06,0-3.72-.92-4.66-2Zm9.38-6.49c-.06-2.72-1.74-5.26-4.83-5.26s-4.92,2.46-4.98,5.26h9.81Z"/>
    <path d="M475.09,566.25c-.66,1.89-2.77,3.17-4.83,3.17-1.74,0-3.06-.6-4.06-1.52-1.57-1.43-2.32-3.72-2.32-6.06s.77-4.75,2.43-6.15c1-.83,2.29-1.37,4.06-1.37,2.06,0,4.09,1.23,4.72,3.06l.11-2.66h1.34v19.99h-1.46v-8.46Zm-1.8,.63c1.34-1.23,1.83-2.89,1.83-5,0-1.97-.51-3.75-1.86-4.98-.77-.71-1.72-1.17-2.95-1.17s-2.23,.37-3,1.03c-1.34,1.14-1.97,3.09-1.97,5.12,0,1.83,.54,3.69,1.69,4.86,.77,.77,1.83,1.29,3.23,1.29,1.29,0,2.26-.46,3.03-1.14Z"/>
    <path d="M481.7,563.96v-9.24h1.43v9.15c0,2.49,1.23,4.15,3.75,4.15,3.32,0,4.69-2.66,4.69-5.86v-7.43h1.43v14.3h-1.32l-.11-2.69c-.8,1.89-2.63,3.09-4.78,3.09-3.23,0-5.09-2.26-5.09-5.46Z"/>
    <path d="M499.23,567.42c-1.17-1.37-1.89-3.32-1.89-5.49,0-1.8,.29-3.57,1.43-5.09,1.23-1.63,2.92-2.52,5-2.52,3.95,0,6.32,3.15,6.32,6.95,0,.34,0,.54-.03,.94h-11.3c.06,3.17,1.92,5.83,5.12,5.83,2.26,0,4.03-1.49,4.38-3.32h1.49c-.43,2.69-3,4.69-5.86,4.69-2.06,0-3.72-.92-4.66-2Zm9.38-6.49c-.06-2.72-1.74-5.26-4.83-5.26s-4.92,2.46-4.98,5.26h9.81Z"/>
    <path d="M514.33,554.73h1.32l.11,2.75c.74-1.97,2.97-3.15,4.98-3.15,3.26,0,5.06,2.17,5.06,5.35v9.35h-1.43v-9.21c0-2.4-1.23-4.09-3.77-4.09-3.17,0-4.83,2.63-4.83,5.8v7.49h-1.43v-14.3Z"/>
    <path d="M532.06,567.71c-1.52-1.52-2.06-3.4-2.06-5.83s.51-4.38,2.06-5.86c1.03-1,2.49-1.69,4.32-1.69,3.03,0,5.35,1.86,5.69,4.83h-1.52c-.31-1.97-1.94-3.43-4.17-3.43-1.4,0-2.52,.46-3.29,1.23-1.34,1.34-1.63,3.03-1.63,4.92s.31,3.55,1.66,4.89c.77,.77,1.89,1.23,3.29,1.23,2.23,0,3.86-1.46,4.17-3.43h1.49c-.37,2.95-2.69,4.83-5.69,4.83-1.83,0-3.29-.66-4.32-1.69Z"/>
    <path d="M544.45,574.6v-1.4c.51,.26,1.14,.43,1.86,.43,1.37,0,2.23-.63,2.89-2.29l.83-2.09-5.83-14.53h1.57l4.95,12.7,4.78-12.7h1.52l-6.55,17.1c-.89,2.32-2.17,3.17-4.06,3.17-.92,0-1.72-.26-1.94-.4Z"/>
    <path d="M566.41,559.79c0-4.46,1.63-9.44,4.72-12.9l.89,.69c-2.8,3.6-4.26,7.52-4.26,12.21s1.46,8.61,4.26,12.21l-.89,.69c-3.09-3.46-4.72-8.44-4.72-12.9Z"/>
    <path d="M577.13,567.25c-2.26-2.17-2.77-5.46-2.77-8.35s.46-6.15,2.77-8.32c1.34-1.26,3.26-2.23,5.55-2.23s4,.66,5.32,1.74c1.37,1.12,2.23,2.69,2.37,4.46h-1.54c-.11-1.23-.6-2.23-1.37-3-1.14-1.14-2.86-1.74-4.75-1.74s-3.32,.66-4.4,1.69c-1.97,1.89-2.37,4.92-2.37,7.41s.37,5.66,2.4,7.46c1.14,1.03,2.6,1.6,4.35,1.6,4.15,0,6.18-2.95,6.18-7.01v-.83h-6.61v-1.46h8.06v10.35h-1.17l-.23-3.35c-.94,2.12-3.26,3.75-6.23,3.75-2.29,0-4.23-.92-5.55-2.17Z"/>
    <path d="M596.95,548.75v8.98h11.15v-8.98h1.49v20.27h-1.49v-9.84h-11.15v9.84h-1.49v-20.27h1.49Z"/>
    <path d="M623.21,556.07h-9.15v-1.34h10.69v1.57l-9.15,11.35h9.24v1.37h-10.78v-1.6l9.15-11.35Z"/>
    <path d="M626.81,572c2.8-3.6,4.26-7.52,4.26-12.21s-1.46-8.61-4.26-12.21l.89-.69c3.09,3.46,4.72,8.44,4.72,12.9s-1.63,9.44-4.72,12.9l-.89-.69Z"/>
  </g>
</svg>