<?xml version="1.0" encoding="UTF-8"?>
<svg id="Ebene_1" data-name="Ebene 1" xmlns="http://www.w3.org/2000/svg" viewBox="0 0 938.15 577.58">
  <g>
    <path id="mcf13d940cf" d="M159.55,26.54c.86,0,1.69-.34,2.29-.95,.61-.61,.95-1.43,.95-2.29s-.34-1.69-.95-2.29c-.61-.61-1.43-.95-2.29-.95s-1.69,.34-2.29,.95c-.61,.61-.95,1.43-.95,2.29s.34,1.69,.95,2.29c.61,.61,1.43,.95,2.29,.95Z" fill="#069" stroke="#069" stroke-linejoin="round" stroke-width="2.6"/>
    <path id="mcf13d940cf-2" data-name="mcf13d940cf" d="M174.66,83.13c.86,0,1.69-.34,2.29-.95,.61-.61,.95-1.43,.95-2.29s-.34-1.69-.95-2.29c-.61-.61-1.43-.95-2.29-.95s-1.69,.34-2.29,.95c-.61,.61-.95,1.43-.95,2.29s.34,1.69,.95,2.29c.61,.61,1.43,.95,2.29,.95Z" fill="#069" stroke="#069" stroke-linejoin="round" stroke-width="2.6"/>
    <path id="mcf13d940cf-3" data-name="mcf13d940cf" d="M189.77,126.17c.86,0,1.69-.34,2.29-.95,.61-.61,.95-1.43,.95-2.29s-.34-1.69-.95-2.29c-.61-.61-1.43-.95-2.29-.95s-1.69,.34-2.29,.95c-.61,.61-.95,1.43-.95,2.29s.34,1.69,.95,2.29c.61,.61,1.43,.95,2.29,.95Z" fill="#069" stroke="#069" stroke-linejoin="round" stroke-width="2.6"/>
    <path id="mcf13d940cf-4" data-name="mcf13d940cf" d="M204.89,202.46c.86,0,1.69-.34,2.29-.95,.61-.61,.95-1.43,.95-2.29s-.34-1.69-.95-2.29c-.61-.61-1.43-.95-2.29-.95s-1.69,.34-2.29,.95c-.61,.61-.95,1.43-.95,2.29s.34,1.69,.95,2.29c.61,.61,1.43,.95,2.29,.95Z" fill="#069" stroke="#069" stroke-linejoin="round" stroke-width="2.6"/>
    <path id="mcf13d940cf-5" data-name="mcf13d940cf" d="M220,241.56c.86,0,1.69-.34,2.29-.95,.61-.61,.95-1.43,.95-2.29s-.34-1.69-.95-2.29c-.61-.61-1.43-.95-2.29-.95s-1.69,.34-2.29,.95c-.61,.61-.95,1.43-.95,2.29s.34,1.69,.95,2.29c.61,.61,1.43,.95,2.29,.95Z" fill="#069" stroke="#069" stroke-linejoin="round" stroke-width="2.6"/>
    <path id="mcf13d940cf-6" data-name="mcf13d940cf" d="M235.11,267.59c.86,0,1.69-.34,2.29-.95,.61-.61,.95-1.43,.95-2.29s-.34-1.69-.95-2.29c-.61-.61-1.43-.95-2.29-.95s-1.69,.34-2.29,.95c-.61,.61-.95,1.43-.95,2.29s.34,1.69,.95,2.29c.61,.61,1.43,.95,2.29,.95Z" fill="#069" stroke="#069" stroke-linejoin="round" stroke-width="2.6"/>
    <path id="mcf13d940cf-7" data-name="mcf13d940cf" d="M250.23,263.39c.86,0,1.69-.34,2.29-.95,.61-.61,.95-1.43,.95-2.29s-.34-1.69-.95-2.29c-.61-.61-1.43-.95-2.29-.95s-1.69,.34-2.29,.95c-.61,.61-.95,1.43-.95,2.29s.34,1.69,.95,2.29c.61,.61,1.43,.95,2.29,.95Z" fill="#069" stroke="#069" stroke-linejoin="round" stroke-width="2.6"/>
    <path id="mcf13d940cf-8" data-name="mcf13d940cf" d="M265.34,304.39c.86,0,1.69-.34,2.29-.95,.61-.61,.95-1.43,.95-2.29s-.34-1.69-.95-2.29c-.61-.61-1.43-.95-2.29-.95s-1.69,.34-2.29,.95c-.61,.61-.95,1.43-.95,2.29s.34,1.69,.95,2.29c.61,.61,1.43,.95,2.29,.95Z" fill="#069" stroke="#069" stroke-linejoin="round" stroke-width="2.6"/>
    <path id="mcf13d940cf-9" data-name="mcf13d940cf" d="M280.45,322.72c.86,0,1.69-.34,2.29-.95,.61-.61,.95-1.43,.95-2.29s-.34-1.69-.95-2.29c-.61-.61-1.43-.95-2.29-.95s-1.69,.34-2.29,.95c-.61,.61-.95,1.43-.95,2.29s.34,1.69,.95,2.29c.61,.61,1.43,.95,2.29,.95Z" fill="#069" stroke="#069" stroke-linejoin="round" stroke-width="2.6"/>
    <path id="mcf13d940cf-10" data-name="mcf13d940cf" d="M295.57,353.7c.86,0,1.69-.34,2.29-.95,.61-.61,.95-1.43,.95-2.29s-.34-1.69-.95-2.29c-.61-.61-1.43-.95-2.29-.95s-1.69,.34-2.29,.95c-.61,.61-.95,1.43-.95,2.29s.34,1.69,.95,2.29c.61,.61,1.43,.95,2.29,.95Z" fill="#069" stroke="#069" stroke-linejoin="round" stroke-width="2.6"/>
    <path id="mcf13d940cf-11" data-name="mcf13d940cf" d="M310.68,365.51c.86,0,1.69-.34,2.29-.95,.61-.61,.95-1.43,.95-2.29s-.34-1.69-.95-2.29c-.61-.61-1.43-.95-2.29-.95s-1.69,.34-2.29,.95c-.61,.61-.95,1.43-.95,2.29s.34,1.69,.95,2.29c.61,.61,1.43,.95,2.29,.95Z" fill="#069" stroke="#069" stroke-linejoin="round" stroke-width="2.6"/>
    <path id="mcf13d940cf-12" data-name="mcf13d940cf" d="M325.8,392.35c.86,0,1.69-.34,2.29-.95,.61-.61,.95-1.43,.95-2.29s-.34-1.69-.95-2.29c-.61-.61-1.43-.95-2.29-.95s-1.69,.34-2.29,.95c-.61,.61-.95,1.43-.95,2.29s.34,1.69,.95,2.29c.61,.61,1.43,.95,2.29,.95Z" fill="#069" stroke="#069" stroke-linejoin="round" stroke-width="2.6"/>
    <path id="mcf13d940cf-13" data-name="mcf13d940cf" d="M340.91,398.56c.86,0,1.69-.34,2.29-.95,.61-.61,.95-1.43,.95-2.29s-.34-1.69-.95-2.29c-.61-.61-1.43-.95-2.29-.95s-1.69,.34-2.29,.95c-.61,.61-.95,1.43-.95,2.29s.34,1.69,.95,2.29c.61,.61,1.43,.95,2.29,.95Z" fill="#069" stroke="#069" stroke-linejoin="round" stroke-width="2.6"/>
    <path id="mcf13d940cf-14" data-name="mcf13d940cf" d="M356.02,405.05c.86,0,1.69-.34,2.29-.95,.61-.61,.95-1.43,.95-2.29s-.34-1.69-.95-2.29c-.61-.61-1.43-.95-2.29-.95s-1.69,.34-2.29,.95c-.61,.61-.95,1.43-.95,2.29s.34,1.69,.95,2.29c.61,.61,1.43,.95,2.29,.95Z" fill="#069" stroke="#069" stroke-linejoin="round" stroke-width="2.6"/>
    <path id="mcf13d940cf-15" data-name="mcf13d940cf" d="M371.14,403.65c.86,0,1.69-.34,2.29-.95,.61-.61,.95-1.43,.95-2.29s-.34-1.69-.95-2.29c-.61-.61-1.43-.95-2.29-.95s-1.69,.34-2.29,.95c-.61,.61-.95,1.43-.95,2.29s.34,1.69,.95,2.29c.61,.61,1.43,.95,2.29,.95Z" fill="#069" stroke="#069" stroke-linejoin="round" stroke-width="2.6"/>
    <path id="mcf13d940cf-16" data-name="mcf13d940cf" d="M386.25,423.68c.86,0,1.69-.34,2.29-.95,.61-.61,.95-1.43,.95-2.29s-.34-1.69-.95-2.29c-.61-.61-1.43-.95-2.29-.95s-1.69,.34-2.29,.95c-.61,.61-.95,1.43-.95,2.29s.34,1.69,.95,2.29c.61,.61,1.43,.95,2.29,.95Z" fill="#069" stroke="#069" stroke-linejoin="round" stroke-width="2.6"/>
    <path id="mcf13d940cf-17" data-name="mcf13d940cf" d="M401.36,410.62c.86,0,1.69-.34,2.29-.95,.61-.61,.95-1.43,.95-2.29s-.34-1.69-.95-2.29c-.61-.61-1.43-.95-2.29-.95s-1.69,.34-2.29,.95c-.61,.61-.95,1.43-.95,2.29s.34,1.69,.95,2.29c.61,.61,1.43,.95,2.29,.95Z" fill="#069" stroke="#069" stroke-linejoin="round" stroke-width="2.6"/>
    <path id="mcf13d940cf-18" data-name="mcf13d940cf" d="M416.48,420.89c.86,0,1.69-.34,2.29-.95,.61-.61,.95-1.43,.95-2.29s-.34-1.69-.95-2.29c-.61-.61-1.43-.95-2.29-.95s-1.69,.34-2.29,.95c-.61,.61-.95,1.43-.95,2.29s.34,1.69,.95,2.29c.61,.61,1.43,.95,2.29,.95Z" fill="#069" stroke="#069" stroke-linejoin="round" stroke-width="2.6"/>
    <path id="mcf13d940cf-19" data-name="mcf13d940cf" d="M431.59,435.93c.86,0,1.69-.34,2.29-.95,.61-.61,.95-1.43,.95-2.29s-.34-1.69-.95-2.29c-.61-.61-1.43-.95-2.29-.95s-1.69,.34-2.29,.95c-.61,.61-.95,1.43-.95,2.29s.34,1.69,.95,2.29c.61,.61,1.43,.95,2.29,.95Z" fill="#069" stroke="#069" stroke-linejoin="round" stroke-width="2.6"/>
    <path id="mcf13d940cf-20" data-name="mcf13d940cf" d="M446.7,423.92c.86,0,1.69-.34,2.29-.95,.61-.61,.95-1.43,.95-2.29s-.34-1.69-.95-2.29c-.61-.61-1.43-.95-2.29-.95s-1.69,.34-2.29,.95c-.61,.61-.95,1.43-.95,2.29s.34,1.69,.95,2.29c.61,.61,1.43,.95,2.29,.95Z" fill="#069" stroke="#069" stroke-linejoin="round" stroke-width="2.6"/>
    <path id="mcf13d940cf-21" data-name="mcf13d940cf" d="M461.82,431.22c.86,0,1.69-.34,2.29-.95,.61-.61,.95-1.43,.95-2.29s-.34-1.69-.95-2.29c-.61-.61-1.43-.95-2.29-.95s-1.69,.34-2.29,.95c-.61,.61-.95,1.43-.95,2.29s.34,1.69,.95,2.29c.61,.61,1.43,.95,2.29,.95Z" fill="#069" stroke="#069" stroke-linejoin="round" stroke-width="2.6"/>
    <path id="mcf13d940cf-22" data-name="mcf13d940cf" d="M476.93,443.78c.86,0,1.69-.34,2.29-.95,.61-.61,.95-1.43,.95-2.29s-.34-1.69-.95-2.29c-.61-.61-1.43-.95-2.29-.95s-1.69,.34-2.29,.95c-.61,.61-.95,1.43-.95,2.29s.34,1.69,.95,2.29c.61,.61,1.43,.95,2.29,.95Z" fill="#069" stroke="#069" stroke-linejoin="round" stroke-width="2.6"/>
    <path id="mcf13d940cf-23" data-name="mcf13d940cf" d="M492.05,451.32c.86,0,1.69-.34,2.29-.95,.61-.61,.95-1.43,.95-2.29s-.34-1.69-.95-2.29c-.61-.61-1.43-.95-2.29-.95s-1.69,.34-2.29,.95c-.61,.61-.95,1.43-.95,2.29s.34,1.69,.95,2.29c.61,.61,1.43,.95,2.29,.95Z" fill="#069" stroke="#069" stroke-linejoin="round" stroke-width="2.6"/>
    <path id="mcf13d940cf-24" data-name="mcf13d940cf" d="M507.16,444.48c.86,0,1.69-.34,2.29-.95,.61-.61,.95-1.43,.95-2.29s-.34-1.69-.95-2.29c-.61-.61-1.43-.95-2.29-.95s-1.69,.34-2.29,.95c-.61,.61-.95,1.43-.95,2.29s.34,1.69,.95,2.29c.61,.61,1.43,.95,2.29,.95Z" fill="#069" stroke="#069" stroke-linejoin="round" stroke-width="2.6"/>
    <path id="mcf13d940cf-25" data-name="mcf13d940cf" d="M522.27,455.97c.86,0,1.69-.34,2.29-.95,.61-.61,.95-1.43,.95-2.29s-.34-1.69-.95-2.29c-.61-.61-1.43-.95-2.29-.95s-1.69,.34-2.29,.95c-.61,.61-.95,1.43-.95,2.29s.34,1.69,.95,2.29c.61,.61,1.43,.95,2.29,.95Z" fill="#069" stroke="#069" stroke-linejoin="round" stroke-width="2.6"/>
    <path id="mcf13d940cf-26" data-name="mcf13d940cf" d="M537.39,455.04c.86,0,1.69-.34,2.29-.95,.61-.61,.95-1.43,.95-2.29s-.34-1.69-.95-2.29c-.61-.61-1.43-.95-2.29-.95s-1.69,.34-2.29,.95c-.61,.61-.95,1.43-.95,2.29s.34,1.69,.95,2.29c.61,.61,1.43,.95,2.29,.95Z" fill="#069" stroke="#069" stroke-linejoin="round" stroke-width="2.6"/>
    <path id="mcf13d940cf-27" data-name="mcf13d940cf" d="M552.5,450.3c.86,0,1.69-.34,2.29-.95,.61-.61,.95-1.43,.95-2.29s-.34-1.69-.95-2.29c-.61-.61-1.43-.95-2.29-.95s-1.69,.34-2.29,.95c-.61,.61-.95,1.43-.95,2.29s.34,1.69,.95,2.29c.61,.61,1.43,.95,2.29,.95Z" fill="#069" stroke="#069" stroke-linejoin="round" stroke-width="2.6"/>
    <path id="mcf13d940cf-28" data-name="mcf13d940cf" d="M567.61,451.49c.86,0,1.69-.34,2.29-.95,.61-.61,.95-1.43,.95-2.29s-.34-1.69-.95-2.29c-.61-.61-1.43-.95-2.29-.95s-1.69,.34-2.29,.95c-.61,.61-.95,1.43-.95,2.29s.34,1.69,.95,2.29c.61,.61,1.43,.95,2.29,.95Z" fill="#069" stroke="#069" stroke-linejoin="round" stroke-width="2.6"/>
    <path id="mcf13d940cf-29" data-name="mcf13d940cf" d="M582.73,459.25c.86,0,1.69-.34,2.29-.95,.61-.61,.95-1.43,.95-2.29s-.34-1.69-.95-2.29c-.61-.61-1.43-.95-2.29-.95s-1.69,.34-2.29,.95c-.61,.61-.95,1.43-.95,2.29s.34,1.69,.95,2.29c.61,.61,1.43,.95,2.29,.95Z" fill="#069" stroke="#069" stroke-linejoin="round" stroke-width="2.6"/>
    <path id="mcf13d940cf-30" data-name="mcf13d940cf" d="M597.84,456.67c.86,0,1.69-.34,2.29-.95,.61-.61,.95-1.43,.95-2.29s-.34-1.69-.95-2.29c-.61-.61-1.43-.95-2.29-.95s-1.69,.34-2.29,.95c-.61,.61-.95,1.43-.95,2.29s.34,1.69,.95,2.29c.61,.61,1.43,.95,2.29,.95Z" fill="#069" stroke="#069" stroke-linejoin="round" stroke-width="2.6"/>
    <path id="mcf13d940cf-31" data-name="mcf13d940cf" d="M612.95,457.77c.86,0,1.69-.34,2.29-.95,.61-.61,.95-1.43,.95-2.29s-.34-1.69-.95-2.29c-.61-.61-1.43-.95-2.29-.95s-1.69,.34-2.29,.95c-.61,.61-.95,1.43-.95,2.29s.34,1.69,.95,2.29c.61,.61,1.43,.95,2.29,.95Z" fill="#069" stroke="#069" stroke-linejoin="round" stroke-width="2.6"/>
    <path id="mcf13d940cf-32" data-name="mcf13d940cf" d="M628.07,464.27c.86,0,1.69-.34,2.29-.95,.61-.61,.95-1.43,.95-2.29s-.34-1.69-.95-2.29c-.61-.61-1.43-.95-2.29-.95s-1.69,.34-2.29,.95c-.61,.61-.95,1.43-.95,2.29s.34,1.69,.95,2.29c.61,.61,1.43,.95,2.29,.95Z" fill="#069" stroke="#069" stroke-linejoin="round" stroke-width="2.6"/>
    <path id="mcf13d940cf-33" data-name="mcf13d940cf" d="M643.18,452.28c.86,0,1.69-.34,2.29-.95,.61-.61,.95-1.43,.95-2.29s-.34-1.69-.95-2.29c-.61-.61-1.43-.95-2.29-.95s-1.69,.34-2.29,.95c-.61,.61-.95,1.43-.95,2.29s.34,1.69,.95,2.29c.61,.61,1.43,.95,2.29,.95Z" fill="#069" stroke="#069" stroke-linejoin="round" stroke-width="2.6"/>
    <path id="mcf13d940cf-34" data-name="mcf13d940cf" d="M658.3,457.73c.86,0,1.69-.34,2.29-.95,.61-.61,.95-1.43,.95-2.29s-.34-1.69-.95-2.29c-.61-.61-1.43-.95-2.29-.95s-1.69,.34-2.29,.95c-.61,.61-.95,1.43-.95,2.29s.34,1.69,.95,2.29c.61,.61,1.43,.95,2.29,.95Z" fill="#069" stroke="#069" stroke-linejoin="round" stroke-width="2.6"/>
    <path id="mcf13d940cf-35" data-name="mcf13d940cf" d="M673.41,454.47c.86,0,1.69-.34,2.29-.95,.61-.61,.95-1.43,.95-2.29s-.34-1.69-.95-2.29c-.61-.61-1.43-.95-2.29-.95s-1.69,.34-2.29,.95c-.61,.61-.95,1.43-.95,2.29s.34,1.69,.95,2.29c.61,.61,1.43,.95,2.29,.95Z" fill="#069" stroke="#069" stroke-linejoin="round" stroke-width="2.6"/>
    <path id="mcf13d940cf-36" data-name="mcf13d940cf" d="M688.52,456.81c.86,0,1.69-.34,2.29-.95,.61-.61,.95-1.43,.95-2.29s-.34-1.69-.95-2.29c-.61-.61-1.43-.95-2.29-.95s-1.69,.34-2.29,.95c-.61,.61-.95,1.43-.95,2.29s.34,1.69,.95,2.29c.61,.61,1.43,.95,2.29,.95Z" fill="#069" stroke="#069" stroke-linejoin="round" stroke-width="2.6"/>
    <path id="mcf13d940cf-37" data-name="mcf13d940cf" d="M703.64,458.28c.86,0,1.69-.34,2.29-.95,.61-.61,.95-1.43,.95-2.29s-.34-1.69-.95-2.29c-.61-.61-1.43-.95-2.29-.95s-1.69,.34-2.29,.95c-.61,.61-.95,1.43-.95,2.29s.34,1.69,.95,2.29c.61,.61,1.43,.95,2.29,.95Z" fill="#069" stroke="#069" stroke-linejoin="round" stroke-width="2.6"/>
    <path id="mcf13d940cf-38" data-name="mcf13d940cf" d="M718.75,468.87c.86,0,1.69-.34,2.29-.95,.61-.61,.95-1.43,.95-2.29s-.34-1.69-.95-2.29c-.61-.61-1.43-.95-2.29-.95s-1.69,.34-2.29,.95c-.61,.61-.95,1.43-.95,2.29s.34,1.69,.95,2.29c.61,.61,1.43,.95,2.29,.95Z" fill="#069" stroke="#069" stroke-linejoin="round" stroke-width="2.6"/>
    <path id="mcf13d940cf-39" data-name="mcf13d940cf" d="M733.86,458.1c.86,0,1.69-.34,2.29-.95,.61-.61,.95-1.43,.95-2.29s-.34-1.69-.95-2.29c-.61-.61-1.43-.95-2.29-.95s-1.69,.34-2.29,.95c-.61,.61-.95,1.43-.95,2.29s.34,1.69,.95,2.29c.61,.61,1.43,.95,2.29,.95Z" fill="#069" stroke="#069" stroke-linejoin="round" stroke-width="2.6"/>
    <path id="mcf13d940cf-40" data-name="mcf13d940cf" d="M748.98,458.61c.86,0,1.69-.34,2.29-.95,.61-.61,.95-1.43,.95-2.29s-.34-1.69-.95-2.29c-.61-.61-1.43-.95-2.29-.95s-1.69,.34-2.29,.95c-.61,.61-.95,1.43-.95,2.29s.34,1.69,.95,2.29c.61,.61,1.43,.95,2.29,.95Z" fill="#069" stroke="#069" stroke-linejoin="round" stroke-width="2.6"/>
    <path id="mcf13d940cf-41" data-name="mcf13d940cf" d="M764.09,462.69c.86,0,1.69-.34,2.29-.95,.61-.61,.95-1.43,.95-2.29s-.34-1.69-.95-2.29c-.61-.61-1.43-.95-2.29-.95s-1.69,.34-2.29,.95c-.61,.61-.95,1.43-.95,2.29s.34,1.69,.95,2.29c.61,.61,1.43,.95,2.29,.95Z" fill="#069" stroke="#069" stroke-linejoin="round" stroke-width="2.6"/>
    <path id="mcf13d940cf-42" data-name="mcf13d940cf" d="M779.2,450.88c.86,0,1.69-.34,2.29-.95,.61-.61,.95-1.43,.95-2.29s-.34-1.69-.95-2.29c-.61-.61-1.43-.95-2.29-.95s-1.69,.34-2.29,.95c-.61,.61-.95,1.43-.95,2.29s.34,1.69,.95,2.29c.61,.61,1.43,.95,2.29,.95Z" fill="#069" stroke="#069" stroke-linejoin="round" stroke-width="2.6"/>
    <path id="mcf13d940cf-43" data-name="mcf13d940cf" d="M794.32,452.36c.86,0,1.69-.34,2.29-.95,.61-.61,.95-1.43,.95-2.29s-.34-1.69-.95-2.29c-.61-.61-1.43-.95-2.29-.95s-1.69,.34-2.29,.95c-.61,.61-.95,1.43-.95,2.29s.34,1.69,.95,2.29c.61,.61,1.43,.95,2.29,.95Z" fill="#069" stroke="#069" stroke-linejoin="round" stroke-width="2.6"/>
    <path id="mcf13d940cf-44" data-name="mcf13d940cf" d="M809.43,461.9c.86,0,1.69-.34,2.29-.95,.61-.61,.95-1.43,.95-2.29s-.34-1.69-.95-2.29c-.61-.61-1.43-.95-2.29-.95s-1.69,.34-2.29,.95c-.61,.61-.95,1.43-.95,2.29s.34,1.69,.95,2.29c.61,.61,1.43,.95,2.29,.95Z" fill="#069" stroke="#069" stroke-linejoin="round" stroke-width="2.6"/>
    <path id="mcf13d940cf-45" data-name="mcf13d940cf" d="M824.55,462.14c.86,0,1.69-.34,2.29-.95,.61-.61,.95-1.43,.95-2.29s-.34-1.69-.95-2.29c-.61-.61-1.43-.95-2.29-.95s-1.69,.34-2.29,.95c-.61,.61-.95,1.43-.95,2.29s.34,1.69,.95,2.29c.61,.61,1.43,.95,2.29,.95Z" fill="#069" stroke="#069" stroke-linejoin="round" stroke-width="2.6"/>
    <path id="mcf13d940cf-46" data-name="mcf13d940cf" d="M839.66,464.93c.86,0,1.69-.34,2.29-.95,.61-.61,.95-1.43,.95-2.29s-.34-1.69-.95-2.29c-.61-.61-1.43-.95-2.29-.95s-1.69,.34-2.29,.95c-.61,.61-.95,1.43-.95,2.29s.34,1.69,.95,2.29c.61,.61,1.43,.95,2.29,.95Z" fill="#069" stroke="#069" stroke-linejoin="round" stroke-width="2.6"/>
    <path id="mcf13d940cf-47" data-name="mcf13d940cf" d="M854.77,465.05c.86,0,1.69-.34,2.29-.95,.61-.61,.95-1.43,.95-2.29s-.34-1.69-.95-2.29c-.61-.61-1.43-.95-2.29-.95s-1.69,.34-2.29,.95c-.61,.61-.95,1.43-.95,2.29s.34,1.69,.95,2.29c.61,.61,1.43,.95,2.29,.95Z" fill="#069" stroke="#069" stroke-linejoin="round" stroke-width="2.6"/>
    <path id="mcf13d940cf-48" data-name="mcf13d940cf" d="M869.89,452.85c.86,0,1.69-.34,2.29-.95,.61-.61,.95-1.43,.95-2.29s-.34-1.69-.95-2.29c-.61-.61-1.43-.95-2.29-.95s-1.69,.34-2.29,.95c-.61,.61-.95,1.43-.95,2.29s.34,1.69,.95,2.29c.61,.61,1.43,.95,2.29,.95Z" fill="#069" stroke="#069" stroke-linejoin="round" stroke-width="2.6"/>
    <path id="mcf13d940cf-49" data-name="mcf13d940cf" d="M885,443.3c.86,0,1.69-.34,2.29-.95,.61-.61,.95-1.43,.95-2.29s-.34-1.69-.95-2.29c-.61-.61-1.43-.95-2.29-.95s-1.69,.34-2.29,.95c-.61,.61-.95,1.43-.95,2.29s.34,1.69,.95,2.29c.61,.61,1.43,.95,2.29,.95Z" fill="#069" stroke="#069" stroke-linejoin="round" stroke-width="2.6"/>
    <path id="mcf13d940cf-50" data-name="mcf13d940cf" d="M900.11,472.43c.86,0,1.69-.34,2.29-.95,.61-.61,.95-1.43,.95-2.29s-.34-1.69-.95-2.29c-.61-.61-1.43-.95-2.29-.95s-1.69,.34-2.29,.95c-.61,.61-.95,1.43-.95,2.29s.34,1.69,.95,2.29c.61,.61,1.43,.95,2.29,.95Z" fill="#069" stroke="#069" stroke-linejoin="round" stroke-width="2.6"/>
  </g>
  <path d="M159.55,59.32l8.92,31.76,8.92,29.22,8.92,26.88,8.92,24.72,8.92,22.74,8.92,20.92,8.92,19.24,8.92,17.7,8.92,16.28,8.92,14.98,8.92,13.78,8.92,12.68,8.92,11.66,8.92,10.73,8.92,9.87,8.92,9.08,8.92,8.35,8.92,7.68,8.92,7.06,8.92,6.5,8.92,5.98,8.92,5.5,8.92,5.06,11.9,6.12,11.9,5.47,11.9,4.9,11.9,4.38,11.9,3.92,14.87,4.32,14.87,3.76,14.87,3.27,17.85,3.37,17.85,2.85,20.82,2.78,20.82,2.29,23.79,2.12,26.77,1.89,29.74,1.61,35.69,1.42,41.64,1.16,50.56,.92,68.41,.72,77.33,.41h0" fill="none" stroke="red" stroke-linecap="square" stroke-linejoin="round" stroke-width="4"/>
  <rect x="122.49" y="1" width="814.66" height="490.49" fill="none" stroke="#000" stroke-linecap="square" stroke-linejoin="round" stroke-width="2"/>
  <g>
    <path d="M80.02,15.3v-1.6l5.43-3.86h1.29V29.65h-1.43V11.61l-5.29,3.69Z"/>
    <path d="M94.66,27.08v2.57h-2.52v-2.57h2.52Z"/>
    <path d="M98.78,28.11l8.26-8.92c1.32-1.43,1.97-2.86,1.97-4.35,0-2.35-1.6-4.03-4.32-4.03s-4.43,1.86-4.43,5.09h-1.52c0-4,2.43-6.46,5.95-6.46,3.26,0,5.75,2.09,5.75,5.4,0,1.77-.86,3.66-2.29,5.18l-7.75,8.26h10.55v1.37h-12.18v-1.54Z"/>
  </g>
  <line x1="122.49" y1="22.32" x2="129.68" y2="22.32" fill="none" stroke="#000" stroke-linecap="round" stroke-linejoin="round" stroke-width="2"/>
  <g>
    <path d="M78.16,94.58v-1.6l5.43-3.86h1.29v19.82h-1.43v-18.04l-5.29,3.69Z"/>
    <path d="M92.8,106.36v2.57h-2.52v-2.57h2.52Z"/>
    <path d="M99.61,107.71c-2.15-1.97-2.46-5.55-2.46-8.69s.31-6.69,2.46-8.66c.97-.89,2.32-1.63,4.23-1.63s3.29,.71,4.23,1.63c2.12,2.03,2.46,5.55,2.46,8.66s-.31,6.72-2.46,8.69c-.94,.89-2.32,1.63-4.23,1.63s-3.26-.74-4.23-1.63Zm7.52-.92c1.86-1.74,1.97-5.18,1.97-7.78s-.09-6-1.97-7.75c-.77-.71-1.8-1.17-3.29-1.17s-2.52,.49-3.26,1.17c-1.89,1.74-1.97,5.18-1.97,7.75s.09,6.03,1.97,7.78c.74,.69,1.8,1.17,3.26,1.17s2.54-.46,3.29-1.17Z"/>
  </g>
  <line x1="122.49" y1="101.6" x2="129.68" y2="101.6" fill="none" stroke="#000" stroke-linecap="round" stroke-linejoin="round" stroke-width="2"/>
  <g>
    <path d="M75.47,186.99c-2.14-1.97-2.46-5.55-2.46-8.69s.31-6.69,2.46-8.66c.97-.89,2.32-1.63,4.23-1.63s3.29,.71,4.23,1.63c2.12,2.03,2.46,5.55,2.46,8.66s-.31,6.72-2.46,8.69c-.94,.89-2.32,1.63-4.23,1.63s-3.26-.74-4.23-1.63Zm7.52-.92c1.86-1.74,1.97-5.18,1.97-7.78s-.09-6-1.97-7.75c-.77-.71-1.8-1.17-3.29-1.17s-2.52,.49-3.26,1.17c-1.89,1.74-1.97,5.18-1.97,7.75s.09,6.03,1.97,7.78c.74,.69,1.8,1.17,3.26,1.17s2.54-.46,3.29-1.17Z"/>
    <path d="M93.26,185.65v2.57h-2.52v-2.57h2.52Z"/>
    <path d="M97.49,182.99c0-2.23,1.43-4.38,3.69-5.12-1.94-.71-3.23-2.6-3.23-4.58,0-3.32,2.72-5.29,6.12-5.29s6.12,1.97,6.12,5.29c0,1.97-1.29,3.86-3.23,4.58,2.26,.74,3.69,2.89,3.69,5.12,0,3.55-3.03,5.63-6.58,5.63s-6.58-2.09-6.58-5.63Zm11.7-.09c0-2.83-2.29-4.4-5.12-4.4s-5.12,1.57-5.12,4.4,2.29,4.4,5.12,4.4,5.12-1.57,5.12-4.4Zm-.49-9.67c0-2.54-2.09-3.95-4.63-3.95s-4.63,1.4-4.63,3.95,2.03,4,4.63,4,4.63-1.4,4.63-4Z"/>
  </g>
  <line x1="122.49" y1="180.89" x2="129.68" y2="180.89" fill="none" stroke="#000" stroke-linecap="round" stroke-linejoin="round" stroke-width="2"/>
  <g>
    <path d="M75.44,266.28c-2.14-1.97-2.46-5.55-2.46-8.69s.31-6.69,2.46-8.66c.97-.89,2.32-1.63,4.23-1.63s3.29,.71,4.23,1.63c2.12,2.03,2.46,5.55,2.46,8.66s-.31,6.72-2.46,8.69c-.94,.89-2.32,1.63-4.23,1.63s-3.26-.74-4.23-1.63Zm7.52-.92c1.86-1.74,1.97-5.18,1.97-7.78s-.09-6-1.97-7.75c-.77-.71-1.8-1.17-3.29-1.17s-2.52,.49-3.26,1.17c-1.89,1.74-1.97,5.18-1.97,7.75s.09,6.03,1.97,7.78c.74,.69,1.8,1.17,3.26,1.17s2.54-.46,3.29-1.17Z"/>
    <path d="M93.23,264.93v2.57h-2.52v-2.57h2.52Z"/>
    <path d="M99.38,265.48c-1.52-2.03-1.83-5.06-1.83-7.89,0-3.03,.4-6.32,2.34-8.41,.94-1,2.43-1.89,4.49-1.89,3.35,0,5.75,2.06,5.92,5.18h-1.46c-.2-2.29-1.72-3.8-4.46-3.8-4.43,0-5.35,4.78-5.35,9.49,.71-2.09,2.89-3.49,5.23-3.49,4.12,0,6.49,2.66,6.49,6.58,0,3.66-2.34,6.66-6.46,6.66-2.32,0-3.97-1.17-4.92-2.43Zm9.92-4.23c0-2.75-1.57-5.26-5-5.26-2.86,0-4.86,2.32-4.86,5.2s1.72,5.35,4.89,5.35c3.43,0,4.98-2.52,4.98-5.29Z"/>
  </g>
  <line x1="122.49" y1="260.18" x2="129.68" y2="260.18" fill="none" stroke="#000" stroke-linecap="round" stroke-linejoin="round" stroke-width="2"/>
  <g>
    <path d="M76.87,424.85c-2.14-1.97-2.46-5.55-2.46-8.69s.31-6.69,2.46-8.66c.97-.89,2.32-1.63,4.23-1.63s3.29,.71,4.23,1.63c2.12,2.03,2.46,5.55,2.46,8.66s-.31,6.72-2.46,8.69c-.94,.89-2.32,1.63-4.23,1.63s-3.26-.74-4.23-1.63Zm7.52-.92c1.86-1.74,1.97-5.18,1.97-7.78s-.09-6-1.97-7.75c-.77-.71-1.8-1.17-3.29-1.17s-2.52,.49-3.26,1.17c-1.89,1.74-1.97,5.18-1.97,7.75s.09,6.03,1.97,7.78c.74,.69,1.8,1.17,3.26,1.17s2.54-.46,3.29-1.17Z"/>
    <path d="M94.66,423.51v2.57h-2.52v-2.57h2.52Z"/>
    <path d="M98.78,424.54l8.26-8.92c1.32-1.43,1.97-2.86,1.97-4.35,0-2.35-1.6-4.03-4.32-4.03s-4.43,1.86-4.43,5.09h-1.52c0-4,2.43-6.46,5.95-6.46,3.26,0,5.75,2.09,5.75,5.4,0,1.77-.86,3.66-2.29,5.18l-7.75,8.26h10.55v1.37h-12.18v-1.54Z"/>
  </g>
  <line x1="122.49" y1="418.75" x2="129.68" y2="418.75" fill="none" stroke="#000" stroke-linecap="round" stroke-linejoin="round" stroke-width="2"/>
  <g>
    <path d="M76.13,345.56c-2.15-1.97-2.46-5.55-2.46-8.69s.31-6.69,2.46-8.66c.97-.89,2.32-1.63,4.23-1.63s3.29,.71,4.23,1.63c2.12,2.03,2.46,5.55,2.46,8.66s-.31,6.72-2.46,8.69c-.94,.89-2.32,1.63-4.23,1.63s-3.26-.74-4.23-1.63Zm7.52-.92c1.86-1.74,1.97-5.18,1.97-7.78s-.09-6-1.97-7.75c-.77-.71-1.8-1.17-3.29-1.17s-2.52,.49-3.26,1.17c-1.89,1.74-1.97,5.18-1.97,7.75s.09,6.03,1.97,7.78c.74,.69,1.8,1.17,3.26,1.17s2.54-.46,3.29-1.17Z"/>
    <path d="M93.91,344.22v2.57h-2.52v-2.57h2.52Z"/>
    <path d="M107.13,342.13h-9.89v-1.72l8.58-13.44h1.69l-8.81,13.73h8.44v-6.55h1.46v6.55h2.95v1.43h-2.95v4.66h-1.46v-4.66Z"/>
  </g>
  <line x1="122.49" y1="339.46" x2="129.68" y2="339.46" fill="none" stroke="#000" stroke-linecap="round" stroke-linejoin="round" stroke-width="2"/>
  <g>
    <path d="M18.06,276.61v9.61l6.38,2.43v1.57l-20.27-7.86v-1.8l20.27-7.95v1.54l-6.38,2.46Zm-1.37,.54l-11.15,4.32,11.15,4.23v-8.55Z"/>
    <path d="M15.2,263.51c-4.46,0-9.44-1.63-12.9-4.72l.69-.89c3.6,2.8,7.52,4.26,12.21,4.26s8.61-1.46,12.21-4.26l.69,.89c-3.46,3.09-8.44,4.72-12.9,4.72Z"/>
    <path d="M20.46,255.85c-2.54,0-4.12-1.94-4.32-4.8l-.37-5.26h-1.26c-2.4,0-3.43,1.74-3.43,3.95s1.03,3.92,3.17,4.06v1.43c-2.95-.2-4.52-2.57-4.52-5.43,0-3.26,1.6-5.43,4.89-5.43h7.06c.97,0,1.54-.14,1.54-1.12,0-.11,0-.29-.03-.4h1.26c.06,.2,.09,.46,.09,.69,0,1.77-1.34,2.26-2.86,2.26,2.03,.77,3.15,2.95,3.15,5.15,0,2.77-1.69,4.92-4.38,4.92Zm-2.63-10.07h-.74l.31,5.12c.14,2.2,1.34,3.49,3.03,3.49,2,0,3.09-1.54,3.09-3.57,0-3.6-2.92-5.03-5.69-5.03Z"/>
    <path d="M21.86,236.66h2.57v2.52h-2.57v-2.52Z"/>
    <path d="M19.38,231.71H10.14v-1.43h9.15c2.49,0,4.15-1.23,4.15-3.75,0-3.32-2.66-4.69-5.86-4.69h-7.43v-1.43h14.3v1.32l-2.69,.11c1.89,.8,3.09,2.63,3.09,4.78,0,3.23-2.26,5.09-5.46,5.09Z"/>
    <path d="M21.86,212.78h2.57v2.52h-2.57v-2.52Z"/>
    <path d="M27.41,209.74c-3.6-2.8-7.52-4.26-12.21-4.26s-8.61,1.46-12.21,4.26l-.69-.89c3.46-3.09,8.44-4.72,12.9-4.72s9.44,1.63,12.9,4.72l-.69,.89Z"/>
  </g>
  <line x1="159.49" y1="491.49" x2="159.49" y2="484.3" fill="none" stroke="#000" stroke-linecap="round" stroke-linejoin="round" stroke-width="2"/>
  <g>
    <path d="M115.75,520.41c-1.84-1.7-2.12-4.77-2.12-7.48s.27-5.76,2.12-7.45c.84-.76,1.99-1.4,3.64-1.4s2.83,.61,3.64,1.4c1.82,1.75,2.12,4.77,2.12,7.45s-.27,5.78-2.12,7.48c-.81,.76-1.99,1.4-3.64,1.4s-2.8-.64-3.64-1.4Zm6.47-.79c1.6-1.5,1.7-4.45,1.7-6.69s-.07-5.17-1.7-6.67c-.66-.62-1.55-1.01-2.83-1.01s-2.16,.42-2.8,1.01c-1.62,1.5-1.7,4.45-1.7,6.67s.07,5.19,1.7,6.69c.64,.59,1.55,1.01,2.8,1.01s2.19-.39,2.83-1.01Z"/>
    <path d="M131.05,519.25v2.21h-2.16v-2.21h2.16Z"/>
    <path d="M136.9,520.41c-1.84-1.7-2.12-4.77-2.12-7.48s.27-5.76,2.12-7.45c.84-.76,1.99-1.4,3.64-1.4s2.83,.61,3.64,1.4c1.82,1.75,2.12,4.77,2.12,7.45s-.27,5.78-2.12,7.48c-.81,.76-1.99,1.4-3.64,1.4s-2.8-.64-3.64-1.4Zm6.47-.79c1.6-1.5,1.7-4.45,1.7-6.69s-.07-5.17-1.7-6.67c-.66-.62-1.55-1.01-2.83-1.01s-2.16,.42-2.8,1.01c-1.62,1.5-1.7,4.45-1.7,6.67s.07,5.19,1.7,6.69c.64,.59,1.55,1.01,2.8,1.01s2.19-.39,2.83-1.01Z"/>
    <path d="M151.66,520.41c-1.84-1.7-2.12-4.77-2.12-7.48s.27-5.76,2.12-7.45c.84-.76,1.99-1.4,3.64-1.4s2.83,.61,3.64,1.4c1.82,1.75,2.12,4.77,2.12,7.45s-.27,5.78-2.12,7.48c-.81,.76-1.99,1.4-3.64,1.4s-2.8-.64-3.64-1.4Zm6.47-.79c1.6-1.5,1.7-4.45,1.7-6.69s-.07-5.17-1.7-6.67c-.66-.62-1.55-1.01-2.83-1.01s-2.16,.42-2.8,1.01c-1.62,1.5-1.7,4.45-1.7,6.67s.07,5.19,1.7,6.69c.64,.59,1.55,1.01,2.8,1.01s2.19-.39,2.83-1.01Z"/>
    <path d="M166.42,520.41c-1.84-1.7-2.12-4.77-2.12-7.48s.27-5.76,2.12-7.45c.84-.76,1.99-1.4,3.64-1.4s2.83,.61,3.64,1.4c1.82,1.75,2.12,4.77,2.12,7.45s-.27,5.78-2.12,7.48c-.81,.76-1.99,1.4-3.64,1.4s-2.8-.64-3.64-1.4Zm6.47-.79c1.6-1.5,1.7-4.45,1.7-6.69s-.07-5.17-1.7-6.67c-.66-.62-1.55-1.01-2.83-1.01s-2.16,.42-2.8,1.01c-1.62,1.5-1.7,4.45-1.7,6.67s.07,5.19,1.7,6.69c.64,.59,1.55,1.01,2.8,1.01s2.19-.39,2.83-1.01Z"/>
    <path d="M181.18,520.41c-1.84-1.7-2.12-4.77-2.12-7.48s.27-5.76,2.12-7.45c.84-.76,1.99-1.4,3.64-1.4s2.83,.61,3.64,1.4c1.82,1.75,2.12,4.77,2.12,7.45s-.27,5.78-2.12,7.48c-.81,.76-1.99,1.4-3.64,1.4s-2.8-.64-3.64-1.4Zm6.47-.79c1.6-1.5,1.7-4.45,1.7-6.69s-.07-5.17-1.7-6.67c-.66-.62-1.55-1.01-2.83-1.01s-2.17,.42-2.8,1.01c-1.62,1.5-1.7,4.45-1.7,6.67s.07,5.19,1.7,6.69c.64,.59,1.55,1.01,2.8,1.01s2.19-.39,2.83-1.01Z"/>
    <path d="M195.94,520.41c-1.84-1.7-2.12-4.77-2.12-7.48s.27-5.76,2.12-7.45c.84-.76,1.99-1.4,3.64-1.4s2.83,.61,3.64,1.4c1.82,1.75,2.12,4.77,2.12,7.45s-.27,5.78-2.12,7.48c-.81,.76-1.99,1.4-3.64,1.4s-2.8-.64-3.64-1.4Zm6.47-.79c1.6-1.5,1.7-4.45,1.7-6.69s-.07-5.17-1.7-6.67c-.66-.62-1.55-1.01-2.83-1.01s-2.17,.42-2.8,1.01c-1.62,1.5-1.7,4.45-1.7,6.67s.07,5.19,1.7,6.69c.64,.59,1.55,1.01,2.8,1.01s2.19-.39,2.83-1.01Z"/>
  </g>
  <line x1="273.48" y1="491.49" x2="273.48" y2="484.3" fill="none" stroke="#000" stroke-linecap="round" stroke-linejoin="round" stroke-width="2"/>
  <g>
    <path d="M230.54,520.41c-1.84-1.7-2.12-4.77-2.12-7.48s.27-5.76,2.12-7.45c.84-.76,1.99-1.4,3.64-1.4s2.83,.61,3.64,1.4c1.82,1.75,2.12,4.77,2.12,7.45s-.27,5.78-2.12,7.48c-.81,.76-1.99,1.4-3.64,1.4s-2.8-.64-3.64-1.4Zm6.47-.79c1.6-1.5,1.7-4.45,1.7-6.69s-.07-5.17-1.7-6.67c-.66-.62-1.55-1.01-2.83-1.01s-2.17,.42-2.8,1.01c-1.62,1.5-1.7,4.45-1.7,6.67s.07,5.19,1.7,6.69c.64,.59,1.55,1.01,2.8,1.01s2.19-.39,2.83-1.01Z"/>
    <path d="M245.84,519.25v2.21h-2.16v-2.21h2.16Z"/>
    <path d="M251.69,520.41c-1.84-1.7-2.12-4.77-2.12-7.48s.27-5.76,2.12-7.45c.84-.76,1.99-1.4,3.64-1.4s2.83,.61,3.64,1.4c1.82,1.75,2.12,4.77,2.12,7.45s-.27,5.78-2.12,7.48c-.81,.76-1.99,1.4-3.64,1.4s-2.8-.64-3.64-1.4Zm6.47-.79c1.6-1.5,1.7-4.45,1.7-6.69s-.07-5.17-1.7-6.67c-.66-.62-1.55-1.01-2.83-1.01s-2.17,.42-2.8,1.01c-1.62,1.5-1.7,4.45-1.7,6.67s.07,5.19,1.7,6.69c.64,.59,1.55,1.01,2.8,1.01s2.19-.39,2.83-1.01Z"/>
    <path d="M266.45,520.41c-1.84-1.7-2.12-4.77-2.12-7.48s.27-5.76,2.12-7.45c.84-.76,1.99-1.4,3.64-1.4s2.83,.61,3.64,1.4c1.82,1.75,2.12,4.77,2.12,7.45s-.27,5.78-2.12,7.48c-.81,.76-1.99,1.4-3.64,1.4s-2.8-.64-3.64-1.4Zm6.47-.79c1.6-1.5,1.7-4.45,1.7-6.69s-.07-5.17-1.7-6.67c-.66-.62-1.55-1.01-2.83-1.01s-2.17,.42-2.8,1.01c-1.62,1.5-1.7,4.45-1.7,6.67s.07,5.19,1.7,6.69c.64,.59,1.55,1.01,2.8,1.01s2.19-.39,2.83-1.01Z"/>
    <path d="M281.21,520.41c-1.84-1.7-2.12-4.77-2.12-7.48s.27-5.76,2.12-7.45c.84-.76,1.99-1.4,3.64-1.4s2.83,.61,3.64,1.4c1.82,1.75,2.12,4.77,2.12,7.45s-.27,5.78-2.12,7.48c-.81,.76-1.99,1.4-3.64,1.4s-2.8-.64-3.64-1.4Zm6.47-.79c1.6-1.5,1.7-4.45,1.7-6.69s-.07-5.17-1.7-6.67c-.66-.62-1.55-1.01-2.83-1.01s-2.17,.42-2.8,1.01c-1.62,1.5-1.7,4.45-1.7,6.67s.07,5.19,1.7,6.69c.64,.59,1.55,1.01,2.8,1.01s2.19-.39,2.83-1.01Z"/>
    <path d="M295.97,520.41c-1.84-1.7-2.12-4.77-2.12-7.48s.27-5.76,2.12-7.45c.84-.76,1.99-1.4,3.64-1.4s2.83,.61,3.64,1.4c1.82,1.75,2.12,4.77,2.12,7.45s-.27,5.78-2.12,7.48c-.81,.76-1.99,1.4-3.64,1.4s-2.8-.64-3.64-1.4Zm6.47-.79c1.6-1.5,1.7-4.45,1.7-6.69s-.07-5.17-1.7-6.67c-.66-.62-1.55-1.01-2.83-1.01s-2.16,.42-2.8,1.01c-1.62,1.5-1.7,4.45-1.7,6.67s.07,5.19,1.7,6.69c.64,.59,1.55,1.01,2.8,1.01s2.19-.39,2.83-1.01Z"/>
    <path d="M308.42,520.13l7.11-7.67c1.13-1.23,1.7-2.46,1.7-3.74,0-2.02-1.38-3.47-3.71-3.47s-3.81,1.6-3.81,4.38h-1.3c0-3.44,2.09-5.56,5.12-5.56,2.8,0,4.94,1.8,4.94,4.65,0,1.52-.74,3.15-1.97,4.45l-6.67,7.11h9.08v1.18h-10.48v-1.33Z"/>
  </g>
  <line x1="387.47" y1="491.49" x2="387.47" y2="484.3" fill="none" stroke="#000" stroke-linecap="round" stroke-linejoin="round" stroke-width="2"/>
  <g>
    <path d="M344.21,520.41c-1.84-1.7-2.12-4.77-2.12-7.48s.27-5.76,2.12-7.45c.84-.76,1.99-1.4,3.64-1.4s2.83,.61,3.64,1.4c1.82,1.75,2.12,4.77,2.12,7.45s-.27,5.78-2.12,7.48c-.81,.76-1.99,1.4-3.64,1.4s-2.8-.64-3.64-1.4Zm6.47-.79c1.6-1.5,1.7-4.45,1.7-6.69s-.07-5.17-1.7-6.67c-.66-.62-1.55-1.01-2.83-1.01s-2.16,.42-2.8,1.01c-1.62,1.5-1.7,4.45-1.7,6.67s.07,5.19,1.7,6.69c.64,.59,1.55,1.01,2.8,1.01s2.19-.39,2.83-1.01Z"/>
    <path d="M359.51,519.25v2.21h-2.16v-2.21h2.16Z"/>
    <path d="M365.36,520.41c-1.84-1.7-2.12-4.77-2.12-7.48s.27-5.76,2.12-7.45c.84-.76,1.99-1.4,3.64-1.4s2.83,.61,3.64,1.4c1.82,1.75,2.12,4.77,2.12,7.45s-.27,5.78-2.12,7.48c-.81,.76-1.99,1.4-3.64,1.4s-2.8-.64-3.64-1.4Zm6.47-.79c1.6-1.5,1.7-4.45,1.7-6.69s-.07-5.17-1.7-6.67c-.66-.62-1.55-1.01-2.83-1.01s-2.16,.42-2.8,1.01c-1.62,1.5-1.7,4.45-1.7,6.67s.07,5.19,1.7,6.69c.64,.59,1.55,1.01,2.8,1.01s2.19-.39,2.83-1.01Z"/>
    <path d="M380.12,520.41c-1.84-1.7-2.12-4.77-2.12-7.48s.27-5.76,2.12-7.45c.84-.76,1.99-1.4,3.64-1.4s2.83,.61,3.64,1.4c1.82,1.75,2.12,4.77,2.12,7.45s-.27,5.78-2.12,7.48c-.81,.76-1.99,1.4-3.64,1.4s-2.8-.64-3.64-1.4Zm6.47-.79c1.6-1.5,1.7-4.45,1.7-6.69s-.07-5.17-1.7-6.67c-.66-.62-1.55-1.01-2.83-1.01s-2.16,.42-2.8,1.01c-1.62,1.5-1.7,4.45-1.7,6.67s.07,5.19,1.7,6.69c.64,.59,1.55,1.01,2.8,1.01s2.19-.39,2.83-1.01Z"/>
    <path d="M394.88,520.41c-1.84-1.7-2.12-4.77-2.12-7.48s.27-5.76,2.12-7.45c.84-.76,1.99-1.4,3.64-1.4s2.83,.61,3.64,1.4c1.82,1.75,2.12,4.77,2.12,7.45s-.27,5.78-2.12,7.48c-.81,.76-1.99,1.4-3.64,1.4s-2.8-.64-3.64-1.4Zm6.47-.79c1.6-1.5,1.7-4.45,1.7-6.69s-.07-5.17-1.7-6.67c-.66-.62-1.55-1.01-2.83-1.01s-2.16,.42-2.8,1.01c-1.62,1.5-1.7,4.45-1.7,6.67s.07,5.19,1.7,6.69c.64,.59,1.55,1.01,2.8,1.01s2.19-.39,2.83-1.01Z"/>
    <path d="M409.64,520.41c-1.84-1.7-2.12-4.77-2.12-7.48s.27-5.76,2.12-7.45c.84-.76,1.99-1.4,3.64-1.4s2.83,.61,3.64,1.4c1.82,1.75,2.12,4.77,2.12,7.45s-.27,5.78-2.12,7.48c-.81,.76-1.99,1.4-3.64,1.4s-2.8-.64-3.64-1.4Zm6.47-.79c1.6-1.5,1.7-4.45,1.7-6.69s-.07-5.17-1.7-6.67c-.66-.62-1.55-1.01-2.83-1.01s-2.17,.42-2.8,1.01c-1.62,1.5-1.7,4.45-1.7,6.67s.07,5.19,1.7,6.69c.64,.59,1.55,1.01,2.8,1.01s2.19-.39,2.83-1.01Z"/>
    <path d="M429.91,517.45h-8.51v-1.48l7.38-11.56h1.45l-7.58,11.81h7.26v-5.63h1.25v5.63h2.53v1.23h-2.53v4.01h-1.25v-4.01Z"/>
  </g>
  <line x1="501.45" y1="491.49" x2="501.45" y2="484.3" fill="none" stroke="#000" stroke-linecap="round" stroke-linejoin="round" stroke-width="2"/>
  <g>
    <path d="M457.9,520.41c-1.84-1.7-2.12-4.77-2.12-7.48s.27-5.76,2.12-7.45c.84-.76,1.99-1.4,3.64-1.4s2.83,.61,3.64,1.4c1.82,1.75,2.12,4.77,2.12,7.45s-.27,5.78-2.12,7.48c-.81,.76-1.99,1.4-3.64,1.4s-2.8-.64-3.64-1.4Zm6.47-.79c1.6-1.5,1.7-4.45,1.7-6.69s-.07-5.17-1.7-6.67c-.66-.62-1.55-1.01-2.83-1.01s-2.17,.42-2.8,1.01c-1.62,1.5-1.7,4.45-1.7,6.67s.07,5.19,1.7,6.69c.64,.59,1.55,1.01,2.8,1.01s2.19-.39,2.83-1.01Z"/>
    <path d="M473.2,519.25v2.21h-2.16v-2.21h2.16Z"/>
    <path d="M479.05,520.41c-1.84-1.7-2.12-4.77-2.12-7.48s.27-5.76,2.12-7.45c.84-.76,1.99-1.4,3.64-1.4s2.83,.61,3.64,1.4c1.82,1.75,2.12,4.77,2.12,7.45s-.27,5.78-2.12,7.48c-.81,.76-1.99,1.4-3.64,1.4s-2.8-.64-3.64-1.4Zm6.47-.79c1.6-1.5,1.7-4.45,1.7-6.69s-.07-5.17-1.7-6.67c-.66-.62-1.55-1.01-2.83-1.01s-2.17,.42-2.8,1.01c-1.62,1.5-1.7,4.45-1.7,6.67s.07,5.19,1.7,6.69c.64,.59,1.55,1.01,2.8,1.01s2.19-.39,2.83-1.01Z"/>
    <path d="M493.81,520.41c-1.84-1.7-2.12-4.77-2.12-7.48s.27-5.76,2.12-7.45c.84-.76,1.99-1.4,3.64-1.4s2.83,.61,3.64,1.4c1.82,1.75,2.12,4.77,2.12,7.45s-.27,5.78-2.12,7.48c-.81,.76-1.99,1.4-3.64,1.4s-2.8-.64-3.64-1.4Zm6.47-.79c1.6-1.5,1.7-4.45,1.7-6.69s-.07-5.17-1.7-6.67c-.66-.62-1.55-1.01-2.83-1.01s-2.17,.42-2.8,1.01c-1.62,1.5-1.7,4.45-1.7,6.67s.07,5.19,1.7,6.69c.64,.59,1.55,1.01,2.8,1.01s2.19-.39,2.83-1.01Z"/>
    <path d="M508.57,520.41c-1.84-1.7-2.12-4.77-2.12-7.48s.27-5.76,2.12-7.45c.84-.76,1.99-1.4,3.64-1.4s2.83,.61,3.64,1.4c1.82,1.75,2.12,4.77,2.12,7.45s-.27,5.78-2.12,7.48c-.81,.76-1.99,1.4-3.64,1.4s-2.8-.64-3.64-1.4Zm6.47-.79c1.6-1.5,1.7-4.45,1.7-6.69s-.07-5.17-1.7-6.67c-.66-.62-1.55-1.01-2.83-1.01s-2.17,.42-2.8,1.01c-1.62,1.5-1.7,4.45-1.7,6.67s.07,5.19,1.7,6.69c.64,.59,1.55,1.01,2.8,1.01s2.19-.39,2.83-1.01Z"/>
    <path d="M523.33,520.41c-1.84-1.7-2.12-4.77-2.12-7.48s.27-5.76,2.12-7.45c.84-.76,1.99-1.4,3.64-1.4s2.83,.61,3.64,1.4c1.82,1.75,2.12,4.77,2.12,7.45s-.27,5.78-2.12,7.48c-.81,.76-1.99,1.4-3.64,1.4s-2.8-.64-3.64-1.4Zm6.47-.79c1.6-1.5,1.7-4.45,1.7-6.69s-.07-5.17-1.7-6.67c-.66-.62-1.55-1.01-2.83-1.01s-2.16,.42-2.8,1.01c-1.62,1.5-1.7,4.45-1.7,6.67s.07,5.19,1.7,6.69c.64,.59,1.55,1.01,2.8,1.01s2.19-.39,2.83-1.01Z"/>
    <path d="M537.52,519.72c-1.3-1.75-1.57-4.35-1.57-6.79,0-2.61,.34-5.44,2.02-7.23,.81-.86,2.09-1.62,3.86-1.62,2.88,0,4.94,1.77,5.09,4.45h-1.25c-.17-1.97-1.48-3.27-3.84-3.27-3.81,0-4.6,4.11-4.6,8.17,.61-1.8,2.48-3,4.5-3,3.54,0,5.58,2.29,5.58,5.66,0,3.15-2.02,5.73-5.56,5.73-1.99,0-3.42-1.01-4.23-2.09Zm8.54-3.64c0-2.36-1.35-4.53-4.3-4.53-2.46,0-4.18,1.99-4.18,4.48s1.48,4.6,4.21,4.6c2.95,0,4.28-2.17,4.28-4.55Z"/>
  </g>
  <line x1="615.44" y1="491.49" x2="615.44" y2="484.3" fill="none" stroke="#000" stroke-linecap="round" stroke-linejoin="round" stroke-width="2"/>
  <g>
    <path d="M571.9,520.41c-1.84-1.7-2.12-4.77-2.12-7.48s.27-5.76,2.12-7.45c.84-.76,1.99-1.4,3.64-1.4s2.83,.61,3.64,1.4c1.82,1.75,2.12,4.77,2.12,7.45s-.27,5.78-2.12,7.48c-.81,.76-1.99,1.4-3.64,1.4s-2.8-.64-3.64-1.4Zm6.47-.79c1.6-1.5,1.7-4.45,1.7-6.69s-.07-5.17-1.7-6.67c-.66-.62-1.55-1.01-2.83-1.01s-2.16,.42-2.8,1.01c-1.62,1.5-1.7,4.45-1.7,6.67s.07,5.19,1.7,6.69c.64,.59,1.55,1.01,2.8,1.01s2.19-.39,2.83-1.01Z"/>
    <path d="M587.2,519.25v2.21h-2.16v-2.21h2.16Z"/>
    <path d="M593.05,520.41c-1.84-1.7-2.12-4.77-2.12-7.48s.27-5.76,2.12-7.45c.84-.76,1.99-1.4,3.64-1.4s2.83,.61,3.64,1.4c1.82,1.75,2.12,4.77,2.12,7.45s-.27,5.78-2.12,7.48c-.81,.76-1.99,1.4-3.64,1.4s-2.8-.64-3.64-1.4Zm6.47-.79c1.6-1.5,1.7-4.45,1.7-6.69s-.07-5.17-1.7-6.67c-.66-.62-1.55-1.01-2.83-1.01s-2.16,.42-2.8,1.01c-1.62,1.5-1.7,4.45-1.7,6.67s.07,5.19,1.7,6.69c.64,.59,1.55,1.01,2.8,1.01s2.19-.39,2.83-1.01Z"/>
    <path d="M607.81,520.41c-1.84-1.7-2.12-4.77-2.12-7.48s.27-5.76,2.12-7.45c.84-.76,1.99-1.4,3.64-1.4s2.83,.61,3.64,1.4c1.82,1.75,2.12,4.77,2.12,7.45s-.27,5.78-2.12,7.48c-.81,.76-1.99,1.4-3.64,1.4s-2.8-.64-3.64-1.4Zm6.47-.79c1.6-1.5,1.7-4.45,1.7-6.69s-.07-5.17-1.7-6.67c-.66-.62-1.55-1.01-2.83-1.01s-2.16,.42-2.8,1.01c-1.62,1.5-1.7,4.45-1.7,6.67s.07,5.19,1.7,6.69c.64,.59,1.55,1.01,2.8,1.01s2.19-.39,2.83-1.01Z"/>
    <path d="M622.57,520.41c-1.84-1.7-2.12-4.77-2.12-7.48s.27-5.76,2.12-7.45c.84-.76,1.99-1.4,3.64-1.4s2.83,.61,3.64,1.4c1.82,1.75,2.12,4.77,2.12,7.45s-.27,5.78-2.12,7.48c-.81,.76-1.99,1.4-3.64,1.4s-2.8-.64-3.64-1.4Zm6.47-.79c1.6-1.5,1.7-4.45,1.7-6.69s-.07-5.17-1.7-6.67c-.66-.62-1.55-1.01-2.83-1.01s-2.16,.42-2.8,1.01c-1.62,1.5-1.7,4.45-1.7,6.67s.07,5.19,1.7,6.69c.64,.59,1.55,1.01,2.8,1.01s2.19-.39,2.83-1.01Z"/>
    <path d="M637.33,520.41c-1.84-1.7-2.12-4.77-2.12-7.48s.27-5.76,2.12-7.45c.84-.76,1.99-1.4,3.64-1.4s2.83,.61,3.64,1.4c1.82,1.75,2.12,4.77,2.12,7.45s-.27,5.78-2.12,7.48c-.81,.76-1.99,1.4-3.64,1.4s-2.8-.64-3.64-1.4Zm6.47-.79c1.6-1.5,1.7-4.45,1.7-6.69s-.07-5.17-1.7-6.67c-.66-.62-1.55-1.01-2.83-1.01s-2.17,.42-2.8,1.01c-1.62,1.5-1.7,4.45-1.7,6.67s.07,5.19,1.7,6.69c.64,.59,1.55,1.01,2.8,1.01s2.19-.39,2.83-1.01Z"/>
    <path d="M649.88,516.96c0-1.92,1.23-3.76,3.17-4.4-1.67-.62-2.78-2.24-2.78-3.94,0-2.85,2.34-4.55,5.26-4.55s5.26,1.7,5.26,4.55c0,1.7-1.11,3.32-2.78,3.94,1.94,.64,3.17,2.48,3.17,4.4,0,3.05-2.61,4.85-5.66,4.85s-5.66-1.8-5.66-4.85Zm10.06-.07c0-2.43-1.97-3.79-4.4-3.79s-4.4,1.35-4.4,3.79,1.97,3.79,4.4,3.79,4.4-1.35,4.4-3.79Zm-.42-8.31c0-2.19-1.8-3.39-3.98-3.39s-3.98,1.21-3.98,3.39,1.75,3.44,3.98,3.44,3.98-1.21,3.98-3.44Z"/>
  </g>
  <line x1="729.43" y1="491.49" x2="729.43" y2="484.3" fill="none" stroke="#000" stroke-linecap="round" stroke-linejoin="round" stroke-width="2"/>
  <g>
    <path d="M688.57,520.41c-1.84-1.7-2.12-4.77-2.12-7.48s.27-5.76,2.12-7.45c.84-.76,1.99-1.4,3.64-1.4s2.83,.61,3.64,1.4c1.82,1.75,2.12,4.77,2.12,7.45s-.27,5.78-2.12,7.48c-.81,.76-1.99,1.4-3.64,1.4s-2.8-.64-3.64-1.4Zm6.47-.79c1.6-1.5,1.7-4.45,1.7-6.69s-.07-5.17-1.7-6.67c-.66-.62-1.55-1.01-2.83-1.01s-2.16,.42-2.8,1.01c-1.62,1.5-1.7,4.45-1.7,6.67s.07,5.19,1.7,6.69c.64,.59,1.55,1.01,2.8,1.01s2.19-.39,2.83-1.01Z"/>
    <path d="M703.87,519.25v2.21h-2.16v-2.21h2.16Z"/>
    <path d="M709.72,520.41c-1.84-1.7-2.12-4.77-2.12-7.48s.27-5.76,2.12-7.45c.84-.76,1.99-1.4,3.64-1.4s2.83,.61,3.64,1.4c1.82,1.75,2.12,4.77,2.12,7.45s-.27,5.78-2.12,7.48c-.81,.76-1.99,1.4-3.64,1.4s-2.8-.64-3.64-1.4Zm6.47-.79c1.6-1.5,1.7-4.45,1.7-6.69s-.07-5.17-1.7-6.67c-.66-.62-1.55-1.01-2.83-1.01s-2.16,.42-2.8,1.01c-1.62,1.5-1.7,4.45-1.7,6.67s.07,5.19,1.7,6.69c.64,.59,1.55,1.01,2.8,1.01s2.19-.39,2.83-1.01Z"/>
    <path d="M724.48,520.41c-1.84-1.7-2.12-4.77-2.12-7.48s.27-5.76,2.12-7.45c.84-.76,1.99-1.4,3.64-1.4s2.83,.61,3.64,1.4c1.82,1.75,2.12,4.77,2.12,7.45s-.27,5.78-2.12,7.48c-.81,.76-1.99,1.4-3.64,1.4s-2.8-.64-3.64-1.4Zm6.47-.79c1.6-1.5,1.7-4.45,1.7-6.69s-.07-5.17-1.7-6.67c-.66-.62-1.55-1.01-2.83-1.01s-2.16,.42-2.8,1.01c-1.62,1.5-1.7,4.45-1.7,6.67s.07,5.19,1.7,6.69c.64,.59,1.55,1.01,2.8,1.01s2.19-.39,2.83-1.01Z"/>
    <path d="M739.24,520.41c-1.84-1.7-2.12-4.77-2.12-7.48s.27-5.76,2.12-7.45c.84-.76,1.99-1.4,3.64-1.4s2.83,.61,3.64,1.4c1.82,1.75,2.12,4.77,2.12,7.45s-.27,5.78-2.12,7.48c-.81,.76-1.99,1.4-3.64,1.4s-2.8-.64-3.64-1.4Zm6.47-.79c1.6-1.5,1.7-4.45,1.7-6.69s-.07-5.17-1.7-6.67c-.66-.62-1.55-1.01-2.83-1.01s-2.16,.42-2.8,1.01c-1.62,1.5-1.7,4.45-1.7,6.67s.07,5.19,1.7,6.69c.64,.59,1.55,1.01,2.8,1.01s2.19-.39,2.83-1.01Z"/>
    <path d="M750.95,509.12v-1.38l4.67-3.32h1.11v17.05h-1.23v-15.52l-4.55,3.17Z"/>
    <path d="M763,520.41c-1.85-1.7-2.12-4.77-2.12-7.48s.27-5.76,2.12-7.45c.84-.76,1.99-1.4,3.64-1.4s2.83,.61,3.64,1.4c1.82,1.75,2.12,4.77,2.12,7.45s-.27,5.78-2.12,7.48c-.81,.76-1.99,1.4-3.64,1.4s-2.8-.64-3.64-1.4Zm6.47-.79c1.6-1.5,1.7-4.45,1.7-6.69s-.07-5.17-1.7-6.67c-.66-.62-1.55-1.01-2.83-1.01s-2.16,.42-2.8,1.01c-1.62,1.5-1.7,4.45-1.7,6.67s.07,5.19,1.7,6.69c.64,.59,1.55,1.01,2.8,1.01s2.19-.39,2.83-1.01Z"/>
  </g>
  <line x1="843.42" y1="491.49" x2="843.42" y2="484.3" fill="none" stroke="#000" stroke-linecap="round" stroke-linejoin="round" stroke-width="2"/>
  <g>
    <path d="M803.35,520.41c-1.84-1.7-2.12-4.77-2.12-7.48s.27-5.76,2.12-7.45c.84-.76,1.99-1.4,3.64-1.4s2.83,.61,3.64,1.4c1.82,1.75,2.12,4.77,2.12,7.45s-.27,5.78-2.12,7.48c-.81,.76-1.99,1.4-3.64,1.4s-2.8-.64-3.64-1.4Zm6.47-.79c1.6-1.5,1.7-4.45,1.7-6.69s-.07-5.17-1.7-6.67c-.66-.62-1.55-1.01-2.83-1.01s-2.16,.42-2.8,1.01c-1.62,1.5-1.7,4.45-1.7,6.67s.07,5.19,1.7,6.69c.64,.59,1.55,1.01,2.8,1.01s2.19-.39,2.83-1.01Z"/>
    <path d="M818.66,519.25v2.21h-2.17v-2.21h2.17Z"/>
    <path d="M824.51,520.41c-1.85-1.7-2.12-4.77-2.12-7.48s.27-5.76,2.12-7.45c.84-.76,1.99-1.4,3.64-1.4s2.83,.61,3.64,1.4c1.82,1.75,2.12,4.77,2.12,7.45s-.27,5.78-2.12,7.48c-.81,.76-1.99,1.4-3.64,1.4s-2.8-.64-3.64-1.4Zm6.47-.79c1.6-1.5,1.7-4.45,1.7-6.69s-.07-5.17-1.7-6.67c-.66-.62-1.55-1.01-2.83-1.01s-2.16,.42-2.8,1.01c-1.62,1.5-1.7,4.45-1.7,6.67s.07,5.19,1.7,6.69c.64,.59,1.55,1.01,2.8,1.01s2.19-.39,2.83-1.01Z"/>
    <path d="M839.27,520.41c-1.85-1.7-2.12-4.77-2.12-7.48s.27-5.76,2.12-7.45c.84-.76,1.99-1.4,3.64-1.4s2.83,.61,3.64,1.4c1.82,1.75,2.12,4.77,2.12,7.45s-.27,5.78-2.12,7.48c-.81,.76-1.99,1.4-3.64,1.4s-2.8-.64-3.64-1.4Zm6.47-.79c1.6-1.5,1.7-4.45,1.7-6.69s-.07-5.17-1.7-6.67c-.66-.62-1.55-1.01-2.83-1.01s-2.16,.42-2.8,1.01c-1.62,1.5-1.7,4.45-1.7,6.67s.07,5.19,1.7,6.69c.64,.59,1.55,1.01,2.8,1.01s2.19-.39,2.83-1.01Z"/>
    <path d="M854.03,520.41c-1.85-1.7-2.12-4.77-2.12-7.48s.27-5.76,2.12-7.45c.84-.76,1.99-1.4,3.64-1.4s2.83,.61,3.64,1.4c1.82,1.75,2.12,4.77,2.12,7.45s-.27,5.78-2.12,7.48c-.81,.76-1.99,1.4-3.64,1.4s-2.8-.64-3.64-1.4Zm6.47-.79c1.6-1.5,1.7-4.45,1.7-6.69s-.07-5.17-1.7-6.67c-.66-.62-1.55-1.01-2.83-1.01s-2.16,.42-2.8,1.01c-1.62,1.5-1.7,4.45-1.7,6.67s.07,5.19,1.7,6.69c.64,.59,1.55,1.01,2.8,1.01s2.19-.39,2.83-1.01Z"/>
    <path d="M865.74,509.12v-1.38l4.67-3.32h1.11v17.05h-1.23v-15.52l-4.55,3.17Z"/>
    <path d="M875.48,520.13l7.11-7.67c1.13-1.23,1.7-2.46,1.7-3.74,0-2.02-1.38-3.47-3.71-3.47s-3.81,1.6-3.81,4.38h-1.3c0-3.44,2.09-5.56,5.12-5.56,2.8,0,4.94,1.8,4.94,4.65,0,1.52-.74,3.15-1.97,4.45l-6.67,7.11h9.08v1.18h-10.48v-1.33Z"/>
  </g>
  <g>
    <path d="M480.08,568.05c-1.66-1.4-2.4-3.69-2.4-6.15s.74-4.55,2.29-6c1-.94,2.4-1.57,4.17-1.57,2.32,0,4.09,1.29,4.75,2.89v-8.89h1.46v20.7h-1.34l-.11-2.72c-.8,1.92-2.89,3.12-4.86,3.12-1.69,0-2.97-.54-3.95-1.37Zm6.98-1.2c1.34-1.23,1.86-3,1.86-4.98,0-2.12-.49-3.77-1.83-5-.74-.69-1.74-1.14-3.09-1.14s-2.43,.49-3.2,1.29c-1.14,1.2-1.66,3.03-1.66,4.86,0,2.03,.57,3.97,1.94,5.12,.74,.63,1.74,1.03,2.97,1.03s2.26-.49,3-1.17Z"/>
    <path d="M496.58,567.42c-1.17-1.37-1.89-3.32-1.89-5.49,0-1.8,.29-3.57,1.43-5.09,1.23-1.63,2.92-2.52,5-2.52,3.95,0,6.32,3.15,6.32,6.95,0,.34,0,.54-.03,.94h-11.3c.06,3.17,1.92,5.83,5.12,5.83,2.26,0,4.03-1.49,4.38-3.32h1.49c-.43,2.69-3,4.69-5.86,4.69-2.06,0-3.72-.92-4.66-2Zm9.38-6.49c-.06-2.72-1.74-5.26-4.83-5.26s-4.92,2.46-4.98,5.26h9.81Z"/>
    <path d="M511.63,566.17v-17.84h1.43v17.79c0,.97,.29,1.72,1.49,1.72,.57,0,.83-.03,1.23-.09v1.29c-.31,.09-.69,.17-1.29,.17-1.83,0-2.86-.94-2.86-3.03Z"/>
    <path d="M517.75,565.05c0-2.54,1.94-4.12,4.8-4.32l5.26-.37v-1.26c0-2.4-1.74-3.43-3.95-3.43s-3.92,1.03-4.06,3.17h-1.43c.2-2.95,2.57-4.52,5.43-4.52,3.26,0,5.43,1.6,5.43,4.89v7.06c0,.97,.14,1.54,1.12,1.54,.11,0,.29,0,.4-.03v1.26c-.2,.06-.46,.09-.69,.09-1.77,0-2.26-1.34-2.26-2.86-.77,2.03-2.95,3.15-5.15,3.15-2.77,0-4.92-1.69-4.92-4.38Zm10.07-2.63v-.74l-5.12,.31c-2.2,.14-3.49,1.34-3.49,3.03,0,2,1.54,3.09,3.57,3.09,3.6,0,5.03-2.92,5.03-5.69Z"/>
    <path d="M532.88,574.6v-1.4c.51,.26,1.14,.43,1.86,.43,1.37,0,2.23-.63,2.89-2.29l.83-2.09-5.83-14.53h1.57l4.95,12.7,4.78-12.7h1.52l-6.55,17.1c-.89,2.32-2.17,3.17-4.06,3.17-.92,0-1.72-.26-1.94-.4Z"/>
    <path d="M554.84,559.79c0-4.46,1.63-9.44,4.72-12.9l.89,.69c-2.8,3.6-4.26,7.52-4.26,12.21s1.46,8.61,4.26,12.21l-.89,.69c-3.09-3.46-4.72-8.44-4.72-12.9Z"/>
    <path d="M562.39,564.68h1.46c.23,2.34,2.09,3.37,4.43,3.37s4.15-1.03,4.15-2.97c0-1.26-.89-2.32-2.63-2.54l-2.77-.37c-2.4-.31-4.03-1.46-4.03-3.63,0-2.54,2.46-4.2,5.15-4.2,3.09,0,5.32,1.77,5.4,4.35h-1.43c-.2-2.06-1.89-3-3.97-3s-3.69,1.12-3.69,2.72c0,1.17,.63,2.06,2.77,2.34l2.72,.37c2.69,.37,3.95,2.17,3.95,3.89,0,2.92-2.63,4.43-5.6,4.43-3.4,0-5.75-1.8-5.89-4.75Z"/>
    <path d="M575.89,572c2.8-3.6,4.26-7.52,4.26-12.21s-1.46-8.61-4.26-12.21l.89-.69c3.09,3.46,4.72,8.44,4.72,12.9s-1.63,9.44-4.72,12.9l-.89-.69Z"/>
  </g>
</svg>