<?xml version="1.0" encoding="UTF-8"?>
<svg id="Ebene_1" data-name="Ebene 1" xmlns="http://www.w3.org/2000/svg" viewBox="0 0 938.15 577.58">
  <g>
    <path id="mfed68caf5e" d="M159.55,49.96c.86,0,1.69-.34,2.29-.95,.61-.61,.95-1.43,.95-2.29s-.34-1.69-.95-2.29c-.61-.61-1.43-.95-2.29-.95s-1.69,.34-2.29,.95c-.61,.61-.95,1.43-.95,2.29s.34,1.69,.95,2.29c.61,.61,1.43,.95,2.29,.95Z" fill="#069" stroke="#069" stroke-linejoin="round" stroke-width="2.6"/>
    <path id="mfed68caf5e-2" data-name="mfed68caf5e" d="M170.13,89.6c.86,0,1.69-.34,2.29-.95,.61-.61,.95-1.43,.95-2.29s-.34-1.69-.95-2.29c-.61-.61-1.43-.95-2.29-.95s-1.69,.34-2.29,.95c-.61,.61-.95,1.43-.95,2.29s.34,1.69,.95,2.29c.61,.61,1.43,.95,2.29,.95Z" fill="#069" stroke="#069" stroke-linejoin="round" stroke-width="2.6"/>
    <path id="mfed68caf5e-3" data-name="mfed68caf5e" d="M180.71,125.93c.86,0,1.69-.34,2.29-.95,.61-.61,.95-1.43,.95-2.29s-.34-1.69-.95-2.29c-.61-.61-1.43-.95-2.29-.95s-1.69,.34-2.29,.95c-.61,.61-.95,1.43-.95,2.29s.34,1.69,.95,2.29c.61,.61,1.43,.95,2.29,.95Z" fill="#069" stroke="#069" stroke-linejoin="round" stroke-width="2.6"/>
    <path id="mfed68caf5e-4" data-name="mfed68caf5e" d="M191.28,192.34c.86,0,1.69-.34,2.29-.95,.61-.61,.95-1.43,.95-2.29s-.34-1.69-.95-2.29c-.61-.61-1.43-.95-2.29-.95s-1.69,.34-2.29,.95c-.61,.61-.95,1.43-.95,2.29s.34,1.69,.95,2.29c.61,.61,1.43,.95,2.29,.95Z" fill="#069" stroke="#069" stroke-linejoin="round" stroke-width="2.6"/>
    <path id="mfed68caf5e-5" data-name="mfed68caf5e" d="M201.86,274.62c.86,0,1.69-.34,2.29-.95,.61-.61,.95-1.43,.95-2.29s-.34-1.69-.95-2.29c-.61-.61-1.43-.95-2.29-.95s-1.69,.34-2.29,.95c-.61,.61-.95,1.43-.95,2.29s.34,1.69,.95,2.29c.61,.61,1.43,.95,2.29,.95Z" fill="#069" stroke="#069" stroke-linejoin="round" stroke-width="2.6"/>
    <path id="mfed68caf5e-6" data-name="mfed68caf5e" d="M212.44,321.13c.86,0,1.69-.34,2.29-.95,.61-.61,.95-1.43,.95-2.29s-.34-1.69-.95-2.29c-.61-.61-1.43-.95-2.29-.95s-1.69,.34-2.29,.95c-.61,.61-.95,1.43-.95,2.29s.34,1.69,.95,2.29c.61,.61,1.43,.95,2.29,.95Z" fill="#069" stroke="#069" stroke-linejoin="round" stroke-width="2.6"/>
    <path id="mfed68caf5e-7" data-name="mfed68caf5e" d="M223.02,414.14c.86,0,1.69-.34,2.29-.95,.61-.61,.95-1.43,.95-2.29s-.34-1.69-.95-2.29c-.61-.61-1.43-.95-2.29-.95s-1.69,.34-2.29,.95c-.61,.61-.95,1.43-.95,2.29s.34,1.69,.95,2.29c.61,.61,1.43,.95,2.29,.95Z" fill="#069" stroke="#069" stroke-linejoin="round" stroke-width="2.6"/>
    <path id="mfed68caf5e-8" data-name="mfed68caf5e" d="M233.6,453.75c.86,0,1.69-.34,2.29-.95,.61-.61,.95-1.43,.95-2.29s-.34-1.69-.95-2.29c-.61-.61-1.43-.95-2.29-.95s-1.69,.34-2.29,.95c-.61,.61-.95,1.43-.95,2.29s.34,1.69,.95,2.29c.61,.61,1.43,.95,2.29,.95Z" fill="#069" stroke="#069" stroke-linejoin="round" stroke-width="2.6"/>
    <path id="mfed68caf5e-9" data-name="mfed68caf5e" d="M244.18,472.43c.86,0,1.69-.34,2.29-.95,.61-.61,.95-1.43,.95-2.29s-.34-1.69-.95-2.29c-.61-.61-1.43-.95-2.29-.95s-1.69,.34-2.29,.95c-.61,.61-.95,1.43-.95,2.29s.34,1.69,.95,2.29c.61,.61,1.43,.95,2.29,.95Z" fill="#069" stroke="#069" stroke-linejoin="round" stroke-width="2.6"/>
    <path id="mfed68caf5e-10" data-name="mfed68caf5e" d="M254.76,470.4c.86,0,1.69-.34,2.29-.95,.61-.61,.95-1.43,.95-2.29s-.34-1.69-.95-2.29c-.61-.61-1.43-.95-2.29-.95s-1.69,.34-2.29,.95c-.61,.61-.95,1.43-.95,2.29s.34,1.69,.95,2.29c.61,.61,1.43,.95,2.29,.95Z" fill="#069" stroke="#069" stroke-linejoin="round" stroke-width="2.6"/>
    <path id="mfed68caf5e-11" data-name="mfed68caf5e" d="M265.34,463.51c.86,0,1.69-.34,2.29-.95,.61-.61,.95-1.43,.95-2.29s-.34-1.69-.95-2.29c-.61-.61-1.43-.95-2.29-.95s-1.69,.34-2.29,.95c-.61,.61-.95,1.43-.95,2.29s.34,1.69,.95,2.29c.61,.61,1.43,.95,2.29,.95Z" fill="#069" stroke="#069" stroke-linejoin="round" stroke-width="2.6"/>
    <path id="mfed68caf5e-12" data-name="mfed68caf5e" d="M275.92,433.18c.86,0,1.69-.34,2.29-.95,.61-.61,.95-1.43,.95-2.29s-.34-1.69-.95-2.29c-.61-.61-1.43-.95-2.29-.95s-1.69,.34-2.29,.95c-.61,.61-.95,1.43-.95,2.29s.34,1.69,.95,2.29c.61,.61,1.43,.95,2.29,.95Z" fill="#069" stroke="#069" stroke-linejoin="round" stroke-width="2.6"/>
    <path id="mfed68caf5e-13" data-name="mfed68caf5e" d="M286.5,390.7c.86,0,1.69-.34,2.29-.95,.61-.61,.95-1.43,.95-2.29s-.34-1.69-.95-2.29c-.61-.61-1.43-.95-2.29-.95s-1.69,.34-2.29,.95c-.61,.61-.95,1.43-.95,2.29s.34,1.69,.95,2.29c.61,.61,1.43,.95,2.29,.95Z" fill="#069" stroke="#069" stroke-linejoin="round" stroke-width="2.6"/>
    <path id="mfed68caf5e-14" data-name="mfed68caf5e" d="M297.08,343.21c.86,0,1.69-.34,2.29-.95,.61-.61,.95-1.43,.95-2.29s-.34-1.69-.95-2.29c-.61-.61-1.43-.95-2.29-.95s-1.69,.34-2.29,.95c-.61,.61-.95,1.43-.95,2.29s.34,1.69,.95,2.29c.61,.61,1.43,.95,2.29,.95Z" fill="#069" stroke="#069" stroke-linejoin="round" stroke-width="2.6"/>
    <path id="mfed68caf5e-15" data-name="mfed68caf5e" d="M307.66,339.99c.86,0,1.69-.34,2.29-.95,.61-.61,.95-1.43,.95-2.29s-.34-1.69-.95-2.29c-.61-.61-1.43-.95-2.29-.95s-1.69,.34-2.29,.95c-.61,.61-.95,1.43-.95,2.29s.34,1.69,.95,2.29c.61,.61,1.43,.95,2.29,.95Z" fill="#069" stroke="#069" stroke-linejoin="round" stroke-width="2.6"/>
    <path id="mfed68caf5e-16" data-name="mfed68caf5e" d="M318.24,280.94c.86,0,1.69-.34,2.29-.95,.61-.61,.95-1.43,.95-2.29s-.34-1.69-.95-2.29c-.61-.61-1.43-.95-2.29-.95s-1.69,.34-2.29,.95c-.61,.61-.95,1.43-.95,2.29s.34,1.69,.95,2.29c.61,.61,1.43,.95,2.29,.95Z" fill="#069" stroke="#069" stroke-linejoin="round" stroke-width="2.6"/>
    <path id="mfed68caf5e-17" data-name="mfed68caf5e" d="M328.82,248.92c.86,0,1.69-.34,2.29-.95,.61-.61,.95-1.43,.95-2.29s-.34-1.69-.95-2.29c-.61-.61-1.43-.95-2.29-.95s-1.69,.34-2.29,.95c-.61,.61-.95,1.43-.95,2.29s.34,1.69,.95,2.29c.61,.61,1.43,.95,2.29,.95Z" fill="#069" stroke="#069" stroke-linejoin="round" stroke-width="2.6"/>
    <path id="mfed68caf5e-18" data-name="mfed68caf5e" d="M339.4,204.57c.86,0,1.69-.34,2.29-.95,.61-.61,.95-1.43,.95-2.29s-.34-1.69-.95-2.29c-.61-.61-1.43-.95-2.29-.95s-1.69,.34-2.29,.95c-.61,.61-.95,1.43-.95,2.29s.34,1.69,.95,2.29c.61,.61,1.43,.95,2.29,.95Z" fill="#069" stroke="#069" stroke-linejoin="round" stroke-width="2.6"/>
    <path id="mfed68caf5e-19" data-name="mfed68caf5e" d="M349.98,166.97c.86,0,1.69-.34,2.29-.95,.61-.61,.95-1.43,.95-2.29s-.34-1.69-.95-2.29c-.61-.61-1.43-.95-2.29-.95s-1.69,.34-2.29,.95c-.61,.61-.95,1.43-.95,2.29s.34,1.69,.95,2.29c.61,.61,1.43,.95,2.29,.95Z" fill="#069" stroke="#069" stroke-linejoin="round" stroke-width="2.6"/>
    <path id="mfed68caf5e-20" data-name="mfed68caf5e" d="M360.56,236.14c.86,0,1.69-.34,2.29-.95,.61-.61,.95-1.43,.95-2.29s-.34-1.69-.95-2.29c-.61-.61-1.43-.95-2.29-.95s-1.69,.34-2.29,.95c-.61,.61-.95,1.43-.95,2.29s.34,1.69,.95,2.29c.61,.61,1.43,.95,2.29,.95Z" fill="#069" stroke="#069" stroke-linejoin="round" stroke-width="2.6"/>
    <path id="mfed68caf5e-21" data-name="mfed68caf5e" d="M371.14,188.77c.86,0,1.69-.34,2.29-.95,.61-.61,.95-1.43,.95-2.29s-.34-1.69-.95-2.29c-.61-.61-1.43-.95-2.29-.95s-1.69,.34-2.29,.95c-.61,.61-.95,1.43-.95,2.29s.34,1.69,.95,2.29c.61,.61,1.43,.95,2.29,.95Z" fill="#069" stroke="#069" stroke-linejoin="round" stroke-width="2.6"/>
    <path id="mfed68caf5e-22" data-name="mfed68caf5e" d="M381.72,189.37c.86,0,1.69-.34,2.29-.95,.61-.61,.95-1.43,.95-2.29s-.34-1.69-.95-2.29c-.61-.61-1.43-.95-2.29-.95s-1.69,.34-2.29,.95c-.61,.61-.95,1.43-.95,2.29s.34,1.69,.95,2.29c.61,.61,1.43,.95,2.29,.95Z" fill="#069" stroke="#069" stroke-linejoin="round" stroke-width="2.6"/>
    <path id="mfed68caf5e-23" data-name="mfed68caf5e" d="M392.3,249.45c.86,0,1.69-.34,2.29-.95,.61-.61,.95-1.43,.95-2.29s-.34-1.69-.95-2.29c-.61-.61-1.43-.95-2.29-.95s-1.69,.34-2.29,.95c-.61,.61-.95,1.43-.95,2.29s.34,1.69,.95,2.29c.61,.61,1.43,.95,2.29,.95Z" fill="#069" stroke="#069" stroke-linejoin="round" stroke-width="2.6"/>
    <path id="mfed68caf5e-24" data-name="mfed68caf5e" d="M402.88,274.88c.86,0,1.69-.34,2.29-.95,.61-.61,.95-1.43,.95-2.29s-.34-1.69-.95-2.29c-.61-.61-1.43-.95-2.29-.95s-1.69,.34-2.29,.95c-.61,.61-.95,1.43-.95,2.29s.34,1.69,.95,2.29c.61,.61,1.43,.95,2.29,.95Z" fill="#069" stroke="#069" stroke-linejoin="round" stroke-width="2.6"/>
    <path id="mfed68caf5e-25" data-name="mfed68caf5e" d="M413.46,305.05c.86,0,1.69-.34,2.29-.95,.61-.61,.95-1.43,.95-2.29s-.34-1.69-.95-2.29c-.61-.61-1.43-.95-2.29-.95s-1.69,.34-2.29,.95c-.61,.61-.95,1.43-.95,2.29s.34,1.69,.95,2.29c.61,.61,1.43,.95,2.29,.95Z" fill="#069" stroke="#069" stroke-linejoin="round" stroke-width="2.6"/>
    <path id="mfed68caf5e-26" data-name="mfed68caf5e" d="M424.03,344.84c.86,0,1.69-.34,2.29-.95,.61-.61,.95-1.43,.95-2.29s-.34-1.69-.95-2.29c-.61-.61-1.43-.95-2.29-.95s-1.69,.34-2.29,.95c-.61,.61-.95,1.43-.95,2.29s.34,1.69,.95,2.29c.61,.61,1.43,.95,2.29,.95Z" fill="#069" stroke="#069" stroke-linejoin="round" stroke-width="2.6"/>
    <path id="mfed68caf5e-27" data-name="mfed68caf5e" d="M434.61,359.82c.86,0,1.69-.34,2.29-.95,.61-.61,.95-1.43,.95-2.29s-.34-1.69-.95-2.29c-.61-.61-1.43-.95-2.29-.95s-1.69,.34-2.29,.95c-.61,.61-.95,1.43-.95,2.29s.34,1.69,.95,2.29c.61,.61,1.43,.95,2.29,.95Z" fill="#069" stroke="#069" stroke-linejoin="round" stroke-width="2.6"/>
    <path id="mfed68caf5e-28" data-name="mfed68caf5e" d="M445.19,357.74c.86,0,1.69-.34,2.29-.95,.61-.61,.95-1.43,.95-2.29s-.34-1.69-.95-2.29c-.61-.61-1.43-.95-2.29-.95s-1.69,.34-2.29,.95c-.61,.61-.95,1.43-.95,2.29s.34,1.69,.95,2.29c.61,.61,1.43,.95,2.29,.95Z" fill="#069" stroke="#069" stroke-linejoin="round" stroke-width="2.6"/>
    <path id="mfed68caf5e-29" data-name="mfed68caf5e" d="M455.77,394.17c.86,0,1.69-.34,2.29-.95,.61-.61,.95-1.43,.95-2.29s-.34-1.69-.95-2.29c-.61-.61-1.43-.95-2.29-.95s-1.69,.34-2.29,.95c-.61,.61-.95,1.43-.95,2.29s.34,1.69,.95,2.29c.61,.61,1.43,.95,2.29,.95Z" fill="#069" stroke="#069" stroke-linejoin="round" stroke-width="2.6"/>
    <path id="mfed68caf5e-30" data-name="mfed68caf5e" d="M466.35,372.36c.86,0,1.69-.34,2.29-.95,.61-.61,.95-1.43,.95-2.29s-.34-1.69-.95-2.29c-.61-.61-1.43-.95-2.29-.95s-1.69,.34-2.29,.95c-.61,.61-.95,1.43-.95,2.29s.34,1.69,.95,2.29c.61,.61,1.43,.95,2.29,.95Z" fill="#069" stroke="#069" stroke-linejoin="round" stroke-width="2.6"/>
    <path id="mfed68caf5e-31" data-name="mfed68caf5e" d="M476.93,384.99c.86,0,1.69-.34,2.29-.95,.61-.61,.95-1.43,.95-2.29s-.34-1.69-.95-2.29c-.61-.61-1.43-.95-2.29-.95s-1.69,.34-2.29,.95c-.61,.61-.95,1.43-.95,2.29s.34,1.69,.95,2.29c.61,.61,1.43,.95,2.29,.95Z" fill="#069" stroke="#069" stroke-linejoin="round" stroke-width="2.6"/>
    <path id="mfed68caf5e-32" data-name="mfed68caf5e" d="M487.51,287.73c.86,0,1.69-.34,2.29-.95,.61-.61,.95-1.43,.95-2.29s-.34-1.69-.95-2.29c-.61-.61-1.43-.95-2.29-.95s-1.69,.34-2.29,.95c-.61,.61-.95,1.43-.95,2.29s.34,1.69,.95,2.29c.61,.61,1.43,.95,2.29,.95Z" fill="#069" stroke="#069" stroke-linejoin="round" stroke-width="2.6"/>
    <path id="mfed68caf5e-33" data-name="mfed68caf5e" d="M498.09,315.58c.86,0,1.69-.34,2.29-.95,.61-.61,.95-1.43,.95-2.29s-.34-1.69-.95-2.29c-.61-.61-1.43-.95-2.29-.95s-1.69,.34-2.29,.95c-.61,.61-.95,1.43-.95,2.29s.34,1.69,.95,2.29c.61,.61,1.43,.95,2.29,.95Z" fill="#069" stroke="#069" stroke-linejoin="round" stroke-width="2.6"/>
    <path id="mfed68caf5e-34" data-name="mfed68caf5e" d="M508.67,304.88c.86,0,1.69-.34,2.29-.95,.61-.61,.95-1.43,.95-2.29s-.34-1.69-.95-2.29c-.61-.61-1.43-.95-2.29-.95s-1.69,.34-2.29,.95c-.61,.61-.95,1.43-.95,2.29s.34,1.69,.95,2.29c.61,.61,1.43,.95,2.29,.95Z" fill="#069" stroke="#069" stroke-linejoin="round" stroke-width="2.6"/>
    <path id="mfed68caf5e-35" data-name="mfed68caf5e" d="M519.25,323.29c.86,0,1.69-.34,2.29-.95,.61-.61,.95-1.43,.95-2.29s-.34-1.69-.95-2.29c-.61-.61-1.43-.95-2.29-.95s-1.69,.34-2.29,.95c-.61,.61-.95,1.43-.95,2.29s.34,1.69,.95,2.29c.61,.61,1.43,.95,2.29,.95Z" fill="#069" stroke="#069" stroke-linejoin="round" stroke-width="2.6"/>
    <path id="mfed68caf5e-36" data-name="mfed68caf5e" d="M529.83,286.69c.86,0,1.69-.34,2.29-.95,.61-.61,.95-1.43,.95-2.29s-.34-1.69-.95-2.29c-.61-.61-1.43-.95-2.29-.95s-1.69,.34-2.29,.95c-.61,.61-.95,1.43-.95,2.29s.34,1.69,.95,2.29c.61,.61,1.43,.95,2.29,.95Z" fill="#069" stroke="#069" stroke-linejoin="round" stroke-width="2.6"/>
    <path id="mfed68caf5e-37" data-name="mfed68caf5e" d="M540.41,260.07c.86,0,1.69-.34,2.29-.95,.61-.61,.95-1.43,.95-2.29s-.34-1.69-.95-2.29c-.61-.61-1.43-.95-2.29-.95s-1.69,.34-2.29,.95c-.61,.61-.95,1.43-.95,2.29s.34,1.69,.95,2.29c.61,.61,1.43,.95,2.29,.95Z" fill="#069" stroke="#069" stroke-linejoin="round" stroke-width="2.6"/>
    <path id="mfed68caf5e-38" data-name="mfed68caf5e" d="M550.99,274.63c.86,0,1.69-.34,2.29-.95,.61-.61,.95-1.43,.95-2.29s-.34-1.69-.95-2.29c-.61-.61-1.43-.95-2.29-.95s-1.69,.34-2.29,.95c-.61,.61-.95,1.43-.95,2.29s.34,1.69,.95,2.29c.61,.61,1.43,.95,2.29,.95Z" fill="#069" stroke="#069" stroke-linejoin="round" stroke-width="2.6"/>
    <path id="mfed68caf5e-39" data-name="mfed68caf5e" d="M561.57,280.55c.86,0,1.69-.34,2.29-.95,.61-.61,.95-1.43,.95-2.29s-.34-1.69-.95-2.29c-.61-.61-1.43-.95-2.29-.95s-1.69,.34-2.29,.95c-.61,.61-.95,1.43-.95,2.29s.34,1.69,.95,2.29c.61,.61,1.43,.95,2.29,.95Z" fill="#069" stroke="#069" stroke-linejoin="round" stroke-width="2.6"/>
    <path id="mfed68caf5e-40" data-name="mfed68caf5e" d="M572.15,247.06c.86,0,1.69-.34,2.29-.95,.61-.61,.95-1.43,.95-2.29s-.34-1.69-.95-2.29c-.61-.61-1.43-.95-2.29-.95s-1.69,.34-2.29,.95c-.61,.61-.95,1.43-.95,2.29s.34,1.69,.95,2.29c.61,.61,1.43,.95,2.29,.95Z" fill="#069" stroke="#069" stroke-linejoin="round" stroke-width="2.6"/>
    <path id="mfed68caf5e-41" data-name="mfed68caf5e" d="M582.73,255.51c.86,0,1.69-.34,2.29-.95,.61-.61,.95-1.43,.95-2.29s-.34-1.69-.95-2.29c-.61-.61-1.43-.95-2.29-.95s-1.69,.34-2.29,.95c-.61,.61-.95,1.43-.95,2.29s.34,1.69,.95,2.29c.61,.61,1.43,.95,2.29,.95Z" fill="#069" stroke="#069" stroke-linejoin="round" stroke-width="2.6"/>
    <path id="mfed68caf5e-42" data-name="mfed68caf5e" d="M593.31,278.24c.86,0,1.69-.34,2.29-.95,.61-.61,.95-1.43,.95-2.29s-.34-1.69-.95-2.29c-.61-.61-1.43-.95-2.29-.95s-1.69,.34-2.29,.95c-.61,.61-.95,1.43-.95,2.29s.34,1.69,.95,2.29c.61,.61,1.43,.95,2.29,.95Z" fill="#069" stroke="#069" stroke-linejoin="round" stroke-width="2.6"/>
    <path id="mfed68caf5e-43" data-name="mfed68caf5e" d="M603.89,302.25c.86,0,1.69-.34,2.29-.95,.61-.61,.95-1.43,.95-2.29s-.34-1.69-.95-2.29c-.61-.61-1.43-.95-2.29-.95s-1.69,.34-2.29,.95c-.61,.61-.95,1.43-.95,2.29s.34,1.69,.95,2.29c.61,.61,1.43,.95,2.29,.95Z" fill="#069" stroke="#069" stroke-linejoin="round" stroke-width="2.6"/>
    <path id="mfed68caf5e-44" data-name="mfed68caf5e" d="M614.47,281.3c.86,0,1.69-.34,2.29-.95,.61-.61,.95-1.43,.95-2.29s-.34-1.69-.95-2.29c-.61-.61-1.43-.95-2.29-.95s-1.69,.34-2.29,.95c-.61,.61-.95,1.43-.95,2.29s.34,1.69,.95,2.29c.61,.61,1.43,.95,2.29,.95Z" fill="#069" stroke="#069" stroke-linejoin="round" stroke-width="2.6"/>
    <path id="mfed68caf5e-45" data-name="mfed68caf5e" d="M625.05,267.81c.86,0,1.69-.34,2.29-.95,.61-.61,.95-1.43,.95-2.29s-.34-1.69-.95-2.29c-.61-.61-1.43-.95-2.29-.95s-1.69,.34-2.29,.95c-.61,.61-.95,1.43-.95,2.29s.34,1.69,.95,2.29c.61,.61,1.43,.95,2.29,.95Z" fill="#069" stroke="#069" stroke-linejoin="round" stroke-width="2.6"/>
    <path id="mfed68caf5e-46" data-name="mfed68caf5e" d="M635.63,313.73c.86,0,1.69-.34,2.29-.95,.61-.61,.95-1.43,.95-2.29s-.34-1.69-.95-2.29c-.61-.61-1.43-.95-2.29-.95s-1.69,.34-2.29,.95c-.61,.61-.95,1.43-.95,2.29s.34,1.69,.95,2.29c.61,.61,1.43,.95,2.29,.95Z" fill="#069" stroke="#069" stroke-linejoin="round" stroke-width="2.6"/>
    <path id="mfed68caf5e-47" data-name="mfed68caf5e" d="M646.21,273.07c.86,0,1.69-.34,2.29-.95,.61-.61,.95-1.43,.95-2.29s-.34-1.69-.95-2.29c-.61-.61-1.43-.95-2.29-.95s-1.69,.34-2.29,.95c-.61,.61-.95,1.43-.95,2.29s.34,1.69,.95,2.29c.61,.61,1.43,.95,2.29,.95Z" fill="#069" stroke="#069" stroke-linejoin="round" stroke-width="2.6"/>
    <path id="mfed68caf5e-48" data-name="mfed68caf5e" d="M656.78,300.66c.86,0,1.69-.34,2.29-.95,.61-.61,.95-1.43,.95-2.29s-.34-1.69-.95-2.29c-.61-.61-1.43-.95-2.29-.95s-1.69,.34-2.29,.95c-.61,.61-.95,1.43-.95,2.29s.34,1.69,.95,2.29c.61,.61,1.43,.95,2.29,.95Z" fill="#069" stroke="#069" stroke-linejoin="round" stroke-width="2.6"/>
    <path id="mfed68caf5e-49" data-name="mfed68caf5e" d="M667.36,289.99c.86,0,1.69-.34,2.29-.95,.61-.61,.95-1.43,.95-2.29s-.34-1.69-.95-2.29c-.61-.61-1.43-.95-2.29-.95s-1.69,.34-2.29,.95c-.61,.61-.95,1.43-.95,2.29s.34,1.69,.95,2.29c.61,.61,1.43,.95,2.29,.95Z" fill="#069" stroke="#069" stroke-linejoin="round" stroke-width="2.6"/>
    <path id="mfed68caf5e-50" data-name="mfed68caf5e" d="M677.94,296.13c.86,0,1.69-.34,2.29-.95,.61-.61,.95-1.43,.95-2.29s-.34-1.69-.95-2.29c-.61-.61-1.43-.95-2.29-.95s-1.69,.34-2.29,.95c-.61,.61-.95,1.43-.95,2.29s.34,1.69,.95,2.29c.61,.61,1.43,.95,2.29,.95Z" fill="#069" stroke="#069" stroke-linejoin="round" stroke-width="2.6"/>
    <path id="mfed68caf5e-51" data-name="mfed68caf5e" d="M688.52,295.07c.86,0,1.69-.34,2.29-.95,.61-.61,.95-1.43,.95-2.29s-.34-1.69-.95-2.29c-.61-.61-1.43-.95-2.29-.95s-1.69,.34-2.29,.95c-.61,.61-.95,1.43-.95,2.29s.34,1.69,.95,2.29c.61,.61,1.43,.95,2.29,.95Z" fill="#069" stroke="#069" stroke-linejoin="round" stroke-width="2.6"/>
    <path id="mfed68caf5e-52" data-name="mfed68caf5e" d="M699.1,306.9c.86,0,1.69-.34,2.29-.95,.61-.61,.95-1.43,.95-2.29s-.34-1.69-.95-2.29c-.61-.61-1.43-.95-2.29-.95s-1.69,.34-2.29,.95c-.61,.61-.95,1.43-.95,2.29s.34,1.69,.95,2.29c.61,.61,1.43,.95,2.29,.95Z" fill="#069" stroke="#069" stroke-linejoin="round" stroke-width="2.6"/>
    <path id="mfed68caf5e-53" data-name="mfed68caf5e" d="M709.68,324.01c.86,0,1.69-.34,2.29-.95,.61-.61,.95-1.43,.95-2.29s-.34-1.69-.95-2.29c-.61-.61-1.43-.95-2.29-.95s-1.69,.34-2.29,.95c-.61,.61-.95,1.43-.95,2.29s.34,1.69,.95,2.29c.61,.61,1.43,.95,2.29,.95Z" fill="#069" stroke="#069" stroke-linejoin="round" stroke-width="2.6"/>
    <path id="mfed68caf5e-54" data-name="mfed68caf5e" d="M720.26,319.74c.86,0,1.69-.34,2.29-.95,.61-.61,.95-1.43,.95-2.29s-.34-1.69-.95-2.29c-.61-.61-1.43-.95-2.29-.95s-1.69,.34-2.29,.95c-.61,.61-.95,1.43-.95,2.29s.34,1.69,.95,2.29c.61,.61,1.43,.95,2.29,.95Z" fill="#069" stroke="#069" stroke-linejoin="round" stroke-width="2.6"/>
    <path id="mfed68caf5e-55" data-name="mfed68caf5e" d="M730.84,341.24c.86,0,1.69-.34,2.29-.95,.61-.61,.95-1.43,.95-2.29s-.34-1.69-.95-2.29c-.61-.61-1.43-.95-2.29-.95s-1.69,.34-2.29,.95c-.61,.61-.95,1.43-.95,2.29s.34,1.69,.95,2.29c.61,.61,1.43,.95,2.29,.95Z" fill="#069" stroke="#069" stroke-linejoin="round" stroke-width="2.6"/>
    <path id="mfed68caf5e-56" data-name="mfed68caf5e" d="M741.42,315.46c.86,0,1.69-.34,2.29-.95,.61-.61,.95-1.43,.95-2.29s-.34-1.69-.95-2.29c-.61-.61-1.43-.95-2.29-.95s-1.69,.34-2.29,.95c-.61,.61-.95,1.43-.95,2.29s.34,1.69,.95,2.29c.61,.61,1.43,.95,2.29,.95Z" fill="#069" stroke="#069" stroke-linejoin="round" stroke-width="2.6"/>
    <path id="mfed68caf5e-57" data-name="mfed68caf5e" d="M752,320.26c.86,0,1.69-.34,2.29-.95,.61-.61,.95-1.43,.95-2.29s-.34-1.69-.95-2.29c-.61-.61-1.43-.95-2.29-.95s-1.69,.34-2.29,.95c-.61,.61-.95,1.43-.95,2.29s.34,1.69,.95,2.29c.61,.61,1.43,.95,2.29,.95Z" fill="#069" stroke="#069" stroke-linejoin="round" stroke-width="2.6"/>
    <path id="mfed68caf5e-58" data-name="mfed68caf5e" d="M762.58,343.15c.86,0,1.69-.34,2.29-.95,.61-.61,.95-1.43,.95-2.29s-.34-1.69-.95-2.29c-.61-.61-1.43-.95-2.29-.95s-1.69,.34-2.29,.95c-.61,.61-.95,1.43-.95,2.29s.34,1.69,.95,2.29c.61,.61,1.43,.95,2.29,.95Z" fill="#069" stroke="#069" stroke-linejoin="round" stroke-width="2.6"/>
    <path id="mfed68caf5e-59" data-name="mfed68caf5e" d="M773.16,333.52c.86,0,1.69-.34,2.29-.95,.61-.61,.95-1.43,.95-2.29s-.34-1.69-.95-2.29c-.61-.61-1.43-.95-2.29-.95s-1.69,.34-2.29,.95c-.61,.61-.95,1.43-.95,2.29s.34,1.69,.95,2.29c.61,.61,1.43,.95,2.29,.95Z" fill="#069" stroke="#069" stroke-linejoin="round" stroke-width="2.6"/>
    <path id="mfed68caf5e-60" data-name="mfed68caf5e" d="M783.74,303.18c.86,0,1.69-.34,2.29-.95,.61-.61,.95-1.43,.95-2.29s-.34-1.69-.95-2.29c-.61-.61-1.43-.95-2.29-.95s-1.69,.34-2.29,.95c-.61,.61-.95,1.43-.95,2.29s.34,1.69,.95,2.29c.61,.61,1.43,.95,2.29,.95Z" fill="#069" stroke="#069" stroke-linejoin="round" stroke-width="2.6"/>
    <path id="mfed68caf5e-61" data-name="mfed68caf5e" d="M794.32,326.86c.86,0,1.69-.34,2.29-.95,.61-.61,.95-1.43,.95-2.29s-.34-1.69-.95-2.29c-.61-.61-1.43-.95-2.29-.95s-1.69,.34-2.29,.95c-.61,.61-.95,1.43-.95,2.29s.34,1.69,.95,2.29c.61,.61,1.43,.95,2.29,.95Z" fill="#069" stroke="#069" stroke-linejoin="round" stroke-width="2.6"/>
    <path id="mfed68caf5e-62" data-name="mfed68caf5e" d="M804.9,304.09c.86,0,1.69-.34,2.29-.95,.61-.61,.95-1.43,.95-2.29s-.34-1.69-.95-2.29c-.61-.61-1.43-.95-2.29-.95s-1.69,.34-2.29,.95c-.61,.61-.95,1.43-.95,2.29s.34,1.69,.95,2.29c.61,.61,1.43,.95,2.29,.95Z" fill="#069" stroke="#069" stroke-linejoin="round" stroke-width="2.6"/>
    <path id="mfed68caf5e-63" data-name="mfed68caf5e" d="M815.48,295.01c.86,0,1.69-.34,2.29-.95,.61-.61,.95-1.43,.95-2.29s-.34-1.69-.95-2.29c-.61-.61-1.43-.95-2.29-.95s-1.69,.34-2.29,.95c-.61,.61-.95,1.43-.95,2.29s.34,1.69,.95,2.29c.61,.61,1.43,.95,2.29,.95Z" fill="#069" stroke="#069" stroke-linejoin="round" stroke-width="2.6"/>
    <path id="mfed68caf5e-64" data-name="mfed68caf5e" d="M826.06,295c.86,0,1.69-.34,2.29-.95,.61-.61,.95-1.43,.95-2.29s-.34-1.69-.95-2.29c-.61-.61-1.43-.95-2.29-.95s-1.69,.34-2.29,.95c-.61,.61-.95,1.43-.95,2.29s.34,1.69,.95,2.29c.61,.61,1.43,.95,2.29,.95Z" fill="#069" stroke="#069" stroke-linejoin="round" stroke-width="2.6"/>
    <path id="mfed68caf5e-65" data-name="mfed68caf5e" d="M836.64,294.92c.86,0,1.69-.34,2.29-.95,.61-.61,.95-1.43,.95-2.29s-.34-1.69-.95-2.29c-.61-.61-1.43-.95-2.29-.95s-1.69,.34-2.29,.95c-.61,.61-.95,1.43-.95,2.29s.34,1.69,.95,2.29c.61,.61,1.43,.95,2.29,.95Z" fill="#069" stroke="#069" stroke-linejoin="round" stroke-width="2.6"/>
    <path id="mfed68caf5e-66" data-name="mfed68caf5e" d="M847.22,262.9c.86,0,1.69-.34,2.29-.95,.61-.61,.95-1.43,.95-2.29s-.34-1.69-.95-2.29c-.61-.61-1.43-.95-2.29-.95s-1.69,.34-2.29,.95c-.61,.61-.95,1.43-.95,2.29s.34,1.69,.95,2.29c.61,.61,1.43,.95,2.29,.95Z" fill="#069" stroke="#069" stroke-linejoin="round" stroke-width="2.6"/>
    <path id="mfed68caf5e-67" data-name="mfed68caf5e" d="M857.8,291.16c.86,0,1.69-.34,2.29-.95,.61-.61,.95-1.43,.95-2.29s-.34-1.69-.95-2.29c-.61-.61-1.43-.95-2.29-.95s-1.69,.34-2.29,.95c-.61,.61-.95,1.43-.95,2.29s.34,1.69,.95,2.29c.61,.61,1.43,.95,2.29,.95Z" fill="#069" stroke="#069" stroke-linejoin="round" stroke-width="2.6"/>
    <path id="mfed68caf5e-68" data-name="mfed68caf5e" d="M868.38,278.3c.86,0,1.69-.34,2.29-.95,.61-.61,.95-1.43,.95-2.29s-.34-1.69-.95-2.29c-.61-.61-1.43-.95-2.29-.95s-1.69,.34-2.29,.95c-.61,.61-.95,1.43-.95,2.29s.34,1.69,.95,2.29c.61,.61,1.43,.95,2.29,.95Z" fill="#069" stroke="#069" stroke-linejoin="round" stroke-width="2.6"/>
    <path id="mfed68caf5e-69" data-name="mfed68caf5e" d="M878.96,281.36c.86,0,1.69-.34,2.29-.95,.61-.61,.95-1.43,.95-2.29s-.34-1.69-.95-2.29c-.61-.61-1.43-.95-2.29-.95s-1.69,.34-2.29,.95c-.61,.61-.95,1.43-.95,2.29s.34,1.69,.95,2.29c.61,.61,1.43,.95,2.29,.95Z" fill="#069" stroke="#069" stroke-linejoin="round" stroke-width="2.6"/>
    <path id="mfed68caf5e-70" data-name="mfed68caf5e" d="M889.53,252.99c.86,0,1.69-.34,2.29-.95,.61-.61,.95-1.43,.95-2.29s-.34-1.69-.95-2.29c-.61-.61-1.43-.95-2.29-.95s-1.69,.34-2.29,.95c-.61,.61-.95,1.43-.95,2.29s.34,1.69,.95,2.29c.61,.61,1.43,.95,2.29,.95Z" fill="#069" stroke="#069" stroke-linejoin="round" stroke-width="2.6"/>
    <path id="mfed68caf5e-71" data-name="mfed68caf5e" d="M900.11,297.84c.86,0,1.69-.34,2.29-.95,.61-.61,.95-1.43,.95-2.29s-.34-1.69-.95-2.29c-.61-.61-1.43-.95-2.29-.95s-1.69,.34-2.29,.95c-.61,.61-.95,1.43-.95,2.29s.34,1.69,.95,2.29c.61,.61,1.43,.95,2.29,.95Z" fill="#069" stroke="#069" stroke-linejoin="round" stroke-width="2.6"/>
  </g>
  <path d="M159.55,23.3l4.18,15.72,4.18,19.01,4.18,21.87,4.18,24.27,6.28,39.87,8.37,57.07,12.55,86.29,6.28,40.27,6.28,36.66,4.18,21.92,4.18,19.61,4.18,17.09,4.18,14.42,4.18,11.65,2.09,4.76,2.09,4.05,2.09,3.33,2.09,2.62,2.09,1.92,2.09,1.22,2.09,.53,2.09-.15,2.09-.81,2.09-1.45,2.09-2.07,2.09-2.67,2.09-3.25,2.09-3.81,4.18-9.16,4.18-11.04,4.18-12.66,4.18-14.02,6.28-22.98,8.37-32.81,12.55-49.47,6.28-23.03,6.28-20.93,4.18-12.49,4.18-11.15,4.18-9.7,4.18-8.17,4.18-6.57,2.09-2.67,2.09-2.26,2.09-1.85,2.09-1.45,2.09-1.04,2.09-.64,2.09-.25,2.09,.14,2.09,.52,2.09,.88,2.09,1.24,2.09,1.58,4.18,4.14,4.18,5.34,4.18,6.41,4.18,7.33,6.28,12.38,6.28,13.58,23.01,51.49,6.28,12.39,4.18,7.47,4.18,6.74,4.18,5.93,4.18,5.07,4.18,4.17,4.18,3.24,4.18,2.3,4.18,1.36,4.18,.45,4.18-.44,4.18-1.28,4.18-2.06,4.18-2.78,4.18-3.42,4.18-3.99,6.28-6.85,6.28-7.63,12.55-16.35,10.46-13.33,6.28-7.31,6.28-6.54,4.18-3.84,4.18-3.37,4.18-2.87,4.18-2.35,4.18-1.82,4.18-1.28,4.18-.74,4.18-.22,4.18,.29,4.18,.77,4.18,1.21,4.18,1.62,6.28,3.11,6.28,3.77,8.37,5.77,29.29,21.2,6.28,3.73,6.28,3.18,6.28,2.55,6.28,1.88,6.28,1.18,6.28,.49,6.28-.17,6.28-.79,6.28-1.34,6.28-1.8,8.37-2.98,10.46-4.31,20.92-8.81,8.37-3.02,8.37-2.48,6.28-1.45,6.28-1.06,6.28-.66,6.28-.26,6.28,.11,8.37,.69,8.37,1.22,10.46,2.1,14.64,3.52,18.83,4.47,10.46,2.02,10.46,1.48,8.37,.75,8.37,.34,10.46-.12,2.09-.09h0" fill="none" stroke="red" stroke-linecap="round" stroke-linejoin="round" stroke-width="4"/>
  <rect x="122.49" y="1" width="814.66" height="490.49" fill="none" stroke="#000" stroke-linecap="square" stroke-linejoin="round" stroke-width="2"/>
  <g>
    <path d="M80.02,51.61v-1.6l5.43-3.86h1.29v19.82h-1.43v-18.04l-5.29,3.69Z"/>
    <path d="M94.66,63.39v2.57h-2.52v-2.57h2.52Z"/>
    <path d="M98.78,64.42l8.26-8.92c1.32-1.43,1.97-2.86,1.97-4.35,0-2.35-1.6-4.03-4.32-4.03s-4.43,1.86-4.43,5.09h-1.52c0-4,2.43-6.46,5.95-6.46,3.26,0,5.75,2.09,5.75,5.4,0,1.77-.86,3.66-2.29,5.18l-7.75,8.26h10.55v1.37h-12.18v-1.54Z"/>
  </g>
  <line x1="122.49" y1="58.63" x2="129.68" y2="58.63" fill="none" stroke="#000" stroke-linecap="round" stroke-linejoin="round" stroke-width="2"/>
  <g>
    <path d="M78.16,142.22v-1.6l5.43-3.86h1.29v19.82h-1.43v-18.04l-5.29,3.69Z"/>
    <path d="M92.8,154v2.57h-2.52v-2.57h2.52Z"/>
    <path d="M99.61,155.35c-2.15-1.97-2.46-5.55-2.46-8.69s.31-6.69,2.46-8.66c.97-.89,2.32-1.63,4.23-1.63s3.29,.71,4.23,1.63c2.12,2.03,2.46,5.55,2.46,8.66s-.31,6.72-2.46,8.69c-.94,.89-2.32,1.63-4.23,1.63s-3.26-.74-4.23-1.63Zm7.52-.92c1.86-1.74,1.97-5.18,1.97-7.78s-.09-6-1.97-7.75c-.77-.71-1.8-1.17-3.29-1.17s-2.52,.49-3.26,1.17c-1.89,1.74-1.97,5.18-1.97,7.75s.09,6.03,1.97,7.78c.74,.69,1.8,1.17,3.26,1.17s2.54-.46,3.29-1.17Z"/>
  </g>
  <line x1="122.49" y1="149.24" x2="129.68" y2="149.24" fill="none" stroke="#000" stroke-linecap="round" stroke-linejoin="round" stroke-width="2"/>
  <g>
    <path d="M75.47,245.96c-2.14-1.97-2.46-5.55-2.46-8.69s.31-6.69,2.46-8.66c.97-.89,2.32-1.63,4.23-1.63s3.29,.71,4.23,1.63c2.12,2.03,2.46,5.55,2.46,8.66s-.31,6.72-2.46,8.69c-.94,.89-2.32,1.63-4.23,1.63s-3.26-.74-4.23-1.63Zm7.52-.92c1.86-1.74,1.97-5.18,1.97-7.78s-.09-6-1.97-7.75c-.77-.71-1.8-1.17-3.29-1.17s-2.52,.49-3.26,1.17c-1.89,1.74-1.97,5.18-1.97,7.75s.09,6.03,1.97,7.78c.74,.69,1.8,1.17,3.26,1.17s2.54-.46,3.29-1.17Z"/>
    <path d="M93.26,244.61v2.57h-2.52v-2.57h2.52Z"/>
    <path d="M97.49,241.95c0-2.23,1.43-4.38,3.69-5.12-1.94-.71-3.23-2.6-3.23-4.58,0-3.32,2.72-5.29,6.12-5.29s6.12,1.97,6.12,5.29c0,1.97-1.29,3.86-3.23,4.58,2.26,.74,3.69,2.89,3.69,5.12,0,3.55-3.03,5.63-6.58,5.63s-6.58-2.09-6.58-5.63Zm11.7-.09c0-2.83-2.29-4.4-5.12-4.4s-5.12,1.57-5.12,4.4,2.29,4.4,5.12,4.4,5.12-1.57,5.12-4.4Zm-.49-9.67c0-2.54-2.09-3.95-4.63-3.95s-4.63,1.4-4.63,3.95,2.03,4,4.63,4,4.63-1.4,4.63-4Z"/>
  </g>
  <line x1="122.49" y1="239.86" x2="129.68" y2="239.86" fill="none" stroke="#000" stroke-linecap="round" stroke-linejoin="round" stroke-width="2"/>
  <g>
    <path d="M75.44,336.57c-2.14-1.97-2.46-5.55-2.46-8.69s.31-6.69,2.46-8.66c.97-.89,2.32-1.63,4.23-1.63s3.29,.71,4.23,1.63c2.12,2.03,2.46,5.55,2.46,8.66s-.31,6.72-2.46,8.69c-.94,.89-2.32,1.63-4.23,1.63s-3.26-.74-4.23-1.63Zm7.52-.92c1.86-1.74,1.97-5.18,1.97-7.78s-.09-6-1.97-7.75c-.77-.71-1.8-1.17-3.29-1.17s-2.52,.49-3.26,1.17c-1.89,1.74-1.97,5.18-1.97,7.75s.09,6.03,1.97,7.78c.74,.69,1.8,1.17,3.26,1.17s2.54-.46,3.29-1.17Z"/>
    <path d="M93.23,335.23v2.57h-2.52v-2.57h2.52Z"/>
    <path d="M99.38,335.77c-1.52-2.03-1.83-5.06-1.83-7.89,0-3.03,.4-6.32,2.34-8.41,.94-1,2.43-1.89,4.49-1.89,3.35,0,5.75,2.06,5.92,5.18h-1.46c-.2-2.29-1.72-3.8-4.46-3.8-4.43,0-5.35,4.78-5.35,9.49,.71-2.09,2.89-3.49,5.23-3.49,4.12,0,6.49,2.66,6.49,6.58,0,3.66-2.34,6.66-6.46,6.66-2.32,0-3.97-1.17-4.92-2.43Zm9.92-4.23c0-2.75-1.57-5.26-5-5.26-2.86,0-4.86,2.32-4.86,5.2s1.72,5.35,4.89,5.35c3.43,0,4.98-2.52,4.98-5.29Z"/>
  </g>
  <line x1="122.49" y1="330.47" x2="129.68" y2="330.47" fill="none" stroke="#000" stroke-linecap="round" stroke-linejoin="round" stroke-width="2"/>
  <g>
    <path d="M76.13,427.19c-2.15-1.97-2.46-5.55-2.46-8.69s.31-6.69,2.46-8.66c.97-.89,2.32-1.63,4.23-1.63s3.29,.71,4.23,1.63c2.12,2.03,2.46,5.55,2.46,8.66s-.31,6.72-2.46,8.69c-.94,.89-2.32,1.63-4.23,1.63s-3.26-.74-4.23-1.63Zm7.52-.92c1.86-1.74,1.97-5.18,1.97-7.78s-.09-6-1.97-7.75c-.77-.71-1.8-1.17-3.29-1.17s-2.52,.49-3.26,1.17c-1.89,1.74-1.97,5.18-1.97,7.75s.09,6.03,1.97,7.78c.74,.69,1.8,1.17,3.26,1.17s2.54-.46,3.29-1.17Z"/>
    <path d="M93.91,425.85v2.57h-2.52v-2.57h2.52Z"/>
    <path d="M107.13,423.76h-9.89v-1.72l8.58-13.44h1.69l-8.81,13.73h8.44v-6.55h1.46v6.55h2.95v1.43h-2.95v4.66h-1.46v-4.66Z"/>
  </g>
  <line x1="122.49" y1="421.09" x2="129.68" y2="421.09" fill="none" stroke="#000" stroke-linecap="round" stroke-linejoin="round" stroke-width="2"/>
  <g>
    <path d="M18.06,276.61v9.61l6.38,2.43v1.57l-20.27-7.86v-1.8l20.27-7.95v1.54l-6.38,2.46Zm-1.37,.54l-11.15,4.32,11.15,4.23v-8.55Z"/>
    <path d="M15.2,263.51c-4.46,0-9.44-1.63-12.9-4.72l.69-.89c3.6,2.8,7.52,4.26,12.21,4.26s8.61-1.46,12.21-4.26l.69,.89c-3.46,3.09-8.44,4.72-12.9,4.72Z"/>
    <path d="M20.46,255.85c-2.54,0-4.12-1.94-4.32-4.8l-.37-5.26h-1.26c-2.4,0-3.43,1.74-3.43,3.95s1.03,3.92,3.17,4.06v1.43c-2.95-.2-4.52-2.57-4.52-5.43,0-3.26,1.6-5.43,4.89-5.43h7.06c.97,0,1.54-.14,1.54-1.12,0-.11,0-.29-.03-.4h1.26c.06,.2,.09,.46,.09,.69,0,1.77-1.34,2.26-2.86,2.26,2.03,.77,3.15,2.95,3.15,5.15,0,2.77-1.69,4.92-4.38,4.92Zm-2.63-10.07h-.74l.31,5.12c.14,2.2,1.34,3.49,3.03,3.49,2,0,3.09-1.54,3.09-3.57,0-3.6-2.92-5.03-5.69-5.03Z"/>
    <path d="M21.86,236.66h2.57v2.52h-2.57v-2.52Z"/>
    <path d="M19.38,231.71H10.14v-1.43h9.15c2.49,0,4.15-1.23,4.15-3.75,0-3.32-2.66-4.69-5.86-4.69h-7.43v-1.43h14.3v1.32l-2.69,.11c1.89,.8,3.09,2.63,3.09,4.78,0,3.23-2.26,5.09-5.46,5.09Z"/>
    <path d="M21.86,212.78h2.57v2.52h-2.57v-2.52Z"/>
    <path d="M27.41,209.74c-3.6-2.8-7.52-4.26-12.21-4.26s-8.61,1.46-12.21,4.26l-.69-.89c3.46-3.09,8.44-4.72,12.9-4.72s9.44,1.63,12.9,4.72l-.69,.89Z"/>
  </g>
  <line x1="159.55" y1="491.49" x2="159.55" y2="484.3" fill="none" stroke="#000" stroke-linecap="round" stroke-linejoin="round" stroke-width="2"/>
  <g>
    <path d="M143.01,520.23c-2.14-1.97-2.46-5.55-2.46-8.69s.31-6.69,2.46-8.66c.97-.89,2.32-1.63,4.23-1.63s3.29,.71,4.23,1.63c2.12,2.03,2.46,5.55,2.46,8.66s-.31,6.72-2.46,8.69c-.94,.89-2.32,1.63-4.23,1.63s-3.26-.74-4.23-1.63Zm7.52-.92c1.86-1.74,1.97-5.18,1.97-7.78s-.09-6-1.97-7.75c-.77-.71-1.8-1.17-3.29-1.17s-2.52,.49-3.26,1.17c-1.89,1.74-1.97,5.18-1.97,7.75s.09,6.03,1.97,7.78c.74,.69,1.8,1.17,3.26,1.17s2.54-.46,3.29-1.17Z"/>
    <path d="M160.8,518.89v2.57h-2.52v-2.57h2.52Z"/>
    <path d="M167.61,520.23c-2.15-1.97-2.46-5.55-2.46-8.69s.31-6.69,2.46-8.66c.97-.89,2.32-1.63,4.23-1.63s3.29,.71,4.23,1.63c2.12,2.03,2.46,5.55,2.46,8.66s-.31,6.72-2.46,8.69c-.94,.89-2.32,1.63-4.23,1.63s-3.26-.74-4.23-1.63Zm7.52-.92c1.86-1.74,1.97-5.18,1.97-7.78s-.09-6-1.97-7.75c-.77-.71-1.8-1.17-3.29-1.17s-2.52,.49-3.26,1.17c-1.89,1.74-1.97,5.18-1.97,7.75s.09,6.03,1.97,7.78c.74,.69,1.8,1.17,3.26,1.17s2.54-.46,3.29-1.17Z"/>
  </g>
  <line x1="321.42" y1="491.49" x2="321.42" y2="484.3" fill="none" stroke="#000" stroke-linecap="round" stroke-linejoin="round" stroke-width="2"/>
  <g>
    <path d="M304.68,507.11v-1.6l5.43-3.86h1.29v19.82h-1.43v-18.04l-5.29,3.69Z"/>
    <path d="M319.33,518.89v2.57h-2.52v-2.57h2.52Z"/>
    <path d="M326.13,520.23c-2.15-1.97-2.46-5.55-2.46-8.69s.31-6.69,2.46-8.66c.97-.89,2.32-1.63,4.23-1.63s3.29,.71,4.23,1.63c2.12,2.03,2.46,5.55,2.46,8.66s-.31,6.72-2.46,8.69c-.94,.89-2.32,1.63-4.23,1.63s-3.26-.74-4.23-1.63Zm7.52-.92c1.86-1.74,1.97-5.18,1.97-7.78s-.09-6-1.97-7.75c-.77-.71-1.8-1.17-3.29-1.17s-2.52,.49-3.26,1.17c-1.89,1.74-1.97,5.18-1.97,7.75s.09,6.03,1.97,7.78c.74,.69,1.8,1.17,3.26,1.17s2.54-.46,3.29-1.17Z"/>
  </g>
  <line x1="483.29" y1="491.49" x2="483.29" y2="484.3" fill="none" stroke="#000" stroke-linecap="round" stroke-linejoin="round" stroke-width="2"/>
  <g>
    <path d="M465,519.92l8.26-8.92c1.32-1.43,1.97-2.86,1.97-4.35,0-2.34-1.6-4.03-4.32-4.03s-4.43,1.86-4.43,5.09h-1.52c0-4,2.43-6.46,5.95-6.46,3.26,0,5.75,2.09,5.75,5.4,0,1.77-.86,3.66-2.29,5.18l-7.75,8.26h10.55v1.37h-12.18v-1.54Z"/>
    <path d="M483.62,518.89v2.57h-2.52v-2.57h2.52Z"/>
    <path d="M490.43,520.23c-2.14-1.97-2.46-5.55-2.46-8.69s.31-6.69,2.46-8.66c.97-.89,2.32-1.63,4.23-1.63s3.29,.71,4.23,1.63c2.12,2.03,2.46,5.55,2.46,8.66s-.31,6.72-2.46,8.69c-.94,.89-2.32,1.63-4.23,1.63s-3.26-.74-4.23-1.63Zm7.52-.92c1.86-1.74,1.97-5.18,1.97-7.78s-.09-6-1.97-7.75c-.77-.71-1.8-1.17-3.29-1.17s-2.52,.49-3.26,1.17c-1.89,1.74-1.97,5.18-1.97,7.75s.09,6.03,1.97,7.78c.74,.69,1.8,1.17,3.26,1.17s2.54-.46,3.29-1.17Z"/>
  </g>
  <line x1="645.16" y1="491.49" x2="645.16" y2="484.3" fill="none" stroke="#000" stroke-linecap="round" stroke-linejoin="round" stroke-width="2"/>
  <g>
    <path d="M626.35,515.6h1.46c.03,2.52,1.6,4.89,5,4.89,3.03,0,4.92-1.8,4.92-4.32,0-2.97-2-4.35-5-4.35h-1.12v-1.37h1.12c2.72,0,4.58-1.26,4.58-3.92,0-2.29-2.03-3.92-4.46-3.92-3.03,0-4.86,1.92-4.89,4.58h-1.46c.06-3.55,2.69-5.95,6.35-5.95,3.32,0,5.92,2.14,5.92,5.29,0,2.14-1.17,4-3.46,4.6,2.49,.6,3.92,2.66,3.92,5.03,0,3.29-2.77,5.69-6.41,5.69-4.03,0-6.38-2.66-6.46-6.26Z"/>
    <path d="M645.97,518.89v2.57h-2.52v-2.57h2.52Z"/>
    <path d="M652.77,520.23c-2.14-1.97-2.46-5.55-2.46-8.69s.31-6.69,2.46-8.66c.97-.89,2.32-1.63,4.23-1.63s3.29,.71,4.23,1.63c2.12,2.03,2.46,5.55,2.46,8.66s-.31,6.72-2.46,8.69c-.94,.89-2.32,1.63-4.23,1.63s-3.26-.74-4.23-1.63Zm7.52-.92c1.86-1.74,1.97-5.18,1.97-7.78s-.09-6-1.97-7.75c-.77-.71-1.8-1.17-3.29-1.17s-2.52,.49-3.26,1.17c-1.89,1.74-1.97,5.18-1.97,7.75s.09,6.03,1.97,7.78c.74,.69,1.8,1.17,3.26,1.17s2.54-.46,3.29-1.17Z"/>
  </g>
  <line x1="807.04" y1="491.49" x2="807.04" y2="484.3" fill="none" stroke="#000" stroke-linecap="round" stroke-linejoin="round" stroke-width="2"/>
  <g>
    <path d="M797.47,516.8h-9.89v-1.72l8.58-13.44h1.69l-8.81,13.73h8.44v-6.55h1.46v6.55h2.95v1.43h-2.95v4.66h-1.46v-4.66Z"/>
    <path d="M807.74,518.89v2.57h-2.52v-2.57h2.52Z"/>
    <path d="M814.54,520.23c-2.14-1.97-2.46-5.55-2.46-8.69s.31-6.69,2.46-8.66c.97-.89,2.32-1.63,4.23-1.63s3.29,.71,4.23,1.63c2.12,2.03,2.46,5.55,2.46,8.66s-.31,6.72-2.46,8.69c-.94,.89-2.32,1.63-4.23,1.63s-3.26-.74-4.23-1.63Zm7.52-.92c1.86-1.74,1.97-5.18,1.97-7.78s-.09-6-1.97-7.75c-.77-.71-1.8-1.17-3.29-1.17s-2.52,.49-3.26,1.17c-1.89,1.74-1.97,5.18-1.97,7.75s.09,6.03,1.97,7.78c.74,.69,1.8,1.17,3.26,1.17s2.54-.46,3.29-1.17Z"/>
  </g>
  <g>
    <path d="M480.08,568.05c-1.66-1.4-2.4-3.69-2.4-6.15s.74-4.55,2.29-6c1-.94,2.4-1.57,4.17-1.57,2.32,0,4.09,1.29,4.75,2.89v-8.89h1.46v20.7h-1.34l-.11-2.72c-.8,1.92-2.89,3.12-4.86,3.12-1.69,0-2.97-.54-3.95-1.37Zm6.98-1.2c1.34-1.23,1.86-3,1.86-4.98,0-2.12-.49-3.77-1.83-5-.74-.69-1.74-1.14-3.09-1.14s-2.43,.49-3.2,1.29c-1.14,1.2-1.66,3.03-1.66,4.86,0,2.03,.57,3.97,1.94,5.12,.74,.63,1.74,1.03,2.97,1.03s2.26-.49,3-1.17Z"/>
    <path d="M496.58,567.42c-1.17-1.37-1.89-3.32-1.89-5.49,0-1.8,.29-3.57,1.43-5.09,1.23-1.63,2.92-2.52,5-2.52,3.95,0,6.32,3.15,6.32,6.95,0,.34,0,.54-.03,.94h-11.3c.06,3.17,1.92,5.83,5.12,5.83,2.26,0,4.03-1.49,4.38-3.32h1.49c-.43,2.69-3,4.69-5.86,4.69-2.06,0-3.72-.92-4.66-2Zm9.38-6.49c-.06-2.72-1.74-5.26-4.83-5.26s-4.92,2.46-4.98,5.26h9.81Z"/>
    <path d="M511.63,566.17v-17.84h1.43v17.79c0,.97,.29,1.72,1.49,1.72,.57,0,.83-.03,1.23-.09v1.29c-.31,.09-.69,.17-1.29,.17-1.83,0-2.86-.94-2.86-3.03Z"/>
    <path d="M517.75,565.05c0-2.54,1.94-4.12,4.8-4.32l5.26-.37v-1.26c0-2.4-1.74-3.43-3.95-3.43s-3.92,1.03-4.06,3.17h-1.43c.2-2.95,2.57-4.52,5.43-4.52,3.26,0,5.43,1.6,5.43,4.89v7.06c0,.97,.14,1.54,1.12,1.54,.11,0,.29,0,.4-.03v1.26c-.2,.06-.46,.09-.69,.09-1.77,0-2.26-1.34-2.26-2.86-.77,2.03-2.95,3.15-5.15,3.15-2.77,0-4.92-1.69-4.92-4.38Zm10.07-2.63v-.74l-5.12,.31c-2.2,.14-3.49,1.34-3.49,3.03,0,2,1.54,3.09,3.57,3.09,3.6,0,5.03-2.92,5.03-5.69Z"/>
    <path d="M532.88,574.6v-1.4c.51,.26,1.14,.43,1.86,.43,1.37,0,2.23-.63,2.89-2.29l.83-2.09-5.83-14.53h1.57l4.95,12.7,4.78-12.7h1.52l-6.55,17.1c-.89,2.32-2.17,3.17-4.06,3.17-.92,0-1.72-.26-1.94-.4Z"/>
    <path d="M554.84,559.79c0-4.46,1.63-9.44,4.72-12.9l.89,.69c-2.8,3.6-4.26,7.52-4.26,12.21s1.46,8.61,4.26,12.21l-.89,.69c-3.09-3.46-4.72-8.44-4.72-12.9Z"/>
    <path d="M562.39,564.68h1.46c.23,2.34,2.09,3.37,4.43,3.37s4.15-1.03,4.15-2.97c0-1.26-.89-2.32-2.63-2.54l-2.77-.37c-2.4-.31-4.03-1.46-4.03-3.63,0-2.54,2.46-4.2,5.15-4.2,3.09,0,5.32,1.77,5.4,4.35h-1.43c-.2-2.06-1.89-3-3.97-3s-3.69,1.12-3.69,2.72c0,1.17,.63,2.06,2.77,2.34l2.72,.37c2.69,.37,3.95,2.17,3.95,3.89,0,2.92-2.63,4.43-5.6,4.43-3.4,0-5.75-1.8-5.89-4.75Z"/>
    <path d="M575.89,572c2.8-3.6,4.26-7.52,4.26-12.21s-1.46-8.61-4.26-12.21l.89-.69c3.09,3.46,4.72,8.44,4.72,12.9s-1.63,9.44-4.72,12.9l-.89-.69Z"/>
  </g>
  <g>
    <path d="M878.37,554.67v-1.6l5.43-3.86h1.29v19.82h-1.43v-18.04l-5.29,3.69Z"/>
    <path d="M891.61,567.42c-1.17-1.37-1.89-3.32-1.89-5.49,0-1.8,.29-3.57,1.43-5.09,1.23-1.63,2.92-2.52,5-2.52,3.95,0,6.32,3.15,6.32,6.95,0,.34,0,.54-.03,.94h-11.29c.06,3.17,1.92,5.83,5.12,5.83,2.26,0,4.03-1.49,4.38-3.32h1.49c-.43,2.69-3,4.69-5.86,4.69-2.06,0-3.72-.92-4.66-2Zm9.38-6.49c-.06-2.72-1.74-5.26-4.83-5.26s-4.92,2.46-4.98,5.26h9.81Z"/>
    <path d="M919.18,559.73v1.32h-13.27v-1.32h13.27Z"/>
    <path d="M922.62,563.28h1.43c.14,2.8,2.09,4.78,5.09,4.78,3.17,0,4.98-2.23,4.98-5.23s-1.57-5.29-4.75-5.29c-1.77,0-3.52,.69-4.46,2.17h-1.69l.8-10.49h10.84v1.34h-9.61l-.66,7.72c1.09-1.4,3-2.09,4.78-2.09,4.09,0,6.18,2.86,6.18,6.63s-2.26,6.61-6.41,6.61-6.43-2.66-6.52-6.15Z"/>
  </g>
</svg>