<?xml version="1.0" encoding="UTF-8"?>
<svg id="Ebene_1" data-name="Ebene 1" xmlns="http://www.w3.org/2000/svg" viewBox="0 0 938.15 594.24">
  <g>
    <path id="m0ea4bf924e" d="M159.52,489.04c.86,0,1.68-.34,2.29-.95,.61-.61,.95-1.43,.95-2.29s-.34-1.68-.95-2.29c-.61-.61-1.43-.95-2.29-.95s-1.68,.34-2.29,.95c-.61,.61-.95,1.43-.95,2.29s.34,1.68,.95,2.29c.61,.61,1.43,.95,2.29,.95Z" fill="#069" stroke="#069" stroke-linejoin="round" stroke-width="2.6"/>
    <path id="m0ea4bf924e-2" data-name="m0ea4bf924e" d="M164.49,483.38c.86,0,1.68-.34,2.29-.95,.61-.61,.95-1.43,.95-2.29s-.34-1.68-.95-2.29c-.61-.61-1.43-.95-2.29-.95s-1.68,.34-2.29,.95c-.61,.61-.95,1.43-.95,2.29s.34,1.68,.95,2.29c.61,.61,1.43,.95,2.29,.95Z" fill="#069" stroke="#069" stroke-linejoin="round" stroke-width="2.6"/>
    <path id="m0ea4bf924e-3" data-name="m0ea4bf924e" d="M169.46,482.93c.86,0,1.68-.34,2.29-.95,.61-.61,.95-1.43,.95-2.29s-.34-1.68-.95-2.29c-.61-.61-1.43-.95-2.29-.95s-1.68,.34-2.29,.95c-.61,.61-.95,1.43-.95,2.29s.34,1.68,.95,2.29c.61,.61,1.43,.95,2.29,.95Z" fill="#069" stroke="#069" stroke-linejoin="round" stroke-width="2.6"/>
    <path id="m0ea4bf924e-4" data-name="m0ea4bf924e" d="M174.43,440.12c.86,0,1.68-.34,2.29-.95,.61-.61,.95-1.43,.95-2.29s-.34-1.68-.95-2.29c-.61-.61-1.43-.95-2.29-.95s-1.68,.34-2.29,.95c-.61,.61-.95,1.43-.95,2.29s.34,1.68,.95,2.29c.61,.61,1.43,.95,2.29,.95Z" fill="#069" stroke="#069" stroke-linejoin="round" stroke-width="2.6"/>
    <path id="m0ea4bf924e-5" data-name="m0ea4bf924e" d="M179.4,471.08c.86,0,1.68-.34,2.29-.95,.61-.61,.95-1.43,.95-2.29s-.34-1.68-.95-2.29c-.61-.61-1.43-.95-2.29-.95s-1.68,.34-2.29,.95c-.61,.61-.95,1.43-.95,2.29s.34,1.68,.95,2.29c.61,.61,1.43,.95,2.29,.95Z" fill="#069" stroke="#069" stroke-linejoin="round" stroke-width="2.6"/>
    <path id="m0ea4bf924e-6" data-name="m0ea4bf924e" d="M184.37,443.86c.86,0,1.68-.34,2.29-.95,.61-.61,.95-1.43,.95-2.29s-.34-1.68-.95-2.29c-.61-.61-1.43-.95-2.29-.95s-1.68,.34-2.29,.95c-.61,.61-.95,1.43-.95,2.29s.34,1.68,.95,2.29c.61,.61,1.43,.95,2.29,.95Z" fill="#069" stroke="#069" stroke-linejoin="round" stroke-width="2.6"/>
    <path id="m0ea4bf924e-7" data-name="m0ea4bf924e" d="M189.34,438.83c.86,0,1.68-.34,2.29-.95,.61-.61,.95-1.43,.95-2.29s-.34-1.68-.95-2.29c-.61-.61-1.43-.95-2.29-.95s-1.68,.34-2.29,.95c-.61,.61-.95,1.43-.95,2.29s.34,1.68,.95,2.29c.61,.61,1.43,.95,2.29,.95Z" fill="#069" stroke="#069" stroke-linejoin="round" stroke-width="2.6"/>
    <path id="m0ea4bf924e-8" data-name="m0ea4bf924e" d="M194.31,418.14c.86,0,1.68-.34,2.29-.95,.61-.61,.95-1.43,.95-2.29s-.34-1.68-.95-2.29c-.61-.61-1.43-.95-2.29-.95s-1.68,.34-2.29,.95c-.61,.61-.95,1.43-.95,2.29s.34,1.68,.95,2.29c.61,.61,1.43,.95,2.29,.95Z" fill="#069" stroke="#069" stroke-linejoin="round" stroke-width="2.6"/>
    <path id="m0ea4bf924e-9" data-name="m0ea4bf924e" d="M199.28,417.39c.86,0,1.68-.34,2.29-.95,.61-.61,.95-1.43,.95-2.29s-.34-1.68-.95-2.29c-.61-.61-1.43-.95-2.29-.95s-1.68,.34-2.29,.95c-.61,.61-.95,1.43-.95,2.29s.34,1.68,.95,2.29c.61,.61,1.43,.95,2.29,.95Z" fill="#069" stroke="#069" stroke-linejoin="round" stroke-width="2.6"/>
    <path id="m0ea4bf924e-10" data-name="m0ea4bf924e" d="M204.25,444.02c.86,0,1.68-.34,2.29-.95,.61-.61,.95-1.43,.95-2.29s-.34-1.68-.95-2.29c-.61-.61-1.43-.95-2.29-.95s-1.68,.34-2.29,.95c-.61,.61-.95,1.43-.95,2.29s.34,1.68,.95,2.29c.61,.61,1.43,.95,2.29,.95Z" fill="#069" stroke="#069" stroke-linejoin="round" stroke-width="2.6"/>
    <path id="m0ea4bf924e-11" data-name="m0ea4bf924e" d="M209.22,442.47c.86,0,1.68-.34,2.29-.95,.61-.61,.95-1.43,.95-2.29s-.34-1.68-.95-2.29c-.61-.61-1.43-.95-2.29-.95s-1.68,.34-2.29,.95c-.61,.61-.95,1.43-.95,2.29s.34,1.68,.95,2.29c.61,.61,1.43,.95,2.29,.95Z" fill="#069" stroke="#069" stroke-linejoin="round" stroke-width="2.6"/>
    <path id="m0ea4bf924e-12" data-name="m0ea4bf924e" d="M214.19,428.2c.86,0,1.68-.34,2.29-.95,.61-.61,.95-1.43,.95-2.29s-.34-1.68-.95-2.29c-.61-.61-1.43-.95-2.29-.95s-1.68,.34-2.29,.95c-.61,.61-.95,1.43-.95,2.29s.34,1.68,.95,2.29c.61,.61,1.43,.95,2.29,.95Z" fill="#069" stroke="#069" stroke-linejoin="round" stroke-width="2.6"/>
    <path id="m0ea4bf924e-13" data-name="m0ea4bf924e" d="M219.17,396.32c.86,0,1.68-.34,2.29-.95,.61-.61,.95-1.43,.95-2.29s-.34-1.68-.95-2.29c-.61-.61-1.43-.95-2.29-.95s-1.68,.34-2.29,.95c-.61,.61-.95,1.43-.95,2.29s.34,1.68,.95,2.29c.61,.61,1.43,.95,2.29,.95Z" fill="#069" stroke="#069" stroke-linejoin="round" stroke-width="2.6"/>
    <path id="m0ea4bf924e-14" data-name="m0ea4bf924e" d="M224.14,399.11c.86,0,1.68-.34,2.29-.95,.61-.61,.95-1.43,.95-2.29s-.34-1.68-.95-2.29c-.61-.61-1.43-.95-2.29-.95s-1.68,.34-2.29,.95c-.61,.61-.95,1.43-.95,2.29s.34,1.68,.95,2.29c.61,.61,1.43,.95,2.29,.95Z" fill="#069" stroke="#069" stroke-linejoin="round" stroke-width="2.6"/>
    <path id="m0ea4bf924e-15" data-name="m0ea4bf924e" d="M229.11,407.65c.86,0,1.68-.34,2.29-.95,.61-.61,.95-1.43,.95-2.29s-.34-1.68-.95-2.29c-.61-.61-1.43-.95-2.29-.95s-1.68,.34-2.29,.95c-.61,.61-.95,1.43-.95,2.29s.34,1.68,.95,2.29c.61,.61,1.43,.95,2.29,.95Z" fill="#069" stroke="#069" stroke-linejoin="round" stroke-width="2.6"/>
    <path id="m0ea4bf924e-16" data-name="m0ea4bf924e" d="M234.08,418.55c.86,0,1.68-.34,2.29-.95,.61-.61,.95-1.43,.95-2.29s-.34-1.68-.95-2.29c-.61-.61-1.43-.95-2.29-.95s-1.68,.34-2.29,.95c-.61,.61-.95,1.43-.95,2.29s.34,1.68,.95,2.29c.61,.61,1.43,.95,2.29,.95Z" fill="#069" stroke="#069" stroke-linejoin="round" stroke-width="2.6"/>
    <path id="m0ea4bf924e-17" data-name="m0ea4bf924e" d="M239.05,413.79c.86,0,1.68-.34,2.29-.95,.61-.61,.95-1.43,.95-2.29s-.34-1.68-.95-2.29c-.61-.61-1.43-.95-2.29-.95s-1.68,.34-2.29,.95c-.61,.61-.95,1.43-.95,2.29s.34,1.68,.95,2.29c.61,.61,1.43,.95,2.29,.95Z" fill="#069" stroke="#069" stroke-linejoin="round" stroke-width="2.6"/>
    <path id="m0ea4bf924e-18" data-name="m0ea4bf924e" d="M244.02,390.22c.86,0,1.68-.34,2.29-.95,.61-.61,.95-1.43,.95-2.29s-.34-1.68-.95-2.29c-.61-.61-1.43-.95-2.29-.95s-1.68,.34-2.29,.95c-.61,.61-.95,1.43-.95,2.29s.34,1.68,.95,2.29c.61,.61,1.43,.95,2.29,.95Z" fill="#069" stroke="#069" stroke-linejoin="round" stroke-width="2.6"/>
    <path id="m0ea4bf924e-19" data-name="m0ea4bf924e" d="M248.99,411.25c.86,0,1.68-.34,2.29-.95,.61-.61,.95-1.43,.95-2.29s-.34-1.68-.95-2.29c-.61-.61-1.43-.95-2.29-.95s-1.68,.34-2.29,.95c-.61,.61-.95,1.43-.95,2.29s.34,1.68,.95,2.29c.61,.61,1.43,.95,2.29,.95Z" fill="#069" stroke="#069" stroke-linejoin="round" stroke-width="2.6"/>
    <path id="m0ea4bf924e-20" data-name="m0ea4bf924e" d="M253.96,367.09c.86,0,1.68-.34,2.29-.95,.61-.61,.95-1.43,.95-2.29s-.34-1.68-.95-2.29c-.61-.61-1.43-.95-2.29-.95s-1.68,.34-2.29,.95c-.61,.61-.95,1.43-.95,2.29s.34,1.68,.95,2.29c.61,.61,1.43,.95,2.29,.95Z" fill="#069" stroke="#069" stroke-linejoin="round" stroke-width="2.6"/>
    <path id="m0ea4bf924e-21" data-name="m0ea4bf924e" d="M258.93,386.01c.86,0,1.68-.34,2.29-.95,.61-.61,.95-1.43,.95-2.29s-.34-1.68-.95-2.29c-.61-.61-1.43-.95-2.29-.95s-1.68,.34-2.29,.95c-.61,.61-.95,1.43-.95,2.29s.34,1.68,.95,2.29c.61,.61,1.43,.95,2.29,.95Z" fill="#069" stroke="#069" stroke-linejoin="round" stroke-width="2.6"/>
    <path id="m0ea4bf924e-22" data-name="m0ea4bf924e" d="M263.9,389.52c.86,0,1.68-.34,2.29-.95,.61-.61,.95-1.43,.95-2.29s-.34-1.68-.95-2.29c-.61-.61-1.43-.95-2.29-.95s-1.68,.34-2.29,.95c-.61,.61-.95,1.43-.95,2.29s.34,1.68,.95,2.29c.61,.61,1.43,.95,2.29,.95Z" fill="#069" stroke="#069" stroke-linejoin="round" stroke-width="2.6"/>
    <path id="m0ea4bf924e-23" data-name="m0ea4bf924e" d="M268.87,347.88c.86,0,1.68-.34,2.29-.95,.61-.61,.95-1.43,.95-2.29s-.34-1.68-.95-2.29c-.61-.61-1.43-.95-2.29-.95s-1.68,.34-2.29,.95c-.61,.61-.95,1.43-.95,2.29s.34,1.68,.95,2.29c.61,.61,1.43,.95,2.29,.95Z" fill="#069" stroke="#069" stroke-linejoin="round" stroke-width="2.6"/>
    <path id="m0ea4bf924e-24" data-name="m0ea4bf924e" d="M273.84,370.49c.86,0,1.68-.34,2.29-.95,.61-.61,.95-1.43,.95-2.29s-.34-1.68-.95-2.29c-.61-.61-1.43-.95-2.29-.95s-1.68,.34-2.29,.95c-.61,.61-.95,1.43-.95,2.29s.34,1.68,.95,2.29c.61,.61,1.43,.95,2.29,.95Z" fill="#069" stroke="#069" stroke-linejoin="round" stroke-width="2.6"/>
    <path id="m0ea4bf924e-25" data-name="m0ea4bf924e" d="M278.81,361.28c.86,0,1.68-.34,2.29-.95,.61-.61,.95-1.43,.95-2.29s-.34-1.68-.95-2.29c-.61-.61-1.43-.95-2.29-.95s-1.68,.34-2.29,.95c-.61,.61-.95,1.43-.95,2.29s.34,1.68,.95,2.29c.61,.61,1.43,.95,2.29,.95Z" fill="#069" stroke="#069" stroke-linejoin="round" stroke-width="2.6"/>
    <path id="m0ea4bf924e-26" data-name="m0ea4bf924e" d="M283.78,335.15c.86,0,1.68-.34,2.29-.95,.61-.61,.95-1.43,.95-2.29s-.34-1.68-.95-2.29c-.61-.61-1.43-.95-2.29-.95s-1.68,.34-2.29,.95c-.61,.61-.95,1.43-.95,2.29s.34,1.68,.95,2.29c.61,.61,1.43,.95,2.29,.95Z" fill="#069" stroke="#069" stroke-linejoin="round" stroke-width="2.6"/>
    <path id="m0ea4bf924e-27" data-name="m0ea4bf924e" d="M288.75,338.74c.86,0,1.68-.34,2.29-.95,.61-.61,.95-1.43,.95-2.29s-.34-1.68-.95-2.29c-.61-.61-1.43-.95-2.29-.95s-1.68,.34-2.29,.95c-.61,.61-.95,1.43-.95,2.29s.34,1.68,.95,2.29c.61,.61,1.43,.95,2.29,.95Z" fill="#069" stroke="#069" stroke-linejoin="round" stroke-width="2.6"/>
    <path id="m0ea4bf924e-28" data-name="m0ea4bf924e" d="M293.72,355.43c.86,0,1.68-.34,2.29-.95,.61-.61,.95-1.43,.95-2.29s-.34-1.68-.95-2.29c-.61-.61-1.43-.95-2.29-.95s-1.68,.34-2.29,.95c-.61,.61-.95,1.43-.95,2.29s.34,1.68,.95,2.29c.61,.61,1.43,.95,2.29,.95Z" fill="#069" stroke="#069" stroke-linejoin="round" stroke-width="2.6"/>
    <path id="m0ea4bf924e-29" data-name="m0ea4bf924e" d="M298.69,346.56c.86,0,1.68-.34,2.29-.95,.61-.61,.95-1.43,.95-2.29s-.34-1.68-.95-2.29c-.61-.61-1.43-.95-2.29-.95s-1.68,.34-2.29,.95c-.61,.61-.95,1.43-.95,2.29s.34,1.68,.95,2.29c.61,.61,1.43,.95,2.29,.95Z" fill="#069" stroke="#069" stroke-linejoin="round" stroke-width="2.6"/>
    <path id="m0ea4bf924e-30" data-name="m0ea4bf924e" d="M303.66,364.97c.86,0,1.68-.34,2.29-.95,.61-.61,.95-1.43,.95-2.29s-.34-1.68-.95-2.29c-.61-.61-1.43-.95-2.29-.95s-1.68,.34-2.29,.95c-.61,.61-.95,1.43-.95,2.29s.34,1.68,.95,2.29c.61,.61,1.43,.95,2.29,.95Z" fill="#069" stroke="#069" stroke-linejoin="round" stroke-width="2.6"/>
    <path id="m0ea4bf924e-31" data-name="m0ea4bf924e" d="M308.63,335.59c.86,0,1.68-.34,2.29-.95,.61-.61,.95-1.43,.95-2.29s-.34-1.68-.95-2.29c-.61-.61-1.43-.95-2.29-.95s-1.68,.34-2.29,.95c-.61,.61-.95,1.43-.95,2.29s.34,1.68,.95,2.29c.61,.61,1.43,.95,2.29,.95Z" fill="#069" stroke="#069" stroke-linejoin="round" stroke-width="2.6"/>
    <path id="m0ea4bf924e-32" data-name="m0ea4bf924e" d="M313.6,333.78c.86,0,1.68-.34,2.29-.95,.61-.61,.95-1.43,.95-2.29s-.34-1.68-.95-2.29c-.61-.61-1.43-.95-2.29-.95s-1.68,.34-2.29,.95c-.61,.61-.95,1.43-.95,2.29s.34,1.68,.95,2.29c.61,.61,1.43,.95,2.29,.95Z" fill="#069" stroke="#069" stroke-linejoin="round" stroke-width="2.6"/>
    <path id="m0ea4bf924e-33" data-name="m0ea4bf924e" d="M318.57,349.3c.86,0,1.68-.34,2.29-.95,.61-.61,.95-1.43,.95-2.29s-.34-1.68-.95-2.29c-.61-.61-1.43-.95-2.29-.95s-1.68,.34-2.29,.95c-.61,.61-.95,1.43-.95,2.29s.34,1.68,.95,2.29c.61,.61,1.43,.95,2.29,.95Z" fill="#069" stroke="#069" stroke-linejoin="round" stroke-width="2.6"/>
    <path id="m0ea4bf924e-34" data-name="m0ea4bf924e" d="M323.54,312.19c.86,0,1.68-.34,2.29-.95,.61-.61,.95-1.43,.95-2.29s-.34-1.68-.95-2.29c-.61-.61-1.43-.95-2.29-.95s-1.68,.34-2.29,.95c-.61,.61-.95,1.43-.95,2.29s.34,1.68,.95,2.29c.61,.61,1.43,.95,2.29,.95Z" fill="#069" stroke="#069" stroke-linejoin="round" stroke-width="2.6"/>
    <path id="m0ea4bf924e-35" data-name="m0ea4bf924e" d="M328.52,314.85c.86,0,1.68-.34,2.29-.95,.61-.61,.95-1.43,.95-2.29s-.34-1.68-.95-2.29c-.61-.61-1.43-.95-2.29-.95s-1.68,.34-2.29,.95c-.61,.61-.95,1.43-.95,2.29s.34,1.68,.95,2.29c.61,.61,1.43,.95,2.29,.95Z" fill="#069" stroke="#069" stroke-linejoin="round" stroke-width="2.6"/>
    <path id="m0ea4bf924e-36" data-name="m0ea4bf924e" d="M333.49,296.81c.86,0,1.68-.34,2.29-.95,.61-.61,.95-1.43,.95-2.29s-.34-1.68-.95-2.29c-.61-.61-1.43-.95-2.29-.95s-1.68,.34-2.29,.95c-.61,.61-.95,1.43-.95,2.29s.34,1.68,.95,2.29c.61,.61,1.43,.95,2.29,.95Z" fill="#069" stroke="#069" stroke-linejoin="round" stroke-width="2.6"/>
    <path id="m0ea4bf924e-37" data-name="m0ea4bf924e" d="M338.46,307.31c.86,0,1.68-.34,2.29-.95,.61-.61,.95-1.43,.95-2.29s-.34-1.68-.95-2.29c-.61-.61-1.43-.95-2.29-.95s-1.68,.34-2.29,.95c-.61,.61-.95,1.43-.95,2.29s.34,1.68,.95,2.29c.61,.61,1.43,.95,2.29,.95Z" fill="#069" stroke="#069" stroke-linejoin="round" stroke-width="2.6"/>
    <path id="m0ea4bf924e-38" data-name="m0ea4bf924e" d="M343.43,330.19c.86,0,1.68-.34,2.29-.95,.61-.61,.95-1.43,.95-2.29s-.34-1.68-.95-2.29c-.61-.61-1.43-.95-2.29-.95s-1.68,.34-2.29,.95c-.61,.61-.95,1.43-.95,2.29s.34,1.68,.95,2.29c.61,.61,1.43,.95,2.29,.95Z" fill="#069" stroke="#069" stroke-linejoin="round" stroke-width="2.6"/>
    <path id="m0ea4bf924e-39" data-name="m0ea4bf924e" d="M348.4,299.37c.86,0,1.68-.34,2.29-.95,.61-.61,.95-1.43,.95-2.29s-.34-1.68-.95-2.29c-.61-.61-1.43-.95-2.29-.95s-1.68,.34-2.29,.95c-.61,.61-.95,1.43-.95,2.29s.34,1.68,.95,2.29c.61,.61,1.43,.95,2.29,.95Z" fill="#069" stroke="#069" stroke-linejoin="round" stroke-width="2.6"/>
    <path id="m0ea4bf924e-40" data-name="m0ea4bf924e" d="M353.37,279.28c.86,0,1.68-.34,2.29-.95,.61-.61,.95-1.43,.95-2.29s-.34-1.68-.95-2.29c-.61-.61-1.43-.95-2.29-.95s-1.68,.34-2.29,.95c-.61,.61-.95,1.43-.95,2.29s.34,1.68,.95,2.29c.61,.61,1.43,.95,2.29,.95Z" fill="#069" stroke="#069" stroke-linejoin="round" stroke-width="2.6"/>
    <path id="m0ea4bf924e-41" data-name="m0ea4bf924e" d="M358.34,297.88c.86,0,1.68-.34,2.29-.95,.61-.61,.95-1.43,.95-2.29s-.34-1.68-.95-2.29c-.61-.61-1.43-.95-2.29-.95s-1.68,.34-2.29,.95c-.61,.61-.95,1.43-.95,2.29s.34,1.68,.95,2.29c.61,.61,1.43,.95,2.29,.95Z" fill="#069" stroke="#069" stroke-linejoin="round" stroke-width="2.6"/>
    <path id="m0ea4bf924e-42" data-name="m0ea4bf924e" d="M363.31,316.82c.86,0,1.68-.34,2.29-.95,.61-.61,.95-1.43,.95-2.29s-.34-1.68-.95-2.29c-.61-.61-1.43-.95-2.29-.95s-1.68,.34-2.29,.95c-.61,.61-.95,1.43-.95,2.29s.34,1.68,.95,2.29c.61,.61,1.43,.95,2.29,.95Z" fill="#069" stroke="#069" stroke-linejoin="round" stroke-width="2.6"/>
    <path id="m0ea4bf924e-43" data-name="m0ea4bf924e" d="M368.28,277.24c.86,0,1.68-.34,2.29-.95,.61-.61,.95-1.43,.95-2.29s-.34-1.68-.95-2.29c-.61-.61-1.43-.95-2.29-.95s-1.68,.34-2.29,.95c-.61,.61-.95,1.43-.95,2.29s.34,1.68,.95,2.29c.61,.61,1.43,.95,2.29,.95Z" fill="#069" stroke="#069" stroke-linejoin="round" stroke-width="2.6"/>
    <path id="m0ea4bf924e-44" data-name="m0ea4bf924e" d="M373.25,295.32c.86,0,1.68-.34,2.29-.95,.61-.61,.95-1.43,.95-2.29s-.34-1.68-.95-2.29c-.61-.61-1.43-.95-2.29-.95s-1.68,.34-2.29,.95c-.61,.61-.95,1.43-.95,2.29s.34,1.68,.95,2.29c.61,.61,1.43,.95,2.29,.95Z" fill="#069" stroke="#069" stroke-linejoin="round" stroke-width="2.6"/>
    <path id="m0ea4bf924e-45" data-name="m0ea4bf924e" d="M378.22,295.81c.86,0,1.68-.34,2.29-.95,.61-.61,.95-1.43,.95-2.29s-.34-1.68-.95-2.29c-.61-.61-1.43-.95-2.29-.95s-1.68,.34-2.29,.95c-.61,.61-.95,1.43-.95,2.29s.34,1.68,.95,2.29c.61,.61,1.43,.95,2.29,.95Z" fill="#069" stroke="#069" stroke-linejoin="round" stroke-width="2.6"/>
    <path id="m0ea4bf924e-46" data-name="m0ea4bf924e" d="M383.19,288.69c.86,0,1.68-.34,2.29-.95,.61-.61,.95-1.43,.95-2.29s-.34-1.68-.95-2.29c-.61-.61-1.43-.95-2.29-.95s-1.68,.34-2.29,.95c-.61,.61-.95,1.43-.95,2.29s.34,1.68,.95,2.29c.61,.61,1.43,.95,2.29,.95Z" fill="#069" stroke="#069" stroke-linejoin="round" stroke-width="2.6"/>
    <path id="m0ea4bf924e-47" data-name="m0ea4bf924e" d="M388.16,261.56c.86,0,1.68-.34,2.29-.95,.61-.61,.95-1.43,.95-2.29s-.34-1.68-.95-2.29c-.61-.61-1.43-.95-2.29-.95s-1.68,.34-2.29,.95c-.61,.61-.95,1.43-.95,2.29s.34,1.68,.95,2.29c.61,.61,1.43,.95,2.29,.95Z" fill="#069" stroke="#069" stroke-linejoin="round" stroke-width="2.6"/>
    <path id="m0ea4bf924e-48" data-name="m0ea4bf924e" d="M393.13,293.38c.86,0,1.68-.34,2.29-.95,.61-.61,.95-1.43,.95-2.29s-.34-1.68-.95-2.29c-.61-.61-1.43-.95-2.29-.95s-1.68,.34-2.29,.95c-.61,.61-.95,1.43-.95,2.29s.34,1.68,.95,2.29c.61,.61,1.43,.95,2.29,.95Z" fill="#069" stroke="#069" stroke-linejoin="round" stroke-width="2.6"/>
    <path id="m0ea4bf924e-49" data-name="m0ea4bf924e" d="M398.1,272.51c.86,0,1.68-.34,2.29-.95,.61-.61,.95-1.43,.95-2.29s-.34-1.68-.95-2.29c-.61-.61-1.43-.95-2.29-.95s-1.68,.34-2.29,.95c-.61,.61-.95,1.43-.95,2.29s.34,1.68,.95,2.29c.61,.61,1.43,.95,2.29,.95Z" fill="#069" stroke="#069" stroke-linejoin="round" stroke-width="2.6"/>
    <path id="m0ea4bf924e-50" data-name="m0ea4bf924e" d="M403.07,272.95c.86,0,1.68-.34,2.29-.95,.61-.61,.95-1.43,.95-2.29s-.34-1.68-.95-2.29c-.61-.61-1.43-.95-2.29-.95s-1.68,.34-2.29,.95c-.61,.61-.95,1.43-.95,2.29s.34,1.68,.95,2.29c.61,.61,1.43,.95,2.29,.95Z" fill="#069" stroke="#069" stroke-linejoin="round" stroke-width="2.6"/>
    <path id="m0ea4bf924e-51" data-name="m0ea4bf924e" d="M408.04,286.79c.86,0,1.68-.34,2.29-.95,.61-.61,.95-1.43,.95-2.29s-.34-1.68-.95-2.29c-.61-.61-1.43-.95-2.29-.95s-1.68,.34-2.29,.95c-.61,.61-.95,1.43-.95,2.29s.34,1.68,.95,2.29c.61,.61,1.43,.95,2.29,.95Z" fill="#069" stroke="#069" stroke-linejoin="round" stroke-width="2.6"/>
    <path id="m0ea4bf924e-52" data-name="m0ea4bf924e" d="M413.01,248.43c.86,0,1.68-.34,2.29-.95,.61-.61,.95-1.43,.95-2.29s-.34-1.68-.95-2.29c-.61-.61-1.43-.95-2.29-.95s-1.68,.34-2.29,.95c-.61,.61-.95,1.43-.95,2.29s.34,1.68,.95,2.29c.61,.61,1.43,.95,2.29,.95Z" fill="#069" stroke="#069" stroke-linejoin="round" stroke-width="2.6"/>
    <path id="m0ea4bf924e-53" data-name="m0ea4bf924e" d="M417.98,244.18c.86,0,1.68-.34,2.29-.95,.61-.61,.95-1.43,.95-2.29s-.34-1.68-.95-2.29c-.61-.61-1.43-.95-2.29-.95s-1.68,.34-2.29,.95c-.61,.61-.95,1.43-.95,2.29s.34,1.68,.95,2.29c.61,.61,1.43,.95,2.29,.95Z" fill="#069" stroke="#069" stroke-linejoin="round" stroke-width="2.6"/>
    <path id="m0ea4bf924e-54" data-name="m0ea4bf924e" d="M422.95,273.13c.86,0,1.68-.34,2.29-.95,.61-.61,.95-1.43,.95-2.29s-.34-1.68-.95-2.29c-.61-.61-1.43-.95-2.29-.95s-1.68,.34-2.29,.95c-.61,.61-.95,1.43-.95,2.29s.34,1.68,.95,2.29c.61,.61,1.43,.95,2.29,.95Z" fill="#069" stroke="#069" stroke-linejoin="round" stroke-width="2.6"/>
    <path id="m0ea4bf924e-55" data-name="m0ea4bf924e" d="M427.92,243.69c.86,0,1.68-.34,2.29-.95,.61-.61,.95-1.43,.95-2.29s-.34-1.68-.95-2.29c-.61-.61-1.43-.95-2.29-.95s-1.68,.34-2.29,.95c-.61,.61-.95,1.43-.95,2.29s.34,1.68,.95,2.29c.61,.61,1.43,.95,2.29,.95Z" fill="#069" stroke="#069" stroke-linejoin="round" stroke-width="2.6"/>
    <path id="m0ea4bf924e-56" data-name="m0ea4bf924e" d="M432.9,273.87c.86,0,1.68-.34,2.29-.95,.61-.61,.95-1.43,.95-2.29s-.34-1.68-.95-2.29c-.61-.61-1.43-.95-2.29-.95s-1.68,.34-2.29,.95c-.61,.61-.95,1.43-.95,2.29s.34,1.68,.95,2.29c.61,.61,1.43,.95,2.29,.95Z" fill="#069" stroke="#069" stroke-linejoin="round" stroke-width="2.6"/>
    <path id="m0ea4bf924e-57" data-name="m0ea4bf924e" d="M437.87,259.67c.86,0,1.68-.34,2.29-.95,.61-.61,.95-1.43,.95-2.29s-.34-1.68-.95-2.29c-.61-.61-1.43-.95-2.29-.95s-1.68,.34-2.29,.95c-.61,.61-.95,1.43-.95,2.29s.34,1.68,.95,2.29c.61,.61,1.43,.95,2.29,.95Z" fill="#069" stroke="#069" stroke-linejoin="round" stroke-width="2.6"/>
    <path id="m0ea4bf924e-58" data-name="m0ea4bf924e" d="M442.84,244.51c.97,0,1.9-.34,2.58-.95,.68-.61,1.07-1.43,1.07-2.29s-.38-1.68-1.07-2.29c-.68-.61-1.61-.95-2.58-.95s-1.9,.34-2.58,.95c-.68,.61-1.07,1.43-1.07,2.29s.38,1.68,1.07,2.29c.68,.61,1.61,.95,2.58,.95Z" fill="#069" stroke="#069" stroke-linejoin="round" stroke-width="2.6"/>
    <path id="m0ea4bf924e-59" data-name="m0ea4bf924e" d="M447.81,250.18c.75,0,1.47-.34,2.01-.95,.53-.61,.83-1.43,.83-2.29s-.3-1.68-.83-2.29c-.53-.61-1.25-.95-2.01-.95s-1.47,.34-2.01,.95c-.53,.61-.83,1.43-.83,2.29s.3,1.68,.83,2.29c.53,.61,1.25,.95,2.01,.95Z" fill="#069" stroke="#069" stroke-linejoin="round" stroke-width="2.6"/>
    <path id="m0ea4bf924e-60" data-name="m0ea4bf924e" d="M452.78,254.34c.86,0,1.68-.34,2.29-.95,.61-.61,.95-1.43,.95-2.29s-.34-1.68-.95-2.29c-.61-.61-1.43-.95-2.29-.95s-1.68,.34-2.29,.95c-.61,.61-.95,1.43-.95,2.29s.34,1.68,.95,2.29c.61,.61,1.43,.95,2.29,.95Z" fill="#069" stroke="#069" stroke-linejoin="round" stroke-width="2.6"/>
    <path id="m0ea4bf924e-61" data-name="m0ea4bf924e" d="M457.75,221.27c.86,0,1.68-.34,2.29-.95,.61-.61,.95-1.43,.95-2.29s-.34-1.68-.95-2.29c-.61-.61-1.43-.95-2.29-.95s-1.68,.34-2.29,.95c-.61,.61-.95,1.43-.95,2.29s.34,1.68,.95,2.29c.61,.61,1.43,.95,2.29,.95Z" fill="#069" stroke="#069" stroke-linejoin="round" stroke-width="2.6"/>
    <path id="m0ea4bf924e-62" data-name="m0ea4bf924e" d="M462.72,219.96c.86,0,1.68-.34,2.29-.95,.61-.61,.95-1.43,.95-2.29s-.34-1.68-.95-2.29c-.61-.61-1.43-.95-2.29-.95s-1.68,.34-2.29,.95c-.61,.61-.95,1.43-.95,2.29s.34,1.68,.95,2.29c.61,.61,1.43,.95,2.29,.95Z" fill="#069" stroke="#069" stroke-linejoin="round" stroke-width="2.6"/>
    <path id="m0ea4bf924e-63" data-name="m0ea4bf924e" d="M467.69,234.08c.86,0,1.68-.34,2.29-.95,.61-.61,.95-1.43,.95-2.29s-.34-1.68-.95-2.29c-.61-.61-1.43-.95-2.29-.95s-1.68,.34-2.29,.95c-.61,.61-.95,1.43-.95,2.29s.34,1.68,.95,2.29c.61,.61,1.43,.95,2.29,.95Z" fill="#069" stroke="#069" stroke-linejoin="round" stroke-width="2.6"/>
    <path id="m0ea4bf924e-64" data-name="m0ea4bf924e" d="M472.66,202.32c.86,0,1.68-.34,2.29-.95,.61-.61,.95-1.43,.95-2.29s-.34-1.68-.95-2.29c-.61-.61-1.43-.95-2.29-.95s-1.68,.34-2.29,.95c-.61,.61-.95,1.43-.95,2.29s.34,1.68,.95,2.29c.61,.61,1.43,.95,2.29,.95Z" fill="#069" stroke="#069" stroke-linejoin="round" stroke-width="2.6"/>
    <path id="m0ea4bf924e-65" data-name="m0ea4bf924e" d="M477.63,202.17c.86,0,1.68-.34,2.29-.95,.61-.61,.95-1.43,.95-2.29s-.34-1.68-.95-2.29c-.61-.61-1.43-.95-2.29-.95s-1.68,.34-2.29,.95c-.61,.61-.95,1.43-.95,2.29s.34,1.68,.95,2.29c.61,.61,1.43,.95,2.29,.95Z" fill="#069" stroke="#069" stroke-linejoin="round" stroke-width="2.6"/>
    <path id="m0ea4bf924e-66" data-name="m0ea4bf924e" d="M482.6,208.16c.86,0,1.68-.34,2.29-.95,.61-.61,.95-1.43,.95-2.29s-.34-1.68-.95-2.29c-.61-.61-1.43-.95-2.29-.95s-1.68,.34-2.29,.95c-.61,.61-.95,1.43-.95,2.29s.34,1.68,.95,2.29c.61,.61,1.43,.95,2.29,.95Z" fill="#069" stroke="#069" stroke-linejoin="round" stroke-width="2.6"/>
    <path id="m0ea4bf924e-67" data-name="m0ea4bf924e" d="M487.57,205.81c.86,0,1.68-.34,2.29-.95,.61-.61,.95-1.43,.95-2.29s-.34-1.68-.95-2.29c-.61-.61-1.43-.95-2.29-.95s-1.68,.34-2.29,.95c-.61,.61-.95,1.43-.95,2.29s.34,1.68,.95,2.29c.61,.61,1.43,.95,2.29,.95Z" fill="#069" stroke="#069" stroke-linejoin="round" stroke-width="2.6"/>
    <path id="m0ea4bf924e-68" data-name="m0ea4bf924e" d="M492.54,211.11c.86,0,1.68-.34,2.29-.95,.61-.61,.95-1.43,.95-2.29s-.34-1.68-.95-2.29c-.61-.61-1.43-.95-2.29-.95s-1.68,.34-2.29,.95c-.61,.61-.95,1.43-.95,2.29s.34,1.68,.95,2.29c.61,.61,1.43,.95,2.29,.95Z" fill="#069" stroke="#069" stroke-linejoin="round" stroke-width="2.6"/>
    <path id="m0ea4bf924e-69" data-name="m0ea4bf924e" d="M497.51,205.21c.86,0,1.68-.34,2.29-.95,.61-.61,.95-1.43,.95-2.29s-.34-1.68-.95-2.29c-.61-.61-1.43-.95-2.29-.95s-1.68,.34-2.29,.95c-.61,.61-.95,1.43-.95,2.29s.34,1.68,.95,2.29c.61,.61,1.43,.95,2.29,.95Z" fill="#069" stroke="#069" stroke-linejoin="round" stroke-width="2.6"/>
    <path id="m0ea4bf924e-70" data-name="m0ea4bf924e" d="M502.48,201.96c.86,0,1.68-.34,2.29-.95,.61-.61,.95-1.43,.95-2.29s-.34-1.68-.95-2.29c-.61-.61-1.43-.95-2.29-.95s-1.68,.34-2.29,.95c-.61,.61-.95,1.43-.95,2.29s.34,1.68,.95,2.29c.61,.61,1.43,.95,2.29,.95Z" fill="#069" stroke="#069" stroke-linejoin="round" stroke-width="2.6"/>
    <path id="m0ea4bf924e-71" data-name="m0ea4bf924e" d="M507.45,194.68c.86,0,1.68-.34,2.29-.95,.61-.61,.95-1.43,.95-2.29s-.34-1.68-.95-2.29c-.61-.61-1.43-.95-2.29-.95s-1.68,.34-2.29,.95c-.61,.61-.95,1.43-.95,2.29s.34,1.68,.95,2.29c.61,.61,1.43,.95,2.29,.95Z" fill="#069" stroke="#069" stroke-linejoin="round" stroke-width="2.6"/>
    <path id="m0ea4bf924e-72" data-name="m0ea4bf924e" d="M512.42,202.59c.86,0,1.68-.34,2.29-.95,.61-.61,.95-1.43,.95-2.29s-.34-1.68-.95-2.29c-.61-.61-1.43-.95-2.29-.95s-1.68,.34-2.29,.95c-.61,.61-.95,1.43-.95,2.29s.34,1.68,.95,2.29c.61,.61,1.43,.95,2.29,.95Z" fill="#069" stroke="#069" stroke-linejoin="round" stroke-width="2.6"/>
    <path id="m0ea4bf924e-73" data-name="m0ea4bf924e" d="M517.39,189.05c.86,0,1.68-.34,2.29-.95,.61-.61,.95-1.43,.95-2.29s-.34-1.68-.95-2.29c-.61-.61-1.43-.95-2.29-.95s-1.68,.34-2.29,.95c-.61,.61-.95,1.43-.95,2.29s.34,1.68,.95,2.29c.61,.61,1.43,.95,2.29,.95Z" fill="#069" stroke="#069" stroke-linejoin="round" stroke-width="2.6"/>
    <path id="m0ea4bf924e-74" data-name="m0ea4bf924e" d="M522.36,179.53c.86,0,1.68-.34,2.29-.95,.61-.61,.95-1.43,.95-2.29s-.34-1.68-.95-2.29c-.61-.61-1.43-.95-2.29-.95s-1.68,.34-2.29,.95c-.61,.61-.95,1.43-.95,2.29s.34,1.68,.95,2.29c.61,.61,1.43,.95,2.29,.95Z" fill="#069" stroke="#069" stroke-linejoin="round" stroke-width="2.6"/>
    <path id="m0ea4bf924e-75" data-name="m0ea4bf924e" d="M527.33,204.73c.86,0,1.68-.34,2.29-.95,.61-.61,.95-1.43,.95-2.29s-.34-1.68-.95-2.29c-.61-.61-1.43-.95-2.29-.95s-1.68,.34-2.29,.95c-.61,.61-.95,1.43-.95,2.29s.34,1.68,.95,2.29c.61,.61,1.43,.95,2.29,.95Z" fill="#069" stroke="#069" stroke-linejoin="round" stroke-width="2.6"/>
    <path id="m0ea4bf924e-76" data-name="m0ea4bf924e" d="M532.3,209.76c.86,0,1.68-.34,2.29-.95,.61-.61,.95-1.43,.95-2.29s-.34-1.68-.95-2.29c-.61-.61-1.43-.95-2.29-.95s-1.68,.34-2.29,.95c-.61,.61-.95,1.43-.95,2.29s.34,1.68,.95,2.29c.61,.61,1.43,.95,2.29,.95Z" fill="#069" stroke="#069" stroke-linejoin="round" stroke-width="2.6"/>
    <path id="m0ea4bf924e-77" data-name="m0ea4bf924e" d="M537.27,201.69c.86,0,1.68-.34,2.29-.95,.61-.61,.95-1.43,.95-2.29s-.34-1.68-.95-2.29c-.61-.61-1.43-.95-2.29-.95s-1.68,.34-2.29,.95c-.61,.61-.95,1.43-.95,2.29s.34,1.68,.95,2.29c.61,.61,1.43,.95,2.29,.95Z" fill="#069" stroke="#069" stroke-linejoin="round" stroke-width="2.6"/>
    <path id="m0ea4bf924e-78" data-name="m0ea4bf924e" d="M542.25,176.04c.86,0,1.68-.34,2.29-.95,.61-.61,.95-1.43,.95-2.29s-.34-1.68-.95-2.29c-.61-.61-1.43-.95-2.29-.95s-1.68,.34-2.29,.95c-.61,.61-.95,1.43-.95,2.29s.34,1.68,.95,2.29c.61,.61,1.43,.95,2.29,.95Z" fill="#069" stroke="#069" stroke-linejoin="round" stroke-width="2.6"/>
    <path id="m0ea4bf924e-79" data-name="m0ea4bf924e" d="M547.22,161.25c.86,0,1.68-.34,2.29-.95,.61-.61,.95-1.43,.95-2.29s-.34-1.68-.95-2.29c-.61-.61-1.43-.95-2.29-.95s-1.68,.34-2.29,.95c-.61,.61-.95,1.43-.95,2.29s.34,1.68,.95,2.29c.61,.61,1.43,.95,2.29,.95Z" fill="#069" stroke="#069" stroke-linejoin="round" stroke-width="2.6"/>
    <path id="m0ea4bf924e-80" data-name="m0ea4bf924e" d="M552.19,202.99c.86,0,1.68-.34,2.29-.95,.61-.61,.95-1.43,.95-2.29s-.34-1.68-.95-2.29c-.61-.61-1.43-.95-2.29-.95s-1.68,.34-2.29,.95c-.61,.61-.95,1.43-.95,2.29s.34,1.68,.95,2.29c.61,.61,1.43,.95,2.29,.95Z" fill="#069" stroke="#069" stroke-linejoin="round" stroke-width="2.6"/>
    <path id="m0ea4bf924e-81" data-name="m0ea4bf924e" d="M557.16,205.56c.86,0,1.68-.34,2.29-.95,.61-.61,.95-1.43,.95-2.29s-.34-1.68-.95-2.29c-.61-.61-1.43-.95-2.29-.95s-1.68,.34-2.29,.95c-.61,.61-.95,1.43-.95,2.29s.34,1.68,.95,2.29c.61,.61,1.43,.95,2.29,.95Z" fill="#069" stroke="#069" stroke-linejoin="round" stroke-width="2.6"/>
    <path id="m0ea4bf924e-82" data-name="m0ea4bf924e" d="M562.13,169.36c.86,0,1.68-.34,2.29-.95,.61-.61,.95-1.43,.95-2.29s-.34-1.68-.95-2.29c-.61-.61-1.43-.95-2.29-.95s-1.68,.34-2.29,.95c-.61,.61-.95,1.43-.95,2.29s.34,1.68,.95,2.29c.61,.61,1.43,.95,2.29,.95Z" fill="#069" stroke="#069" stroke-linejoin="round" stroke-width="2.6"/>
    <path id="m0ea4bf924e-83" data-name="m0ea4bf924e" d="M567.1,185.67c.86,0,1.68-.34,2.29-.95,.61-.61,.95-1.43,.95-2.29s-.34-1.68-.95-2.29c-.61-.61-1.43-.95-2.29-.95s-1.68,.34-2.29,.95c-.61,.61-.95,1.43-.95,2.29s.34,1.68,.95,2.29c.61,.61,1.43,.95,2.29,.95Z" fill="#069" stroke="#069" stroke-linejoin="round" stroke-width="2.6"/>
    <path id="m0ea4bf924e-84" data-name="m0ea4bf924e" d="M572.07,196.92c.86,0,1.68-.34,2.29-.95,.61-.61,.95-1.43,.95-2.29s-.34-1.68-.95-2.29c-.61-.61-1.43-.95-2.29-.95s-1.68,.34-2.29,.95c-.61,.61-.95,1.43-.95,2.29s.34,1.68,.95,2.29c.61,.61,1.43,.95,2.29,.95Z" fill="#069" stroke="#069" stroke-linejoin="round" stroke-width="2.6"/>
    <path id="m0ea4bf924e-85" data-name="m0ea4bf924e" d="M577.04,150.41c.86,0,1.68-.34,2.29-.95,.61-.61,.95-1.43,.95-2.29s-.34-1.68-.95-2.29c-.61-.61-1.43-.95-2.29-.95s-1.68,.34-2.29,.95c-.61,.61-.95,1.43-.95,2.29s.34,1.68,.95,2.29c.61,.61,1.43,.95,2.29,.95Z" fill="#069" stroke="#069" stroke-linejoin="round" stroke-width="2.6"/>
    <path id="m0ea4bf924e-86" data-name="m0ea4bf924e" d="M582.01,148.65c.86,0,1.68-.34,2.29-.95,.61-.61,.95-1.43,.95-2.29s-.34-1.68-.95-2.29c-.61-.61-1.43-.95-2.29-.95s-1.68,.34-2.29,.95c-.61,.61-.95,1.43-.95,2.29s.34,1.68,.95,2.29c.61,.61,1.43,.95,2.29,.95Z" fill="#069" stroke="#069" stroke-linejoin="round" stroke-width="2.6"/>
    <path id="m0ea4bf924e-87" data-name="m0ea4bf924e" d="M586.98,182.6c.97,0,1.9-.34,2.58-.95,.68-.61,1.07-1.43,1.07-2.29s-.38-1.68-1.07-2.29c-.68-.61-1.61-.95-2.58-.95s-1.9,.34-2.58,.95c-.68,.61-1.07,1.43-1.07,2.29s.38,1.68,1.07,2.29c.68,.61,1.61,.95,2.58,.95Z" fill="#069" stroke="#069" stroke-linejoin="round" stroke-width="2.6"/>
    <path id="m0ea4bf924e-88" data-name="m0ea4bf924e" d="M591.95,170.12c.86,0,1.68-.34,2.29-.95,.61-.61,.95-1.43,.95-2.29s-.34-1.68-.95-2.29c-.61-.61-1.43-.95-2.29-.95s-1.68,.34-2.29,.95c-.61,.61-.95,1.43-.95,2.29s.34,1.68,.95,2.29c.61,.61,1.43,.95,2.29,.95Z" fill="#069" stroke="#069" stroke-linejoin="round" stroke-width="2.6"/>
    <path id="m0ea4bf924e-89" data-name="m0ea4bf924e" d="M596.92,134.98c.86,0,1.68-.34,2.29-.95,.61-.61,.95-1.43,.95-2.29s-.34-1.68-.95-2.29c-.61-.61-1.43-.95-2.29-.95s-1.68,.34-2.29,.95c-.61,.61-.95,1.43-.95,2.29s.34,1.68,.95,2.29c.61,.61,1.43,.95,2.29,.95Z" fill="#069" stroke="#069" stroke-linejoin="round" stroke-width="2.6"/>
    <path id="m0ea4bf924e-90" data-name="m0ea4bf924e" d="M601.89,153.83c.86,0,1.68-.34,2.29-.95,.61-.61,.95-1.43,.95-2.29s-.34-1.68-.95-2.29c-.61-.61-1.43-.95-2.29-.95s-1.68,.34-2.29,.95c-.61,.61-.95,1.43-.95,2.29s.34,1.68,.95,2.29c.61,.61,1.43,.95,2.29,.95Z" fill="#069" stroke="#069" stroke-linejoin="round" stroke-width="2.6"/>
    <path id="m0ea4bf924e-91" data-name="m0ea4bf924e" d="M606.86,134.28c.86,0,1.68-.34,2.29-.95,.61-.61,.95-1.43,.95-2.29s-.34-1.68-.95-2.29c-.61-.61-1.43-.95-2.29-.95s-1.68,.34-2.29,.95c-.61,.61-.95,1.43-.95,2.29s.34,1.68,.95,2.29c.61,.61,1.43,.95,2.29,.95Z" fill="#069" stroke="#069" stroke-linejoin="round" stroke-width="2.6"/>
    <path id="m0ea4bf924e-92" data-name="m0ea4bf924e" d="M611.83,172.03c.86,0,1.68-.34,2.29-.95,.61-.61,.95-1.43,.95-2.29s-.34-1.68-.95-2.29c-.61-.61-1.43-.95-2.29-.95s-1.68,.34-2.29,.95c-.61,.61-.95,1.43-.95,2.29s.34,1.68,.95,2.29c.61,.61,1.43,.95,2.29,.95Z" fill="#069" stroke="#069" stroke-linejoin="round" stroke-width="2.6"/>
    <path id="m0ea4bf924e-93" data-name="m0ea4bf924e" d="M616.8,146.14c.86,0,1.68-.34,2.29-.95,.61-.61,.95-1.43,.95-2.29s-.34-1.68-.95-2.29c-.61-.61-1.43-.95-2.29-.95s-1.68,.34-2.29,.95c-.61,.61-.95,1.43-.95,2.29s.34,1.68,.95,2.29c.61,.61,1.43,.95,2.29,.95Z" fill="#069" stroke="#069" stroke-linejoin="round" stroke-width="2.6"/>
    <path id="m0ea4bf924e-94" data-name="m0ea4bf924e" d="M621.77,159.17c.86,0,1.68-.34,2.29-.95,.61-.61,.95-1.43,.95-2.29s-.34-1.68-.95-2.29c-.61-.61-1.43-.95-2.29-.95s-1.68,.34-2.29,.95c-.61,.61-.95,1.43-.95,2.29s.34,1.68,.95,2.29c.61,.61,1.43,.95,2.29,.95Z" fill="#069" stroke="#069" stroke-linejoin="round" stroke-width="2.6"/>
    <path id="m0ea4bf924e-95" data-name="m0ea4bf924e" d="M626.74,135.55c.86,0,1.68-.34,2.29-.95,.61-.61,.95-1.43,.95-2.29s-.34-1.68-.95-2.29c-.61-.61-1.43-.95-2.29-.95s-1.68,.34-2.29,.95c-.61,.61-.95,1.43-.95,2.29s.34,1.68,.95,2.29c.61,.61,1.43,.95,2.29,.95Z" fill="#069" stroke="#069" stroke-linejoin="round" stroke-width="2.6"/>
    <path id="m0ea4bf924e-96" data-name="m0ea4bf924e" d="M631.71,147.79c.86,0,1.68-.34,2.29-.95,.61-.61,.95-1.43,.95-2.29s-.34-1.68-.95-2.29c-.61-.61-1.43-.95-2.29-.95s-1.68,.34-2.29,.95c-.61,.61-.95,1.43-.95,2.29s.34,1.68,.95,2.29c.61,.61,1.43,.95,2.29,.95Z" fill="#069" stroke="#069" stroke-linejoin="round" stroke-width="2.6"/>
    <path id="m0ea4bf924e-97" data-name="m0ea4bf924e" d="M636.68,163.83c.86,0,1.68-.34,2.29-.95,.61-.61,.95-1.43,.95-2.29s-.34-1.68-.95-2.29c-.61-.61-1.43-.95-2.29-.95s-1.68,.34-2.29,.95c-.61,.61-.95,1.43-.95,2.29s.34,1.68,.95,2.29c.61,.61,1.43,.95,2.29,.95Z" fill="#069" stroke="#069" stroke-linejoin="round" stroke-width="2.6"/>
    <path id="m0ea4bf924e-98" data-name="m0ea4bf924e" d="M641.65,158.41c.86,0,1.68-.34,2.29-.95,.61-.61,.95-1.43,.95-2.29s-.34-1.68-.95-2.29c-.61-.61-1.43-.95-2.29-.95s-1.68,.34-2.29,.95c-.61,.61-.95,1.43-.95,2.29s.34,1.68,.95,2.29c.61,.61,1.43,.95,2.29,.95Z" fill="#069" stroke="#069" stroke-linejoin="round" stroke-width="2.6"/>
    <path id="m0ea4bf924e-99" data-name="m0ea4bf924e" d="M646.63,133.11c.86,0,1.68-.34,2.29-.95,.61-.61,.95-1.43,.95-2.29s-.34-1.68-.95-2.29c-.61-.61-1.43-.95-2.29-.95s-1.68,.34-2.29,.95c-.61,.61-.95,1.43-.95,2.29s.34,1.68,.95,2.29c.61,.61,1.43,.95,2.29,.95Z" fill="#069" stroke="#069" stroke-linejoin="round" stroke-width="2.6"/>
    <path id="m0ea4bf924e-100" data-name="m0ea4bf924e" d="M651.6,148.92c.86,0,1.68-.34,2.29-.95,.61-.61,.95-1.43,.95-2.29s-.34-1.68-.95-2.29c-.61-.61-1.43-.95-2.29-.95s-1.68,.34-2.29,.95c-.61,.61-.95,1.43-.95,2.29s.34,1.68,.95,2.29c.61,.61,1.43,.95,2.29,.95Z" fill="#069" stroke="#069" stroke-linejoin="round" stroke-width="2.6"/>
    <path id="m0ea4bf924e-101" data-name="m0ea4bf924e" d="M656.57,120.11c.86,0,1.68-.34,2.29-.95,.61-.61,.95-1.43,.95-2.29s-.34-1.68-.95-2.29c-.61-.61-1.43-.95-2.29-.95s-1.68,.34-2.29,.95c-.61,.61-.95,1.43-.95,2.29s.34,1.68,.95,2.29c.61,.61,1.43,.95,2.29,.95Z" fill="#069" stroke="#069" stroke-linejoin="round" stroke-width="2.6"/>
    <path id="m0ea4bf924e-102" data-name="m0ea4bf924e" d="M661.54,155.68c.86,0,1.68-.34,2.29-.95,.61-.61,.95-1.43,.95-2.29s-.34-1.68-.95-2.29c-.61-.61-1.43-.95-2.29-.95s-1.68,.34-2.29,.95c-.61,.61-.95,1.43-.95,2.29s.34,1.68,.95,2.29c.61,.61,1.43,.95,2.29,.95Z" fill="#069" stroke="#069" stroke-linejoin="round" stroke-width="2.6"/>
    <path id="m0ea4bf924e-103" data-name="m0ea4bf924e" d="M666.51,119.13c.86,0,1.68-.34,2.29-.95,.61-.61,.95-1.43,.95-2.29s-.34-1.68-.95-2.29c-.61-.61-1.43-.95-2.29-.95s-1.68,.34-2.29,.95c-.61,.61-.95,1.43-.95,2.29s.34,1.68,.95,2.29c.61,.61,1.43,.95,2.29,.95Z" fill="#069" stroke="#069" stroke-linejoin="round" stroke-width="2.6"/>
    <path id="m0ea4bf924e-104" data-name="m0ea4bf924e" d="M671.48,112.25c.86,0,1.68-.34,2.29-.95,.61-.61,.95-1.43,.95-2.29s-.34-1.68-.95-2.29c-.61-.61-1.43-.95-2.29-.95s-1.68,.34-2.29,.95c-.61,.61-.95,1.43-.95,2.29s.34,1.68,.95,2.29c.61,.61,1.43,.95,2.29,.95Z" fill="#069" stroke="#069" stroke-linejoin="round" stroke-width="2.6"/>
    <path id="m0ea4bf924e-105" data-name="m0ea4bf924e" d="M676.45,112.14c.86,0,1.68-.34,2.29-.95,.61-.61,.95-1.43,.95-2.29s-.34-1.68-.95-2.29c-.61-.61-1.43-.95-2.29-.95s-1.68,.34-2.29,.95c-.61,.61-.95,1.43-.95,2.29s.34,1.68,.95,2.29c.61,.61,1.43,.95,2.29,.95Z" fill="#069" stroke="#069" stroke-linejoin="round" stroke-width="2.6"/>
    <path id="m0ea4bf924e-106" data-name="m0ea4bf924e" d="M681.42,148.6c.86,0,1.68-.34,2.29-.95,.61-.61,.95-1.43,.95-2.29s-.34-1.68-.95-2.29c-.61-.61-1.43-.95-2.29-.95s-1.68,.34-2.29,.95c-.61,.61-.95,1.43-.95,2.29s.34,1.68,.95,2.29c.61,.61,1.43,.95,2.29,.95Z" fill="#069" stroke="#069" stroke-linejoin="round" stroke-width="2.6"/>
    <path id="m0ea4bf924e-107" data-name="m0ea4bf924e" d="M686.39,119.25c.86,0,1.68-.34,2.29-.95,.61-.61,.95-1.43,.95-2.29s-.34-1.68-.95-2.29c-.61-.61-1.43-.95-2.29-.95s-1.68,.34-2.29,.95c-.61,.61-.95,1.43-.95,2.29s.34,1.68,.95,2.29c.61,.61,1.43,.95,2.29,.95Z" fill="#069" stroke="#069" stroke-linejoin="round" stroke-width="2.6"/>
    <path id="m0ea4bf924e-108" data-name="m0ea4bf924e" d="M691.36,116.17c.86,0,1.68-.34,2.29-.95,.61-.61,.95-1.43,.95-2.29s-.34-1.68-.95-2.29c-.61-.61-1.43-.95-2.29-.95s-1.68,.34-2.29,.95c-.61,.61-.95,1.43-.95,2.29s.34,1.68,.95,2.29c.61,.61,1.43,.95,2.29,.95Z" fill="#069" stroke="#069" stroke-linejoin="round" stroke-width="2.6"/>
    <path id="m0ea4bf924e-109" data-name="m0ea4bf924e" d="M696.33,99.86c.86,0,1.68-.34,2.29-.95,.61-.61,.95-1.43,.95-2.29s-.34-1.68-.95-2.29c-.61-.61-1.43-.95-2.29-.95s-1.68,.34-2.29,.95c-.61,.61-.95,1.43-.95,2.29s.34,1.68,.95,2.29c.61,.61,1.43,.95,2.29,.95Z" fill="#069" stroke="#069" stroke-linejoin="round" stroke-width="2.6"/>
    <path id="m0ea4bf924e-110" data-name="m0ea4bf924e" d="M701.3,126.85c.86,0,1.68-.34,2.29-.95,.61-.61,.95-1.43,.95-2.29s-.34-1.68-.95-2.29c-.61-.61-1.43-.95-2.29-.95s-1.68,.34-2.29,.95c-.61,.61-.95,1.43-.95,2.29s.34,1.68,.95,2.29c.61,.61,1.43,.95,2.29,.95Z" fill="#069" stroke="#069" stroke-linejoin="round" stroke-width="2.6"/>
    <path id="m0ea4bf924e-111" data-name="m0ea4bf924e" d="M706.27,114.1c.86,0,1.68-.34,2.29-.95,.61-.61,.95-1.43,.95-2.29s-.34-1.68-.95-2.29c-.61-.61-1.43-.95-2.29-.95s-1.68,.34-2.29,.95c-.61,.61-.95,1.43-.95,2.29s.34,1.68,.95,2.29c.61,.61,1.43,.95,2.29,.95Z" fill="#069" stroke="#069" stroke-linejoin="round" stroke-width="2.6"/>
    <path id="m0ea4bf924e-112" data-name="m0ea4bf924e" d="M711.24,141.94c.86,0,1.68-.34,2.29-.95,.61-.61,.95-1.43,.95-2.29s-.34-1.68-.95-2.29c-.61-.61-1.43-.95-2.29-.95s-1.68,.34-2.29,.95c-.61,.61-.95,1.43-.95,2.29s.34,1.68,.95,2.29c.61,.61,1.43,.95,2.29,.95Z" fill="#069" stroke="#069" stroke-linejoin="round" stroke-width="2.6"/>
    <path id="m0ea4bf924e-113" data-name="m0ea4bf924e" d="M716.21,117.82c.86,0,1.68-.34,2.29-.95,.61-.61,.95-1.43,.95-2.29s-.34-1.68-.95-2.29c-.61-.61-1.43-.95-2.29-.95s-1.68,.34-2.29,.95c-.61,.61-.95,1.43-.95,2.29s.34,1.68,.95,2.29c.61,.61,1.43,.95,2.29,.95Z" fill="#069" stroke="#069" stroke-linejoin="round" stroke-width="2.6"/>
    <path id="m0ea4bf924e-114" data-name="m0ea4bf924e" d="M721.18,124.37c.86,0,1.68-.34,2.29-.95,.61-.61,.95-1.43,.95-2.29s-.34-1.68-.95-2.29c-.61-.61-1.43-.95-2.29-.95s-1.68,.34-2.29,.95c-.61,.61-.95,1.43-.95,2.29s.34,1.68,.95,2.29c.61,.61,1.43,.95,2.29,.95Z" fill="#069" stroke="#069" stroke-linejoin="round" stroke-width="2.6"/>
    <path id="m0ea4bf924e-115" data-name="m0ea4bf924e" d="M726.15,109.51c.86,0,1.68-.34,2.29-.95,.61-.61,.95-1.43,.95-2.29s-.34-1.68-.95-2.29c-.61-.61-1.43-.95-2.29-.95s-1.68,.34-2.29,.95c-.61,.61-.95,1.43-.95,2.29s.34,1.68,.95,2.29c.61,.61,1.43,.95,2.29,.95Z" fill="#069" stroke="#069" stroke-linejoin="round" stroke-width="2.6"/>
    <path id="m0ea4bf924e-116" data-name="m0ea4bf924e" d="M731.12,114.21c.86,0,1.68-.34,2.29-.95,.61-.61,.95-1.43,.95-2.29s-.34-1.68-.95-2.29c-.61-.61-1.43-.95-2.29-.95s-1.68,.34-2.29,.95c-.61,.61-.95,1.43-.95,2.29s.34,1.68,.95,2.29c.61,.61,1.43,.95,2.29,.95Z" fill="#069" stroke="#069" stroke-linejoin="round" stroke-width="2.6"/>
    <path id="m0ea4bf924e-117" data-name="m0ea4bf924e" d="M736.09,92.62c.86,0,1.68-.34,2.29-.95,.61-.61,.95-1.43,.95-2.29s-.34-1.68-.95-2.29c-.61-.61-1.43-.95-2.29-.95s-1.68,.34-2.29,.95c-.61,.61-.95,1.43-.95,2.29s.34,1.68,.95,2.29c.61,.61,1.43,.95,2.29,.95Z" fill="#069" stroke="#069" stroke-linejoin="round" stroke-width="2.6"/>
    <path id="m0ea4bf924e-118" data-name="m0ea4bf924e" d="M741.06,103.05c.86,0,1.68-.34,2.29-.95,.61-.61,.95-1.43,.95-2.29s-.34-1.68-.95-2.29c-.61-.61-1.43-.95-2.29-.95s-1.68,.34-2.29,.95c-.61,.61-.95,1.43-.95,2.29s.34,1.68,.95,2.29c.61,.61,1.43,.95,2.29,.95Z" fill="#069" stroke="#069" stroke-linejoin="round" stroke-width="2.6"/>
    <path id="m0ea4bf924e-119" data-name="m0ea4bf924e" d="M746.03,128.37c.86,0,1.68-.34,2.29-.95,.61-.61,.95-1.43,.95-2.29s-.34-1.68-.95-2.29c-.61-.61-1.43-.95-2.29-.95s-1.68,.34-2.29,.95c-.61,.61-.95,1.43-.95,2.29s.34,1.68,.95,2.29c.61,.61,1.43,.95,2.29,.95Z" fill="#069" stroke="#069" stroke-linejoin="round" stroke-width="2.6"/>
    <path id="m0ea4bf924e-120" data-name="m0ea4bf924e" d="M751,121.49c.86,0,1.68-.34,2.29-.95,.61-.61,.95-1.43,.95-2.29s-.34-1.68-.95-2.29c-.61-.61-1.43-.95-2.29-.95s-1.68,.34-2.29,.95c-.61,.61-.95,1.43-.95,2.29s.34,1.68,.95,2.29c.61,.61,1.43,.95,2.29,.95Z" fill="#069" stroke="#069" stroke-linejoin="round" stroke-width="2.6"/>
    <path id="m0ea4bf924e-121" data-name="m0ea4bf924e" d="M755.98,86.86c.86,0,1.68-.34,2.29-.95,.61-.61,.95-1.43,.95-2.29s-.34-1.68-.95-2.29c-.61-.61-1.43-.95-2.29-.95s-1.68,.34-2.29,.95c-.61,.61-.95,1.43-.95,2.29s.34,1.68,.95,2.29c.61,.61,1.43,.95,2.29,.95Z" fill="#069" stroke="#069" stroke-linejoin="round" stroke-width="2.6"/>
    <path id="m0ea4bf924e-122" data-name="m0ea4bf924e" d="M760.95,120.5c.86,0,1.68-.34,2.29-.95,.61-.61,.95-1.43,.95-2.29s-.34-1.68-.95-2.29c-.61-.61-1.43-.95-2.29-.95s-1.68,.34-2.29,.95c-.61,.61-.95,1.43-.95,2.29s.34,1.68,.95,2.29c.61,.61,1.43,.95,2.29,.95Z" fill="#069" stroke="#069" stroke-linejoin="round" stroke-width="2.6"/>
    <path id="m0ea4bf924e-123" data-name="m0ea4bf924e" d="M765.92,73.09c.86,0,1.68-.34,2.29-.95,.61-.61,.95-1.43,.95-2.29s-.34-1.68-.95-2.29c-.61-.61-1.43-.95-2.29-.95s-1.68,.34-2.29,.95c-.61,.61-.95,1.43-.95,2.29s.34,1.68,.95,2.29c.61,.61,1.43,.95,2.29,.95Z" fill="#069" stroke="#069" stroke-linejoin="round" stroke-width="2.6"/>
    <path id="m0ea4bf924e-124" data-name="m0ea4bf924e" d="M770.89,80.72c.86,0,1.68-.34,2.29-.95,.61-.61,.95-1.43,.95-2.29s-.34-1.68-.95-2.29c-.61-.61-1.43-.95-2.29-.95s-1.68,.34-2.29,.95c-.61,.61-.95,1.43-.95,2.29s.34,1.68,.95,2.29c.61,.61,1.43,.95,2.29,.95Z" fill="#069" stroke="#069" stroke-linejoin="round" stroke-width="2.6"/>
    <path id="m0ea4bf924e-125" data-name="m0ea4bf924e" d="M775.86,84.12c.86,0,1.68-.34,2.29-.95,.61-.61,.95-1.43,.95-2.29s-.34-1.68-.95-2.29c-.61-.61-1.43-.95-2.29-.95s-1.68,.34-2.29,.95c-.61,.61-.95,1.43-.95,2.29s.34,1.68,.95,2.29c.61,.61,1.43,.95,2.29,.95Z" fill="#069" stroke="#069" stroke-linejoin="round" stroke-width="2.6"/>
    <path id="m0ea4bf924e-126" data-name="m0ea4bf924e" d="M780.83,113.43c.86,0,1.68-.34,2.29-.95,.61-.61,.95-1.43,.95-2.29s-.34-1.68-.95-2.29c-.61-.61-1.43-.95-2.29-.95s-1.68,.34-2.29,.95c-.61,.61-.95,1.43-.95,2.29s.34,1.68,.95,2.29c.61,.61,1.43,.95,2.29,.95Z" fill="#069" stroke="#069" stroke-linejoin="round" stroke-width="2.6"/>
    <path id="m0ea4bf924e-127" data-name="m0ea4bf924e" d="M785.8,102.89c.86,0,1.68-.34,2.29-.95,.61-.61,.95-1.43,.95-2.29s-.34-1.68-.95-2.29c-.61-.61-1.43-.95-2.29-.95s-1.68,.34-2.29,.95c-.61,.61-.95,1.43-.95,2.29s.34,1.68,.95,2.29c.61,.61,1.43,.95,2.29,.95Z" fill="#069" stroke="#069" stroke-linejoin="round" stroke-width="2.6"/>
    <path id="m0ea4bf924e-128" data-name="m0ea4bf924e" d="M790.77,107.14c.86,0,1.68-.34,2.29-.95,.61-.61,.95-1.43,.95-2.29s-.34-1.68-.95-2.29c-.61-.61-1.43-.95-2.29-.95s-1.68,.34-2.29,.95c-.61,.61-.95,1.43-.95,2.29s.34,1.68,.95,2.29c.61,.61,1.43,.95,2.29,.95Z" fill="#069" stroke="#069" stroke-linejoin="round" stroke-width="2.6"/>
    <path id="m0ea4bf924e-129" data-name="m0ea4bf924e" d="M795.74,64.53c.86,0,1.68-.34,2.29-.95,.61-.61,.95-1.43,.95-2.29s-.34-1.68-.95-2.29c-.61-.61-1.43-.95-2.29-.95s-1.68,.34-2.29,.95c-.61,.61-.95,1.43-.95,2.29s.34,1.68,.95,2.29c.61,.61,1.43,.95,2.29,.95Z" fill="#069" stroke="#069" stroke-linejoin="round" stroke-width="2.6"/>
    <path id="m0ea4bf924e-130" data-name="m0ea4bf924e" d="M800.71,64.12c.86,0,1.68-.34,2.29-.95,.61-.61,.95-1.43,.95-2.29s-.34-1.68-.95-2.29c-.61-.61-1.43-.95-2.29-.95s-1.68,.34-2.29,.95c-.61,.61-.95,1.43-.95,2.29s.34,1.68,.95,2.29c.61,.61,1.43,.95,2.29,.95Z" fill="#069" stroke="#069" stroke-linejoin="round" stroke-width="2.6"/>
    <path id="m0ea4bf924e-131" data-name="m0ea4bf924e" d="M805.68,96.74c.86,0,1.68-.34,2.29-.95,.61-.61,.95-1.43,.95-2.29s-.34-1.68-.95-2.29c-.61-.61-1.43-.95-2.29-.95s-1.68,.34-2.29,.95c-.61,.61-.95,1.43-.95,2.29s.34,1.68,.95,2.29c.61,.61,1.43,.95,2.29,.95Z" fill="#069" stroke="#069" stroke-linejoin="round" stroke-width="2.6"/>
    <path id="m0ea4bf924e-132" data-name="m0ea4bf924e" d="M810.65,81.72c.86,0,1.68-.34,2.29-.95,.61-.61,.95-1.43,.95-2.29s-.34-1.68-.95-2.29c-.61-.61-1.43-.95-2.29-.95s-1.68,.34-2.29,.95c-.61,.61-.95,1.43-.95,2.29s.34,1.68,.95,2.29c.61,.61,1.43,.95,2.29,.95Z" fill="#069" stroke="#069" stroke-linejoin="round" stroke-width="2.6"/>
    <path id="m0ea4bf924e-133" data-name="m0ea4bf924e" d="M815.62,64.08c.86,0,1.68-.34,2.29-.95,.61-.61,.95-1.43,.95-2.29s-.34-1.68-.95-2.29c-.61-.61-1.43-.95-2.29-.95s-1.68,.34-2.29,.95c-.61,.61-.95,1.43-.95,2.29s.34,1.68,.95,2.29c.61,.61,1.43,.95,2.29,.95Z" fill="#069" stroke="#069" stroke-linejoin="round" stroke-width="2.6"/>
    <path id="m0ea4bf924e-134" data-name="m0ea4bf924e" d="M820.59,80.01c.86,0,1.68-.34,2.29-.95,.61-.61,.95-1.43,.95-2.29s-.34-1.68-.95-2.29c-.61-.61-1.43-.95-2.29-.95s-1.68,.34-2.29,.95c-.61,.61-.95,1.43-.95,2.29s.34,1.68,.95,2.29c.61,.61,1.43,.95,2.29,.95Z" fill="#069" stroke="#069" stroke-linejoin="round" stroke-width="2.6"/>
    <path id="m0ea4bf924e-135" data-name="m0ea4bf924e" d="M825.56,65.81c.86,0,1.68-.34,2.29-.95,.61-.61,.95-1.43,.95-2.29s-.34-1.68-.95-2.29c-.61-.61-1.43-.95-2.29-.95s-1.68,.34-2.29,.95c-.61,.61-.95,1.43-.95,2.29s.34,1.68,.95,2.29c.61,.61,1.43,.95,2.29,.95Z" fill="#069" stroke="#069" stroke-linejoin="round" stroke-width="2.6"/>
    <path id="m0ea4bf924e-136" data-name="m0ea4bf924e" d="M830.53,82.61c.86,0,1.68-.34,2.29-.95,.61-.61,.95-1.43,.95-2.29s-.34-1.68-.95-2.29c-.61-.61-1.43-.95-2.29-.95s-1.68,.34-2.29,.95c-.61,.61-.95,1.43-.95,2.29s.34,1.68,.95,2.29c.61,.61,1.43,.95,2.29,.95Z" fill="#069" stroke="#069" stroke-linejoin="round" stroke-width="2.6"/>
    <path id="m0ea4bf924e-137" data-name="m0ea4bf924e" d="M835.5,89.15c.86,0,1.68-.34,2.29-.95,.61-.61,.95-1.43,.95-2.29s-.34-1.68-.95-2.29c-.61-.61-1.43-.95-2.29-.95s-1.68,.34-2.29,.95c-.61,.61-.95,1.43-.95,2.29s.34,1.68,.95,2.29c.61,.61,1.43,.95,2.29,.95Z" fill="#069" stroke="#069" stroke-linejoin="round" stroke-width="2.6"/>
    <path id="m0ea4bf924e-138" data-name="m0ea4bf924e" d="M840.47,91.84c.86,0,1.68-.34,2.29-.95,.61-.61,.95-1.43,.95-2.29s-.34-1.68-.95-2.29c-.61-.61-1.43-.95-2.29-.95s-1.68,.34-2.29,.95c-.61,.61-.95,1.43-.95,2.29s.34,1.68,.95,2.29c.61,.61,1.43,.95,2.29,.95Z" fill="#069" stroke="#069" stroke-linejoin="round" stroke-width="2.6"/>
    <path id="m0ea4bf924e-139" data-name="m0ea4bf924e" d="M845.44,76.31c.86,0,1.68-.34,2.29-.95,.61-.61,.95-1.43,.95-2.29s-.34-1.68-.95-2.29c-.61-.61-1.43-.95-2.29-.95s-1.68,.34-2.29,.95c-.61,.61-.95,1.43-.95,2.29s.34,1.68,.95,2.29c.61,.61,1.43,.95,2.29,.95Z" fill="#069" stroke="#069" stroke-linejoin="round" stroke-width="2.6"/>
    <path id="m0ea4bf924e-140" data-name="m0ea4bf924e" d="M850.41,89.37c.86,0,1.68-.34,2.29-.95,.61-.61,.95-1.43,.95-2.29s-.34-1.68-.95-2.29c-.61-.61-1.43-.95-2.29-.95s-1.68,.34-2.29,.95c-.61,.61-.95,1.43-.95,2.29s.34,1.68,.95,2.29c.61,.61,1.43,.95,2.29,.95Z" fill="#069" stroke="#069" stroke-linejoin="round" stroke-width="2.6"/>
    <path id="m0ea4bf924e-141" data-name="m0ea4bf924e" d="M855.38,70.86c.86,0,1.68-.34,2.29-.95,.61-.61,.95-1.43,.95-2.29s-.34-1.68-.95-2.29c-.61-.61-1.43-.95-2.29-.95s-1.68,.34-2.29,.95c-.61,.61-.95,1.43-.95,2.29s.34,1.68,.95,2.29c.61,.61,1.43,.95,2.29,.95Z" fill="#069" stroke="#069" stroke-linejoin="round" stroke-width="2.6"/>
    <path id="m0ea4bf924e-142" data-name="m0ea4bf924e" d="M860.35,48.78c.86,0,1.68-.34,2.29-.95,.61-.61,.95-1.43,.95-2.29s-.34-1.68-.95-2.29c-.61-.61-1.43-.95-2.29-.95s-1.68,.34-2.29,.95c-.61,.61-.95,1.43-.95,2.29s.34,1.68,.95,2.29c.61,.61,1.43,.95,2.29,.95Z" fill="#069" stroke="#069" stroke-linejoin="round" stroke-width="2.6"/>
    <path id="m0ea4bf924e-143" data-name="m0ea4bf924e" d="M865.33,45.69c.86,0,1.68-.34,2.29-.95,.61-.61,.95-1.43,.95-2.29s-.34-1.68-.95-2.29c-.61-.61-1.43-.95-2.29-.95s-1.68,.34-2.29,.95c-.61,.61-.95,1.43-.95,2.29s.34,1.68,.95,2.29c.61,.61,1.43,.95,2.29,.95Z" fill="#069" stroke="#069" stroke-linejoin="round" stroke-width="2.6"/>
    <path id="m0ea4bf924e-144" data-name="m0ea4bf924e" d="M870.3,54.02c.86,0,1.68-.34,2.29-.95,.61-.61,.95-1.43,.95-2.29s-.34-1.68-.95-2.29c-.61-.61-1.43-.95-2.29-.95s-1.68,.34-2.29,.95c-.61,.61-.95,1.43-.95,2.29s.34,1.68,.95,2.29c.61,.61,1.43,.95,2.29,.95Z" fill="#069" stroke="#069" stroke-linejoin="round" stroke-width="2.6"/>
    <path id="m0ea4bf924e-145" data-name="m0ea4bf924e" d="M875.27,83.54c.86,0,1.68-.34,2.29-.95,.61-.61,.95-1.43,.95-2.29s-.34-1.68-.95-2.29c-.61-.61-1.43-.95-2.29-.95s-1.68,.34-2.29,.95c-.61,.61-.95,1.43-.95,2.29s.34,1.68,.95,2.29c.61,.61,1.43,.95,2.29,.95Z" fill="#069" stroke="#069" stroke-linejoin="round" stroke-width="2.6"/>
    <path id="m0ea4bf924e-146" data-name="m0ea4bf924e" d="M880.24,57.05c.86,0,1.68-.34,2.29-.95,.61-.61,.95-1.43,.95-2.29s-.34-1.68-.95-2.29c-.61-.61-1.43-.95-2.29-.95s-1.68,.34-2.29,.95c-.61,.61-.95,1.43-.95,2.29s.34,1.68,.95,2.29c.61,.61,1.43,.95,2.29,.95Z" fill="#069" stroke="#069" stroke-linejoin="round" stroke-width="2.6"/>
    <path id="m0ea4bf924e-147" data-name="m0ea4bf924e" d="M885.21,43.18c.86,0,1.68-.34,2.29-.95,.61-.61,.95-1.43,.95-2.29s-.34-1.68-.95-2.29c-.61-.61-1.43-.95-2.29-.95s-1.68,.34-2.29,.95c-.61,.61-.95,1.43-.95,2.29s.34,1.68,.95,2.29c.61,.61,1.43,.95,2.29,.95Z" fill="#069" stroke="#069" stroke-linejoin="round" stroke-width="2.6"/>
    <path id="m0ea4bf924e-148" data-name="m0ea4bf924e" d="M890.18,68.24c.86,0,1.68-.34,2.29-.95,.61-.61,.95-1.43,.95-2.29s-.34-1.68-.95-2.29c-.61-.61-1.43-.95-2.29-.95s-1.68,.34-2.29,.95c-.61,.61-.95,1.43-.95,2.29s.34,1.68,.95,2.29c.61,.61,1.43,.95,2.29,.95Z" fill="#069" stroke="#069" stroke-linejoin="round" stroke-width="2.6"/>
    <path id="m0ea4bf924e-149" data-name="m0ea4bf924e" d="M895.15,68.03c.86,0,1.68-.34,2.29-.95,.61-.61,.95-1.43,.95-2.29s-.34-1.68-.95-2.29c-.61-.61-1.43-.95-2.29-.95s-1.68,.34-2.29,.95c-.61,.61-.95,1.43-.95,2.29s.34,1.68,.95,2.29c.61,.61,1.43,.95,2.29,.95Z" fill="#069" stroke="#069" stroke-linejoin="round" stroke-width="2.6"/>
    <path id="m0ea4bf924e-150" data-name="m0ea4bf924e" d="M900.12,52.78c.86,0,1.68-.34,2.29-.95,.61-.61,.95-1.43,.95-2.29s-.34-1.68-.95-2.29c-.61-.61-1.43-.95-2.29-.95s-1.68,.34-2.29,.95c-.61,.61-.95,1.43-.95,2.29s.34,1.68,.95,2.29c.61,.61,1.43,.95,2.29,.95Z" fill="#069" stroke="#069" stroke-linejoin="round" stroke-width="2.6"/>
  </g>
  <path d="M159.52,474.79l18.79-20.13,18.79-19.38,18.79-18.66,19.78-18.89,19.78-18.15,19.78-17.44,19.78-16.75,19.78-16.1,20.76-16.22,20.76-15.55,20.76-14.92,20.76-14.3,21.75-14.35,21.75-13.73,21.75-13.14,22.74-13.14,22.74-12.55,23.73-12.49,23.73-11.9,23.73-11.35,24.72-11.25,24.72-10.71,25.71-10.58,25.71-10.04,26.7-9.89,27.69-9.71,27.69-9.18,28.67-8.98,29.66-8.76,30.65-8.52,31.64-8.25,16.81-4.17h0" fill="none" stroke="red" stroke-linecap="round" stroke-linejoin="round" stroke-width="4"/>
  <rect x="122.49" y="17.64" width="814.66" height="490.51" fill="none" stroke="#000" stroke-linecap="square" stroke-linejoin="round" stroke-width="2"/>
  <g>
    <path d="M75.32,23.21c-2.14-1.97-2.46-5.55-2.46-8.69s.31-6.69,2.46-8.66c.97-.89,2.32-1.63,4.23-1.63s3.29,.71,4.23,1.63c2.12,2.03,2.46,5.55,2.46,8.66s-.31,6.72-2.46,8.69c-.94,.89-2.32,1.63-4.23,1.63s-3.26-.74-4.23-1.63Zm7.52-.92c1.86-1.74,1.97-5.18,1.97-7.78s-.09-6-1.97-7.75c-.77-.71-1.8-1.17-3.29-1.17s-2.52,.49-3.26,1.17c-1.89,1.74-1.97,5.18-1.97,7.75s.09,6.03,1.97,7.78c.74,.69,1.8,1.17,3.26,1.17s2.54-.46,3.29-1.17Z"/>
    <path d="M93.11,21.86v2.57h-2.52v-2.57h2.52Z"/>
    <path d="M99.92,23.21c-2.14-1.97-2.46-5.55-2.46-8.69s.31-6.69,2.46-8.66c.97-.89,2.32-1.63,4.23-1.63s3.29,.71,4.23,1.63c2.12,2.03,2.46,5.55,2.46,8.66s-.31,6.72-2.46,8.69c-.94,.89-2.32,1.63-4.23,1.63s-3.26-.74-4.23-1.63Zm7.52-.92c1.86-1.74,1.97-5.18,1.97-7.78s-.09-6-1.97-7.75c-.77-.71-1.8-1.17-3.29-1.17s-2.52,.49-3.26,1.17c-1.89,1.74-1.97,5.18-1.97,7.75s.09,6.03,1.97,7.78c.74,.69,1.8,1.17,3.26,1.17s2.54-.46,3.29-1.17Z"/>
  </g>
  <line x1="122.49" y1="17.64" x2="129.68" y2="17.64" fill="none" stroke="#000" stroke-linecap="round" stroke-linejoin="round" stroke-width="2"/>
  <g>
    <path d="M70.97,122.57v1.32h-13.27v-1.32h13.27Z"/>
    <path d="M77.18,130.63c-2.14-1.97-2.46-5.55-2.46-8.69s.31-6.69,2.46-8.66c.97-.89,2.32-1.63,4.23-1.63s3.29,.71,4.23,1.63c2.12,2.03,2.46,5.55,2.46,8.66s-.31,6.72-2.46,8.69c-.94,.89-2.32,1.63-4.23,1.63s-3.26-.74-4.23-1.63Zm7.52-.92c1.86-1.74,1.97-5.18,1.97-7.78s-.09-6-1.97-7.75c-.77-.71-1.8-1.17-3.29-1.17s-2.52,.49-3.26,1.17c-1.89,1.74-1.97,5.18-1.97,7.75s.09,6.03,1.97,7.78c.74,.69,1.8,1.17,3.26,1.17s2.54-.46,3.29-1.17Z"/>
    <path d="M94.97,129.29v2.57h-2.52v-2.57h2.52Z"/>
    <path d="M99.09,130.32l8.26-8.92c1.32-1.43,1.97-2.86,1.97-4.35,0-2.35-1.6-4.03-4.32-4.03s-4.43,1.86-4.43,5.09h-1.52c0-4,2.43-6.46,5.95-6.46,3.26,0,5.75,2.09,5.75,5.4,0,1.77-.86,3.66-2.29,5.18l-7.75,8.26h10.55v1.37h-12.18v-1.54Z"/>
  </g>
  <line x1="122.49" y1="125.06" x2="129.68" y2="125.06" fill="none" stroke="#000" stroke-linecap="round" stroke-linejoin="round" stroke-width="2"/>
  <g>
    <path d="M70.23,228.91v1.32h-13.27v-1.32h13.27Z"/>
    <path d="M76.44,236.97c-2.15-1.97-2.46-5.55-2.46-8.69s.31-6.69,2.46-8.66c.97-.89,2.32-1.63,4.23-1.63s3.29,.71,4.23,1.63c2.12,2.03,2.46,5.55,2.46,8.66s-.31,6.72-2.46,8.69c-.94,.89-2.32,1.63-4.23,1.63s-3.26-.74-4.23-1.63Zm7.52-.92c1.86-1.74,1.97-5.18,1.97-7.78s-.09-6-1.97-7.75c-.77-.71-1.8-1.17-3.29-1.17s-2.52,.49-3.26,1.17c-1.89,1.74-1.97,5.18-1.97,7.75s.09,6.03,1.97,7.78c.74,.69,1.8,1.17,3.26,1.17s2.54-.46,3.29-1.17Z"/>
    <path d="M94.23,235.63v2.57h-2.52v-2.57h2.52Z"/>
    <path d="M107.44,233.54h-9.89v-1.72l8.58-13.44h1.69l-8.81,13.73h8.44v-6.55h1.46v6.55h2.95v1.43h-2.95v4.66h-1.46v-4.66Z"/>
  </g>
  <line x1="122.49" y1="231.4" x2="129.68" y2="231.4" fill="none" stroke="#000" stroke-linecap="round" stroke-linejoin="round" stroke-width="2"/>
  <g>
    <path d="M69.54,335.24v1.32h-13.27v-1.32h13.27Z"/>
    <path d="M75.75,343.31c-2.15-1.97-2.46-5.55-2.46-8.69s.31-6.69,2.46-8.66c.97-.89,2.32-1.63,4.23-1.63s3.29,.71,4.23,1.63c2.12,2.03,2.46,5.55,2.46,8.66s-.31,6.72-2.46,8.69c-.94,.89-2.32,1.63-4.23,1.63s-3.26-.74-4.23-1.63Zm7.52-.92c1.86-1.74,1.97-5.18,1.97-7.78s-.09-6-1.97-7.75c-.77-.71-1.8-1.17-3.29-1.17s-2.52,.49-3.26,1.17c-1.89,1.74-1.97,5.18-1.97,7.75s.09,6.03,1.97,7.78c.74,.69,1.8,1.17,3.26,1.17s2.54-.46,3.29-1.17Z"/>
    <path d="M93.54,341.96v2.57h-2.52v-2.57h2.52Z"/>
    <path d="M99.69,342.51c-1.52-2.03-1.83-5.06-1.83-7.89,0-3.03,.4-6.32,2.34-8.41,.94-1,2.43-1.89,4.49-1.89,3.35,0,5.75,2.06,5.92,5.18h-1.46c-.2-2.29-1.72-3.8-4.46-3.8-4.43,0-5.35,4.78-5.35,9.49,.71-2.09,2.89-3.49,5.23-3.49,4.12,0,6.49,2.66,6.49,6.58,0,3.66-2.34,6.66-6.46,6.66-2.32,0-3.97-1.17-4.92-2.43Zm9.92-4.23c0-2.75-1.57-5.26-5-5.26-2.86,0-4.86,2.32-4.86,5.2s1.72,5.35,4.89,5.35c3.43,0,4.98-2.52,4.98-5.29Z"/>
  </g>
  <line x1="122.49" y1="337.74" x2="129.68" y2="337.74" fill="none" stroke="#000" stroke-linecap="round" stroke-linejoin="round" stroke-width="2"/>
  <g>
    <path d="M69.57,441.58v1.32h-13.27v-1.32h13.27Z"/>
    <path d="M75.78,449.65c-2.15-1.97-2.46-5.55-2.46-8.69s.31-6.69,2.46-8.66c.97-.89,2.32-1.63,4.23-1.63s3.29,.71,4.23,1.63c2.12,2.03,2.46,5.55,2.46,8.66s-.31,6.72-2.46,8.69c-.94,.89-2.32,1.63-4.23,1.63s-3.26-.74-4.23-1.63Zm7.52-.92c1.86-1.74,1.97-5.18,1.97-7.78s-.09-6-1.97-7.75c-.77-.71-1.8-1.17-3.29-1.17s-2.52,.49-3.26,1.17c-1.89,1.74-1.97,5.18-1.97,7.75s.09,6.03,1.97,7.78c.74,.69,1.8,1.17,3.26,1.17s2.54-.46,3.29-1.17Z"/>
    <path d="M93.57,448.3v2.57h-2.52v-2.57h2.52Z"/>
    <path d="M97.8,445.64c0-2.23,1.43-4.38,3.69-5.12-1.94-.71-3.23-2.6-3.23-4.58,0-3.32,2.72-5.29,6.12-5.29s6.12,1.97,6.12,5.29c0,1.97-1.29,3.86-3.23,4.58,2.26,.74,3.69,2.89,3.69,5.12,0,3.55-3.03,5.63-6.58,5.63s-6.58-2.09-6.58-5.63Zm11.7-.09c0-2.83-2.29-4.4-5.12-4.4s-5.12,1.57-5.12,4.4,2.29,4.4,5.12,4.4,5.12-1.57,5.12-4.4Zm-.49-9.67c0-2.54-2.09-3.95-4.63-3.95s-4.63,1.4-4.63,3.95,2.03,4,4.63,4,4.63-1.4,4.63-4Z"/>
  </g>
  <line x1="122.49" y1="444.08" x2="129.68" y2="444.08" fill="none" stroke="#000" stroke-linecap="round" stroke-linejoin="round" stroke-width="2"/>
  <g>
    <path d="M18.06,293.25v9.61l6.38,2.43v1.57l-20.27-7.86v-1.8l20.27-7.95v1.54l-6.38,2.46Zm-1.37,.54l-11.15,4.32,11.15,4.23v-8.55Z"/>
    <path d="M15.2,280.15c-4.46,0-9.44-1.63-12.9-4.72l.69-.89c3.6,2.8,7.52,4.26,12.21,4.26s8.61-1.46,12.21-4.26l.69,.89c-3.46,3.09-8.44,4.72-12.9,4.72Z"/>
    <path d="M20.46,272.49c-2.54,0-4.12-1.94-4.32-4.8l-.37-5.26h-1.26c-2.4,0-3.43,1.74-3.43,3.95s1.03,3.92,3.17,4.06v1.43c-2.95-.2-4.52-2.57-4.52-5.43,0-3.26,1.6-5.43,4.89-5.43h7.06c.97,0,1.54-.14,1.54-1.12,0-.11,0-.29-.03-.4h1.26c.06,.2,.09,.46,.09,.69,0,1.77-1.34,2.26-2.86,2.26,2.03,.77,3.15,2.95,3.15,5.15,0,2.77-1.69,4.92-4.38,4.92Zm-2.63-10.07h-.74l.31,5.12c.14,2.2,1.34,3.49,3.03,3.49,2,0,3.09-1.54,3.09-3.57,0-3.6-2.92-5.03-5.69-5.03Z"/>
    <path d="M21.86,253.3h2.57v2.52h-2.57v-2.52Z"/>
    <path d="M19.38,248.35H10.14v-1.43h9.15c2.49,0,4.15-1.23,4.15-3.75,0-3.32-2.66-4.69-5.86-4.69h-7.43v-1.43h14.3v1.32l-2.69,.11c1.89,.8,3.09,2.63,3.09,4.78,0,3.23-2.26,5.09-5.46,5.09Z"/>
    <path d="M21.86,229.41h2.57v2.52h-2.57v-2.52Z"/>
    <path d="M27.41,226.38c-3.6-2.8-7.52-4.26-12.21-4.26s-8.61,1.46-12.21,4.26l-.69-.89c3.46-3.09,8.44-4.72,12.9-4.72s9.44,1.63,12.9,4.72l-.69,.89Z"/>
  </g>
  <line x1="159.52" y1="508.15" x2="159.52" y2="500.96" fill="none" stroke="#000" stroke-linecap="round" stroke-linejoin="round" stroke-width="2"/>
  <g>
    <path d="M142.98,537.18c-2.14-1.97-2.46-5.55-2.46-8.69s.31-6.69,2.46-8.66c.97-.89,2.32-1.63,4.23-1.63s3.29,.71,4.23,1.63c2.12,2.03,2.46,5.55,2.46,8.66s-.31,6.72-2.46,8.69c-.94,.89-2.32,1.63-4.23,1.63s-3.26-.74-4.23-1.63Zm7.52-.92c1.86-1.74,1.97-5.18,1.97-7.78s-.09-6-1.97-7.75c-.77-.71-1.8-1.17-3.29-1.17s-2.52,.49-3.26,1.17c-1.89,1.74-1.97,5.18-1.97,7.75s.09,6.03,1.97,7.78c.74,.69,1.8,1.17,3.26,1.17s2.54-.46,3.29-1.17Z"/>
    <path d="M160.77,535.83v2.57h-2.52v-2.57h2.52Z"/>
    <path d="M167.58,537.18c-2.15-1.97-2.46-5.55-2.46-8.69s.31-6.69,2.46-8.66c.97-.89,2.32-1.63,4.23-1.63s3.29,.71,4.23,1.63c2.12,2.03,2.46,5.55,2.46,8.66s-.31,6.72-2.46,8.69c-.94,.89-2.32,1.63-4.23,1.63s-3.26-.74-4.23-1.63Zm7.52-.92c1.86-1.74,1.97-5.18,1.97-7.78s-.09-6-1.97-7.75c-.77-.71-1.8-1.17-3.29-1.17s-2.52,.49-3.26,1.17c-1.89,1.74-1.97,5.18-1.97,7.75s.09,6.03,1.97,7.78c.74,.69,1.8,1.17,3.26,1.17s2.54-.46,3.29-1.17Z"/>
  </g>
  <line x1="258.27" y1="508.15" x2="258.27" y2="500.96" fill="none" stroke="#000" stroke-linecap="round" stroke-linejoin="round" stroke-width="2"/>
  <g>
    <path d="M242.26,537.18c-2.14-1.97-2.46-5.55-2.46-8.69s.31-6.69,2.46-8.66c.97-.89,2.32-1.63,4.23-1.63s3.29,.71,4.23,1.63c2.12,2.03,2.46,5.55,2.46,8.66s-.31,6.72-2.46,8.69c-.94,.89-2.32,1.63-4.23,1.63s-3.26-.74-4.23-1.63Zm7.52-.92c1.86-1.74,1.97-5.18,1.97-7.78s-.09-6-1.97-7.75c-.77-.71-1.8-1.17-3.29-1.17s-2.52,.49-3.26,1.17c-1.89,1.74-1.97,5.18-1.97,7.75s.09,6.03,1.97,7.78c.74,.69,1.8,1.17,3.26,1.17s2.54-.46,3.29-1.17Z"/>
    <path d="M260.05,535.83v2.57h-2.52v-2.57h2.52Z"/>
    <path d="M264.08,532.66h1.43c.14,2.8,2.09,4.78,5.09,4.78,3.17,0,4.98-2.23,4.98-5.23s-1.57-5.29-4.75-5.29c-1.77,0-3.52,.69-4.46,2.17h-1.69l.8-10.49h10.84v1.34h-9.61l-.66,7.72c1.09-1.4,3-2.09,4.78-2.09,4.09,0,6.18,2.86,6.18,6.63s-2.26,6.61-6.41,6.61-6.43-2.66-6.52-6.15Z"/>
  </g>
  <line x1="357.01" y1="508.15" x2="357.01" y2="500.96" fill="none" stroke="#000" stroke-linecap="round" stroke-linejoin="round" stroke-width="2"/>
  <g>
    <path d="M340.28,524.05v-1.6l5.43-3.86h1.29v19.82h-1.43v-18.04l-5.29,3.69Z"/>
    <path d="M354.92,535.83v2.57h-2.52v-2.57h2.52Z"/>
    <path d="M361.73,537.18c-2.15-1.97-2.46-5.55-2.46-8.69s.31-6.69,2.46-8.66c.97-.89,2.32-1.63,4.23-1.63s3.29,.71,4.23,1.63c2.12,2.03,2.46,5.55,2.46,8.66s-.31,6.72-2.46,8.69c-.94,.89-2.32,1.63-4.23,1.63s-3.26-.74-4.23-1.63Zm7.52-.92c1.86-1.74,1.97-5.18,1.97-7.78s-.09-6-1.97-7.75c-.77-.71-1.8-1.17-3.29-1.17s-2.52,.49-3.26,1.17c-1.89,1.74-1.97,5.18-1.97,7.75s.09,6.03,1.97,7.78c.74,.69,1.8,1.17,3.26,1.17s2.54-.46,3.29-1.17Z"/>
  </g>
  <line x1="455.76" y1="508.15" x2="455.76" y2="500.96" fill="none" stroke="#000" stroke-linecap="round" stroke-linejoin="round" stroke-width="2"/>
  <g>
    <path d="M439.56,524.05v-1.6l5.43-3.86h1.29v19.82h-1.43v-18.04l-5.29,3.69Z"/>
    <path d="M454.2,535.83v2.57h-2.52v-2.57h2.52Z"/>
    <path d="M458.23,532.66h1.43c.14,2.8,2.09,4.78,5.09,4.78,3.17,0,4.98-2.23,4.98-5.23s-1.57-5.29-4.75-5.29c-1.77,0-3.52,.69-4.46,2.17h-1.69l.8-10.49h10.84v1.34h-9.61l-.66,7.72c1.09-1.4,3-2.09,4.78-2.09,4.09,0,6.18,2.86,6.18,6.63s-2.26,6.61-6.41,6.61-6.43-2.66-6.52-6.15Z"/>
  </g>
  <line x1="554.51" y1="508.15" x2="554.51" y2="500.96" fill="none" stroke="#000" stroke-linecap="round" stroke-linejoin="round" stroke-width="2"/>
  <g>
    <path d="M536.22,536.86l8.26-8.92c1.32-1.43,1.97-2.86,1.97-4.35,0-2.34-1.6-4.03-4.32-4.03s-4.43,1.86-4.43,5.09h-1.52c0-4,2.43-6.46,5.95-6.46,3.26,0,5.75,2.09,5.75,5.4,0,1.77-.86,3.66-2.29,5.18l-7.75,8.26h10.55v1.37h-12.18v-1.54Z"/>
    <path d="M554.83,535.83v2.57h-2.52v-2.57h2.52Z"/>
    <path d="M561.64,537.18c-2.14-1.97-2.46-5.55-2.46-8.69s.31-6.69,2.46-8.66c.97-.89,2.32-1.63,4.23-1.63s3.29,.71,4.23,1.63c2.12,2.03,2.46,5.55,2.46,8.66s-.31,6.72-2.46,8.69c-.94,.89-2.32,1.63-4.23,1.63s-3.26-.74-4.23-1.63Zm7.52-.92c1.86-1.74,1.97-5.18,1.97-7.78s-.09-6-1.97-7.75c-.77-.71-1.8-1.17-3.29-1.17s-2.52,.49-3.26,1.17c-1.89,1.74-1.97,5.18-1.97,7.75s.09,6.03,1.97,7.78c.74,.69,1.8,1.17,3.26,1.17s2.54-.46,3.29-1.17Z"/>
  </g>
  <line x1="653.25" y1="508.15" x2="653.25" y2="500.96" fill="none" stroke="#000" stroke-linecap="round" stroke-linejoin="round" stroke-width="2"/>
  <g>
    <path d="M635.49,536.86l8.26-8.92c1.32-1.43,1.97-2.86,1.97-4.35,0-2.34-1.6-4.03-4.32-4.03s-4.43,1.86-4.43,5.09h-1.52c0-4,2.43-6.46,5.95-6.46,3.26,0,5.75,2.09,5.75,5.4,0,1.77-.86,3.66-2.29,5.18l-7.75,8.26h10.55v1.37h-12.18v-1.54Z"/>
    <path d="M654.11,535.83v2.57h-2.52v-2.57h2.52Z"/>
    <path d="M658.14,532.66h1.43c.14,2.8,2.09,4.78,5.09,4.78,3.17,0,4.98-2.23,4.98-5.23s-1.57-5.29-4.75-5.29c-1.77,0-3.52,.69-4.46,2.17h-1.69l.8-10.49h10.84v1.34h-9.61l-.66,7.72c1.09-1.4,3-2.09,4.78-2.09,4.09,0,6.18,2.86,6.18,6.63s-2.26,6.61-6.41,6.61-6.43-2.66-6.52-6.15Z"/>
  </g>
  <line x1="752" y1="508.15" x2="752" y2="500.96" fill="none" stroke="#000" stroke-linecap="round" stroke-linejoin="round" stroke-width="2"/>
  <g>
    <path d="M733.18,532.54h1.46c.03,2.52,1.6,4.89,5,4.89,3.03,0,4.92-1.8,4.92-4.32,0-2.97-2-4.35-5-4.35h-1.12v-1.37h1.12c2.72,0,4.58-1.26,4.58-3.92,0-2.29-2.03-3.92-4.46-3.92-3.03,0-4.86,1.92-4.89,4.58h-1.46c.06-3.55,2.69-5.95,6.35-5.95,3.32,0,5.92,2.14,5.92,5.29,0,2.14-1.17,4-3.46,4.6,2.49,.6,3.92,2.66,3.92,5.03,0,3.29-2.77,5.69-6.41,5.69-4.03,0-6.38-2.66-6.46-6.26Z"/>
    <path d="M752.8,535.83v2.57h-2.52v-2.57h2.52Z"/>
    <path d="M759.61,537.18c-2.14-1.97-2.46-5.55-2.46-8.69s.31-6.69,2.46-8.66c.97-.89,2.32-1.63,4.23-1.63s3.29,.71,4.23,1.63c2.12,2.03,2.46,5.55,2.46,8.66s-.31,6.72-2.46,8.69c-.94,.89-2.32,1.63-4.23,1.63s-3.26-.74-4.23-1.63Zm7.52-.92c1.86-1.74,1.97-5.18,1.97-7.78s-.09-6-1.97-7.75c-.77-.71-1.8-1.17-3.29-1.17s-2.52,.49-3.26,1.17c-1.89,1.74-1.97,5.18-1.97,7.75s.09,6.03,1.97,7.78c.74,.69,1.8,1.17,3.26,1.17s2.54-.46,3.29-1.17Z"/>
  </g>
  <line x1="850.75" y1="508.15" x2="850.75" y2="500.96" fill="none" stroke="#000" stroke-linecap="round" stroke-linejoin="round" stroke-width="2"/>
  <g>
    <path d="M832.46,532.54h1.46c.03,2.52,1.6,4.89,5,4.89,3.03,0,4.92-1.8,4.92-4.32,0-2.97-2-4.35-5-4.35h-1.11v-1.37h1.11c2.72,0,4.58-1.26,4.58-3.92,0-2.29-2.03-3.92-4.46-3.92-3.03,0-4.86,1.92-4.89,4.58h-1.46c.06-3.55,2.69-5.95,6.35-5.95,3.32,0,5.92,2.14,5.92,5.29,0,2.14-1.17,4-3.46,4.6,2.49,.6,3.92,2.66,3.92,5.03,0,3.29-2.77,5.69-6.41,5.69-4.03,0-6.38-2.66-6.46-6.26Z"/>
    <path d="M852.08,535.83v2.57h-2.52v-2.57h2.52Z"/>
    <path d="M856.11,532.66h1.43c.14,2.8,2.09,4.78,5.09,4.78,3.17,0,4.98-2.23,4.98-5.23s-1.57-5.29-4.75-5.29c-1.77,0-3.52,.69-4.46,2.17h-1.69l.8-10.49h10.84v1.34h-9.61l-.66,7.72c1.09-1.4,3-2.09,4.78-2.09,4.09,0,6.18,2.86,6.18,6.63s-2.26,6.61-6.41,6.61-6.43-2.66-6.52-6.15Z"/>
  </g>
  <g>
    <path d="M480.09,584.71c-1.66-1.4-2.4-3.69-2.4-6.15s.74-4.55,2.29-6c1-.94,2.4-1.57,4.17-1.57,2.32,0,4.09,1.29,4.75,2.89v-8.89h1.46v20.7h-1.34l-.11-2.72c-.8,1.92-2.89,3.12-4.86,3.12-1.69,0-2.97-.54-3.95-1.37Zm6.98-1.2c1.34-1.23,1.86-3,1.86-4.98,0-2.12-.49-3.77-1.83-5-.74-.69-1.74-1.14-3.09-1.14s-2.43,.49-3.2,1.29c-1.14,1.2-1.66,3.03-1.66,4.86,0,2.03,.57,3.97,1.94,5.12,.74,.63,1.74,1.03,2.97,1.03s2.26-.49,3-1.17Z"/>
    <path d="M496.59,584.08c-1.17-1.37-1.89-3.32-1.89-5.49,0-1.8,.29-3.57,1.43-5.09,1.23-1.63,2.92-2.52,5-2.52,3.95,0,6.32,3.15,6.32,6.95,0,.34,0,.54-.03,.94h-11.3c.06,3.17,1.92,5.83,5.12,5.83,2.26,0,4.03-1.49,4.38-3.32h1.49c-.43,2.69-3,4.69-5.86,4.69-2.06,0-3.72-.92-4.66-2Zm9.38-6.49c-.06-2.72-1.74-5.26-4.83-5.26s-4.92,2.46-4.98,5.26h9.81Z"/>
    <path d="M511.63,582.83v-17.84h1.43v17.79c0,.97,.29,1.72,1.49,1.72,.57,0,.83-.03,1.23-.09v1.29c-.31,.09-.69,.17-1.29,.17-1.83,0-2.86-.94-2.86-3.03Z"/>
    <path d="M517.75,581.71c0-2.54,1.94-4.12,4.8-4.32l5.26-.37v-1.26c0-2.4-1.74-3.43-3.95-3.43s-3.92,1.03-4.06,3.17h-1.43c.2-2.95,2.57-4.52,5.43-4.52,3.26,0,5.43,1.6,5.43,4.89v7.06c0,.97,.14,1.54,1.12,1.54,.11,0,.29,0,.4-.03v1.26c-.2,.06-.46,.09-.69,.09-1.77,0-2.26-1.34-2.26-2.86-.77,2.03-2.95,3.15-5.15,3.15-2.77,0-4.92-1.69-4.92-4.38Zm10.07-2.63v-.74l-5.12,.31c-2.2,.14-3.49,1.34-3.49,3.03,0,2,1.54,3.09,3.57,3.09,3.6,0,5.03-2.92,5.03-5.69Z"/>
    <path d="M532.88,591.26v-1.4c.51,.26,1.14,.43,1.86,.43,1.37,0,2.23-.63,2.89-2.29l.83-2.09-5.83-14.53h1.57l4.95,12.7,4.78-12.7h1.52l-6.55,17.1c-.89,2.32-2.17,3.17-4.06,3.17-.92,0-1.72-.26-1.94-.4Z"/>
    <path d="M554.85,576.45c0-4.46,1.63-9.44,4.72-12.9l.89,.69c-2.8,3.6-4.26,7.52-4.26,12.21s1.46,8.61,4.26,12.21l-.89,.69c-3.09-3.46-4.72-8.44-4.72-12.9Z"/>
    <path d="M562.4,581.34h1.46c.23,2.34,2.09,3.37,4.43,3.37s4.15-1.03,4.15-2.97c0-1.26-.89-2.32-2.63-2.54l-2.77-.37c-2.4-.31-4.03-1.46-4.03-3.63,0-2.54,2.46-4.2,5.15-4.2,3.09,0,5.32,1.77,5.4,4.35h-1.43c-.2-2.06-1.89-3-3.97-3s-3.69,1.12-3.69,2.72c0,1.17,.63,2.06,2.77,2.34l2.72,.37c2.69,.37,3.95,2.17,3.95,3.89,0,2.92-2.63,4.43-5.6,4.43-3.4,0-5.75-1.8-5.89-4.75Z"/>
    <path d="M575.89,588.66c2.8-3.6,4.26-7.52,4.26-12.21s-1.46-8.61-4.26-12.21l.89-.69c3.09,3.46,4.72,8.44,4.72,12.9s-1.63,9.44-4.72,12.9l-.89-.69Z"/>
  </g>
  <g>
    <path d="M878.38,571.33v-1.6l5.43-3.86h1.29v19.82h-1.43v-18.04l-5.29,3.69Z"/>
    <path d="M891.62,584.08c-1.17-1.37-1.89-3.32-1.89-5.49,0-1.8,.29-3.57,1.43-5.09,1.23-1.63,2.92-2.52,5-2.52,3.95,0,6.32,3.15,6.32,6.95,0,.34,0,.54-.03,.94h-11.29c.06,3.17,1.92,5.83,5.12,5.83,2.26,0,4.03-1.49,4.38-3.32h1.49c-.43,2.69-3,4.69-5.86,4.69-2.06,0-3.72-.92-4.66-2Zm9.38-6.49c-.06-2.72-1.74-5.26-4.83-5.26s-4.92,2.46-4.98,5.26h9.81Z"/>
    <path d="M919.18,576.39v1.32h-13.27v-1.32h13.27Z"/>
    <path d="M922.62,579.93h1.43c.14,2.8,2.09,4.78,5.09,4.78,3.17,0,4.98-2.23,4.98-5.23s-1.57-5.29-4.75-5.29c-1.77,0-3.52,.69-4.46,2.17h-1.69l.8-10.49h10.84v1.34h-9.61l-.66,7.72c1.09-1.4,3-2.09,4.78-2.09,4.09,0,6.18,2.86,6.18,6.63s-2.26,6.61-6.41,6.61-6.43-2.66-6.52-6.15Z"/>
  </g>
</svg>