<?xml version="1.0" encoding="UTF-8"?>
<svg id="Ebene_1" data-name="Ebene 1" xmlns="http://www.w3.org/2000/svg" viewBox="0 0 938.15 577.58">
  <g>
    <path id="mbe16c17d60" d="M159.45,465.21c.86,0,1.69-.34,2.29-.95,.61-.61,.95-1.43,.95-2.29s-.34-1.69-.95-2.29c-.61-.61-1.43-.95-2.29-.95s-1.69,.34-2.29,.95c-.61,.61-.95,1.43-.95,2.29s.34,1.69,.95,2.29c.61,.61,1.43,.95,2.29,.95Z" fill="#069" stroke="#069" stroke-linejoin="round" stroke-width="2.6"/>
    <path id="mbe16c17d60-2" data-name="mbe16c17d60" d="M166.86,463.44c.86,0,1.69-.34,2.29-.95,.61-.61,.95-1.43,.95-2.29s-.34-1.69-.95-2.29c-.61-.61-1.43-.95-2.29-.95s-1.69,.34-2.29,.95c-.61,.61-.95,1.43-.95,2.29s.34,1.69,.95,2.29c.61,.61,1.43,.95,2.29,.95Z" fill="#069" stroke="#069" stroke-linejoin="round" stroke-width="2.6"/>
    <path id="mbe16c17d60-3" data-name="mbe16c17d60" d="M174.27,459.95c.86,0,1.69-.34,2.29-.95,.61-.61,.95-1.43,.95-2.29s-.34-1.69-.95-2.29c-.61-.61-1.43-.95-2.29-.95s-1.69,.34-2.29,.95c-.61,.61-.95,1.43-.95,2.29s.34,1.69,.95,2.29c.61,.61,1.43,.95,2.29,.95Z" fill="#069" stroke="#069" stroke-linejoin="round" stroke-width="2.6"/>
    <path id="mbe16c17d60-4" data-name="mbe16c17d60" d="M181.67,463.82c.86,0,1.69-.34,2.29-.95,.61-.61,.95-1.43,.95-2.29s-.34-1.69-.95-2.29c-.61-.61-1.43-.95-2.29-.95s-1.69,.34-2.29,.95c-.61,.61-.95,1.43-.95,2.29s.34,1.69,.95,2.29c.61,.61,1.43,.95,2.29,.95Z" fill="#069" stroke="#069" stroke-linejoin="round" stroke-width="2.6"/>
    <path id="mbe16c17d60-5" data-name="mbe16c17d60" d="M189.08,458.62c.86,0,1.69-.34,2.29-.95,.61-.61,.95-1.43,.95-2.29s-.34-1.69-.95-2.29c-.61-.61-1.43-.95-2.29-.95s-1.69,.34-2.29,.95c-.61,.61-.95,1.43-.95,2.29s.34,1.69,.95,2.29c.61,.61,1.43,.95,2.29,.95Z" fill="#069" stroke="#069" stroke-linejoin="round" stroke-width="2.6"/>
    <path id="mbe16c17d60-6" data-name="mbe16c17d60" d="M196.49,444.55c.86,0,1.69-.34,2.29-.95,.61-.61,.95-1.43,.95-2.29s-.34-1.69-.95-2.29c-.61-.61-1.43-.95-2.29-.95s-1.69,.34-2.29,.95c-.61,.61-.95,1.43-.95,2.29s.34,1.69,.95,2.29c.61,.61,1.43,.95,2.29,.95Z" fill="#069" stroke="#069" stroke-linejoin="round" stroke-width="2.6"/>
    <path id="mbe16c17d60-7" data-name="mbe16c17d60" d="M203.89,429.47c.86,0,1.69-.34,2.29-.95,.61-.61,.95-1.43,.95-2.29s-.34-1.69-.95-2.29c-.61-.61-1.43-.95-2.29-.95s-1.69,.34-2.29,.95c-.61,.61-.95,1.43-.95,2.29s.34,1.69,.95,2.29c.61,.61,1.43,.95,2.29,.95Z" fill="#069" stroke="#069" stroke-linejoin="round" stroke-width="2.6"/>
    <path id="mbe16c17d60-8" data-name="mbe16c17d60" d="M211.3,423.63c.86,0,1.69-.34,2.29-.95,.61-.61,.95-1.43,.95-2.29s-.34-1.69-.95-2.29c-.61-.61-1.43-.95-2.29-.95s-1.69,.34-2.29,.95c-.61,.61-.95,1.43-.95,2.29s.34,1.69,.95,2.29c.61,.61,1.43,.95,2.29,.95Z" fill="#069" stroke="#069" stroke-linejoin="round" stroke-width="2.6"/>
    <path id="mbe16c17d60-9" data-name="mbe16c17d60" d="M218.71,434.87c.86,0,1.69-.34,2.29-.95,.61-.61,.95-1.43,.95-2.29s-.34-1.69-.95-2.29c-.61-.61-1.43-.95-2.29-.95s-1.69,.34-2.29,.95c-.61,.61-.95,1.43-.95,2.29s.34,1.69,.95,2.29c.61,.61,1.43,.95,2.29,.95Z" fill="#069" stroke="#069" stroke-linejoin="round" stroke-width="2.6"/>
    <path id="mbe16c17d60-10" data-name="mbe16c17d60" d="M226.11,423.75c.86,0,1.69-.34,2.29-.95,.61-.61,.95-1.43,.95-2.29s-.34-1.69-.95-2.29c-.61-.61-1.43-.95-2.29-.95s-1.69,.34-2.29,.95c-.61,.61-.95,1.43-.95,2.29s.34,1.69,.95,2.29c.61,.61,1.43,.95,2.29,.95Z" fill="#069" stroke="#069" stroke-linejoin="round" stroke-width="2.6"/>
    <path id="mbe16c17d60-11" data-name="mbe16c17d60" d="M233.52,420.23c.86,0,1.69-.34,2.29-.95,.61-.61,.95-1.43,.95-2.29s-.34-1.69-.95-2.29c-.61-.61-1.43-.95-2.29-.95s-1.69,.34-2.29,.95c-.61,.61-.95,1.43-.95,2.29s.34,1.69,.95,2.29c.61,.61,1.43,.95,2.29,.95Z" fill="#069" stroke="#069" stroke-linejoin="round" stroke-width="2.6"/>
    <path id="mbe16c17d60-12" data-name="mbe16c17d60" d="M240.93,389.52c.86,0,1.69-.34,2.29-.95,.61-.61,.95-1.43,.95-2.29s-.34-1.69-.95-2.29c-.61-.61-1.43-.95-2.29-.95s-1.69,.34-2.29,.95c-.61,.61-.95,1.43-.95,2.29s.34,1.69,.95,2.29c.61,.61,1.43,.95,2.29,.95Z" fill="#069" stroke="#069" stroke-linejoin="round" stroke-width="2.6"/>
    <path id="mbe16c17d60-13" data-name="mbe16c17d60" d="M248.33,375.65c.86,0,1.69-.34,2.29-.95,.61-.61,.95-1.43,.95-2.29s-.34-1.69-.95-2.29c-.61-.61-1.43-.95-2.29-.95s-1.69,.34-2.29,.95c-.61,.61-.95,1.43-.95,2.29s.34,1.69,.95,2.29c.61,.61,1.43,.95,2.29,.95Z" fill="#069" stroke="#069" stroke-linejoin="round" stroke-width="2.6"/>
    <path id="mbe16c17d60-14" data-name="mbe16c17d60" d="M255.74,379.4c.86,0,1.69-.34,2.29-.95,.61-.61,.95-1.43,.95-2.29s-.34-1.69-.95-2.29c-.61-.61-1.43-.95-2.29-.95s-1.69,.34-2.29,.95c-.61,.61-.95,1.43-.95,2.29s.34,1.69,.95,2.29c.61,.61,1.43,.95,2.29,.95Z" fill="#069" stroke="#069" stroke-linejoin="round" stroke-width="2.6"/>
    <path id="mbe16c17d60-15" data-name="mbe16c17d60" d="M263.15,380.99c.86,0,1.69-.34,2.29-.95,.61-.61,.95-1.43,.95-2.29s-.34-1.69-.95-2.29c-.61-.61-1.43-.95-2.29-.95s-1.69,.34-2.29,.95c-.61,.61-.95,1.43-.95,2.29s.34,1.69,.95,2.29c.61,.61,1.43,.95,2.29,.95Z" fill="#069" stroke="#069" stroke-linejoin="round" stroke-width="2.6"/>
    <path id="mbe16c17d60-16" data-name="mbe16c17d60" d="M270.55,348.97c.86,0,1.69-.34,2.29-.95,.61-.61,.95-1.43,.95-2.29s-.34-1.69-.95-2.29c-.61-.61-1.43-.95-2.29-.95s-1.69,.34-2.29,.95c-.61,.61-.95,1.43-.95,2.29s.34,1.69,.95,2.29c.61,.61,1.43,.95,2.29,.95Z" fill="#069" stroke="#069" stroke-linejoin="round" stroke-width="2.6"/>
    <path id="mbe16c17d60-17" data-name="mbe16c17d60" d="M277.96,341.24c.86,0,1.69-.34,2.29-.95,.61-.61,.95-1.43,.95-2.29s-.34-1.69-.95-2.29c-.61-.61-1.43-.95-2.29-.95s-1.69,.34-2.29,.95c-.61,.61-.95,1.43-.95,2.29s.34,1.69,.95,2.29c.61,.61,1.43,.95,2.29,.95Z" fill="#069" stroke="#069" stroke-linejoin="round" stroke-width="2.6"/>
    <path id="mbe16c17d60-18" data-name="mbe16c17d60" d="M285.37,340.71c.86,0,1.69-.34,2.29-.95,.61-.61,.95-1.43,.95-2.29s-.34-1.69-.95-2.29c-.61-.61-1.43-.95-2.29-.95s-1.69,.34-2.29,.95c-.61,.61-.95,1.43-.95,2.29s.34,1.69,.95,2.29c.61,.61,1.43,.95,2.29,.95Z" fill="#069" stroke="#069" stroke-linejoin="round" stroke-width="2.6"/>
    <path id="mbe16c17d60-19" data-name="mbe16c17d60" d="M292.77,317c.86,0,1.69-.34,2.29-.95,.61-.61,.95-1.43,.95-2.29s-.34-1.69-.95-2.29c-.61-.61-1.43-.95-2.29-.95s-1.69,.34-2.29,.95c-.61,.61-.95,1.43-.95,2.29s.34,1.69,.95,2.29c.61,.61,1.43,.95,2.29,.95Z" fill="#069" stroke="#069" stroke-linejoin="round" stroke-width="2.6"/>
    <path id="mbe16c17d60-20" data-name="mbe16c17d60" d="M300.18,290.66c.86,0,1.69-.34,2.29-.95,.61-.61,.95-1.43,.95-2.29s-.34-1.69-.95-2.29c-.61-.61-1.43-.95-2.29-.95s-1.69,.34-2.29,.95c-.61,.61-.95,1.43-.95,2.29s.34,1.69,.95,2.29c.61,.61,1.43,.95,2.29,.95Z" fill="#069" stroke="#069" stroke-linejoin="round" stroke-width="2.6"/>
    <path id="mbe16c17d60-21" data-name="mbe16c17d60" d="M307.59,292.64c.86,0,1.69-.34,2.29-.95,.61-.61,.95-1.43,.95-2.29s-.34-1.69-.95-2.29c-.61-.61-1.43-.95-2.29-.95s-1.69,.34-2.29,.95c-.61,.61-.95,1.43-.95,2.29s.34,1.69,.95,2.29c.61,.61,1.43,.95,2.29,.95Z" fill="#069" stroke="#069" stroke-linejoin="round" stroke-width="2.6"/>
    <path id="mbe16c17d60-22" data-name="mbe16c17d60" d="M314.99,276.29c.86,0,1.69-.34,2.29-.95,.61-.61,.95-1.43,.95-2.29s-.34-1.69-.95-2.29c-.61-.61-1.43-.95-2.29-.95s-1.69,.34-2.29,.95c-.61,.61-.95,1.43-.95,2.29s.34,1.69,.95,2.29c.61,.61,1.43,.95,2.29,.95Z" fill="#069" stroke="#069" stroke-linejoin="round" stroke-width="2.6"/>
    <path id="mbe16c17d60-23" data-name="mbe16c17d60" d="M322.4,246.09c.86,0,1.69-.34,2.29-.95,.61-.61,.95-1.43,.95-2.29s-.34-1.69-.95-2.29c-.61-.61-1.43-.95-2.29-.95s-1.69,.34-2.29,.95c-.61,.61-.95,1.43-.95,2.29s.34,1.69,.95,2.29c.61,.61,1.43,.95,2.29,.95Z" fill="#069" stroke="#069" stroke-linejoin="round" stroke-width="2.6"/>
    <path id="mbe16c17d60-24" data-name="mbe16c17d60" d="M329.81,235.79c.86,0,1.69-.34,2.29-.95,.61-.61,.95-1.43,.95-2.29s-.34-1.69-.95-2.29c-.61-.61-1.43-.95-2.29-.95s-1.69,.34-2.29,.95c-.61,.61-.95,1.43-.95,2.29s.34,1.69,.95,2.29c.61,.61,1.43,.95,2.29,.95Z" fill="#069" stroke="#069" stroke-linejoin="round" stroke-width="2.6"/>
    <path id="mbe16c17d60-25" data-name="mbe16c17d60" d="M337.21,230.03c.86,0,1.69-.34,2.29-.95,.61-.61,.95-1.43,.95-2.29s-.34-1.69-.95-2.29c-.61-.61-1.43-.95-2.29-.95s-1.69,.34-2.29,.95c-.61,.61-.95,1.43-.95,2.29s.34,1.69,.95,2.29c.61,.61,1.43,.95,2.29,.95Z" fill="#069" stroke="#069" stroke-linejoin="round" stroke-width="2.6"/>
    <path id="mbe16c17d60-26" data-name="mbe16c17d60" d="M344.62,204.39c.86,0,1.69-.34,2.29-.95,.61-.61,.95-1.43,.95-2.29s-.34-1.69-.95-2.29c-.61-.61-1.43-.95-2.29-.95s-1.69,.34-2.29,.95c-.61,.61-.95,1.43-.95,2.29s.34,1.69,.95,2.29c.61,.61,1.43,.95,2.29,.95Z" fill="#069" stroke="#069" stroke-linejoin="round" stroke-width="2.6"/>
    <path id="mbe16c17d60-27" data-name="mbe16c17d60" d="M352.03,189.5c.86,0,1.69-.34,2.29-.95,.61-.61,.95-1.43,.95-2.29s-.34-1.69-.95-2.29c-.61-.61-1.43-.95-2.29-.95s-1.69,.34-2.29,.95c-.61,.61-.95,1.43-.95,2.29s.34,1.69,.95,2.29c.61,.61,1.43,.95,2.29,.95Z" fill="#069" stroke="#069" stroke-linejoin="round" stroke-width="2.6"/>
    <path id="mbe16c17d60-28" data-name="mbe16c17d60" d="M359.43,174.12c.86,0,1.69-.34,2.29-.95,.61-.61,.95-1.43,.95-2.29s-.34-1.69-.95-2.29c-.61-.61-1.43-.95-2.29-.95s-1.69,.34-2.29,.95c-.61,.61-.95,1.43-.95,2.29s.34,1.69,.95,2.29c.61,.61,1.43,.95,2.29,.95Z" fill="#069" stroke="#069" stroke-linejoin="round" stroke-width="2.6"/>
    <path id="mbe16c17d60-29" data-name="mbe16c17d60" d="M366.84,177.91c.86,0,1.69-.34,2.29-.95,.61-.61,.95-1.43,.95-2.29s-.34-1.69-.95-2.29c-.61-.61-1.43-.95-2.29-.95s-1.69,.34-2.29,.95c-.61,.61-.95,1.43-.95,2.29s.34,1.69,.95,2.29c.61,.61,1.43,.95,2.29,.95Z" fill="#069" stroke="#069" stroke-linejoin="round" stroke-width="2.6"/>
    <path id="mbe16c17d60-30" data-name="mbe16c17d60" d="M374.24,160.73c.86,0,1.69-.34,2.29-.95,.61-.61,.95-1.43,.95-2.29s-.34-1.69-.95-2.29c-.61-.61-1.43-.95-2.29-.95s-1.69,.34-2.29,.95c-.61,.61-.95,1.43-.95,2.29s.34,1.69,.95,2.29c.61,.61,1.43,.95,2.29,.95Z" fill="#069" stroke="#069" stroke-linejoin="round" stroke-width="2.6"/>
    <path id="mbe16c17d60-31" data-name="mbe16c17d60" d="M381.65,146.64c.86,0,1.69-.34,2.29-.95,.61-.61,.95-1.43,.95-2.29s-.34-1.69-.95-2.29c-.61-.61-1.43-.95-2.29-.95s-1.69,.34-2.29,.95c-.61,.61-.95,1.43-.95,2.29s.34,1.69,.95,2.29c.61,.61,1.43,.95,2.29,.95Z" fill="#069" stroke="#069" stroke-linejoin="round" stroke-width="2.6"/>
    <path id="mbe16c17d60-32" data-name="mbe16c17d60" d="M389.06,128.11c.86,0,1.69-.34,2.29-.95,.61-.61,.95-1.43,.95-2.29s-.34-1.69-.95-2.29c-.61-.61-1.43-.95-2.29-.95s-1.69,.34-2.29,.95c-.61,.61-.95,1.43-.95,2.29s.34,1.69,.95,2.29c.61,.61,1.43,.95,2.29,.95Z" fill="#069" stroke="#069" stroke-linejoin="round" stroke-width="2.6"/>
    <path id="mbe16c17d60-33" data-name="mbe16c17d60" d="M396.46,135.55c.86,0,1.69-.34,2.29-.95,.61-.61,.95-1.43,.95-2.29s-.34-1.69-.95-2.29c-.61-.61-1.43-.95-2.29-.95s-1.69,.34-2.29,.95c-.61,.61-.95,1.43-.95,2.29s.34,1.69,.95,2.29c.61,.61,1.43,.95,2.29,.95Z" fill="#069" stroke="#069" stroke-linejoin="round" stroke-width="2.6"/>
    <path id="mbe16c17d60-34" data-name="mbe16c17d60" d="M403.87,82.77c.86,0,1.69-.34,2.29-.95,.61-.61,.95-1.43,.95-2.29s-.34-1.69-.95-2.29c-.61-.61-1.43-.95-2.29-.95s-1.69,.34-2.29,.95c-.61,.61-.95,1.43-.95,2.29s.34,1.69,.95,2.29c.61,.61,1.43,.95,2.29,.95Z" fill="#069" stroke="#069" stroke-linejoin="round" stroke-width="2.6"/>
    <path id="mbe16c17d60-35" data-name="mbe16c17d60" d="M411.28,102.79c.86,0,1.69-.34,2.29-.95,.61-.61,.95-1.43,.95-2.29s-.34-1.69-.95-2.29c-.61-.61-1.43-.95-2.29-.95s-1.69,.34-2.29,.95c-.61,.61-.95,1.43-.95,2.29s.34,1.69,.95,2.29c.61,.61,1.43,.95,2.29,.95Z" fill="#069" stroke="#069" stroke-linejoin="round" stroke-width="2.6"/>
    <path id="mbe16c17d60-36" data-name="mbe16c17d60" d="M418.68,96.71c.86,0,1.69-.34,2.29-.95,.61-.61,.95-1.43,.95-2.29s-.34-1.69-.95-2.29c-.61-.61-1.43-.95-2.29-.95s-1.69,.34-2.29,.95c-.61,.61-.95,1.43-.95,2.29s.34,1.69,.95,2.29c.61,.61,1.43,.95,2.29,.95Z" fill="#069" stroke="#069" stroke-linejoin="round" stroke-width="2.6"/>
    <path id="mbe16c17d60-37" data-name="mbe16c17d60" d="M426.09,68.75c.86,0,1.69-.34,2.29-.95,.61-.61,.95-1.43,.95-2.29s-.34-1.69-.95-2.29c-.61-.61-1.43-.95-2.29-.95s-1.69,.34-2.29,.95c-.61,.61-.95,1.43-.95,2.29s.34,1.69,.95,2.29c.61,.61,1.43,.95,2.29,.95Z" fill="#069" stroke="#069" stroke-linejoin="round" stroke-width="2.6"/>
    <path id="mbe16c17d60-38" data-name="mbe16c17d60" d="M433.5,71.93c.86,0,1.69-.34,2.29-.95,.61-.61,.95-1.43,.95-2.29s-.34-1.69-.95-2.29c-.61-.61-1.43-.95-2.29-.95s-1.69,.34-2.29,.95c-.61,.61-.95,1.43-.95,2.29s.34,1.69,.95,2.29c.61,.61,1.43,.95,2.29,.95Z" fill="#069" stroke="#069" stroke-linejoin="round" stroke-width="2.6"/>
    <path id="mbe16c17d60-39" data-name="mbe16c17d60" d="M440.9,65.96c.86,0,1.69-.34,2.29-.95,.61-.61,.95-1.43,.95-2.29s-.34-1.69-.95-2.29c-.61-.61-1.43-.95-2.29-.95s-1.69,.34-2.29,.95c-.61,.61-.95,1.43-.95,2.29s.34,1.69,.95,2.29c.61,.61,1.43,.95,2.29,.95Z" fill="#069" stroke="#069" stroke-linejoin="round" stroke-width="2.6"/>
    <path id="mbe16c17d60-40" data-name="mbe16c17d60" d="M448.31,51.53c.86,0,1.69-.34,2.29-.95,.61-.61,.95-1.43,.95-2.29s-.34-1.69-.95-2.29c-.61-.61-1.43-.95-2.29-.95s-1.69,.34-2.29,.95c-.61,.61-.95,1.43-.95,2.29s.34,1.69,.95,2.29c.61,.61,1.43,.95,2.29,.95Z" fill="#069" stroke="#069" stroke-linejoin="round" stroke-width="2.6"/>
    <path id="mbe16c17d60-41" data-name="mbe16c17d60" d="M455.72,55.61c.86,0,1.69-.34,2.29-.95,.61-.61,.95-1.43,.95-2.29s-.34-1.69-.95-2.29c-.61-.61-1.43-.95-2.29-.95s-1.69,.34-2.29,.95c-.61,.61-.95,1.43-.95,2.29s.34,1.69,.95,2.29c.61,.61,1.43,.95,2.29,.95Z" fill="#069" stroke="#069" stroke-linejoin="round" stroke-width="2.6"/>
    <path id="mbe16c17d60-42" data-name="mbe16c17d60" d="M463.12,51.96c.86,0,1.69-.34,2.29-.95,.61-.61,.95-1.43,.95-2.29s-.34-1.69-.95-2.29c-.61-.61-1.43-.95-2.29-.95s-1.69,.34-2.29,.95c-.61,.61-.95,1.43-.95,2.29s.34,1.69,.95,2.29c.61,.61,1.43,.95,2.29,.95Z" fill="#069" stroke="#069" stroke-linejoin="round" stroke-width="2.6"/>
    <path id="mbe16c17d60-43" data-name="mbe16c17d60" d="M470.53,61.61c.86,0,1.69-.34,2.29-.95,.61-.61,.95-1.43,.95-2.29s-.34-1.69-.95-2.29c-.61-.61-1.43-.95-2.29-.95s-1.69,.34-2.29,.95c-.61,.61-.95,1.43-.95,2.29s.34,1.69,.95,2.29c.61,.61,1.43,.95,2.29,.95Z" fill="#069" stroke="#069" stroke-linejoin="round" stroke-width="2.6"/>
    <path id="mbe16c17d60-44" data-name="mbe16c17d60" d="M477.94,42.74c.86,0,1.69-.34,2.29-.95,.61-.61,.95-1.43,.95-2.29s-.34-1.69-.95-2.29c-.61-.61-1.43-.95-2.29-.95s-1.69,.34-2.29,.95c-.61,.61-.95,1.43-.95,2.29s.34,1.69,.95,2.29c.61,.61,1.43,.95,2.29,.95Z" fill="#069" stroke="#069" stroke-linejoin="round" stroke-width="2.6"/>
    <path id="mbe16c17d60-45" data-name="mbe16c17d60" d="M485.34,44.66c.86,0,1.69-.34,2.29-.95,.61-.61,.95-1.43,.95-2.29s-.34-1.69-.95-2.29c-.61-.61-1.43-.95-2.29-.95s-1.69,.34-2.29,.95c-.61,.61-.95,1.43-.95,2.29s.34,1.69,.95,2.29c.61,.61,1.43,.95,2.29,.95Z" fill="#069" stroke="#069" stroke-linejoin="round" stroke-width="2.6"/>
    <path id="mbe16c17d60-46" data-name="mbe16c17d60" d="M492.75,37.17c.86,0,1.69-.34,2.29-.95,.61-.61,.95-1.43,.95-2.29s-.34-1.69-.95-2.29c-.61-.61-1.43-.95-2.29-.95s-1.69,.34-2.29,.95c-.61,.61-.95,1.43-.95,2.29s.34,1.69,.95,2.29c.61,.61,1.43,.95,2.29,.95Z" fill="#069" stroke="#069" stroke-linejoin="round" stroke-width="2.6"/>
    <path id="mbe16c17d60-47" data-name="mbe16c17d60" d="M500.16,26.54c.86,0,1.69-.34,2.29-.95,.61-.61,.95-1.43,.95-2.29s-.34-1.69-.95-2.29c-.61-.61-1.43-.95-2.29-.95s-1.69,.34-2.29,.95c-.61,.61-.95,1.43-.95,2.29s.34,1.69,.95,2.29c.61,.61,1.43,.95,2.29,.95Z" fill="#069" stroke="#069" stroke-linejoin="round" stroke-width="2.6"/>
    <path id="mbe16c17d60-48" data-name="mbe16c17d60" d="M507.56,33.47c.86,0,1.69-.34,2.29-.95,.61-.61,.95-1.43,.95-2.29s-.34-1.69-.95-2.29c-.61-.61-1.43-.95-2.29-.95s-1.69,.34-2.29,.95c-.61,.61-.95,1.43-.95,2.29s.34,1.69,.95,2.29c.61,.61,1.43,.95,2.29,.95Z" fill="#069" stroke="#069" stroke-linejoin="round" stroke-width="2.6"/>
    <path id="mbe16c17d60-49" data-name="mbe16c17d60" d="M514.97,54.53c.86,0,1.69-.34,2.29-.95,.61-.61,.95-1.43,.95-2.29s-.34-1.69-.95-2.29c-.61-.61-1.43-.95-2.29-.95s-1.69,.34-2.29,.95c-.61,.61-.95,1.43-.95,2.29s.34,1.69,.95,2.29c.61,.61,1.43,.95,2.29,.95Z" fill="#069" stroke="#069" stroke-linejoin="round" stroke-width="2.6"/>
    <path id="mbe16c17d60-50" data-name="mbe16c17d60" d="M522.38,37.19c.86,0,1.69-.34,2.29-.95,.61-.61,.95-1.43,.95-2.29s-.34-1.69-.95-2.29c-.61-.61-1.43-.95-2.29-.95s-1.69,.34-2.29,.95c-.61,.61-.95,1.43-.95,2.29s.34,1.69,.95,2.29c.61,.61,1.43,.95,2.29,.95Z" fill="#069" stroke="#069" stroke-linejoin="round" stroke-width="2.6"/>
    <path id="mbe16c17d60-51" data-name="mbe16c17d60" d="M529.78,54.71c.86,0,1.69-.34,2.29-.95,.61-.61,.95-1.43,.95-2.29s-.34-1.69-.95-2.29c-.61-.61-1.43-.95-2.29-.95s-1.69,.34-2.29,.95c-.61,.61-.95,1.43-.95,2.29s.34,1.69,.95,2.29c.61,.61,1.43,.95,2.29,.95Z" fill="#069" stroke="#069" stroke-linejoin="round" stroke-width="2.6"/>
    <path id="mbe16c17d60-52" data-name="mbe16c17d60" d="M537.19,48.82c.86,0,1.69-.34,2.29-.95,.61-.61,.95-1.43,.95-2.29s-.34-1.69-.95-2.29c-.61-.61-1.43-.95-2.29-.95s-1.69,.34-2.29,.95c-.61,.61-.95,1.43-.95,2.29s.34,1.69,.95,2.29c.61,.61,1.43,.95,2.29,.95Z" fill="#069" stroke="#069" stroke-linejoin="round" stroke-width="2.6"/>
    <path id="mbe16c17d60-53" data-name="mbe16c17d60" d="M544.6,53.41c.86,0,1.69-.34,2.29-.95,.61-.61,.95-1.43,.95-2.29s-.34-1.69-.95-2.29c-.61-.61-1.43-.95-2.29-.95s-1.69,.34-2.29,.95c-.61,.61-.95,1.43-.95,2.29s.34,1.69,.95,2.29c.61,.61,1.43,.95,2.29,.95Z" fill="#069" stroke="#069" stroke-linejoin="round" stroke-width="2.6"/>
    <path id="mbe16c17d60-54" data-name="mbe16c17d60" d="M552,74.12c.86,0,1.69-.34,2.29-.95,.61-.61,.95-1.43,.95-2.29s-.34-1.69-.95-2.29c-.61-.61-1.43-.95-2.29-.95s-1.69,.34-2.29,.95c-.61,.61-.95,1.43-.95,2.29s.34,1.69,.95,2.29c.61,.61,1.43,.95,2.29,.95Z" fill="#069" stroke="#069" stroke-linejoin="round" stroke-width="2.6"/>
    <path id="mbe16c17d60-55" data-name="mbe16c17d60" d="M559.41,72.88c.86,0,1.69-.34,2.29-.95,.61-.61,.95-1.43,.95-2.29s-.34-1.69-.95-2.29c-.61-.61-1.43-.95-2.29-.95s-1.69,.34-2.29,.95c-.61,.61-.95,1.43-.95,2.29s.34,1.69,.95,2.29c.61,.61,1.43,.95,2.29,.95Z" fill="#069" stroke="#069" stroke-linejoin="round" stroke-width="2.6"/>
    <path id="mbe16c17d60-56" data-name="mbe16c17d60" d="M566.82,92.82c.86,0,1.69-.34,2.29-.95,.61-.61,.95-1.43,.95-2.29s-.34-1.69-.95-2.29c-.61-.61-1.43-.95-2.29-.95s-1.69,.34-2.29,.95c-.61,.61-.95,1.43-.95,2.29s.34,1.69,.95,2.29c.61,.61,1.43,.95,2.29,.95Z" fill="#069" stroke="#069" stroke-linejoin="round" stroke-width="2.6"/>
    <path id="mbe16c17d60-57" data-name="mbe16c17d60" d="M574.22,98.5c.86,0,1.69-.34,2.29-.95,.61-.61,.95-1.43,.95-2.29s-.34-1.69-.95-2.29c-.61-.61-1.43-.95-2.29-.95s-1.69,.34-2.29,.95c-.61,.61-.95,1.43-.95,2.29s.34,1.69,.95,2.29c.61,.61,1.43,.95,2.29,.95Z" fill="#069" stroke="#069" stroke-linejoin="round" stroke-width="2.6"/>
    <path id="mbe16c17d60-58" data-name="mbe16c17d60" d="M581.63,93.41c.86,0,1.69-.34,2.29-.95,.61-.61,.95-1.43,.95-2.29s-.34-1.69-.95-2.29c-.61-.61-1.43-.95-2.29-.95s-1.69,.34-2.29,.95c-.61,.61-.95,1.43-.95,2.29s.34,1.69,.95,2.29c.61,.61,1.43,.95,2.29,.95Z" fill="#069" stroke="#069" stroke-linejoin="round" stroke-width="2.6"/>
    <path id="mbe16c17d60-59" data-name="mbe16c17d60" d="M589.04,113.3c.86,0,1.69-.34,2.29-.95,.61-.61,.95-1.43,.95-2.29s-.34-1.69-.95-2.29c-.61-.61-1.43-.95-2.29-.95s-1.69,.34-2.29,.95c-.61,.61-.95,1.43-.95,2.29s.34,1.69,.95,2.29c.61,.61,1.43,.95,2.29,.95Z" fill="#069" stroke="#069" stroke-linejoin="round" stroke-width="2.6"/>
    <path id="mbe16c17d60-60" data-name="mbe16c17d60" d="M596.44,139.32c.86,0,1.69-.34,2.29-.95,.61-.61,.95-1.43,.95-2.29s-.34-1.69-.95-2.29c-.61-.61-1.43-.95-2.29-.95s-1.69,.34-2.29,.95c-.61,.61-.95,1.43-.95,2.29s.34,1.69,.95,2.29c.61,.61,1.43,.95,2.29,.95Z" fill="#069" stroke="#069" stroke-linejoin="round" stroke-width="2.6"/>
    <path id="mbe16c17d60-61" data-name="mbe16c17d60" d="M603.85,136.19c.86,0,1.69-.34,2.29-.95,.61-.61,.95-1.43,.95-2.29s-.34-1.69-.95-2.29c-.61-.61-1.43-.95-2.29-.95s-1.69,.34-2.29,.95c-.61,.61-.95,1.43-.95,2.29s.34,1.69,.95,2.29c.61,.61,1.43,.95,2.29,.95Z" fill="#069" stroke="#069" stroke-linejoin="round" stroke-width="2.6"/>
    <path id="mbe16c17d60-62" data-name="mbe16c17d60" d="M611.26,145.27c.86,0,1.69-.34,2.29-.95,.61-.61,.95-1.43,.95-2.29s-.34-1.69-.95-2.29c-.61-.61-1.43-.95-2.29-.95s-1.69,.34-2.29,.95c-.61,.61-.95,1.43-.95,2.29s.34,1.69,.95,2.29c.61,.61,1.43,.95,2.29,.95Z" fill="#069" stroke="#069" stroke-linejoin="round" stroke-width="2.6"/>
    <path id="mbe16c17d60-63" data-name="mbe16c17d60" d="M618.66,143.46c.86,0,1.69-.34,2.29-.95,.61-.61,.95-1.43,.95-2.29s-.34-1.69-.95-2.29c-.61-.61-1.43-.95-2.29-.95s-1.69,.34-2.29,.95c-.61,.61-.95,1.43-.95,2.29s.34,1.69,.95,2.29c.61,.61,1.43,.95,2.29,.95Z" fill="#069" stroke="#069" stroke-linejoin="round" stroke-width="2.6"/>
    <path id="mbe16c17d60-64" data-name="mbe16c17d60" d="M626.07,176.66c.86,0,1.69-.34,2.29-.95,.61-.61,.95-1.43,.95-2.29s-.34-1.69-.95-2.29c-.61-.61-1.43-.95-2.29-.95s-1.69,.34-2.29,.95c-.61,.61-.95,1.43-.95,2.29s.34,1.69,.95,2.29c.61,.61,1.43,.95,2.29,.95Z" fill="#069" stroke="#069" stroke-linejoin="round" stroke-width="2.6"/>
    <path id="mbe16c17d60-65" data-name="mbe16c17d60" d="M633.48,191.81c.86,0,1.69-.34,2.29-.95,.61-.61,.95-1.43,.95-2.29s-.34-1.69-.95-2.29c-.61-.61-1.43-.95-2.29-.95s-1.69,.34-2.29,.95c-.61,.61-.95,1.43-.95,2.29s.34,1.69,.95,2.29c.61,.61,1.43,.95,2.29,.95Z" fill="#069" stroke="#069" stroke-linejoin="round" stroke-width="2.6"/>
    <path id="mbe16c17d60-66" data-name="mbe16c17d60" d="M640.88,209.55c.86,0,1.69-.34,2.29-.95,.61-.61,.95-1.43,.95-2.29s-.34-1.69-.95-2.29c-.61-.61-1.43-.95-2.29-.95s-1.69,.34-2.29,.95c-.61,.61-.95,1.43-.95,2.29s.34,1.69,.95,2.29c.61,.61,1.43,.95,2.29,.95Z" fill="#069" stroke="#069" stroke-linejoin="round" stroke-width="2.6"/>
    <path id="mbe16c17d60-67" data-name="mbe16c17d60" d="M648.29,225.06c.86,0,1.69-.34,2.29-.95,.61-.61,.95-1.43,.95-2.29s-.34-1.69-.95-2.29c-.61-.61-1.43-.95-2.29-.95s-1.69,.34-2.29,.95c-.61,.61-.95,1.43-.95,2.29s.34,1.69,.95,2.29c.61,.61,1.43,.95,2.29,.95Z" fill="#069" stroke="#069" stroke-linejoin="round" stroke-width="2.6"/>
    <path id="mbe16c17d60-68" data-name="mbe16c17d60" d="M655.7,225.17c.86,0,1.69-.34,2.29-.95,.61-.61,.95-1.43,.95-2.29s-.34-1.69-.95-2.29c-.61-.61-1.43-.95-2.29-.95s-1.69,.34-2.29,.95c-.61,.61-.95,1.43-.95,2.29s.34,1.69,.95,2.29c.61,.61,1.43,.95,2.29,.95Z" fill="#069" stroke="#069" stroke-linejoin="round" stroke-width="2.6"/>
    <path id="mbe16c17d60-69" data-name="mbe16c17d60" d="M663.1,225.56c.86,0,1.69-.34,2.29-.95,.61-.61,.95-1.43,.95-2.29s-.34-1.69-.95-2.29c-.61-.61-1.43-.95-2.29-.95s-1.69,.34-2.29,.95c-.61,.61-.95,1.43-.95,2.29s.34,1.69,.95,2.29c.61,.61,1.43,.95,2.29,.95Z" fill="#069" stroke="#069" stroke-linejoin="round" stroke-width="2.6"/>
    <path id="mbe16c17d60-70" data-name="mbe16c17d60" d="M670.51,257.11c.86,0,1.69-.34,2.29-.95,.61-.61,.95-1.43,.95-2.29s-.34-1.69-.95-2.29c-.61-.61-1.43-.95-2.29-.95s-1.69,.34-2.29,.95c-.61,.61-.95,1.43-.95,2.29s.34,1.69,.95,2.29c.61,.61,1.43,.95,2.29,.95Z" fill="#069" stroke="#069" stroke-linejoin="round" stroke-width="2.6"/>
    <path id="mbe16c17d60-71" data-name="mbe16c17d60" d="M677.92,271.3c.86,0,1.69-.34,2.29-.95,.61-.61,.95-1.43,.95-2.29s-.34-1.69-.95-2.29c-.61-.61-1.43-.95-2.29-.95s-1.69,.34-2.29,.95c-.61,.61-.95,1.43-.95,2.29s.34,1.69,.95,2.29c.61,.61,1.43,.95,2.29,.95Z" fill="#069" stroke="#069" stroke-linejoin="round" stroke-width="2.6"/>
    <path id="mbe16c17d60-72" data-name="mbe16c17d60" d="M685.32,278.67c.86,0,1.69-.34,2.29-.95,.61-.61,.95-1.43,.95-2.29s-.34-1.69-.95-2.29c-.61-.61-1.43-.95-2.29-.95s-1.69,.34-2.29,.95c-.61,.61-.95,1.43-.95,2.29s.34,1.69,.95,2.29c.61,.61,1.43,.95,2.29,.95Z" fill="#069" stroke="#069" stroke-linejoin="round" stroke-width="2.6"/>
    <path id="mbe16c17d60-73" data-name="mbe16c17d60" d="M692.73,305.78c.86,0,1.69-.34,2.29-.95,.61-.61,.95-1.43,.95-2.29s-.34-1.69-.95-2.29c-.61-.61-1.43-.95-2.29-.95s-1.69,.34-2.29,.95c-.61,.61-.95,1.43-.95,2.29s.34,1.69,.95,2.29c.61,.61,1.43,.95,2.29,.95Z" fill="#069" stroke="#069" stroke-linejoin="round" stroke-width="2.6"/>
    <path id="mbe16c17d60-74" data-name="mbe16c17d60" d="M700.13,301.6c.86,0,1.69-.34,2.29-.95,.61-.61,.95-1.43,.95-2.29s-.34-1.69-.95-2.29c-.61-.61-1.43-.95-2.29-.95s-1.69,.34-2.29,.95c-.61,.61-.95,1.43-.95,2.29s.34,1.69,.95,2.29c.61,.61,1.43,.95,2.29,.95Z" fill="#069" stroke="#069" stroke-linejoin="round" stroke-width="2.6"/>
    <path id="mbe16c17d60-75" data-name="mbe16c17d60" d="M707.54,329.15c.86,0,1.69-.34,2.29-.95,.61-.61,.95-1.43,.95-2.29s-.34-1.69-.95-2.29c-.61-.61-1.43-.95-2.29-.95s-1.69,.34-2.29,.95c-.61,.61-.95,1.43-.95,2.29s.34,1.69,.95,2.29c.61,.61,1.43,.95,2.29,.95Z" fill="#069" stroke="#069" stroke-linejoin="round" stroke-width="2.6"/>
    <path id="mbe16c17d60-76" data-name="mbe16c17d60" d="M714.95,343.32c.86,0,1.69-.34,2.29-.95,.61-.61,.95-1.43,.95-2.29s-.34-1.69-.95-2.29c-.61-.61-1.43-.95-2.29-.95s-1.69,.34-2.29,.95c-.61,.61-.95,1.43-.95,2.29s.34,1.69,.95,2.29c.61,.61,1.43,.95,2.29,.95Z" fill="#069" stroke="#069" stroke-linejoin="round" stroke-width="2.6"/>
    <path id="mbe16c17d60-77" data-name="mbe16c17d60" d="M722.35,350.49c.86,0,1.69-.34,2.29-.95,.61-.61,.95-1.43,.95-2.29s-.34-1.69-.95-2.29c-.61-.61-1.43-.95-2.29-.95s-1.69,.34-2.29,.95c-.61,.61-.95,1.43-.95,2.29s.34,1.69,.95,2.29c.61,.61,1.43,.95,2.29,.95Z" fill="#069" stroke="#069" stroke-linejoin="round" stroke-width="2.6"/>
    <path id="mbe16c17d60-78" data-name="mbe16c17d60" d="M729.76,369.56c.86,0,1.69-.34,2.29-.95,.61-.61,.95-1.43,.95-2.29s-.34-1.69-.95-2.29c-.61-.61-1.43-.95-2.29-.95s-1.69,.34-2.29,.95c-.61,.61-.95,1.43-.95,2.29s.34,1.69,.95,2.29c.61,.61,1.43,.95,2.29,.95Z" fill="#069" stroke="#069" stroke-linejoin="round" stroke-width="2.6"/>
    <path id="mbe16c17d60-79" data-name="mbe16c17d60" d="M737.17,377.15c.86,0,1.69-.34,2.29-.95,.61-.61,.95-1.43,.95-2.29s-.34-1.69-.95-2.29c-.61-.61-1.43-.95-2.29-.95s-1.69,.34-2.29,.95c-.61,.61-.95,1.43-.95,2.29s.34,1.69,.95,2.29c.61,.61,1.43,.95,2.29,.95Z" fill="#069" stroke="#069" stroke-linejoin="round" stroke-width="2.6"/>
    <path id="mbe16c17d60-80" data-name="mbe16c17d60" d="M744.57,391.06c.86,0,1.69-.34,2.29-.95,.61-.61,.95-1.43,.95-2.29s-.34-1.69-.95-2.29c-.61-.61-1.43-.95-2.29-.95s-1.69,.34-2.29,.95c-.61,.61-.95,1.43-.95,2.29s.34,1.69,.95,2.29c.61,.61,1.43,.95,2.29,.95Z" fill="#069" stroke="#069" stroke-linejoin="round" stroke-width="2.6"/>
    <path id="mbe16c17d60-81" data-name="mbe16c17d60" d="M751.98,391.01c.86,0,1.69-.34,2.29-.95,.61-.61,.95-1.43,.95-2.29s-.34-1.69-.95-2.29c-.61-.61-1.43-.95-2.29-.95s-1.69,.34-2.29,.95c-.61,.61-.95,1.43-.95,2.29s.34,1.69,.95,2.29c.61,.61,1.43,.95,2.29,.95Z" fill="#069" stroke="#069" stroke-linejoin="round" stroke-width="2.6"/>
    <path id="mbe16c17d60-82" data-name="mbe16c17d60" d="M759.39,419.2c.86,0,1.69-.34,2.29-.95,.61-.61,.95-1.43,.95-2.29s-.34-1.69-.95-2.29c-.61-.61-1.43-.95-2.29-.95s-1.69,.34-2.29,.95c-.61,.61-.95,1.43-.95,2.29s.34,1.69,.95,2.29c.61,.61,1.43,.95,2.29,.95Z" fill="#069" stroke="#069" stroke-linejoin="round" stroke-width="2.6"/>
    <path id="mbe16c17d60-83" data-name="mbe16c17d60" d="M766.79,416.17c.86,0,1.69-.34,2.29-.95,.61-.61,.95-1.43,.95-2.29s-.34-1.69-.95-2.29c-.61-.61-1.43-.95-2.29-.95s-1.69,.34-2.29,.95c-.61,.61-.95,1.43-.95,2.29s.34,1.69,.95,2.29c.61,.61,1.43,.95,2.29,.95Z" fill="#069" stroke="#069" stroke-linejoin="round" stroke-width="2.6"/>
    <path id="mbe16c17d60-84" data-name="mbe16c17d60" d="M774.2,430.44c.86,0,1.69-.34,2.29-.95,.61-.61,.95-1.43,.95-2.29s-.34-1.69-.95-2.29c-.61-.61-1.43-.95-2.29-.95s-1.69,.34-2.29,.95c-.61,.61-.95,1.43-.95,2.29s.34,1.69,.95,2.29c.61,.61,1.43,.95,2.29,.95Z" fill="#069" stroke="#069" stroke-linejoin="round" stroke-width="2.6"/>
    <path id="mbe16c17d60-85" data-name="mbe16c17d60" d="M781.61,424.04c.86,0,1.69-.34,2.29-.95,.61-.61,.95-1.43,.95-2.29s-.34-1.69-.95-2.29c-.61-.61-1.43-.95-2.29-.95s-1.69,.34-2.29,.95c-.61,.61-.95,1.43-.95,2.29s.34,1.69,.95,2.29c.61,.61,1.43,.95,2.29,.95Z" fill="#069" stroke="#069" stroke-linejoin="round" stroke-width="2.6"/>
    <path id="mbe16c17d60-86" data-name="mbe16c17d60" d="M789.01,431.24c.86,0,1.69-.34,2.29-.95,.61-.61,.95-1.43,.95-2.29s-.34-1.69-.95-2.29c-.61-.61-1.43-.95-2.29-.95s-1.69,.34-2.29,.95c-.61,.61-.95,1.43-.95,2.29s.34,1.69,.95,2.29c.61,.61,1.43,.95,2.29,.95Z" fill="#069" stroke="#069" stroke-linejoin="round" stroke-width="2.6"/>
    <path id="mbe16c17d60-87" data-name="mbe16c17d60" d="M796.42,445.78c.86,0,1.69-.34,2.29-.95,.61-.61,.95-1.43,.95-2.29s-.34-1.69-.95-2.29c-.61-.61-1.43-.95-2.29-.95s-1.69,.34-2.29,.95c-.61,.61-.95,1.43-.95,2.29s.34,1.69,.95,2.29c.61,.61,1.43,.95,2.29,.95Z" fill="#069" stroke="#069" stroke-linejoin="round" stroke-width="2.6"/>
    <path id="mbe16c17d60-88" data-name="mbe16c17d60" d="M803.83,450.92c.86,0,1.69-.34,2.29-.95,.61-.61,.95-1.43,.95-2.29s-.34-1.69-.95-2.29c-.61-.61-1.43-.95-2.29-.95s-1.69,.34-2.29,.95c-.61,.61-.95,1.43-.95,2.29s.34,1.69,.95,2.29c.61,.61,1.43,.95,2.29,.95Z" fill="#069" stroke="#069" stroke-linejoin="round" stroke-width="2.6"/>
    <path id="mbe16c17d60-89" data-name="mbe16c17d60" d="M811.23,453.48c.86,0,1.69-.34,2.29-.95,.61-.61,.95-1.43,.95-2.29s-.34-1.69-.95-2.29c-.61-.61-1.43-.95-2.29-.95s-1.69,.34-2.29,.95c-.61,.61-.95,1.43-.95,2.29s.34,1.69,.95,2.29c.61,.61,1.43,.95,2.29,.95Z" fill="#069" stroke="#069" stroke-linejoin="round" stroke-width="2.6"/>
    <path id="mbe16c17d60-90" data-name="mbe16c17d60" d="M818.64,458.97c.86,0,1.69-.34,2.29-.95,.61-.61,.95-1.43,.95-2.29s-.34-1.69-.95-2.29c-.61-.61-1.43-.95-2.29-.95s-1.69,.34-2.29,.95c-.61,.61-.95,1.43-.95,2.29s.34,1.69,.95,2.29c.61,.61,1.43,.95,2.29,.95Z" fill="#069" stroke="#069" stroke-linejoin="round" stroke-width="2.6"/>
    <path id="mbe16c17d60-91" data-name="mbe16c17d60" d="M826.05,472.48c.86,0,1.69-.34,2.29-.95,.61-.61,.95-1.43,.95-2.29s-.34-1.69-.95-2.29c-.61-.61-1.43-.95-2.29-.95s-1.69,.34-2.29,.95c-.61,.61-.95,1.43-.95,2.29s.34,1.69,.95,2.29c.61,.61,1.43,.95,2.29,.95Z" fill="#069" stroke="#069" stroke-linejoin="round" stroke-width="2.6"/>
    <path id="mbe16c17d60-92" data-name="mbe16c17d60" d="M833.45,463.55c.86,0,1.69-.34,2.29-.95,.61-.61,.95-1.43,.95-2.29s-.34-1.69-.95-2.29c-.61-.61-1.43-.95-2.29-.95s-1.69,.34-2.29,.95c-.61,.61-.95,1.43-.95,2.29s.34,1.69,.95,2.29c.61,.61,1.43,.95,2.29,.95Z" fill="#069" stroke="#069" stroke-linejoin="round" stroke-width="2.6"/>
    <path id="mbe16c17d60-93" data-name="mbe16c17d60" d="M840.86,465.49c.86,0,1.69-.34,2.29-.95,.61-.61,.95-1.43,.95-2.29s-.34-1.69-.95-2.29c-.61-.61-1.43-.95-2.29-.95s-1.69,.34-2.29,.95c-.61,.61-.95,1.43-.95,2.29s.34,1.69,.95,2.29c.61,.61,1.43,.95,2.29,.95Z" fill="#069" stroke="#069" stroke-linejoin="round" stroke-width="2.6"/>
    <path id="mbe16c17d60-94" data-name="mbe16c17d60" d="M848.27,459.42c.86,0,1.69-.34,2.29-.95,.61-.61,.95-1.43,.95-2.29s-.34-1.69-.95-2.29c-.61-.61-1.43-.95-2.29-.95s-1.69,.34-2.29,.95c-.61,.61-.95,1.43-.95,2.29s.34,1.69,.95,2.29c.61,.61,1.43,.95,2.29,.95Z" fill="#069" stroke="#069" stroke-linejoin="round" stroke-width="2.6"/>
    <path id="mbe16c17d60-95" data-name="mbe16c17d60" d="M855.67,454.11c.86,0,1.69-.34,2.29-.95,.61-.61,.95-1.43,.95-2.29s-.34-1.69-.95-2.29c-.61-.61-1.43-.95-2.29-.95s-1.69,.34-2.29,.95c-.61,.61-.95,1.43-.95,2.29s.34,1.69,.95,2.29c.61,.61,1.43,.95,2.29,.95Z" fill="#069" stroke="#069" stroke-linejoin="round" stroke-width="2.6"/>
    <path id="mbe16c17d60-96" data-name="mbe16c17d60" d="M863.08,457.25c.86,0,1.69-.34,2.29-.95,.61-.61,.95-1.43,.95-2.29s-.34-1.69-.95-2.29c-.61-.61-1.43-.95-2.29-.95s-1.69,.34-2.29,.95c-.61,.61-.95,1.43-.95,2.29s.34,1.69,.95,2.29c.61,.61,1.43,.95,2.29,.95Z" fill="#069" stroke="#069" stroke-linejoin="round" stroke-width="2.6"/>
    <path id="mbe16c17d60-97" data-name="mbe16c17d60" d="M870.49,440.24c.86,0,1.69-.34,2.29-.95,.61-.61,.95-1.43,.95-2.29s-.34-1.69-.95-2.29c-.61-.61-1.43-.95-2.29-.95s-1.69,.34-2.29,.95c-.61,.61-.95,1.43-.95,2.29s.34,1.69,.95,2.29c.61,.61,1.43,.95,2.29,.95Z" fill="#069" stroke="#069" stroke-linejoin="round" stroke-width="2.6"/>
    <path id="mbe16c17d60-98" data-name="mbe16c17d60" d="M877.89,433.1c.86,0,1.69-.34,2.29-.95,.61-.61,.95-1.43,.95-2.29s-.34-1.69-.95-2.29c-.61-.61-1.43-.95-2.29-.95s-1.69,.34-2.29,.95c-.61,.61-.95,1.43-.95,2.29s.34,1.69,.95,2.29c.61,.61,1.43,.95,2.29,.95Z" fill="#069" stroke="#069" stroke-linejoin="round" stroke-width="2.6"/>
    <path id="mbe16c17d60-99" data-name="mbe16c17d60" d="M885.3,435.57c.86,0,1.69-.34,2.29-.95,.61-.61,.95-1.43,.95-2.29s-.34-1.69-.95-2.29c-.61-.61-1.43-.95-2.29-.95s-1.69,.34-2.29,.95c-.61,.61-.95,1.43-.95,2.29s.34,1.69,.95,2.29c.61,.61,1.43,.95,2.29,.95Z" fill="#069" stroke="#069" stroke-linejoin="round" stroke-width="2.6"/>
    <path id="mbe16c17d60-100" data-name="mbe16c17d60" d="M892.71,441.21c.86,0,1.69-.34,2.29-.95,.61-.61,.95-1.43,.95-2.29s-.34-1.69-.95-2.29c-.61-.61-1.43-.95-2.29-.95s-1.69,.34-2.29,.95c-.61,.61-.95,1.43-.95,2.29s.34,1.69,.95,2.29c.61,.61,1.43,.95,2.29,.95Z" fill="#069" stroke="#069" stroke-linejoin="round" stroke-width="2.6"/>
    <path id="mbe16c17d60-101" data-name="mbe16c17d60" d="M900.11,428.19c.86,0,1.69-.34,2.29-.95,.61-.61,.95-1.43,.95-2.29s-.34-1.69-.95-2.29c-.61-.61-1.43-.95-2.29-.95s-1.69,.34-2.29,.95c-.61,.61-.95,1.43-.95,2.29s.34,1.69,.95,2.29c.61,.61,1.43,.95,2.29,.95Z" fill="#069" stroke="#069" stroke-linejoin="round" stroke-width="2.6"/>
  </g>
  <path d="M159.45,457.68l5.88-.78,5.88-1.4,5.88-2.01,5.88-2.62,5.88-3.22,5.88-3.81,5.88-4.39,5.88-4.95,5.88-5.5,7.35-7.63,7.35-8.43,7.35-9.19,7.35-9.91,8.82-12.78,8.82-13.66,10.29-16.94,10.29-17.87,11.76-21.36,14.7-27.74,24.98-48.43,22.04-42.31,13.23-24.43,11.76-20.75,10.29-17.21,8.82-13.93,8.82-13.07,8.82-12.13,7.35-9.33,7.35-8.57,7.35-7.78,7.35-6.95,5.88-4.94,5.88-4.37,5.88-3.8,5.88-3.21,5.88-2.61,5.88-2,5.88-1.39,5.88-.77,5.88-.15,5.88,.47,5.88,1.09,5.88,1.7,5.88,2.31,5.88,2.91,5.88,3.51,5.88,4.09,5.88,4.66,5.88,5.22,5.88,5.77,7.35,7.95,7.35,8.73,7.35,9.48,7.35,10.18,8.82,13.08,8.82,13.94,10.29,17.22,11.76,20.76,13.23,24.43,17.63,33.75,39.68,76.5,13.23,24.32,11.76,20.62,10.29,17.08,8.82,13.8,8.82,12.92,8.82,11.97,7.35,9.18,7.35,8.42,7.35,7.62,5.88,5.5,5.88,4.94,5.88,4.38,5.88,3.8,5.88,3.21,5.88,2.61,5.88,2.01,5.88,1.39,5.88,.78,5.88,.16,5.88-.46,5.88-1.08,5.88-1.7,5.88-2.31,5.88-2.91,5.88-3.5,5.88-4.09,5.88-4.66,5.88-5.22,5.88-5.76,2.94-3.08h0" fill="none" stroke="red" stroke-linecap="round" stroke-linejoin="round" stroke-width="4"/>
  <rect x="122.49" y="1" width="814.66" height="490.49" fill="none" stroke="#000" stroke-linecap="square" stroke-linejoin="round" stroke-width="2"/>
  <g>
    <path d="M80.02,24.25v-1.6l5.43-3.86h1.29v19.82h-1.43V20.56l-5.29,3.69Z"/>
    <path d="M94.66,36.03v2.57h-2.52v-2.57h2.52Z"/>
    <path d="M98.78,37.06l8.26-8.92c1.32-1.43,1.97-2.86,1.97-4.35,0-2.35-1.6-4.03-4.32-4.03s-4.43,1.86-4.43,5.09h-1.52c0-4,2.43-6.46,5.95-6.46,3.26,0,5.75,2.09,5.75,5.4,0,1.77-.86,3.66-2.29,5.18l-7.75,8.26h10.55v1.37h-12.18v-1.54Z"/>
  </g>
  <line x1="122.49" y1="31.27" x2="129.68" y2="31.27" fill="none" stroke="#000" stroke-linecap="round" stroke-linejoin="round" stroke-width="2"/>
  <g>
    <path d="M78.16,100.86v-1.6l5.43-3.86h1.29v19.82h-1.43v-18.04l-5.29,3.69Z"/>
    <path d="M92.8,112.64v2.57h-2.52v-2.57h2.52Z"/>
    <path d="M99.61,113.99c-2.15-1.97-2.46-5.55-2.46-8.69s.31-6.69,2.46-8.66c.97-.89,2.32-1.63,4.23-1.63s3.29,.71,4.23,1.63c2.12,2.03,2.46,5.55,2.46,8.66s-.31,6.72-2.46,8.69c-.94,.89-2.32,1.63-4.23,1.63s-3.26-.74-4.23-1.63Zm7.52-.92c1.86-1.74,1.97-5.18,1.97-7.78s-.09-6-1.97-7.75c-.77-.71-1.8-1.17-3.29-1.17s-2.52,.49-3.26,1.17c-1.89,1.74-1.97,5.18-1.97,7.75s.09,6.03,1.97,7.78c.74,.69,1.8,1.17,3.26,1.17s2.54-.46,3.29-1.17Z"/>
  </g>
  <line x1="122.49" y1="107.88" x2="129.68" y2="107.88" fill="none" stroke="#000" stroke-linecap="round" stroke-linejoin="round" stroke-width="2"/>
  <g>
    <path d="M75.47,190.6c-2.14-1.97-2.46-5.55-2.46-8.69s.31-6.69,2.46-8.66c.97-.89,2.32-1.63,4.23-1.63s3.29,.71,4.23,1.63c2.12,2.03,2.46,5.55,2.46,8.66s-.31,6.72-2.46,8.69c-.94,.89-2.32,1.63-4.23,1.63s-3.26-.74-4.23-1.63Zm7.52-.92c1.86-1.74,1.97-5.18,1.97-7.78s-.09-6-1.97-7.75c-.77-.71-1.8-1.17-3.29-1.17s-2.52,.49-3.26,1.17c-1.89,1.74-1.97,5.18-1.97,7.75s.09,6.03,1.97,7.78c.74,.69,1.8,1.17,3.26,1.17s2.54-.46,3.29-1.17Z"/>
    <path d="M93.26,189.26v2.57h-2.52v-2.57h2.52Z"/>
    <path d="M97.49,186.6c0-2.23,1.43-4.38,3.69-5.12-1.94-.71-3.23-2.6-3.23-4.58,0-3.32,2.72-5.29,6.12-5.29s6.12,1.97,6.12,5.29c0,1.97-1.29,3.86-3.23,4.58,2.26,.74,3.69,2.89,3.69,5.12,0,3.55-3.03,5.63-6.58,5.63s-6.58-2.09-6.58-5.63Zm11.7-.09c0-2.83-2.29-4.4-5.12-4.4s-5.12,1.57-5.12,4.4,2.29,4.4,5.12,4.4,5.12-1.57,5.12-4.4Zm-.49-9.67c0-2.54-2.09-3.95-4.63-3.95s-4.63,1.4-4.63,3.95,2.03,4,4.63,4,4.63-1.4,4.63-4Z"/>
  </g>
  <line x1="122.49" y1="184.49" x2="129.68" y2="184.49" fill="none" stroke="#000" stroke-linecap="round" stroke-linejoin="round" stroke-width="2"/>
  <g>
    <path d="M75.44,267.21c-2.14-1.97-2.46-5.55-2.46-8.69s.31-6.69,2.46-8.66c.97-.89,2.32-1.63,4.23-1.63s3.29,.71,4.23,1.63c2.12,2.03,2.46,5.55,2.46,8.66s-.31,6.72-2.46,8.69c-.94,.89-2.32,1.63-4.23,1.63s-3.26-.74-4.23-1.63Zm7.52-.92c1.86-1.74,1.97-5.18,1.97-7.78s-.09-6-1.97-7.75c-.77-.71-1.8-1.17-3.29-1.17s-2.52,.49-3.26,1.17c-1.89,1.74-1.97,5.18-1.97,7.75s.09,6.03,1.97,7.78c.74,.69,1.8,1.17,3.26,1.17s2.54-.46,3.29-1.17Z"/>
    <path d="M93.23,265.87v2.57h-2.52v-2.57h2.52Z"/>
    <path d="M99.38,266.41c-1.52-2.03-1.83-5.06-1.83-7.89,0-3.03,.4-6.32,2.34-8.41,.94-1,2.43-1.89,4.49-1.89,3.35,0,5.75,2.06,5.92,5.18h-1.46c-.2-2.29-1.72-3.8-4.46-3.8-4.43,0-5.35,4.78-5.35,9.49,.71-2.09,2.89-3.49,5.23-3.49,4.12,0,6.49,2.66,6.49,6.58,0,3.66-2.34,6.66-6.46,6.66-2.32,0-3.97-1.17-4.92-2.43Zm9.92-4.23c0-2.75-1.57-5.26-5-5.26-2.86,0-4.86,2.32-4.86,5.2s1.72,5.35,4.89,5.35c3.43,0,4.98-2.52,4.98-5.29Z"/>
  </g>
  <line x1="122.49" y1="261.11" x2="129.68" y2="261.11" fill="none" stroke="#000" stroke-linecap="round" stroke-linejoin="round" stroke-width="2"/>
  <g>
    <path d="M76.13,343.83c-2.15-1.97-2.46-5.55-2.46-8.69s.31-6.69,2.46-8.66c.97-.89,2.32-1.63,4.23-1.63s3.29,.71,4.23,1.63c2.12,2.03,2.46,5.55,2.46,8.66s-.31,6.72-2.46,8.69c-.94,.89-2.32,1.63-4.23,1.63s-3.26-.74-4.23-1.63Zm7.52-.92c1.86-1.74,1.97-5.18,1.97-7.78s-.09-6-1.97-7.75c-.77-.71-1.8-1.17-3.29-1.17s-2.52,.49-3.26,1.17c-1.89,1.74-1.97,5.18-1.97,7.75s.09,6.03,1.97,7.78c.74,.69,1.8,1.17,3.26,1.17s2.54-.46,3.29-1.17Z"/>
    <path d="M93.91,342.48v2.57h-2.52v-2.57h2.52Z"/>
    <path d="M107.13,340.39h-9.89v-1.72l8.58-13.44h1.69l-8.81,13.73h8.44v-6.55h1.46v6.55h2.95v1.43h-2.95v4.66h-1.46v-4.66Z"/>
  </g>
  <line x1="122.49" y1="337.72" x2="129.68" y2="337.72" fill="none" stroke="#000" stroke-linecap="round" stroke-linejoin="round" stroke-width="2"/>
  <g>
    <path d="M76.87,420.44c-2.14-1.97-2.46-5.55-2.46-8.69s.31-6.69,2.46-8.66c.97-.89,2.32-1.63,4.23-1.63s3.29,.71,4.23,1.63c2.12,2.03,2.46,5.55,2.46,8.66s-.31,6.72-2.46,8.69c-.94,.89-2.32,1.63-4.23,1.63s-3.26-.74-4.23-1.63Zm7.52-.92c1.86-1.74,1.97-5.18,1.97-7.78s-.09-6-1.97-7.75c-.77-.71-1.8-1.17-3.29-1.17s-2.52,.49-3.26,1.17c-1.89,1.74-1.97,5.18-1.97,7.75s.09,6.03,1.97,7.78c.74,.69,1.8,1.17,3.26,1.17s2.54-.46,3.29-1.17Z"/>
    <path d="M94.66,419.1v2.57h-2.52v-2.57h2.52Z"/>
    <path d="M98.78,420.13l8.26-8.92c1.32-1.43,1.97-2.86,1.97-4.35,0-2.35-1.6-4.03-4.32-4.03s-4.43,1.86-4.43,5.09h-1.52c0-4,2.43-6.46,5.95-6.46,3.26,0,5.75,2.09,5.75,5.4,0,1.77-.86,3.66-2.29,5.18l-7.75,8.26h10.55v1.37h-12.18v-1.54Z"/>
  </g>
  <line x1="122.49" y1="414.34" x2="129.68" y2="414.34" fill="none" stroke="#000" stroke-linecap="round" stroke-linejoin="round" stroke-width="2"/>
  <g>
    <path d="M75.01,497.59c-2.15-1.97-2.46-5.55-2.46-8.69s.31-6.69,2.46-8.66c.97-.89,2.32-1.63,4.23-1.63s3.29,.71,4.23,1.63c2.12,2.03,2.46,5.55,2.46,8.66s-.31,6.72-2.46,8.69c-.94,.89-2.32,1.63-4.23,1.63s-3.26-.74-4.23-1.63Zm7.52-.92c1.86-1.74,1.97-5.18,1.97-7.78s-.09-6-1.97-7.75c-.77-.71-1.8-1.17-3.29-1.17s-2.52,.49-3.26,1.17c-1.89,1.74-1.97,5.18-1.97,7.75s.09,6.03,1.97,7.78c.74,.69,1.8,1.17,3.26,1.17s2.54-.46,3.29-1.17Z"/>
    <path d="M92.8,496.25v2.57h-2.52v-2.57h2.52Z"/>
    <path d="M99.61,497.59c-2.14-1.97-2.46-5.55-2.46-8.69s.31-6.69,2.46-8.66c.97-.89,2.32-1.63,4.23-1.63s3.29,.71,4.23,1.63c2.12,2.03,2.46,5.55,2.46,8.66s-.31,6.72-2.46,8.69c-.94,.89-2.32,1.63-4.23,1.63s-3.26-.74-4.23-1.63Zm7.52-.92c1.86-1.74,1.97-5.18,1.97-7.78s-.09-6-1.97-7.75c-.77-.71-1.8-1.17-3.29-1.17s-2.52,.49-3.26,1.17c-1.89,1.74-1.97,5.18-1.97,7.75s.09,6.03,1.97,7.78c.74,.69,1.8,1.17,3.26,1.17s2.54-.46,3.29-1.17Z"/>
  </g>
  <line x1="122.49" y1="491.49" x2="129.68" y2="491.49" fill="none" stroke="#000" stroke-linecap="round" stroke-linejoin="round" stroke-width="2"/>
  <g>
    <path d="M18.06,276.61v9.61l6.38,2.43v1.57l-20.27-7.86v-1.8l20.27-7.95v1.54l-6.38,2.46Zm-1.37,.54l-11.15,4.32,11.15,4.23v-8.55Z"/>
    <path d="M15.2,263.51c-4.46,0-9.44-1.63-12.9-4.72l.69-.89c3.6,2.8,7.52,4.26,12.21,4.26s8.61-1.46,12.21-4.26l.69,.89c-3.46,3.09-8.44,4.72-12.9,4.72Z"/>
    <path d="M20.46,255.85c-2.54,0-4.12-1.94-4.32-4.8l-.37-5.26h-1.26c-2.4,0-3.43,1.74-3.43,3.95s1.03,3.92,3.17,4.06v1.43c-2.95-.2-4.52-2.57-4.52-5.43,0-3.26,1.6-5.43,4.89-5.43h7.06c.97,0,1.54-.14,1.54-1.12,0-.11,0-.29-.03-.4h1.26c.06,.2,.09,.46,.09,.69,0,1.77-1.34,2.26-2.86,2.26,2.03,.77,3.15,2.95,3.15,5.15,0,2.77-1.69,4.92-4.38,4.92Zm-2.63-10.07h-.74l.31,5.12c.14,2.2,1.34,3.49,3.03,3.49,2,0,3.09-1.54,3.09-3.57,0-3.6-2.92-5.03-5.69-5.03Z"/>
    <path d="M21.86,236.66h2.57v2.52h-2.57v-2.52Z"/>
    <path d="M19.38,231.71H10.14v-1.43h9.15c2.49,0,4.15-1.23,4.15-3.75,0-3.32-2.66-4.69-5.86-4.69h-7.43v-1.43h14.3v1.32l-2.69,.11c1.89,.8,3.09,2.63,3.09,4.78,0,3.23-2.26,5.09-5.46,5.09Z"/>
    <path d="M21.86,212.78h2.57v2.52h-2.57v-2.52Z"/>
    <path d="M27.41,209.74c-3.6-2.8-7.52-4.26-12.21-4.26s-8.61,1.46-12.21,4.26l-.69-.89c3.46-3.09,8.44-4.72,12.9-4.72s9.44,1.63,12.9,4.72l-.69,.89Z"/>
  </g>
  <line x1="159.45" y1="491.49" x2="159.45" y2="484.3" fill="none" stroke="#000" stroke-linecap="round" stroke-linejoin="round" stroke-width="2"/>
  <g>
    <path d="M142.92,520.23c-2.14-1.97-2.46-5.55-2.46-8.69s.31-6.69,2.46-8.66c.97-.89,2.32-1.63,4.23-1.63s3.29,.71,4.23,1.63c2.12,2.03,2.46,5.55,2.46,8.66s-.31,6.72-2.46,8.69c-.94,.89-2.32,1.63-4.23,1.63s-3.26-.74-4.23-1.63Zm7.52-.92c1.86-1.74,1.97-5.18,1.97-7.78s-.09-6-1.97-7.75c-.77-.71-1.8-1.17-3.29-1.17s-2.52,.49-3.26,1.17c-1.89,1.74-1.97,5.18-1.97,7.75s.09,6.03,1.97,7.78c.74,.69,1.8,1.17,3.26,1.17s2.54-.46,3.29-1.17Z"/>
    <path d="M160.71,518.89v2.57h-2.52v-2.57h2.52Z"/>
    <path d="M167.52,520.23c-2.15-1.97-2.46-5.55-2.46-8.69s.31-6.69,2.46-8.66c.97-.89,2.32-1.63,4.23-1.63s3.29,.71,4.23,1.63c2.12,2.03,2.46,5.55,2.46,8.66s-.31,6.72-2.46,8.69c-.94,.89-2.32,1.63-4.23,1.63s-3.26-.74-4.23-1.63Zm7.52-.92c1.86-1.74,1.97-5.18,1.97-7.78s-.09-6-1.97-7.75c-.77-.71-1.8-1.17-3.29-1.17s-2.52,.49-3.26,1.17c-1.89,1.74-1.97,5.18-1.97,7.75s.09,6.03,1.97,7.78c.74,.69,1.8,1.17,3.26,1.17s2.54-.46,3.29-1.17Z"/>
  </g>
  <line x1="306.47" y1="491.49" x2="306.47" y2="484.3" fill="none" stroke="#000" stroke-linecap="round" stroke-linejoin="round" stroke-width="2"/>
  <g>
    <path d="M293.29,520.23c-2.15-1.97-2.46-5.55-2.46-8.69s.31-6.69,2.46-8.66c.97-.89,2.32-1.63,4.23-1.63s3.29,.71,4.23,1.63c2.12,2.03,2.46,5.55,2.46,8.66s-.31,6.72-2.46,8.69c-.94,.89-2.32,1.63-4.23,1.63s-3.26-.74-4.23-1.63Zm7.52-.92c1.86-1.74,1.97-5.18,1.97-7.78s-.09-6-1.97-7.75c-.77-.71-1.8-1.17-3.29-1.17s-2.52,.49-3.26,1.17c-1.89,1.74-1.97,5.18-1.97,7.75s.09,6.03,1.97,7.78c.74,.69,1.8,1.17,3.26,1.17s2.54-.46,3.29-1.17Z"/>
    <path d="M311.08,518.89v2.57h-2.52v-2.57h2.52Z"/>
    <path d="M314.34,507.11v-1.6l5.43-3.86h1.29v19.82h-1.43v-18.04l-5.29,3.69Z"/>
  </g>
  <line x1="453.48" y1="491.49" x2="453.48" y2="484.3" fill="none" stroke="#000" stroke-linecap="round" stroke-linejoin="round" stroke-width="2"/>
  <g>
    <path d="M437.88,520.23c-2.14-1.97-2.46-5.55-2.46-8.69s.31-6.69,2.46-8.66c.97-.89,2.32-1.63,4.23-1.63s3.29,.71,4.23,1.63c2.12,2.03,2.46,5.55,2.46,8.66s-.31,6.72-2.46,8.69c-.94,.89-2.32,1.63-4.23,1.63s-3.26-.74-4.23-1.63Zm7.52-.92c1.86-1.74,1.97-5.18,1.97-7.78s-.09-6-1.97-7.75c-.77-.71-1.8-1.17-3.29-1.17s-2.52,.49-3.26,1.17c-1.89,1.74-1.97,5.18-1.97,7.75s.09,6.03,1.97,7.78c.74,.69,1.8,1.17,3.26,1.17s2.54-.46,3.29-1.17Z"/>
    <path d="M455.67,518.89v2.57h-2.52v-2.57h2.52Z"/>
    <path d="M459.79,519.92l8.26-8.92c1.32-1.43,1.97-2.86,1.97-4.35,0-2.34-1.6-4.03-4.32-4.03s-4.43,1.86-4.43,5.09h-1.52c0-4,2.43-6.46,5.95-6.46,3.26,0,5.75,2.09,5.75,5.4,0,1.77-.86,3.66-2.29,5.18l-7.75,8.26h10.55v1.37h-12.18v-1.54Z"/>
  </g>
  <line x1="600.5" y1="491.49" x2="600.5" y2="484.3" fill="none" stroke="#000" stroke-linecap="round" stroke-linejoin="round" stroke-width="2"/>
  <g>
    <path d="M584.42,520.23c-2.15-1.97-2.46-5.55-2.46-8.69s.31-6.69,2.46-8.66c.97-.89,2.32-1.63,4.23-1.63s3.29,.71,4.23,1.63c2.12,2.03,2.46,5.55,2.46,8.66s-.31,6.72-2.46,8.69c-.94,.89-2.32,1.63-4.23,1.63s-3.26-.74-4.23-1.63Zm7.52-.92c1.86-1.74,1.97-5.18,1.97-7.78s-.09-6-1.97-7.75c-.77-.71-1.8-1.17-3.29-1.17s-2.52,.49-3.26,1.17c-1.89,1.74-1.97,5.18-1.97,7.75s.09,6.03,1.97,7.78c.74,.69,1.8,1.17,3.26,1.17s2.54-.46,3.29-1.17Z"/>
    <path d="M602.21,518.89v2.57h-2.52v-2.57h2.52Z"/>
    <path d="M606.27,515.6h1.46c.03,2.52,1.6,4.89,5,4.89,3.03,0,4.92-1.8,4.92-4.32,0-2.97-2-4.35-5-4.35h-1.12v-1.37h1.12c2.72,0,4.58-1.26,4.58-3.92,0-2.29-2.03-3.92-4.46-3.92-3.03,0-4.86,1.92-4.89,4.58h-1.46c.06-3.55,2.69-5.95,6.35-5.95,3.32,0,5.92,2.14,5.92,5.29,0,2.14-1.17,4-3.46,4.6,2.49,.6,3.92,2.66,3.92,5.03,0,3.29-2.77,5.69-6.41,5.69-4.03,0-6.38-2.66-6.46-6.26Z"/>
  </g>
  <line x1="747.51" y1="491.49" x2="747.51" y2="484.3" fill="none" stroke="#000" stroke-linecap="round" stroke-linejoin="round" stroke-width="2"/>
  <g>
    <path d="M731.54,520.23c-2.14-1.97-2.46-5.55-2.46-8.69s.31-6.69,2.46-8.66c.97-.89,2.32-1.63,4.23-1.63s3.29,.71,4.23,1.63c2.12,2.03,2.46,5.55,2.46,8.66s-.31,6.72-2.46,8.69c-.94,.89-2.32,1.63-4.23,1.63s-3.26-.74-4.23-1.63Zm7.52-.92c1.86-1.74,1.97-5.18,1.97-7.78s-.09-6-1.97-7.75c-.77-.71-1.8-1.17-3.29-1.17s-2.52,.49-3.26,1.17c-1.89,1.74-1.97,5.18-1.97,7.75s.09,6.03,1.97,7.78c.74,.69,1.8,1.17,3.26,1.17s2.54-.46,3.29-1.17Z"/>
    <path d="M749.32,518.89v2.57h-2.52v-2.57h2.52Z"/>
    <path d="M762.54,516.8h-9.89v-1.72l8.58-13.44h1.69l-8.81,13.73h8.44v-6.55h1.46v6.55h2.95v1.43h-2.95v4.66h-1.46v-4.66Z"/>
  </g>
  <line x1="894.53" y1="491.49" x2="894.53" y2="484.3" fill="none" stroke="#000" stroke-linecap="round" stroke-linejoin="round" stroke-width="2"/>
  <g>
    <path d="M878.52,520.23c-2.14-1.97-2.46-5.55-2.46-8.69s.31-6.69,2.46-8.66c.97-.89,2.32-1.63,4.23-1.63s3.29,.71,4.23,1.63c2.12,2.03,2.46,5.55,2.46,8.66s-.31,6.72-2.46,8.69c-.94,.89-2.32,1.63-4.23,1.63s-3.26-.74-4.23-1.63Zm7.52-.92c1.86-1.74,1.97-5.18,1.97-7.78s-.09-6-1.97-7.75c-.77-.71-1.8-1.17-3.29-1.17s-2.52,.49-3.26,1.17c-1.89,1.74-1.97,5.18-1.97,7.75s.09,6.03,1.97,7.78c.74,.69,1.8,1.17,3.26,1.17s2.54-.46,3.29-1.17Z"/>
    <path d="M896.31,518.89v2.57h-2.52v-2.57h2.52Z"/>
    <path d="M900.34,515.71h1.43c.14,2.8,2.09,4.78,5.09,4.78,3.17,0,4.98-2.23,4.98-5.23s-1.57-5.29-4.75-5.29c-1.77,0-3.52,.69-4.46,2.17h-1.69l.8-10.49h10.84v1.34h-9.61l-.66,7.72c1.09-1.4,3-2.09,4.78-2.09,4.09,0,6.18,2.86,6.18,6.63s-2.26,6.61-6.41,6.61-6.43-2.66-6.52-6.15Z"/>
  </g>
  <g>
    <path d="M430.02,565.05c0-2.54,1.94-4.12,4.8-4.32l5.26-.37v-1.26c0-2.4-1.74-3.43-3.95-3.43s-3.92,1.03-4.06,3.17h-1.43c.2-2.95,2.57-4.52,5.43-4.52,3.26,0,5.43,1.6,5.43,4.89v7.06c0,.97,.14,1.54,1.12,1.54,.11,0,.29,0,.4-.03v1.26c-.2,.06-.46,.09-.69,.09-1.77,0-2.26-1.34-2.26-2.86-.77,2.03-2.95,3.15-5.15,3.15-2.77,0-4.92-1.69-4.92-4.38Zm10.07-2.63v-.74l-5.12,.31c-2.2,.14-3.49,1.34-3.49,3.03,0,2,1.54,3.09,3.57,3.09,3.6,0,5.03-2.92,5.03-5.69Z"/>
    <path d="M446.89,554.73h1.32l.11,2.8c.66-1.92,2.4-3.2,4.49-3.2,2.46,0,3.89,1.26,4.46,3.09,.77-1.77,2.32-3.09,4.72-3.09,3.35,0,4.75,2.2,4.75,5.26v9.44h-1.43v-9.26c0-2.52-.97-4.09-3.46-4.09-2.69,0-4.26,2.37-4.26,5.26v8.09h-1.49v-9.26c0-2.52-1.09-4.09-3.46-4.09-2.75,0-4.32,2.57-4.32,5.63v7.72h-1.43v-14.3Z"/>
    <path d="M471.89,554.73h1.32l.11,2.72c.8-1.89,2.92-3.12,4.89-3.12,1.69,0,2.95,.54,3.92,1.37,1.66,1.4,2.4,3.6,2.4,6.15s-.71,4.63-2.26,6.06c-.97,.92-2.32,1.52-4.03,1.52-2.09,0-4.12-1.17-4.92-3v8.29h-1.43v-19.99Zm9.55,12.01c1.14-1.23,1.63-3.03,1.63-4.86,0-2.03-.57-3.95-1.94-5.12-.71-.63-1.69-1.03-2.95-1.03s-2.26,.49-3,1.17c-1.32,1.26-1.89,3-1.89,4.98,0,2.12,.51,3.77,1.86,5,.74,.69,1.74,1.14,3.09,1.14s2.46-.49,3.2-1.29Z"/>
    <path d="M488.85,566.17v-17.84h1.43v17.79c0,.97,.29,1.72,1.49,1.72,.57,0,.83-.03,1.23-.09v1.29c-.31,.09-.69,.17-1.29,.17-1.83,0-2.86-.94-2.86-3.03Z"/>
    <path d="M497.83,548.75v2.12h-1.94v-2.12h1.94Zm-.23,5.98v14.3h-1.46v-14.3h1.46Z"/>
    <path d="M504.35,565.31v-9.26h-3.37v-1.32h3.37v-3.95l1.43-.34v4.29h4.49v1.32h-4.49v9.06c0,1.57,.49,2.77,2.57,2.77,.77,0,1.37-.09,2.12-.26v1.26c-.71,.23-1.43,.34-2.23,.34-2.8,0-3.89-1.63-3.89-3.92Z"/>
    <path d="M513.73,563.96v-9.24h1.43v9.15c0,2.49,1.23,4.15,3.75,4.15,3.32,0,4.69-2.66,4.69-5.86v-7.43h1.43v14.3h-1.32l-.11-2.69c-.8,1.89-2.63,3.09-4.78,3.09-3.23,0-5.09-2.26-5.09-5.46Z"/>
    <path d="M531.78,568.05c-1.66-1.4-2.4-3.69-2.4-6.15s.74-4.55,2.29-6c1-.94,2.4-1.57,4.17-1.57,2.32,0,4.09,1.29,4.75,2.89v-8.89h1.46v20.7h-1.34l-.11-2.72c-.8,1.92-2.89,3.12-4.86,3.12-1.69,0-2.97-.54-3.95-1.37Zm6.98-1.2c1.34-1.23,1.86-3,1.86-4.98,0-2.12-.49-3.77-1.83-5-.74-.69-1.74-1.14-3.09-1.14s-2.43,.49-3.2,1.29c-1.14,1.2-1.66,3.03-1.66,4.86,0,2.03,.57,3.97,1.94,5.12,.74,.63,1.74,1.03,2.97,1.03s2.26-.49,3-1.17Z"/>
    <path d="M548.28,567.42c-1.17-1.37-1.89-3.32-1.89-5.49,0-1.8,.29-3.57,1.43-5.09,1.23-1.63,2.92-2.52,5-2.52,3.95,0,6.32,3.15,6.32,6.95,0,.34,0,.54-.03,.94h-11.29c.06,3.17,1.92,5.83,5.12,5.83,2.26,0,4.03-1.49,4.38-3.32h1.49c-.43,2.69-3,4.69-5.86,4.69-2.06,0-3.72-.92-4.66-2Zm9.38-6.49c-.06-2.72-1.74-5.26-4.83-5.26s-4.92,2.46-4.98,5.26h9.81Z"/>
    <path d="M569.58,559.79c0-4.46,1.63-9.44,4.72-12.9l.89,.69c-2.8,3.6-4.26,7.52-4.26,12.21s1.46,8.61,4.26,12.21l-.89,.69c-3.09-3.46-4.72-8.44-4.72-12.9Z"/>
    <path d="M577.25,565.05c0-2.54,1.94-4.12,4.8-4.32l5.26-.37v-1.26c0-2.4-1.74-3.43-3.95-3.43s-3.92,1.03-4.06,3.17h-1.43c.2-2.95,2.57-4.52,5.43-4.52,3.26,0,5.43,1.6,5.43,4.89v7.06c0,.97,.14,1.54,1.12,1.54,.11,0,.29,0,.4-.03v1.26c-.2,.06-.46,.09-.69,.09-1.77,0-2.26-1.34-2.26-2.86-.77,2.03-2.95,3.15-5.15,3.15-2.77,0-4.92-1.69-4.92-4.38Zm10.07-2.63v-.74l-5.12,.31c-2.2,.14-3.49,1.34-3.49,3.03,0,2,1.54,3.09,3.57,3.09,3.6,0,5.03-2.92,5.03-5.69Z"/>
    <path d="M596.44,566.45v2.57h-2.52v-2.57h2.52Z"/>
    <path d="M601.39,563.96v-9.24h1.43v9.15c0,2.49,1.23,4.15,3.75,4.15,3.32,0,4.69-2.66,4.69-5.86v-7.43h1.43v14.3h-1.32l-.11-2.69c-.8,1.89-2.63,3.09-4.78,3.09-3.23,0-5.09-2.26-5.09-5.46Z"/>
    <path d="M620.32,566.45v2.57h-2.52v-2.57h2.52Z"/>
    <path d="M623.35,572c2.8-3.6,4.26-7.52,4.26-12.21s-1.46-8.61-4.26-12.21l.89-.69c3.09,3.46,4.72,8.44,4.72,12.9s-1.63,9.44-4.72,12.9l-.89-.69Z"/>
  </g>
</svg>