<svg width="378" height="378" xmlns="http://www.w3.org/2000/svg" xmlns:xlink="http://www.w3.org/1999/xlink" overflow="hidden"><defs><radialGradient cx="723900" cy="719137" r="1020387" fx="723900" fy="719138" gradientUnits="userSpaceOnUse" spreadMethod="pad" id="fill0" gradientTransform="matrix(0.000104987 0 0 0.000104987 113 143)"><stop offset="0" stop-color="#ED7D31"/><stop offset="0.12" stop-color="#ED7D31"/><stop offset="0.72" stop-color="#FFFFFF" stop-opacity="0"/><stop offset="1" stop-color="#FFFFFF" stop-opacity="0"/></radialGradient><radialGradient cx="719138" cy="719138" r="1017014" gradientUnits="userSpaceOnUse" spreadMethod="pad" id="fill1" gradientTransform="matrix(0.000104987 0 0 0.000104987 150 60)"><stop offset="0" stop-color="#0AA5E7"/><stop offset="0.15" stop-color="#0AA5E7"/><stop offset="0.71" stop-color="#FFFFFF" stop-opacity="0"/><stop offset="1" stop-color="#FFFFFF" stop-opacity="0"/></radialGradient></defs><g><rect x="0" y="0" width="378" height="378" fill="#FFFFFF"/><rect x="77.5001" y="53.5001" width="252" height="252" stroke="#002060" stroke-width="1.33333" stroke-miterlimit="8" fill="none"/><text fill="#101010" font-family="ZI Akkurat Light,ZI Akkurat Light_MSFontService,sans-serif" font-weight="300" font-size="21" transform="translate(104.397 330)">in phase component</text><text fill="#101010" font-family="ZI Akkurat Light,ZI Akkurat Light_MSFontService,sans-serif" font-weight="300" font-size="21" transform="matrix(-1.83697e-16 -1 1 -1.83697e-16 60.4395 290)">quadrature component</text><path d="M113 218.5C113 176.802 147.026 143 189 143 230.974 143 265 176.802 265 218.5 265 260.197 230.974 294 189 294 147.026 294 113 260.197 113 218.5Z" fill="url(#fill0)" fill-rule="evenodd"/><path d="M150 135.5C150 93.8025 183.802 60 225.5 60 267.197 60 301 93.8025 301 135.5 301 177.197 267.197 211 225.5 211 183.802 211 150 177.197 150 135.5Z" fill="url(#fill1)" fill-rule="evenodd"/><text fill="#00A1E6" font-family="ZI Akkurat Light,ZI Akkurat Light_MSFontService,sans-serif" font-weight="300" font-size="21" transform="translate(287.015 141)">g</text><text fill="#ED7D31" font-family="ZI Akkurat Light,ZI Akkurat Light_MSFontService,sans-serif" font-weight="300" font-size="21" transform="translate(240.649 242)">e</text><path d="M152 219C152 198.565 168.565 182 189 182 209.435 182 226 198.565 226 219 226 239.435 209.435 256 189 256 168.565 256 152 239.435 152 219Z" stroke="#ED7D31" stroke-width="2" stroke-miterlimit="8" stroke-dasharray="2 2" fill="none" fill-rule="evenodd"/><path d="M188 136C188 115.565 204.565 99 225 99 245.435 99 262 115.565 262 136 262 156.435 245.435 173 225 173 204.565 173 188 156.435 188 136Z" stroke="#0AA5E7" stroke-width="2" stroke-miterlimit="8" stroke-dasharray="2 2" fill="none" fill-rule="evenodd"/><path d="M76.5001 141.5 329.68 141.5" stroke="#BFBFBF" stroke-width="0.666667" stroke-linecap="square" stroke-miterlimit="8" stroke-dasharray="2 0.666667" fill="none" fill-rule="evenodd"/><path d="M76.5001 270.5 329.68 270.5" stroke="#BFBFBF" stroke-width="0.666667" stroke-linecap="square" stroke-miterlimit="8" stroke-dasharray="2 0.666667" fill="none" fill-rule="evenodd"/><path d="M0 0 0.530184 252.239" stroke="#A6A6A6" stroke-width="1.33333" stroke-linecap="square" stroke-miterlimit="8" stroke-dasharray="4 1.33333" fill="none" fill-rule="evenodd" transform="matrix(-1 0 0 1 204.03 53.5001)"/><path d="M140.5 53.5001 140.5 306.478" stroke="#BFBFBF" stroke-width="0.666667" stroke-linecap="square" stroke-miterlimit="8" stroke-dasharray="2 0.666667" fill="none" fill-rule="evenodd"/><path d="M270.5 53.5001 270.5 305.739" stroke="#BFBFBF" stroke-width="0.666667" stroke-linecap="square" stroke-miterlimit="8" stroke-dasharray="2 0.666667" fill="none" fill-rule="evenodd"/><path d="M76.5001 205.5 329.68 205.5" stroke="#A6A6A6" stroke-width="1.33333" stroke-linecap="square" stroke-miterlimit="8" stroke-dasharray="4 1.33333" fill="none" fill-rule="evenodd"/><path d="M76.5001 79.5001 329.68 79.5002" stroke="#BFBFBF" stroke-width="0.666667" stroke-linecap="square" stroke-miterlimit="8" stroke-dasharray="2 0.666667" fill="none" fill-rule="evenodd"/></g></svg>