<svg width="945" height="454" xmlns="http://www.w3.org/2000/svg" xmlns:xlink="http://www.w3.org/1999/xlink" overflow="hidden"><defs><clipPath id="clip0"><rect x="0" y="0" width="945" height="454"/></clipPath></defs><g clip-path="url(#clip0)"><rect x="0" y="0" width="945" height="454.42" fill="#FFFFFF"/><path d="M543.5 321.798C543.5 311.295 552.007 302.78 562.5 302.78 572.993 302.78 581.5 311.295 581.5 321.798 581.5 332.301 572.993 340.815 562.5 340.815 552.007 340.815 543.5 332.301 543.5 321.798Z" stroke="#000000" stroke-width="1.33357" stroke-miterlimit="8" fill="#FFFFFF" fill-rule="evenodd"/><text font-family="ZI Akkurat Light,ZI Akkurat Light_MSFontService,sans-serif" font-weight="300" font-size="21" transform="matrix(1 0 0 1.00093 554.962 329)">Q</text><path d="M0 8.00005C2.51057 3.19779 8.86438 0.0146652 15.9687 4.84001e-05 23.0731-0.01452 29.4519 3.14247 32.0001 7.93432" stroke="#101010" stroke-width="1.33357" stroke-miterlimit="8" fill="none" fill-rule="evenodd" transform="matrix(-1.83697e-16 -1.00093 -1 1.83867e-16 591.5 337.813)"/><path d="M0 0 0.000105005 26.8414" stroke="#101010" stroke-width="1.33357" stroke-linecap="square" stroke-miterlimit="8" fill="none" fill-rule="evenodd" transform="matrix(1 0 0 -1.00093 750.5 349.665)"/><path d="M732.5 349.824 766.929 349.824" stroke="#101010" stroke-width="1.33357" stroke-linecap="square" stroke-miterlimit="8" fill="none" fill-rule="evenodd"/><path d="M740.5 355.829 758.926 355.829" stroke="#101010" stroke-width="1.33357" stroke-linecap="square" stroke-miterlimit="8" fill="none" fill-rule="evenodd"/><path d="M745.5 361.835 754.034 361.835" stroke="#101010" stroke-width="1.33357" stroke-linecap="square" stroke-miterlimit="8" fill="none" fill-rule="evenodd"/><path d="M719 338.813C714.306 338.813 710.5 331.419 710.5 322.298 710.5 313.177 714.306 305.783 719 305.783 723.694 305.783 727.5 313.177 727.5 322.298 727.5 331.419 723.694 338.813 719 338.813Z" stroke="#101010" stroke-width="1.3348" stroke-miterlimit="8" fill="#FFFFFF" fill-rule="evenodd"/><rect x="693" y="305.282" width="25.9999" height="32.0296" fill="#FFFFFF"/><path d="M718.5 338.814 662.5 338.814 662.5 305.783 718.5 305.783" stroke="#101010" stroke-width="1.3348" stroke-miterlimit="8" fill="none" fill-rule="evenodd"/><path d="M662.5 338.813C657.529 338.813 653.5 331.419 653.5 322.298 653.5 313.177 657.529 305.783 662.5 305.783 667.471 305.783 671.5 313.177 671.5 322.298 671.5 331.419 667.471 338.813 662.5 338.813Z" stroke="#101010" stroke-width="1.3348" stroke-miterlimit="8" fill="#FFFFFF" fill-rule="evenodd"/><path d="M0 0 0.000105005 97.221" stroke="#101010" stroke-width="1.33357" stroke-linecap="square" stroke-miterlimit="8" fill="none" fill-rule="evenodd" transform="matrix(1 0 0 -1.00093 624.5 322.019)"/><rect x="612" y="268.248" width="25" height="9.00836" fill="#FFFFFF"/><path d="M610.5 268.749 638.322 268.749" stroke="#101010" stroke-width="1.33357" stroke-linecap="square" stroke-miterlimit="8" fill="none" fill-rule="evenodd"/><path d="M610.5 277.757 638.322 277.757" stroke="#101010" stroke-width="1.33357" stroke-linecap="square" stroke-miterlimit="8" fill="none" fill-rule="evenodd"/><path d="M543.5 224.708 750.068 224.708" stroke="#101010" stroke-width="1.33357" stroke-linecap="square" stroke-miterlimit="8" fill="none" fill-rule="evenodd"/><path d="M0 0 22.9109 0.0319216" stroke="#101010" stroke-width="1.33357" stroke-linecap="square" stroke-miterlimit="8" fill="none" fill-rule="evenodd" transform="matrix(-1 0 0 1.00093 750.411 321.798)"/><text fill="#101010" font-family="ZI Akkurat Light,ZI Akkurat Light_MSFontService,sans-serif" font-weight="300" font-size="21" transform="matrix(1 0 0 1.00093 671.615 291)">Res.</text><text font-family="ZI Akkurat Light,ZI Akkurat Light_MSFontService,sans-serif" font-weight="300" font-size="21" transform="matrix(1 0 0 1.00093 535.086 291)">Qubit</text><g><g><g><g><path d="M2.78744 22.9997 3.90287 22.979 4.90212 22.9632 5.34366 22.9866 5.76194 23.0387 6.38938 23.1539 6.76119 23.2071 7.01681 23.2145 7.22595 23.1921 7.41186 23.1455 7.59776 23.0709 7.80691 22.9522 8.0393 22.7809 8.34139 22.5163 8.71321 22.1939 8.89911 22.0714 9.03855 22.0121 9.15473 21.9905 9.27092 21.999 9.38711 22.0418 9.50331 22.1221 9.6195 22.2427 9.73569 22.4048 9.87512 22.6546 10.0378 23.0188 10.2237 23.519 10.4793 24.3072 10.8744 25.5303 11.037 25.9376 11.1532 26.1617 11.2462 26.2902 11.3391 26.3663 11.4088 26.3854 11.4786 26.3691 11.5483 26.3154 11.618 26.2225 11.7109 26.0352 11.8039 25.7736 11.9201 25.3406 12.0363 24.7912 12.1757 23.9867 12.3384 22.8704 12.5475 21.2224 13.1052 16.6907 13.2447 15.8093 13.3609 15.2337 13.4538 14.8985 13.5235 14.7292 13.5933 14.6362 13.6397 14.6186 13.6862 14.6382 13.7327 14.6958 13.8023 14.8554 13.8721 15.1045 13.9651 15.5783 14.058 16.2138 14.1742 17.2308 14.3136 18.7597 14.4763 20.9188 14.6855 24.1476 15.3129 34.1973 15.4523 35.8819 15.5684 36.9793 15.6615 37.6232 15.7312 37.9565 15.8009 38.1534 15.8474 38.2061 15.8707 38.2084 15.9171 38.1638 15.9636 38.0532 16.0333 37.7624 16.103 37.3208 16.1959 36.4992 16.2889 35.418 16.4051 33.7191 16.5445 31.2179 16.7072 27.7669 16.9396 22.1653 17.3811 11.3625 17.5438 8.03878 17.6832 5.72284 17.7994 4.25072 17.8923 3.40874 17.962 2.98608 18.0318 2.74913 18.0782 2.69639 18.1015 2.70188 18.1479 2.77688 18.1944 2.93721 18.2641 3.33698 18.3339 3.92529 18.4269 4.99453 18.5431 6.76431 18.6824 9.4615 18.8452 13.2656 19.0775 19.5336 19.5887 33.6403 19.7746 37.8312 19.9141 40.3586 20.0302 41.9854 20.1233 42.9425 20.1929 43.4488 20.2626 43.7686 20.3092 43.8767 20.3323 43.8991 20.3556 43.9001 20.3788 43.8802 20.4254 43.7765 20.4718 43.5886 20.5415 43.1505 20.6113 42.5286 20.7042 41.4236 20.8203 39.625 20.9598 36.9162 21.1224 33.1235 21.3548 26.8883 21.8894 12.1554 22.0753 8.00052 22.2146 5.50714 22.3308 3.91239 22.4238 2.98266 22.4936 2.49754 22.5633 2.19936 22.6097 2.10584 22.6329 2.09083 22.6562 2.09703 22.7026 2.17297 22.7492 2.33333 22.8188 2.7307 22.8885 3.31287 22.9816 4.36718 23.0977 6.10706 23.2371 8.75426 23.3998 12.4899 23.6089 18.0279 24.2364 35.1408 24.399 38.6022 24.5385 40.96 24.6547 42.4283 24.7477 43.2504 24.8174 43.6522 24.8639 43.8155 24.9103 43.8944 24.9336 43.9021 24.9568 43.8885 25.0032 43.7981 25.0498 43.6232 25.1195 43.2044 25.1891 42.6013 25.2821 41.5201 25.3983 39.7492 25.5378 37.0694 25.7004 33.3036 25.9328 27.0907 26.4905 11.7652 26.6531 8.14498 26.7926 5.621 26.9088 3.99753 27.0018 3.04325 27.0714 2.53905 27.1411 2.2214 27.1877 2.11479 27.2109 2.09321 27.2342 2.09284 27.2573 2.11367 27.3039 2.21879 27.3503 2.40816 27.4201 2.84842 27.4898 3.47242 27.5827 4.58017 27.6989 6.3819 27.8384 9.09402 28.001 12.8897 28.2333 19.1276 28.7679 33.8573 28.9538 38.0085 29.0932 40.4985 29.2093 42.0898 29.3024 43.0167 29.3721 43.4997 29.4418 43.7957 29.4883 43.8877 29.5114 43.902 29.5347 43.8951 29.5812 43.8176 29.6276 43.6558 29.6974 43.2563 29.7671 42.6719 29.8601 41.6149 29.9763 39.8718 30.1156 37.2212 30.2784 33.4824 30.4875 27.942 31.0916 11.3804 31.2544 7.82521 31.3937 5.36971 31.51 3.81041 31.6029 2.91094 31.6727 2.44931 31.7424 2.17506 31.7889 2.09763 31.8121 2.0907 31.8353 2.10495 31.8817 2.19698 31.9283 2.37333 31.9981 2.79436 32.0677 3.39963 32.1607 4.48344 32.2769 6.25751 32.4163 8.94064 32.579 12.7096 32.8113 18.925 33.3691 34.2473 33.5317 37.8643 33.6711 40.3847 33.7873 42.0049 33.8803 42.9565 33.9499 43.4584 34.0197 43.7738 34.0663 43.879 34.0894 43.8999 34.1127 43.8995 34.1359 43.8779 34.1824 43.7713 34.2289 43.5805 34.2986 43.138 34.3915 42.2632 34.4845 41.0764 34.6007 39.1835 34.7402 36.3765 34.9028 32.4943 35.1352 26.1859 35.6232 12.6892 35.8091 8.43819 35.9486 5.85378 36.0647 4.17337 36.1576 3.17025 36.2506 2.48837 36.3204 2.19462 36.3668 2.10409 36.39 2.09058 36.4133 2.09827 36.4597 2.17719 36.5062 2.34052 36.5759 2.74227 36.6456 3.32872 36.7387 4.38851 36.8548 6.13475 36.9942 8.78864 37.1569 12.5305 37.366 18.0734 37.9702 34.6319 38.1329 38.1836 38.2723 40.6355 38.3886 42.1916 38.4815 43.0882 38.5512 43.5477 38.6209 43.8197 38.6674 43.8956 38.6907 43.9019 38.7138 43.8868 38.7603 43.7934 38.8069 43.6155 38.8766 43.1923 38.9462 42.5849 39.0392 41.4983 39.1554 39.7211 39.2949 37.0346 39.4575 33.2627 39.6899 27.0447 40.2476 11.7256 40.4102 8.11199 40.5497 5.59495 40.6659 3.97801 40.7589 3.02929 40.8285 2.52942 40.8982 2.21621 40.9448 2.11258 40.968 2.09249 40.9912 2.09361 41.0144 2.11593 41.061 2.22403 41.1074 2.41637 41.1772 2.861 41.2701 3.73853 41.3631 4.9281 41.4793 6.82403 41.6186 9.63424 41.7813 13.5193 42.0137 19.83 42.5017 33.3102 42.6876 37.5027 42.8271 40.0047 42.9433 41.59 43.0362 42.501 43.1059 42.9666 43.1756 43.2412 43.2221 43.3176 43.2454 43.3239 43.2685 43.3087 43.3151 43.2149 43.3615 43.037 43.4313 42.6156 43.501 42.014 43.5939 40.9452 43.7101 39.2138 43.8496 36.6315 44.0355 32.5253 44.3376 25.0044 44.6397 17.6855 44.8256 13.8565 44.965 11.5062 45.0812 9.951 45.1974 8.79438 45.2903 8.16773 45.36 7.87412 45.4065 7.7621 45.4529 7.71639 45.4762 7.71812 45.5226 7.77005 45.5692 7.88543 45.6388 8.17386 45.7086 8.59471 45.8016 9.34817 45.9178 10.5682 46.0572 12.3754 46.2431 15.2121 46.9402 26.3751 47.1028 28.3242 47.2423 29.6413 47.3585 30.4676 47.4515 30.9457 47.5444 31.2613 47.6141 31.3932 47.6606 31.4325 47.707 31.4339 47.7536 31.3987 47.8001 31.3277 47.8698 31.158 47.9627 30.8212 48.0789 30.2421 48.2183 29.3548 48.4042 27.9359 49.1246 22.1464 49.2874 21.1837 49.4267 20.5316 49.5429 20.1174 49.6359 19.8716 49.7288 19.7005 49.7985 19.6197 49.8683 19.5779 49.938 19.5732 50.0077 19.6035 50.0775 19.6663 50.1704 19.7958 50.2865 20.0219 50.426 20.3688 50.6119 20.9194 51.2393 22.8547 51.402 23.2449 51.5646 23.5577 51.7041 23.7601 51.8203 23.8823 51.9365 23.964 52.0526 24.0074 52.1688 24.0163 52.285 23.9946 52.4245 23.9346 52.5871 23.8281 52.8195 23.6333 53.4005 23.1234 53.6096 22.9832 53.8188 22.879 54.0047 22.8175 54.2139 22.781 54.4462 22.7745 54.725 22.801 55.1433 22.8762 55.7475 22.9805 56.1658 23.02 56.6306 23.0321 57.3743 23.0155 58.5362 22.9929 58.5362 22.9929" stroke="#595959" stroke-width="0.601473" stroke-linecap="square" stroke-linejoin="round" fill="none" transform="matrix(1.67961 0 0 1 432 201.211)"/></g></g></g></g><g><g><g><g><path d="M2.78744 22.9996 3.90286 22.979 4.90211 22.9632 5.34364 22.9866 5.76193 23.0386 6.38936 23.1539 6.76118 23.2071 7.0168 23.2144 7.22593 23.1921 7.41185 23.1455 7.59774 23.0708 7.80689 22.9521 8.03928 22.7808 8.34137 22.5163 8.71318 22.1938 8.89909 22.0714 9.03853 22.012 9.15471 21.9905 9.2709 21.999 9.38709 22.0417 9.50328 22.1221 9.61948 22.2427 9.73567 22.4047 9.8751 22.6545 10.0378 23.0188 10.2237 23.5189 10.4793 24.3071 10.8743 25.5303 11.037 25.9375 11.1532 26.1616 11.2462 26.2902 11.3391 26.3663 11.4088 26.3853 11.4785 26.3691 11.5482 26.3153 11.618 26.2224 11.7109 26.0352 11.8039 25.7735 11.9201 25.3405 12.0363 24.7911 12.1757 23.9867 12.3383 22.8704 12.5475 21.2223 13.1052 16.6907 13.2447 15.8093 13.3609 15.2337 13.4538 14.8985 13.5235 14.7292 13.5932 14.6362 13.6397 14.6186 13.6861 14.6382 13.7327 14.6958 13.8023 14.8554 13.872 15.1045 13.9651 15.5783 14.0579 16.2137 14.1741 17.2307 14.3136 18.7597 14.4762 20.9188 14.6854 24.1476 15.3129 34.1973 15.4522 35.8818 15.5684 36.9792 15.6614 37.6232 15.7312 37.9564 15.8009 38.1533 15.8473 38.206 15.8706 38.2083 15.9171 38.1637 15.9635 38.0531 16.0333 37.7624 16.103 37.3207 16.1959 36.4992 16.2889 35.4179 16.4051 33.719 16.5444 31.2179 16.7072 27.7668 16.9395 22.1652 17.3811 11.3625 17.5437 8.03876 17.6832 5.72283 17.7994 4.25071 17.8923 3.40873 17.962 2.98607 18.0317 2.74912 18.0782 2.69638 18.1015 2.70188 18.1479 2.77687 18.1943 2.9372 18.2641 3.33698 18.3338 3.92529 18.4268 4.99452 18.543 6.76429 18.6824 9.46148 18.8451 13.2656 19.0775 19.5335 19.5886 33.6402 19.7745 37.8312 19.914 40.3585 20.0302 41.9853 20.1232 42.9424 20.1928 43.4487 20.2626 43.7685 20.3091 43.8766 20.3323 43.899 20.3556 43.9 20.3787 43.8801 20.4253 43.7764 20.4718 43.5885 20.5415 43.1504 20.6112 42.5285 20.7041 41.4235 20.8203 39.625 20.9598 36.9161 21.1224 33.1234 21.3547 26.8882 21.8893 12.1554 22.0752 8.0005 22.2146 5.50713 22.3308 3.91238 22.4238 2.98265 22.4935 2.49753 22.5632 2.19935 22.6097 2.10584 22.6328 2.09083 22.6561 2.09703 22.7026 2.17296 22.7492 2.33332 22.8188 2.73069 22.8885 3.31286 22.9815 4.36717 23.0977 6.10705 23.237 8.75424 23.3998 12.4899 23.6089 18.0279 24.2363 35.1407 24.399 38.6021 24.5384 40.9599 24.6546 42.4282 24.7476 43.2503 24.8174 43.6521 24.8638 43.8154 24.9103 43.8943 24.9335 43.902 24.9567 43.8884 25.0031 43.798 25.0497 43.6231 25.1195 43.2043 25.1891 42.6012 25.2821 41.52 25.3983 39.7491 25.5377 37.0693 25.7003 33.3035 25.9327 27.0906 26.4904 11.7651 26.6531 8.14496 26.7925 5.62098 26.9087 3.99752 27.0017 3.04324 27.0713 2.53904 27.1411 2.22139 27.1877 2.11478 27.2108 2.09321 27.2341 2.09284 27.2573 2.11366 27.3038 2.21878 27.3503 2.40816 27.42 2.84841 27.4897 3.47241 27.5826 4.58016 27.6988 6.38188 27.8383 9.094 28.0009 12.8896 28.2333 19.1275 28.7679 33.8572 28.9538 38.0084 29.0931 40.4984 29.2093 42.0897 29.3023 43.0166 29.372 43.4996 29.4418 43.7956 29.4882 43.8876 29.5114 43.9019 29.5347 43.895 29.5811 43.8175 29.6276 43.6557 29.6973 43.2562 29.767 42.6718 29.86 41.6148 29.9762 39.8717 30.1156 37.2211 30.2783 33.4824 30.4874 27.942 31.0916 11.3804 31.2543 7.82519 31.3937 5.3697 31.51 3.8104 31.6029 2.91093 31.6726 2.4493 31.7423 2.17505 31.7888 2.09763 31.8121 2.09069 31.8352 2.10495 31.8817 2.19697 31.9282 2.37333 31.998 2.79436 32.0676 3.39962 32.1606 4.48343 32.2768 6.25749 32.4163 8.94062 32.5789 12.7096 32.8112 18.925 33.369 34.2472 33.5316 37.8642 33.6711 40.3846 33.7872 42.0048 33.8803 42.9564 33.9499 43.4583 34.0196 43.7737 34.0662 43.8789 34.0893 43.8998 34.1126 43.8994 34.1358 43.8778 34.1824 43.7712 34.2288 43.5804 34.2985 43.1379 34.3914 42.2631 34.4845 41.0763 34.6006 39.1834 34.7401 36.3765 34.9027 32.4942 35.1351 26.1858 35.6231 12.6891 35.809 8.43817 35.9485 5.85377 36.0646 4.17336 36.1575 3.17024 36.2506 2.48836 36.3203 2.19462 36.3667 2.10408 36.3899 2.09057 36.4132 2.09826 36.4596 2.17718 36.5061 2.34051 36.5758 2.74227 36.6455 3.32871 36.7386 4.3885 36.8547 6.13474 36.9941 8.78862 37.1568 12.5305 37.3659 18.0734 37.9701 34.6318 38.1329 38.1836 38.2722 40.6354 38.3885 42.1915 38.4814 43.0881 38.5511 43.5476 38.6209 43.8196 38.6673 43.8955 38.6906 43.9018 38.7137 43.8867 38.7602 43.7933 38.8068 43.6154 38.8765 43.1922 38.9461 42.5848 39.0391 41.4982 39.1553 39.721 39.2948 37.0345 39.4574 33.2626 39.6898 27.0446 40.2475 11.7256 40.4101 8.11197 40.5496 5.59494 40.6658 3.978 40.7588 3.02928 40.8284 2.52942 40.8981 2.2162 40.9447 2.11257 40.9679 2.09249 40.9912 2.09361 41.0143 2.11592 41.0609 2.22403 41.1073 2.41637 41.1771 2.86099 41.27 3.73852 41.363 4.92809 41.4792 6.82402 41.6185 9.63422 41.7812 13.5192 42.0136 19.8299 42.5016 33.3102 42.6875 37.5026 42.827 40.0046 42.9432 41.5899 43.0361 42.5009 43.1058 42.9665 43.1755 43.2411 43.222 43.3175 43.2453 43.3238 43.2684 43.3086 43.315 43.2148 43.3614 43.0369 43.4312 42.6155 43.5009 42.0139 43.5938 40.9451 43.71 39.2137 43.8495 36.6314 44.0354 32.5252 44.3375 25.0043 44.6396 17.6855 44.8255 13.8565 44.9649 11.5062 45.0811 9.95098 45.1973 8.79436 45.2902 8.16772 45.3599 7.8741 45.4064 7.76209 45.4528 7.71637 45.4761 7.7181 45.5225 7.77003 45.5691 7.88541 45.6387 8.17384 45.7085 8.59469 45.8015 9.34815 45.9177 10.5682 46.0571 12.3754 46.243 15.212 46.9401 26.3751 47.1027 28.3242 47.2422 29.6413 47.3584 30.4676 47.4514 30.9456 47.5443 31.2612 47.614 31.3931 47.6605 31.4324 47.7069 31.4339 47.7535 31.3986 47.7999 31.3277 47.8697 31.158 47.9626 30.8211 48.0787 30.242 48.2182 29.3547 48.4041 27.9358 49.1245 22.1463 49.2873 21.1836 49.4266 20.5315 49.5428 20.1174 49.6358 19.8716 49.7287 19.7004 49.7984 19.6196 49.8681 19.5779 49.9379 19.5732 50.0076 19.6034 50.0773 19.6662 50.1702 19.7957 50.2864 20.0218 50.4259 20.3687 50.6118 20.9193 51.2391 22.8547 51.4019 23.2449 51.5645 23.5576 51.704 23.76 51.8202 23.8822 51.9363 23.9639 52.0525 24.0073 52.1687 24.0162 52.2849 23.9945 52.4244 23.9345 52.587 23.828 52.8193 23.6332 53.4004 23.1234 53.6094 22.9831 53.8186 22.8789 54.0045 22.8174 54.2138 22.781 54.4461 22.7744 54.7249 22.8009 55.1432 22.8761 55.7474 22.9805 56.1656 23.02 56.6305 23.0321 57.3741 23.0155 58.5361 22.9928 58.5361 22.9928" stroke="#00B0F0" stroke-width="0.601471" stroke-linecap="square" stroke-linejoin="round" fill="none" transform="matrix(1.67962 0 0 1 756 202.212)"/></g></g></g></g><g><g><g><g><path d="M1.27252 10.4998 1.78174 10.4904 2.23792 10.4832 2.43948 10.4939 2.63044 10.5176 2.91688 10.5702 3.08662 10.5945 3.20331 10.5979 3.29879 10.5877 3.38366 10.5664 3.46853 10.5323 3.56401 10.4781 3.6701 10.3999 3.80801 10.2791 3.97775 10.1319 4.06262 10.076 4.12628 10.049 4.17931 10.0391 4.23236 10.043 4.2854 10.0625 4.33845 10.0992 4.39149 10.1542 4.44454 10.2282 4.50819 10.3423 4.58245 10.5086 4.66732 10.7369 4.78402 11.0967 4.96437 11.6551 5.03862 11.841 5.09167 11.9433 5.13411 12.002 5.17654 12.0368 5.20836 12.0454 5.24019 12.038 5.27202 12.0135 5.30385 11.9711 5.34628 11.8856 5.38871 11.7662 5.44176 11.5685 5.4948 11.3177 5.55845 10.9504 5.63271 10.4408 5.72819 9.68844 5.9828 7.61964 6.04646 7.21727 6.09952 6.95451 6.14192 6.80147 6.17376 6.72419 6.20559 6.68172 6.2268 6.6737 6.248 6.68263 6.26926 6.70894 6.30104 6.78178 6.33287 6.89551 6.37534 7.1118 6.41775 7.4019 6.47078 7.86618 6.53445 8.56418 6.6087 9.54986 6.7042 11.0239 6.99066 15.6118 7.05427 16.3808 7.1073 16.8818 7.14977 17.1758 7.18161 17.3279 7.21344 17.4178 7.23464 17.4419 7.24528 17.4429 7.26648 17.4225 7.28768 17.3721 7.31952 17.2393 7.35135 17.0377 7.39376 16.6626 7.43623 16.169 7.48926 15.3934 7.55287 14.2516 7.62717 12.6761 7.73325 10.1189 7.93483 5.1872 8.00908 3.66986 8.07275 2.61259 8.12578 1.94054 8.16819 1.55616 8.20002 1.3632 8.23186 1.25503 8.25306 1.23095 8.26369 1.23346 8.2849 1.2677 8.3061 1.34089 8.33794 1.5234 8.36977 1.79197 8.41224 2.2801 8.46528 3.08804 8.52889 4.31936 8.60319 6.05602 8.70926 8.91747 8.94262 15.3574 9.02749 17.2707 9.09116 18.4245 9.1442 19.1671 9.18667 19.6041 9.21844 19.8353 9.25028 19.9813 9.27154 20.0306 9.28211 20.0408 9.29275 20.0413 9.30332 20.0322 9.32458 19.9848 9.34578 19.8991 9.37762 19.6991 9.40945 19.4151 9.45186 18.9107 9.5049 18.0896 9.56857 16.853 9.64281 15.1215 9.74889 12.275 9.99293 5.54918 10.0778 3.6524 10.1414 2.51412 10.1945 1.78608 10.2369 1.36164 10.2688 1.14018 10.3006 1.00405 10.3218 0.961359 10.3324 0.954506 10.343 0.957337 10.3642 0.992003 10.3855 1.06521 10.4172 1.24662 10.4491 1.51239 10.4915 1.9937 10.5446 2.78799 10.6082 3.99649 10.6825 5.7019 10.7779 8.2301 11.0644 16.0424 11.1386 17.6227 11.2023 18.699 11.2553 19.3693 11.2978 19.7447 11.3296 19.9281 11.3508 20.0026 11.3721 20.0387 11.3827 20.0422 11.3933 20.036 11.4145 19.9947 11.4357 19.9148 11.4676 19.7237 11.4993 19.4483 11.5418 18.9548 11.5948 18.1463 11.6585 16.9229 11.7327 15.2037 11.8388 12.3674 12.0934 5.37103 12.1677 3.71834 12.2314 2.5661 12.2844 1.82495 12.3269 1.3893 12.3586 1.15913 12.3905 1.01411 12.4117 0.965441 12.4223 0.955593 12.4329 0.955423 12.4435 0.964931 12.4648 1.01292 12.486 1.09937 12.5178 1.30036 12.5496 1.58523 12.5921 2.09094 12.6451 2.91346 12.7088 4.1516 12.783 5.88439 12.8891 8.73211 13.1331 15.4565 13.218 17.3516 13.2816 18.4883 13.3346 19.2148 13.3771 19.638 13.4089 19.8585 13.4408 19.9936 13.462 20.0356 13.4726 20.0421 13.4832 20.039 13.5044 20.0036 13.5256 19.9297 13.5574 19.7473 13.5893 19.4806 13.6317 18.998 13.6848 18.2023 13.7484 16.9922 13.8227 15.2854 13.9181 12.7561 14.194 5.19538 14.2683 3.57236 14.3319 2.45138 14.385 1.73953 14.4274 1.3289 14.4592 1.11816 14.491 0.992957 14.5122 0.95761 14.5229 0.954445 14.5334 0.960952 14.5546 1.00296 14.5759 1.08347 14.6077 1.27568 14.6395 1.552 14.682 2.04678 14.735 2.85668 14.7987 4.08158 14.8729 5.80218 14.979 8.63964 15.2336 15.6345 15.3079 17.2858 15.3715 18.4364 15.4246 19.1761 15.4671 19.6105 15.4988 19.8396 15.5307 19.9836 15.5519 20.0316 15.5625 20.0412 15.5731 20.041 15.5837 20.0311 15.605 19.9825 15.6262 19.8953 15.658 19.6933 15.7004 19.294 15.7429 18.7522 15.7959 17.888 15.8596 16.6066 15.9338 14.8343 16.0399 11.9544 16.2627 5.79286 16.3476 3.8522 16.4112 2.67237 16.4643 1.90523 16.5067 1.44728 16.5491 1.13599 16.581 1.00189 16.6022 0.960557 16.6127 0.95439 16.6234 0.957902 16.6446 0.993929 16.6658 1.06849 16.6976 1.2519 16.7295 1.51963 16.7719 2.00344 16.825 2.80064 16.8886 4.01219 16.9629 5.72043 17.0583 8.25088 17.3341 15.8101 17.4084 17.4316 17.4721 18.5509 17.5252 19.2613 17.5676 19.6706 17.5994 19.8804 17.6312 20.0046 17.6524 20.0392 17.6631 20.0421 17.6736 20.0352 17.6948 19.9926 17.7161 19.9113 17.7479 19.7181 17.7797 19.4408 17.8222 18.9448 17.8752 18.1335 17.9389 16.907 18.0131 15.1851 18.1192 12.3464 18.3738 5.35298 18.4481 3.70328 18.5117 2.55421 18.5648 1.81604 18.6072 1.38293 18.639 1.15473 18.6708 1.01174 18.6921 0.964433 18.7027 0.955265 18.7133 0.955775 18.7239 0.965964 18.7452 1.01531 18.7664 1.10312 18.7982 1.3061 18.8406 1.70671 18.8831 2.24977 18.9361 3.11531 18.9997 4.39822 19.074 6.17181 19.1801 9.05277 19.4029 15.2068 19.4877 17.1207 19.5514 18.2629 19.6045 18.9866 19.6469 19.4026 19.6787 19.6151 19.7105 19.7405 19.7317 19.7754 19.7424 19.7782 19.7529 19.7713 19.7742 19.7285 19.7954 19.6472 19.8272 19.4549 19.8591 19.1802 19.9015 18.6923 19.9545 17.9019 20.0182 16.723 20.1031 14.8485 20.241 11.415 20.3789 8.07378 20.4638 6.32576 20.5274 5.25282 20.5805 4.54283 20.6335 4.01481 20.6759 3.72873 20.7077 3.59469 20.729 3.54355 20.7502 3.52269 20.7608 3.52348 20.782 3.54718 20.8033 3.59985 20.835 3.73153 20.8669 3.92366 20.9093 4.26763 20.9624 4.82458 21.026 5.64961 21.1109 6.9446 21.4291 12.0408 21.5034 12.9306 21.5671 13.5319 21.6201 13.9091 21.6626 14.1273 21.705 14.2714 21.7368 14.3316 21.758 14.3495 21.7792 14.3502 21.8005 14.3341 21.8217 14.3017 21.8535 14.2243 21.8959 14.0705 21.949 13.8061 22.0126 13.401 22.0975 12.7533 22.4264 10.1103 22.5007 9.67076 22.5643 9.37306 22.6173 9.184 22.6598 9.07178 22.7022 8.99365 22.734 8.95678 22.7658 8.9377 22.7977 8.93557 22.8295 8.94936 22.8614 8.97804 22.9038 9.03715 22.9568 9.14037 23.0205 9.29876 23.1053 9.5501 23.3917 10.4336 23.466 10.6118 23.5403 10.7545 23.604 10.847 23.657 10.9027 23.71 10.94 23.7631 10.9598 23.8161 10.9639 23.8691 10.954 23.9328 10.9266 24.0071 10.878 24.1131 10.7891 24.3784 10.5563 24.4738 10.4923 24.5693 10.4447 24.6542 10.4166 24.7497 10.4 24.8558 10.397 24.9831 10.4091 25.174 10.4434 25.4498 10.4911 25.6408 10.5091 25.853 10.5146 26.1925 10.507 26.7229 10.4967 26.7229 10.4967" stroke="#ED7D31" stroke-width="0.274584" stroke-linecap="square" stroke-linejoin="round" fill="none" transform="matrix(3.67917 0 0 1 760 214.21)"/></g></g></g></g><text fill="#101010" font-family="ZI Akkurat Light,ZI Akkurat Light_MSFontService,sans-serif" font-weight="300" font-size="21" transform="matrix(1 0 0 1.00093 447.529 162)">readout</text><text fill="#101010" font-family="ZI Akkurat Light,ZI Akkurat Light_MSFontService,sans-serif" font-weight="300" font-size="21" transform="matrix(1 0 0 1.00093 459.297 188)">pulse</text><path d="M591.5 321.798 661.975 322.09" stroke="#101010" stroke-width="1.33357" stroke-linecap="square" stroke-miterlimit="8" fill="none" fill-rule="evenodd"/><text fill="#00A1E6" font-family="ZI Akkurat Light,ZI Akkurat Light_MSFontService,sans-serif" font-weight="300" font-size="21" transform="matrix(1 0 0 1.00093 786.345 177)">g</text><text fill="#101010" font-family="ZI Akkurat Light,ZI Akkurat Light_MSFontService,sans-serif" font-weight="300" font-size="21" transform="matrix(1 0 0 1.00093 802.681 177)">/</text><text fill="#ED7D31" font-family="ZI Akkurat Light,ZI Akkurat Light_MSFontService,sans-serif" font-weight="300" font-size="21" transform="matrix(1 0 0 1.00093 816.517 177)">e</text><rect x="127.5" y="224.708" width="233" height="122.113" stroke="#002060" stroke-width="1.33357" stroke-miterlimit="8" fill="none"/><text fill="#101010" font-family="ZI Akkurat Light,ZI Akkurat Light_MSFontService,sans-serif" font-weight="300" font-size="21" transform="matrix(-1.83697e-16 -1.00185 0.999075 -1.83867e-16 80.7062 202)">amplitude</text><text fill="#101010" font-family="ZI Akkurat Light,ZI Akkurat Light_MSFontService,sans-serif" font-weight="300" font-size="21" transform="matrix(-1.83697e-16 -1.00185 0.999075 -1.83867e-16 80.0752 315)">phase</text><text fill="#101010" font-family="ZI Akkurat Light,ZI Akkurat Light_MSFontService,sans-serif" font-weight="300" font-size="21" transform="matrix(1 0 0 1.00093 195.154 372)">frequency</text><text fill="#00A1E6" font-family="ZI Akkurat Light,ZI Akkurat Light_MSFontService,sans-serif" font-weight="300" font-size="21" transform="matrix(1 0 0 1.00093 286.845 287)">g</text><text fill="#ED7D31" font-family="ZI Akkurat Light,ZI Akkurat Light_MSFontService,sans-serif" font-weight="300" font-size="21" transform="matrix(1 0 0 1.00093 197.975 287)">e</text><path d="M128.5 201.098 137.325 200.832 144.524 200.551 150.794 200.241 156.136 199.912 160.78 199.561 164.96 199.179 168.676 198.772 171.927 198.35 174.946 197.889 177.733 197.392 180.288 196.863 182.61 196.307 184.7 195.733 186.558 195.155 188.416 194.501 190.041 193.855 191.667 193.131 193.293 192.314 194.686 191.528 196.08 190.651 197.473 189.67 198.866 188.568 200.26 187.326 201.421 186.168 202.582 184.881 203.743 183.448 204.905 181.85 206.065 180.062 207.227 178.057 208.388 175.806 209.549 173.276 210.71 170.428 211.871 167.225 213.032 163.625 214.194 159.592 215.355 155.094 216.516 150.12 217.909 143.542 219.535 135.182 222.554 119.348 223.483 115.082 224.18 112.302 224.876 109.988 225.341 108.746 225.805 107.771 226.27 107.08 226.502 106.846 226.734 106.687 226.967 106.604 227.199 106.599 227.431 106.67 227.663 106.817 227.895 107.04 228.36 107.709 228.824 108.663 229.289 109.886 229.985 112.175 230.682 114.933 231.611 119.179 233.004 126.308 236.256 143.37 237.649 149.963 238.81 154.952 239.971 159.464 241.133 163.511 242.293 167.123 243.455 170.338 244.616 173.195 245.777 175.735 246.938 177.993 248.1 180.005 249.261 181.799 250.422 183.403 251.583 184.84 252.744 186.131 253.905 187.293 255.299 188.539 256.692 189.644 258.086 190.628 259.479 191.507 260.873 192.295 262.498 193.114 264.123 193.841 265.749 194.488 267.607 195.144 269.465 195.723 271.555 196.298 273.877 196.855 276.199 197.341 278.754 197.806 281.541 198.245 284.792 198.682 288.275 199.08 292.224 199.459 296.636 199.811 301.513 200.132 307.086 200.432 313.589 200.713 321.253 200.973 330.31 201.211 341.224 201.426 354.462 201.617 360.5 201.687 360.5 201.687" stroke="#EE7F00" stroke-width="1.33357" stroke-linecap="square" stroke-linejoin="round" stroke-miterlimit="10" fill="none" fill-rule="evenodd"/><path d="M128.5 201.687 144.06 201.486 156.368 201.262 166.354 201.014 174.482 200.748 181.449 200.454 187.487 200.132 192.596 199.794 197.008 199.439 200.956 199.056 204.44 198.654 207.691 198.21 210.478 197.766 213.032 197.295 215.355 196.803 217.677 196.238 219.767 195.654 221.625 195.066 223.483 194.4 225.109 193.742 226.734 193.003 228.36 192.169 229.753 191.367 231.147 190.472 232.54 189.469 233.934 188.341 235.094 187.293 236.256 186.131 237.417 184.84 238.578 183.403 239.739 181.799 240.9 180.005 242.061 177.993 243.223 175.735 244.384 173.195 245.545 170.338 246.706 167.123 247.867 163.511 249.028 159.464 250.19 154.952 251.351 149.963 252.744 143.37 254.37 134.997 257.389 119.179 258.318 114.933 259.014 112.175 259.711 109.886 260.176 108.663 260.64 107.709 261.105 107.04 261.337 106.817 261.569 106.67 261.801 106.599 262.033 106.604 262.266 106.687 262.498 106.846 262.73 107.08 263.195 107.771 263.659 108.746 264.123 109.988 264.82 112.302 265.517 115.082 266.446 119.348 267.84 126.493 271.09 143.542 272.484 150.12 273.645 155.094 274.806 159.592 275.967 163.625 277.129 167.225 278.29 170.428 279.451 173.276 280.612 175.806 281.773 178.057 282.934 180.062 284.096 181.85 285.257 183.448 286.418 184.881 287.579 186.168 288.74 187.326 290.134 188.568 291.527 189.67 292.92 190.651 294.314 191.528 295.707 192.314 297.333 193.131 298.959 193.855 300.584 194.501 302.442 195.155 304.3 195.733 306.39 196.307 308.712 196.863 311.035 197.347 313.589 197.812 316.376 198.25 319.627 198.687 323.111 199.084 327.058 199.462 331.471 199.814 336.348 200.135 341.921 200.434 348.424 200.714 356.087 200.974 360.5 201.098 360.5 201.098" stroke="#009EE0" stroke-width="1.33357" stroke-linecap="square" stroke-linejoin="round" stroke-miterlimit="10" fill="none" fill-rule="evenodd"/><rect x="128.5" y="92.5856" width="232" height="122.113" stroke="#002060" stroke-width="1.33357" stroke-miterlimit="8" fill="none"/><path d="M-0.667053 93.3336 4.00044 93.3317 4.00097 94.6653-0.666515 94.6672ZM5.334 93.3312 9.33471 93.3295 9.33525 94.6631 5.33454 94.6647ZM10.6683 93.329 14.669 93.3274 14.6695 94.661 10.6688 94.6626ZM16.0026 93.3269 20.0033 93.3252 20.0038 94.6588 16.0031 94.6604ZM21.3368 93.3247 25.3375 93.3231 25.3381 94.6566 21.3374 94.6583ZM26.6711 93.3225 30.6718 93.3209 30.6723 94.6545 26.6716 94.6561ZM32.0054 93.3204 36.0061 93.3188 36.0066 94.6523 32.0059 94.654ZM37.3396 93.3182 41.3404 93.3166 41.3409 94.6502 37.3402 94.6518ZM42.6739 93.3161 46.6746 93.3145 46.6752 94.648 42.6745 94.6496ZM48.0082 93.3139 52.0089 93.3123 52.0094 94.6459 48.0087 94.6475ZM53.3425 93.3118 57.3432 93.3101 57.3437 94.6437 53.343 94.6453ZM58.6767 93.3096 62.6774 93.308 62.678 94.6416 58.6773 94.6432ZM64.011 93.3074 68.0117 93.3058 68.0123 94.6394 64.0116 94.641ZM69.3453 93.3053 73.346 93.3037 73.3465 94.6372 69.3458 94.6389ZM74.6796 93.3031 78.6803 93.3015 78.6808 94.6351 74.6801 94.6367ZM80.0138 93.301 81.4009 93.3004 84.0048 93.2623 84.0243 94.5957 81.4015 94.634 80.0144 94.6345ZM85.3382 93.2428 86.5326 93.2253 89.3244 93.1307 89.3695 94.4635 86.5521 94.5588 85.3577 94.5762ZM90.6397 93.0686 92.501 92.9589 94.609 92.7714 94.727 94.0998 92.5795 94.2902 90.7181 94.3998ZM95.9091 92.6097 96.5284 92.5327 98.2152 92.2526 99.6858 91.9417 99.7591 91.9219 100.096 93.2122 99.9611 93.2466 98.4332 93.5683 96.6931 93.856 96.0738 93.9331ZM101.049 91.5849 101.155 91.5574 102.408 91.1602 103.66 90.6903 104.698 90.233 105.234 91.4538 104.128 91.9393 102.81 92.4316 101.492 92.8477 101.386 92.8753ZM105.854 89.6538 106.16 89.4968 107.409 88.7527 108.659 87.8965 109.101 87.5494 109.922 88.6005 109.412 88.9972 108.091 89.899 106.769 90.6832 106.463 90.8403ZM110.108 86.7404 111.164 85.8062 112.421 84.5528 112.914 84.0015 113.906 84.8924 113.362 85.4977 112.048 86.8047 110.992 87.7389ZM113.776 83.0288 114.943 81.5874 116.195 79.8831 117.27 80.6731 115.979 82.4266 114.812 83.8681ZM116.924 78.7999 117.478 77.975 118.75 75.9205 119.019 75.4498 120.177 76.1114 119.884 76.6226 118.585 78.719 118.031 79.544ZM119.68 74.2919 120.238 73.3157 121.571 70.7918 122.75 71.4149 121.396 73.9773 120.838 74.9534ZM122.16 69.6168 123.432 67.03 123.891 66.03 125.103 66.5866 124.629 67.6185 123.356 70.2053ZM124.447 64.8181 125.352 62.8484 126.075 61.1795 127.298 61.7094 126.564 63.405 125.659 65.3747ZM126.604 59.9557 127.488 57.914 128.162 56.283 129.394 56.7922 128.712 58.4439 127.828 60.4856ZM128.671 55.0505 130.199 51.3528 131.431 51.862 129.904 55.5596ZM130.703 50.1209 132.219 46.4183 133.453 46.9235 131.938 50.6261ZM132.724 45.1842 134.24 41.4816 135.474 41.9868 133.958 45.6893ZM134.745 40.2474 136.26 36.5449 137.495 37.0501 135.979 40.7526ZM136.766 35.3107 137.123 34.4381 138.357 31.6224 139.578 32.1578 138.357 34.9433 138 35.8159ZM138.892 30.401 139.271 29.5361 140.571 26.7524 141.779 27.3166 140.493 30.0714 140.113 30.9364ZM141.135 25.5441 141.206 25.3931 142.928 21.9614 142.944 21.9313 144.12 22.5596 144.12 22.5596 142.414 25.9573 142.343 26.1083ZM143.578 20.7585 144.437 19.1726 145.56 17.2572 146.71 17.9321 145.609 19.8073 144.751 21.3932ZM146.268 16.0961 147.461 14.2399 148.511 12.7493 149.601 13.5177 148.583 14.9606 147.39 16.8168ZM149.329 11.6592 150.065 10.708 151.371 9.18049 151.961 8.55962 152.927 9.47965 152.384 10.0475 151.12 11.5242 150.384 12.4753ZM152.92 7.5792 153.993 6.57599 155.308 5.48521 156.04 4.95161 156.824 6.03 156.159 6.51242 154.904 7.54987 153.831 8.55309ZM157.175 4.17517 157.947 3.68506 159.268 2.95727 160.59 2.33125 160.809 2.24172 161.308 3.47841 161.16 3.53692 159.911 4.12595 158.661 4.81101 157.889 5.30111ZM162.082 1.73752 163.23 1.34501 164.546 0.965177 165.988 0.62284 166.296 1.9205 164.915 2.24671 163.661 2.60683 162.513 2.99934ZM167.327 0.363567 167.605 0.310576 169.345 0.0511125 171.298-0.166383 171.363-0.171929 171.468 1.15751 171.445 1.15902 169.541 1.37015 167.854 1.62067 167.576 1.67367ZM172.693-0.276761 173.461-0.33731 176.049-0.471963 176.72-0.492346 176.76 0.840617 176.118 0.859811 173.566 0.992132 172.798 1.05268ZM178.053-0.532547 179.277-0.569467 182.063-0.608423 182.082 0.725016 179.317 0.763496 178.093 0.800415ZM183.397-0.627023 183.786-0.632454 187.404-0.646345 187.409 0.687214 183.805 0.700985 183.415 0.706416ZM188.738-0.651452 191.505-0.66205 192.741-0.662314 192.741 0.671255 191.51 0.671509 188.743 0.682106ZM194.074-0.662594 198.075-0.663436 198.075 0.670133 194.075 0.670974ZM199.409-0.663716 203.409-0.664557 203.41 0.669011 199.409 0.669853ZM204.743-0.664838 208.744-0.665679 208.744 0.66789 204.743 0.668731ZM210.077-0.665959 214.667-0.666924 214.667 0.666644 210.078 0.667609Z" fill="#EE7F00" transform="matrix(-1 0 0 1.00093 360.5 238.721)"/><path d="M-0.667463 93.334 4.00002 93.3292 4.00138 94.6628-0.666105 94.6676ZM5.33359 93.3279 9.3343 93.3238 9.33565 94.6574 5.33495 94.6614ZM10.6679 93.3224 14.6686 93.3184 14.6699 94.6519 10.6692 94.656ZM16.0021 93.317 20.0028 93.3129 20.0042 94.6465 16.0035 94.6506ZM21.3364 93.3116 25.3371 93.3075 25.3385 94.6411 21.3378 94.6451ZM26.6707 93.3061 30.6714 93.3021 30.6727 94.6356 26.672 94.6397ZM32.005 93.3007 32.0914 93.3006 35.997 93.2479 36.015 94.5813 32.0927 94.6342 32.0063 94.6343ZM37.3304 93.2299 37.5846 93.2265 41.2403 93.1119 41.3019 93.1083 41.3745 94.4399 41.2821 94.4448 37.6025 94.5599 37.3484 94.5634ZM42.6335 93.0358 43.9759 92.9626 46.2496 92.7751 46.582 92.7365 46.7348 94.0612 46.3591 94.1042 44.0485 94.2942 42.7061 94.3674ZM47.9068 92.5837 48.2911 92.5394 50.0996 92.261 51.678 91.9521 51.7688 91.9293 52.0832 93.2253 51.9337 93.2609 50.3022 93.5791 48.4438 93.8642 48.0596 93.9085ZM53.0647 91.6149 53.2531 91.5692 54.598 91.1737 55.9423 90.7059 56.7583 90.3715 57.2626 91.6061 56.3799 91.9656 54.9735 92.4533 53.5676 92.8651 53.3792 92.9109ZM57.9405 89.8427 58.625 89.5164 59.9648 88.7748 61.305 87.9214 61.3073 87.9184 62.0851 89.0017 62.0204 89.0469 60.6097 89.9421 59.1988 90.7203 58.5142 91.0465ZM62.3906 87.1407 62.4196 87.1198 63.7653 86.0331 65.1108 84.8083 65.3216 84.5924 66.2725 85.5273 66.0078 85.7951 64.6025 87.071 63.1974 88.2031 63.1684 88.224ZM66.2565 83.6415 66.4592 83.4353 67.8107 81.9062 68.8135 80.6548 69.8538 81.4893 68.8095 82.7899 67.4102 84.3702 67.2075 84.5764ZM69.6033 79.6172 70.5229 78.3617 71.8736 76.3558 72.9796 77.1009 71.5988 79.1497 70.6791 80.4052ZM72.5636 75.244 73.4747 73.7757 74.5925 71.8238 75.7496 72.4867 74.6078 74.4788 73.6968 75.9471ZM75.2349 70.6792 76.8905 67.5673 77.0943 67.1574 78.2881 67.7517 78.0678 68.1937 76.4122 71.3055ZM77.6886 65.9635 78.7162 63.8991 79.4311 62.379 80.6378 62.9466 79.9101 64.4934 78.8824 66.5578ZM79.9987 61.1722 80.7728 59.5263 81.6589 57.5463 82.8761 58.0911 81.9796 60.0939 81.2054 61.7399ZM82.2037 56.3291 83.5184 53.3917 83.8323 52.6792 85.0527 53.2168 84.7356 53.9365 83.4209 56.8739ZM84.3699 51.4588 85.9827 47.7975 87.2031 48.3351 85.5903 51.9964ZM86.5203 46.5771 88.1331 42.9159 89.3535 43.4535 87.7407 47.1147ZM88.6707 41.6955 90.2835 38.0343 91.5039 38.5719 89.8911 42.2331ZM90.8211 36.8139 92.4339 33.1527 93.6544 33.6903 92.0415 37.3515ZM92.9853 31.9138 94.7208 28.3092 95.9223 28.8877 94.1868 32.4923ZM95.323 27.1006 96.829 24.1642 97.1768 23.533 98.3445 24.177 98.0156 24.7728 96.5096 27.7092ZM97.8208 22.3652 98.6724 20.821 99.8309 18.8804 100.976 19.5641 99.8402 21.465 98.9885 23.0092ZM100.542 17.7228 101.906 15.6242 102.788 14.3801 103.876 15.1516 103.024 16.3509 101.66 18.4495ZM103.592 13.2812 104.689 11.8647 106.084 10.2267 106.167 10.1371 107.137 11.0527 107.099 11.0917 105.743 12.6815 104.646 14.0979ZM107.083 9.16749 107.482 8.74491 108.883 7.41399 110.076 6.40547 110.936 7.42455 109.801 8.38139 108.452 9.66051 108.053 10.0831ZM111.167 5.57032 111.694 5.17695 113.104 4.25444 114.514 3.45041 114.654 3.38 115.243 4.57669 115.173 4.60947 113.833 5.37071 112.491 6.24616 111.964 6.63953ZM115.851 2.7915 115.925 2.75522 117.335 2.15884 118.744 1.65126 119.698 1.36031 120.086 2.6362 119.195 2.90621 117.854 3.38749 116.513 3.95192 116.44 3.9882ZM121.017 1.004 121.787 0.810166 123.421 0.477223 124.998 0.224323 125.209 1.54114 123.687 1.78407 122.112 2.10342 121.342 2.29726ZM126.345 0.0483811 127.141-0.0490697 129.225-0.238679 130.368-0.310796 130.452 1.02015 129.346 1.08942 127.303 1.27463 126.507 1.37208ZM131.699-0.394467 131.765-0.398602 134.761-0.516804 135.725-0.537378 135.753 0.79589 134.813 0.815731 131.848 0.932339 131.783 0.936473ZM137.058-0.565683 138.669-0.599891 141.067-0.620129 141.078 0.713393 138.698 0.733378 137.086 0.767586ZM142.4-0.631355 144.408-0.648262 146.405-0.651236 146.407 0.682331 144.42 0.68526 142.411 0.702166ZM147.739-0.653212 151.74-0.659138 151.742 0.674429 147.741 0.680355ZM153.073-0.661114 156.333-0.665943 157.075-0.665952 157.075 0.667617 156.335 0.667624 153.075 0.672453ZM158.409-0.665967 162.409-0.666014 162.409 0.667555 158.409 0.667601ZM163.743-0.666029 167.744-0.666075 167.744 0.667493 163.743 0.667539ZM169.077-0.666091 173.078-0.666137 173.078 0.667431 169.077 0.667478ZM174.411-0.666153 178.412-0.666199 178.412 0.66737 174.411 0.667416ZM179.746-0.666214 183.746-0.666261 183.746 0.667308 179.746 0.667354ZM185.08-0.666276 189.081-0.666322 189.081 0.667246 185.08 0.667292ZM190.414-0.666338 194.415-0.666384 194.415 0.667184 190.414 0.667231ZM195.748-0.666399 199.749-0.666446 199.749 0.667123 195.749 0.667169ZM201.083-0.666461 205.083-0.666507 205.083 0.667061 201.083 0.667107ZM206.417-0.666523 210.418-0.666569 210.418 0.666999 206.417 0.667046ZM211.751-0.666585 215.752-0.666631 215.752 0.666938 211.751 0.666984ZM217.086-0.666646 221.086-0.666693 221.086 0.666876 217.086 0.666922ZM222.42-0.666708 226.421-0.666754 226.421 0.666814 222.42 0.66686ZM227.754-0.66677 229.667-0.666792 229.667 0.666777 227.754 0.666799Z" fill="#009EE0" transform="matrix(-1 0 0 1.00093 360.5 238.721)"/><path d="M262 93.0861 262 347.345" stroke="#000000" stroke-width="2.00035" stroke-miterlimit="8" stroke-dasharray="2.00035 2.00035" fill="none" fill-rule="evenodd"/><text fill="#101010" font-family="ZI Akkurat Light,ZI Akkurat Light_MSFontService,sans-serif" font-weight="300" font-size="21" transform="matrix(1 0 0 1.00093 105.087 208)">0</text><text fill="#101010" font-family="ZI Akkurat Light,ZI Akkurat Light_MSFontService,sans-serif" font-weight="300" font-size="21" transform="matrix(1 0 0 1.00093 109.247 117)">1</text><text fill="#101010" font-family="ZI Akkurat Light,ZI Akkurat Light_MSFontService,sans-serif" font-weight="300" font-size="21" transform="matrix(1 0 0 1.00093 104.328 336)">0</text><text fill="#101010" font-family="ZI Akkurat Light,ZI Akkurat Light_MSFontService,sans-serif" font-weight="300" font-size="21" transform="matrix(1 0 0 1.00093 93.066 249)">2</text><text fill="#101010" font-family="ZI Akkurat Light,ZI Akkurat Light_MSFontService,sans-serif" font-weight="300" font-size="21" transform="matrix(1 0 0 1.00093 104.401 249)">π</text><text fill="#101010" font-family="ZI Akkurat Light,ZI Akkurat Light_MSFontService,sans-serif" font-weight="300" font-size="21" transform="matrix(1 0 0 1.00093 104.208 292)">π</text><path d="M128.5 106.599 359.65 106.599" stroke="#BFBFBF" stroke-width="0.666784" stroke-linecap="square" stroke-miterlimit="8" stroke-dasharray="2.00035 0.666784" fill="none" fill-rule="evenodd"/><path d="M128.5 201.687 359.65 201.687" stroke="#BFBFBF" stroke-width="0.666784" stroke-linecap="square" stroke-miterlimit="8" stroke-dasharray="2.00035 0.666784" fill="none" fill-rule="evenodd"/><path d="M244.5 92.5856 244.5 214.554" stroke="#BFBFBF" stroke-width="0.666784" stroke-linecap="square" stroke-miterlimit="8" stroke-dasharray="2.00035 0.666784" fill="none" fill-rule="evenodd"/><path d="M187.5 92.5856 187.5 214.554" stroke="#BFBFBF" stroke-width="0.666784" stroke-linecap="square" stroke-miterlimit="8" stroke-dasharray="2.00035 0.666784" fill="none" fill-rule="evenodd"/><path d="M304.5 92.5856 304.5 214.554" stroke="#BFBFBF" stroke-width="0.666784" stroke-linecap="square" stroke-miterlimit="8" stroke-dasharray="2.00035 0.666784" fill="none" fill-rule="evenodd"/><path d="M128.5 152.641 359.65 152.641" stroke="#BFBFBF" stroke-width="0.666784" stroke-linecap="square" stroke-miterlimit="8" stroke-dasharray="2.00035 0.666784" fill="none" fill-rule="evenodd"/><path d="M128.5 239.722 359.65 239.722" stroke="#BFBFBF" stroke-width="0.666784" stroke-linecap="square" stroke-miterlimit="8" stroke-dasharray="2.00035 0.666784" fill="none" fill-rule="evenodd"/><path d="M128.5 333.809 359.65 333.809" stroke="#BFBFBF" stroke-width="0.666784" stroke-linecap="square" stroke-miterlimit="8" stroke-dasharray="2.00035 0.666784" fill="none" fill-rule="evenodd"/><path d="M244.5 224.708 244.5 346.676" stroke="#BFBFBF" stroke-width="0.666784" stroke-linecap="square" stroke-miterlimit="8" stroke-dasharray="2.00035 0.666784" fill="none" fill-rule="evenodd"/><path d="M186.5 224.708 186.5 346.676" stroke="#BFBFBF" stroke-width="0.666784" stroke-linecap="square" stroke-miterlimit="8" stroke-dasharray="2.00035 0.666784" fill="none" fill-rule="evenodd"/><path d="M304.5 224.708 304.5 346.676" stroke="#BFBFBF" stroke-width="0.666784" stroke-linecap="square" stroke-miterlimit="8" stroke-dasharray="2.00035 0.666784" fill="none" fill-rule="evenodd"/><path d="M128.5 284.763 359.65 284.764" stroke="#BFBFBF" stroke-width="0.666784" stroke-linecap="square" stroke-miterlimit="8" stroke-dasharray="2.00035 0.666784" fill="none" fill-rule="evenodd"/></g></svg>