<svg width="945" height="340" xmlns="http://www.w3.org/2000/svg" xmlns:xlink="http://www.w3.org/1999/xlink" overflow="hidden"><defs><clipPath id="clip0"><rect x="0" y="0" width="945" height="340"/></clipPath></defs><g clip-path="url(#clip0)"><rect x="0" y="0" width="945" height="339.773" fill="#FFFFFF"/><path d="M543.5 264.324C543.5 253.837 552.007 245.336 562.5 245.336 572.993 245.336 581.5 253.837 581.5 264.324 581.5 274.81 572.993 283.311 562.5 283.311 552.007 283.311 543.5 274.81 543.5 264.324Z" stroke="#000000" stroke-width="1.33357" stroke-miterlimit="8" fill="#FFFFFF" fill-rule="evenodd"/><text font-family="ZI Akkurat Light,ZI Akkurat Light_MSFontService,sans-serif" font-weight="300" font-size="21" transform="matrix(1 0 0 0.999334 554.962 271)">Q</text><path d="M0 7.99472C2.50888 3.19566 8.85844 0.0146554 15.958 4.83678e-05 23.0576-0.0145103 29.4322 3.14038 31.9787 7.92903" stroke="#101010" stroke-width="1.33268" stroke-miterlimit="8" fill="none" fill-rule="evenodd" transform="matrix(-1.83819e-16 -1 -1.00067 1.83697e-16 591.5 280.313)"/><path d="M0 0 0.000104935 26.8235" stroke="#101010" stroke-width="1.33268" stroke-linecap="square" stroke-miterlimit="8" fill="none" fill-rule="evenodd" transform="matrix(1.00067 0 0 -1 750.5 292.147)"/><path d="M732.5 292.305 766.929 292.305" stroke="#101010" stroke-width="1.33357" stroke-linecap="square" stroke-miterlimit="8" fill="none" fill-rule="evenodd"/><path d="M740.5 299.3 758.926 299.301" stroke="#101010" stroke-width="1.33357" stroke-linecap="square" stroke-miterlimit="8" fill="none" fill-rule="evenodd"/><path d="M745.5 305.296 754.034 305.297" stroke="#101010" stroke-width="1.33357" stroke-linecap="square" stroke-miterlimit="8" fill="none" fill-rule="evenodd"/><path d="M719 281.312C714.306 281.312 710.5 273.93 710.5 264.823 710.5 255.717 714.306 248.334 719 248.334 723.694 248.334 727.5 255.717 727.5 264.823 727.5 273.93 723.694 281.312 719 281.312Z" stroke="#101010" stroke-width="1.33268" stroke-miterlimit="8" fill="#FFFFFF" fill-rule="evenodd"/><rect x="693" y="248.834" width="25.9999" height="30.9794" fill="#FFFFFF"/><path d="M718.5 281.313 662.5 281.313 662.5 248.335 718.5 248.335" stroke="#101010" stroke-width="1.33268" stroke-miterlimit="8" fill="none" fill-rule="evenodd"/><path d="M662.5 281.312C657.529 281.312 653.5 273.93 653.5 264.823 653.5 255.717 657.529 248.334 662.5 248.334 667.471 248.334 671.5 255.717 671.5 264.823 671.5 273.93 667.471 281.312 662.5 281.312Z" stroke="#101010" stroke-width="1.33268" stroke-miterlimit="8" fill="#FFFFFF" fill-rule="evenodd"/><path d="M0 0 0.000104935 97.1563" stroke="#101010" stroke-width="1.33268" stroke-linecap="square" stroke-miterlimit="8" fill="none" fill-rule="evenodd" transform="matrix(1.00067 0 0 -1 624.5 264.545)"/><rect x="612" y="210.859" width="25" height="9.99332" fill="#FFFFFF"/><path d="M610.5 211.359 638.322 211.359" stroke="#101010" stroke-width="1.33357" stroke-linecap="square" stroke-miterlimit="8" fill="none" fill-rule="evenodd"/><path d="M610.5 221.352 638.322 221.352" stroke="#101010" stroke-width="1.33357" stroke-linecap="square" stroke-miterlimit="8" fill="none" fill-rule="evenodd"/><path d="M543.5 167.388 750.068 167.389" stroke="#101010" stroke-width="1.33357" stroke-linecap="square" stroke-miterlimit="8" fill="none" fill-rule="evenodd"/><path d="M0 0 22.8957 0.0319004" stroke="#101010" stroke-width="1.33268" stroke-linecap="square" stroke-miterlimit="8" fill="none" fill-rule="evenodd" transform="matrix(-1.00067 0 0 1 750.411 264.324)"/><text fill="#101010" font-family="ZI Akkurat Light,ZI Akkurat Light_MSFontService,sans-serif" font-weight="300" font-size="21" transform="matrix(1 0 0 0.999334 671.615 234)">Res.</text><text font-family="ZI Akkurat Light,ZI Akkurat Light_MSFontService,sans-serif" font-weight="300" font-size="21" transform="matrix(1 0 0 0.999334 535.086 234)">Qubit</text><g><g><g><g><path d="M2.78301 22.9631 3.89666 22.9425 4.89432 22.9267 5.33516 22.9501 5.75278 23.002 6.37921 23.1171 6.75044 23.1702 7.00565 23.1775 7.21445 23.1552 7.40007 23.1087 7.58568 23.0342 7.79449 22.9156 8.02651 22.7446 8.32812 22.4805 8.69934 22.1586 8.88495 22.0363 9.02417 21.9771 9.14016 21.9555 9.25617 21.964 9.37218 22.0067 9.48819 22.0869 9.6042 22.2073 9.7202 22.3692 9.85941 22.6186 10.0218 22.9822 10.2074 23.4815 10.4626 24.2685 10.8571 25.4897 11.0195 25.8963 11.1355 26.1201 11.2283 26.2484 11.3211 26.3244 11.3907 26.3434 11.4603 26.3272 11.5299 26.2735 11.5995 26.1808 11.6923 25.9938 11.7851 25.7326 11.9011 25.3002 12.0171 24.7518 12.1563 23.9486 12.3187 22.8341 12.5276 21.1886 13.0844 16.6642 13.2236 15.7842 13.3396 15.2095 13.4324 14.8748 13.502 14.7058 13.5716 14.6129 13.618 14.5954 13.6644 14.6149 13.7109 14.6725 13.7804 14.8318 13.85 15.0805 13.9429 15.5535 14.0356 16.188 14.1516 17.2033 14.2909 18.7299 14.4532 20.8855 14.6621 24.1092 15.2886 34.1429 15.4277 35.8248 15.5437 36.9204 15.6366 37.5634 15.7062 37.8961 15.7758 38.0927 15.8222 38.1454 15.8454 38.1476 15.8918 38.1031 15.9382 37.9927 16.0078 37.7024 16.0774 37.2614 16.1702 36.4412 16.263 35.3616 16.379 33.6654 16.5181 31.1683 16.6806 27.7227 16.9126 22.13 17.3535 11.3444 17.5159 8.02599 17.6551 5.71374 17.7711 4.24396 17.8638 3.40332 17.9335 2.98133 18.0031 2.74475 18.0495 2.6921 18.0727 2.69759 18.1191 2.77246 18.1654 2.93254 18.2351 3.33168 18.3047 3.91905 18.3976 4.98659 18.5136 6.75354 18.6527 9.44645 18.8152 13.2445 19.0472 19.5025 19.5575 33.5868 19.7431 37.7711 19.8824 40.2944 19.9984 41.9186 20.0913 42.8742 20.1607 43.3797 20.2304 43.699 20.2769 43.8069 20.3 43.8292 20.3232 43.8303 20.3464 43.8104 20.3929 43.7069 20.4392 43.5192 20.5089 43.0818 20.5785 42.4609 20.6712 41.3577 20.7872 39.562 20.9265 36.8575 21.0888 33.0708 21.3208 26.8455 21.8546 12.1361 22.0402 7.98779 22.1793 5.49838 22.2953 3.90616 22.3882 2.97791 22.4578 2.49357 22.5274 2.19586 22.5738 2.10249 22.5969 2.0875 22.6201 2.0937 22.6665 2.16951 22.713 2.32962 22.7825 2.72635 22.8521 3.3076 22.945 4.36023 23.061 6.09734 23.2001 8.74033 23.3626 12.4701 23.5714 17.9992 24.1978 35.0849 24.3602 38.5408 24.4994 40.8948 24.6154 42.3608 24.7083 43.1816 24.7779 43.5828 24.8243 43.7458 24.8707 43.8246 24.8939 43.8323 24.9171 43.8187 24.9634 43.7284 25.0099 43.5538 25.0796 43.1357 25.149 42.5335 25.2419 41.4541 25.3579 39.686 25.4972 37.0104 25.6595 33.2506 25.8915 27.0476 26.4484 11.7465 26.6107 8.13202 26.75 5.61205 26.866 3.99117 26.9589 3.03841 27.0283 2.53501 27.098 2.21786 27.1445 2.11142 27.1676 2.08988 27.1908 2.08951 27.214 2.11031 27.2605 2.21526 27.3068 2.40433 27.3765 2.84389 27.4461 3.4669 27.5388 4.57289 27.6548 6.37175 27.7941 9.07955 27.9564 12.8692 28.1884 19.0971 28.7222 33.8035 28.9078 37.948 29.0469 40.434 29.1629 42.0229 29.2558 42.9483 29.3254 43.4305 29.395 43.726 29.4414 43.8179 29.4645 43.8322 29.4877 43.8252 29.5341 43.7479 29.5805 43.5863 29.6501 43.1875 29.7197 42.604 29.8126 41.5487 29.9286 39.8083 30.0677 37.162 30.2302 33.4292 30.439 27.8976 31.0422 11.3623 31.2047 7.81276 31.3438 5.36117 31.4599 3.80434 31.5527 2.90631 31.6223 2.44541 31.6919 2.1716 31.7383 2.09429 31.7615 2.08737 31.7847 2.1016 31.831 2.19348 31.8775 2.36956 31.9472 2.78992 32.0166 3.39422 32.1095 4.4763 32.2255 6.24755 32.3648 8.92642 32.5271 12.6894 32.7591 18.8949 33.316 34.1928 33.4783 37.804 33.6176 40.3204 33.7336 41.9381 33.8265 42.8881 33.8959 43.3893 33.9656 43.7042 34.0121 43.8092 34.0352 43.83 34.0584 43.8296 34.0816 43.8081 34.1281 43.7017 34.1744 43.5111 34.2441 43.0693 34.3368 42.196 34.4297 41.0111 34.5457 39.1211 34.6849 36.3187 34.8473 32.4426 35.0793 26.1442 35.5665 12.669 35.7521 8.42477 35.8914 5.84447 36.0074 4.16673 36.1001 3.16521 36.193 2.48441 36.2626 2.19113 36.309 2.10074 36.3321 2.08725 36.3554 2.09493 36.4017 2.17372 36.4481 2.33679 36.5177 2.73791 36.5873 3.32343 36.6802 4.38153 36.7962 6.12499 36.9353 8.77466 37.0978 12.5106 37.3066 18.0447 37.9098 34.5768 38.0723 38.1229 38.2114 40.5709 38.3275 42.1245 38.4203 43.0197 38.4899 43.4785 38.5595 43.75 38.6059 43.8258 38.6291 43.832 38.6523 43.817 38.6986 43.7237 38.7451 43.5461 38.8148 43.1236 38.8842 42.5171 38.9771 41.4323 39.0931 39.6579 39.2324 36.9757 39.3947 33.2098 39.6267 27.0016 40.1836 11.707 40.3459 8.09908 40.4852 5.58605 40.6012 3.97168 40.6941 3.02447 40.7635 2.5254 40.8332 2.21268 40.8797 2.10922 40.9028 2.08917 40.926 2.09028 40.9492 2.11256 40.9957 2.22049 41.042 2.41253 41.1117 2.85644 41.2044 3.73258 41.2973 4.92026 41.4133 6.81318 41.5524 9.61892 41.7149 13.4978 41.9469 19.7984 42.4341 33.2572 42.6197 37.443 42.759 39.9411 42.875 41.5238 42.9677 42.4334 43.0373 42.8982 43.107 43.1725 43.1533 43.2487 43.1766 43.255 43.1997 43.2398 43.2462 43.1461 43.2926 42.9685 43.3622 42.5478 43.4318 41.9471 43.5246 40.8801 43.6406 39.1514 43.7798 36.5733 43.9654 32.4736 44.267 24.9646 44.5686 17.6574 44.7543 13.8345 44.8935 11.4879 45.0095 9.93517 45.1255 8.78039 45.2182 8.15474 45.2879 7.86159 45.3342 7.74976 45.3806 7.70412 45.4039 7.70584 45.4502 7.75769 45.4967 7.87289 45.5662 8.16085 45.6358 8.58104 45.7287 9.3333 45.8447 10.5514 45.984 12.3557 46.1696 15.1879 46.8656 26.3332 47.0279 28.2792 47.1672 29.5942 47.2832 30.4192 47.376 30.8964 47.4688 31.2116 47.5384 31.3433 47.5848 31.3825 47.6311 31.3839 47.6776 31.3487 47.724 31.2779 47.7936 31.1085 47.8864 30.7722 48.0024 30.1939 48.1416 29.3081 48.3272 27.8915 49.0465 22.1111 49.209 21.15 49.3481 20.4989 49.4641 20.0854 49.5569 19.84 49.6497 19.6691 49.7193 19.5885 49.7889 19.5468 49.8586 19.5421 49.9282 19.5723 49.9978 19.635 50.0905 19.7643 50.2065 19.99 50.3458 20.3364 50.5314 20.8861 51.1577 22.8184 51.3203 23.208 51.4826 23.5202 51.6219 23.7223 51.7379 23.8443 51.8539 23.9259 51.9698 23.9692 52.0858 23.9781 52.2018 23.9564 52.3411 23.8965 52.5034 23.7902 52.7354 23.5957 53.3155 23.0867 53.5243 22.9466 53.7332 22.8426 53.9188 22.7812 54.1276 22.7448 54.3596 22.7383 54.638 22.7647 55.0556 22.8398 55.6588 22.944 56.0764 22.9834 56.5405 22.9955 57.283 22.9789 58.4431 22.9563 58.4431 22.9563" stroke="#595959" stroke-width="0.600516" stroke-linecap="square" stroke-linejoin="round" fill="none" transform="matrix(1.68229 0 0 1 432 143.929)"/></g></g></g></g><g><g><g><g><path d="M2.78301 22.9631 3.89666 22.9425 4.89432 22.9267 5.33516 22.9501 5.75278 23.002 6.37921 23.1171 6.75044 23.1702 7.00565 23.1775 7.21445 23.1552 7.40007 23.1087 7.58568 23.0342 7.79449 22.9156 8.02651 22.7446 8.32812 22.4805 8.69934 22.1586 8.88495 22.0363 9.02417 21.9771 9.14016 21.9555 9.25617 21.964 9.37218 22.0067 9.48819 22.0869 9.6042 22.2073 9.7202 22.3692 9.85941 22.6186 10.0218 22.9822 10.2074 23.4815 10.4626 24.2685 10.8571 25.4897 11.0195 25.8963 11.1355 26.1201 11.2283 26.2484 11.3211 26.3244 11.3907 26.3434 11.4603 26.3272 11.5299 26.2735 11.5995 26.1808 11.6923 25.9938 11.7851 25.7326 11.9011 25.3002 12.0171 24.7518 12.1563 23.9486 12.3187 22.8341 12.5276 21.1886 13.0844 16.6642 13.2236 15.7842 13.3396 15.2095 13.4324 14.8748 13.502 14.7058 13.5716 14.6129 13.618 14.5954 13.6644 14.6149 13.7109 14.6725 13.7804 14.8318 13.85 15.0805 13.9429 15.5535 14.0356 16.188 14.1516 17.2033 14.2909 18.7299 14.4532 20.8855 14.6621 24.1092 15.2886 34.1429 15.4277 35.8248 15.5437 36.9204 15.6366 37.5634 15.7062 37.8961 15.7758 38.0927 15.8222 38.1454 15.8454 38.1476 15.8918 38.1031 15.9382 37.9927 16.0078 37.7024 16.0774 37.2614 16.1702 36.4412 16.263 35.3616 16.379 33.6654 16.5181 31.1683 16.6806 27.7227 16.9126 22.13 17.3535 11.3444 17.5159 8.02599 17.6551 5.71374 17.7711 4.24396 17.8638 3.40332 17.9335 2.98133 18.0031 2.74475 18.0495 2.6921 18.0727 2.69759 18.1191 2.77246 18.1654 2.93254 18.2351 3.33168 18.3047 3.91905 18.3976 4.98659 18.5136 6.75354 18.6527 9.44645 18.8152 13.2445 19.0472 19.5025 19.5575 33.5868 19.7431 37.7711 19.8824 40.2944 19.9984 41.9186 20.0913 42.8742 20.1607 43.3797 20.2304 43.699 20.2769 43.8069 20.3 43.8292 20.3232 43.8303 20.3464 43.8104 20.3929 43.7069 20.4392 43.5192 20.5089 43.0818 20.5785 42.4609 20.6712 41.3577 20.7872 39.562 20.9265 36.8575 21.0888 33.0708 21.3208 26.8455 21.8546 12.1361 22.0402 7.98779 22.1793 5.49838 22.2953 3.90616 22.3882 2.97791 22.4578 2.49357 22.5274 2.19586 22.5738 2.10249 22.5969 2.0875 22.6201 2.0937 22.6665 2.16951 22.713 2.32962 22.7825 2.72635 22.8521 3.3076 22.945 4.36023 23.061 6.09734 23.2001 8.74033 23.3626 12.4701 23.5714 17.9992 24.1978 35.0849 24.3602 38.5408 24.4994 40.8948 24.6154 42.3608 24.7083 43.1816 24.7779 43.5828 24.8243 43.7458 24.8707 43.8246 24.8939 43.8323 24.9171 43.8187 24.9634 43.7284 25.0099 43.5538 25.0796 43.1357 25.149 42.5335 25.2419 41.4541 25.3579 39.686 25.4972 37.0104 25.6595 33.2506 25.8915 27.0476 26.4484 11.7465 26.6107 8.13202 26.75 5.61205 26.866 3.99117 26.9589 3.03841 27.0283 2.53501 27.098 2.21786 27.1445 2.11142 27.1676 2.08988 27.1908 2.08951 27.214 2.11031 27.2605 2.21526 27.3068 2.40433 27.3765 2.84389 27.4461 3.4669 27.5388 4.57289 27.6548 6.37175 27.7941 9.07955 27.9564 12.8692 28.1884 19.0971 28.7222 33.8035 28.9078 37.948 29.0469 40.434 29.1629 42.0229 29.2558 42.9483 29.3254 43.4305 29.395 43.726 29.4414 43.8179 29.4645 43.8322 29.4877 43.8252 29.5341 43.7479 29.5805 43.5863 29.6501 43.1875 29.7197 42.604 29.8126 41.5487 29.9286 39.8083 30.0677 37.162 30.2302 33.4292 30.439 27.8976 31.0422 11.3623 31.2047 7.81276 31.3438 5.36117 31.4599 3.80434 31.5527 2.90631 31.6223 2.44541 31.6919 2.1716 31.7383 2.09429 31.7615 2.08737 31.7847 2.1016 31.831 2.19348 31.8775 2.36956 31.9472 2.78992 32.0166 3.39422 32.1095 4.4763 32.2255 6.24755 32.3648 8.92642 32.5271 12.6894 32.7591 18.8949 33.316 34.1928 33.4783 37.804 33.6176 40.3204 33.7336 41.9381 33.8265 42.8881 33.8959 43.3893 33.9656 43.7042 34.0121 43.8092 34.0352 43.83 34.0584 43.8296 34.0816 43.8081 34.1281 43.7017 34.1744 43.5111 34.2441 43.0693 34.3368 42.196 34.4297 41.0111 34.5457 39.1211 34.6849 36.3187 34.8473 32.4426 35.0793 26.1442 35.5665 12.669 35.7521 8.42477 35.8914 5.84447 36.0074 4.16673 36.1001 3.16521 36.193 2.48441 36.2626 2.19113 36.309 2.10074 36.3321 2.08725 36.3554 2.09493 36.4017 2.17372 36.4481 2.33679 36.5177 2.73791 36.5873 3.32343 36.6802 4.38153 36.7962 6.12499 36.9353 8.77466 37.0978 12.5106 37.3066 18.0447 37.9098 34.5768 38.0723 38.1229 38.2114 40.5709 38.3275 42.1245 38.4203 43.0197 38.4899 43.4785 38.5595 43.75 38.6059 43.8258 38.6291 43.832 38.6523 43.817 38.6986 43.7237 38.7451 43.5461 38.8148 43.1236 38.8842 42.5171 38.9771 41.4323 39.0931 39.6579 39.2324 36.9757 39.3947 33.2098 39.6267 27.0016 40.1836 11.707 40.3459 8.09908 40.4852 5.58605 40.6012 3.97168 40.6941 3.02447 40.7635 2.5254 40.8332 2.21268 40.8797 2.10922 40.9028 2.08917 40.926 2.09028 40.9492 2.11256 40.9957 2.22049 41.042 2.41253 41.1117 2.85644 41.2044 3.73258 41.2973 4.92026 41.4133 6.81318 41.5524 9.61892 41.7149 13.4978 41.9469 19.7984 42.4341 33.2572 42.6197 37.443 42.759 39.9411 42.875 41.5238 42.9677 42.4334 43.0373 42.8982 43.107 43.1725 43.1533 43.2487 43.1766 43.255 43.1997 43.2398 43.2462 43.1461 43.2926 42.9685 43.3622 42.5478 43.4318 41.9471 43.5246 40.8801 43.6406 39.1514 43.7798 36.5733 43.9654 32.4736 44.267 24.9646 44.5686 17.6574 44.7543 13.8345 44.8935 11.4879 45.0095 9.93517 45.1255 8.78039 45.2182 8.15474 45.2879 7.86159 45.3342 7.74976 45.3806 7.70412 45.4039 7.70584 45.4502 7.75769 45.4967 7.87289 45.5662 8.16085 45.6358 8.58104 45.7287 9.3333 45.8447 10.5514 45.984 12.3557 46.1696 15.1879 46.8656 26.3332 47.0279 28.2792 47.1672 29.5942 47.2832 30.4192 47.376 30.8964 47.4688 31.2116 47.5384 31.3433 47.5848 31.3825 47.6311 31.3839 47.6776 31.3487 47.724 31.2779 47.7936 31.1085 47.8864 30.7722 48.0024 30.1939 48.1416 29.3081 48.3272 27.8915 49.0465 22.1111 49.209 21.15 49.3481 20.4989 49.4641 20.0854 49.5569 19.84 49.6497 19.6691 49.7193 19.5885 49.7889 19.5468 49.8586 19.5421 49.9282 19.5723 49.9978 19.635 50.0905 19.7643 50.2065 19.99 50.3458 20.3364 50.5314 20.8861 51.1577 22.8184 51.3203 23.208 51.4826 23.5202 51.6219 23.7223 51.7379 23.8443 51.8539 23.9259 51.9698 23.9692 52.0858 23.9781 52.2018 23.9564 52.3411 23.8965 52.5034 23.7902 52.7354 23.5957 53.3155 23.0867 53.5243 22.9466 53.7332 22.8426 53.9188 22.7812 54.1276 22.7448 54.3596 22.7383 54.638 22.7647 55.0556 22.8398 55.6588 22.944 56.0764 22.9834 56.5405 22.9955 57.283 22.9789 58.4431 22.9563 58.4431 22.9563" stroke="#00B0F0" stroke-width="0.600516" stroke-linecap="square" stroke-linejoin="round" fill="none" transform="matrix(1.68229 0 0 1 756 144.928)"/></g></g></g></g><g><g><g><g><path d="M1.75451 14.4768 2.4566 14.4638 3.08556 14.4538 3.36347 14.4685 3.62676 14.5013 4.02169 14.5738 4.25572 14.6073 4.41661 14.612 4.54825 14.5979 4.66527 14.5686 4.78228 14.5216 4.91393 14.4469 5.0602 14.339 5.25035 14.1725 5.48438 13.9696 5.60139 13.8925 5.68916 13.8551 5.76229 13.8416 5.83542 13.8469 5.90856 13.8738 5.9817 13.9244 6.05483 14.0003 6.12797 14.1023 6.21573 14.2596 6.31811 14.4888 6.43513 14.8036 6.59603 15.2998 6.84469 16.0696 6.94708 16.326 7.02021 16.467 7.07872 16.5479 7.13723 16.5959 7.18111 16.6078 7.22499 16.5976 7.26887 16.5638 7.31275 16.5053 7.37125 16.3874 7.42977 16.2228 7.5029 15.9502 7.57604 15.6044 7.6638 15.098 7.76618 14.3954 7.89783 13.3581 8.24887 10.5057 8.33664 9.95091 8.4098 9.58863 8.46826 9.37762 8.51216 9.27107 8.55605 9.21252 8.58528 9.20146 8.61452 9.21378 8.64384 9.25005 8.68764 9.35048 8.73154 9.50729 8.79009 9.80549 8.84856 10.2055 8.92169 10.8456 9.00947 11.808 9.11183 13.167 9.24351 15.1993 9.63847 21.5249 9.72617 22.5852 9.7993 23.276 9.85785 23.6813 9.90174 23.8911 9.94563 24.015 9.97487 24.0482 9.98953 24.0496 10.0188 24.0216 10.048 23.952 10.0919 23.7689 10.1358 23.4909 10.1942 22.9738 10.2528 22.2932 10.3259 21.2239 10.4136 19.6496 10.5161 17.4774 10.6623 13.9515 10.9403 7.15193 11.0426 5.05987 11.1304 3.60215 11.2035 2.67554 11.262 2.14558 11.3059 1.87954 11.3498 1.73039 11.379 1.6972 11.3937 1.70066 11.4229 1.74786 11.4522 1.84878 11.496 2.10041 11.5399 2.47071 11.5985 3.14372 11.6716 4.25768 11.7593 5.95539 11.8618 8.34982 12.008 12.2951 12.3298 21.1743 12.4468 23.8122 12.5346 25.403 12.6077 26.427 12.6663 27.0294 12.7101 27.3481 12.754 27.5494 12.7833 27.6175 12.7978 27.6315 12.8125 27.6322 12.8271 27.6196 12.8564 27.5544 12.8856 27.4361 12.9295 27.1603 12.9734 26.7689 13.0319 26.0734 13.105 24.9413 13.1928 23.2363 13.2952 20.849 13.4414 16.9244 13.7779 7.65101 13.8949 5.03579 13.9826 3.46638 14.0558 2.46259 14.1143 1.87738 14.1582 1.57203 14.2021 1.38435 14.2313 1.32549 14.2459 1.31604 14.2606 1.31994 14.2898 1.36774 14.3191 1.46868 14.3629 1.71879 14.4068 2.08523 14.4654 2.74885 14.5385 3.84399 14.6262 5.51022 14.7286 7.86158 14.8602 11.3474 15.2552 22.1188 15.3575 24.2975 15.4453 25.7816 15.5185 26.7058 15.577 27.2233 15.6209 27.4761 15.6501 27.5789 15.6794 27.6286 15.694 27.6335 15.7086 27.6249 15.7378 27.5679 15.7672 27.4579 15.8111 27.1943 15.8549 26.8146 15.9134 26.1341 15.9865 25.0195 16.0743 23.3327 16.1767 20.9624 16.3229 17.0518 16.674 7.40539 16.7764 5.12672 16.8642 3.53804 16.9373 2.51618 16.9958 1.91552 17.0396 1.59816 17.0835 1.39822 17.1129 1.33112 17.1274 1.31754 17.1421 1.3173 17.1567 1.33041 17.186 1.39658 17.2152 1.51578 17.2591 1.79289 17.303 2.18566 17.3615 2.88291 17.4346 4.01698 17.5224 5.72408 17.6247 8.11318 17.771 12.0395 18.1075 21.3109 18.2245 23.9238 18.3122 25.4911 18.3853 26.4927 18.4439 27.0762 18.4878 27.3801 18.5317 27.5664 18.5609 27.6244 18.5755 27.6334 18.5901 27.629 18.6194 27.5803 18.6486 27.4784 18.6925 27.2269 18.7364 26.8591 18.7949 26.1938 18.8681 25.0966 18.9558 23.4283 19.0582 21.075 19.1898 17.5876 19.5701 7.1632 19.6726 4.92545 19.7603 3.37988 19.8335 2.3984 19.8919 1.83224 19.9358 1.54168 19.9797 1.36905 20.009 1.32032 20.0236 1.31595 20.0382 1.32493 20.0674 1.38285 20.0967 1.49386 20.1406 1.75886 20.1844 2.13984 20.243 2.82202 20.3161 3.93868 20.4039 5.62754 20.5063 7.99984 20.6525 11.912 21.0036 21.5564 21.1059 23.833 21.1937 25.4194 21.2669 26.4393 21.3254 27.0382 21.3692 27.3542 21.4131 27.5527 21.4424 27.6189 21.457 27.632 21.4717 27.6318 21.4862 27.6182 21.5156 27.5511 21.5448 27.431 21.5887 27.1525 21.6472 26.6019 21.7057 25.8549 21.7788 24.6634 21.8666 22.8966 21.969 20.453 22.1152 16.4823 22.4224 7.98699 22.5394 5.31128 22.6272 3.68456 22.7003 2.62686 22.7588 1.99546 22.8174 1.56626 22.8613 1.38137 22.8905 1.32438 22.9051 1.31588 22.9197 1.32072 22.949 1.37039 22.9782 1.4732 23.0221 1.72608 23.066 2.09521 23.1245 2.76227 23.1977 3.86142 23.2854 5.53186 23.3878 7.88712 23.5194 11.376 23.8997 21.7984 24.0021 24.0341 24.0898 25.5773 24.1631 26.5568 24.2215 27.1211 24.2654 27.4104 24.3093 27.5816 24.3385 27.6293 24.3532 27.6333 24.3678 27.6238 24.397 27.565 24.4263 27.453 24.4702 27.1866 24.514 26.8043 24.5726 26.1204 24.6457 25.0018 24.7335 23.3108 24.8359 20.9367 24.9821 17.0228 25.3332 7.3805 25.4355 5.10595 25.5233 3.52165 25.5964 2.50389 25.655 1.90674 25.6988 1.5921 25.7427 1.39495 25.772 1.32973 25.7866 1.31709 25.8013 1.31779 25.8158 1.33184 25.8451 1.39988 25.8744 1.52095 25.9183 1.80081 25.9767 2.35315 26.0353 3.10191 26.1084 4.29527 26.1961 6.06411 26.2986 8.50948 26.4448 12.4816 26.752 20.9666 26.869 23.6054 26.9568 25.1803 27.0299 26.1781 27.0884 26.7516 27.1323 27.0446 27.1762 27.2175 27.2054 27.2656 27.2201 27.2695 27.2346 27.2599 27.264 27.2009 27.2932 27.0889 27.3371 26.8237 27.381 26.445 27.4395 25.7723 27.5126 24.6825 27.6004 23.0571 27.7174 20.4725 27.9075 15.7386 28.0977 11.1318 28.2147 8.72174 28.3025 7.2424 28.3756 6.26349 28.4487 5.53548 28.5072 5.14104 28.5511 4.95623 28.5803 4.88573 28.6096 4.85695 28.6242 4.85804 28.6535 4.89073 28.6828 4.96335 28.7266 5.1449 28.7705 5.4098 28.829 5.88405 28.9022 6.65196 28.9899 7.78948 29.107 9.57497 29.5457 16.6014 29.6481 17.8282 29.7359 18.6572 29.809 19.1773 29.8676 19.4782 29.926 19.6769 29.9699 19.7599 29.9992 19.7846 30.0284 19.7856 30.0577 19.7634 30.0869 19.7187 30.1308 19.6119 30.1893 19.3999 30.2624 19.0354 30.3502 18.4769 30.4672 17.5838 30.9207 13.9397 31.0231 13.3337 31.1108 12.9232 31.1839 12.6626 31.2425 12.5079 31.301 12.4001 31.3448 12.3493 31.3887 12.323 31.4326 12.32 31.4765 12.3391 31.5204 12.3786 31.5789 12.4601 31.652 12.6024 31.7398 12.8208 31.8568 13.1673 32.2517 14.3855 32.3541 14.6311 32.4565 14.828 32.5443 14.9554 32.6174 15.0323 32.6905 15.0837 32.7637 15.111 32.8368 15.1166 32.9099 15.103 32.9977 15.0652 33.1001 14.9982 33.2463 14.8756 33.612 14.5547 33.7436 14.4664 33.8753 14.4008 33.9923 14.3621 34.124 14.3391 34.2703 14.335 34.4458 14.3517 34.709 14.399 35.0893 14.4647 35.3526 14.4896 35.6452 14.4972 36.1133 14.4867 36.8446 14.4725 36.8446 14.4725" stroke="#ED7D31" stroke-width="0.378587" stroke-linecap="square" stroke-linejoin="round" fill="none" transform="matrix(2.66846 0 0 1 758 153.913)"/></g></g></g></g><text fill="#101010" font-family="ZI Akkurat Light,ZI Akkurat Light_MSFontService,sans-serif" font-weight="300" font-size="21" transform="matrix(1 0 0 0.999334 447.529 105)">readout</text><text fill="#101010" font-family="ZI Akkurat Light,ZI Akkurat Light_MSFontService,sans-serif" font-weight="300" font-size="21" transform="matrix(1 0 0 0.999334 459.298 131)">pulse</text><path d="M591.5 264.324 661.975 264.616" stroke="#101010" stroke-width="1.33357" stroke-linecap="square" stroke-miterlimit="8" fill="none" fill-rule="evenodd"/><text fill="#00A1E6" font-family="ZI Akkurat Light,ZI Akkurat Light_MSFontService,sans-serif" font-weight="300" font-size="21" transform="matrix(1 0 0 0.999334 773.262 138)">g</text><text fill="#101010" font-family="ZI Akkurat Light,ZI Akkurat Light_MSFontService,sans-serif" font-weight="300" font-size="21" transform="matrix(1 0 0 0.999334 789.599 138)">/</text><text fill="#ED7D31" font-family="ZI Akkurat Light,ZI Akkurat Light_MSFontService,sans-serif" font-weight="300" font-size="21" transform="matrix(1 0 0 0.999334 803.434 138)">e</text><text font-family="ZI Akkurat Light,ZI Akkurat Light_MSFontService,sans-serif" font-weight="300" font-size="21" transform="matrix(1 0 0 0.999334 820.271 138)">/</text><text fill="#70AD47" font-family="ZI Akkurat Light,ZI Akkurat Light_MSFontService,sans-serif" font-weight="300" font-size="21" transform="matrix(1 0 0 0.999334 833.766 138)">f</text><rect x="127.5" y="167.388" width="233" height="121.919" stroke="#002060" stroke-width="1.33357" stroke-miterlimit="8" fill="none"/><text fill="#101010" font-family="ZI Akkurat Light,ZI Akkurat Light_MSFontService,sans-serif" font-weight="300" font-size="21" transform="matrix(-1.83697e-16 -0.998668 1.00067 -1.83575e-16 80.7063 145)">amplitude</text><text fill="#101010" font-family="ZI Akkurat Light,ZI Akkurat Light_MSFontService,sans-serif" font-weight="300" font-size="21" transform="matrix(-1.83697e-16 -0.998668 1.00067 -1.83575e-16 80.0753 257)">phase</text><text fill="#101010" font-family="ZI Akkurat Light,ZI Akkurat Light_MSFontService,sans-serif" font-weight="300" font-size="21" transform="matrix(1 0 0 0.999334 195.154 314)">frequency</text><text fill="#00A1E6" font-family="ZI Akkurat Light,ZI Akkurat Light_MSFontService,sans-serif" font-weight="300" font-size="21" transform="matrix(1 0 0 0.999334 275.006 222)">g</text><text fill="#ED7D31" font-family="ZI Akkurat Light,ZI Akkurat Light_MSFontService,sans-serif" font-weight="300" font-size="21" transform="matrix(1 0 0 0.999334 227.316 220)">e</text><path d="M128.5 142.282 132.665 141.9 136.368 141.494 139.607 141.072 142.615 140.612 145.392 140.116 147.937 139.587 150.251 139.032 152.334 138.46 154.185 137.883 156.036 137.23 157.656 136.585 159.276 135.861 160.895 135.046 162.284 134.261 163.672 133.386 165.06 132.406 166.449 131.306 167.837 130.066 168.994 128.909 170.151 127.625 171.308 126.195 172.465 124.599 173.622 122.813 174.779 120.812 175.936 118.565 177.093 116.038 178.25 113.195 179.407 109.997 180.564 106.403 181.721 102.376 182.878 97.8857 184.035 92.9189 185.423 86.3515 187.043 78.0049 190.051 62.1958 190.977 57.9367 191.671 55.1616 192.365 52.8506 192.828 51.6107 193.291 50.6371 193.754 49.9475 193.985 49.7136 194.216 49.555 194.448 49.4727 194.679 49.467 194.91 49.5378 195.142 49.685 195.373 49.9077 195.836 50.5753 196.299 51.5281 196.762 52.7488 197.456 55.0343 198.15 57.7884 199.075 62.0268 200.464 69.1449 203.704 86.1795 205.092 92.7624 206.249 97.7437 207.406 102.248 208.563 106.288 209.719 109.895 210.877 113.105 212.034 115.958 213.19 118.493 214.348 120.748 215.505 122.756 216.661 124.548 217.819 126.149 218.976 127.584 220.132 128.873 221.29 130.033 222.678 131.277 224.066 132.38 225.455 133.363 226.843 134.24 228.232 135.027 229.851 135.845 231.471 136.57 233.091 137.216 234.942 137.871 236.793 138.45 238.876 139.023 241.189 139.58 243.503 140.064 246.049 140.529 248.826 140.967 252.065 141.404 255.536 141.801 259.47 142.18 263.866 142.531 268.725 142.852 274.279 143.151 280.758 143.431 288.394 143.691 297.418 143.928 308.294 144.143 321.483 144.335 327.5 144.404 327.5 144.404" stroke="#70AD47" stroke-width="1.33357" stroke-linecap="square" stroke-linejoin="round" stroke-miterlimit="10" fill="none" fill-rule="evenodd"/><path d="M128.5 143.816 137.325 143.551 144.524 143.27 150.794 142.961 156.136 142.632 160.78 142.282 164.96 141.9 168.676 141.494 171.927 141.072 174.946 140.612 177.733 140.116 180.288 139.588 182.61 139.032 184.7 138.46 186.558 137.883 188.416 137.23 190.041 136.585 191.667 135.861 193.293 135.046 194.686 134.261 196.08 133.386 197.473 132.406 198.866 131.306 200.26 130.066 201.421 128.909 202.582 127.625 203.743 126.195 204.905 124.599 206.065 122.813 207.227 120.812 208.388 118.565 209.549 116.038 210.71 113.195 211.871 109.997 213.032 106.403 214.194 102.376 215.355 97.8857 216.516 92.9189 217.909 86.3515 219.535 78.0049 222.554 62.1958 223.483 57.9367 224.18 55.1616 224.876 52.8506 225.341 51.6107 225.805 50.6371 226.27 49.9475 226.502 49.7136 226.734 49.555 226.967 49.4727 227.199 49.467 227.431 49.5378 227.663 49.685 227.895 49.9077 228.36 50.5753 228.824 51.5281 229.289 52.7488 229.985 55.0343 230.682 57.7884 231.611 62.0269 233.004 69.1449 236.256 86.1796 237.649 92.7624 238.81 97.7437 239.971 102.248 241.133 106.288 242.293 109.895 243.455 113.105 244.616 115.958 245.777 118.493 246.938 120.748 248.1 122.756 249.261 124.548 250.422 126.149 251.583 127.584 252.744 128.873 253.905 130.033 255.299 131.277 256.692 132.38 258.086 133.363 259.479 134.24 260.873 135.027 262.498 135.845 264.123 136.571 265.749 137.216 267.607 137.871 269.465 138.45 271.555 139.023 273.877 139.58 276.199 140.065 278.754 140.529 281.541 140.967 284.792 141.404 288.275 141.801 292.224 142.18 296.636 142.532 301.513 142.852 307.086 143.151 313.589 143.431 321.253 143.691 330.31 143.929 341.224 144.143 354.462 144.335 360.5 144.404 360.5 144.404" stroke="#EE7F00" stroke-width="1.33357" stroke-linecap="square" stroke-linejoin="round" stroke-miterlimit="10" fill="none" fill-rule="evenodd"/><path d="M128.5 144.404 144.06 144.203 156.368 143.98 166.354 143.732 174.482 143.466 181.449 143.173 187.487 142.852 192.596 142.515 197.008 142.16 200.956 141.777 204.44 141.376 207.691 140.933 210.478 140.489 213.032 140.019 215.355 139.528 217.677 138.963 219.767 138.381 221.625 137.794 223.483 137.129 225.109 136.472 226.734 135.734 228.36 134.902 229.753 134.101 231.147 133.207 232.54 132.205 233.934 131.08 235.094 130.033 236.256 128.873 237.417 127.584 238.578 126.149 239.739 124.548 240.9 122.756 242.061 120.748 243.223 118.493 244.384 115.958 245.545 113.105 246.706 109.895 247.867 106.288 249.028 102.248 250.19 97.7437 251.351 92.7624 252.744 86.1796 254.37 77.8203 257.389 62.0269 258.318 57.7884 259.014 55.0343 259.711 52.7488 260.176 51.5281 260.64 50.5753 261.105 49.9077 261.337 49.685 261.569 49.5378 261.801 49.467 262.033 49.4727 262.266 49.555 262.498 49.7136 262.73 49.9475 263.195 50.6371 263.659 51.6107 264.123 52.8506 264.82 55.1616 265.517 57.9367 266.446 62.1958 267.84 69.3295 271.09 86.3515 272.484 92.9189 273.645 97.8857 274.806 102.376 275.967 106.403 277.129 109.997 278.29 113.195 279.451 116.038 280.612 118.565 281.773 120.812 282.934 122.813 284.096 124.599 285.257 126.195 286.418 127.625 287.579 128.909 288.74 130.066 290.134 131.306 291.527 132.406 292.92 133.386 294.314 134.261 295.707 135.046 297.333 135.861 298.959 136.585 300.584 137.23 302.442 137.883 304.3 138.46 306.39 139.032 308.712 139.588 311.035 140.071 313.589 140.535 316.376 140.972 319.627 141.409 323.111 141.805 327.058 142.183 331.471 142.534 336.348 142.854 341.921 143.153 348.424 143.433 356.087 143.693 360.5 143.816 360.5 143.816" stroke="#009EE0" stroke-width="1.33357" stroke-linecap="square" stroke-linejoin="round" stroke-miterlimit="10" fill="none" fill-rule="evenodd"/><rect x="128.5" y="35.4764" width="232" height="121.919" stroke="#002060" stroke-width="1.33357" stroke-miterlimit="8" fill="none"/><path d="M262 35.9761 262 289.83" stroke="#000000" stroke-width="2.00035" stroke-miterlimit="8" stroke-dasharray="2.00035 2.00035" fill="none" fill-rule="evenodd"/><text fill="#101010" font-family="ZI Akkurat Light,ZI Akkurat Light_MSFontService,sans-serif" font-weight="300" font-size="21" transform="matrix(1 0 0 0.999334 105.087 151)">0</text><text fill="#101010" font-family="ZI Akkurat Light,ZI Akkurat Light_MSFontService,sans-serif" font-weight="300" font-size="21" transform="matrix(1 0 0 0.999334 109.247 60)">1</text><text fill="#101010" font-family="ZI Akkurat Light,ZI Akkurat Light_MSFontService,sans-serif" font-weight="300" font-size="21" transform="matrix(1 0 0 0.999334 104.328 278)">0</text><text fill="#101010" font-family="ZI Akkurat Light,ZI Akkurat Light_MSFontService,sans-serif" font-weight="300" font-size="21" transform="matrix(1 0 0 0.999334 93.066 192)">2</text><text fill="#101010" font-family="ZI Akkurat Light,ZI Akkurat Light_MSFontService,sans-serif" font-weight="300" font-size="21" transform="matrix(1 0 0 0.999334 104.401 192)">Ï€</text><text fill="#101010" font-family="ZI Akkurat Light,ZI Akkurat Light_MSFontService,sans-serif" font-weight="300" font-size="21" transform="matrix(1 0 0 0.999334 104.208 234)">Ï€</text><path d="M128.5 50.4664 359.65 50.4665" stroke="#BFBFBF" stroke-width="0.666784" stroke-linecap="square" stroke-miterlimit="8" stroke-dasharray="2.00035 0.666784" fill="none" fill-rule="evenodd"/><path d="M128.5 145.403 359.65 145.403" stroke="#BFBFBF" stroke-width="0.666784" stroke-linecap="square" stroke-miterlimit="8" stroke-dasharray="2.00035 0.666784" fill="none" fill-rule="evenodd"/><path d="M244.5 35.4764 244.5 157.251" stroke="#BFBFBF" stroke-width="0.666784" stroke-linecap="square" stroke-miterlimit="8" stroke-dasharray="2.00035 0.666784" fill="none" fill-rule="evenodd"/><path d="M187.5 35.4764 187.5 157.251" stroke="#BFBFBF" stroke-width="0.666784" stroke-linecap="square" stroke-miterlimit="8" stroke-dasharray="2.00035 0.666784" fill="none" fill-rule="evenodd"/><path d="M304.5 35.4764 304.5 157.251" stroke="#BFBFBF" stroke-width="0.666784" stroke-linecap="square" stroke-miterlimit="8" stroke-dasharray="2.00035 0.666784" fill="none" fill-rule="evenodd"/><path d="M128.5 96.4357 359.65 96.4358" stroke="#BFBFBF" stroke-width="0.666784" stroke-linecap="square" stroke-miterlimit="8" stroke-dasharray="2.00035 0.666784" fill="none" fill-rule="evenodd"/><path d="M128.5 182.378 359.65 182.379" stroke="#BFBFBF" stroke-width="0.666784" stroke-linecap="square" stroke-miterlimit="8" stroke-dasharray="2.00035 0.666784" fill="none" fill-rule="evenodd"/><path d="M128.5 277.315 359.65 277.315" stroke="#BFBFBF" stroke-width="0.666784" stroke-linecap="square" stroke-miterlimit="8" stroke-dasharray="2.00035 0.666784" fill="none" fill-rule="evenodd"/><path d="M244.5 167.388 244.5 289.163" stroke="#BFBFBF" stroke-width="0.666784" stroke-linecap="square" stroke-miterlimit="8" stroke-dasharray="2.00035 0.666784" fill="none" fill-rule="evenodd"/><path d="M186.5 167.388 186.5 289.163" stroke="#BFBFBF" stroke-width="0.666784" stroke-linecap="square" stroke-miterlimit="8" stroke-dasharray="2.00035 0.666784" fill="none" fill-rule="evenodd"/><path d="M304.5 167.388 304.5 289.163" stroke="#BFBFBF" stroke-width="0.666784" stroke-linecap="square" stroke-miterlimit="8" stroke-dasharray="2.00035 0.666784" fill="none" fill-rule="evenodd"/><path d="M128.5 228.348 359.65 228.348" stroke="#BFBFBF" stroke-width="0.666784" stroke-linecap="square" stroke-miterlimit="8" stroke-dasharray="2.00035 0.666784" fill="none" fill-rule="evenodd"/><path d="M233.668 65.9558 241.669 65.9558 241.669 67.9549 233.668 67.9548ZM247.67 65.9559 252.63 65.9559 252.63 67.9549 247.67 67.9549ZM235.001 70.9534 227 66.9553 235.001 62.9573ZM251.296 62.9574 259.298 66.9554 251.296 70.9534Z"/><text fill="#101010" font-family="Cambria Math,Cambria Math_MSFontService,sans-serif" font-weight="400" font-size="14" transform="matrix(1 0 0 0.999334 235.783 54)">2</text><text fill="#101010" font-family="Cambria Math,Cambria Math_MSFontService,sans-serif" font-weight="400" font-size="14" transform="matrix(1 0 0 0.999334 243.617 54)">ğœ’</text><path d="M-0.66661 93.2713 3.99777 93.2694 3.99831 94.6021-0.66607 94.604ZM5.33045 93.2689 9.32849 93.2673 9.32903 94.5999 5.33099 94.6015ZM10.6612 93.2667 14.6592 93.2651 14.6597 94.5978 10.6617 94.5994ZM15.9919 93.2645 19.9899 93.2629 19.9905 94.5956 15.9924 94.5972ZM21.3226 93.2624 25.3207 93.2608 25.3212 94.5935 21.3232 94.5951ZM26.6533 93.2602 30.6514 93.2586 30.6519 94.5913 26.6539 94.5929ZM31.9841 93.2581 35.9821 93.2565 35.9826 94.5891 31.9846 94.5908ZM37.3148 93.2559 41.3128 93.2543 41.3133 94.587 37.3153 94.5886ZM42.6455 93.2538 46.6435 93.2521 46.6441 94.5848 42.646 94.5864ZM47.9762 93.2516 51.9743 93.25 51.9748 94.5827 47.9767 94.5843ZM53.3069 93.2494 57.305 93.2478 57.3055 94.5805 53.3075 94.5821ZM58.6376 93.2473 62.6357 93.2457 62.6362 94.5783 58.6382 94.58ZM63.9684 93.2451 67.9664 93.2435 67.9669 94.5762 63.9689 94.5778ZM69.2991 93.243 73.2971 93.2413 73.2977 94.574 69.2996 94.5756ZM74.6298 93.2408 78.6278 93.2392 78.6284 94.5718 74.6303 94.5735ZM79.9605 93.2386 81.1312 93.2382 83.9488 93.1968 83.9683 94.5293 81.1317 94.5708 79.9611 94.5713ZM85.2813 93.1773 86.2458 93.1631 89.2647 93.0605 89.3099 94.3924 86.2654 94.4957 85.3008 94.5098ZM90.5788 92.9923 92.1943 92.8969 94.31 92.7082 94.5205 92.6815 94.6855 94.0039 94.4282 94.0356 92.2729 94.2272 90.6574 94.3227ZM95.8429 92.5165 96.2081 92.4709 97.8892 92.1911 99.3548 91.8804 99.6833 91.7936 100.021 93.0828 99.6306 93.1842 98.1076 93.5057 96.3731 93.7933 96.008 93.8389ZM100.938 91.4577 102.067 91.0994 103.316 90.6299 104.562 90.0792 104.566 90.076 105.175 91.261 105.1 91.2986 103.784 91.8776 102.47 92.3697 101.341 92.728ZM105.75 89.4662 105.807 89.4372 107.052 88.6936 108.297 87.838 108.964 87.3142 109.785 88.3636 109.051 88.9371 107.734 89.8384 106.417 90.6222 106.36 90.6512ZM109.958 86.4908 110.794 85.7491 112.046 84.4966 112.735 83.7262 113.727 84.6152 112.988 85.4396 111.678 86.7458 110.843 87.4875ZM113.583 82.7433 114.56 81.533 115.822 79.8106 115.96 79.6043 117.067 80.3464 116.897 80.5986 115.597 82.3703 114.62 83.5806ZM116.702 78.4974 117.087 77.9229 118.355 75.8696 118.773 75.1353 119.931 75.7951 119.489 76.5699 118.194 78.665 117.809 79.2395ZM119.432 73.9774 119.838 73.2664 121.31 70.4727 122.489 71.094 120.995 73.9262 120.59 74.6372ZM121.888 69.2937 123.021 66.9846 123.607 65.704 124.819 66.259 124.217 67.5714 123.085 69.8806ZM124.162 64.4924 124.935 62.8055 125.778 60.8518 127.002 61.38 126.147 63.3605 125.374 65.0474ZM126.307 59.6283 127.064 57.8742 127.855 55.9544 129.087 56.4621 128.287 58.4024 127.53 60.1565ZM128.362 54.7222 129.835 51.1479 129.884 51.0274 131.118 51.5311 131.067 51.6555 129.595 55.2298ZM130.388 49.7936 131.899 46.0921 133.133 46.5957 131.622 50.2972ZM132.402 44.8582 133.913 41.1567 135.147 41.6604 133.636 45.3619ZM134.417 39.9229 135.928 36.2214 137.162 36.7251 135.651 40.4266ZM136.432 34.9876 136.667 34.4127 138.026 31.3032 139.247 31.837 137.9 34.9164 137.666 35.4912ZM138.559 30.0821 138.808 29.5137 140.24 26.4374 141.448 27 140.029 30.0475 139.78 30.6159ZM140.815 25.2143 142.452 21.9437 142.624 21.6257 143.796 22.2587 143.644 22.5403 142.007 25.8108ZM143.256 20.453 143.956 19.1567 145.243 16.9573 146.393 17.6304 145.129 19.7897 144.429 21.0859ZM145.961 15.8031 146.97 14.2271 148.209 12.4638 149.299 13.2302 148.092 14.9459 147.083 16.5219ZM149.037 11.3822 149.566 10.6974 150.867 9.1708 151.69 8.3038 152.656 9.22192 151.881 10.0359 150.621 11.5116 150.092 12.1964ZM152.661 7.33664 153.481 6.56784 154.792 5.47769 155.802 4.73935 156.587 5.81602 155.643 6.50309 154.392 7.53984 153.573 8.30864ZM156.948 3.98029 157.422 3.67853 158.739 2.95111 160.056 2.32541 160.607 2.10145 161.107 3.33685 160.627 3.52968 159.382 4.11828 158.137 4.80285 157.663 5.10461ZM161.886 1.61468 162.688 1.33966 164 0.960019 165.525 0.596979 165.83 0.538128 166.08 1.84723 165.833 1.89359 164.37 2.24043 163.12 2.60029 162.318 2.8753ZM167.167 0.287703 168.783 0.0464251 170.73-0.170953 171.179-0.206855 171.284 1.12168 170.877 1.15352 168.98 1.36451 167.363 1.60579ZM172.508-0.311899 172.886-0.341785 175.466-0.476361 176.533-0.508798 176.573 0.823273 175.535 0.854516 172.991 0.986749 172.613 1.01663ZM177.865-0.549081 178.683-0.573808 181.873-0.61852 181.892 0.714029 178.723 0.758263 177.905 0.78299ZM183.213-0.636928 187.211-0.652281 187.216 0.680389 183.218 0.695742ZM188.543-0.657399 191.537-0.668894 191.542 0.663776 188.548 0.675271Z" fill="#70AD47" transform="matrix(-1.00067 0 0 1 320.5 182.378)"/><path d="M-0.666609 93.2714 3.99777 93.2695 3.99831 94.6022-0.666071 94.6041ZM5.33045 93.269 9.32849 93.2674 9.32903 94.6 5.33099 94.6017ZM10.6612 93.2668 14.6592 93.2652 14.6597 94.5979 10.6617 94.5995ZM15.9919 93.2647 19.9899 93.2631 19.9905 94.5957 15.9924 94.5974ZM21.3226 93.2625 25.3207 93.2609 25.3212 94.5936 21.3232 94.5952ZM26.6533 93.2604 30.6514 93.2588 30.6519 94.5914 26.6539 94.593ZM31.9841 93.2582 35.9821 93.2566 35.9826 94.5893 31.9846 94.5909ZM37.3148 93.2561 41.3128 93.2544 41.3133 94.5871 37.3153 94.5887ZM42.6455 93.2539 46.6435 93.2523 46.6441 94.585 42.646 94.5866ZM47.9762 93.2517 51.9743 93.2501 51.9748 94.5828 47.9767 94.5844ZM53.3069 93.2496 57.305 93.248 57.3055 94.5807 53.3075 94.5823ZM58.6376 93.2474 62.6357 93.2458 62.6362 94.5785 58.6382 94.5801ZM63.9684 93.2453 67.9664 93.2437 67.9669 94.5763 63.9689 94.578ZM69.2991 93.2431 73.2971 93.2415 73.2977 94.5742 69.2996 94.5758ZM74.6298 93.241 78.6278 93.2394 78.6284 94.572 74.6303 94.5736ZM79.9605 93.2388 81.3467 93.2383 83.9488 93.2001 83.9683 94.5327 81.3472 94.5709 79.9611 94.5715ZM85.2814 93.1807 86.475 93.1632 89.2649 93.0686 89.31 94.4006 86.4944 94.4958 85.3008 94.5132ZM90.5793 93.0066 92.4394 92.897 94.546 92.7096 94.6639 94.0371 92.5178 94.2274 90.6577 94.337ZM95.8452 92.548 96.4641 92.471 98.1498 92.1912 99.6194 91.8805 99.6926 91.8606 100.029 93.1501 99.8945 93.1845 98.3676 93.5059 96.6287 93.7935 96.0098 93.8705ZM100.982 91.5239 101.088 91.4964 102.339 91.0994 103.591 90.6299 104.628 90.1729 105.164 91.3928 104.058 91.878 102.741 92.37 101.424 92.7858 101.319 92.8134ZM105.783 89.5941 106.089 89.4371 107.338 88.6936 108.586 87.8379 109.028 87.4911 109.849 88.5415 109.339 88.9379 108.019 89.8391 106.698 90.6228 106.392 90.7798ZM110.035 86.6826 111.09 85.749 112.346 84.4965 112.839 83.9455 113.831 84.8359 113.286 85.4407 111.973 86.7469 110.918 87.6805ZM113.7 82.9735 114.866 81.533 116.118 79.8299 117.191 80.6193 115.902 82.3717 114.736 83.8122ZM116.846 78.7474 117.4 77.9231 118.671 75.8699 118.939 75.3995 120.096 76.0606 119.804 76.5716 118.506 78.6666 117.952 79.491ZM119.6 74.2424 120.158 73.2669 121.49 70.7446 122.669 71.3673 121.315 73.928 120.758 74.9035ZM122.078 69.5704 123.35 66.9853 123.808 65.986 125.019 66.5422 124.545 67.5735 123.274 70.1585ZM124.365 64.775 125.269 62.8065 125.991 61.1388 127.214 61.6683 126.48 63.3627 125.576 65.3312ZM126.52 59.9158 127.403 57.8755 128.077 56.2455 129.308 56.7543 128.626 58.4049 127.743 60.4453ZM128.585 55.0138 130.112 51.3186 131.344 51.8274 129.817 55.5226ZM130.616 50.0875 132.131 46.3874 133.364 46.8923 131.85 50.5923ZM132.636 45.1541 134.15 41.454 135.384 41.9588 133.869 45.6589ZM134.655 40.2206 136.17 36.5206 137.403 37.0254 135.888 40.7255ZM136.674 35.2872 137.031 34.4152 138.265 31.6013 139.485 32.1363 138.265 34.92 137.908 35.792ZM138.8 30.3808 139.178 29.5164 140.477 26.7345 141.685 27.2984 140.399 30.0514 140.02 30.9158ZM141.041 25.5271 141.112 25.3762 142.833 21.9467 142.848 21.9166 144.024 22.5445 144.024 22.5445 142.319 25.94 142.249 26.0909ZM143.483 20.7447 144.34 19.1598 145.463 17.2457 146.612 17.9201 145.512 19.7941 144.655 21.379ZM146.171 16.0854 147.362 14.2304 148.412 12.7408 149.501 13.5087 148.484 14.9506 147.292 16.8056ZM149.229 11.6514 149.965 10.7009 151.27 9.17438 151.86 8.55392 152.825 9.47334 152.283 10.0408 151.019 11.5165 150.283 12.467ZM152.818 7.57415 153.89 6.5716 155.205 5.48156 155.936 4.94831 156.72 6.02598 156.055 6.50808 154.801 7.54484 153.729 8.54739ZM157.07 4.17239 157.842 3.68261 159.162 2.9553 160.483 2.3297 160.702 2.24023 161.2 3.47609 161.052 3.53456 159.804 4.1232 158.556 4.8078 157.784 5.29758ZM161.974 1.73636 163.121 1.34412 164.437 0.964534 165.878 0.622425 166.185 1.91922 164.805 2.24521 163.552 2.60509 162.405 2.99734ZM167.215 0.363325 167.494 0.310369 169.232 0.0510785 171.183-0.166273 171.249-0.171815 171.354 1.15674 171.331 1.15825 169.428 1.36924 167.742 1.6196 167.464 1.67255ZM172.578-0.276577 173.345-0.337085 175.932-0.471649 176.602-0.492018 176.642 0.840057 176.001 0.859238 173.45 0.991471 172.683 1.05198ZM177.934-0.532192 179.157-0.569087 181.942-0.608018 181.961 0.724533 179.198 0.762987 177.974 0.799882ZM183.275-0.626605 183.664-0.632033 187.279-0.645914 187.285 0.686756 183.682 0.700518 183.293 0.705945ZM188.612-0.651018 191.377-0.661608 192.613-0.661873 192.613 0.670807 191.382 0.671062 188.617 0.681652ZM193.945-0.662153 197.943-0.662994 197.944 0.669686 193.945 0.670527ZM199.276-0.663274 203.274-0.664115 203.274 0.668566 199.276 0.669406ZM204.607-0.664395 208.605-0.665236 208.605 0.667445 204.607 0.668285ZM209.937-0.665516 214.524-0.66648 214.524 0.6662 209.938 0.667164Z" fill="#EE7F00" transform="matrix(-1.00067 0 0 1 360.5 182.378)"/><path d="M-0.667015 93.2718 3.99736 93.2671 3.99871 94.5998-0.665664 94.6045ZM5.33004 93.2657 9.32808 93.2617 9.32943 94.5944 5.33139 94.5984ZM10.6608 93.2603 14.6588 93.2563 14.6601 94.589 10.6621 94.593ZM15.9915 93.2549 19.9895 93.2509 19.9909 94.5835 15.9928 94.5876ZM21.3222 93.2495 25.3202 93.2455 25.3216 94.5781 21.3235 94.5822ZM26.6529 93.2441 30.6509 93.24 30.6523 94.5727 26.6543 94.5768ZM31.9836 93.2387 32.21 93.2385 35.9731 93.1879 35.991 94.5204 32.2113 94.5711 31.985 94.5714ZM37.3056 93.17 37.7236 93.1644 41.2901 93.053 41.3316 94.3851 37.7415 94.4969 37.3235 94.5025ZM42.6056 92.9839 44.1388 92.9007 46.4211 92.7133 46.5527 92.6978 46.7047 94.0218 46.53 94.0415 44.211 94.2314 42.6777 94.3146ZM47.8767 92.5459 48.4703 92.4777 50.2857 92.1994 51.7699 91.9102 52.0243 93.2184 50.4873 93.5168 48.6223 93.8017 48.0287 93.8698ZM53.037 91.6081 53.4514 91.508 54.8014 91.1128 56.151 90.6451 56.741 90.4041 57.2431 91.6386 56.5866 91.9046 55.1752 92.392 53.7643 92.8034 53.35 92.9035ZM57.9291 89.8905 58.844 89.4563 60.189 88.7151 61.345 87.9819 62.0577 89.108 60.8314 89.8827 59.4154 90.6603 58.5005 91.0945ZM62.4051 87.2384 62.6533 87.061 64.004 85.9749 65.3545 84.7508 65.37 84.7337 66.3183 85.67 66.2489 85.7389 64.8385 87.0139 63.4283 88.1451 63.1801 88.3225ZM66.3064 83.7854 66.708 83.3786 68.0645 81.8506 68.8895 80.8254 69.9273 81.6615 69.0608 82.7358 67.6563 84.315 67.2547 84.7217ZM69.691 79.7979 70.7868 78.3084 71.9759 76.5501 73.0797 77.2969 71.8603 79.0981 70.7645 80.5876ZM72.677 75.4465 73.7495 73.7255 74.7201 72.0379 75.8752 72.7025 74.8805 74.4303 73.808 76.1513ZM75.3725 70.8999 77.1779 67.5212 77.2444 67.3877 78.4364 67.9837 78.3533 68.1493 76.5479 71.528ZM77.8404 66.1957 79.0104 63.8555 79.5941 62.6196 80.7991 63.1888 80.2024 64.4515 79.0324 66.7917ZM80.1633 61.4146 81.0746 59.4856 81.8339 57.7963 83.0494 58.3427 82.2796 60.0549 81.3683 61.9839ZM82.3803 56.5808 83.8303 53.3552 84.0154 52.9368 85.2341 53.476 85.0458 53.9016 83.5958 57.1272ZM84.5546 51.718 86.1722 48.0619 87.391 48.6011 85.7733 52.2573ZM86.7115 46.8431 88.3291 43.187 89.5478 43.7262 87.9302 47.3824ZM88.8683 41.9683 90.4859 38.3121 91.7046 38.8513 90.087 42.5075ZM91.0251 37.0933 92.6428 33.4372 93.8615 33.9764 92.2438 37.6326ZM93.182 32.2184 93.2616 32.0384 94.9259 28.5959 96.1256 29.176 94.4803 32.5776 94.4007 32.7577ZM95.5221 27.3853 97.1902 24.147 97.3718 23.8184 98.5376 24.4642 98.3749 24.7573 96.7068 27.9956ZM98.0176 22.6526 99.0404 20.806 100.023 19.1678 101.165 19.8533 100.206 21.4517 99.1834 23.2984ZM100.724 18.0053 102.286 15.6127 102.963 14.6611 104.049 15.4344 103.402 16.3411 101.84 18.7337ZM103.757 13.5555 105.079 11.8557 106.298 10.4305 107.311 11.2971 106.131 12.6742 104.808 14.3739ZM107.227 9.42878 107.883 8.73803 109.289 7.40806 110.196 6.6444 111.053 7.66464 110.204 8.37681 108.849 9.65513 108.194 10.3459ZM111.273 5.7941 112.11 5.17267 113.524 4.25088 114.698 3.58471 115.355 4.74423 114.251 5.36785 112.905 6.24283 112.067 6.86426ZM115.922 2.96517 116.356 2.75288 117.771 2.157 119.185 1.64985 119.745 1.47961 120.131 2.75511 119.634 2.90458 118.287 3.38563 116.942 3.94979 116.508 4.16208ZM121.057 1.10549 122.239 0.809459 123.879 0.476793 125.029 0.292989 125.239 1.60907 124.143 1.78299 122.563 2.10219 121.381 2.39822ZM126.372 0.101948 127.612-0.0490795 129.703-0.238543 130.39-0.281808 130.474 1.04827 129.823 1.08872 127.773 1.27382 126.533 1.42485ZM131.72-0.365062 132.252-0.398348 135.259-0.516464 135.743-0.526791 135.771 0.805591 135.311 0.815192 132.335 0.931729 131.804 0.965015ZM137.075-0.554954 139.182-0.599492 141.081-0.615463 141.092 0.71717 139.21 0.73289 137.103 0.777429ZM142.414-0.626633 144.942-0.64783 146.416-0.65002 146.418 0.682659 144.954 0.684803 142.425 0.706ZM147.749-0.651985 151.747-0.657882 151.749 0.674796 147.751 0.680693ZM153.08-0.659848 156.911-0.665499 157.079-0.665502 157.079 0.667178 156.913 0.66718 153.082 0.672831ZM158.411-0.665517 162.409-0.665563 162.409 0.667117 158.411 0.667163ZM163.742-0.665578 167.74-0.665624 167.74 0.667056 163.742 0.667102ZM169.073-0.66564 173.071-0.665686 173.071 0.666994 169.073 0.66704ZM174.403-0.665701 178.401-0.665747 178.401 0.666933 174.403 0.666979ZM179.734-0.665763 183.732-0.665809 183.732 0.666871 179.734 0.666917ZM185.065-0.665824 189.063-0.66587 189.063 0.66681 185.065 0.666856ZM190.396-0.665886 194.394-0.665932 194.394 0.666749 190.396 0.666795ZM195.726-0.665947 199.724-0.665993 199.724 0.666687 195.726 0.666733ZM201.057-0.666008 205.055-0.666054 205.055 0.666626 201.057 0.666672ZM206.388-0.66607 210.386-0.666116 210.386 0.666564 206.388 0.66661ZM211.718-0.666131 215.716-0.666177 215.717 0.666503 211.718 0.666549ZM217.049-0.666193 221.047-0.666239 221.047 0.666441 217.049 0.666488ZM222.38-0.666254 226.378-0.6663 226.378 0.66638 222.38 0.666426ZM227.711-0.666315 230.513-0.666348 230.513 0.666332 227.711 0.666365Z" fill="#009EE0" transform="matrix(-1.00067 0 0 1 361.5 182.378)"/><text fill="#70AD47" font-family="ZI Akkurat Light,ZI Akkurat Light_MSFontService,sans-serif" font-weight="300" font-size="21" transform="matrix(1 0 0 0.999334 189.34 220)">f</text><g><g><g><g><path d="M1.089 8.98556 1.52478 8.9775 1.91517 8.97131 2.08767 8.98047 2.25109 9.00079 2.49622 9.04582 2.64148 9.06662 2.74134 9.06948 2.82305 9.06074 2.89568 9.04254 2.96831 9.01338 3.05002 8.967 3.14081 8.90009 3.25883 8.79673 3.40409 8.67075 3.47672 8.62292 3.5312 8.59973 3.57659 8.5913 3.62198 8.59463 3.66738 8.61132 3.71277 8.64272 3.75817 8.68983 3.80356 8.75316 3.85803 8.85075 3.92158 8.99305 3.99422 9.18843 4.09408 9.49638 4.24842 9.97425 4.31197 10.1333 4.35737 10.2209 4.39368 10.2711 4.43 10.3009 4.45723 10.3083 4.48447 10.302 4.51171 10.2809 4.53894 10.2447 4.57526 10.1715 4.61157 10.0693 4.65697 9.9001 4.70236 9.68548 4.75683 9.37119 4.82038 8.93508 4.90209 8.2912 5.11998 6.52076 5.17446 6.17642 5.21987 5.95155 5.25616 5.82058 5.2834 5.75445 5.31064 5.71811 5.32879 5.71125 5.34694 5.71889 5.36513 5.7414 5.39232 5.80374 5.41957 5.90107 5.45591 6.08616 5.4922 6.33442 5.53759 6.73175 5.59208 7.32909 5.65561 8.17261 5.73735 9.43405 5.98249 13.3603 6.03692 14.0184 6.08231 14.4471 6.11866 14.6987 6.1459 14.8289 6.17314 14.9059 6.19129 14.9265 6.20039 14.9273 6.21853 14.9099 6.23668 14.8667 6.26392 14.7531 6.29117 14.5806 6.32746 14.2596 6.3638 13.8372 6.40919 13.1734 6.46362 12.1963 6.52721 10.848 6.61799 8.65957 6.7905 4.43912 6.85403 3.14061 6.90852 2.23581 6.95391 1.66068 6.9902 1.33173 7.01745 1.16661 7.04469 1.07404 7.06284 1.05343 7.07193 1.05558 7.09008 1.08488 7.10822 1.14752 7.13547 1.3037 7.16271 1.53354 7.19906 1.95127 7.24444 2.64269 7.29888 3.69644 7.36247 5.18264 7.45325 7.63142 7.65295 13.1427 7.72558 14.78 7.78007 15.7674 7.82546 16.4029 7.8618 16.7769 7.88899 16.9747 7.91624 17.0996 7.93443 17.1418 7.94348 17.1506 7.95258 17.151 7.96163 17.1432 7.97982 17.1027 7.99797 17.0293 8.02521 16.8581 8.05246 16.6152 8.08875 16.1835 8.13414 15.4808 8.18862 14.4225 8.25216 12.9408 8.34294 10.5048 8.55179 4.74889 8.62442 3.12566 8.67886 2.15154 8.72425 1.5285 8.76059 1.16527 8.78784 0.975744 8.81508 0.85925 8.83322 0.822715 8.84227 0.81685 8.85137 0.819273 8.86951 0.84894 8.88771 0.911591 8.9149 1.06683 8.94215 1.29428 8.97849 1.70618 9.02388 2.38592 9.07831 3.42013 9.1419 4.87959 9.22358 7.04318 9.46873 13.7289 9.53226 15.0812 9.58675 16.0023 9.63214 16.576 9.66848 16.8972 9.69572 17.0541 9.71387 17.1179 9.73201 17.1488 9.74111 17.1518 9.75016 17.1465 9.7683 17.1111 9.7865 17.0428 9.81375 16.8792 9.84094 16.6436 9.87728 16.2212 9.92267 15.5293 9.97716 14.4823 10.0407 13.0111 10.1315 10.5839 10.3494 4.59644 10.4129 3.1821 10.4674 2.19602 10.5128 1.56176 10.5491 1.18894 10.5763 0.99196 10.6036 0.86786 10.6218 0.826209 10.6308 0.817781 10.6399 0.817635 10.6489 0.825772 10.6671 0.866841 10.6853 0.940826 10.7125 1.11283 10.7398 1.35661 10.7761 1.78939 10.8215 2.49329 10.8759 3.55287 10.9395 5.03576 11.0303 7.47279 11.2391 13.2275 11.3117 14.8492 11.3662 15.822 11.4116 16.4437 11.4479 16.8059 11.4752 16.9946 11.5024 17.1102 11.5205 17.1462 11.5296 17.1517 11.5387 17.149 11.5568 17.1188 11.575 17.0555 11.6022 16.8995 11.6295 16.6712 11.6658 16.2582 11.7112 15.5772 11.7656 14.5417 11.8292 13.081 11.9109 10.9164 12.1469 4.44612 12.2105 3.05717 12.265 2.09785 12.3104 1.48866 12.3467 1.13725 12.3739 0.956902 12.4012 0.849756 12.4193 0.819507 12.4284 0.816798 12.4375 0.822367 12.4556 0.858319 12.4738 0.927219 12.5011 1.09171 12.5283 1.32817 12.5646 1.7516 12.61 2.4447 12.6645 3.49295 12.728 4.96541 12.8188 7.39366 13.0367 13.3798 13.1002 14.7929 13.1547 15.7776 13.2001 16.4106 13.2364 16.7823 13.2636 16.9784 13.2909 17.1017 13.3091 17.1427 13.3181 17.1509 13.3272 17.1507 13.3363 17.1423 13.3545 17.1007 13.3726 17.0261 13.3999 16.8532 13.4361 16.5115 13.4725 16.0478 13.5179 15.3083 13.5724 14.2117 13.6359 12.6949 13.7267 10.2304 13.9173 4.95744 13.99 3.29665 14.0445 2.28697 14.0898 1.63046 14.1261 1.23856 14.1625 0.972162 14.1897 0.857399 14.2079 0.822029 14.2169 0.816751 14.226 0.819757 14.2442 0.850588 14.2623 0.914398 14.2896 1.07136 14.3168 1.30047 14.3531 1.71451 14.3985 2.39674 14.453 3.43356 14.5165 4.89545 14.5982 7.06096 14.8343 13.53 14.8979 14.9177 14.9523 15.8756 14.9977 16.4835 15.034 16.8338 15.0613 17.0133 15.0885 17.1196 15.1067 17.1492 15.1158 17.1517 15.1248 17.1458 15.143 17.1093 15.1611 17.0398 15.1884 16.8745 15.2156 16.6372 15.2519 16.2126 15.2973 15.5183 15.3518 14.4688 15.4153 12.9952 15.5061 10.5659 15.724 4.581 15.7876 3.16921 15.842 2.18585 15.8874 1.55414 15.9238 1.18349 15.951 0.988201 15.9782 0.865832 15.9964 0.825346 16.0055 0.8175 16.0145 0.817937 16.0236 0.826656 16.0418 0.868889 16.0599 0.944034 16.0872 1.11774 16.1235 1.46058 16.1598 1.92532 16.2052 2.66603 16.2596 3.76393 16.3232 5.28174 16.414 7.74721 16.6047 13.0137 16.6773 14.6516 16.7318 15.6291 16.7772 16.2485 16.8135 16.6044 16.8407 16.7863 16.868 16.8936 16.8861 16.9234 16.8952 16.9259 16.9042 16.9199 16.9224 16.8833 16.9406 16.8138 16.9678 16.6492 16.9951 16.4141 17.0314 15.9966 17.0768 15.3201 17.1312 14.3113 17.2039 12.7071 17.3219 9.76877 17.4399 6.90941 17.5126 5.41349 17.567 4.49528 17.6124 3.88768 17.6578 3.43581 17.6941 3.19099 17.7214 3.07628 17.7395 3.03252 17.7576 3.01466 17.7667 3.01533 17.7849 3.03562 17.8031 3.0807 17.8303 3.19338 17.8575 3.3578 17.8939 3.65216 17.9393 4.1288 17.9937 4.83484 18.0664 5.94308 18.3387 10.3043 18.4022 11.0658 18.4567 11.5803 18.5021 11.9032 18.5385 12.0899 18.5748 12.2132 18.602 12.2648 18.6201 12.2801 18.6383 12.2807 18.6565 12.2669 18.6746 12.2392 18.7019 12.1729 18.7382 12.0413 18.7836 11.815 18.838 11.4684 18.9107 10.9141 19.1921 8.65219 19.2557 8.27607 19.3101 8.02131 19.3555 7.85951 19.3919 7.76348 19.4282 7.69662 19.4554 7.66506 19.4826 7.64874 19.5099 7.64692 19.5371 7.65872 19.5644 7.68326 19.6007 7.73385 19.6461 7.82218 19.7005 7.95773 19.7732 8.17282 20.0183 8.92894 20.0819 9.08138 20.1454 9.20356 20.1999 9.28265 20.2453 9.33037 20.2907 9.3623 20.336 9.37925 20.3814 9.38273 20.4268 9.37426 20.4813 9.35081 20.5448 9.30921 20.6356 9.2331 20.8626 9.03391 20.9443 8.97911 21.026 8.9384 21.0987 8.91438 21.1804 8.90014 21.2712 8.89759 21.3801 8.90794 21.5435 8.93731 21.7796 8.97807 21.943 8.99352 22.1246 8.99825 22.4151 8.99175 22.8691 8.98291 22.8691 8.98291" stroke="#70AD47" stroke-width="0.234985" stroke-linecap="square" stroke-linejoin="round" fill="none" transform="matrix(4.29919 0 0 1 761 158.904)"/></g></g></g></g></g></svg>