<?xml version="1.0" encoding="UTF-8" standalone="no"?>
<svg
   id="Ebene_1"
   viewBox="0 0 2037.41 668.49005"
   version="1.1"
   sodipodi:docname="labone_q_app_library_workflow_final.svg"
   width="2037.41"
   height="668.49005"
   inkscape:version="1.3.2 (091e20e, 2023-11-25)"
   xmlns:inkscape="http://www.inkscape.org/namespaces/inkscape"
   xmlns:sodipodi="http://sodipodi.sourceforge.net/DTD/sodipodi-0.dtd"
   xmlns="http://www.w3.org/2000/svg"
   xmlns:svg="http://www.w3.org/2000/svg">
  <sodipodi:namedview
     id="namedview179"
     pagecolor="#ffffff"
     bordercolor="#000000"
     borderopacity="0.25"
     inkscape:showpageshadow="2"
     inkscape:pageopacity="0.0"
     inkscape:pagecheckerboard="0"
     inkscape:deskcolor="#d1d1d1"
     inkscape:zoom="0.49189674"
     inkscape:cx="1016.4735"
     inkscape:cy="1.0164735"
     inkscape:window-width="1776"
     inkscape:window-height="1117"
     inkscape:window-x="1110"
     inkscape:window-y="238"
     inkscape:window-maximized="0"
     inkscape:current-layer="Ebene_1" />
  <defs
     id="defs1">
    <style
       id="style1">
      .cls-1, .cls-2, .cls-3, .cls-4 {
        fill: none;
        stroke-width: 2px;
      }

      .cls-1, .cls-2, .cls-4 {
        stroke-linejoin: round;
      }

      .cls-1, .cls-3 {
        stroke: #000;
      }

      .cls-1, .cls-4 {
        stroke-linecap: round;
      }

      .cls-5 {
        fill: #1d1d1b;
      }

      .cls-2 {
        stroke: #1d1d1b;
      }

      .cls-6 {
        fill: #12100b;
      }

      .cls-3 {
        stroke-miterlimit: 10;
      }

      .cls-7 {
        fill: #007ec4;
      }

      .cls-4 {
        stroke: #007ec4;
      }
    </style>
  </defs>
  <g
     id="g6"
     transform="translate(0,-688.51)">
    <path
       class="cls-7"
       d="m 914.36,813.52 c -1.7,-1.7 -2.3,-3.81 -2.3,-6.53 0,-2.72 0.58,-4.9 2.3,-6.56 1.15,-1.12 2.78,-1.89 4.83,-1.89 3.39,0 5.98,2.08 6.37,5.41 h -1.7 c -0.35,-2.21 -2.18,-3.84 -4.67,-3.84 -1.57,0 -2.82,0.51 -3.68,1.38 -1.5,1.5 -1.82,3.39 -1.82,5.5 0,2.11 0.35,3.97 1.86,5.47 0.86,0.86 2.11,1.38 3.68,1.38 2.5,0 4.32,-1.63 4.67,-3.84 h 1.66 c -0.42,3.29 -3.01,5.41 -6.37,5.41 -2.05,0 -3.68,-0.74 -4.83,-1.89 z"
       id="path1" />
    <path
       class="cls-7"
       d="m 930.16,798.99 h 1.47 l 0.13,3.3 c 0.7,-2.24 2.88,-3.46 5.15,-3.46 0.48,0 1.02,0 1.5,0.16 v 1.54 c -0.51,-0.13 -1.06,-0.16 -1.57,-0.16 -3.71,0 -5.09,3.07 -5.09,6.62 v 8 h -1.6 v -16 z"
       id="path2" />
    <path
       class="cls-7"
       d="m 942.58,813.2 c -1.31,-1.54 -2.11,-3.71 -2.11,-6.14 0,-2.02 0.32,-4 1.6,-5.7 1.38,-1.82 3.26,-2.82 5.6,-2.82 4.42,0 7.07,3.52 7.07,7.78 0,0.38 0,0.61 -0.03,1.06 h -12.64 c 0.06,3.55 2.14,6.53 5.73,6.53 2.53,0 4.51,-1.66 4.9,-3.71 h 1.66 c -0.48,3.01 -3.36,5.25 -6.56,5.25 -2.3,0 -4.16,-1.02 -5.22,-2.24 z m 10.49,-7.27 c -0.06,-3.04 -1.95,-5.89 -5.41,-5.89 -3.46,0 -5.5,2.75 -5.57,5.89 z"
       id="path3" />
    <path
       class="cls-7"
       d="m 958.16,810.54 c 0,-2.85 2.18,-4.61 5.38,-4.83 l 5.89,-0.42 v -1.41 c 0,-2.69 -1.95,-3.84 -4.42,-3.84 -2.47,0 -4.38,1.15 -4.54,3.55 h -1.6 c 0.22,-3.29 2.88,-5.06 6.08,-5.06 3.65,0 6.08,1.79 6.08,5.47 v 7.9 c 0,1.09 0.16,1.73 1.25,1.73 0.13,0 0.32,0 0.45,-0.03 v 1.41 c -0.22,0.06 -0.51,0.1 -0.77,0.1 -1.98,0 -2.53,-1.5 -2.53,-3.2 -0.86,2.27 -3.3,3.52 -5.76,3.52 -3.1,0 -5.5,-1.89 -5.5,-4.9 z m 11.27,-2.94 v -0.83 l -5.73,0.35 c -2.46,0.16 -3.9,1.5 -3.9,3.39 0,2.24 1.73,3.46 4,3.46 4.03,0 5.63,-3.26 5.63,-6.37 z"
       id="path4" />
    <path
       class="cls-7"
       d="m 978.42,810.83 v -10.37 h -3.78 v -1.47 h 3.78 v -4.42 l 1.6,-0.38 v 4.8 h 5.02 v 1.47 h -5.02 v 10.14 c 0,1.76 0.54,3.1 2.88,3.1 0.86,0 1.54,-0.1 2.37,-0.29 v 1.41 c -0.8,0.26 -1.6,0.38 -2.5,0.38 -3.14,0 -4.35,-1.82 -4.35,-4.38 z"
       id="path5" />
    <path
       class="cls-7"
       d="m 989.65,813.2 c -1.31,-1.54 -2.11,-3.71 -2.11,-6.14 0,-2.02 0.32,-4 1.6,-5.7 1.38,-1.82 3.26,-2.82 5.6,-2.82 4.42,0 7.07,3.52 7.07,7.78 0,0.38 0,0.61 -0.03,1.06 h -12.64 c 0.06,3.55 2.14,6.53 5.73,6.53 2.53,0 4.51,-1.66 4.9,-3.71 h 1.66 c -0.48,3.01 -3.36,5.25 -6.56,5.25 -2.3,0 -4.16,-1.02 -5.22,-2.24 z m 10.5,-7.27 c -0.06,-3.04 -1.95,-5.89 -5.41,-5.89 -3.46,0 -5.5,2.75 -5.57,5.89 z"
       id="path6" />
  </g>
  <g
     id="g13"
     transform="translate(0,-688.51)">
    <path
       class="cls-7"
       d="m 914.36,910.58 c -1.7,-1.7 -2.3,-3.81 -2.3,-6.53 0,-2.72 0.58,-4.9 2.3,-6.56 1.15,-1.12 2.78,-1.89 4.83,-1.89 3.39,0 5.98,2.08 6.37,5.41 h -1.7 c -0.35,-2.21 -2.18,-3.84 -4.67,-3.84 -1.57,0 -2.82,0.51 -3.68,1.38 -1.5,1.5 -1.82,3.39 -1.82,5.5 0,2.11 0.35,3.97 1.86,5.47 0.86,0.86 2.11,1.38 3.68,1.38 2.5,0 4.32,-1.63 4.67,-3.84 h 1.66 c -0.42,3.29 -3.01,5.41 -6.37,5.41 -2.05,0 -3.68,-0.74 -4.83,-1.89 z"
       id="path7" />
    <path
       class="cls-7"
       d="m 931.54,910.62 c -1.76,-1.7 -2.43,-3.81 -2.43,-6.56 0,-2.75 0.67,-4.86 2.43,-6.56 1.15,-1.09 2.75,-1.89 4.8,-1.89 2.05,0 3.65,0.8 4.8,1.89 1.76,1.7 2.43,3.84 2.43,6.56 0,2.72 -0.67,4.86 -2.43,6.56 -1.15,1.09 -2.75,1.89 -4.8,1.89 -2.05,0 -3.65,-0.8 -4.8,-1.89 z m 8.48,-1.09 c 1.5,-1.47 1.92,-3.36 1.92,-5.47 0,-2.11 -0.42,-4 -1.92,-5.47 -0.86,-0.86 -2.08,-1.41 -3.68,-1.41 -1.6,0 -2.82,0.54 -3.68,1.41 -1.5,1.47 -1.92,3.39 -1.92,5.47 0,2.08 0.42,4 1.92,5.47 0.86,0.86 2.08,1.41 3.68,1.41 1.6,0 2.82,-0.54 3.68,-1.41 z"
       id="path8" />
    <path
       class="cls-7"
       d="m 948.47,896.06 h 1.47 l 0.13,3.14 c 0.74,-2.14 2.69,-3.58 5.02,-3.58 2.75,0 4.35,1.41 4.99,3.46 0.86,-1.98 2.59,-3.46 5.28,-3.46 3.74,0 5.31,2.46 5.31,5.89 v 10.56 h -1.6 V 901.7 c 0,-2.82 -1.09,-4.58 -3.87,-4.58 -3.01,0 -4.77,2.66 -4.77,5.89 v 9.06 h -1.66 V 901.7 c 0,-2.82 -1.22,-4.58 -3.87,-4.58 -3.07,0 -4.83,2.88 -4.83,6.3 v 8.64 h -1.6 z"
       id="path9" />
    <path
       class="cls-7"
       d="m 976.43,896.06 h 1.47 l 0.13,3.04 c 0.9,-2.11 3.26,-3.49 5.47,-3.49 1.89,0 3.3,0.61 4.38,1.54 1.86,1.57 2.69,4.03 2.69,6.88 0,2.85 -0.8,5.18 -2.53,6.78 -1.09,1.02 -2.59,1.7 -4.51,1.7 -2.34,0 -4.61,-1.31 -5.5,-3.36 v 9.28 h -1.6 z m 10.69,13.44 c 1.28,-1.38 1.82,-3.39 1.82,-5.44 0,-2.27 -0.64,-4.42 -2.18,-5.73 -0.8,-0.7 -1.89,-1.15 -3.3,-1.15 -1.41,0 -2.53,0.54 -3.36,1.31 -1.47,1.41 -2.11,3.36 -2.11,5.57 0,2.37 0.58,4.22 2.08,5.6 0.83,0.77 1.95,1.28 3.46,1.28 1.51,0 2.75,-0.54 3.58,-1.44 z"
       id="path10" />
    <path
       class="cls-7"
       d="m 997.36,889.37 v 2.37 h -2.18 v -2.37 z m -0.25,6.69 v 16 h -1.63 v -16 z"
       id="path11" />
    <path
       class="cls-7"
       d="m 1002.96,908.86 v -19.97 h 1.6 v 19.9 c 0,1.09 0.32,1.92 1.66,1.92 0.64,0 0.93,-0.03 1.38,-0.1 v 1.44 c -0.35,0.1 -0.77,0.19 -1.44,0.19 -2.05,0 -3.2,-1.06 -3.2,-3.39 z"
       id="path12" />
    <path
       class="cls-7"
       d="m 1012.15,910.26 c -1.31,-1.54 -2.11,-3.71 -2.11,-6.14 0,-2.02 0.32,-4 1.6,-5.7 1.38,-1.82 3.26,-2.82 5.6,-2.82 4.42,0 7.07,3.52 7.07,7.78 0,0.38 0,0.61 -0.03,1.06 h -12.64 c 0.06,3.55 2.14,6.53 5.73,6.53 2.53,0 4.51,-1.66 4.9,-3.71 h 1.66 c -0.48,3.01 -3.36,5.25 -6.56,5.25 -2.3,0 -4.16,-1.02 -5.22,-2.24 z m 10.49,-7.26 c -0.06,-3.04 -1.95,-5.89 -5.41,-5.89 -3.46,0 -5.5,2.75 -5.57,5.89 z"
       id="path13" />
  </g>
  <rect
     class="cls-4"
     x="890"
     y="184.67"
     width="235.95"
     height="56.950001"
     id="rect13" />
  <g
     id="g16"
     transform="translate(0,-688.51)">
    <path
       class="cls-7"
       d="m 913.11,993.69 h 1.47 l 0.13,3.3 c 0.7,-2.24 2.88,-3.46 5.15,-3.46 0.48,0 1.02,0 1.5,0.16 v 1.54 c -0.51,-0.13 -1.06,-0.16 -1.57,-0.16 -3.71,0 -5.09,3.07 -5.09,6.62 v 8 h -1.6 v -16 z"
       id="path14" />
    <path
       class="cls-7"
       d="M 925.01,1004.03 V 993.7 h 1.6 v 10.24 c 0,2.78 1.38,4.64 4.19,4.64 3.71,0 5.25,-2.98 5.25,-6.56 v -8.32 h 1.6 v 16 h -1.47 l -0.13,-3.01 c -0.9,2.11 -2.94,3.46 -5.34,3.46 -3.62,0 -5.7,-2.53 -5.7,-6.11 z"
       id="path15" />
    <path
       class="cls-7"
       d="m 943.6,993.69 h 1.47 l 0.13,3.07 c 0.83,-2.21 3.33,-3.52 5.57,-3.52 3.65,0 5.66,2.43 5.66,5.98 v 10.46 h -1.6 v -10.3 c 0,-2.69 -1.38,-4.58 -4.22,-4.58 -3.55,0 -5.41,2.94 -5.41,6.5 v 8.38 h -1.6 v -16 z"
       id="path16" />
  </g>
  <rect
     class="cls-4"
     x="890"
     y="282.29999"
     width="235.95"
     height="56.950001"
     id="rect16" />
  <g
     id="g22"
     transform="translate(0,-688.51)">
    <path
       class="cls-7"
       d="m 912.92,1101.66 v -10.33 h 1.6 v 10.24 c 0,2.78 1.38,4.64 4.19,4.64 3.71,0 5.25,-2.98 5.25,-6.56 v -8.32 h 1.6 v 16 h -1.47 l -0.13,-3.01 c -0.9,2.11 -2.94,3.46 -5.34,3.46 -3.62,0 -5.7,-2.53 -5.7,-6.11 z"
       id="path17" />
    <path
       class="cls-7"
       d="m 931.51,1091.32 h 1.47 l 0.13,3.04 c 0.9,-2.11 3.26,-3.49 5.47,-3.49 1.89,0 3.3,0.61 4.38,1.54 1.86,1.57 2.69,4.03 2.69,6.88 0,2.85 -0.8,5.18 -2.53,6.78 -1.09,1.02 -2.59,1.7 -4.51,1.7 -2.34,0 -4.61,-1.31 -5.5,-3.36 v 9.28 h -1.6 z m 10.68,13.44 c 1.28,-1.38 1.82,-3.39 1.82,-5.44 0,-2.27 -0.64,-4.42 -2.18,-5.73 -0.8,-0.7 -1.89,-1.15 -3.3,-1.15 -1.41,0 -2.53,0.54 -3.36,1.31 -1.47,1.41 -2.11,3.36 -2.11,5.57 0,2.37 0.58,4.22 2.08,5.6 0.83,0.77 1.95,1.28 3.46,1.28 1.51,0 2.75,-0.54 3.58,-1.44 z"
       id="path18" />
    <path
       class="cls-7"
       d="m 952.15,1106.23 c -1.86,-1.57 -2.69,-4.13 -2.69,-6.88 0,-2.75 0.83,-5.09 2.56,-6.72 1.12,-1.06 2.69,-1.76 4.67,-1.76 2.59,0 4.58,1.44 5.31,3.23 v -9.95 h 1.63 v 23.17 h -1.5 l -0.13,-3.04 c -0.9,2.14 -3.23,3.49 -5.44,3.49 -1.89,0 -3.33,-0.61 -4.42,-1.54 z m 7.8,-1.34 c 1.5,-1.38 2.08,-3.36 2.08,-5.57 0,-2.37 -0.54,-4.22 -2.05,-5.6 -0.83,-0.77 -1.95,-1.28 -3.46,-1.28 -1.51,0 -2.72,0.54 -3.58,1.44 -1.28,1.34 -1.86,3.39 -1.86,5.44 0,2.27 0.64,4.45 2.18,5.73 0.83,0.7 1.95,1.15 3.33,1.15 1.38,0 2.53,-0.54 3.36,-1.31 z"
       id="path19" />
    <path
       class="cls-7"
       d="m 968.27,1102.87 c 0,-2.85 2.18,-4.61 5.38,-4.83 l 5.89,-0.42 v -1.41 c 0,-2.69 -1.95,-3.84 -4.42,-3.84 -2.47,0 -4.38,1.15 -4.54,3.55 h -1.6 c 0.22,-3.29 2.88,-5.06 6.08,-5.06 3.65,0 6.08,1.79 6.08,5.47 v 7.9 c 0,1.09 0.16,1.73 1.25,1.73 0.13,0 0.32,0 0.45,-0.03 v 1.41 c -0.22,0.06 -0.51,0.1 -0.77,0.1 -1.98,0 -2.53,-1.5 -2.53,-3.2 -0.86,2.27 -3.3,3.52 -5.76,3.52 -3.1,0 -5.5,-1.89 -5.5,-4.9 z m 11.27,-2.94 v -0.83 l -5.73,0.35 c -2.46,0.16 -3.9,1.5 -3.9,3.39 0,2.24 1.73,3.46 4,3.46 4.03,0 5.63,-3.26 5.63,-6.37 z"
       id="path20" />
    <path
       class="cls-7"
       d="m 988.53,1103.16 v -10.37 h -3.78 v -1.47 h 3.78 v -4.42 l 1.6,-0.38 v 4.8 h 5.02 v 1.47 h -5.02 v 10.14 c 0,1.76 0.54,3.1 2.88,3.1 0.86,0 1.54,-0.1 2.37,-0.29 v 1.41 c -0.8,0.26 -1.6,0.38 -2.5,0.38 -3.14,0 -4.35,-1.82 -4.35,-4.38 z"
       id="path21" />
    <path
       class="cls-7"
       d="m 999.76,1105.53 c -1.31,-1.54 -2.11,-3.71 -2.11,-6.14 0,-2.02 0.32,-4 1.6,-5.7 1.38,-1.82 3.26,-2.82 5.6,-2.82 4.42,0 7.07,3.52 7.07,7.78 0,0.38 0,0.61 -0.03,1.06 h -12.64 c 0.06,3.55 2.14,6.53 5.73,6.53 2.53,0 4.51,-1.66 4.9,-3.71 h 1.66 c -0.48,3.01 -3.36,5.25 -6.56,5.25 -2.3,0 -4.16,-1.02 -5.22,-2.24 z m 10.5,-7.26 c -0.06,-3.04 -1.95,-5.89 -5.41,-5.89 -3.46,0 -5.5,2.75 -5.57,5.89 z"
       id="path22" />
  </g>
  <rect
     class="cls-4"
     x="890"
     y="379.93994"
     width="235.95"
     height="56.950001"
     id="rect22" />
  <rect
     class="cls-1"
     x="860.12"
     y="1.0000098"
     width="295.70001"
     height="495.64001"
     id="rect23" />
  <g
     id="g23"
     transform="translate(0,-688.51)">
    <line
       class="cls-1"
       x1="1007.97"
       y1="930.13"
       x2="1007.97"
       y2="956.46002"
       id="line23" />
    <polygon
       points="1017.95,953.54 998,953.54 1007.97,970.81 "
       id="polygon23" />
  </g>
  <g
     id="g24"
     transform="translate(0,-688.51)">
    <line
       class="cls-1"
       x1="1007.97"
       y1="833.07001"
       x2="1007.97"
       y2="859.40002"
       id="line24" />
    <polygon
       points="1017.95,856.48 998,856.48 1007.97,873.75 "
       id="polygon24" />
  </g>
  <line
     class="cls-1"
     x1="1007.97"
     y1="553.58997"
     x2="148.85001"
     y2="553.58997"
     id="line25" />
  <g
     id="g26"
     transform="translate(0,-688.51)">
    <line
       class="cls-1"
       x1="1007.97"
       y1="1027.77"
       x2="1007.97"
       y2="1054.09"
       id="line26" />
    <polygon
       points="1017.95,1051.18 998,1051.18 1007.97,1068.45 "
       id="polygon26" />
  </g>
  <g
     id="g35"
     transform="translate(0,-688.51)">
    <path
       d="m 907.41,707.41 v 1.6 h -12.83 v 8.48 h 11.29 v 1.6 h -11.29 v 9.41 h 12.83 v 1.6 h -14.53 v -22.69 z"
       id="path26" />
    <path
       d="m 910.19,714.1 h 1.95 l 4.83,6.78 4.86,-6.78 h 1.89 l -5.7,7.81 5.76,8.19 h -1.95 l -4.9,-7.07 -4.93,7.07 h -1.92 l 5.76,-8.19 -5.66,-7.81 z"
       id="path27" />
    <path
       d="m 927.7,714.1 h 1.47 l 0.13,3.04 c 0.9,-2.11 3.26,-3.49 5.47,-3.49 1.89,0 3.3,0.61 4.38,1.54 1.86,1.57 2.69,4.03 2.69,6.88 0,2.85 -0.8,5.18 -2.53,6.78 -1.09,1.02 -2.59,1.7 -4.51,1.7 -2.34,0 -4.61,-1.31 -5.5,-3.36 v 9.28 h -1.6 z m 10.68,13.44 c 1.28,-1.38 1.82,-3.39 1.82,-5.44 0,-2.27 -0.64,-4.42 -2.18,-5.73 -0.8,-0.7 -1.89,-1.15 -3.3,-1.15 -1.41,0 -2.53,0.54 -3.36,1.31 -1.47,1.41 -2.11,3.36 -2.11,5.57 0,2.37 0.58,4.22 2.08,5.6 0.83,0.77 1.95,1.28 3.46,1.28 1.51,0 2.75,-0.54 3.58,-1.44 z"
       id="path28" />
    <path
       d="m 947.76,728.31 c -1.31,-1.54 -2.11,-3.71 -2.11,-6.14 0,-2.02 0.32,-4 1.6,-5.7 1.38,-1.82 3.26,-2.82 5.6,-2.82 4.42,0 7.07,3.52 7.07,7.78 0,0.38 0,0.61 -0.03,1.06 h -12.64 c 0.06,3.55 2.14,6.53 5.73,6.53 2.53,0 4.51,-1.66 4.9,-3.71 h 1.66 c -0.48,3.01 -3.36,5.25 -6.56,5.25 -2.3,0 -4.16,-1.02 -5.22,-2.24 z m 10.5,-7.27 c -0.06,-3.04 -1.95,-5.89 -5.41,-5.89 -3.46,0 -5.5,2.75 -5.57,5.89 z"
       id="path29" />
    <path
       d="m 964.66,714.1 h 1.47 l 0.13,3.3 c 0.7,-2.24 2.88,-3.46 5.15,-3.46 0.48,0 1.02,0 1.5,0.16 v 1.54 c -0.51,-0.13 -1.06,-0.16 -1.57,-0.16 -3.71,0 -5.09,3.07 -5.09,6.62 v 8 h -1.6 v -16 z"
       id="path30" />
    <path
       d="m 978.64,707.41 v 2.37 h -2.18 v -2.37 z m -0.26,6.69 v 16 h -1.63 v -16 z"
       id="path31" />
    <path
       d="m 984.3,714.1 h 1.47 l 0.13,3.14 c 0.74,-2.14 2.69,-3.58 5.02,-3.58 2.75,0 4.35,1.41 4.99,3.46 0.86,-1.98 2.59,-3.46 5.28,-3.46 3.74,0 5.31,2.46 5.31,5.89 v 10.56 h -1.6 v -10.37 c 0,-2.82 -1.09,-4.58 -3.87,-4.58 -3.01,0 -4.77,2.66 -4.77,5.89 v 9.06 h -1.66 v -10.37 c 0,-2.82 -1.22,-4.58 -3.87,-4.58 -3.07,0 -4.83,2.88 -4.83,6.3 v 8.64 h -1.6 z"
       id="path32" />
    <path
       d="m 1013.3,728.31 c -1.31,-1.54 -2.11,-3.71 -2.11,-6.14 0,-2.02 0.32,-4 1.6,-5.7 1.38,-1.82 3.26,-2.82 5.6,-2.82 4.42,0 7.07,3.52 7.07,7.78 0,0.38 0,0.61 -0.03,1.06 h -12.64 c 0.06,3.55 2.14,6.53 5.73,6.53 2.53,0 4.51,-1.66 4.9,-3.71 h 1.66 c -0.48,3.01 -3.36,5.25 -6.56,5.25 -2.3,0 -4.16,-1.02 -5.22,-2.24 z m 10.49,-7.27 c -0.06,-3.04 -1.95,-5.89 -5.41,-5.89 -3.46,0 -5.5,2.75 -5.57,5.89 z"
       id="path33" />
    <path
       d="m 1030.19,714.1 h 1.47 l 0.13,3.07 c 0.83,-2.21 3.33,-3.52 5.57,-3.52 3.65,0 5.66,2.43 5.66,5.98 v 10.46 h -1.6 v -10.3 c 0,-2.69 -1.38,-4.58 -4.22,-4.58 -3.55,0 -5.41,2.94 -5.41,6.5 v 8.38 h -1.6 v -16 z"
       id="path34" />
    <path
       d="m 1050.13,725.94 v -10.37 h -3.78 v -1.47 h 3.78 v -4.42 l 1.6,-0.38 v 4.8 h 5.02 v 1.47 h -5.02 v 10.14 c 0,1.76 0.54,3.1 2.88,3.1 0.86,0 1.54,-0.1 2.37,-0.29 v 1.41 c -0.8,0.26 -1.6,0.38 -2.5,0.38 -3.14,0 -4.35,-1.82 -4.35,-4.38 z"
       id="path35" />
  </g>
  <rect
     class="cls-4"
     x="890"
     y="87.609993"
     width="235.95"
     height="56.950001"
     id="rect35" />
  <g
     id="g48"
     transform="translate(0,-688.51)">
    <path
       d="m 898.14,1315.24 v 1.6 h -12.83 v 8.48 h 11.29 v 1.6 h -11.29 v 9.41 h 12.83 v 1.6 h -14.53 v -22.69 z"
       id="path36" />
    <path
       d="m 900.92,1321.93 h 1.95 l 4.83,6.78 4.86,-6.78 h 1.89 l -5.7,7.81 5.76,8.19 h -1.95 l -4.9,-7.07 -4.93,7.07 h -1.92 l 5.76,-8.19 -5.66,-7.81 z"
       id="path37" />
    <path
       d="m 918.43,1321.93 h 1.47 l 0.13,3.04 c 0.9,-2.11 3.26,-3.49 5.47,-3.49 1.89,0 3.3,0.61 4.38,1.54 1.86,1.57 2.69,4.03 2.69,6.88 0,2.85 -0.8,5.18 -2.53,6.78 -1.09,1.02 -2.59,1.7 -4.51,1.7 -2.34,0 -4.61,-1.31 -5.5,-3.36 v 9.28 h -1.6 z m 10.69,13.44 c 1.28,-1.38 1.82,-3.39 1.82,-5.44 0,-2.27 -0.64,-4.42 -2.18,-5.73 -0.8,-0.7 -1.89,-1.15 -3.3,-1.15 -1.41,0 -2.53,0.54 -3.36,1.31 -1.47,1.41 -2.11,3.36 -2.11,5.57 0,2.37 0.58,4.22 2.08,5.6 0.83,0.77 1.95,1.28 3.46,1.28 1.51,0 2.75,-0.54 3.58,-1.44 z"
       id="path38" />
    <path
       d="m 938.49,1336.13 c -1.31,-1.54 -2.11,-3.71 -2.11,-6.14 0,-2.02 0.32,-4 1.6,-5.7 1.38,-1.82 3.26,-2.82 5.6,-2.82 4.42,0 7.07,3.52 7.07,7.78 0,0.38 0,0.61 -0.03,1.06 h -12.64 c 0.06,3.55 2.14,6.53 5.73,6.53 2.53,0 4.51,-1.66 4.9,-3.71 h 1.66 c -0.48,3.01 -3.36,5.25 -6.56,5.25 -2.3,0 -4.16,-1.02 -5.22,-2.24 z m 10.5,-7.26 c -0.06,-3.04 -1.95,-5.89 -5.41,-5.89 -3.46,0 -5.5,2.75 -5.57,5.89 z"
       id="path39" />
    <path
       d="m 955.39,1321.93 h 1.47 l 0.13,3.3 c 0.7,-2.24 2.88,-3.46 5.15,-3.46 0.48,0 1.02,0 1.5,0.16 v 1.54 c -0.51,-0.13 -1.06,-0.16 -1.57,-0.16 -3.71,0 -5.09,3.07 -5.09,6.62 v 8 h -1.6 v -16 z"
       id="path40" />
    <path
       d="m 969.37,1315.24 v 2.37 h -2.18 v -2.37 z m -0.26,6.69 v 16 h -1.63 v -16 z"
       id="path41" />
    <path
       d="m 975.03,1321.93 h 1.47 l 0.13,3.14 c 0.74,-2.14 2.69,-3.58 5.02,-3.58 2.75,0 4.35,1.41 4.99,3.46 0.86,-1.98 2.59,-3.46 5.28,-3.46 3.74,0 5.31,2.46 5.31,5.89 v 10.56 h -1.6 v -10.37 c 0,-2.82 -1.09,-4.58 -3.87,-4.58 -3.01,0 -4.77,2.66 -4.77,5.89 v 9.06 h -1.66 v -10.37 c 0,-2.82 -1.22,-4.58 -3.87,-4.58 -3.07,0 -4.83,2.88 -4.83,6.3 v 8.64 h -1.6 z"
       id="path42" />
    <path
       d="m 1004.03,1336.13 c -1.31,-1.54 -2.11,-3.71 -2.11,-6.14 0,-2.02 0.32,-4 1.6,-5.7 1.38,-1.82 3.26,-2.82 5.6,-2.82 4.42,0 7.07,3.52 7.07,7.78 0,0.38 0,0.61 -0.03,1.06 h -12.64 c 0.06,3.55 2.14,6.53 5.73,6.53 2.53,0 4.51,-1.66 4.9,-3.71 h 1.66 c -0.48,3.01 -3.36,5.25 -6.56,5.25 -2.3,0 -4.16,-1.02 -5.22,-2.24 z m 10.49,-7.26 c -0.06,-3.04 -1.95,-5.89 -5.41,-5.89 -3.46,0 -5.5,2.75 -5.57,5.89 z"
       id="path43" />
    <path
       d="m 1020.92,1321.93 h 1.47 l 0.13,3.07 c 0.83,-2.21 3.33,-3.52 5.57,-3.52 3.65,0 5.66,2.43 5.66,5.98 v 10.46 h -1.6 v -10.3 c 0,-2.69 -1.38,-4.58 -4.22,-4.58 -3.55,0 -5.41,2.94 -5.41,6.5 v 8.38 h -1.6 v -16 z"
       id="path44" />
    <path
       d="m 1040.86,1333.77 v -10.37 h -3.78 v -1.47 h 3.78 v -4.42 l 1.6,-0.38 v 4.8 h 5.02 v 1.47 h -5.02 v 10.14 c 0,1.76 0.54,3.1 2.88,3.1 0.86,0 1.54,-0.1 2.37,-0.29 v 1.41 c -0.8,0.26 -1.6,0.38 -2.5,0.38 -3.14,0 -4.35,-1.82 -4.35,-4.38 z"
       id="path45" />
    <path
       d="m 1061.11,1315.24 v 21.12 h 11.78 v 1.57 h -13.44 v -22.69 z"
       id="path46" />
    <path
       d="m 1077.24,1336.49 c -1.76,-1.7 -2.43,-3.81 -2.43,-6.56 0,-2.75 0.67,-4.86 2.43,-6.56 1.15,-1.09 2.75,-1.89 4.8,-1.89 2.05,0 3.65,0.8 4.8,1.89 1.76,1.7 2.43,3.84 2.43,6.56 0,2.72 -0.67,4.86 -2.43,6.56 -1.15,1.09 -2.75,1.89 -4.8,1.89 -2.05,0 -3.65,-0.8 -4.8,-1.89 z m 8.48,-1.09 c 1.5,-1.47 1.92,-3.36 1.92,-5.47 0,-2.11 -0.42,-4 -1.92,-5.47 -0.86,-0.86 -2.08,-1.41 -3.68,-1.41 -1.6,0 -2.82,0.54 -3.68,1.41 -1.5,1.47 -1.92,3.39 -1.92,5.47 0,2.08 0.42,4 1.92,5.47 0.86,0.86 2.08,1.41 3.68,1.41 1.6,0 2.82,-0.54 3.68,-1.41 z"
       id="path47" />
    <path
       d="m 1092.79,1340.2 c 0,-1.66 1.09,-3.1 2.82,-3.58 -1.22,-0.26 -2.11,-1.31 -2.11,-2.5 0,-1.34 0.93,-2.34 2.24,-2.82 -1.15,-0.96 -1.86,-2.4 -1.86,-4.19 0,-3.46 2.75,-5.63 5.98,-5.63 1.44,0 2.75,0.42 3.84,1.12 0.38,-1.41 1.7,-2.21 3.14,-2.21 0.19,0 0.45,0.03 0.61,0.06 v 1.34 c -0.16,-0.03 -0.42,-0.03 -0.61,-0.03 -1.15,0 -1.98,0.64 -2.21,1.73 0.8,0.93 1.28,2.14 1.28,3.62 0,3.46 -2.72,5.54 -6.05,5.54 -1.22,0 -2.34,-0.26 -3.26,-0.77 -0.86,0.35 -1.66,0.96 -1.66,1.92 0,1.47 1.6,1.66 2.88,1.66 h 3.3 c 2.46,0 4,0.42 5.09,1.44 0.77,0.74 1.22,1.6 1.22,2.94 0,3.58 -3.74,4.9 -7.55,4.9 -3.81,0 -7.07,-1.38 -7.07,-4.54 z m 13.03,-0.29 c 0,-2.3 -2.08,-2.94 -4.58,-2.94 h -4.29 c -1.44,0.35 -2.66,1.22 -2.66,3.07 0,2.5 2.78,3.26 5.6,3.26 3.04,0 5.92,-0.77 5.92,-3.39 z m -1.51,-12.8 c 0,-2.66 -1.95,-4.22 -4.45,-4.22 -2.5,0 -4.42,1.57 -4.42,4.22 0,2.65 1.92,4.13 4.42,4.13 2.5,0 4.45,-1.5 4.45,-4.13 z"
       id="path48" />
  </g>
  <rect
     class="cls-1"
     x="860.12"
     y="610.54004"
     width="295.70001"
     height="56.950001"
     id="rect48" />
  <g
     id="g59"
     transform="translate(0,-688.51)">
    <line
       class="cls-1"
       x1="1007.97"
       y1="1185.15"
       x2="1007.97"
       y2="1284.7"
       id="line58" />
    <polygon
       points="1017.95,1281.78 998,1281.78 1007.97,1299.05 "
       id="polygon58" />
  </g>
  <path
     class="cls-2"
     d="m 1244.13,1 c 9.55,0 9.55,8.25 9.55,11.38 V 240.1"
     id="path59" />
  <path
     class="cls-2"
     d="m 1253.68,231.58 v 8.52 c 0,3.13 5.3,8.19 14.85,8.19 -9.55,0 -14.85,5.06 -14.85,8.2 v 9.58"
     id="path60" />
  <path
     class="cls-2"
     d="M 1253.68,266.07 V 485.3 c 0,3.13 0,11.34 -9.55,11.34"
     id="path61" />
  <g
     id="g65"
     transform="translate(0,-688.51)">
    <path
       d="m 1729.17,862.53 v 1.6 h -12.83 v 8.48 h 11.29 v 1.6 h -11.29 v 9.41 h 12.83 v 1.6 h -14.53 v -22.69 z"
       id="path62" />
    <path
       d="m 1731.95,869.22 h 1.95 l 4.83,6.78 4.86,-6.78 h 1.89 l -5.7,7.81 5.76,8.19 h -1.95 l -4.9,-7.07 -4.93,7.07 h -1.92 l 5.76,-8.19 -5.66,-7.81 z"
       id="path63" />
    <path
       d="m 1749.45,869.22 h 1.47 l 0.13,3.04 c 0.9,-2.11 3.26,-3.49 5.47,-3.49 1.89,0 3.3,0.61 4.38,1.54 1.86,1.57 2.69,4.03 2.69,6.88 0,2.85 -0.8,5.18 -2.53,6.78 -1.09,1.02 -2.59,1.7 -4.51,1.7 -2.34,0 -4.61,-1.31 -5.5,-3.36 v 9.28 h -1.6 z m 10.69,13.44 c 1.28,-1.38 1.82,-3.39 1.82,-5.44 0,-2.27 -0.64,-4.42 -2.18,-5.73 -0.8,-0.7 -1.89,-1.15 -3.29,-1.15 -1.4,0 -2.53,0.54 -3.36,1.31 -1.47,1.41 -2.11,3.36 -2.11,5.57 0,2.37 0.58,4.22 2.08,5.6 0.83,0.77 1.95,1.28 3.46,1.28 1.51,0 2.75,-0.54 3.58,-1.44 z"
       id="path64" />
    <path
       d="m 1774.83,878.66 h 1.63 c 0.03,2.82 1.79,5.47 5.6,5.47 3.39,0 5.5,-2.02 5.5,-4.83 0,-3.33 -2.24,-4.86 -5.6,-4.86 h -1.25 v -1.54 h 1.25 c 3.04,0 5.12,-1.41 5.12,-4.38 0,-2.56 -2.27,-4.38 -4.99,-4.38 -3.39,0 -5.44,2.14 -5.47,5.12 h -1.63 c 0.06,-3.97 3.01,-6.66 7.1,-6.66 3.71,0 6.62,2.4 6.62,5.92 0,2.4 -1.31,4.48 -3.87,5.15 2.78,0.67 4.38,2.98 4.38,5.63 0,3.68 -3.1,6.37 -7.17,6.37 -4.51,0 -7.14,-2.98 -7.23,-7.01 z"
       id="path65" />
  </g>
  <rect
     class="cls-1"
     x="1699.16"
     y="158.00002"
     width="102.05"
     height="56.950001"
     id="rect65" />
  <g
     id="g69"
     transform="translate(0,-688.51)">
    <path
       d="m 1729.17,987.23 v 1.6 h -12.83 v 8.48 h 11.29 v 1.6 h -11.29 v 9.41 h 12.83 v 1.6 h -14.53 v -22.69 z"
       id="path66" />
    <path
       d="m 1731.95,993.92 h 1.95 l 4.83,6.78 4.86,-6.78 h 1.89 l -5.7,7.81 5.76,8.19 h -1.95 l -4.9,-7.07 -4.93,7.07 h -1.92 l 5.76,-8.19 -5.66,-7.81 z"
       id="path67" />
    <path
       d="m 1749.45,993.92 h 1.47 l 0.13,3.04 c 0.9,-2.11 3.26,-3.49 5.47,-3.49 1.89,0 3.3,0.61 4.38,1.54 1.86,1.57 2.69,4.03 2.69,6.88 0,2.85 -0.8,5.18 -2.53,6.78 -1.09,1.02 -2.59,1.7 -4.51,1.7 -2.34,0 -4.61,-1.31 -5.5,-3.36 v 9.28 h -1.6 z m 10.69,13.44 c 1.28,-1.38 1.82,-3.39 1.82,-5.44 0,-2.27 -0.64,-4.42 -2.18,-5.73 -0.8,-0.7 -1.89,-1.15 -3.29,-1.15 -1.4,0 -2.53,0.54 -3.36,1.31 -1.47,1.41 -2.11,3.36 -2.11,5.57 0,2.37 0.58,4.22 2.08,5.6 0.83,0.77 1.95,1.28 3.46,1.28 1.51,0 2.75,-0.54 3.58,-1.44 z"
       id="path68" />
    <path
       d="m 1774.8,1003.49 h 1.6 c 0.16,3.14 2.34,5.34 5.7,5.34 3.55,0 5.57,-2.5 5.57,-5.86 0,-3.36 -1.76,-5.92 -5.31,-5.92 -1.98,0 -3.94,0.77 -4.99,2.43 h -1.89 l 0.9,-11.74 h 12.13 v 1.5 h -10.75 l -0.74,8.64 c 1.22,-1.57 3.36,-2.34 5.34,-2.34 4.58,0 6.91,3.2 6.91,7.42 0,4.22 -2.53,7.39 -7.17,7.39 -4.64,0 -7.2,-2.98 -7.3,-6.88 z"
       id="path69" />
  </g>
  <rect
     class="cls-1"
     x="1699.16"
     y="282.70001"
     width="102.05"
     height="56.950001"
     id="rect69" />
  <g
     id="g73"
     transform="translate(0,-688.51)">
    <path
       d="m 1531.29,925.98 v 1.6 h -12.83 v 8.48 h 11.29 v 1.6 h -11.29 v 9.41 h 12.83 v 1.6 h -14.53 v -22.69 z"
       id="path70" />
    <path
       d="m 1534.07,932.67 h 1.95 l 4.83,6.78 4.86,-6.78 h 1.89 l -5.7,7.81 5.76,8.19 h -1.95 l -4.9,-7.07 -4.93,7.07 h -1.92 l 5.76,-8.19 -5.66,-7.81 z"
       id="path71" />
    <path
       d="m 1551.58,932.67 h 1.47 l 0.13,3.04 c 0.9,-2.11 3.26,-3.49 5.47,-3.49 1.89,0 3.3,0.61 4.38,1.54 1.86,1.57 2.69,4.03 2.69,6.88 0,2.85 -0.8,5.18 -2.53,6.78 -1.09,1.02 -2.59,1.7 -4.51,1.7 -2.34,0 -4.61,-1.31 -5.5,-3.36 v 9.28 h -1.6 z m 10.69,13.44 c 1.28,-1.38 1.82,-3.39 1.82,-5.44 0,-2.27 -0.64,-4.42 -2.18,-5.73 -0.8,-0.7 -1.89,-1.15 -3.29,-1.15 -1.4,0 -2.53,0.54 -3.36,1.31 -1.47,1.41 -2.11,3.36 -2.11,5.57 0,2.37 0.58,4.22 2.08,5.6 0.83,0.77 1.95,1.28 3.46,1.28 1.51,0 2.75,-0.54 3.58,-1.44 z"
       id="path72" />
    <path
       d="m 1577.02,946.94 9.25,-9.98 c 1.47,-1.6 2.21,-3.2 2.21,-4.86 0,-2.62 -1.79,-4.51 -4.83,-4.51 -3.04,0 -4.96,2.08 -4.96,5.7 h -1.7 c 0,-4.48 2.72,-7.23 6.66,-7.23 3.65,0 6.43,2.34 6.43,6.05 0,1.98 -0.96,4.1 -2.56,5.79 l -8.67,9.25 h 11.81 v 1.54 h -13.63 v -1.73 z"
       id="path73" />
  </g>
  <rect
     class="cls-1"
     x="1501.28"
     y="221.44002"
     width="102.05"
     height="56.950001"
     id="rect73" />
  <g
     id="g77"
     transform="translate(0,-688.51)">
    <path
       d="m 1381.54,925.98 v 1.6 h -12.83 v 8.48 H 1380 v 1.6 h -11.29 v 9.41 h 12.83 v 1.6 h -14.53 v -22.69 z"
       id="path74" />
    <path
       d="m 1384.33,932.67 h 1.95 l 4.83,6.78 4.86,-6.78 h 1.89 l -5.7,7.81 5.76,8.19 h -1.95 l -4.9,-7.07 -4.93,7.07 h -1.92 l 5.76,-8.19 -5.66,-7.81 z"
       id="path75" />
    <path
       d="m 1401.83,932.67 h 1.47 l 0.13,3.04 c 0.9,-2.11 3.26,-3.49 5.47,-3.49 1.89,0 3.3,0.61 4.38,1.54 1.86,1.57 2.69,4.03 2.69,6.88 0,2.85 -0.8,5.18 -2.53,6.78 -1.09,1.02 -2.59,1.7 -4.51,1.7 -2.34,0 -4.61,-1.31 -5.5,-3.36 v 9.28 h -1.6 z m 10.69,13.44 c 1.28,-1.38 1.82,-3.39 1.82,-5.44 0,-2.27 -0.64,-4.42 -2.18,-5.73 -0.8,-0.7 -1.89,-1.15 -3.29,-1.15 -1.4,0 -2.53,0.54 -3.36,1.31 -1.47,1.41 -2.11,3.36 -2.11,5.57 0,2.37 0.58,4.22 2.08,5.6 0.83,0.77 1.95,1.28 3.46,1.28 1.51,0 2.75,-0.54 3.58,-1.44 z"
       id="path76" />
    <path
       d="m 1426.31,932.6 v -1.79 l 6.08,-4.32 h 1.44 v 22.17 h -1.6 v -20.19 z"
       id="path77" />
  </g>
  <rect
     class="cls-1"
     x="1351.53"
     y="221.44002"
     width="102.05"
     height="56.950001"
     id="rect77" />
  <g
     id="g78"
     transform="translate(0,-688.51)">
    <line
       class="cls-1"
       x1="1453.58"
       y1="938.42999"
       x2="1487.14"
       y2="938.42999"
       id="line77" />
    <polygon
       points="1484.22,928.45 1484.22,948.4 1501.49,938.43 "
       id="polygon77" />
  </g>
  <line
     class="cls-1"
     x1="1603.33"
     y1="249.92"
     x2="1651.24"
     y2="249.92"
     id="line78" />
  <g
     id="g79"
     transform="translate(0,-688.51)">
    <line
       class="cls-1"
       x1="1651.24"
       y1="874.97998"
       x2="1684.8101"
       y2="874.97998"
       id="line79" />
    <polygon
       points="1681.89,865.01 1681.89,884.95 1699.16,874.98 "
       id="polygon79" />
  </g>
  <g
     id="g80"
     transform="translate(0,-688.51)">
    <line
       class="cls-1"
       x1="1651.24"
       y1="1001.87"
       x2="1684.8101"
       y2="1001.87"
       id="line80" />
    <polygon
       points="1681.89,991.9 1681.89,1011.85 1699.16,1001.87 "
       id="polygon80" />
  </g>
  <line
     class="cls-1"
     x1="1651.24"
     y1="186.46999"
     x2="1651.24"
     y2="313.35999"
     id="line81" />
  <g
     id="g84"
     transform="translate(0,-688.51)">
    <path
       d="m 1879.12,862.53 v 1.6 h -12.83 v 8.48 h 11.29 v 1.6 h -11.29 v 9.41 h 12.83 v 1.6 h -14.53 v -22.69 z"
       id="path81" />
    <path
       d="m 1881.91,869.22 h 1.95 l 4.83,6.78 4.86,-6.78 h 1.89 l -5.7,7.81 5.76,8.19 h -1.95 l -4.9,-7.07 -4.93,7.07 h -1.92 l 5.76,-8.19 -5.66,-7.81 z"
       id="path82" />
    <path
       d="m 1899.41,869.22 h 1.47 l 0.13,3.04 c 0.9,-2.11 3.26,-3.49 5.47,-3.49 1.89,0 3.3,0.61 4.38,1.54 1.86,1.57 2.69,4.03 2.69,6.88 0,2.85 -0.8,5.18 -2.53,6.78 -1.09,1.02 -2.59,1.7 -4.51,1.7 -2.34,0 -4.61,-1.31 -5.5,-3.36 v 9.28 h -1.6 z m 10.69,13.44 c 1.28,-1.38 1.82,-3.39 1.82,-5.44 0,-2.27 -0.64,-4.42 -2.18,-5.73 -0.8,-0.7 -1.89,-1.15 -3.29,-1.15 -1.4,0 -2.53,0.54 -3.36,1.31 -1.47,1.41 -2.11,3.36 -2.11,5.57 0,2.37 0.58,4.22 2.08,5.6 0.83,0.77 1.95,1.28 3.46,1.28 1.51,0 2.75,-0.54 3.58,-1.44 z"
       id="path83" />
    <path
       d="m 1935.03,880 h -11.07 v -1.92 l 9.6,-15.04 h 1.89 l -9.86,15.36 h 9.44 v -7.33 h 1.63 v 7.33 h 3.3 v 1.6 h -3.3 v 5.22 h -1.63 z"
       id="path84" />
  </g>
  <rect
     class="cls-1"
     x="1849.12"
     y="158.00002"
     width="102.05"
     height="56.950001"
     id="rect84" />
  <g
     id="g85"
     transform="translate(0,-688.51)">
    <line
       class="cls-1"
       x1="1801.2"
       y1="874.97998"
       x2="1834.77"
       y2="874.97998"
       id="line84" />
    <polygon
       points="1831.85,865.01 1831.85,884.95 1849.12,874.98 "
       id="polygon84" />
  </g>
  <g
     id="g87"
     transform="translate(0,-688.51)">
    <path
       class="cls-6"
       d="m 2030.78,878.23 c 0,-1.79 1.48,-3.25 3.31,-3.25 1.84,0 3.32,1.45 3.32,3.25 0,1.79 -1.48,3.24 -3.32,3.24 -1.83,0 -3.31,-1.45 -3.31,-3.24 z"
       id="path85" />
    <path
       class="cls-6"
       d="m 2006.83,878.23 c 0,-1.79 1.48,-3.25 3.32,-3.25 1.83,0 3.32,1.45 3.32,3.25 0,1.79 -1.49,3.24 -3.32,3.24 -1.84,0 -3.32,-1.45 -3.32,-3.24 z"
       id="path86" />
    <path
       class="cls-6"
       d="m 1982.89,878.23 c 0,-1.79 1.48,-3.25 3.32,-3.25 1.84,0 3.32,1.45 3.32,3.25 0,1.79 -1.49,3.24 -3.32,3.24 -1.84,0 -3.32,-1.45 -3.32,-3.24 z"
       id="path87" />
  </g>
  <g
     id="g90"
     transform="translate(0,-688.51)">
    <path
       class="cls-6"
       d="m 1880.82,999.69 c 0,-1.79 1.48,-3.25 3.31,-3.25 1.84,0 3.32,1.45 3.32,3.25 0,1.79 -1.48,3.24 -3.32,3.24 -1.83,0 -3.31,-1.45 -3.31,-3.24 z"
       id="path88" />
    <path
       class="cls-6"
       d="m 1856.87,999.69 c 0,-1.79 1.48,-3.25 3.32,-3.25 1.83,0 3.32,1.45 3.32,3.25 0,1.79 -1.49,3.24 -3.32,3.24 -1.84,0 -3.32,-1.45 -3.32,-3.24 z"
       id="path89" />
    <path
       class="cls-6"
       d="m 1832.93,999.69 c 0,-1.79 1.48,-3.25 3.32,-3.25 1.84,0 3.32,1.45 3.32,3.25 0,1.79 -1.49,3.24 -3.32,3.24 -1.84,0 -3.32,-1.45 -3.32,-3.24 z"
       id="path90" />
  </g>
  <g
     id="g100"
     transform="translate(0,-688.51)">
    <path
       d="m 32.45,925.05 c 4.19,0 7.46,2.02 7.46,6.46 0,4.44 -3.26,6.46 -7.46,6.46 h -6.3 v 9.76 h -1.66 v -22.69 h 7.97 z m 5.73,6.46 c 0,-3.52 -2.53,-4.86 -5.82,-4.86 h -6.21 v 9.73 h 6.21 c 3.3,0 5.82,-1.34 5.82,-4.86 z"
       id="path91" />
    <path
       d="m 42.47,943.29 c 0,-2.85 2.18,-4.61 5.38,-4.83 l 5.89,-0.42 v -1.41 c 0,-2.69 -1.95,-3.84 -4.42,-3.84 -2.47,0 -4.38,1.15 -4.54,3.55 h -1.6 c 0.22,-3.29 2.88,-5.06 6.08,-5.06 3.65,0 6.08,1.79 6.08,5.47 v 7.9 c 0,1.09 0.16,1.73 1.25,1.73 0.13,0 0.32,0 0.45,-0.03 v 1.41 c -0.22,0.06 -0.51,0.1 -0.77,0.1 -1.98,0 -2.53,-1.5 -2.53,-3.2 -0.86,2.27 -3.3,3.52 -5.76,3.52 -3.1,0 -5.5,-1.89 -5.5,-4.9 z m 11.27,-2.95 v -0.83 l -5.73,0.35 c -2.46,0.16 -3.9,1.5 -3.9,3.39 0,2.24 1.73,3.46 4,3.46 4.03,0 5.63,-3.26 5.63,-6.37 z"
       id="path92" />
    <path
       d="m 61.35,931.73 h 1.47 l 0.13,3.3 c 0.7,-2.24 2.88,-3.46 5.15,-3.46 0.48,0 1.02,0 1.5,0.16 v 1.54 c -0.51,-0.13 -1.06,-0.16 -1.57,-0.16 -3.71,0 -5.09,3.07 -5.09,6.62 v 8 h -1.6 v -16 z"
       id="path93" />
    <path
       d="m 71.34,943.29 c 0,-2.85 2.18,-4.61 5.38,-4.83 l 5.89,-0.42 v -1.41 c 0,-2.69 -1.95,-3.84 -4.42,-3.84 -2.47,0 -4.38,1.15 -4.54,3.55 h -1.6 c 0.22,-3.29 2.88,-5.06 6.08,-5.06 3.65,0 6.08,1.79 6.08,5.47 v 7.9 c 0,1.09 0.16,1.73 1.25,1.73 0.13,0 0.32,0 0.45,-0.03 v 1.41 c -0.22,0.06 -0.51,0.1 -0.77,0.1 -1.98,0 -2.53,-1.5 -2.53,-3.2 -0.86,2.27 -3.3,3.52 -5.76,3.52 -3.1,0 -5.5,-1.89 -5.5,-4.9 z m 11.26,-2.95 v -0.83 l -5.73,0.35 c -2.46,0.16 -3.9,1.5 -3.9,3.39 0,2.24 1.73,3.46 4,3.46 4.03,0 5.63,-3.26 5.63,-6.37 z"
       id="path94" />
    <path
       d="m 90.22,931.73 h 1.47 l 0.13,3.14 c 0.74,-2.14 2.69,-3.58 5.02,-3.58 2.75,0 4.35,1.41 4.99,3.46 0.86,-1.98 2.59,-3.46 5.28,-3.46 3.74,0 5.31,2.46 5.31,5.89 v 10.56 h -1.6 v -10.37 c 0,-2.82 -1.09,-4.58 -3.87,-4.58 -3.01,0 -4.77,2.66 -4.77,5.89 v 9.06 h -1.66 v -10.37 c 0,-2.82 -1.22,-4.58 -3.87,-4.58 -3.07,0 -4.83,2.88 -4.83,6.3 v 8.64 h -1.6 z"
       id="path95" />
    <path
       d="m 119.21,945.94 c -1.31,-1.54 -2.11,-3.71 -2.11,-6.14 0,-2.02 0.32,-4 1.6,-5.7 1.38,-1.82 3.26,-2.82 5.6,-2.82 4.42,0 7.07,3.52 7.07,7.78 0,0.38 0,0.61 -0.03,1.06 H 118.7 c 0.06,3.55 2.14,6.53 5.73,6.53 2.53,0 4.51,-1.66 4.9,-3.71 h 1.66 c -0.48,3.01 -3.36,5.25 -6.56,5.25 -2.3,0 -4.16,-1.02 -5.22,-2.24 z m 10.49,-7.26 c -0.06,-3.04 -1.95,-5.89 -5.41,-5.89 -3.46,0 -5.5,2.75 -5.57,5.89 z"
       id="path96" />
    <path
       d="M 137.48,943.57 V 933.2 h -3.78 v -1.47 h 3.78 v -4.42 l 1.6,-0.38 v 4.8 h 5.02 v 1.47 h -5.02 v 10.14 c 0,1.76 0.54,3.1 2.88,3.1 0.86,0 1.54,-0.1 2.37,-0.29 v 1.41 c -0.8,0.26 -1.6,0.38 -2.5,0.38 -3.14,0 -4.35,-1.82 -4.35,-4.38 z"
       id="path97" />
    <path
       d="m 148.71,945.94 c -1.31,-1.54 -2.11,-3.71 -2.11,-6.14 0,-2.02 0.32,-4 1.6,-5.7 1.38,-1.82 3.26,-2.82 5.6,-2.82 4.42,0 7.07,3.52 7.07,7.78 0,0.38 0,0.61 -0.03,1.06 H 148.2 c 0.06,3.55 2.14,6.53 5.73,6.53 2.53,0 4.51,-1.66 4.9,-3.71 h 1.66 c -0.48,3.01 -3.36,5.25 -6.56,5.25 -2.3,0 -4.16,-1.02 -5.22,-2.24 z m 10.5,-7.26 c -0.06,-3.04 -1.95,-5.89 -5.41,-5.89 -3.46,0 -5.5,2.75 -5.57,5.89 z"
       id="path98" />
    <path
       d="m 165.61,931.73 h 1.47 l 0.13,3.3 c 0.7,-2.24 2.88,-3.46 5.15,-3.46 0.48,0 1.02,0 1.5,0.16 v 1.54 c -0.51,-0.13 -1.06,-0.16 -1.57,-0.16 -3.71,0 -5.09,3.07 -5.09,6.62 v 8 h -1.6 v -16 z"
       id="path99" />
    <path
       d="m 175.98,942.87 h 1.63 c 0.26,2.62 2.34,3.78 4.96,3.78 2.62,0 4.64,-1.15 4.64,-3.33 0,-1.41 -0.99,-2.59 -2.94,-2.85 l -3.1,-0.42 c -2.69,-0.35 -4.51,-1.63 -4.51,-4.06 0,-2.85 2.75,-4.7 5.76,-4.7 3.46,0 5.95,1.98 6.05,4.86 h -1.6 c -0.22,-2.3 -2.11,-3.36 -4.45,-3.36 -2.34,0 -4.13,1.25 -4.13,3.04 0,1.31 0.7,2.3 3.1,2.62 l 3.04,0.42 c 3.01,0.42 4.42,2.43 4.42,4.35 0,3.26 -2.94,4.96 -6.27,4.96 -3.81,0 -6.43,-2.02 -6.59,-5.31 z"
       id="path100" />
  </g>
  <rect
     class="cls-1"
     x="1"
     y="220.34999"
     width="295.70001"
     height="56.950001"
     id="rect100" />
  <rect
     class="cls-1"
     x="430.57001"
     y="100.96998"
     width="295.70001"
     height="295.70001"
     id="rect101" />
  <g
     id="g101"
     transform="translate(0,-688.51)">
    <path
       class="cls-1"
       d="m 480.78,937.33 c 0,-53.92 43.71,-97.63 97.63,-97.63 27.92,0 53.11,11.72 70.9,30.51 5.8,6.12 10.81,12.99 14.88,20.46"
       id="path101" />
    <polygon
       points="671.82,883.87 653.76,892.33 670.12,903.74 "
       id="polygon101" />
  </g>
  <g
     id="g102"
     transform="translate(0,-688.51)">
    <path
       class="cls-3"
       d="m 676.05,937.33 c 0,53.92 -43.71,97.63 -97.63,97.63 -37.02,0 -69.23,-20.61 -85.78,-50.97"
       id="path102" />
    <polygon
       points="485.04,990.79 503.09,982.3 486.72,970.91 "
       id="polygon102" />
  </g>
  <g
     id="g103"
     transform="translate(0,-688.51)">
    <line
       class="cls-1"
       x1="148.85001"
       y1="1242.1"
       x2="148.85001"
       y2="980.15997"
       id="line102" />
    <polygon
       points="138.88,983.08 158.82,983.08 148.85,965.81 "
       id="polygon103" />
  </g>
  <g
     id="g104"
     transform="translate(0,-688.51)">
    <line
       class="cls-1"
       x1="726.27002"
       y1="937.33002"
       x2="845.77002"
       y2="937.33002"
       id="line103" />
    <polygon
       points="842.85,927.36 842.85,947.3 860.12,937.33 "
       id="polygon104" />
  </g>
  <g
     id="g105"
     transform="translate(0,-688.51)">
    <line
       class="cls-1"
       x1="296.70001"
       y1="937.33002"
       x2="416.20999"
       y2="937.33002"
       id="line104" />
    <polygon
       points="413.29,927.36 413.29,947.3 430.56,937.33 "
       id="polygon105" />
  </g>
  <g
     id="g179"
     transform="translate(0,-688.51)">
    <g
       id="g177">
      <line
         class="cls-3"
         x1="614.01001"
         y1="910.71997"
         x2="623.20001"
         y2="910.71997"
         id="line150" />
      <line
         class="cls-3"
         x1="614.01001"
         y1="919.59003"
         x2="623.20001"
         y2="919.59003"
         id="line151" />
      <line
         class="cls-3"
         x1="614.01001"
         y1="928.46002"
         x2="623.20001"
         y2="928.46002"
         id="line152" />
      <line
         class="cls-3"
         x1="614.01001"
         y1="937.33002"
         x2="623.20001"
         y2="937.33002"
         id="line153" />
      <line
         class="cls-3"
         x1="614.01001"
         y1="946.21002"
         x2="623.20001"
         y2="946.21002"
         id="line154" />
      <line
         class="cls-3"
         x1="614.01001"
         y1="955.08002"
         x2="623.20001"
         y2="955.08002"
         id="line155" />
      <line
         class="cls-3"
         x1="614.01001"
         y1="963.95001"
         x2="623.20001"
         y2="963.95001"
         id="line156" />
      <line
         class="cls-3"
         x1="533.64001"
         y1="910.71997"
         x2="542.82001"
         y2="910.71997"
         id="line157" />
      <line
         class="cls-3"
         x1="533.64001"
         y1="919.59003"
         x2="542.82001"
         y2="919.59003"
         id="line158" />
      <line
         class="cls-3"
         x1="533.64001"
         y1="928.46002"
         x2="542.82001"
         y2="928.46002"
         id="line159" />
      <line
         class="cls-3"
         x1="533.64001"
         y1="937.33002"
         x2="542.82001"
         y2="937.33002"
         id="line160" />
      <line
         class="cls-3"
         x1="533.64001"
         y1="946.21002"
         x2="542.82001"
         y2="946.21002"
         id="line161" />
      <line
         class="cls-3"
         x1="533.64001"
         y1="955.08002"
         x2="542.82001"
         y2="955.08002"
         id="line162" />
      <line
         class="cls-3"
         x1="533.64001"
         y1="963.95001"
         x2="542.82001"
         y2="963.95001"
         id="line163" />
      <line
         class="cls-3"
         x1="605.03003"
         y1="972.92999"
         x2="605.03003"
         y2="982.10999"
         id="line164" />
      <line
         class="cls-3"
         x1="596.15997"
         y1="972.92999"
         x2="596.15997"
         y2="982.10999"
         id="line165" />
      <line
         class="cls-3"
         x1="587.28998"
         y1="972.92999"
         x2="587.28998"
         y2="982.10999"
         id="line166" />
      <line
         class="cls-3"
         x1="578.41998"
         y1="972.92999"
         x2="578.41998"
         y2="982.10999"
         id="line167" />
      <line
         class="cls-3"
         x1="569.54999"
         y1="972.92999"
         x2="569.54999"
         y2="982.10999"
         id="line168" />
      <line
         class="cls-3"
         x1="560.66998"
         y1="972.92999"
         x2="560.66998"
         y2="982.10999"
         id="line169" />
      <line
         class="cls-3"
         x1="551.79999"
         y1="972.92999"
         x2="551.79999"
         y2="982.10999"
         id="line170" />
      <line
         class="cls-3"
         x1="605.03003"
         y1="892.54999"
         x2="605.03003"
         y2="901.73999"
         id="line171" />
      <line
         class="cls-3"
         x1="596.15997"
         y1="892.54999"
         x2="596.15997"
         y2="901.73999"
         id="line172" />
      <line
         class="cls-3"
         x1="587.28998"
         y1="892.54999"
         x2="587.28998"
         y2="901.73999"
         id="line173" />
      <line
         class="cls-3"
         x1="578.41998"
         y1="892.54999"
         x2="578.41998"
         y2="901.73999"
         id="line174" />
      <line
         class="cls-3"
         x1="569.54999"
         y1="892.54999"
         x2="569.54999"
         y2="901.73999"
         id="line175" />
      <line
         class="cls-3"
         x1="560.66998"
         y1="892.54999"
         x2="560.66998"
         y2="901.73999"
         id="line176" />
      <line
         class="cls-3"
         x1="551.79999"
         y1="892.54999"
         x2="551.79999"
         y2="901.73999"
         id="line177" />
      <rect
         class="cls-3"
         x="544.83002"
         y="903.75"
         width="67.169998"
         height="67.169998"
         id="rect177" />
    </g>
    <g
       id="g178">
      <rect
         class="cls-5"
         x="561.69"
         y="922.79999"
         width="1.52"
         height="29.190001"
         id="rect178" />
      <polygon
         class="cls-5"
         points="595.42,937.4 591,924.16 592.44,923.68 597.02,937.4 592.44,951.11 591,950.63 "
         id="polygon178" />
      <path
         class="cls-5"
         d="m 567.57,933.24 v -8.84 h 1.73 v 8.74 c 0,4.34 1.87,7.14 7.37,7.21 v -15.94 h 1.73 v 15.94 c 5.47,-0.07 7.37,-2.87 7.37,-7.21 v -8.74 h 1.73 v 8.84 c 0,5.04 -2.63,8.57 -9.11,8.67 v 6.14 h -1.73 v -6.14 c -6.47,-0.1 -9.11,-3.64 -9.11,-8.67 z"
         id="path178" />
    </g>
  </g>
</svg>
