<?xml version="1.0" encoding="UTF-8" standalone="no"?>
<svg
   id="Ebene_1"
   data-name="Ebene 1"
   viewBox="0 0 1929.14 797.96681"
   version="1.1"
   sodipodi:docname="resonators_and_qubits.svg"
   inkscape:version="1.3.2 (091e20e, 2023-11-25)"
   width="1929.14"
   height="797.96686"
   xmlns:inkscape="http://www.inkscape.org/namespaces/inkscape"
   xmlns:sodipodi="http://sodipodi.sourceforge.net/DTD/sodipodi-0.dtd"
   xmlns="http://www.w3.org/2000/svg"
   xmlns:svg="http://www.w3.org/2000/svg">
  <defs
     id="defs681" />
  <sodipodi:namedview
     id="namedview679"
     pagecolor="#ffffff"
     bordercolor="#000000"
     borderopacity="0.25"
     inkscape:showpageshadow="2"
     inkscape:pageopacity="1"
     inkscape:pagecheckerboard="0"
     inkscape:deskcolor="#d1d1d1"
     showgrid="false"
     inkscape:zoom="0.57984269"
     inkscape:cx="839.88297"
     inkscape:cy="105.20095"
     inkscape:window-width="2080"
     inkscape:window-height="1200"
     inkscape:window-x="0"
     inkscape:window-y="25"
     inkscape:window-maximized="0"
     inkscape:current-layer="Ebene_1" />
  <rect
     x="1.3529454"
     y="2.003417"
     width="1929.0844"
     height="796.01831"
     fill="none"
     stroke="#000000"
     stroke-linecap="round"
     stroke-linejoin="round"
     stroke-width="3.23459"
     id="rect432-7"
     style="fill:#ffffff;stroke:#ffffff" />
  <line
     x1="570.89001"
     y1="366.51688"
     x2="749.77002"
     y2="366.51688"
     fill="none"
     stroke="#009ee0"
     stroke-linecap="round"
     stroke-linejoin="round"
     stroke-width="2"
     id="line430" />
  <rect
     x="318.04999"
     y="30.756851"
     width="766.21002"
     height="766.21002"
     fill="none"
     stroke="#000000"
     stroke-linecap="round"
     stroke-linejoin="round"
     stroke-width="2"
     id="rect432" />
  <line
     x1="835.82001"
     y1="11.234147"
     x2="835.82001"
     y2="166.7245"
     fill="none"
     stroke="#66cc33"
     stroke-linecap="round"
     stroke-linejoin="round"
     stroke-width="1.56519"
     id="line434" />
  <line
     x1="835.82001"
     y1="197.27687"
     x2="835.82001"
     y2="302.97684"
     fill="none"
     stroke="#66cc33"
     stroke-linecap="round"
     stroke-linejoin="round"
     stroke-width="2"
     id="line436" />
  <polyline
     points="905.85 1052.68 986.86 1052.69 986.57 1052.69"
     fill="none"
     stroke="#66cc33"
     stroke-linecap="round"
     stroke-linejoin="round"
     stroke-width="2"
     id="polyline438"
     transform="translate(-110.54,-886.34312)" />
  <polyline
     points="905.85 1083.62 986.86 1083.62 986.57 1083.62"
     fill="none"
     stroke="#66cc33"
     stroke-linecap="round"
     stroke-linejoin="round"
     stroke-width="2"
     id="polyline440"
     transform="translate(-110.54,-886.34312)" />
  <line
     x1="1"
     y1="0.703385"
     x2="1"
     y2="367.02213"
     fill="none"
     stroke="#009ee0"
     stroke-linecap="round"
     stroke-linejoin="round"
     stroke-width="1.40677"
     id="line442" />
  <line
     x1="198.82999"
     y1="2.7657933"
     x2="198.82999"
     y2="622.53979"
     fill="none"
     stroke="#009ee0"
     stroke-linecap="round"
     stroke-linejoin="round"
     stroke-width="1.57764"
     id="line444" />
  <line
     x1="921.86005"
     y1="366.52689"
     x2="1007.3"
     y2="366.51688"
     fill="none"
     stroke="#009ee0"
     stroke-linecap="round"
     stroke-linejoin="round"
     stroke-width="2"
     id="line446" />
  <line
     x1="1007.3"
     y1="366.51688"
     x2="1007.3"
     y2="622.15686"
     fill="none"
     stroke="#009ee0"
     stroke-linecap="round"
     stroke-linejoin="round"
     stroke-width="2"
     id="line448" />
  <polyline
     points="1345.98 1224.57 1345.84 1683.3 2037.27 1683.5"
     fill="none"
     stroke="#000000"
     stroke-linecap="round"
     stroke-linejoin="round"
     stroke-width="2"
     id="polyline450"
     transform="translate(-110.54,-1048.3431)" />
  <path
     d="m 1225.84,189.88688 a 1,1 0 0 0 1.38,-0.3 l 8.22,-12.91 8.21,12.91 a 1.000125,1.000125 0 1 0 1.69,-1.07 l -9.01,-14.23 a 1,1 0 0 0 -1.68,0 l -9.07,14.22 a 1,1 0 0 0 -0.16,0.54 1,1 0 0 0 0.42,0.84 z"
     id="path452" />
  <path
     d="m 1913.06,644.74689 a 1,1 0 0 1 0.31,-1.38 l 12.91,-8.22 -12.9,-8.22 a 1,1 0 0 1 -0.31,-1.38 1,1 0 0 1 1.38,-0.31 l 14.23,9.07 a 1,1 0 0 1 0.46,0.84 1,1 0 0 1 -0.46,0.85 l -14.23,9.06 a 1.08,1.08 0 0 1 -0.54,0.15 1,1 0 0 1 -0.85,-0.46 z"
     id="path454" />
  <path
     d="m 1758.21,690.29689 h -4 v -1.75 h 4 v -3.23 a 5.16,5.16 0 0 1 5.48,-5.43 10.47,10.47 0 0 1 2.69,0.31 v 1.71 a 9,9 0 0 0 -2.54,-0.31 c -2.47,0 -3.72,1.37 -3.73,3.8 v 3.15 h 5.89 v 1.74 h -5.89 v 17.25 h -1.9 z"
     id="path456" />
  <path
     d="m 1770.33,688.55689 h 1.74 l 0.16,3.91 a 6.17,6.17 0 0 1 6.11,-4.1 5.75,5.75 0 0 1 1.79,0.19 v 1.83 a 7.89,7.89 0 0 0 -1.86,-0.19 c -4.41,0 -6,3.65 -6,7.87 v 9.49 h -1.94 z"
     id="path458" />
  <path
     d="m 1785.91,705.38689 a 11.2,11.2 0 0 1 -2.51,-7.29 10.89,10.89 0 0 1 1.93,-6.71 8,8 0 0 1 6.65,-3.34 c 5.24,0 8.39,4.18 8.39,9.24 0,0.45 0,0.72 0,1.25 h -15 c 0.08,4.21 2.55,7.75 6.8,7.75 a 5.75,5.75 0 0 0 5.82,-4.41 h 2 a 7.8,7.8 0 0 1 -7.79,6.23 8.2,8.2 0 0 1 -6.29,-2.72 z m 12.47,-8.62 c -0.08,-3.61 -2.32,-7 -6.42,-7 -4.1,0 -6.54,3.26 -6.62,7 z"
     id="path460" />
  <path
     d="m 1819.58,703.87689 a 6.91,6.91 0 0 1 -6.43,4.22 7.68,7.68 0 0 1 -5.39,-2 10.82,10.82 0 0 1 -3.08,-8 c 0,-3.27 1,-6.31 3.24,-8.17 a 8.09,8.09 0 0 1 5.39,-1.82 6.63,6.63 0 0 1 6.27,4.06 l 0.15,-3.53 h 1.79 v 26.56 h -1.94 z m -2.4,0.84 c 1.79,-1.64 2.43,-3.84 2.44,-6.65 a 8.61,8.61 0 0 0 -2.47,-6.61 5.55,5.55 0 0 0 -3.91,-1.56 5.89,5.89 0 0 0 -4,1.37 8.86,8.86 0 0 0 -2.62,6.8 9.37,9.37 0 0 0 2.24,6.46 6.17,6.17 0 0 0 8.32,0.19 z"
     id="path462" />
  <path
     d="m 1828.33,700.84689 v -12.28 h 1.9 v 12.16 c 0,3.31 1.63,5.51 5,5.51 4.41,0 6.23,-3.53 6.24,-7.78 v -9.88 h 1.9 v 19 h -1.75 l -0.15,-3.58 a 6.76,6.76 0 0 1 -6.34,4.11 c -4.31,-0.01 -6.8,-3.01 -6.8,-7.26 z"
     id="path464" />
  <path
     d="m 1851.65,705.44689 a 11.21,11.21 0 0 1 -2.51,-7.3 10.87,10.87 0 0 1 1.9,-6.76 8,8 0 0 1 6.65,-3.34 c 5.25,0 8.4,4.18 8.4,9.24 0,0.45 0,0.72 0,1.25 h -15 c 0.08,4.21 2.55,7.75 6.8,7.75 a 5.76,5.76 0 0 0 5.82,-4.41 h 2 a 7.8,7.8 0 0 1 -7.79,6.23 8.23,8.23 0 0 1 -6.27,-2.66 z m 12.46,-8.62 c -0.07,-3.61 -2.31,-7 -6.42,-7 -4.11,0 -6.53,3.26 -6.61,7 z"
     id="path466" />
  <path
     d="m 1871.72,688.58689 h 1.75 l 0.15,3.64 c 1,-2.62 4,-4.17 6.61,-4.17 4.33,0 6.72,2.89 6.72,7.1 v 12.43 h -1.9 v -12.2 c 0,-3.19 -1.63,-5.43 -5,-5.43 -4.22,0 -6.42,3.49 -6.43,7.71 v 10 h -1.9 z"
     id="path468" />
  <path
     d="m 1895.27,705.83689 c -2,-2 -2.73,-4.52 -2.73,-7.75 0,-3.23 0.68,-5.81 2.74,-7.79 a 8,8 0 0 1 5.73,-2.24 c 4,0 7.11,2.48 7.56,6.43 h -2 a 5.41,5.41 0 0 0 -5.55,-4.57 6,6 0 0 0 -4.37,1.64 c -1.78,1.78 -2.16,4 -2.16,6.53 0,2.53 0.41,4.71 2.2,6.5 a 6,6 0 0 0 4.37,1.63 5.4,5.4 0 0 0 5.55,-4.55 h 2 a 7.23,7.23 0 0 1 -7.56,6.42 7.91,7.91 0 0 1 -5.78,-2.25 z"
     id="path470" />
  <path
     d="m 1911.72,714.99689 v -1.86 a 5.55,5.55 0 0 0 2.47,0.57 c 1.83,0 3,-0.83 3.84,-3 l 1.1,-2.77 -7.74,-19.3 h 2.09 l 6.57,16.87 6.35,-16.87 h 2 l -8.71,22.72 c -1.18,3.08 -2.89,4.22 -5.39,4.22 a 6,6 0 0 1 -2.58,-0.58 z"
     id="path472" />
  <path
     d="m 1195.83,489.49689 c -3.39,0 -5.47,-2.59 -5.74,-6.39 l -0.49,-7 h -1.67 c -3.19,0 -4.56,2.32 -4.56,5.24 0,2.92 1.36,5.21 4.21,5.4 v 1.9 c -3.91,-0.27 -6,-3.42 -6,-7.22 0,-4.33 2.13,-7.22 6.5,-7.22 h 9.38 c 1.3,0 2.06,-0.19 2.06,-1.49 a 2.37,2.37 0 0 0 0,-0.53 h 1.67 a 3.39,3.39 0 0 1 0.11,0.91 c 0,2.36 -1.78,3 -3.8,3 2.7,1 4.18,3.91 4.18,6.84 -0.04,3.71 -2.28,6.56 -5.85,6.56 z m -3.5,-13.38 h -1 l 0.41,6.8 c 0.19,2.93 1.79,4.64 4,4.64 2.66,0 4.1,-2.05 4.1,-4.75 0.05,-4.78 -3.82,-6.69 -7.51,-6.69 z"
     id="path474" />
  <path
     d="m 1182.12,467.07689 v -1.75 l 3.72,-0.15 a 6.25,6.25 0 0 1 -4.25,-6.00001 c 0,-3.27 1.67,-5.17 4.1,-5.92 a 6.52,6.52 0 0 1 -4.1,-6.28 c 0,-4.44 2.93,-6.3 7,-6.3 h 12.54 v 1.9 h -12.31 c -3.34,0 -5.43,1.29 -5.43,4.6 0,3.57 3.15,5.66 7,5.66 h 10.75 v 2 h -12.31 c -3.35,0 -5.44,1.45 -5.44,4.6 0,3.65 3.42,5.74001 7.49,5.74001 h 10.25 v 1.9 z"
     id="path476" />
  <path
     d="m 1182.13,433.86688 v -1.75 l 3.61,-0.15 a 7.26,7.26 0 0 1 -4.14,-6.5 7.73,7.73 0 0 1 1.82,-5.21 c 1.86,-2.2 4.79,-3.19 8.17,-3.19 3.38,0 6.16,1 8.06,3 a 7.63,7.63 0 0 1 2,5.36 7.14,7.14 0 0 1 -4,6.53 h 11 v 1.9 z m 16,-12.69 a 9.46,9.46 0 0 0 -6.46,-2.17 c -2.7,0 -5.24,0.76 -6.8,2.58 a 5.72,5.72 0 0 0 -1.37,3.92 5.66,5.66 0 0 0 1.56,4 8.86,8.86 0 0 0 6.6,2.51 c 2.82,0 5,-0.69 6.66,-2.47 a 5.83,5.83 0 0 0 1.52,-4.1 5.58,5.58 0 0 0 -1.75,-4.27 z"
     id="path478" />
  <path
     d="m 1197.33,411.38688 h -23.71 v -2 h 23.64 c 1.29,0 2.27,-0.38 2.27,-2 a 8.38,8.38 0 0 0 -0.11,-1.63 h 1.71 a 5.74,5.74 0 0 1 0.23,1.71 c -0.03,2.5 -1.26,3.92 -4.03,3.92 z"
     id="path480" />
  <path
     d="m 1174.2,399.38688 h 2.81 v 2.58 h -2.82 z m 7.94,0.31 h 19 v 1.94 h -19 z"
     id="path482" />
  <path
     d="m 1196.2,390.73688 h -12.31 v 4.48 h -1.75 v -4.48 h -5.24 l -0.46,-1.9 h 5.7 v -6 h 1.75 v 6 h 12 c 2.09,0 3.69,-0.64 3.69,-3.42 a 12.07,12.07 0 0 0 -0.34,-2.81 h 1.67 a 9.62,9.62 0 0 1 0.45,3 c 0.04,3.69 -2.12,5.13 -5.16,5.13 z"
     id="path484" />
  <path
     d="m 1194.41,378.27688 h -12.27 v -1.89 h 12.19 c 3.31,0 5.51,-1.63 5.51,-5 0,-4.41 -3.53,-6.23 -7.79,-6.23 h -9.87 v -1.9 h 19 v 1.75 l -3.57,0.15 a 6.76,6.76 0 0 1 4.1,6.35 c -0.04,4.3 -3.04,6.77 -7.3,6.77 z"
     id="path486" />
  <path
     d="m 1199.85,354.29688 c -1.86,2.2 -4.9,3.19 -8.17,3.19 a 10.81,10.81 0 0 1 -8,-3 7.86,7.86 0 0 1 -2.09,-5.55 6.66,6.66 0 0 1 3.84,-6.31 h -11.82 v -1.94 h 27.51 v 1.79 l -3.61,0.15 a 7.13,7.13 0 0 1 4.14,6.46 7.76,7.76 0 0 1 -1.8,5.21 z m -1.59,-9.27 a 8.58,8.58 0 0 0 -6.61,-2.47 c -2.81,0 -5,0.64 -6.65,2.43 a 5.83,5.83 0 0 0 -1.52,4.1 5.72,5.72 0 0 0 1.71,4.26 9.39,9.39 0 0 0 6.46,2.2 c 2.7,0 5.28,-0.76 6.8,-2.58 a 6,6 0 0 0 1.37,-3.95 5.7,5.7 0 0 0 -1.56,-3.99 z"
     id="path488" />
  <path
     d="m 1199.03,332.38688 a 11.28,11.28 0 0 1 -7.3,2.5 10.79,10.79 0 0 1 -6.76,-1.9 8,8 0 0 1 -3.35,-6.65 c 0,-5.24 4.19,-8.4 9.24,-8.39 0.46,0 0.72,0 1.25,0 v 15 c 4.22,-0.07 7.75,-2.54 7.75,-6.8 a 5.74,5.74 0 0 0 -4.4,-5.81 v -2 a 7.8,7.8 0 0 1 6.23,7.79 8.26,8.26 0 0 1 -2.66,6.26 z m -8.63,-12.47 c -3.61,0.08 -7,2.32 -7,6.42 0,4.1 3.27,6.54 7,6.61 z"
     id="path490" />
  <path
     d="m 1235.75,633.28689 c 281.08,0 232.14,-397.29001 275.47,-397.29001 43.33,0 -9.89,397.29001 273.93,397.29001"
     fill="none"
     stroke="#000000"
     stroke-linecap="round"
     stroke-linejoin="round"
     stroke-width="2"
     id="path492" />
  <path
     d="m 1353.33,633.28689 c 1.34,0 2.67,0 4,0"
     fill="none"
     stroke="#000000"
     stroke-linecap="round"
     stroke-linejoin="round"
     stroke-width="2"
     id="path494" />
  <path
     d="m 1365.33,633.08689 c 267.62,-9.2 220.72,-325.55001 263.43,-325.55001 43.13,0 -9.44,322.69001 269.92,325.73001"
     fill="none"
     stroke="#000000"
     stroke-linecap="round"
     stroke-linejoin="round"
     stroke-width="2"
     stroke-dasharray="8.05, 8.05, 0, 0, 0, 0"
     id="path496" />
  <path
     d="m 1898.68,633.26689 c 1.32,0 2.66,0 4,0"
     fill="none"
     stroke="#000000"
     stroke-linecap="round"
     stroke-linejoin="round"
     stroke-width="2"
     id="path498" />
  <path
     d="m 1462.58,687.38689 h -4.73 v -2.06 h 4.73 v -3.79 a 6,6 0 0 1 6.42,-6.37 12.63,12.63 0 0 1 3.17,0.35 v 2 a 10.88,10.88 0 0 0 -3,-0.36 c -2.9,0 -4.37,1.61 -4.37,4.46 v 3.7 h 6.91 v 2.07 h -6.91 v 20.25 h -2.23 z"
     id="path500" />
  <path
     d="m 1482.12,704.01689 c 4,0 6.22,2.08 6.22,5.25 a 5,5 0 0 1 -4.32,4.92 l 4.16,8.27 h -1.48 l -4,-8 h -6 v 8 h -1.35 v -18.44 z m 4.81,5.25 c 0,-2.6 -1.77,-4 -4.81,-4 h -5.38 v 7.95 h 5.38 c 3.04,0.03 4.81,-1.35 4.81,-3.95 z"
     id="path502" />
  <path
     d="m 1493.02,720.99689 a 7.67,7.67 0 0 1 -1.72,-5 7.39,7.39 0 0 1 1.3,-4.63 5.48,5.48 0 0 1 4.55,-2.29 c 3.59,0 5.75,2.86 5.75,6.32 0,0.31 0,0.49 0,0.86 h -10.27 c 0,2.89 1.74,5.3 4.65,5.3 a 3.92,3.92 0 0 0 4,-3 h 1.35 a 5.34,5.34 0 0 1 -5.33,4.26 5.59,5.59 0 0 1 -4.28,-1.82 z m 8.52,-5.9 c 0,-2.47 -1.58,-4.79 -4.39,-4.79 a 4.58,4.58 0 0 0 -4.52,4.79 z"
     id="path504" />
  <path
     d="m 1505.57,718.49689 h 1.33 c 0.21,2.14 1.9,3.07 4,3.07 2.1,0 3.77,-0.93 3.77,-2.7 a 2.4,2.4 0 0 0 -2.39,-2.32 l -2.52,-0.33 c -2.19,-0.29 -3.67,-1.33 -3.67,-3.31 0,-2.31 2.24,-3.82 4.68,-3.82 2.81,0 4.84,1.62 4.91,4 h -1.3 c -0.18,-1.87 -1.71,-2.73 -3.61,-2.73 -1.9,0 -3.35,1 -3.35,2.48 0,1.06 0.57,1.87 2.52,2.13 l 2.47,0.33 c 2.44,0.34 3.59,2 3.59,3.54 0,2.65 -2.4,4 -5.1,4 -3.06,-0.02 -5.2,-1.66 -5.33,-4.34 z"
     id="path506" />
  <path
     d="m 1688.65,354.38688 v -27.83 h 2.23 v 27.74 c 0,1.52 0.45,2.68 2.32,2.68 a 12.47,12.47 0 0 0 1.92,-0.13 v 2 a 6.77,6.77 0 0 1 -2,0.27 c -2.86,-0.02 -4.47,-1.49 -4.47,-4.73 z"
     id="path508" />
  <path
     d="m 1701.45,356.32688 a 13.15,13.15 0 0 1 -2.94,-8.56 12.65,12.65 0 0 1 2.23,-7.94 9.4,9.4 0 0 1 7.8,-3.92 c 6.16,0 9.86,4.9 9.86,10.84 0,0.53 0,0.84 0,1.47 h -17.62 c 0.09,5 3,9.1 8,9.1 a 6.75,6.75 0 0 0 6.83,-5.18 h 2.32 c -0.67,4.19 -4.69,7.32 -9.15,7.32 a 9.64,9.64 0 0 1 -7.33,-3.13 z m 14.63,-10.12 c -0.09,-4.24 -2.72,-8.21 -7.54,-8.21 -4.82,0 -7.67,3.84 -7.76,8.21 z"
     id="path510" />
  <path
     d="m 1737.58,345.31688 -14,-8.74 v -2.46 l 15.84,10 v 2.36 l -15.88,9.95 v -2.41 z"
     id="path512" />
  <path
     d="m 1402.38,275.79688 v -27.83 h 2.23 v 27.74 c 0,1.52 0.45,2.68 2.32,2.68 a 11.28,11.28 0 0 0 1.92,-0.14 v 2 a 6.77,6.77 0 0 1 -2,0.27 c -2.86,0.01 -4.47,-1.46 -4.47,-4.72 z"
     id="path514" />
  <path
     d="m 1411.84,283.38688 a 5.16,5.16 0 0 1 3.92,-5 3.65,3.65 0 0 1 -2.94,-3.48 4.25,4.25 0 0 1 3.12,-3.92 7.37,7.37 0 0 1 -2.59,-5.84 c 0,-4.82 3.84,-7.85 8.34,-7.85 a 9.77,9.77 0 0 1 5.35,1.56 4.36,4.36 0 0 1 4.38,-3.08 4.41,4.41 0 0 1 0.84,0.09 v 1.87 a 5.63,5.63 0 0 0 -0.84,0 2.93,2.93 0 0 0 -3.08,2.41 7.54,7.54 0 0 1 1.78,5 c 0,4.81 -3.79,7.71 -8.43,7.71 a 9.35,9.35 0 0 1 -4.55,-1.07 c -1.2,0.49 -2.32,1.34 -2.32,2.68 0,2.05 2.23,2.32 4,2.32 h 4.59 c 3.44,0 5.58,0.58 7.09,2 a 5.25,5.25 0 0 1 1.7,4.11 c 0,5 -5.22,6.82 -10.53,6.82 -5.46,0.04 -9.83,-1.88 -9.83,-6.33 z m 18.15,-0.4 c 0,-3.21 -2.9,-4.11 -6.38,-4.11 h -6 c -2,0.49 -3.7,1.7 -3.7,4.29 0,3.47 3.88,4.54 7.81,4.54 4.25,0.04 8.27,-1.03 8.27,-4.68 z m -2.1,-17.84 c 0,-3.71 -2.72,-5.89 -6.2,-5.89 -3.48,0 -6.15,2.18 -6.15,5.89 0,3.71 2.67,5.75 6.15,5.75 3.48,0 6.2,-2.06 6.2,-5.71 z"
     id="path516" />
  <path
     d="m 1450.41,266.74688 -14,-8.74 v -2.46 l 15.83,10 v 2.36 l -15.88,10 v -2.41 z"
     id="path518" />
  <line
     x1="1496.14"
     y1="261.80692"
     x2="1498.14"
     y2="261.80692"
     fill="none"
     stroke="#009ee0"
     stroke-linecap="round"
     stroke-linejoin="round"
     stroke-width="2"
     id="line520" />
  <line
     x1="1506.0399"
     y1="261.80692"
     x2="1821.75"
     y2="261.80692"
     fill="none"
     stroke="#009ee0"
     stroke-linecap="round"
     stroke-linejoin="round"
     stroke-width="2"
     stroke-dasharray="3.95, 7.89"
     id="line522" />
  <line
     x1="1825.6899"
     y1="261.80692"
     x2="1827.6899"
     y2="261.80692"
     fill="none"
     stroke="#009ee0"
     stroke-linecap="round"
     stroke-linejoin="round"
     stroke-width="2"
     id="line524" />
  <line
     x1="1496.14"
     y1="592.36688"
     x2="1498.14"
     y2="592.36688"
     fill="none"
     stroke="#009ee0"
     stroke-linecap="round"
     stroke-linejoin="round"
     stroke-width="2"
     id="line526" />
  <line
     x1="1506.0399"
     y1="592.36688"
     x2="1821.74"
     y2="592.36688"
     fill="none"
     stroke="#009ee0"
     stroke-linecap="round"
     stroke-linejoin="round"
     stroke-width="2"
     stroke-dasharray="3.95, 7.89"
     id="line528" />
  <line
     x1="1825.6799"
     y1="592.36688"
     x2="1827.6799"
     y2="592.36688"
     fill="none"
     stroke="#009ee0"
     stroke-linecap="round"
     stroke-linejoin="round"
     stroke-width="2"
     id="line530" />
  <line
     x1="1827.7999"
     y1="578.01678"
     x2="1827.7999"
     y2="276.15689"
     fill="none"
     stroke="#000000"
     stroke-miterlimit="10"
     stroke-width="2"
     id="line532" />
  <polygon
     points="1928.37,1623.44 1948.32,1623.44 1938.34,1640.71 "
     id="polygon534"
     transform="translate(-110.54,-1048.3431)" />
  <polygon
     points="1928.37,1327.42 1948.32,1327.42 1938.34,1310.15 "
     id="polygon536"
     transform="translate(-110.54,-1048.3431)" />
  <line
     x1="1496.14"
     y1="651.15692"
     x2="1496.14"
     y2="208.06693"
     fill="none"
     stroke="#009ee0"
     stroke-linecap="round"
     stroke-linejoin="round"
     stroke-width="2"
     id="line538" />
  <path
     d="m 807.4,447.73688 a 86,86 0 0 1 0,-162.44"
     fill="none"
     stroke="#000000"
     stroke-linecap="round"
     stroke-linejoin="round"
     stroke-width="2"
     id="path542" />
  <path
     d="m 864.24,285.28688 a 86.06,86.06 0 0 1 0,162.45"
     fill="none"
     stroke="#000000"
     stroke-linecap="round"
     stroke-linejoin="round"
     stroke-width="2"
     id="path544" />
  <path
     d="m 899.33,366.52688 a 63.54,63.54 0 1 1 -63.53,-63.55 63.53,63.53 0 0 1 63.53,63.55 z"
     fill="#ffffff"
     stroke="#000000"
     stroke-miterlimit="10"
     stroke-width="2"
     id="path546" />
  <path
     d="m 838.52,378.89688 a 19.15,19.15 0 0 1 -22.87,-2.1 c -5.64,-5.28 -6.46,-13.13 -6.46,-20 0,-6.87 0.82,-14.76 6.46,-20 a 19.08,19.08 0 0 1 25.62,0 c 5.7,5.21 6.52,13.06 6.52,20 0,7.64 -1.23,15.49 -6.8,20.23 l 4.54,5.69 -2.48,2 z m -2.2,-2.64 -7.83,-9.88 2.47,-2 7.9,9.88 c 4.68,-4.6 5.16,-11.91 5.16,-17.52 0,-5.61 -0.48,-13.06 -5.36,-17.67 a 14.86,14.86 0 0 0 -10.17,-3.79 14.56,14.56 0 0 0 -10.17,3.79 c -4.87,4.67 -5.42,12 -5.42,17.67 0,5.67 0.48,13.06 5.42,17.73 a 14.88,14.88 0 0 0 10.17,3.79 15.86,15.86 0 0 0 7.84,-2 z"
     id="path548" />
  <path
     d="m 853.24,383.51688 v -2.21 l 7.62,-5.33 h 1.8 v 27.35 h -2 v -24.94 z"
     id="path550" />
  <polyline
     points="570.39 1252.87 576.07 1234.42 587.45 1271.31 598.81 1234.42 610.16 1271.31 621.54 1234.42 632.89 1271.31 644.28 1234.42 655.63 1271.31 661.31 1252.87"
     fill="none"
     stroke="#000000"
     stroke-linecap="round"
     stroke-linejoin="round"
     stroke-width="2"
     id="polyline552"
     transform="translate(-110.54,-886.34312)" />
  <line
     x1="550.77002"
     y1="366.51688"
     x2="570.89001"
     y2="366.51688"
     fill="none"
     stroke="#000000"
     stroke-linecap="round"
     stroke-linejoin="round"
     stroke-width="2"
     id="line554" />
  <line
     x1="439.68997"
     y1="366.51688"
     x2="459.86002"
     y2="366.51688"
     fill="none"
     stroke="#000000"
     stroke-linecap="round"
     stroke-linejoin="round"
     stroke-width="2"
     id="line556" />
  <rect
     x="439.68997"
     y="319.70694"
     width="131.2"
     height="93.610001"
     fill="none"
     stroke="#000000"
     stroke-linecap="round"
     stroke-linejoin="round"
     stroke-width="2"
     id="rect558" />
  <line
     x1="439.69998"
     y1="622.15686"
     x2="198.82999"
     y2="622.15686"
     fill="none"
     stroke="#009ee0"
     stroke-linecap="round"
     stroke-linejoin="round"
     stroke-width="2"
     id="line560" />
  <path
     d="M 458.16,449.24688 H 445.4 l -3.23,8.47 h -2.09 l 10.44,-26.94 h 2.4 l 10.56,26.94 h -2 z m -0.72,-1.83 -5.74,-14.81 -5.62,14.78 z"
     id="path578" />
  <path
     d="m 468.88,452.77688 v -12.31 h -4.48 v -1.75 h 4.48 v -5.24 l 1.9,-0.46 v 5.7 h 6 v 1.75 h -6 v 12.05 c 0,2.09 0.64,3.68 3.42,3.68 a 11.56,11.56 0 0 0 2.81,-0.34 v 1.67 a 9.6,9.6 0 0 1 -3,0.46 c -3.68,0 -5.13,-2.17 -5.13,-5.21 z"
     id="path580" />
  <path
     d="m 483.13,452.77688 v -12.31 h -4.48 v -1.75 h 4.48 v -5.24 l 1.9,-0.46 v 5.7 h 6 v 1.75 h -6 v 12.05 c 0,2.09 0.64,3.68 3.42,3.68 a 11.56,11.56 0 0 0 2.81,-0.34 v 1.67 a 9.6,9.6 0 0 1 -3,0.46 c -3.69,0 -5.13,-2.17 -5.13,-5.21 z"
     id="path582" />
  <path
     d="m 496.66,455.58688 a 11.18,11.18 0 0 1 -2.51,-7.29 10.77,10.77 0 0 1 1.9,-6.76 8,8 0 0 1 6.65,-3.35 c 5.24,0 8.39,4.18 8.39,9.23 0,0.46 0,0.73 0,1.26 h -15 c 0.07,4.22 2.54,7.75 6.8,7.75 a 5.74,5.74 0 0 0 5.81,-4.41 h 2 a 7.8,7.8 0 0 1 -7.79,6.23 8.18,8.18 0 0 1 -6.25,-2.66 z m 12.46,-8.62 c -0.08,-3.61 -2.32,-7 -6.42,-7 -4.1,0 -6.54,3.27 -6.61,7 z"
     id="path584" />
  <path
     d="m 516.33,438.71688 h 1.75 l 0.15,3.65 a 7.14,7.14 0 0 1 6.61,-4.18 c 4.33,0 6.73,2.89 6.73,7.11 v 12.42 h -1.9 v -12.23 c 0,-3.2 -1.64,-5.44 -5,-5.44 -4.22,0 -6.42,3.5 -6.42,7.72 v 9.95 h -1.92 z"
     id="path586" />
  <path
     d="m 537.81,450.99688 v -12.28 h 1.9 v 12.16 c 0,3.31 1.63,5.51 5,5.51 4.4,0 6.23,-3.53 6.23,-7.79 v -9.88 h 1.9 v 19 h -1.75 l -0.15,-3.57 a 6.77,6.77 0 0 1 -6.35,4.1 c -4.26,0 -6.78,-3 -6.78,-7.25 z"
     id="path588" />
  <path
     d="m 557.95,452.43688 c 0,-3.38 2.58,-5.47 6.38,-5.74 l 7,-0.49 v -1.67 c 0,-3.2 -2.31,-4.56 -5.24,-4.56 -2.93,0 -5.2,1.36 -5.39,4.21 h -1.9 c 0.26,-3.91 3.42,-6 7.22,-6 4.33,0 7.21,2.13 7.21,6.5 v 9.38 c 0,1.3 0.19,2 1.49,2 a 3.14,3.14 0 0 0 0.53,0 v 1.67 a 3.84,3.84 0 0 1 -0.91,0.11 c -2.36,0 -3,-1.78 -3,-3.8 -1,2.7 -3.91,4.18 -6.83,4.18 -3.71,0.02 -6.56,-2.22 -6.56,-5.79 z m 13.37,-3.5 v -1 l -6.8,0.41 c -2.92,0.19 -4.63,1.79 -4.63,4 0,2.66 2.05,4.1 4.75,4.1 4.79,0.05 6.69,-3.82 6.69,-7.51 z"
     id="path590" />
  <path
     d="m 581.93,452.77688 v -12.31 h -4.49 v -1.75 h 4.49 v -5.24 l 1.9,-0.46 v 5.7 h 6 v 1.75 h -6 v 12.05 c 0,2.09 0.64,3.68 3.42,3.68 a 11.56,11.56 0 0 0 2.81,-0.34 v 1.67 a 9.6,9.6 0 0 1 -3,0.46 c -3.73,0 -5.13,-2.17 -5.13,-5.21 z"
     id="path592" />
  <path
     d="m 595.87,456.00688 c -2.09,-2 -2.88,-4.52 -2.88,-7.79 0,-3.27 0.79,-5.77 2.88,-7.79 a 8.37,8.37 0 0 1 11.4,0 c 2.09,2 2.89,4.56 2.89,7.79 0,3.23 -0.8,5.78 -2.89,7.79 a 8.37,8.37 0 0 1 -11.4,0 z m 10.07,-1.29 c 1.79,-1.75 2.28,-4 2.28,-6.5 0,-2.5 -0.49,-4.75 -2.28,-6.5 a 6.55,6.55 0 0 0 -8.74,0 c -1.78,1.75 -2.28,4 -2.28,6.5 0,2.5 0.5,4.75 2.28,6.5 a 6.55,6.55 0 0 0 8.74,0 z"
     id="path594" />
  <path
     d="m 615.6,438.71688 h 1.73 l 0.15,3.92 a 6.19,6.19 0 0 1 6.12,-4.11 5.75,5.75 0 0 1 1.79,0.19 v 1.83 a 7.89,7.89 0 0 0 -1.86,-0.19 c -4.41,0 -6.05,3.64 -6.05,7.86 v 9.5 h -1.89 z"
     id="path596" />
  <path
     d="M 458.16,705.98689 H 445.4 l -3.23,8.47 h -2.09 l 10.44,-26.94 h 2.4 l 10.56,26.94 h -2 z m -0.72,-1.83 -5.74,-14.77 -5.62,14.81 z"
     id="path598" />
  <path
     d="m 466.94,695.45689 h 1.75 l 0.15,3.73 a 6.23,6.23 0 0 1 6,-4.26 c 3.26,0 5.16,1.67 5.92,4.11 a 6.51,6.51 0 0 1 6.27,-4.11 c 4.45,0 6.31,2.93 6.31,7 v 12.54 h -1.9 v -12.31 c 0,-3.34 -1.29,-5.43 -4.6,-5.43 -3.57,0 -5.66,3.15 -5.66,7 v 10.75 h -2 v -12.31 c 0,-3.34 -1.45,-5.43 -4.6,-5.43 -3.65,0 -5.74,3.42 -5.74,7.48 v 10.26 h -1.9 z"
     id="path600" />
  <path
     d="m 499.77,695.45689 h 1.75 l 0.15,3.61 a 7.28,7.28 0 0 1 6.5,-4.14 7.65,7.65 0 0 1 5.2,1.83 c 2.21,1.86 3.2,4.78 3.2,8.16 0,3.38 -1,6.16 -3,8.06 a 7.6,7.6 0 0 1 -5.36,2 7.13,7.13 0 0 1 -6.54,-4 v 11 h -1.9 z m 12.69,16 a 9.44,9.44 0 0 0 2.17,-6.46 c 0,-2.7 -0.76,-5.24 -2.58,-6.8 a 5.79,5.79 0 0 0 -3.92,-1.37 5.7,5.7 0 0 0 -4,1.56 8.81,8.81 0 0 0 -2.51,6.61 c 0,2.81 0.69,5 2.47,6.65 a 5.84,5.84 0 0 0 4.11,1.52 5.52,5.52 0 0 0 4.26,-1.78 z"
     id="path602" />
  <path
     d="m 521.93,710.65689 v -23.71 h 1.9 v 23.64 c 0,1.29 0.38,2.28 2,2.28 a 9.33,9.33 0 0 0 1.64,-0.12 v 1.71 a 5.79,5.79 0 0 1 -1.71,0.23 c -2.43,0 -3.83,-1.25 -3.83,-4.03 z"
     id="path604" />
  <path
     d="m 533.48,687.51689 v 2.81 h -2.59 v -2.81 z m -0.31,7.94 v 19 h -1.93 v -19 z"
     id="path606" />
  <path
     d="m 541.38,697.20689 h -4 v -1.75 h 4 v -3.23 a 5.15,5.15 0 0 1 5.47,-5.43 10.12,10.12 0 0 1 2.7,0.31 v 1.7 a 9.11,9.11 0 0 0 -2.55,-0.3 c -2.47,0 -3.72,1.37 -3.72,3.8 v 3.15 h 5.89 v 1.75 h -5.84 v 17.25 h -1.9 z"
     id="path608" />
  <path
     d="m 555.33,687.51689 v 2.81 h -2.58 v -2.81 z m -0.3,7.94 v 19 h -1.94 v -19 z"
     id="path610" />
  <path
     d="m 562.93,712.32689 a 11.18,11.18 0 0 1 -2.51,-7.29 10.77,10.77 0 0 1 1.9,-6.76 8,8 0 0 1 6.65,-3.35 c 5.24,0 8.39,4.18 8.39,9.23 0,0.46 0,0.73 0,1.26 h -15.03 c 0.07,4.22 2.54,7.75 6.8,7.75 a 5.74,5.74 0 0 0 5.81,-4.41 h 2 a 7.8,7.8 0 0 1 -7.79,6.23 8.18,8.18 0 0 1 -6.22,-2.66 z m 12.46,-8.62 c -0.08,-3.61 -2.32,-7 -6.42,-7 -4.1,0 -6.54,3.27 -6.61,7 z"
     id="path612" />
  <path
     d="m 582.61,695.45689 h 1.72 l 0.15,3.92 a 6.19,6.19 0 0 1 6.12,-4.11 5.69,5.69 0 0 1 1.78,0.19 v 1.83 a 7.78,7.78 0 0 0 -1.86,-0.19 c -4.41,0 -6,3.65 -6,7.86 v 9.5 h -1.9 z"
     id="path614" />
  <polygon
     points="550.24,1508.51 632.83,1556.23 632.83,1460.78 "
     fill="none"
     stroke="#000000"
     stroke-linecap="round"
     stroke-linejoin="round"
     stroke-width="2"
     id="polygon616"
     transform="translate(-110.54,-886.34312)" />
  <line
     x1="536.64001"
     y1="622.15686"
     x2="1007.3"
     y2="622.15686"
     fill="none"
     stroke="#009ee0"
     stroke-linecap="round"
     stroke-linejoin="round"
     stroke-width="2"
     id="line618" />
  <polygon
     points="650.1,1518.47 632.83,1508.5 650.1,1498.53 "
     fill="#009ee0"
     id="polygon620"
     transform="translate(-110.54,-886.34312)" />
  <line
     x1="171.44998"
     y1="366.51688"
     x2="425.34"
     y2="366.51688"
     fill="none"
     stroke="#009ee0"
     stroke-linecap="round"
     stroke-linejoin="round"
     stroke-width="2"
     id="line622" />
  <polygon
     points="532.97,1262.84 550.23,1252.86 532.97,1242.89 "
     fill="#009ee0"
     id="polygon624"
     transform="translate(-110.54,-886.34312)" />
  <line
     x1="25.499992"
     y1="366.51688"
     x2="1"
     y2="366.51688"
     fill="none"
     stroke="#009ee0"
     stroke-linecap="round"
     stroke-linejoin="round"
     stroke-width="2"
     id="line626" />
  <path
     d="m 171.45,366.50688 h -9.89 c -3.47,0 -4,-25.74 -7.48,-25.74 -3.48,0 -2.94,68.77 -6.42,68.77 -3.48,0 -4,-87.5 -7.48,-87.5 -3.48,0 -2.94,91.19 -6.42,91.19 -3.48,0 -4,-93.81 -7.48,-93.81 -3.48,0 -2.94,95.13 -6.42,95.13 -3.48,0 -4,-96.08 -7.48,-96.08 -3.48,0 -2.94,96.08 -6.42,96.08 -3.48,0 -4,-96.08 -7.480001,-96.08"
     fill="none"
     stroke="#009ee0"
     stroke-miterlimit="10"
     stroke-width="2"
     id="path628" />
  <path
     d="m 25.509999,366.50688 h 9.89 c 3.47,0 4,-25.74 7.48,-25.74 3.48,0 2.94,68.77 6.42,68.77 3.48,0 4,-87.5 7.48,-87.5 3.48,0 2.94,91.19 6.42,91.19 3.48,0 4,-93.81 7.48,-93.81 3.48,0 2.94,95.13 6.42,95.13 3.48,0 4,-96.08 7.48,-96.08 3.48,0 2.94,96.08 6.42,96.08 3.48,0 4,-96.08 7.48,-96.08"
     fill="none"
     stroke="#009ee0"
     stroke-linecap="round"
     stroke-linejoin="round"
     stroke-width="2"
     id="path630" />
</svg>
