<?xml version="1.0" encoding="UTF-8" standalone="no"?>
<svg
   id="Ebene_1"
   viewBox="0 0 2034.7677 1003.112"
   version="1.1"
   sodipodi:docname="TimeTagger_blog.svg"
   inkscape:version="1.2.1 (9c6d41e410, 2022-07-14)"
   width="2034.7677"
   height="1003.112"
   inkscape:export-filename="TimeTagger_blog.png"
   inkscape:export-xdpi="96"
   inkscape:export-ydpi="96"
   xmlns:inkscape="http://www.inkscape.org/namespaces/inkscape"
   xmlns:sodipodi="http://sodipodi.sourceforge.net/DTD/sodipodi-0.dtd"
   xmlns="http://www.w3.org/2000/svg"
   xmlns:svg="http://www.w3.org/2000/svg">
  <sodipodi:namedview
     id="namedview4843"
     pagecolor="#ffffff"
     bordercolor="#000000"
     borderopacity="0.25"
     inkscape:showpageshadow="2"
     inkscape:pageopacity="0.0"
     inkscape:pagecheckerboard="0"
     inkscape:deskcolor="#d1d1d1"
     showgrid="false"
     inkscape:zoom="0.59346308"
     inkscape:cx="2529.2222"
     inkscape:cy="407.776"
     inkscape:window-width="3440"
     inkscape:window-height="1369"
     inkscape:window-x="-8"
     inkscape:window-y="-8"
     inkscape:window-maximized="1"
     inkscape:current-layer="Ebene_1" />
  <defs
     id="defs3828">
    <style
       id="style3821">
      .cls-1 {
        stroke: #6c3;
      }

      .cls-1, .cls-2, .cls-3, .cls-4, .cls-5, .cls-6, .cls-7, .cls-8, .cls-9, .cls-10, .cls-11, .cls-12, .cls-13, .cls-14, .cls-15, .cls-16, .cls-17 {
        fill: none;
      }

      .cls-1, .cls-3, .cls-4, .cls-5, .cls-7, .cls-8, .cls-9, .cls-13, .cls-14, .cls-15, .cls-18, .cls-16 {
        stroke-linejoin: round;
      }

      .cls-1, .cls-3, .cls-4, .cls-7, .cls-8, .cls-9, .cls-13, .cls-14, .cls-15, .cls-18 {
        stroke-linecap: round;
      }

      .cls-1, .cls-7, .cls-14, .cls-15 {
        stroke-width: 4px;
      }

      .cls-19 {
        fill: #5ec5ed;
      }

      .cls-20 {
        fill: #fc0;
      }

      .cls-21 {
        fill: url(#Unbenannter_Verlauf_3);
      }

      .cls-2, .cls-3, .cls-4, .cls-8, .cls-9, .cls-18, .cls-17 {
        stroke-width: 2px;
      }

      .cls-2, .cls-9 {
        stroke: #172983;
      }

      .cls-3, .cls-7 {
        stroke: red;
      }

      .cls-4 {
        stroke: #000;
      }

      .cls-22, .cls-18 {
        fill: #1d1d1b;
      }

      .cls-23 {
        fill: #009ee0;
      }

      .cls-5, .cls-8, .cls-12, .cls-13, .cls-14, .cls-18 {
        stroke: #1d1d1b;
      }

      .cls-5, .cls-12 {
        stroke-width: 5px;
      }

      .cls-6 {
        stroke-width: 2.9px;
      }

      .cls-6, .cls-10, .cls-11, .cls-16 {
        stroke: #fff;
      }

      .cls-24 {
        fill: #fff;
      }

      .cls-10 {
        stroke-width: 1.94px;
      }

      .cls-11 {
        stroke-width: 1.97px;
      }

      .cls-12, .cls-17 {
        stroke-miterlimit: 10;
      }

      .cls-25 {
        fill: #172983;
      }

      .cls-26 {
        fill: red;
      }

      .cls-27 {
        fill: #6c3;
      }

      .cls-15 {
        stroke: #fc0;
      }

      .cls-16 {
        stroke-linecap: square;
        stroke-width: 1.94px;
      }

      .cls-17 {
        stroke: #009ee0;
      }
    </style>
    <linearGradient
       id="Unbenannter_Verlauf_3"
       data-name="Unbenannter Verlauf 3"
       x1="604.71997"
       y1="1091.27"
       x2="604.71997"
       y2="1296.48"
       gradientUnits="userSpaceOnUse">
      <stop
         offset="0"
         stop-color="#5ec5ed"
         id="stop3823" />
      <stop
         offset="1"
         stop-color="#009ee0"
         id="stop3825" />
    </linearGradient>
  </defs>
  <rect
     class="cls-9"
     x="1"
     y="26.18"
     width="1364.98"
     height="411.35001"
     id="rect4032" />
  <rect
     class="cls-19"
     x="1145.74"
     width="165.08"
     height="52.349998"
     id="rect4034"
     y="0" />
  <g
     id="g4056">
    <path
       class="cls-24"
       d="m 1168.84,14.48 v 2.29 h -10.05 v 6.45 h 8.94 v 2.35 h -8.94 v 8.71 h -2.49 v -19.8 z"
       id="path4036" />
    <path
       class="cls-24"
       d="m 1171.74,20.18 h 2.12 l 0.2,2.46 c 0.73,-1.81 2.43,-2.57 4.22,-2.57 0.36,0 0.75,0.03 1.12,0.08 v 2.37 c -0.31,-0.08 -0.67,-0.14 -1.12,-0.14 -3.1,0 -4.16,2.32 -4.16,5.05 v 6.84 h -2.37 v -14.1 z"
       id="path4038" />
    <path
       class="cls-24"
       d="m 1183.55,33.02 c -1.59,-1.51 -2.07,-3.57 -2.07,-5.81 0,-2.24 0.47,-4.27 2.07,-5.78 1.06,-1.01 2.54,-1.65 4.38,-1.65 1.84,0 3.32,0.64 4.38,1.65 1.59,1.51 2.07,3.55 2.07,5.78 0,2.23 -0.47,4.3 -2.07,5.81 -1.06,1 -2.54,1.65 -4.38,1.65 -1.84,0 -3.32,-0.64 -4.38,-1.65 z m 7.04,-1.39 c 1.03,-1.03 1.37,-2.54 1.37,-4.41 0,-1.87 -0.34,-3.35 -1.37,-4.38 -0.59,-0.59 -1.51,-1.01 -2.65,-1.01 -1.14,0 -2.07,0.42 -2.65,1.01 -1.03,1.03 -1.37,2.51 -1.37,4.38 0,1.87 0.34,3.38 1.37,4.41 0.59,0.59 1.51,1.01 2.65,1.01 1.14,0 2.07,-0.42 2.65,-1.01 z"
       id="path4040" />
    <path
       class="cls-24"
       d="m 1198.43,20.18 h 2.07 l 0.2,2.18 c 0.73,-1.68 2.76,-2.57 4.36,-2.57 3.21,0 4.97,1.93 4.97,5.19 v 9.3 h -2.37 v -8.96 c 0,-2.07 -0.95,-3.38 -3.04,-3.38 -2.37,0 -3.8,2.07 -3.8,4.69 v 7.65 h -2.37 v -14.1 z"
       id="path4042" />
    <path
       class="cls-24"
       d="m 1216.05,30.42 v -8.21 h -3.1 v -2.04 h 3.1 v -3.74 l 2.37,-0.56 v 4.3 h 4.02 v 2.04 h -4.02 v 7.93 c 0,1.45 0.75,2.12 2.07,2.12 0.81,0 1.59,-0.14 2.09,-0.28 v 2.04 c -0.53,0.2 -1.28,0.42 -2.49,0.42 -3.04,0 -4.05,-2.12 -4.05,-4.02 z"
       id="path4044" />
    <path
       class="cls-24"
       d="m 1239.92,14.48 c 4.05,0 6.7,2.12 6.7,5.89 0,3.77 -2.65,5.89 -6.7,5.89 h -4.69 v 8.01 h -2.48 V 14.48 h 7.18 z m 4.13,5.89 c 0,-2.43 -1.54,-3.63 -4.19,-3.63 h -4.64 V 24 h 4.64 c 2.65,0 4.19,-1.2 4.19,-3.63 z"
       id="path4046" />
    <path
       class="cls-24"
       d="m 1248.66,30.31 c 0,-1.81 1.17,-4.22 5.03,-4.44 l 4.3,-0.25 v -0.98 c 0,-2.01 -1.03,-2.93 -3.07,-2.93 -1.93,0 -3.24,0.98 -3.24,2.57 h -2.32 c 0.06,-2.88 2.49,-4.5 5.56,-4.5 3.29,0 5.42,1.73 5.42,4.89 v 6.84 c 0,0.75 0.31,0.95 0.78,0.95 0.11,0 0.39,-0.03 0.61,-0.08 v 1.76 c -0.5,0.25 -0.98,0.33 -1.56,0.33 -1.26,0 -2.07,-0.95 -2.07,-2.15 -0.84,1.37 -2.57,2.35 -4.58,2.35 -3.24,0 -4.86,-2.18 -4.86,-4.36 z m 9.33,-2.01 v -0.84 l -4.08,0.22 c -1.4,0.08 -2.82,0.84 -2.82,2.57 0,1.17 0.78,2.43 2.79,2.43 2.57,0 4.1,-1.93 4.1,-4.38 z"
       id="path4048" />
    <path
       class="cls-24"
       d="m 1265.41,20.18 h 2.07 l 0.2,2.18 c 0.73,-1.68 2.76,-2.57 4.36,-2.57 3.21,0 4.97,1.93 4.97,5.19 v 9.3 h -2.37 v -8.96 c 0,-2.07 -0.95,-3.38 -3.04,-3.38 -2.37,0 -3.8,2.07 -3.8,4.69 v 7.65 h -2.37 v -14.1 z"
       id="path4050" />
    <path
       class="cls-24"
       d="m 1282.66,32.55 c -1.2,-1.37 -1.79,-3.24 -1.79,-5.25 0,-1.7 0.31,-3.21 1.12,-4.52 1.03,-1.7 2.93,-2.99 5.45,-2.99 3.85,0 6.2,3.07 6.2,6.81 0,0.45 0,1.01 -0.06,1.42 h -10.22 c 0,2.62 1.59,4.55 4.27,4.55 1.62,0 2.93,-0.81 3.41,-2.49 h 2.37 c -0.39,2.68 -2.93,4.58 -5.81,4.58 -2.04,0 -3.8,-0.81 -4.94,-2.12 z m 8.55,-6.57 c 0,-2.43 -1.34,-4.19 -3.83,-4.19 -2.49,0 -3.91,2.12 -3.97,4.19 h 7.79 z"
       id="path4052" />
    <path
       class="cls-24"
       d="M 1297.55,31.15 V 14.06 h 2.37 v 16.81 c 0,0.95 0.31,1.45 1.28,1.45 0.17,0 0.39,0 0.98,-0.06 v 2.01 c -0.5,0.14 -0.84,0.2 -1.54,0.2 -1.95,0 -3.1,-1.09 -3.1,-3.32 z"
       id="path4054" />
  </g>
  <path
     class="cls-9"
     d="m 56.68,199.93 c 0,-10.13 8.21,-18.33 18.33,-18.33 10.12,0 18.33,8.21 18.33,18.33 0,10.12 -8.21,18.33 -18.33,18.33 -10.12,0 -18.33,-8.21 -18.33,-18.33 z"
     id="path4058" />
  <g
     id="CIRCLE">
    <path
       class="cls-9"
       d="m 56.68,128.34 c 0,-10.13 8.21,-18.33 18.33,-18.33 10.12,0 18.33,8.21 18.33,18.33 0,10.12 -8.21,18.33 -18.33,18.33 -10.12,0 -18.33,-8.21 -18.33,-18.33 z"
       id="path4060" />
  </g>
  <g
     id="CIRCLE-2"
     data-name="CIRCLE">
    <path
       class="cls-9"
       d="m 56.68,271.52 c 0,-10.13 8.21,-18.33 18.33,-18.33 10.12,0 18.33,8.21 18.33,18.33 0,10.12 -8.21,18.33 -18.33,18.33 -10.12,0 -18.33,-8.21 -18.33,-18.33 z"
       id="path4063" />
  </g>
  <path
     class="cls-9"
     d="m 56.68,343.11 c 0,-10.13 8.21,-18.33 18.33,-18.33 10.12,0 18.33,8.21 18.33,18.33 0,10.12 -8.21,18.33 -18.33,18.33 -10.12,0 -18.33,-8.21 -18.33,-18.33 z"
     id="path4066" />
  <g
     id="CIRCLE-3"
     data-name="CIRCLE">
    <path
       class="cls-9"
       d="m 321.6,128.34 c 0,-10.13 8.21,-18.33 18.33,-18.33 10.12,0 18.33,8.21 18.33,18.33 0,10.12 -8.21,18.33 -18.33,18.33 -10.12,0 -18.33,-8.21 -18.33,-18.33 z"
       id="path4068" />
  </g>
  <g
     id="CIRCLE-4"
     data-name="CIRCLE">
    <path
       class="cls-9"
       d="m 321.6,199.93 c 0,-10.13 8.21,-18.33 18.33,-18.33 10.12,0 18.33,8.21 18.33,18.33 0,10.12 -8.21,18.33 -18.33,18.33 -10.12,0 -18.33,-8.21 -18.33,-18.33 z"
       id="path4071" />
  </g>
  <g
     id="CIRCLE-5"
     data-name="CIRCLE">
    <path
       class="cls-9"
       d="m 321.6,271.51 c 0,-10.13 8.21,-18.33 18.33,-18.33 10.12,0 18.33,8.21 18.33,18.33 0,10.12 -8.21,18.33 -18.33,18.33 -10.12,0 -18.33,-8.21 -18.33,-18.33 z"
       id="path4074" />
  </g>
  <g
     id="CIRCLE-6"
     data-name="CIRCLE">
    <path
       class="cls-9"
       d="m 321.6,343.1 c 0,-10.13 8.21,-18.33 18.33,-18.33 10.12,0 18.33,8.21 18.33,18.33 0,10.12 -8.21,18.33 -18.33,18.33 -10.12,0 -18.33,-8.21 -18.33,-18.33 z"
       id="path4077" />
  </g>
  <g
     id="CIRCLE-7"
     data-name="CIRCLE">
    <path
       class="cls-9"
       d="m 586.52,128.33 c 0,-10.13 8.21,-18.33 18.33,-18.33 10.12,0 18.33,8.21 18.33,18.33 0,10.12 -8.21,18.33 -18.33,18.33 -10.12,0 -18.33,-8.21 -18.33,-18.33 z"
       id="path4080" />
  </g>
  <g
     id="CIRCLE-8"
     data-name="CIRCLE">
    <path
       class="cls-9"
       d="m 586.51,199.92 c 0,-10.13 8.21,-18.33 18.33,-18.33 10.12,0 18.33,8.21 18.33,18.33 0,10.12 -8.21,18.33 -18.33,18.33 -10.12,0 -18.33,-8.21 -18.33,-18.33 z"
       id="path4083" />
  </g>
  <g
     id="CIRCLE-9"
     data-name="CIRCLE">
    <path
       class="cls-9"
       d="m 586.51,271.5 c 0,-10.13 8.21,-18.33 18.33,-18.33 10.12,0 18.33,8.21 18.33,18.33 0,10.12 -8.21,18.33 -18.33,18.33 -10.12,0 -18.33,-8.21 -18.33,-18.33 z"
       id="path4086" />
  </g>
  <g
     id="CIRCLE-10"
     data-name="CIRCLE">
    <path
       class="cls-9"
       d="m 586.51,343.09 c 0,-10.13 8.21,-18.33 18.33,-18.33 10.12,0 18.33,8.21 18.33,18.33 0,10.12 -8.21,18.33 -18.33,18.33 -10.12,0 -18.33,-8.21 -18.33,-18.33 z"
       id="path4089" />
  </g>
  <g
     id="CIRCLE-11"
     data-name="CIRCLE">
    <path
       class="cls-9"
       d="m 851.43,128.34 c 0,-10.13 8.21,-18.33 18.33,-18.33 10.12,0 18.33,8.21 18.33,18.33 0,10.12 -8.21,18.33 -18.33,18.33 -10.12,0 -18.33,-8.21 -18.33,-18.33 z"
       id="path4092" />
  </g>
  <g
     id="CIRCLE-12"
     data-name="CIRCLE">
    <path
       class="cls-9"
       d="m 851.43,199.93 c 0,-10.13 8.21,-18.33 18.33,-18.33 10.12,0 18.33,8.21 18.33,18.33 0,10.12 -8.21,18.33 -18.33,18.33 -10.12,0 -18.33,-8.21 -18.33,-18.33 z"
       id="path4095" />
  </g>
  <g
     id="CIRCLE-13"
     data-name="CIRCLE">
    <path
       class="cls-9"
       d="m 851.43,271.52 c 0,-10.13 8.21,-18.33 18.33,-18.33 10.12,0 18.33,8.21 18.33,18.33 0,10.12 -8.21,18.33 -18.33,18.33 -10.12,0 -18.33,-8.21 -18.33,-18.33 z"
       id="path4098" />
  </g>
  <g
     id="CIRCLE-14"
     data-name="CIRCLE">
    <path
       class="cls-9"
       d="m 851.43,343.11 c 0,-10.13 8.21,-18.33 18.33,-18.33 10.12,0 18.33,8.21 18.33,18.33 0,10.12 -8.21,18.33 -18.33,18.33 -10.12,0 -18.33,-8.21 -18.33,-18.33 z"
       id="path4101" />
  </g>
  <line
     class="cls-17"
     x1="41.150002"
     y1="389.09"
     x2="115.12"
     y2="389.09"
     id="line4104" />
  <path
     class="cls-23"
     d="m 41.91,403.81 v -1.52 l 5.15,-3.66 h 1.22 v 18.78 h -1.35 v -17.1 l -5.01,3.5 z"
     id="path4106" />
  <line
     class="cls-17"
     x1="306.07001"
     y1="389.09"
     x2="380.04001"
     y2="389.09"
     id="line4108" />
  <path
     class="cls-23"
     d="m 307.65,415.95 7.83,-8.46 c 1.25,-1.35 1.87,-2.71 1.87,-4.12 0,-2.22 -1.52,-3.82 -4.09,-3.82 -2.57,0 -4.2,1.76 -4.2,4.82 h -1.44 c 0,-3.79 2.3,-6.12 5.64,-6.12 3.09,0 5.45,1.98 5.45,5.12 0,1.68 -0.81,3.47 -2.17,4.9 l -7.34,7.83 h 10 v 1.3 h -11.54 v -1.46 z"
     id="path4110" />
  <line
     class="cls-17"
     x1="570.98999"
     y1="389.09"
     x2="644.96002"
     y2="389.09"
     id="line4112" />
  <path
     class="cls-23"
     d="m 572.51,411.86 h 1.38 c 0.03,2.38 1.52,4.63 4.74,4.63 2.87,0 4.66,-1.71 4.66,-4.09 0,-2.82 -1.9,-4.12 -4.74,-4.12 h -1.06 v -1.3 h 1.06 c 2.57,0 4.34,-1.19 4.34,-3.71 0,-2.17 -1.92,-3.71 -4.23,-3.71 -2.87,0 -4.61,1.82 -4.63,4.34 h -1.38 c 0.05,-3.36 2.55,-5.64 6.02,-5.64 3.14,0 5.61,2.03 5.61,5.01 0,2.03 -1.11,3.79 -3.28,4.36 2.36,0.57 3.71,2.52 3.71,4.77 0,3.12 -2.63,5.39 -6.07,5.39 -3.82,0 -6.04,-2.52 -6.12,-5.94 z"
     id="path4114" />
  <line
     class="cls-17"
     x1="835.90997"
     y1="389.09"
     x2="909.88"
     y2="389.09"
     id="line4116" />
  <path
     class="cls-23"
     d="m 846.1,412.99 h -9.38 v -1.63 l 8.13,-12.74 h 1.6 l -8.35,13.01 h 7.99 v -6.21 h 1.38 v 6.21 h 2.79 v 1.36 h -2.79 v 4.42 h -1.38 v -4.42 z"
     id="path4118" />
  <g
     id="g4128">
    <path
       class="cls-25"
       d="m 56.97,89.01 v -0.99 h 10.54 v 0.99 h -4.77 v 13.03 H 61.71 V 89.01 h -4.75 z"
       id="path4120" />
    <path
       class="cls-25"
       d="m 67.75,92.15 h 0.91 l 0.08,2.04 c 0.43,-1.38 1.78,-2.14 3.18,-2.14 0.3,0 0.63,0 0.93,0.1 V 93.1 C 72.53,93.02 72.2,93 71.88,93 c -2.29,0 -3.14,1.9 -3.14,4.09 v 4.94 h -0.99 v -9.89 z"
       id="path4122" />
    <path
       class="cls-25"
       d="m 76.39,88.02 v 1.46 h -1.34 v -1.46 z m -0.16,4.13 v 9.89 h -1.01 v -9.89 z"
       id="path4124" />
    <path
       class="cls-25"
       d="m 79.04,103.44 c 0,-1.03 0.67,-1.92 1.74,-2.21 -0.75,-0.16 -1.31,-0.81 -1.31,-1.54 0,-0.83 0.57,-1.44 1.38,-1.74 -0.71,-0.59 -1.15,-1.48 -1.15,-2.59 0,-2.14 1.7,-3.48 3.7,-3.48 0.89,0 1.7,0.26 2.37,0.69 0.24,-0.87 1.05,-1.36 1.94,-1.36 0.12,0 0.28,0.02 0.38,0.04 v 0.83 c -0.1,-0.02 -0.26,-0.02 -0.38,-0.02 -0.71,0 -1.23,0.4 -1.36,1.07 0.49,0.57 0.79,1.33 0.79,2.23 0,2.14 -1.68,3.42 -3.74,3.42 -0.75,0 -1.44,-0.16 -2.02,-0.47 -0.53,0.22 -1.03,0.59 -1.03,1.19 0,0.91 0.99,1.03 1.78,1.03 h 2.04 c 1.52,0 2.47,0.26 3.14,0.89 0.47,0.46 0.75,0.99 0.75,1.82 0,2.21 -2.31,3.03 -4.67,3.03 -2.36,0 -4.37,-0.85 -4.37,-2.81 z m 8.05,-0.17 c 0,-1.42 -1.29,-1.82 -2.83,-1.82 h -2.65 c -0.89,0.22 -1.64,0.75 -1.64,1.9 0,1.54 1.72,2.02 3.46,2.02 1.88,0 3.66,-0.47 3.66,-2.1 z m -0.93,-7.91 c 0,-1.64 -1.21,-2.61 -2.75,-2.61 -1.54,0 -2.73,0.97 -2.73,2.61 0,1.64 1.19,2.55 2.73,2.55 1.54,0 2.75,-0.93 2.75,-2.55 z"
       id="path4126" />
  </g>
  <g
     id="g4138">
    <path
       class="cls-25"
       d="m 71.92,159.61 v 14.02 h -1.01 v -13.11 l -5.12,12.91 h -0.91 l -5.12,-12.81 v 13.01 h -1.01 v -14.02 h 1.62 l 5,12.54 4.9,-12.54 h 1.64 z"
       id="path4130" />
    <path
       class="cls-25"
       d="m 75.03,170.88 c 0,-1.76 1.34,-2.85 3.32,-2.99 l 3.64,-0.26 v -0.87 c 0,-1.66 -1.21,-2.37 -2.73,-2.37 -1.52,0 -2.71,0.71 -2.81,2.2 h -0.99 c 0.14,-2.04 1.78,-3.12 3.76,-3.12 2.25,0 3.76,1.11 3.76,3.38 v 4.88 c 0,0.67 0.1,1.07 0.77,1.07 0.08,0 0.2,0 0.28,-0.02 v 0.87 c -0.14,0.04 -0.32,0.06 -0.47,0.06 -1.23,0 -1.56,-0.93 -1.56,-1.98 -0.53,1.4 -2.04,2.18 -3.56,2.18 -1.92,0 -3.4,-1.17 -3.4,-3.03 z m 6.96,-1.82 v -0.51 l -3.54,0.22 c -1.52,0.1 -2.41,0.93 -2.41,2.1 0,1.38 1.07,2.14 2.47,2.14 2.49,0 3.48,-2.02 3.48,-3.94 z"
       id="path4132" />
    <path
       class="cls-25"
       d="m 86.7,163.74 h 0.91 l 0.08,2.04 c 0.44,-1.38 1.78,-2.14 3.18,-2.14 0.3,0 0.63,0 0.93,0.1 v 0.95 c -0.32,-0.08 -0.65,-0.1 -0.97,-0.1 -2.29,0 -3.14,1.9 -3.14,4.09 v 4.94 H 86.7 v -9.89 z"
       id="path4134" />
    <path
       class="cls-25"
       d="m 94.17,159.31 h 1.01 v 10.44 l 5.54,-6.01 h 1.27 l -3.86,4.15 3.94,5.73 h -1.23 l -3.42,-5 -2.23,2.45 v 2.55 H 94.18 V 159.3 Z"
       id="path4136" />
  </g>
  <g
     id="g4150">
    <path
       class="cls-25"
       d="m 66.29,240.81 h -6.64 l -1.68,4.41 h -1.09 l 5.44,-14.02 h 1.25 l 5.5,14.02 H 68 l -1.7,-4.41 z m -0.38,-0.95 -2.99,-7.71 -2.93,7.71 h 5.91 z"
       id="path4140" />
    <path
       class="cls-25"
       d="m 70.93,241.72 v -6.39 h 0.99 v 6.33 c 0,1.72 0.85,2.87 2.59,2.87 2.29,0 3.24,-1.84 3.24,-4.05 v -5.14 h 0.99 v 9.89 h -0.91 l -0.08,-1.86 c -0.55,1.31 -1.82,2.14 -3.3,2.14 -2.23,0 -3.52,-1.56 -3.52,-3.78 z"
       id="path4142" />
    <path
       class="cls-25"
       d="m 81.22,235.34 h 1.21 l 2.99,4.19 3.01,-4.19 h 1.17 l -3.52,4.83 3.56,5.06 h -1.21 l -3.03,-4.37 -3.05,4.37 h -1.19 l 3.56,-5.06 z"
       id="path4144" />
    <path
       class="cls-25"
       d="m 97.97,231.2 v 14.02 H 96.92 V 231.2 Z"
       id="path4146" />
    <path
       class="cls-25"
       d="m 101.88,235.34 h 0.91 l 0.08,1.9 c 0.51,-1.36 2.06,-2.18 3.44,-2.18 2.25,0 3.5,1.5 3.5,3.7 v 6.47 h -0.99 v -6.37 c 0,-1.66 -0.85,-2.83 -2.61,-2.83 -2.2,0 -3.34,1.82 -3.34,4.01 v 5.18 h -0.99 v -9.89 z"
       id="path4148" />
  </g>
  <g
     id="g4158">
    <path
       class="cls-25"
       d="m 59.78,315.65 c -1.62,-1.54 -1.86,-3.84 -1.86,-5.85 0,-2.01 0.24,-4.31 1.86,-5.83 0.91,-0.85 2.14,-1.44 3.7,-1.44 1.56,0 2.79,0.61 3.68,1.44 1.64,1.52 1.88,3.82 1.88,5.83 0,2.01 -0.24,4.33 -1.88,5.85 -0.89,0.83 -2.12,1.44 -3.68,1.44 -1.56,0 -2.81,-0.59 -3.7,-1.44 z m 6.63,-0.67 c 1.4,-1.34 1.54,-3.52 1.54,-5.18 0,-1.66 -0.14,-3.82 -1.54,-5.16 -0.75,-0.71 -1.8,-1.11 -2.93,-1.11 -1.13,0 -2.18,0.38 -2.93,1.11 -1.4,1.36 -1.56,3.5 -1.56,5.16 0,1.66 0.14,3.82 1.56,5.18 0.75,0.71 1.8,1.11 2.93,1.11 1.13,0 2.18,-0.4 2.93,-1.11 z"
       id="path4152" />
    <path
       class="cls-25"
       d="m 72,313.32 v -6.39 h 0.99 v 6.33 c 0,1.72 0.85,2.87 2.59,2.87 2.29,0 3.24,-1.84 3.24,-4.05 v -5.14 h 0.99 v 9.89 H 78.9 l -0.08,-1.86 c -0.55,1.31 -1.82,2.14 -3.3,2.14 -2.23,0 -3.52,-1.56 -3.52,-3.78 z"
       id="path4154" />
    <path
       class="cls-25"
       d="m 84.5,314.25 v -6.41 h -2.33 v -0.91 h 2.33 v -2.73 l 0.99,-0.24 v 2.97 h 3.1 v 0.91 h -3.1 v 6.27 c 0,1.09 0.34,1.92 1.78,1.92 0.53,0 0.95,-0.06 1.46,-0.18 v 0.87 c -0.49,0.16 -0.99,0.24 -1.54,0.24 -1.94,0 -2.69,-1.13 -2.69,-2.71 z"
       id="path4156" />
  </g>
  <g
     id="g4168">
    <path
       class="cls-25"
       d="m 321.89,89.01 v -0.99 h 10.54 v 0.99 h -4.77 v 13.03 h -1.03 V 89.01 h -4.75 z"
       id="path4160" />
    <path
       class="cls-25"
       d="m 332.67,92.15 h 0.91 l 0.08,2.04 c 0.43,-1.38 1.78,-2.14 3.18,-2.14 0.3,0 0.63,0 0.93,0.1 v 0.95 c -0.32,-0.08 -0.65,-0.1 -0.97,-0.1 -2.29,0 -3.14,1.9 -3.14,4.09 v 4.94 h -0.99 v -9.89 z"
       id="path4162" />
    <path
       class="cls-25"
       d="m 341.31,88.02 v 1.46 h -1.34 v -1.46 z m -0.15,4.13 v 9.89 h -1.01 v -9.89 z"
       id="path4164" />
    <path
       class="cls-25"
       d="m 343.96,103.44 c 0,-1.03 0.67,-1.92 1.74,-2.21 -0.75,-0.16 -1.31,-0.81 -1.31,-1.54 0,-0.83 0.57,-1.44 1.38,-1.74 -0.71,-0.59 -1.15,-1.48 -1.15,-2.59 0,-2.14 1.7,-3.48 3.7,-3.48 0.89,0 1.7,0.26 2.37,0.69 0.24,-0.87 1.05,-1.36 1.94,-1.36 0.12,0 0.28,0.02 0.38,0.04 v 0.83 c -0.1,-0.02 -0.26,-0.02 -0.38,-0.02 -0.71,0 -1.23,0.4 -1.36,1.07 0.49,0.57 0.79,1.33 0.79,2.23 0,2.14 -1.68,3.42 -3.74,3.42 -0.75,0 -1.44,-0.16 -2.02,-0.47 -0.53,0.22 -1.03,0.59 -1.03,1.19 0,0.91 0.99,1.03 1.78,1.03 h 2.04 c 1.52,0 2.47,0.26 3.14,0.89 0.47,0.46 0.75,0.99 0.75,1.82 0,2.21 -2.31,3.03 -4.67,3.03 -2.36,0 -4.37,-0.85 -4.37,-2.81 z m 8.05,-0.17 c 0,-1.42 -1.29,-1.82 -2.83,-1.82 h -2.65 c -0.89,0.22 -1.64,0.75 -1.64,1.9 0,1.54 1.72,2.02 3.46,2.02 1.88,0 3.66,-0.47 3.66,-2.1 z m -0.93,-7.91 c 0,-1.64 -1.21,-2.61 -2.75,-2.61 -1.54,0 -2.73,0.97 -2.73,2.61 0,1.64 1.19,2.55 2.73,2.55 1.54,0 2.75,-0.93 2.75,-2.55 z"
       id="path4166" />
  </g>
  <g
     id="g4178">
    <path
       class="cls-25"
       d="m 336.84,159.61 v 14.02 h -1.01 v -13.11 l -5.12,12.91 h -0.91 l -5.12,-12.81 v 13.01 h -1.01 v -14.02 h 1.62 l 5,12.54 4.9,-12.54 h 1.64 z"
       id="path4170" />
    <path
       class="cls-25"
       d="m 339.95,170.88 c 0,-1.76 1.34,-2.85 3.32,-2.99 l 3.64,-0.26 v -0.87 c 0,-1.66 -1.21,-2.37 -2.73,-2.37 -1.52,0 -2.71,0.71 -2.81,2.2 h -0.99 c 0.14,-2.04 1.78,-3.12 3.76,-3.12 2.25,0 3.76,1.11 3.76,3.38 v 4.88 c 0,0.67 0.1,1.07 0.77,1.07 0.08,0 0.2,0 0.28,-0.02 v 0.87 c -0.14,0.04 -0.32,0.06 -0.47,0.06 -1.23,0 -1.56,-0.93 -1.56,-1.98 -0.53,1.4 -2.04,2.18 -3.56,2.18 -1.92,0 -3.4,-1.17 -3.4,-3.03 z m 6.96,-1.82 v -0.51 l -3.54,0.22 c -1.52,0.1 -2.41,0.93 -2.41,2.1 0,1.38 1.07,2.14 2.47,2.14 2.49,0 3.48,-2.02 3.48,-3.94 z"
       id="path4172" />
    <path
       class="cls-25"
       d="m 351.62,163.74 h 0.91 l 0.08,2.04 c 0.44,-1.38 1.78,-2.14 3.18,-2.14 0.3,0 0.63,0 0.93,0.1 v 0.95 c -0.32,-0.08 -0.65,-0.1 -0.97,-0.1 -2.29,0 -3.14,1.9 -3.14,4.09 v 4.94 h -0.99 v -9.89 z"
       id="path4174" />
    <path
       class="cls-25"
       d="m 359.09,159.31 h 1.01 v 10.44 l 5.54,-6.01 h 1.27 l -3.86,4.15 3.94,5.73 h -1.23 l -3.42,-5 -2.23,2.45 v 2.55 H 359.1 V 159.3 Z"
       id="path4176" />
  </g>
  <g
     id="g4190">
    <path
       class="cls-25"
       d="m 331.21,240.81 h -6.64 l -1.68,4.41 h -1.09 l 5.44,-14.02 h 1.25 l 5.5,14.02 h -1.07 l -1.7,-4.41 z m -0.37,-0.95 -2.99,-7.71 -2.93,7.71 h 5.91 z"
       id="path4180" />
    <path
       class="cls-25"
       d="m 335.86,241.72 v -6.39 h 0.99 v 6.33 c 0,1.72 0.85,2.87 2.59,2.87 2.29,0 3.24,-1.84 3.24,-4.05 v -5.14 h 0.99 v 9.89 h -0.91 l -0.08,-1.86 c -0.55,1.31 -1.82,2.14 -3.3,2.14 -2.23,0 -3.52,-1.56 -3.52,-3.78 z"
       id="path4182" />
    <path
       class="cls-25"
       d="m 346.14,235.34 h 1.21 l 2.99,4.19 3.01,-4.19 h 1.17 l -3.52,4.83 3.56,5.06 h -1.21 l -3.03,-4.37 -3.05,4.37 h -1.19 l 3.56,-5.06 z"
       id="path4184" />
    <path
       class="cls-25"
       d="m 362.89,231.2 v 14.02 h -1.05 V 231.2 Z"
       id="path4186" />
    <path
       class="cls-25"
       d="m 366.81,235.34 h 0.91 l 0.08,1.9 c 0.51,-1.36 2.06,-2.18 3.44,-2.18 2.25,0 3.5,1.5 3.5,3.7 v 6.47 h -0.99 v -6.37 c 0,-1.66 -0.85,-2.83 -2.61,-2.83 -2.2,0 -3.34,1.82 -3.34,4.01 v 5.18 h -0.99 v -9.89 z"
       id="path4188" />
  </g>
  <g
     id="g4198">
    <path
       class="cls-25"
       d="m 324.71,315.65 c -1.62,-1.54 -1.86,-3.84 -1.86,-5.85 0,-2.01 0.24,-4.31 1.86,-5.83 0.91,-0.85 2.14,-1.44 3.7,-1.44 1.56,0 2.79,0.61 3.68,1.44 1.64,1.52 1.88,3.82 1.88,5.83 0,2.01 -0.24,4.33 -1.88,5.85 -0.89,0.83 -2.12,1.44 -3.68,1.44 -1.56,0 -2.81,-0.59 -3.7,-1.44 z m 6.62,-0.67 c 1.4,-1.34 1.54,-3.52 1.54,-5.18 0,-1.66 -0.14,-3.82 -1.54,-5.16 -0.75,-0.71 -1.8,-1.11 -2.93,-1.11 -1.13,0 -2.18,0.38 -2.93,1.11 -1.4,1.36 -1.56,3.5 -1.56,5.16 0,1.66 0.14,3.82 1.56,5.18 0.75,0.71 1.8,1.11 2.93,1.11 1.13,0 2.18,-0.4 2.93,-1.11 z"
       id="path4192" />
    <path
       class="cls-25"
       d="m 336.93,313.32 v -6.39 h 0.99 v 6.33 c 0,1.72 0.85,2.87 2.59,2.87 2.29,0 3.24,-1.84 3.24,-4.05 v -5.14 h 0.99 v 9.89 h -0.91 l -0.08,-1.86 c -0.55,1.31 -1.82,2.14 -3.3,2.14 -2.23,0 -3.52,-1.56 -3.52,-3.78 z"
       id="path4194" />
    <path
       class="cls-25"
       d="m 349.43,314.25 v -6.41 h -2.33 v -0.91 h 2.33 v -2.73 l 0.99,-0.24 v 2.97 h 3.1 v 0.91 h -3.1 v 6.27 c 0,1.09 0.34,1.92 1.78,1.92 0.53,0 0.95,-0.06 1.46,-0.18 v 0.87 c -0.49,0.16 -0.99,0.24 -1.54,0.24 -1.94,0 -2.69,-1.13 -2.69,-2.71 z"
       id="path4196" />
  </g>
  <g
     id="g4208">
    <path
       class="cls-25"
       d="m 586.82,89.01 v -0.99 h 10.54 v 0.99 h -4.77 v 13.03 h -1.03 V 89.01 h -4.75 z"
       id="path4200" />
    <path
       class="cls-25"
       d="m 597.6,92.15 h 0.91 l 0.08,2.04 c 0.43,-1.38 1.78,-2.14 3.18,-2.14 0.3,0 0.63,0 0.93,0.1 v 0.95 c -0.32,-0.08 -0.65,-0.1 -0.97,-0.1 -2.29,0 -3.14,1.9 -3.14,4.09 v 4.94 h -0.99 v -9.89 z"
       id="path4202" />
    <path
       class="cls-25"
       d="m 606.24,88.02 v 1.46 h -1.34 v -1.46 z m -0.16,4.13 v 9.89 h -1.01 v -9.89 z"
       id="path4204" />
    <path
       class="cls-25"
       d="m 608.89,103.44 c 0,-1.03 0.67,-1.92 1.74,-2.21 -0.75,-0.16 -1.31,-0.81 -1.31,-1.54 0,-0.83 0.57,-1.44 1.38,-1.74 -0.71,-0.59 -1.15,-1.48 -1.15,-2.59 0,-2.14 1.7,-3.48 3.7,-3.48 0.89,0 1.7,0.26 2.37,0.69 0.24,-0.87 1.05,-1.36 1.94,-1.36 0.12,0 0.28,0.02 0.38,0.04 v 0.83 c -0.1,-0.02 -0.26,-0.02 -0.38,-0.02 -0.71,0 -1.23,0.4 -1.36,1.07 0.49,0.57 0.79,1.33 0.79,2.23 0,2.14 -1.68,3.42 -3.74,3.42 -0.75,0 -1.44,-0.16 -2.02,-0.47 -0.53,0.22 -1.03,0.59 -1.03,1.19 0,0.91 0.99,1.03 1.78,1.03 h 2.04 c 1.52,0 2.47,0.26 3.14,0.89 0.47,0.46 0.75,0.99 0.75,1.82 0,2.21 -2.31,3.03 -4.67,3.03 -2.36,0 -4.37,-0.85 -4.37,-2.81 z m 8.05,-0.17 c 0,-1.42 -1.29,-1.82 -2.83,-1.82 h -2.65 c -0.89,0.22 -1.64,0.75 -1.64,1.9 0,1.54 1.72,2.02 3.46,2.02 1.88,0 3.66,-0.47 3.66,-2.1 z m -0.93,-7.91 c 0,-1.64 -1.21,-2.61 -2.75,-2.61 -1.54,0 -2.73,0.97 -2.73,2.61 0,1.64 1.19,2.55 2.73,2.55 1.54,0 2.75,-0.93 2.75,-2.55 z"
       id="path4206" />
  </g>
  <g
     id="g4218">
    <path
       class="cls-25"
       d="m 601.77,159.61 v 14.02 h -1.01 v -13.11 l -5.12,12.91 h -0.91 l -5.12,-12.81 v 13.01 h -1.01 v -14.02 h 1.62 l 5,12.54 4.9,-12.54 h 1.64 z"
       id="path4210" />
    <path
       class="cls-25"
       d="m 604.88,170.88 c 0,-1.76 1.34,-2.85 3.32,-2.99 l 3.64,-0.26 v -0.87 c 0,-1.66 -1.21,-2.37 -2.73,-2.37 -1.52,0 -2.71,0.71 -2.81,2.2 h -0.99 c 0.14,-2.04 1.78,-3.12 3.76,-3.12 2.25,0 3.76,1.11 3.76,3.38 v 4.88 c 0,0.67 0.1,1.07 0.77,1.07 0.08,0 0.2,0 0.28,-0.02 v 0.87 c -0.14,0.04 -0.32,0.06 -0.47,0.06 -1.23,0 -1.56,-0.93 -1.56,-1.98 -0.53,1.4 -2.04,2.18 -3.56,2.18 -1.92,0 -3.4,-1.17 -3.4,-3.03 z m 6.96,-1.82 v -0.51 l -3.54,0.22 c -1.52,0.1 -2.41,0.93 -2.41,2.1 0,1.38 1.07,2.14 2.47,2.14 2.49,0 3.48,-2.02 3.48,-3.94 z"
       id="path4212" />
    <path
       class="cls-25"
       d="m 616.54,163.74 h 0.91 l 0.08,2.04 c 0.44,-1.38 1.78,-2.14 3.18,-2.14 0.3,0 0.63,0 0.93,0.1 v 0.95 c -0.32,-0.08 -0.65,-0.1 -0.97,-0.1 -2.29,0 -3.14,1.9 -3.14,4.09 v 4.94 h -0.99 v -9.89 z"
       id="path4214" />
    <path
       class="cls-25"
       d="m 624.02,159.31 h 1.01 v 10.44 l 5.54,-6.01 h 1.27 l -3.86,4.15 3.94,5.73 h -1.23 l -3.42,-5 -2.23,2.45 v 2.55 h -1.01 V 159.3 Z"
       id="path4216" />
  </g>
  <g
     id="g4230">
    <path
       class="cls-25"
       d="m 596.13,240.81 h -6.64 l -1.68,4.41 h -1.09 l 5.44,-14.02 h 1.25 l 5.5,14.02 h -1.07 l -1.7,-4.41 z m -0.37,-0.95 -2.99,-7.71 -2.93,7.71 h 5.91 z"
       id="path4220" />
    <path
       class="cls-25"
       d="m 600.78,241.72 v -6.39 h 0.99 v 6.33 c 0,1.72 0.85,2.87 2.59,2.87 2.29,0 3.24,-1.84 3.24,-4.05 v -5.14 h 0.99 v 9.89 h -0.91 l -0.08,-1.86 c -0.55,1.31 -1.82,2.14 -3.3,2.14 -2.23,0 -3.52,-1.56 -3.52,-3.78 z"
       id="path4222" />
    <path
       class="cls-25"
       d="m 611.07,235.34 h 1.21 l 2.99,4.19 3.01,-4.19 h 1.17 l -3.52,4.83 3.56,5.06 h -1.21 l -3.03,-4.37 -3.05,4.37 h -1.19 l 3.56,-5.06 z"
       id="path4224" />
    <path
       class="cls-25"
       d="m 627.82,231.2 v 14.02 h -1.05 V 231.2 Z"
       id="path4226" />
    <path
       class="cls-25"
       d="m 631.73,235.34 h 0.91 l 0.08,1.9 c 0.51,-1.36 2.06,-2.18 3.44,-2.18 2.25,0 3.5,1.5 3.5,3.7 v 6.47 h -0.99 v -6.37 c 0,-1.66 -0.85,-2.83 -2.61,-2.83 -2.2,0 -3.34,1.82 -3.34,4.01 v 5.18 h -0.99 v -9.89 z"
       id="path4228" />
  </g>
  <g
     id="g4238">
    <path
       class="cls-25"
       d="m 589.63,315.65 c -1.62,-1.54 -1.86,-3.84 -1.86,-5.85 0,-2.01 0.24,-4.31 1.86,-5.83 0.91,-0.85 2.14,-1.44 3.7,-1.44 1.56,0 2.79,0.61 3.68,1.44 1.64,1.52 1.88,3.82 1.88,5.83 0,2.01 -0.24,4.33 -1.88,5.85 -0.89,0.83 -2.12,1.44 -3.68,1.44 -1.56,0 -2.81,-0.59 -3.7,-1.44 z m 6.62,-0.67 c 1.4,-1.34 1.54,-3.52 1.54,-5.18 0,-1.66 -0.14,-3.82 -1.54,-5.16 -0.75,-0.71 -1.8,-1.11 -2.93,-1.11 -1.13,0 -2.18,0.38 -2.93,1.11 -1.4,1.36 -1.56,3.5 -1.56,5.16 0,1.66 0.14,3.82 1.56,5.18 0.75,0.71 1.8,1.11 2.93,1.11 1.13,0 2.18,-0.4 2.93,-1.11 z"
       id="path4232" />
    <path
       class="cls-25"
       d="m 601.85,313.32 v -6.39 h 0.99 v 6.33 c 0,1.72 0.85,2.87 2.59,2.87 2.29,0 3.24,-1.84 3.24,-4.05 v -5.14 h 0.99 v 9.89 h -0.91 l -0.08,-1.86 c -0.55,1.31 -1.82,2.14 -3.3,2.14 -2.23,0 -3.52,-1.56 -3.52,-3.78 z"
       id="path4234" />
    <path
       class="cls-25"
       d="m 614.35,314.25 v -6.41 h -2.33 v -0.91 h 2.33 v -2.73 l 0.99,-0.24 v 2.97 h 3.1 v 0.91 h -3.1 v 6.27 c 0,1.09 0.34,1.92 1.78,1.92 0.53,0 0.95,-0.06 1.46,-0.18 v 0.87 c -0.49,0.16 -0.99,0.24 -1.54,0.24 -1.94,0 -2.69,-1.13 -2.69,-2.71 z"
       id="path4236" />
  </g>
  <g
     id="g4248">
    <path
       class="cls-25"
       d="m 851.73,89.01 v -0.99 h 10.54 v 0.99 h -4.77 v 13.03 h -1.03 V 89.01 h -4.75 z"
       id="path4240" />
    <path
       class="cls-25"
       d="m 862.51,92.15 h 0.91 l 0.08,2.04 c 0.43,-1.38 1.78,-2.14 3.18,-2.14 0.3,0 0.63,0 0.93,0.1 v 0.95 c -0.32,-0.08 -0.65,-0.1 -0.97,-0.1 -2.29,0 -3.14,1.9 -3.14,4.09 v 4.94 h -0.99 v -9.89 z"
       id="path4242" />
    <path
       class="cls-25"
       d="m 871.15,88.02 v 1.46 h -1.34 v -1.46 z m -0.16,4.13 v 9.89 h -1.01 v -9.89 z"
       id="path4244" />
    <path
       class="cls-25"
       d="m 873.8,103.44 c 0,-1.03 0.67,-1.92 1.74,-2.21 -0.75,-0.16 -1.31,-0.81 -1.31,-1.54 0,-0.83 0.57,-1.44 1.38,-1.74 -0.71,-0.59 -1.15,-1.48 -1.15,-2.59 0,-2.14 1.7,-3.48 3.7,-3.48 0.89,0 1.7,0.26 2.37,0.69 0.24,-0.87 1.05,-1.36 1.94,-1.36 0.12,0 0.28,0.02 0.38,0.04 v 0.83 c -0.1,-0.02 -0.26,-0.02 -0.38,-0.02 -0.71,0 -1.23,0.4 -1.36,1.07 0.49,0.57 0.79,1.33 0.79,2.23 0,2.14 -1.68,3.42 -3.74,3.42 -0.75,0 -1.44,-0.16 -2.02,-0.47 -0.53,0.22 -1.03,0.59 -1.03,1.19 0,0.91 0.99,1.03 1.78,1.03 h 2.04 c 1.52,0 2.47,0.26 3.14,0.89 0.47,0.46 0.75,0.99 0.75,1.82 0,2.21 -2.31,3.03 -4.67,3.03 -2.36,0 -4.37,-0.85 -4.37,-2.81 z m 8.05,-0.17 c 0,-1.42 -1.29,-1.82 -2.83,-1.82 h -2.65 c -0.89,0.22 -1.64,0.75 -1.64,1.9 0,1.54 1.72,2.02 3.46,2.02 1.88,0 3.66,-0.47 3.66,-2.1 z m -0.93,-7.91 c 0,-1.64 -1.21,-2.61 -2.75,-2.61 -1.54,0 -2.73,0.97 -2.73,2.61 0,1.64 1.19,2.55 2.73,2.55 1.54,0 2.75,-0.93 2.75,-2.55 z"
       id="path4246" />
  </g>
  <g
     id="g4258">
    <path
       class="cls-25"
       d="m 866.68,159.61 v 14.02 h -1.01 v -13.11 l -5.12,12.91 h -0.91 l -5.12,-12.81 v 13.01 h -1.01 v -14.02 h 1.62 l 5,12.54 4.9,-12.54 h 1.64 z"
       id="path4250" />
    <path
       class="cls-25"
       d="m 869.79,170.88 c 0,-1.76 1.34,-2.85 3.32,-2.99 l 3.64,-0.26 v -0.87 c 0,-1.66 -1.21,-2.37 -2.73,-2.37 -1.52,0 -2.71,0.71 -2.81,2.2 h -0.99 c 0.14,-2.04 1.78,-3.12 3.76,-3.12 2.25,0 3.76,1.11 3.76,3.38 v 4.88 c 0,0.67 0.1,1.07 0.77,1.07 0.08,0 0.2,0 0.28,-0.02 v 0.87 c -0.14,0.04 -0.32,0.06 -0.47,0.06 -1.23,0 -1.56,-0.93 -1.56,-1.98 -0.53,1.4 -2.04,2.18 -3.56,2.18 -1.92,0 -3.4,-1.17 -3.4,-3.03 z m 6.96,-1.82 v -0.51 l -3.54,0.22 c -1.52,0.1 -2.41,0.93 -2.41,2.1 0,1.38 1.07,2.14 2.47,2.14 2.49,0 3.48,-2.02 3.48,-3.94 z"
       id="path4252" />
    <path
       class="cls-25"
       d="m 881.45,163.74 h 0.91 l 0.08,2.04 c 0.44,-1.38 1.78,-2.14 3.18,-2.14 0.3,0 0.63,0 0.93,0.1 v 0.95 c -0.32,-0.08 -0.65,-0.1 -0.97,-0.1 -2.29,0 -3.14,1.9 -3.14,4.09 v 4.94 h -0.99 v -9.89 z"
       id="path4254" />
    <path
       class="cls-25"
       d="m 888.93,159.31 h 1.01 v 10.44 l 5.54,-6.01 h 1.27 l -3.86,4.15 3.94,5.73 h -1.23 l -3.42,-5 -2.23,2.45 v 2.55 h -1.01 V 159.3 Z"
       id="path4256" />
  </g>
  <g
     id="g4270">
    <path
       class="cls-25"
       d="m 861.04,240.81 h -6.64 l -1.68,4.41 h -1.09 l 5.44,-14.02 h 1.25 l 5.5,14.02 h -1.07 l -1.7,-4.41 z m -0.37,-0.95 -2.99,-7.71 -2.93,7.71 h 5.91 z"
       id="path4260" />
    <path
       class="cls-25"
       d="m 865.69,241.72 v -6.39 h 0.99 v 6.33 c 0,1.72 0.85,2.87 2.59,2.87 2.29,0 3.24,-1.84 3.24,-4.05 v -5.14 h 0.99 v 9.89 h -0.91 l -0.08,-1.86 c -0.55,1.31 -1.82,2.14 -3.3,2.14 -2.23,0 -3.52,-1.56 -3.52,-3.78 z"
       id="path4262" />
    <path
       class="cls-25"
       d="m 875.98,235.34 h 1.21 l 2.99,4.19 3.01,-4.19 h 1.17 l -3.52,4.83 3.56,5.06 h -1.21 l -3.03,-4.37 -3.05,4.37 h -1.19 l 3.56,-5.06 z"
       id="path4264" />
    <path
       class="cls-25"
       d="m 892.73,231.2 v 14.02 h -1.05 V 231.2 Z"
       id="path4266" />
    <path
       class="cls-25"
       d="m 896.64,235.34 h 0.91 l 0.08,1.9 c 0.51,-1.36 2.06,-2.18 3.44,-2.18 2.25,0 3.5,1.5 3.5,3.7 v 6.47 h -0.99 v -6.37 c 0,-1.66 -0.85,-2.83 -2.61,-2.83 -2.2,0 -3.34,1.82 -3.34,4.01 v 5.18 h -0.99 v -9.89 z"
       id="path4268" />
  </g>
  <g
     id="g4278">
    <path
       class="cls-25"
       d="m 854.54,315.65 c -1.62,-1.54 -1.86,-3.84 -1.86,-5.85 0,-2.01 0.24,-4.31 1.86,-5.83 0.91,-0.85 2.14,-1.44 3.7,-1.44 1.56,0 2.79,0.61 3.68,1.44 1.64,1.52 1.88,3.82 1.88,5.83 0,2.01 -0.24,4.33 -1.88,5.85 -0.89,0.83 -2.12,1.44 -3.68,1.44 -1.56,0 -2.81,-0.59 -3.7,-1.44 z m 6.62,-0.67 c 1.4,-1.34 1.54,-3.52 1.54,-5.18 0,-1.66 -0.14,-3.82 -1.54,-5.16 -0.75,-0.71 -1.8,-1.11 -2.93,-1.11 -1.13,0 -2.18,0.38 -2.93,1.11 -1.4,1.36 -1.56,3.5 -1.56,5.16 0,1.66 0.14,3.82 1.56,5.18 0.75,0.71 1.8,1.11 2.93,1.11 1.13,0 2.18,-0.4 2.93,-1.11 z"
       id="path4272" />
    <path
       class="cls-25"
       d="m 866.76,313.32 v -6.39 h 0.99 v 6.33 c 0,1.72 0.85,2.87 2.59,2.87 2.29,0 3.24,-1.84 3.24,-4.05 v -5.14 h 0.99 v 9.89 h -0.91 l -0.08,-1.86 c -0.55,1.31 -1.82,2.14 -3.3,2.14 -2.23,0 -3.52,-1.56 -3.52,-3.78 z"
       id="path4274" />
    <path
       class="cls-25"
       d="m 879.26,314.25 v -6.41 h -2.33 v -0.91 h 2.33 v -2.73 l 0.99,-0.24 v 2.97 h 3.1 v 0.91 h -3.1 v 6.27 c 0,1.09 0.34,1.92 1.78,1.92 0.53,0 0.95,-0.06 1.46,-0.18 v 0.87 c -0.49,0.16 -0.99,0.24 -1.54,0.24 -1.94,0 -2.69,-1.13 -2.69,-2.71 z"
       id="path4276" />
  </g>
  <path
     class="cls-2"
     d="m 339.93,131.65 c -1.82,0 -3.31,-1.48 -3.31,-3.31 0,-1.83 1.48,-3.31 3.31,-3.31 1.83,0 3.31,1.48 3.31,3.31 0,1.83 -1.48,3.31 -3.31,3.31 z"
     id="path4280" />
  <path
     class="cls-2"
     d="m 604.85,131.63 c -1.82,0 -3.31,-1.48 -3.31,-3.31 0,-1.83 1.48,-3.31 3.31,-3.31 1.83,0 3.31,1.48 3.31,3.31 0,1.83 -1.48,3.31 -3.31,3.31 z"
     id="path4282" />
  <path
     class="cls-2"
     d="m 869.76,131.64 c -1.82,0 -3.31,-1.48 -3.31,-3.31 0,-1.83 1.48,-3.31 3.31,-3.31 1.83,0 3.31,1.48 3.31,3.31 0,1.83 -1.48,3.31 -3.31,3.31 z"
     id="path4284" />
  <path
     class="cls-2"
     d="m 75.01,131.64 c -1.82,0 -3.31,-1.48 -3.31,-3.31 0,-1.83 1.48,-3.31 3.31,-3.31 1.83,0 3.31,1.48 3.31,3.31 0,1.83 -1.48,3.31 -3.31,3.31 z"
     id="path4286" />
  <path
     class="cls-2"
     d="m 339.93,203.24 c -1.82,0 -3.31,-1.48 -3.31,-3.31 0,-1.83 1.48,-3.31 3.31,-3.31 1.83,0 3.31,1.48 3.31,3.31 0,1.83 -1.48,3.31 -3.31,3.31 z"
     id="path4288" />
  <path
     class="cls-2"
     d="m 604.85,203.23 c -1.82,0 -3.31,-1.48 -3.31,-3.31 0,-1.83 1.48,-3.31 3.31,-3.31 1.83,0 3.31,1.48 3.31,3.31 0,1.83 -1.48,3.31 -3.31,3.31 z"
     id="path4290" />
  <path
     class="cls-2"
     d="m 869.76,203.24 c -1.82,0 -3.31,-1.48 -3.31,-3.31 0,-1.83 1.48,-3.31 3.31,-3.31 1.83,0 3.31,1.48 3.31,3.31 0,1.83 -1.48,3.31 -3.31,3.31 z"
     id="path4292" />
  <path
     class="cls-2"
     d="m 75.01,203.24 c -1.82,0 -3.31,-1.48 -3.31,-3.31 0,-1.83 1.48,-3.31 3.31,-3.31 1.83,0 3.31,1.48 3.31,3.31 0,1.83 -1.48,3.31 -3.31,3.31 z"
     id="path4294" />
  <path
     class="cls-2"
     d="m 339.93,274.82 c -1.82,0 -3.31,-1.48 -3.31,-3.31 0,-1.83 1.48,-3.31 3.31,-3.31 1.83,0 3.31,1.48 3.31,3.31 0,1.83 -1.48,3.31 -3.31,3.31 z"
     id="path4296" />
  <path
     class="cls-2"
     d="m 604.85,274.81 c -1.82,0 -3.31,-1.48 -3.31,-3.31 0,-1.83 1.48,-3.31 3.31,-3.31 1.83,0 3.31,1.48 3.31,3.31 0,1.83 -1.48,3.31 -3.31,3.31 z"
     id="path4298" />
  <path
     class="cls-2"
     d="m 869.76,274.83 c -1.82,0 -3.31,-1.48 -3.31,-3.31 0,-1.83 1.48,-3.31 3.31,-3.31 1.83,0 3.31,1.48 3.31,3.31 0,1.83 -1.48,3.31 -3.31,3.31 z"
     id="path4300" />
  <path
     class="cls-2"
     d="m 75.01,274.83 c -1.82,0 -3.31,-1.48 -3.31,-3.31 0,-1.83 1.48,-3.31 3.31,-3.31 1.83,0 3.31,1.48 3.31,3.31 0,1.83 -1.48,3.31 -3.31,3.31 z"
     id="path4302" />
  <path
     class="cls-2"
     d="m 339.93,346.41 c -1.82,0 -3.31,-1.48 -3.31,-3.31 0,-1.83 1.48,-3.31 3.31,-3.31 1.83,0 3.31,1.48 3.31,3.31 0,1.83 -1.48,3.31 -3.31,3.31 z"
     id="path4304" />
  <path
     class="cls-2"
     d="m 604.84,346.4 c -1.82,0 -3.31,-1.48 -3.31,-3.31 0,-1.83 1.48,-3.31 3.31,-3.31 1.83,0 3.31,1.48 3.31,3.31 0,1.83 -1.48,3.31 -3.31,3.31 z"
     id="path4306" />
  <path
     class="cls-2"
     d="m 869.76,346.42 c -1.82,0 -3.31,-1.48 -3.31,-3.31 0,-1.83 1.48,-3.31 3.31,-3.31 1.83,0 3.31,1.48 3.31,3.31 0,1.83 -1.48,3.31 -3.31,3.31 z"
     id="path4308" />
  <path
     class="cls-2"
     d="m 75.01,346.42 c -1.82,0 -3.31,-1.48 -3.31,-3.31 0,-1.83 1.48,-3.31 3.31,-3.31 1.83,0 3.31,1.48 3.31,3.31 0,1.83 -1.48,3.31 -3.31,3.31 z"
     id="path4310" />
  <g
     id="g4322">
    <path
       class="cls-23"
       d="m 1139.53,135.51 h 3.04 c 0.65,5.53 4.88,9.11 11.17,9.11 6.29,0 11.11,-3.14 11.11,-8.56 0,-3.63 -2.87,-6.67 -7.48,-7.32 l -6.5,-0.92 c -5.85,-0.81 -9.97,-3.85 -9.97,-9.65 0,-6.23 6.29,-10.79 13.12,-10.79 7.43,0 12.74,4.66 13.22,10.95 h -2.87 c -0.76,-5.42 -5.09,-8.24 -10.46,-8.24 -5.64,0 -10.08,3.31 -10.08,7.97 0,4.66 3.2,6.18 7.32,6.77 l 6.61,0.92 c 5.91,0.81 10.03,4.88 10.03,10.19 0,6.83 -6.02,11.38 -14.04,11.38 -8.02,0 -13.88,-4.77 -14.2,-11.82 z"
       id="path4312" />
    <path
       class="cls-23"
       d="m 1179.1,108.14 v 17.02 h 21.14 v -17.02 h 2.82 v 38.43 h -2.82 v -18.64 h -21.14 v 18.64 h -2.82 v -38.43 z"
       id="path4314" />
    <path
       class="cls-23"
       d="m 1238.5,108.14 v 2.71 h -21.25 v 14.85 h 19.13 v 2.71 h -19.13 v 18.16 h -2.82 v -38.43 h 24.06 z"
       id="path4316" />
    <path
       class="cls-23"
       d="m 1242.25,135.51 h 3.04 c 0.65,5.53 4.88,9.11 11.17,9.11 6.29,0 11.11,-3.14 11.11,-8.56 0,-3.63 -2.87,-6.67 -7.48,-7.32 l -6.5,-0.92 c -5.85,-0.81 -9.97,-3.85 -9.97,-9.65 0,-6.23 6.29,-10.79 13.12,-10.79 7.43,0 12.74,4.66 13.22,10.95 h -2.87 c -0.76,-5.42 -5.09,-8.24 -10.46,-8.24 -5.64,0 -10.08,3.31 -10.08,7.97 0,4.66 3.2,6.18 7.32,6.77 l 6.61,0.92 c 5.91,0.81 10.03,4.88 10.03,10.19 0,6.83 -6.02,11.38 -14.04,11.38 -8.02,0 -13.88,-4.77 -14.2,-11.82 z"
       id="path4318" />
    <path
       class="cls-23"
       d="m 1281.92,143.2 c -4.28,-4.12 -5.26,-10.35 -5.26,-15.83 0,-5.48 0.87,-11.65 5.26,-15.77 2.55,-2.38 6.18,-4.23 10.52,-4.23 4.34,0 7.59,1.25 10.08,3.31 2.6,2.11 4.23,5.09 4.5,8.46 h -2.93 c -0.22,-2.33 -1.14,-4.23 -2.6,-5.69 -2.17,-2.17 -5.42,-3.31 -9,-3.31 -3.58,0 -6.29,1.25 -8.35,3.2 -3.74,3.58 -4.5,9.32 -4.5,14.04 0,4.72 0.7,10.73 4.55,14.15 2.17,1.95 4.93,3.04 8.24,3.04 7.86,0 11.71,-5.58 11.71,-13.28 v -1.57 h -12.52 v -2.76 h 15.28 v 19.62 h -2.22 l -0.43,-6.34 c -1.79,4.01 -6.18,7.1 -11.81,7.1 -4.34,0 -8.02,-1.73 -10.52,-4.12 z"
       id="path4320" />
  </g>
  <line
     class="cls-8"
     x1="339.22513"
     y1="199.92999"
     x2="229.14384"
     y2="199.92999"
     id="line4324"
     style="stroke-width:1.737;stroke-dasharray:none" />
  <g
     id="g4344"
     transform="matrix(0.78911081,0,0,1,287.99872,0)">
    <line
       class="cls-4"
       x1="1376.41"
       y1="231.85001"
       x2="1544.15"
       y2="231.85001"
       id="line4338" />
    <polygon
       points="1378.59,239.33 1365.64,231.85 1378.59,224.37 "
       id="polygon4340" />
    <polygon
       points="1541.96,239.33 1554.91,231.85 1541.96,224.37 "
       id="polygon4342" />
  </g>
  <g
     id="g4362"
     transform="translate(-21.207492)">
    <path
       d="m 1413.72,198.21 v 1.6 h -12.83 v 8.48 h 11.29 v 1.6 h -11.29 v 9.41 h 12.83 v 1.6 h -14.53 v -22.69 z"
       id="path4346" />
    <path
       d="m 1419.83,216.74 v -10.37 h -3.78 v -1.47 h 3.78 v -4.42 l 1.6,-0.38 v 4.8 h 5.02 v 1.47 h -5.02 v 10.14 c 0,1.76 0.54,3.1 2.88,3.1 0.86,0 1.54,-0.1 2.37,-0.29 v 1.41 c -0.8,0.26 -1.6,0.38 -2.5,0.38 -3.14,0 -4.35,-1.82 -4.35,-4.38 z"
       id="path4348" />
    <path
       d="m 1432.12,197.73 v 10.11 c 0.9,-2.05 3.26,-3.39 5.5,-3.39 3.65,0 5.73,2.3 5.73,5.89 v 10.56 h -1.6 v -10.46 c 0,-2.82 -1.34,-4.48 -4.22,-4.48 -3.9,0 -5.41,3.49 -5.41,6.94 v 8 h -1.6 v -23.17 z"
       id="path4350" />
    <path
       d="m 1450.13,219.1 c -1.31,-1.54 -2.11,-3.71 -2.11,-6.14 0,-2.02 0.32,-4 1.6,-5.7 1.38,-1.82 3.26,-2.82 5.6,-2.82 4.42,0 7.07,3.52 7.07,7.78 0,0.38 0,0.61 -0.03,1.06 h -12.64 c 0.06,3.55 2.14,6.53 5.73,6.53 2.53,0 4.51,-1.66 4.9,-3.71 h 1.66 c -0.48,3.01 -3.36,5.25 -6.56,5.25 -2.3,0 -4.16,-1.02 -5.22,-2.24 z m 10.5,-7.26 c -0.06,-3.04 -1.95,-5.89 -5.41,-5.89 -3.46,0 -5.5,2.75 -5.57,5.89 z"
       id="path4352" />
    <path
       d="m 1467.03,204.9 h 1.47 l 0.13,3.3 c 0.7,-2.24 2.88,-3.46 5.15,-3.46 0.48,0 1.02,0 1.5,0.16 v 1.54 c -0.51,-0.13 -1.06,-0.16 -1.57,-0.16 -3.71,0 -5.09,3.07 -5.09,6.62 v 8 h -1.6 v -16 z"
       id="path4354" />
    <path
       d="m 1479.12,204.9 h 1.47 l 0.13,3.07 c 0.83,-2.21 3.33,-3.52 5.57,-3.52 3.65,0 5.66,2.43 5.66,5.98 v 10.46 h -1.6 v -10.3 c 0,-2.69 -1.38,-4.58 -4.22,-4.58 -3.55,0 -5.41,2.94 -5.41,6.5 v 8.38 h -1.6 v -16 z"
       id="path4356" />
    <path
       d="m 1498.74,219.1 c -1.31,-1.54 -2.11,-3.71 -2.11,-6.14 0,-2.02 0.32,-4 1.6,-5.7 1.38,-1.82 3.26,-2.82 5.6,-2.82 4.42,0 7.07,3.52 7.07,7.78 0,0.38 0,0.61 -0.03,1.06 h -12.64 c 0.06,3.55 2.14,6.53 5.73,6.53 2.53,0 4.51,-1.66 4.9,-3.71 h 1.66 c -0.48,3.01 -3.36,5.25 -6.56,5.25 -2.3,0 -4.16,-1.02 -5.22,-2.24 z m 10.5,-7.26 c -0.06,-3.04 -1.95,-5.89 -5.41,-5.89 -3.46,0 -5.5,2.75 -5.57,5.89 z"
       id="path4358" />
    <path
       d="m 1517.01,216.74 v -10.37 h -3.78 v -1.47 h 3.78 v -4.42 l 1.6,-0.38 v 4.8 h 5.02 v 1.47 h -5.02 v 10.14 c 0,1.76 0.54,3.1 2.88,3.1 0.86,0 1.54,-0.1 2.37,-0.29 v 1.41 c -0.8,0.26 -1.6,0.38 -2.5,0.38 -3.14,0 -4.35,-1.82 -4.35,-4.38 z"
       id="path4360" />
  </g>
  <line
     class="cls-8"
     x1="228.70508"
     y1="199.89621"
     x2="228.70508"
     y2="588.97406"
     id="line4788"
     style="stroke-width:1.75;stroke-dasharray:none" />
  <line
     class="cls-8"
     x1="28.84"
     y1="1495.62"
     x2="1472.95"
     y2="1495.62"
     id="line4800" />
  <rect
     class="cls-9"
     x="175.90495"
     y="550.50934"
     width="545.04822"
     height="451.94031"
     id="rect5873" />
  <g
     id="g5926"
     transform="translate(8.8,-440.85221)">
    <g
       id="g5877"
       transform="translate(144.76633,901.36404)">
      <path
         class="cls-9"
         d="m 56.68,128.34 c 0,-10.13 8.21,-18.33 18.33,-18.33 10.12,0 18.33,8.21 18.33,18.33 0,10.12 -8.21,18.33 -18.33,18.33 -10.12,0 -18.33,-8.21 -18.33,-18.33 z"
         id="path5875" />
    </g>
    <path
       class="cls-2"
       d="m 219.77633,1033.004 c -1.82,0 -3.31,-1.48 -3.31,-3.31 0,-1.83 1.48,-3.31 3.31,-3.31 1.83,0 3.31,1.48 3.31,3.31 0,1.83 -1.48,3.31 -3.31,3.31 z"
       id="path5879" />
  </g>
  <g
     id="g6054"
     transform="translate(58.8,-440.85221)">
    <g
       id="g6050"
       transform="translate(144.76633,901.36404)">
      <path
         class="cls-9"
         d="m 56.68,128.34 c 0,-10.13 8.21,-18.33 18.33,-18.33 10.12,0 18.33,8.21 18.33,18.33 0,10.12 -8.21,18.33 -18.33,18.33 -10.12,0 -18.33,-8.21 -18.33,-18.33 z"
         id="path6048" />
    </g>
    <path
       class="cls-2"
       d="m 219.77633,1033.004 c -1.82,0 -3.31,-1.48 -3.31,-3.31 0,-1.83 1.48,-3.31 3.31,-3.31 1.83,0 3.31,1.48 3.31,3.31 0,1.83 -1.48,3.31 -3.31,3.31 z"
       id="path6052" />
  </g>
  <g
     id="g6062"
     transform="translate(108.8,-440.85221)">
    <g
       id="g6058"
       transform="translate(144.76633,901.36404)">
      <path
         class="cls-9"
         d="m 56.68,128.34 c 0,-10.13 8.21,-18.33 18.33,-18.33 10.12,0 18.33,8.21 18.33,18.33 0,10.12 -8.21,18.33 -18.33,18.33 -10.12,0 -18.33,-8.21 -18.33,-18.33 z"
         id="path6056" />
    </g>
    <path
       class="cls-2"
       d="m 219.77633,1033.004 c -1.82,0 -3.31,-1.48 -3.31,-3.31 0,-1.83 1.48,-3.31 3.31,-3.31 1.83,0 3.31,1.48 3.31,3.31 0,1.83 -1.48,3.31 -3.31,3.31 z"
       id="path6060" />
  </g>
  <g
     id="g6070"
     transform="translate(158.8,-440.85221)">
    <g
       id="g6066"
       transform="translate(144.76633,901.36404)">
      <path
         class="cls-9"
         d="m 56.68,128.34 c 0,-10.13 8.21,-18.33 18.33,-18.33 10.12,0 18.33,8.21 18.33,18.33 0,10.12 -8.21,18.33 -18.33,18.33 -10.12,0 -18.33,-8.21 -18.33,-18.33 z"
         id="path6064" />
    </g>
    <path
       class="cls-2"
       d="m 219.77633,1033.004 c -1.82,0 -3.31,-1.48 -3.31,-3.31 0,-1.83 1.48,-3.31 3.31,-3.31 1.83,0 3.31,1.48 3.31,3.31 0,1.83 -1.48,3.31 -3.31,3.31 z"
       id="path6068" />
  </g>
  <g
     id="g6078"
     transform="translate(208.8,-440.85221)">
    <g
       id="g6074"
       transform="translate(144.76633,901.36404)">
      <path
         class="cls-9"
         d="m 56.68,128.34 c 0,-10.13 8.21,-18.33 18.33,-18.33 10.12,0 18.33,8.21 18.33,18.33 0,10.12 -8.21,18.33 -18.33,18.33 -10.12,0 -18.33,-8.21 -18.33,-18.33 z"
         id="path6072" />
    </g>
    <path
       class="cls-2"
       d="m 219.77633,1033.004 c -1.82,0 -3.31,-1.48 -3.31,-3.31 0,-1.83 1.48,-3.31 3.31,-3.31 1.83,0 3.31,1.48 3.31,3.31 0,1.83 -1.48,3.31 -3.31,3.31 z"
       id="path6076" />
  </g>
  <g
     id="g6086"
     transform="translate(258.8,-440.85221)">
    <g
       id="g6082"
       transform="translate(144.76633,901.36404)">
      <path
         class="cls-9"
         d="m 56.68,128.34 c 0,-10.13 8.21,-18.33 18.33,-18.33 10.12,0 18.33,8.21 18.33,18.33 0,10.12 -8.21,18.33 -18.33,18.33 -10.12,0 -18.33,-8.21 -18.33,-18.33 z"
         id="path6080" />
    </g>
    <path
       class="cls-2"
       d="m 219.77633,1033.004 c -1.82,0 -3.31,-1.48 -3.31,-3.31 0,-1.83 1.48,-3.31 3.31,-3.31 1.83,0 3.31,1.48 3.31,3.31 0,1.83 -1.48,3.31 -3.31,3.31 z"
       id="path6084" />
  </g>
  <g
     id="g6094"
     transform="translate(308.8,-440.85221)">
    <g
       id="g6090"
       transform="translate(144.76633,901.36404)">
      <path
         class="cls-9"
         d="m 56.68,128.34 c 0,-10.13 8.21,-18.33 18.33,-18.33 10.12,0 18.33,8.21 18.33,18.33 0,10.12 -8.21,18.33 -18.33,18.33 -10.12,0 -18.33,-8.21 -18.33,-18.33 z"
         id="path6088" />
    </g>
    <path
       class="cls-2"
       d="m 219.77633,1033.004 c -1.82,0 -3.31,-1.48 -3.31,-3.31 0,-1.83 1.48,-3.31 3.31,-3.31 1.83,0 3.31,1.48 3.31,3.31 0,1.83 -1.48,3.31 -3.31,3.31 z"
       id="path6092" />
  </g>
  <g
     id="g6102"
     transform="translate(358.8,-440.85221)">
    <g
       id="g6098"
       transform="translate(144.76633,901.36404)">
      <path
         class="cls-9"
         d="m 56.68,128.34 c 0,-10.13 8.21,-18.33 18.33,-18.33 10.12,0 18.33,8.21 18.33,18.33 0,10.12 -8.21,18.33 -18.33,18.33 -10.12,0 -18.33,-8.21 -18.33,-18.33 z"
         id="path6096" />
    </g>
    <path
       class="cls-2"
       d="m 219.77633,1033.004 c -1.82,0 -3.31,-1.48 -3.31,-3.31 0,-1.83 1.48,-3.31 3.31,-3.31 1.83,0 3.31,1.48 3.31,3.31 0,1.83 -1.48,3.31 -3.31,3.31 z"
       id="path6100" />
  </g>
  <g
     id="g6110"
     transform="translate(408.8,-440.85221)">
    <g
       id="g6106"
       transform="translate(144.76633,901.36404)">
      <path
         class="cls-9"
         d="m 56.68,128.34 c 0,-10.13 8.21,-18.33 18.33,-18.33 10.12,0 18.33,8.21 18.33,18.33 0,10.12 -8.21,18.33 -18.33,18.33 -10.12,0 -18.33,-8.21 -18.33,-18.33 z"
         id="path6104" />
    </g>
    <path
       class="cls-2"
       d="m 219.77633,1033.004 c -1.82,0 -3.31,-1.48 -3.31,-3.31 0,-1.83 1.48,-3.31 3.31,-3.31 1.83,0 3.31,1.48 3.31,3.31 0,1.83 -1.48,3.31 -3.31,3.31 z"
       id="path6108" />
  </g>
  <g
     id="g6174"
     transform="translate(408.8,-340.85221)">
    <g
       id="g6170"
       transform="translate(144.76633,901.36404)">
      <path
         class="cls-9"
         d="m 56.68,128.34 c 0,-10.13 8.21,-18.33 18.33,-18.33 10.12,0 18.33,8.21 18.33,18.33 0,10.12 -8.21,18.33 -18.33,18.33 -10.12,0 -18.33,-8.21 -18.33,-18.33 z"
         id="path6168" />
    </g>
    <path
       class="cls-2"
       d="m 219.77633,1033.004 c -1.82,0 -3.31,-1.48 -3.31,-3.31 0,-1.83 1.48,-3.31 3.31,-3.31 1.83,0 3.31,1.48 3.31,3.31 0,1.83 -1.48,3.31 -3.31,3.31 z"
       id="path6172" />
  </g>
  <g
     id="g6182"
     transform="translate(408.8,-290.85221)">
    <g
       id="g6178"
       transform="translate(144.76633,901.36404)">
      <path
         class="cls-9"
         d="m 56.68,128.34 c 0,-10.13 8.21,-18.33 18.33,-18.33 10.12,0 18.33,8.21 18.33,18.33 0,10.12 -8.21,18.33 -18.33,18.33 -10.12,0 -18.33,-8.21 -18.33,-18.33 z"
         id="path6176" />
    </g>
    <path
       class="cls-2"
       d="m 219.77633,1033.004 c -1.82,0 -3.31,-1.48 -3.31,-3.31 0,-1.83 1.48,-3.31 3.31,-3.31 1.83,0 3.31,1.48 3.31,3.31 0,1.83 -1.48,3.31 -3.31,3.31 z"
       id="path6180" />
  </g>
  <g
     id="g6190"
     transform="translate(408.8,-240.85221)">
    <g
       id="g6186"
       transform="translate(144.76633,901.36404)">
      <path
         class="cls-9"
         d="m 56.68,128.34 c 0,-10.13 8.21,-18.33 18.33,-18.33 10.12,0 18.33,8.21 18.33,18.33 0,10.12 -8.21,18.33 -18.33,18.33 -10.12,0 -18.33,-8.21 -18.33,-18.33 z"
         id="path6184" />
    </g>
    <path
       class="cls-2"
       d="m 219.77633,1033.004 c -1.82,0 -3.31,-1.48 -3.31,-3.31 0,-1.83 1.48,-3.31 3.31,-3.31 1.83,0 3.31,1.48 3.31,3.31 0,1.83 -1.48,3.31 -3.31,3.31 z"
       id="path6188" />
  </g>
  <g
     id="g6198"
     transform="translate(408.8,-190.85221)">
    <g
       id="g6194"
       transform="translate(144.76633,901.36404)">
      <path
         class="cls-9"
         d="m 56.68,128.34 c 0,-10.13 8.21,-18.33 18.33,-18.33 10.12,0 18.33,8.21 18.33,18.33 0,10.12 -8.21,18.33 -18.33,18.33 -10.12,0 -18.33,-8.21 -18.33,-18.33 z"
         id="path6192" />
    </g>
    <path
       class="cls-2"
       d="m 219.77633,1033.004 c -1.82,0 -3.31,-1.48 -3.31,-3.31 0,-1.83 1.48,-3.31 3.31,-3.31 1.83,0 3.31,1.48 3.31,3.31 0,1.83 -1.48,3.31 -3.31,3.31 z"
       id="path6196" />
  </g>
  <g
     id="g6206"
     transform="translate(408.8,-90.85221)">
    <g
       id="g6202"
       transform="translate(144.76633,901.36404)">
      <path
         class="cls-9"
         d="m 56.68,128.34 c 0,-10.13 8.21,-18.33 18.33,-18.33 10.12,0 18.33,8.21 18.33,18.33 0,10.12 -8.21,18.33 -18.33,18.33 -10.12,0 -18.33,-8.21 -18.33,-18.33 z"
         id="path6200" />
    </g>
    <path
       class="cls-2"
       d="m 219.77633,1033.004 c -1.82,0 -3.31,-1.48 -3.31,-3.31 0,-1.83 1.48,-3.31 3.31,-3.31 1.83,0 3.31,1.48 3.31,3.31 0,1.83 -1.48,3.31 -3.31,3.31 z"
       id="path6204" />
  </g>
  <g
     id="g6214"
     transform="translate(358.8,-90.85221)">
    <g
       id="g6210"
       transform="translate(144.76633,901.36404)">
      <path
         class="cls-9"
         d="m 56.68,128.34 c 0,-10.13 8.21,-18.33 18.33,-18.33 10.12,0 18.33,8.21 18.33,18.33 0,10.12 -8.21,18.33 -18.33,18.33 -10.12,0 -18.33,-8.21 -18.33,-18.33 z"
         id="path6208" />
    </g>
    <path
       class="cls-2"
       d="m 219.77633,1033.004 c -1.82,0 -3.31,-1.48 -3.31,-3.31 0,-1.83 1.48,-3.31 3.31,-3.31 1.83,0 3.31,1.48 3.31,3.31 0,1.83 -1.48,3.31 -3.31,3.31 z"
       id="path6212" />
  </g>
  <g
     id="g6222"
     transform="translate(308.8,-90.85221)">
    <g
       id="g6218"
       transform="translate(144.76633,901.36404)">
      <path
         class="cls-9"
         d="m 56.68,128.34 c 0,-10.13 8.21,-18.33 18.33,-18.33 10.12,0 18.33,8.21 18.33,18.33 0,10.12 -8.21,18.33 -18.33,18.33 -10.12,0 -18.33,-8.21 -18.33,-18.33 z"
         id="path6216" />
    </g>
    <path
       class="cls-2"
       d="m 219.77633,1033.004 c -1.82,0 -3.31,-1.48 -3.31,-3.31 0,-1.83 1.48,-3.31 3.31,-3.31 1.83,0 3.31,1.48 3.31,3.31 0,1.83 -1.48,3.31 -3.31,3.31 z"
       id="path6220" />
  </g>
  <g
     id="g6230"
     transform="translate(258.8,-90.85221)">
    <g
       id="g6226"
       transform="translate(144.76633,901.36404)">
      <path
         class="cls-9"
         d="m 56.68,128.34 c 0,-10.13 8.21,-18.33 18.33,-18.33 10.12,0 18.33,8.21 18.33,18.33 0,10.12 -8.21,18.33 -18.33,18.33 -10.12,0 -18.33,-8.21 -18.33,-18.33 z"
         id="path6224" />
    </g>
    <path
       class="cls-2"
       d="m 219.77633,1033.004 c -1.82,0 -3.31,-1.48 -3.31,-3.31 0,-1.83 1.48,-3.31 3.31,-3.31 1.83,0 3.31,1.48 3.31,3.31 0,1.83 -1.48,3.31 -3.31,3.31 z"
       id="path6228" />
  </g>
  <g
     id="g6238"
     transform="translate(208.8,-90.85221)">
    <g
       id="g6234"
       transform="translate(144.76633,901.36404)">
      <path
         class="cls-9"
         d="m 56.68,128.34 c 0,-10.13 8.21,-18.33 18.33,-18.33 10.12,0 18.33,8.21 18.33,18.33 0,10.12 -8.21,18.33 -18.33,18.33 -10.12,0 -18.33,-8.21 -18.33,-18.33 z"
         id="path6232" />
    </g>
    <path
       class="cls-2"
       d="m 219.77633,1033.004 c -1.82,0 -3.31,-1.48 -3.31,-3.31 0,-1.83 1.48,-3.31 3.31,-3.31 1.83,0 3.31,1.48 3.31,3.31 0,1.83 -1.48,3.31 -3.31,3.31 z"
       id="path6236" />
  </g>
  <g
     id="g6246"
     transform="translate(158.8,-90.85221)">
    <g
       id="g6242"
       transform="translate(144.76633,901.36404)">
      <path
         class="cls-9"
         d="m 56.68,128.34 c 0,-10.13 8.21,-18.33 18.33,-18.33 10.12,0 18.33,8.21 18.33,18.33 0,10.12 -8.21,18.33 -18.33,18.33 -10.12,0 -18.33,-8.21 -18.33,-18.33 z"
         id="path6240" />
    </g>
    <path
       class="cls-2"
       d="m 219.77633,1033.004 c -1.82,0 -3.31,-1.48 -3.31,-3.31 0,-1.83 1.48,-3.31 3.31,-3.31 1.83,0 3.31,1.48 3.31,3.31 0,1.83 -1.48,3.31 -3.31,3.31 z"
       id="path6244" />
  </g>
  <g
     id="g6254"
     transform="translate(108.8,-90.85221)">
    <g
       id="g6250"
       transform="translate(144.76633,901.36404)">
      <path
         class="cls-9"
         d="m 56.68,128.34 c 0,-10.13 8.21,-18.33 18.33,-18.33 10.12,0 18.33,8.21 18.33,18.33 0,10.12 -8.21,18.33 -18.33,18.33 -10.12,0 -18.33,-8.21 -18.33,-18.33 z"
         id="path6248" />
    </g>
    <path
       class="cls-2"
       d="m 219.77633,1033.004 c -1.82,0 -3.31,-1.48 -3.31,-3.31 0,-1.83 1.48,-3.31 3.31,-3.31 1.83,0 3.31,1.48 3.31,3.31 0,1.83 -1.48,3.31 -3.31,3.31 z"
       id="path6252" />
  </g>
  <g
     id="g6262"
     transform="translate(58.8,-90.85221)">
    <g
       id="g6258"
       transform="translate(144.76633,901.36404)">
      <path
         class="cls-9"
         d="m 56.68,128.34 c 0,-10.13 8.21,-18.33 18.33,-18.33 10.12,0 18.33,8.21 18.33,18.33 0,10.12 -8.21,18.33 -18.33,18.33 -10.12,0 -18.33,-8.21 -18.33,-18.33 z"
         id="path6256" />
    </g>
    <path
       class="cls-2"
       d="m 219.77633,1033.004 c -1.82,0 -3.31,-1.48 -3.31,-3.31 0,-1.83 1.48,-3.31 3.31,-3.31 1.83,0 3.31,1.48 3.31,3.31 0,1.83 -1.48,3.31 -3.31,3.31 z"
       id="path6260" />
  </g>
  <g
     id="g6270"
     transform="translate(8.8,-90.85221)">
    <g
       id="g6266"
       transform="translate(144.76633,901.36404)">
      <path
         class="cls-9"
         d="m 56.68,128.34 c 0,-10.13 8.21,-18.33 18.33,-18.33 10.12,0 18.33,8.21 18.33,18.33 0,10.12 -8.21,18.33 -18.33,18.33 -10.12,0 -18.33,-8.21 -18.33,-18.33 z"
         id="path6264" />
    </g>
    <path
       class="cls-2"
       d="m 219.77633,1033.004 c -1.82,0 -3.31,-1.48 -3.31,-3.31 0,-1.83 1.48,-3.31 3.31,-3.31 1.83,0 3.31,1.48 3.31,3.31 0,1.83 -1.48,3.31 -3.31,3.31 z"
       id="path6268" />
  </g>
  <rect
     class="cls-19"
     x="586.31177"
     width="165.08"
     height="52.349998"
     id="rect6388"
     y="512.87183" />
  <g
     id="g6410"
     transform="translate(-559.42823,512.87182)">
    <path
       class="cls-24"
       d="m 1168.84,14.48 v 2.29 h -10.05 v 6.45 h 8.94 v 2.35 h -8.94 v 8.71 h -2.49 v -19.8 z"
       id="path6390" />
    <path
       class="cls-24"
       d="m 1171.74,20.18 h 2.12 l 0.2,2.46 c 0.73,-1.81 2.43,-2.57 4.22,-2.57 0.36,0 0.75,0.03 1.12,0.08 v 2.37 c -0.31,-0.08 -0.67,-0.14 -1.12,-0.14 -3.1,0 -4.16,2.32 -4.16,5.05 v 6.84 h -2.37 v -14.1 z"
       id="path6392" />
    <path
       class="cls-24"
       d="m 1183.55,33.02 c -1.59,-1.51 -2.07,-3.57 -2.07,-5.81 0,-2.24 0.47,-4.27 2.07,-5.78 1.06,-1.01 2.54,-1.65 4.38,-1.65 1.84,0 3.32,0.64 4.38,1.65 1.59,1.51 2.07,3.55 2.07,5.78 0,2.23 -0.47,4.3 -2.07,5.81 -1.06,1 -2.54,1.65 -4.38,1.65 -1.84,0 -3.32,-0.64 -4.38,-1.65 z m 7.04,-1.39 c 1.03,-1.03 1.37,-2.54 1.37,-4.41 0,-1.87 -0.34,-3.35 -1.37,-4.38 -0.59,-0.59 -1.51,-1.01 -2.65,-1.01 -1.14,0 -2.07,0.42 -2.65,1.01 -1.03,1.03 -1.37,2.51 -1.37,4.38 0,1.87 0.34,3.38 1.37,4.41 0.59,0.59 1.51,1.01 2.65,1.01 1.14,0 2.07,-0.42 2.65,-1.01 z"
       id="path6394" />
    <path
       class="cls-24"
       d="m 1198.43,20.18 h 2.07 l 0.2,2.18 c 0.73,-1.68 2.76,-2.57 4.36,-2.57 3.21,0 4.97,1.93 4.97,5.19 v 9.3 h -2.37 v -8.96 c 0,-2.07 -0.95,-3.38 -3.04,-3.38 -2.37,0 -3.8,2.07 -3.8,4.69 v 7.65 h -2.37 v -14.1 z"
       id="path6396" />
    <path
       class="cls-24"
       d="m 1216.05,30.42 v -8.21 h -3.1 v -2.04 h 3.1 v -3.74 l 2.37,-0.56 v 4.3 h 4.02 v 2.04 h -4.02 v 7.93 c 0,1.45 0.75,2.12 2.07,2.12 0.81,0 1.59,-0.14 2.09,-0.28 v 2.04 c -0.53,0.2 -1.28,0.42 -2.49,0.42 -3.04,0 -4.05,-2.12 -4.05,-4.02 z"
       id="path6398" />
    <path
       class="cls-24"
       d="m 1239.92,14.48 c 4.05,0 6.7,2.12 6.7,5.89 0,3.77 -2.65,5.89 -6.7,5.89 h -4.69 v 8.01 h -2.48 V 14.48 h 7.18 z m 4.13,5.89 c 0,-2.43 -1.54,-3.63 -4.19,-3.63 h -4.64 V 24 h 4.64 c 2.65,0 4.19,-1.2 4.19,-3.63 z"
       id="path6400" />
    <path
       class="cls-24"
       d="m 1248.66,30.31 c 0,-1.81 1.17,-4.22 5.03,-4.44 l 4.3,-0.25 v -0.98 c 0,-2.01 -1.03,-2.93 -3.07,-2.93 -1.93,0 -3.24,0.98 -3.24,2.57 h -2.32 c 0.06,-2.88 2.49,-4.5 5.56,-4.5 3.29,0 5.42,1.73 5.42,4.89 v 6.84 c 0,0.75 0.31,0.95 0.78,0.95 0.11,0 0.39,-0.03 0.61,-0.08 v 1.76 c -0.5,0.25 -0.98,0.33 -1.56,0.33 -1.26,0 -2.07,-0.95 -2.07,-2.15 -0.84,1.37 -2.57,2.35 -4.58,2.35 -3.24,0 -4.86,-2.18 -4.86,-4.36 z m 9.33,-2.01 v -0.84 l -4.08,0.22 c -1.4,0.08 -2.82,0.84 -2.82,2.57 0,1.17 0.78,2.43 2.79,2.43 2.57,0 4.1,-1.93 4.1,-4.38 z"
       id="path6402" />
    <path
       class="cls-24"
       d="m 1265.41,20.18 h 2.07 l 0.2,2.18 c 0.73,-1.68 2.76,-2.57 4.36,-2.57 3.21,0 4.97,1.93 4.97,5.19 v 9.3 h -2.37 v -8.96 c 0,-2.07 -0.95,-3.38 -3.04,-3.38 -2.37,0 -3.8,2.07 -3.8,4.69 v 7.65 h -2.37 v -14.1 z"
       id="path6404" />
    <path
       class="cls-24"
       d="m 1282.66,32.55 c -1.2,-1.37 -1.79,-3.24 -1.79,-5.25 0,-1.7 0.31,-3.21 1.12,-4.52 1.03,-1.7 2.93,-2.99 5.45,-2.99 3.85,0 6.2,3.07 6.2,6.81 0,0.45 0,1.01 -0.06,1.42 h -10.22 c 0,2.62 1.59,4.55 4.27,4.55 1.62,0 2.93,-0.81 3.41,-2.49 h 2.37 c -0.39,2.68 -2.93,4.58 -5.81,4.58 -2.04,0 -3.8,-0.81 -4.94,-2.12 z m 8.55,-6.57 c 0,-2.43 -1.34,-4.19 -3.83,-4.19 -2.49,0 -3.91,2.12 -3.97,4.19 h 7.79 z"
       id="path6406" />
    <path
       class="cls-24"
       d="M 1297.55,31.15 V 14.06 h 2.37 v 16.81 c 0,0.95 0.31,1.45 1.28,1.45 0.17,0 0.39,0 0.98,-0.06 v 2.01 c -0.5,0.14 -0.84,0.2 -1.54,0.2 -1.95,0 -3.1,-1.09 -3.1,-3.32 z"
       id="path6408" />
  </g>
  <text
     xml:space="preserve"
     style="font-size:26.6667px;font-family:zi;-inkscape-font-specification:zi;text-align:center;text-anchor:middle;opacity:0.99;fill:#1a1a1a;stroke:none;stroke-width:6"
     x="355.54022"
     y="689.79938"
     id="text6428"><tspan
       sodipodi:role="line"
       id="tspan6426"
       x="355.54022"
       y="689.79938"
       style="font-weight:bold;font-size:26.6667px;fill:#00aad4">Time Tagger <tspan
   style="font-size:26.6667px;fill:#0044aa"
   id="tspan6888">Ultra</tspan></tspan></text>
  <line
     class="cls-8"
     x1="339.40176"
     y1="342.90909"
     x2="278.53204"
     y2="342.90909"
     id="line8536"
     style="stroke-width:1.763;stroke-dasharray:none" />
  <line
     class="cls-8"
     x1="278.49838"
     y1="342.63004"
     x2="278.49838"
     y2="588.74396"
     id="line8538"
     style="stroke-width:1.794;stroke-dasharray:none" />
  <g
     id="g15184"
     transform="translate(518.29922,-370.8143)"
     inkscape:export-filename="setup_timetagger_blog.png"
     inkscape:export-xdpi="96"
     inkscape:export-ydpi="96">
    <g
       id="g12076"
       transform="translate(952.2385,395.9943)">
      <g
         id="g12014">
        <rect
           x="71.910004"
           y="24.219999"
           width="352.32001"
           height="252"
           fill="none"
           stroke="#000000"
           stroke-linecap="round"
           stroke-linejoin="round"
           stroke-width="2"
           id="rect12010" />
        <rect
           x="46.349998"
           y="1"
           width="403.42001"
           height="298.44"
           fill="none"
           stroke="#000000"
           stroke-linecap="round"
           stroke-linejoin="round"
           stroke-width="2"
           id="rect12012" />
      </g>
      <g
         id="g12030">
        <rect
           x="159.39"
           y="394.09"
           width="19.18"
           height="20.07"
           transform="rotate(90,168.98,404.13)"
           fill="none"
           stroke="#000000"
           stroke-linecap="round"
           stroke-linejoin="round"
           stroke-width="2"
           id="rect12016" />
        <rect
           x="185.75"
           y="394.09"
           width="19.18"
           height="20.07"
           transform="rotate(90,195.34,404.13)"
           fill="none"
           stroke="#000000"
           stroke-linecap="round"
           stroke-linejoin="round"
           stroke-width="2"
           id="rect12018" />
        <rect
           x="212.11"
           y="394.09"
           width="19.18"
           height="20.07"
           transform="rotate(90,221.7,404.13)"
           fill="none"
           stroke="#000000"
           stroke-linecap="round"
           stroke-linejoin="round"
           stroke-width="2"
           id="rect12020" />
        <rect
           x="238.47"
           y="394.09"
           width="19.18"
           height="20.07"
           transform="rotate(90,248.06,404.13)"
           fill="none"
           stroke="#000000"
           stroke-linecap="round"
           stroke-linejoin="round"
           stroke-width="2"
           id="rect12022" />
        <rect
           x="264.82999"
           y="394.09"
           width="19.18"
           height="20.08"
           transform="rotate(90,274.42,404.13)"
           fill="none"
           stroke="#000000"
           stroke-linecap="round"
           stroke-linejoin="round"
           stroke-width="2"
           id="rect12024" />
        <rect
           x="291.19"
           y="394.09"
           width="19.18"
           height="20.08"
           transform="rotate(90,300.78,404.13)"
           fill="none"
           stroke="#000000"
           stroke-linecap="round"
           stroke-linejoin="round"
           stroke-width="2"
           id="rect12026" />
        <rect
           x="317.54999"
           y="394.09"
           width="19.18"
           height="20.08"
           transform="rotate(90,327.14,404.13)"
           fill="none"
           stroke="#000000"
           stroke-linecap="round"
           stroke-linejoin="round"
           stroke-width="2"
           id="rect12028" />
      </g>
      <g
         id="g12046">
        <rect
           x="159.39"
           y="422.62"
           width="19.18"
           height="20.07"
           transform="rotate(90,168.98,432.66)"
           fill="none"
           stroke="#000000"
           stroke-linecap="round"
           stroke-linejoin="round"
           stroke-width="2"
           id="rect12032" />
        <rect
           x="185.75"
           y="422.62"
           width="19.18"
           height="20.07"
           transform="rotate(90,195.34,432.66)"
           fill="none"
           stroke="#000000"
           stroke-linecap="round"
           stroke-linejoin="round"
           stroke-width="2"
           id="rect12034" />
        <rect
           x="212.11"
           y="422.62"
           width="19.18"
           height="20.07"
           transform="rotate(90,221.7,432.66)"
           fill="none"
           stroke="#000000"
           stroke-linecap="round"
           stroke-linejoin="round"
           stroke-width="2"
           id="rect12036" />
        <rect
           x="238.47"
           y="422.62"
           width="19.18"
           height="20.07"
           transform="rotate(90,248.06,432.66)"
           fill="none"
           stroke="#000000"
           stroke-linecap="round"
           stroke-linejoin="round"
           stroke-width="2"
           id="rect12038" />
        <rect
           x="264.82999"
           y="422.62"
           width="19.18"
           height="20.08"
           transform="rotate(90,274.42,432.66)"
           fill="none"
           stroke="#000000"
           stroke-linecap="round"
           stroke-linejoin="round"
           stroke-width="2"
           id="rect12040" />
        <rect
           x="291.19"
           y="422.62"
           width="19.18"
           height="20.08"
           transform="rotate(90,300.78,432.66)"
           fill="none"
           stroke="#000000"
           stroke-linecap="round"
           stroke-linejoin="round"
           stroke-width="2"
           id="rect12042" />
        <rect
           x="317.54999"
           y="422.62"
           width="19.18"
           height="20.08"
           transform="rotate(90,327.14,432.66)"
           fill="none"
           stroke="#000000"
           stroke-linecap="round"
           stroke-linejoin="round"
           stroke-width="2"
           id="rect12044" />
      </g>
      <g
         id="g12062">
        <rect
           x="159.39"
           y="451.16"
           width="19.18"
           height="20.07"
           transform="rotate(90,168.985,461.195)"
           fill="none"
           stroke="#000000"
           stroke-linecap="round"
           stroke-linejoin="round"
           stroke-width="2"
           id="rect12048" />
        <rect
           x="185.75"
           y="451.16"
           width="19.18"
           height="20.07"
           transform="rotate(90,195.345,461.195)"
           fill="none"
           stroke="#000000"
           stroke-linecap="round"
           stroke-linejoin="round"
           stroke-width="2"
           id="rect12050" />
        <rect
           x="212.11"
           y="451.16"
           width="19.18"
           height="20.07"
           transform="rotate(90,221.7,461.19)"
           fill="none"
           stroke="#000000"
           stroke-linecap="round"
           stroke-linejoin="round"
           stroke-width="2"
           id="rect12052" />
        <rect
           x="238.47"
           y="451.16"
           width="19.18"
           height="20.07"
           transform="rotate(90,248.06,461.19)"
           fill="none"
           stroke="#000000"
           stroke-linecap="round"
           stroke-linejoin="round"
           stroke-width="2"
           id="rect12054" />
        <rect
           x="264.82999"
           y="451.16"
           width="19.18"
           height="20.08"
           transform="rotate(90,274.425,461.195)"
           fill="none"
           stroke="#000000"
           stroke-linecap="round"
           stroke-linejoin="round"
           stroke-width="2"
           id="rect12056" />
        <rect
           x="291.19"
           y="451.16"
           width="19.18"
           height="20.08"
           transform="rotate(90,300.78,461.19)"
           fill="none"
           stroke="#000000"
           stroke-linecap="round"
           stroke-linejoin="round"
           stroke-width="2"
           id="rect12058" />
        <rect
           x="317.54999"
           y="451.16"
           width="19.18"
           height="20.08"
           transform="rotate(90,327.14,461.19)"
           fill="none"
           stroke="#000000"
           stroke-linecap="round"
           stroke-linejoin="round"
           stroke-width="2"
           id="rect12060" />
      </g>
      <g
         id="g12074">
        <path
           d="m 539.46,323.22 c 13.13,0 23.77,10.64 23.77,23.77 0,13.13 -10.64,23.77 -23.77,23.77"
           fill="none"
           stroke="#000000"
           stroke-miterlimit="10"
           stroke-width="2"
           id="path12064" />
        <path
           d="m 248.06,394.54 c 0,-13.13 10.64,-23.77 23.77,-23.77"
           fill="none"
           stroke="#000000"
           stroke-miterlimit="10"
           stroke-width="2"
           id="path12066" />
        <path
           d="m 378.2,323.22 c -13.13,0 -23.77,-10.64 -23.77,-23.77"
           fill="none"
           stroke="#000000"
           stroke-miterlimit="10"
           stroke-width="2"
           id="path12068" />
        <line
           x1="271.84"
           y1="370.76999"
           x2="539.46002"
           y2="370.76999"
           fill="none"
           stroke="#000000"
           stroke-miterlimit="10"
           stroke-width="2"
           id="line12070" />
        <line
           x1="378.20001"
           y1="323.22"
           x2="539.46002"
           y2="323.22"
           fill="none"
           stroke="#000000"
           stroke-miterlimit="10"
           stroke-width="2"
           id="line12072" />
      </g>
    </g>
    <g
       id="g12102"
       transform="translate(952.2385,395.9943)">
      <path
         d="m 163.52,172.99 v 56.16 h -56.16 v -56.16 z m 1.03,-1.03 h -58.22 v 58.22 h 58.22 z"
         fill="#009ee0"
         id="path12078" />
      <g
         id="g12094">
        <path
           d="m 177.94,181.18 v 37.21 h 20.75 v 2.76 h -23.68 v -39.97 z"
           fill="#009ee0"
           id="path12080" />
        <path
           d="m 201.62,213.31 c 0,-5.02 3.83,-8.12 9.47,-8.51 l 10.37,-0.73 v -2.48 c 0,-4.74 -3.44,-6.77 -7.78,-6.77 -4.34,0 -7.72,2.03 -8.01,6.26 h -2.82 c 0.39,-5.81 5.07,-8.91 10.71,-8.91 6.43,0 10.71,3.16 10.71,9.64 v 13.92 c 0,1.92 0.28,3.04 2.2,3.04 0.23,0 0.56,0 0.79,-0.06 v 2.48 c -0.39,0.11 -0.9,0.17 -1.35,0.17 -3.5,0 -4.45,-2.65 -4.45,-5.64 -1.52,4 -5.81,6.2 -10.15,6.2 -5.47,0 -9.7,-3.33 -9.7,-8.63 z m 19.85,-5.19 v -1.47 l -10.09,0.62 c -4.34,0.28 -6.88,2.65 -6.88,5.98 0,3.95 3.04,6.09 7.05,6.09 7.1,0 9.92,-5.75 9.92,-11.22 z"
           fill="#009ee0"
           id="path12082" />
        <path
           d="m 234.44,215.62 -0.23,5.53 h -2.59 v -40.82 h 2.82 v 18.21 c 1.47,-3.89 5.58,-6.37 9.7,-6.37 3.38,0 6.03,1.13 7.95,2.93 3.04,2.82 4.51,7.33 4.51,12.01 0,4.68 -1.52,9.41 -4.79,12.18 -1.92,1.63 -4.4,2.65 -7.72,2.65 -3.89,0 -8.17,-2.37 -9.64,-6.31 z m 15.39,1.58 c 2.65,-2.37 3.83,-6.09 3.83,-10.15 0,-3.66 -0.9,-7.33 -3.21,-9.64 -1.52,-1.52 -3.55,-2.48 -6.31,-2.48 -2.76,0 -4.62,0.85 -6.09,2.2 -2.65,2.42 -3.66,5.75 -3.66,9.92 0,3.89 1.07,7.44 3.72,9.87 1.47,1.35 3.38,2.26 5.92,2.26 2.54,0 4.4,-0.73 5.81,-1.97 z"
           fill="#009ee0"
           id="path12084" />
        <path
           d="m 265.78,217.82 c -4.62,-4.4 -5.3,-10.94 -5.3,-16.69 0,-5.75 0.68,-12.29 5.3,-16.63 2.59,-2.42 6.09,-4.12 10.54,-4.12 4.45,0 7.95,1.75 10.49,4.12 4.68,4.34 5.36,10.88 5.36,16.63 0,5.75 -0.68,12.35 -5.36,16.69 -2.54,2.37 -6.03,4.12 -10.49,4.12 -4.46,0 -8.01,-1.69 -10.54,-4.12 z m 18.89,-1.92 c 4,-3.83 4.4,-10.04 4.4,-14.77 0,-4.73 -0.39,-10.88 -4.4,-14.71 -2.14,-2.03 -5.13,-3.16 -8.34,-3.16 -3.21,0 -6.2,1.07 -8.34,3.16 -4,3.89 -4.45,9.98 -4.45,14.71 0,4.73 0.39,10.88 4.45,14.77 2.14,2.03 5.13,3.16 8.34,3.16 3.21,0 6.2,-1.13 8.34,-3.16 z"
           fill="#009ee0"
           id="path12086" />
        <path
           d="m 297.02,192.96 h 2.59 l 0.23,5.41 c 1.47,-3.89 5.86,-6.2 9.81,-6.2 6.43,0 9.98,4.28 9.98,10.54 v 18.44 h -2.82 V 203 c 0,-4.74 -2.42,-8.06 -7.44,-8.06 -6.26,0 -9.53,5.19 -9.53,11.44 v 14.77 h -2.82 z"
           fill="#009ee0"
           id="path12088" />
        <path
           d="m 327.46,217.99 c -2.31,-2.71 -3.72,-6.54 -3.72,-10.82 0,-3.55 0.56,-7.05 2.82,-10.04 2.42,-3.21 5.75,-4.96 9.87,-4.96 7.78,0 12.46,6.2 12.46,13.7 0,0.68 0,1.07 -0.06,1.86 h -22.27 c 0.11,6.26 3.78,11.5 10.09,11.5 4.45,0 7.95,-2.93 8.63,-6.54 h 2.93 c -0.85,5.3 -5.92,9.25 -11.56,9.25 -4.06,0 -7.33,-1.8 -9.19,-3.95 z m 18.49,-12.8 c -0.11,-5.36 -3.44,-10.37 -9.53,-10.37 -6.09,0 -9.7,4.85 -9.81,10.37 z"
           fill="#009ee0"
           id="path12090" />
        <path
           d="m 382.18,219.57 c -2.26,1.47 -4.96,2.37 -8.23,2.37 -4.45,0 -8.01,-1.69 -10.54,-4.12 -4.62,-4.4 -5.3,-10.94 -5.3,-16.69 0,-5.75 0.68,-12.29 5.3,-16.63 2.59,-2.42 6.09,-4.12 10.54,-4.12 4.45,0 7.95,1.75 10.49,4.12 4.68,4.34 5.36,10.88 5.36,16.63 0,6.37 -1.01,12.91 -5.58,16.86 l 3.72,4.74 -2.03,1.63 -3.72,-4.79 z m -1.8,-2.2 -6.43,-8.23 2.03,-1.63 6.48,8.23 c 3.83,-3.83 4.23,-9.92 4.23,-14.6 0,-4.68 -0.39,-10.88 -4.4,-14.71 -2.14,-2.03 -5.13,-3.16 -8.34,-3.16 -3.21,0 -6.2,1.07 -8.34,3.16 -4,3.89 -4.45,9.98 -4.45,14.71 0,4.73 0.39,10.88 4.45,14.77 2.14,2.03 5.13,3.16 8.34,3.16 2.37,0 4.57,-0.62 6.43,-1.69 z"
           fill="#009ee0"
           id="path12092" />
      </g>
      <g
         id="g12100">
        <path
           d="m 123.91,212.59 c -6.36,-6.36 -6.36,-16.68 0,-23.04 6.36,-6.36 16.68,-6.36 23.04,0 5.7,5.7 6.29,14.58 1.77,20.94 l 3.91,3.91 c 6.64,-8.54 6.04,-20.87 -1.8,-28.71 -8.5,-8.5 -22.27,-8.5 -30.77,0 -8.5,8.5 -8.5,22.27 0,30.77 7.84,7.84 20.18,8.44 28.71,1.8 l -3.91,-3.91 c -6.36,4.53 -15.25,3.95 -20.95,-1.76 z"
           fill="#009ee0"
           id="path12096" />
        <rect
           x="149.92"
           y="215.53"
           width="5.46"
           height="5.5300002"
           transform="rotate(-45,152.65751,218.28719)"
           fill="#009ee0"
           id="rect12098" />
      </g>
    </g>
    <g
       id="g12138"
       transform="translate(952.2385,395.9943)">
      <path
         d="m 111.88,80.7 c -2.89,-2.93 -3.15,-7.22 -3.15,-11.06 0,-3.84 0.27,-8.09 3.15,-11.02 1.86,-1.86 4.52,-2.96 7.1,-2.96 5.17,0 9.12,3.61 9.57,8.78 h -2.05 c -0.34,-3.99 -3.27,-6.84 -7.52,-6.84 -2.39,0 -4.22,0.87 -5.66,2.36 -2.43,2.51 -2.55,6.46 -2.55,9.69 0,3.23 0.15,7.22 2.58,9.73 1.48,1.52 3.38,2.36 5.62,2.36 4.26,0 7.18,-2.85 7.52,-6.84 h 2.05 c -0.42,5.28 -4.52,8.78 -9.57,8.78 -2.58,0 -5.24,-1.1 -7.1,-2.96 z"
         id="path12104" />
      <path
         d="M 133.35,76.41 V 64.14 h 1.9 V 76.3 c 0,3.31 1.63,5.51 4.98,5.51 4.41,0 6.23,-3.53 6.23,-7.79 v -9.88 h 1.9 v 19 h -1.75 l -0.15,-3.57 c -1.06,2.51 -3.5,4.1 -6.35,4.1 -4.29,0 -6.76,-3 -6.76,-7.26 z"
         id="path12106" />
      <path
         d="m 153.33,77.36 h 1.94 c 0.3,3.12 2.77,4.48 5.89,4.48 3.12,0 5.51,-1.37 5.51,-3.95 0,-1.67 -1.18,-3.08 -3.5,-3.38 l -3.69,-0.49 c -3.19,-0.42 -5.36,-1.94 -5.36,-4.83 0,-3.38 3.27,-5.59 6.84,-5.59 4.1,0 7.07,2.36 7.18,5.78 h -1.9 c -0.27,-2.74 -2.51,-3.99 -5.28,-3.99 -2.77,0 -4.9,1.48 -4.9,3.61 0,1.56 0.84,2.74 3.69,3.12 l 3.61,0.49 c 3.57,0.49 5.24,2.89 5.24,5.17 0,3.88 -3.5,5.89 -7.45,5.89 -4.52,0 -7.64,-2.39 -7.83,-6.31 z"
         id="path12108" />
      <path
         d="M 175.6,78.2 V 65.89 h -4.48 v -1.75 h 4.48 V 58.9 l 1.9,-0.46 v 5.7 h 5.96 v 1.75 h -5.96 v 12.04 c 0,2.09 0.65,3.69 3.42,3.69 1.03,0 1.82,-0.11 2.81,-0.34 v 1.67 c -0.95,0.3 -1.9,0.46 -2.96,0.46 -3.72,0 -5.17,-2.17 -5.17,-5.21 z"
         id="path12110" />
      <path
         d="m 189.55,81.43 c -2.09,-2.01 -2.89,-4.52 -2.89,-7.79 0,-3.27 0.8,-5.78 2.89,-7.79 1.37,-1.29 3.27,-2.24 5.7,-2.24 2.43,0 4.33,0.95 5.7,2.24 2.09,2.01 2.89,4.56 2.89,7.79 0,3.23 -0.8,5.77 -2.89,7.79 -1.37,1.29 -3.27,2.24 -5.7,2.24 -2.43,0 -4.33,-0.95 -5.7,-2.24 z m 10.07,-1.29 c 1.79,-1.75 2.28,-3.99 2.28,-6.5 0,-2.51 -0.49,-4.75 -2.28,-6.5 -1.03,-1.03 -2.47,-1.67 -4.37,-1.67 -1.9,0 -3.34,0.65 -4.37,1.67 -1.79,1.75 -2.28,4.03 -2.28,6.5 0,2.47 0.49,4.75 2.28,6.5 1.03,1.03 2.47,1.67 4.37,1.67 1.9,0 3.34,-0.65 4.37,-1.67 z"
         id="path12112" />
      <path
         d="m 209.27,64.14 h 1.75 l 0.15,3.72 c 0.87,-2.55 3.19,-4.26 5.97,-4.26 3.27,0 5.17,1.67 5.93,4.1 1.03,-2.36 3.08,-4.1 6.27,-4.1 4.45,0 6.31,2.93 6.31,6.99 v 12.54 h -1.9 V 70.82 c 0,-3.34 -1.29,-5.43 -4.6,-5.43 -3.57,0 -5.66,3.15 -5.66,6.99 v 10.75 h -1.98 V 70.82 c 0,-3.34 -1.44,-5.43 -4.6,-5.43 -3.65,0 -5.74,3.42 -5.74,7.48 v 10.26 h -1.9 v -19 z"
         id="path12114" />
      <path
         d="m 243.32,81.01 c -1.56,-1.82 -2.51,-4.41 -2.51,-7.29 0,-2.39 0.38,-4.75 1.9,-6.76 1.63,-2.17 3.88,-3.34 6.65,-3.34 5.24,0 8.4,4.18 8.4,9.23 0,0.46 0,0.72 -0.04,1.25 h -15.01 c 0.08,4.22 2.55,7.75 6.8,7.75 3,0 5.36,-1.98 5.81,-4.41 h 1.98 c -0.57,3.57 -3.99,6.23 -7.79,6.23 -2.74,0 -4.94,-1.22 -6.19,-2.66 z m 12.46,-8.62 c -0.08,-3.61 -2.32,-6.99 -6.42,-6.99 -4.1,0 -6.54,3.27 -6.61,6.99 z"
         id="path12116" />
      <path
         d="m 263,64.14 h 1.75 l 0.15,3.91 c 0.84,-2.66 3.42,-4.1 6.12,-4.1 0.57,0 1.22,0 1.79,0.19 v 1.82 c -0.61,-0.15 -1.25,-0.19 -1.86,-0.19 -4.41,0 -6.04,3.65 -6.04,7.86 v 9.5 h -1.9 v -19 z"
         id="path12118" />
      <path
         d="m 111.88,126.3 c -2.89,-2.93 -3.15,-7.22 -3.15,-11.06 0,-3.84 0.27,-8.09 3.15,-11.02 1.86,-1.86 4.52,-2.96 7.1,-2.96 5.17,0 9.12,3.61 9.57,8.78 h -2.05 c -0.34,-3.99 -3.27,-6.84 -7.52,-6.84 -2.39,0 -4.22,0.87 -5.66,2.36 -2.43,2.51 -2.55,6.46 -2.55,9.69 0,3.23 0.15,7.22 2.58,9.73 1.48,1.52 3.38,2.36 5.62,2.36 4.26,0 7.18,-2.85 7.52,-6.84 h 2.05 c -0.42,5.28 -4.52,8.78 -9.57,8.78 -2.58,0 -5.24,-1.1 -7.1,-2.96 z"
         id="path12120" />
      <path
         d="m 135.21,127.03 c -2.09,-2.01 -2.89,-4.52 -2.89,-7.79 0,-3.27 0.8,-5.78 2.89,-7.79 1.37,-1.29 3.27,-2.24 5.7,-2.24 2.43,0 4.33,0.95 5.7,2.24 2.09,2.01 2.89,4.56 2.89,7.79 0,3.23 -0.8,5.77 -2.89,7.79 -1.37,1.29 -3.27,2.24 -5.7,2.24 -2.43,0 -4.33,-0.95 -5.7,-2.24 z m 10.07,-1.29 c 1.79,-1.75 2.28,-3.99 2.28,-6.5 0,-2.51 -0.49,-4.75 -2.28,-6.5 -1.03,-1.03 -2.47,-1.67 -4.37,-1.67 -1.9,0 -3.34,0.65 -4.37,1.67 -1.79,1.75 -2.28,4.03 -2.28,6.5 0,2.47 0.49,4.75 2.28,6.5 1.03,1.03 2.47,1.67 4.37,1.67 1.9,0 3.34,-0.65 4.37,-1.67 z"
         id="path12122" />
      <path
         d="m 154.93,109.74 h 1.75 l 0.15,3.65 c 0.99,-2.62 3.95,-4.18 6.61,-4.18 4.33,0 6.72,2.89 6.72,7.1 v 12.42 h -1.9 V 116.5 c 0,-3.19 -1.63,-5.43 -5.02,-5.43 -4.22,0 -6.42,3.5 -6.42,7.71 v 9.95 h -1.9 v -19 z"
         id="path12124" />
      <path
         d="m 178.56,123.8 v -12.31 h -4.48 v -1.75 h 4.48 v -5.24 l 1.9,-0.46 v 5.7 h 5.96 v 1.75 h -5.96 v 12.04 c 0,2.09 0.65,3.69 3.42,3.69 1.03,0 1.82,-0.11 2.81,-0.34 v 1.67 c -0.95,0.3 -1.9,0.46 -2.96,0.46 -3.72,0 -5.17,-2.17 -5.17,-5.21 z"
         id="path12126" />
      <path
         d="m 190.88,109.74 h 1.75 l 0.15,3.91 c 0.84,-2.66 3.42,-4.1 6.12,-4.1 0.57,0 1.22,0 1.79,0.19 v 1.82 c -0.61,-0.15 -1.25,-0.19 -1.86,-0.19 -4.41,0 -6.04,3.65 -6.04,7.86 v 9.5 h -1.9 v -19 z"
         id="path12128" />
      <path
         d="m 206.49,127.03 c -2.09,-2.01 -2.89,-4.52 -2.89,-7.79 0,-3.27 0.8,-5.78 2.89,-7.79 1.37,-1.29 3.27,-2.24 5.7,-2.24 2.43,0 4.33,0.95 5.7,2.24 2.09,2.01 2.89,4.56 2.89,7.79 0,3.23 -0.8,5.77 -2.89,7.79 -1.37,1.29 -3.27,2.24 -5.7,2.24 -2.43,0 -4.33,-0.95 -5.7,-2.24 z m 10.07,-1.29 c 1.79,-1.75 2.28,-3.99 2.28,-6.5 0,-2.51 -0.49,-4.75 -2.28,-6.5 -1.03,-1.03 -2.47,-1.67 -4.37,-1.67 -1.9,0 -3.34,0.65 -4.37,1.67 -1.79,1.75 -2.28,4.03 -2.28,6.5 0,2.47 0.49,4.75 2.28,6.5 1.03,1.03 2.47,1.67 4.37,1.67 1.9,0 3.34,-0.65 4.37,-1.67 z"
         id="path12130" />
      <path
         d="m 226.14,124.94 v -23.71 h 1.9 v 23.63 c 0,1.29 0.38,2.28 1.98,2.28 0.76,0 1.1,-0.04 1.63,-0.11 v 1.71 c -0.42,0.11 -0.91,0.23 -1.71,0.23 -2.43,0 -3.8,-1.25 -3.8,-4.03 z"
         id="path12132" />
      <path
         d="m 253.91,101.8 c 4.98,0 8.85,2.39 8.85,7.67 0,5.28 -3.88,7.67 -8.85,7.67 h -7.48 v 11.59 h -1.98 v -26.94 h 9.46 z m 6.8,7.67 c 0,-4.18 -3,-5.77 -6.92,-5.77 h -7.37 v 11.55 h 7.37 c 3.91,0 6.92,-1.6 6.92,-5.78 z"
         id="path12134" />
      <path
         d="m 269.38,126.3 c -2.89,-2.93 -3.15,-7.22 -3.15,-11.06 0,-3.84 0.27,-8.09 3.15,-11.02 1.86,-1.86 4.52,-2.96 7.1,-2.96 5.17,0 9.12,3.61 9.57,8.78 H 284 c -0.34,-3.99 -3.27,-6.84 -7.52,-6.84 -2.39,0 -4.22,0.87 -5.66,2.36 -2.43,2.51 -2.55,6.46 -2.55,9.69 0,3.23 0.15,7.22 2.58,9.73 1.48,1.52 3.38,2.36 5.62,2.36 4.26,0 7.18,-2.85 7.52,-6.84 h 2.05 c -0.42,5.28 -4.52,8.78 -9.57,8.78 -2.58,0 -5.24,-1.1 -7.1,-2.96 z"
         id="path12136" />
    </g>
  </g>
  <line
     class="cls-8"
     x1="1577.6151"
     y1="791.9682"
     x2="724.68048"
     y2="791.9682"
     id="line21412"
     style="stroke-width:1.62504;stroke-dasharray:none" />
  <line
     class="cls-8"
     x1="1577.3374"
     y1="327.92261"
     x2="1577.3374"
     y2="791.11298"
     id="line21414"
     style="stroke-width:1.90941;stroke-dasharray:none" />
  <text
     xml:space="preserve"
     style="font-size:24px;font-family:zi;-inkscape-font-specification:zi;text-align:center;text-anchor:middle;opacity:0.99;fill:#0044aa;stroke:none;stroke-width:1.8;stroke-dasharray:none"
     x="1548.959"
     y="357.64651"
     id="text21488"><tspan
       sodipodi:role="line"
       id="tspan21486"
       x="1548.959"
       y="357.64651"
       style="font-size:24px;fill:#000000;stroke:none">USB</tspan></text>
</svg>
