<?xml version="1.0" encoding="UTF-8"?>
<svg id="Ebene_1" xmlns="http://www.w3.org/2000/svg" viewBox="0 0 625.62 898.65">
  <defs>
    <style>
      .cls-1 {
        stroke: #000;
      }

      .cls-1, .cls-2 {
        fill: none;
        stroke-linecap: round;
        stroke-linejoin: round;
        stroke-width: 2px;
      }

      .cls-3 {
        fill: #007ec4;
      }

      .cls-2 {
        stroke: #007ec4;
      }
    </style>
  </defs>
  <g>
    <line class="cls-1" x1="207.05" y1="472.4" x2="207.05" y2="514.74"/>
    <polygon points="197.08 511.82 207.05 529.09 217.02 511.82 197.08 511.82"/>
  </g>
  <g>
    <path class="cls-3" d="M76.57,173.82c-2.36-2.36-3.21-5.31-3.21-9.1s.8-6.82,3.21-9.14c1.61-1.56,3.88-2.63,6.73-2.63,4.73,0,8.34,2.9,8.88,7.54h-2.36c-.49-3.08-3.03-5.35-6.51-5.35-2.19,0-3.92.71-5.13,1.92-2.1,2.1-2.54,4.73-2.54,7.67s.49,5.53,2.59,7.63c1.2,1.2,2.94,1.92,5.13,1.92,3.48,0,6.02-2.27,6.51-5.35h2.32c-.58,4.59-4.19,7.54-8.88,7.54-2.85,0-5.13-1.03-6.73-2.63Z"/>
    <path class="cls-3" d="M98.6,153.57h2.05l.18,4.59c.98-3.12,4.01-4.82,7.18-4.82.67,0,1.43,0,2.1.22v2.14c-.71-.18-1.47-.22-2.19-.22-5.17,0-7.09,4.28-7.09,9.23v11.15h-2.23v-22.3Z"/>
    <path class="cls-3" d="M115.91,173.37c-1.83-2.14-2.94-5.17-2.94-8.56,0-2.81.45-5.58,2.23-7.94,1.92-2.54,4.55-3.93,7.81-3.93,6.15,0,9.86,4.91,9.86,10.84,0,.54,0,.85-.04,1.47h-17.62c.09,4.95,2.99,9.1,7.98,9.1,3.52,0,6.29-2.32,6.82-5.17h2.32c-.67,4.19-4.68,7.31-9.14,7.31-3.21,0-5.8-1.43-7.27-3.12ZM130.54,163.25c-.09-4.24-2.72-8.21-7.54-8.21s-7.67,3.84-7.76,8.21h15.3Z"/>
    <path class="cls-3" d="M137.63,169.67c0-3.97,3.03-6.42,7.49-6.73l8.21-.58v-1.96c0-3.75-2.72-5.35-6.16-5.35s-6.11,1.61-6.33,4.95h-2.23c.31-4.59,4.01-7.05,8.47-7.05,5.08,0,8.47,2.5,8.47,7.63v11.02c0,1.52.22,2.41,1.74,2.41.18,0,.45,0,.62-.04v1.96c-.31.09-.71.13-1.07.13-2.77,0-3.52-2.1-3.52-4.46-1.2,3.17-4.59,4.91-8.03,4.91-4.33,0-7.67-2.63-7.67-6.82ZM153.33,165.57v-1.16l-7.98.49c-3.43.22-5.44,2.1-5.44,4.73,0,3.12,2.41,4.82,5.58,4.82,5.62,0,7.85-4.55,7.85-8.88Z"/>
    <path class="cls-3" d="M165.86,170.07v-14.45h-5.26v-2.05h5.26v-6.15l2.23-.54v6.69h7v2.05h-7v14.14c0,2.45.76,4.33,4.01,4.33,1.2,0,2.14-.13,3.3-.4v1.96c-1.12.36-2.23.54-3.48.54-4.37,0-6.07-2.54-6.07-6.11Z"/>
    <path class="cls-3" d="M181.52,173.37c-1.83-2.14-2.94-5.17-2.94-8.56,0-2.81.45-5.58,2.23-7.94,1.92-2.54,4.55-3.93,7.81-3.93,6.15,0,9.86,4.91,9.86,10.84,0,.54,0,.85-.04,1.47h-17.62c.09,4.95,2.99,9.1,7.98,9.1,3.52,0,6.29-2.32,6.82-5.17h2.32c-.67,4.19-4.68,7.31-9.14,7.31-3.21,0-5.8-1.43-7.27-3.12ZM196.15,163.25c-.09-4.24-2.72-8.21-7.54-8.21s-7.67,3.84-7.76,8.21h15.3Z"/>
  </g>
  <g>
    <path class="cls-3" d="M76.57,309.09c-2.36-2.36-3.21-5.31-3.21-9.1s.8-6.82,3.21-9.14c1.61-1.56,3.88-2.63,6.73-2.63,4.73,0,8.34,2.9,8.88,7.54h-2.36c-.49-3.08-3.03-5.35-6.51-5.35-2.19,0-3.92.71-5.13,1.92-2.1,2.1-2.54,4.73-2.54,7.67s.49,5.53,2.59,7.63c1.2,1.2,2.94,1.92,5.13,1.92,3.48,0,6.02-2.27,6.51-5.35h2.32c-.58,4.59-4.19,7.54-8.88,7.54-2.85,0-5.13-1.03-6.73-2.63Z"/>
    <path class="cls-3" d="M100.52,309.14c-2.45-2.36-3.39-5.31-3.39-9.14s.94-6.78,3.39-9.14c1.61-1.52,3.84-2.63,6.69-2.63s5.08,1.12,6.69,2.63c2.45,2.36,3.39,5.35,3.39,9.14s-.94,6.78-3.39,9.14c-1.61,1.52-3.84,2.63-6.69,2.63s-5.08-1.12-6.69-2.63ZM112.34,307.62c2.1-2.05,2.68-4.68,2.68-7.63s-.58-5.58-2.68-7.63c-1.2-1.2-2.9-1.96-5.13-1.96s-3.92.76-5.13,1.96c-2.1,2.05-2.68,4.73-2.68,7.63s.58,5.58,2.68,7.63c1.2,1.2,2.9,1.96,5.13,1.96s3.93-.76,5.13-1.96Z"/>
    <path class="cls-3" d="M124.12,288.85h2.05l.18,4.37c1.03-2.99,3.75-5,7-5,3.84,0,6.07,1.96,6.96,4.82,1.2-2.77,3.61-4.82,7.36-4.82,5.22,0,7.4,3.43,7.4,8.21v14.72h-2.23v-14.45c0-3.93-1.52-6.38-5.4-6.38-4.19,0-6.65,3.7-6.65,8.21v12.62h-2.32v-14.45c0-3.93-1.69-6.38-5.4-6.38-4.28,0-6.73,4.01-6.73,8.79v12.04h-2.23v-22.3Z"/>
    <path class="cls-3" d="M163.1,288.85h2.05l.18,4.24c1.25-2.94,4.55-4.86,7.63-4.86,2.63,0,4.59.85,6.11,2.14,2.59,2.19,3.75,5.62,3.75,9.59s-1.12,7.23-3.52,9.46c-1.52,1.43-3.61,2.36-6.29,2.36-3.26,0-6.42-1.83-7.67-4.68v12.93h-2.23v-31.18ZM177.99,307.58c1.78-1.92,2.54-4.73,2.54-7.58,0-3.17-.89-6.15-3.03-7.98-1.12-.98-2.63-1.61-4.59-1.61s-3.52.76-4.68,1.83c-2.05,1.96-2.94,4.68-2.94,7.76,0,3.3.8,5.89,2.9,7.81,1.16,1.07,2.72,1.78,4.82,1.78s3.84-.76,5-2.01Z"/>
    <path class="cls-3" d="M192.26,279.52v3.3h-3.03v-3.3h3.03ZM191.91,288.85v22.3h-2.27v-22.3h2.27Z"/>
    <path class="cls-3" d="M200.07,306.69v-27.83h2.23v27.74c0,1.52.45,2.68,2.32,2.68.89,0,1.29-.04,1.92-.13v2.01c-.49.13-1.07.27-2.01.27-2.85,0-4.46-1.47-4.46-4.73Z"/>
    <path class="cls-3" d="M212.87,308.65c-1.83-2.14-2.94-5.17-2.94-8.56,0-2.81.45-5.58,2.23-7.94,1.92-2.54,4.55-3.93,7.81-3.93,6.15,0,9.86,4.91,9.86,10.84,0,.54,0,.85-.04,1.47h-17.62c.09,4.95,2.99,9.1,7.98,9.1,3.52,0,6.29-2.32,6.82-5.17h2.32c-.67,4.19-4.68,7.31-9.14,7.31-3.21,0-5.8-1.43-7.27-3.12ZM227.5,298.52c-.09-4.24-2.72-8.21-7.54-8.21s-7.67,3.84-7.76,8.21h15.3Z"/>
  </g>
  <g>
    <path class="cls-3" d="M74.83,424.91h2.05l.18,4.59c.98-3.12,4.01-4.82,7.18-4.82.67,0,1.43,0,2.1.22v2.14c-.71-.18-1.47-.22-2.19-.22-5.17,0-7.09,4.28-7.09,9.23v11.15h-2.23v-22.3Z"/>
    <path class="cls-3" d="M91.42,439.31v-14.41h2.23v14.27c0,3.88,1.92,6.47,5.84,6.47,5.17,0,7.31-4.15,7.31-9.14v-11.6h2.23v22.3h-2.05l-.18-4.19c-1.25,2.94-4.1,4.82-7.45,4.82-5.04,0-7.94-3.52-7.94-8.52Z"/>
    <path class="cls-3" d="M117.34,424.91h2.05l.18,4.28c1.16-3.08,4.64-4.91,7.76-4.91,5.08,0,7.89,3.39,7.89,8.34v14.58h-2.23v-14.36c0-3.75-1.92-6.38-5.89-6.38-4.95,0-7.54,4.1-7.54,9.05v11.69h-2.23v-22.3Z"/>
  </g>
  <rect class="cls-2" x="42.64" y="393.03" width="328.82" height="79.37"/>
  <g>
    <path class="cls-3" d="M74.57,712.23v-14.41h2.23v14.27c0,3.88,1.92,6.47,5.84,6.47,5.17,0,7.31-4.15,7.31-9.14v-11.6h2.23v22.3h-2.05l-.18-4.19c-1.25,2.94-4.1,4.82-7.45,4.82-5.04,0-7.94-3.52-7.94-8.52Z"/>
    <path class="cls-3" d="M100.48,697.83h2.05l.18,4.24c1.25-2.94,4.55-4.86,7.63-4.86,2.63,0,4.59.85,6.11,2.14,2.59,2.19,3.75,5.62,3.75,9.59s-1.12,7.23-3.52,9.46c-1.52,1.43-3.61,2.36-6.29,2.36-3.26,0-6.42-1.83-7.67-4.68v12.93h-2.23v-31.18ZM115.38,716.56c1.78-1.92,2.54-4.73,2.54-7.58,0-3.17-.89-6.16-3.03-7.98-1.12-.98-2.63-1.61-4.59-1.61s-3.52.76-4.68,1.83c-2.05,1.96-2.94,4.68-2.94,7.76,0,3.3.8,5.89,2.9,7.81,1.16,1.07,2.72,1.78,4.82,1.78s3.84-.76,5-2.01Z"/>
    <path class="cls-3" d="M129.24,718.61c-2.59-2.19-3.75-5.75-3.75-9.59s1.16-7.09,3.57-9.37c1.56-1.47,3.75-2.45,6.51-2.45,3.61,0,6.38,2.01,7.4,4.5v-13.87h2.27v32.29h-2.1l-.18-4.24c-1.25,2.99-4.5,4.86-7.58,4.86-2.63,0-4.64-.85-6.16-2.14ZM140.13,716.74c2.1-1.92,2.9-4.68,2.9-7.76,0-3.3-.76-5.89-2.85-7.81-1.16-1.07-2.72-1.78-4.82-1.78s-3.79.76-5,2.01c-1.78,1.87-2.59,4.73-2.59,7.58,0,3.17.89,6.2,3.03,7.98,1.16.98,2.72,1.61,4.64,1.61s3.52-.76,4.68-1.83Z"/>
    <path class="cls-3" d="M151.72,713.93c0-3.97,3.03-6.42,7.49-6.74l8.21-.58v-1.96c0-3.75-2.72-5.35-6.16-5.35s-6.11,1.61-6.33,4.95h-2.23c.31-4.59,4.01-7.05,8.47-7.05,5.08,0,8.47,2.5,8.47,7.63v11.02c0,1.52.22,2.41,1.74,2.41.18,0,.45,0,.62-.04v1.96c-.31.09-.71.13-1.07.13-2.77,0-3.52-2.1-3.52-4.46-1.2,3.17-4.59,4.91-8.03,4.91-4.33,0-7.67-2.63-7.67-6.82ZM167.42,709.82v-1.16l-7.98.49c-3.43.22-5.44,2.1-5.44,4.73,0,3.12,2.41,4.82,5.58,4.82,5.62,0,7.85-4.55,7.85-8.88Z"/>
    <path class="cls-3" d="M179.95,714.33v-14.45h-5.26v-2.05h5.26v-6.16l2.23-.54v6.69h7v2.05h-7v14.14c0,2.45.76,4.33,4.01,4.33,1.2,0,2.14-.13,3.3-.4v1.96c-1.12.36-2.23.54-3.48.54-4.37,0-6.07-2.54-6.07-6.11Z"/>
    <path class="cls-3" d="M195.61,717.63c-1.83-2.14-2.94-5.17-2.94-8.56,0-2.81.45-5.58,2.23-7.94,1.92-2.54,4.55-3.92,7.81-3.92,6.15,0,9.86,4.91,9.86,10.84,0,.54,0,.85-.04,1.47h-17.62c.09,4.95,2.99,9.1,7.98,9.1,3.52,0,6.29-2.32,6.82-5.17h2.32c-.67,4.19-4.68,7.31-9.14,7.31-3.21,0-5.8-1.43-7.27-3.12ZM210.24,707.5c-.09-4.24-2.72-8.21-7.54-8.21s-7.67,3.84-7.76,8.21h15.3Z"/>
  </g>
  <rect class="cls-2" x="42.64" y="665.95" width="328.82" height="79.37"/>
  <g>
    <path d="M92.36,573.33h-14.99l-3.79,9.95h-2.45l12.27-31.62h2.81l12.4,31.62h-2.41l-3.84-9.95ZM91.51,571.19l-6.73-17.39-6.6,17.39h13.34Z"/>
    <path d="M103.11,560.97h2.05l.18,4.28c1.16-3.08,4.64-4.91,7.76-4.91,5.08,0,7.89,3.39,7.89,8.34v14.58h-2.23v-14.36c0-3.75-1.92-6.38-5.89-6.38-4.95,0-7.54,4.1-7.54,9.05v11.69h-2.23v-22.3Z"/>
    <path d="M127.19,577.07c0-3.97,3.03-6.42,7.49-6.73l8.21-.58v-1.96c0-3.75-2.72-5.35-6.16-5.35s-6.11,1.61-6.33,4.95h-2.23c.31-4.59,4.01-7.05,8.47-7.05,5.08,0,8.47,2.5,8.47,7.63v11.02c0,1.52.22,2.41,1.74,2.41.18,0,.45,0,.62-.04v1.96c-.31.09-.71.13-1.07.13-2.77,0-3.52-2.1-3.52-4.46-1.2,3.17-4.59,4.91-8.03,4.91-4.33,0-7.67-2.63-7.67-6.82ZM142.89,572.97v-1.16l-7.98.49c-3.43.22-5.44,2.1-5.44,4.73,0,3.12,2.41,4.82,5.58,4.82,5.62,0,7.85-4.55,7.85-8.88Z"/>
    <path d="M153.42,578.81v-27.83h2.23v27.74c0,1.52.45,2.68,2.32,2.68.89,0,1.29-.04,1.92-.13v2.01c-.49.13-1.07.27-2.01.27-2.85,0-4.46-1.47-4.46-4.73Z"/>
    <path d="M161.76,591.97v-2.19c.8.4,1.78.67,2.9.67,2.14,0,3.48-.98,4.5-3.57l1.29-3.26-9.1-22.66h2.45l7.72,19.8,7.45-19.8h2.36l-10.21,26.67c-1.38,3.61-3.39,4.95-6.33,4.95-1.43,0-2.68-.4-3.03-.62Z"/>
    <path d="M184.32,576.49h2.27c.36,3.66,3.26,5.26,6.91,5.26s6.47-1.61,6.47-4.64c0-1.96-1.38-3.61-4.1-3.97l-4.33-.58c-3.75-.49-6.29-2.27-6.29-5.66,0-3.97,3.84-6.56,8.03-6.56,4.82,0,8.3,2.77,8.43,6.78h-2.23c-.31-3.21-2.94-4.68-6.2-4.68s-5.75,1.74-5.75,4.24c0,1.83.98,3.21,4.33,3.66l4.24.58c4.19.58,6.16,3.39,6.16,6.07,0,4.55-4.1,6.91-8.74,6.91-5.31,0-8.96-2.81-9.19-7.4Z"/>
    <path d="M211.26,551.65v3.3h-3.03v-3.3h3.03ZM210.91,560.97v22.3h-2.27v-22.3h2.27Z"/>
    <path d="M217.15,576.49h2.27c.36,3.66,3.26,5.26,6.91,5.26s6.47-1.61,6.47-4.64c0-1.96-1.38-3.61-4.1-3.97l-4.33-.58c-3.75-.49-6.29-2.27-6.29-5.66,0-3.97,3.84-6.56,8.03-6.56,4.82,0,8.3,2.77,8.43,6.78h-2.23c-.31-3.21-2.94-4.68-6.2-4.68s-5.75,1.74-5.75,4.24c0,1.83.98,3.21,4.33,3.66l4.24.58c4.19.58,6.16,3.39,6.16,6.07,0,4.55-4.1,6.91-8.74,6.91-5.31,0-8.96-2.81-9.19-7.4Z"/>
    <path d="M283.38,551.65l-6.51,31.62h-2.72l-8.34-27.79-8.34,27.79h-2.63l-6.51-31.62h2.19l5.89,28.54,8.39-28.05h2.19l8.47,27.97,5.75-28.46h2.19Z"/>
    <path d="M290.47,581.27c-2.45-2.36-3.39-5.31-3.39-9.14s.94-6.78,3.39-9.14c1.61-1.52,3.84-2.63,6.69-2.63s5.08,1.12,6.69,2.63c2.45,2.36,3.39,5.35,3.39,9.14s-.94,6.78-3.39,9.14c-1.61,1.52-3.84,2.63-6.69,2.63s-5.08-1.12-6.69-2.63ZM302.29,579.75c2.1-2.05,2.68-4.68,2.68-7.63s-.58-5.58-2.68-7.63c-1.2-1.2-2.9-1.96-5.13-1.96s-3.92.76-5.13,1.96c-2.1,2.05-2.68,4.73-2.68,7.63s.58,5.58,2.68,7.63c1.2,1.2,2.9,1.96,5.13,1.96s3.93-.76,5.13-1.96Z"/>
    <path d="M314.07,560.97h2.05l.18,4.59c.98-3.12,4.01-4.82,7.18-4.82.67,0,1.43,0,2.1.22v2.14c-.71-.18-1.47-.22-2.19-.22-5.17,0-7.09,4.28-7.09,9.23v11.15h-2.23v-22.3Z"/>
    <path d="M330.92,550.98h2.27v23.55l12.49-13.56h2.85l-8.7,9.37,8.88,12.93h-2.77l-7.72-11.28-5.04,5.53v5.75h-2.27v-32.29Z"/>
    <path d="M355.68,563.02h-4.73v-2.05h4.73v-3.79c0-3.39,2.14-6.38,6.42-6.38,1.29,0,2.32.13,3.17.36v2.01c-.8-.22-1.69-.36-2.99-.36-2.9,0-4.37,1.61-4.37,4.46v3.7h6.91v2.05h-6.91v20.25h-2.23v-20.25Z"/>
    <path d="M369.81,578.81v-27.83h2.23v27.74c0,1.52.45,2.68,2.32,2.68.89,0,1.29-.04,1.92-.13v2.01c-.49.13-1.07.27-2.01.27-2.85,0-4.46-1.47-4.46-4.73Z"/>
    <path d="M383.1,581.27c-2.45-2.36-3.39-5.31-3.39-9.14s.94-6.78,3.39-9.14c1.61-1.52,3.84-2.63,6.69-2.63s5.08,1.12,6.69,2.63c2.45,2.36,3.39,5.35,3.39,9.14s-.94,6.78-3.39,9.14c-1.61,1.52-3.84,2.63-6.69,2.63s-5.08-1.12-6.69-2.63ZM394.92,579.75c2.1-2.05,2.68-4.68,2.68-7.63s-.58-5.58-2.68-7.63c-1.2-1.2-2.9-1.96-5.13-1.96s-3.92.76-5.13,1.96c-2.1,2.05-2.68,4.73-2.68,7.63s.58,5.58,2.68,7.63c1.2,1.2,2.9,1.96,5.13,1.96s3.93-.76,5.13-1.96Z"/>
    <path d="M434.26,560.97l-5.71,22.3h-2.72l-6.73-19.45-6.73,19.45h-2.72l-5.71-22.3h2.27l4.91,19.71,6.78-19.4h2.45l6.69,19.31,5.04-19.62h2.19Z"/>
  </g>
  <rect class="cls-1" x="42.64" y="529.09" width="419.53" height="79.37"/>
  <rect class="cls-1" x="1" y="1" width="623.62" height="801.01"/>
  <g>
    <line class="cls-1" x1="207.05" y1="336.34" x2="207.05" y2="378.68"/>
    <polygon points="197.08 375.76 207.05 393.03 217.02 375.76 197.08 375.76"/>
  </g>
  <g>
    <line class="cls-1" x1="207.05" y1="609.25" x2="207.05" y2="651.6"/>
    <polygon points="197.08 648.68 207.05 665.95 217.02 648.68 197.08 648.68"/>
  </g>
  <g>
    <path d="M66.9,25.94v2.23h-17.89v11.82h15.74v2.23h-15.74v13.11h17.89v2.23h-20.25v-31.62h20.25Z"/>
    <path d="M70.78,35.26h2.72l6.73,9.46,6.78-9.46h2.63l-7.94,10.88,8.03,11.42h-2.72l-6.82-9.86-6.87,9.86h-2.68l8.03-11.42-7.89-10.88Z"/>
    <path d="M95.18,35.26h2.05l.18,4.24c1.25-2.94,4.55-4.86,7.63-4.86,2.63,0,4.59.85,6.11,2.14,2.59,2.19,3.75,5.62,3.75,9.59s-1.12,7.23-3.52,9.46c-1.52,1.43-3.61,2.36-6.29,2.36-3.26,0-6.42-1.83-7.67-4.68v12.93h-2.23v-31.18ZM110.07,54c1.78-1.92,2.54-4.73,2.54-7.58,0-3.17-.89-6.15-3.03-7.98-1.12-.98-2.63-1.61-4.59-1.61s-3.52.76-4.68,1.83c-2.05,1.96-2.94,4.68-2.94,7.76,0,3.3.8,5.89,2.9,7.81,1.16,1.07,2.72,1.78,4.82,1.78s3.84-.76,5-2.01Z"/>
    <path d="M123.14,55.07c-1.83-2.14-2.94-5.17-2.94-8.56,0-2.81.45-5.58,2.23-7.94,1.92-2.54,4.55-3.93,7.81-3.93,6.15,0,9.86,4.91,9.86,10.84,0,.54,0,.85-.04,1.47h-17.62c.09,4.95,2.99,9.1,7.98,9.1,3.52,0,6.29-2.32,6.82-5.17h2.32c-.67,4.19-4.68,7.31-9.14,7.31-3.21,0-5.8-1.43-7.27-3.12ZM137.77,44.94c-.09-4.24-2.72-8.21-7.54-8.21s-7.67,3.84-7.76,8.21h15.3Z"/>
    <path d="M146.69,35.26h2.05l.18,4.59c.98-3.12,4.01-4.82,7.18-4.82.67,0,1.43,0,2.1.22v2.14c-.71-.18-1.47-.22-2.19-.22-5.17,0-7.09,4.28-7.09,9.23v11.15h-2.23v-22.3Z"/>
    <path d="M166.18,25.94v3.3h-3.03v-3.3h3.03ZM165.82,35.26v22.3h-2.27v-22.3h2.27Z"/>
    <path d="M174.07,35.26h2.05l.18,4.37c1.03-2.99,3.75-5,7-5,3.84,0,6.07,1.96,6.96,4.82,1.2-2.77,3.61-4.82,7.36-4.82,5.22,0,7.4,3.43,7.4,8.21v14.72h-2.23v-14.45c0-3.93-1.52-6.38-5.4-6.38-4.19,0-6.65,3.7-6.65,8.21v12.62h-2.32v-14.45c0-3.93-1.69-6.38-5.4-6.38-4.28,0-6.73,4.01-6.73,8.79v12.04h-2.23v-22.3Z"/>
    <path d="M214.48,55.07c-1.83-2.14-2.94-5.17-2.94-8.56,0-2.81.45-5.58,2.23-7.94,1.92-2.54,4.55-3.93,7.81-3.93,6.15,0,9.86,4.91,9.86,10.84,0,.54,0,.85-.04,1.47h-17.62c.09,4.95,2.99,9.1,7.98,9.1,3.52,0,6.29-2.32,6.82-5.17h2.32c-.67,4.19-4.68,7.31-9.14,7.31-3.21,0-5.8-1.43-7.27-3.12ZM229.11,44.94c-.09-4.24-2.72-8.21-7.54-8.21s-7.67,3.84-7.76,8.21h15.3Z"/>
    <path d="M238.03,35.26h2.05l.18,4.28c1.16-3.08,4.64-4.91,7.76-4.91,5.08,0,7.89,3.39,7.89,8.34v14.58h-2.23v-14.36c0-3.75-1.92-6.38-5.89-6.38-4.95,0-7.54,4.1-7.54,9.05v11.69h-2.23v-22.3Z"/>
    <path d="M265.81,51.77v-14.45h-5.26v-2.05h5.26v-6.15l2.23-.54v6.69h7v2.05h-7v14.14c0,2.45.76,4.33,4.01,4.33,1.2,0,2.14-.13,3.3-.4v1.96c-1.12.36-2.23.54-3.48.54-4.37,0-6.07-2.54-6.07-6.11Z"/>
    <path d="M322.63,25.94l-6.51,31.62h-2.72l-8.34-27.79-8.34,27.79h-2.63l-6.51-31.62h2.19l5.89,28.54,8.39-28.05h2.19l8.47,27.97,5.75-28.46h2.19Z"/>
    <path d="M329.73,55.56c-2.45-2.36-3.39-5.31-3.39-9.14s.94-6.78,3.39-9.14c1.61-1.52,3.84-2.63,6.69-2.63s5.08,1.12,6.69,2.63c2.45,2.36,3.39,5.35,3.39,9.14s-.94,6.78-3.39,9.14c-1.61,1.52-3.84,2.63-6.69,2.63s-5.08-1.12-6.69-2.63ZM341.54,54.04c2.1-2.05,2.68-4.68,2.68-7.63s-.58-5.58-2.68-7.63c-1.2-1.2-2.9-1.96-5.13-1.96s-3.92.76-5.13,1.96c-2.1,2.05-2.68,4.73-2.68,7.63s.58,5.58,2.68,7.63c1.2,1.2,2.9,1.96,5.13,1.96s3.93-.76,5.13-1.96Z"/>
    <path d="M353.32,35.26h2.05l.18,4.59c.98-3.12,4.01-4.82,7.18-4.82.67,0,1.43,0,2.1.22v2.14c-.71-.18-1.47-.22-2.19-.22-5.17,0-7.09,4.28-7.09,9.23v11.15h-2.23v-22.3Z"/>
    <path d="M370.18,25.27h2.27v23.55l12.49-13.56h2.85l-8.7,9.37,8.88,12.93h-2.77l-7.72-11.28-5.04,5.53v5.75h-2.27V25.27Z"/>
    <path d="M394.93,37.31h-4.73v-2.05h4.73v-3.79c0-3.39,2.14-6.38,6.42-6.38,1.29,0,2.32.13,3.17.36v2.01c-.8-.22-1.69-.36-2.99-.36-2.9,0-4.37,1.61-4.37,4.46v3.7h6.91v2.05h-6.91v20.25h-2.23v-20.25Z"/>
    <path d="M409.07,53.1v-27.83h2.23v27.74c0,1.52.45,2.68,2.32,2.68.89,0,1.29-.04,1.92-.13v2.01c-.49.13-1.07.27-2.01.27-2.85,0-4.46-1.47-4.46-4.73Z"/>
    <path d="M422.36,55.56c-2.45-2.36-3.39-5.31-3.39-9.14s.94-6.78,3.39-9.14c1.61-1.52,3.84-2.63,6.69-2.63s5.08,1.12,6.69,2.63c2.45,2.36,3.39,5.35,3.39,9.14s-.94,6.78-3.39,9.14c-1.61,1.52-3.84,2.63-6.69,2.63s-5.08-1.12-6.69-2.63ZM434.18,54.04c2.1-2.05,2.68-4.68,2.68-7.63s-.58-5.58-2.68-7.63c-1.2-1.2-2.9-1.96-5.13-1.96s-3.92.76-5.13,1.96c-2.1,2.05-2.68,4.73-2.68,7.63s.58,5.58,2.68,7.63c1.2,1.2,2.9,1.96,5.13,1.96s3.93-.76,5.13-1.96Z"/>
    <path d="M473.51,35.26l-5.71,22.3h-2.72l-6.73-19.45-6.73,19.45h-2.72l-5.71-22.3h2.27l4.91,19.71,6.78-19.4h2.45l6.69,19.31,5.04-19.62h2.19Z"/>
  </g>
  <g>
    <path d="M152.14,866.4l-4.67,22.69h-1.95l-5.98-19.93-5.98,19.93h-1.89l-4.67-22.69h1.57l4.22,20.48,6.02-20.13h1.57l6.08,20.06,4.13-20.42h1.57Z"/>
    <path d="M157.23,887.65c-1.76-1.7-2.43-3.81-2.43-6.56s.67-4.86,2.43-6.56c1.15-1.09,2.75-1.89,4.8-1.89s3.65.8,4.8,1.89c1.76,1.7,2.43,3.84,2.43,6.56s-.67,4.86-2.43,6.56c-1.15,1.09-2.75,1.89-4.8,1.89s-3.65-.8-4.8-1.89ZM165.71,886.56c1.5-1.47,1.92-3.36,1.92-5.47s-.42-4-1.92-5.47c-.86-.86-2.08-1.41-3.68-1.41s-2.82.54-3.68,1.41c-1.5,1.47-1.92,3.39-1.92,5.47s.42,4,1.92,5.47c.86.86,2.08,1.41,3.68,1.41s2.82-.54,3.68-1.41Z"/>
    <path d="M174.16,873.09h1.47l.13,3.3c.7-2.24,2.88-3.46,5.15-3.46.48,0,1.02,0,1.5.16v1.54c-.51-.13-1.06-.16-1.57-.16-3.71,0-5.09,3.07-5.09,6.62v8h-1.6v-16Z"/>
    <path d="M186.26,865.92h1.63v16.89l8.96-9.73h2.05l-6.24,6.72,6.37,9.28h-1.98l-5.54-8.1-3.62,3.97v4.13h-1.63v-23.17Z"/>
    <path d="M204.02,874.56h-3.39v-1.47h3.39v-2.72c0-2.43,1.54-4.58,4.61-4.58.93,0,1.66.1,2.27.26v1.44c-.58-.16-1.22-.26-2.14-.26-2.08,0-3.14,1.15-3.14,3.2v2.66h4.96v1.47h-4.96v14.53h-1.6v-14.53Z"/>
    <path d="M214.16,885.89v-19.97h1.6v19.9c0,1.09.32,1.92,1.66,1.92.64,0,.93-.03,1.38-.1v1.44c-.35.1-.77.19-1.44.19-2.05,0-3.2-1.06-3.2-3.39Z"/>
    <path d="M223.7,887.65c-1.76-1.7-2.43-3.81-2.43-6.56s.67-4.86,2.43-6.56c1.15-1.09,2.75-1.89,4.8-1.89s3.65.8,4.8,1.89c1.76,1.7,2.43,3.84,2.43,6.56s-.67,4.86-2.43,6.56c-1.15,1.09-2.75,1.89-4.8,1.89s-3.65-.8-4.8-1.89ZM232.18,886.56c1.5-1.47,1.92-3.36,1.92-5.47s-.42-4-1.92-5.47c-.86-.86-2.08-1.41-3.68-1.41s-2.82.54-3.68,1.41c-1.5,1.47-1.92,3.39-1.92,5.47s.42,4,1.92,5.47c.86.86,2.08,1.41,3.68,1.41s2.82-.54,3.68-1.41Z"/>
    <path d="M260.4,873.09l-4.1,16h-1.95l-4.83-13.95-4.83,13.95h-1.95l-4.1-16h1.63l3.52,14.14,4.86-13.92h1.76l4.8,13.85,3.62-14.08h1.57Z"/>
  </g>
  <rect class="cls-1" x="1" y="864.45" width="102.05" height="24.63"/>
  <g>
    <path class="cls-3" d="M452.75,868v-1.6h17.06v1.6h-7.71v21.09h-1.66v-21.09h-7.68Z"/>
    <path class="cls-3" d="M469.2,884.64c0-2.85,2.18-4.61,5.38-4.83l5.89-.42v-1.41c0-2.69-1.95-3.84-4.42-3.84s-4.38,1.15-4.54,3.55h-1.6c.22-3.29,2.88-5.06,6.08-5.06,3.65,0,6.08,1.79,6.08,5.47v7.9c0,1.09.16,1.73,1.25,1.73.13,0,.32,0,.45-.03v1.41c-.22.06-.51.1-.77.1-1.98,0-2.53-1.5-2.53-3.2-.86,2.27-3.3,3.52-5.76,3.52-3.1,0-5.5-1.89-5.5-4.9ZM480.47,881.69v-.83l-5.73.35c-2.46.16-3.9,1.5-3.9,3.39,0,2.24,1.73,3.46,4,3.46,4.03,0,5.63-3.26,5.63-6.37Z"/>
    <path class="cls-3" d="M486.64,884.22h1.63c.26,2.62,2.34,3.78,4.96,3.78s4.64-1.15,4.64-3.33c0-1.41-.99-2.59-2.94-2.85l-3.1-.42c-2.69-.35-4.51-1.63-4.51-4.06,0-2.85,2.75-4.7,5.76-4.7,3.46,0,5.95,1.98,6.05,4.86h-1.6c-.22-2.3-2.11-3.36-4.45-3.36s-4.13,1.25-4.13,3.04c0,1.31.7,2.3,3.1,2.62l3.04.42c3.01.42,4.42,2.43,4.42,4.35,0,3.26-2.94,4.96-6.27,4.96-3.81,0-6.43-2.02-6.59-5.31Z"/>
    <path class="cls-3" d="M504.08,865.92h1.63v16.89l8.96-9.73h2.05l-6.24,6.72,6.37,9.28h-1.98l-5.54-8.1-3.62,3.97v4.13h-1.63v-23.17Z"/>
  </g>
  <rect class="cls-2" x="327.3" y="864.45" width="102.05" height="24.63"/>
  <rect class="cls-2" x="42.64" y="256.97" width="328.82" height="79.37"/>
  <g>
    <line class="cls-1" x1="207.05" y1="201.07" x2="207.05" y2="243.41"/>
    <polygon points="197.08 240.49 207.05 257.76 217.02 240.49 197.08 240.49"/>
  </g>
  <rect class="cls-2" x="42.64" y="121.7" width="328.82" height="79.37"/>
</svg>