<svg width="945" height="340" xmlns="http://www.w3.org/2000/svg" xmlns:xlink="http://www.w3.org/1999/xlink" overflow="hidden"><defs><clipPath id="clip0"><rect x="0" y="0" width="945" height="340"/></clipPath></defs><g clip-path="url(#clip0)"><rect x="0" y="0" width="945" height="339.773" fill="#FFFFFF"/><path d="M543.5 264.324C543.5 253.837 552.007 245.336 562.5 245.336 572.993 245.336 581.5 253.837 581.5 264.324 581.5 274.81 572.993 283.311 562.5 283.311 552.007 283.311 543.5 274.81 543.5 264.324Z" stroke="#000000" stroke-width="1.33357" stroke-miterlimit="8" fill="#FFFFFF" fill-rule="evenodd"/><text font-family="ZI Akkurat Light,ZI Akkurat Light_MSFontService,sans-serif" font-weight="300" font-size="21" transform="matrix(1 0 0 0.999334 554.962 271)">Q</text><path d="M0 7.99472C2.50888 3.19566 8.85844 0.0146554 15.958 4.83678e-05 23.0576-0.0145103 29.4322 3.14038 31.9787 7.92903" stroke="#101010" stroke-width="1.33268" stroke-miterlimit="8" fill="none" fill-rule="evenodd" transform="matrix(-1.83819e-16 -1 -1.00067 1.83697e-16 591.5 280.313)"/><path d="M0 0 0.000104935 26.8235" stroke="#101010" stroke-width="1.33268" stroke-linecap="square" stroke-miterlimit="8" fill="none" fill-rule="evenodd" transform="matrix(1.00067 0 0 -1 750.5 292.147)"/><path d="M732.5 292.305 766.929 292.305" stroke="#101010" stroke-width="1.33357" stroke-linecap="square" stroke-miterlimit="8" fill="none" fill-rule="evenodd"/><path d="M740.5 299.3 758.926 299.301" stroke="#101010" stroke-width="1.33357" stroke-linecap="square" stroke-miterlimit="8" fill="none" fill-rule="evenodd"/><path d="M745.5 305.296 754.034 305.297" stroke="#101010" stroke-width="1.33357" stroke-linecap="square" stroke-miterlimit="8" fill="none" fill-rule="evenodd"/><path d="M719 281.312C714.306 281.312 710.5 273.93 710.5 264.823 710.5 255.717 714.306 248.334 719 248.334 723.694 248.334 727.5 255.717 727.5 264.823 727.5 273.93 723.694 281.312 719 281.312Z" stroke="#101010" stroke-width="1.33268" stroke-miterlimit="8" fill="#FFFFFF" fill-rule="evenodd"/><rect x="693" y="248.834" width="25.9999" height="30.9794" fill="#FFFFFF"/><path d="M718.5 281.313 662.5 281.313 662.5 248.335 718.5 248.335" stroke="#101010" stroke-width="1.33268" stroke-miterlimit="8" fill="none" fill-rule="evenodd"/><path d="M662.5 281.312C657.529 281.312 653.5 273.93 653.5 264.823 653.5 255.717 657.529 248.334 662.5 248.334 667.471 248.334 671.5 255.717 671.5 264.823 671.5 273.93 667.471 281.312 662.5 281.312Z" stroke="#101010" stroke-width="1.33268" stroke-miterlimit="8" fill="#FFFFFF" fill-rule="evenodd"/><path d="M0 0 0.000104935 97.1563" stroke="#101010" stroke-width="1.33268" stroke-linecap="square" stroke-miterlimit="8" fill="none" fill-rule="evenodd" transform="matrix(1.00067 0 0 -1 624.5 264.545)"/><rect x="612" y="210.859" width="25" height="9.99332" fill="#FFFFFF"/><path d="M610.5 211.359 638.322 211.359" stroke="#101010" stroke-width="1.33357" stroke-linecap="square" stroke-miterlimit="8" fill="none" fill-rule="evenodd"/><path d="M610.5 221.352 638.322 221.352" stroke="#101010" stroke-width="1.33357" stroke-linecap="square" stroke-miterlimit="8" fill="none" fill-rule="evenodd"/><path d="M543.5 167.388 750.068 167.389" stroke="#101010" stroke-width="1.33357" stroke-linecap="square" stroke-miterlimit="8" fill="none" fill-rule="evenodd"/><path d="M0 0 22.8957 0.0319004" stroke="#101010" stroke-width="1.33268" stroke-linecap="square" stroke-miterlimit="8" fill="none" fill-rule="evenodd" transform="matrix(-1.00067 0 0 1 750.411 264.324)"/><text fill="#101010" font-family="ZI Akkurat Light,ZI Akkurat Light_MSFontService,sans-serif" font-weight="300" font-size="21" transform="matrix(1 0 0 0.999334 671.615 234)">Res.</text><text font-family="ZI Akkurat Light,ZI Akkurat Light_MSFontService,sans-serif" font-weight="300" font-size="21" transform="matrix(1 0 0 0.999334 535.086 234)">Qubit</text><g><g><g><g><path d="M2.78301 22.9631 3.89666 22.9425 4.89432 22.9267 5.33516 22.9501 5.75278 23.002 6.37921 23.1171 6.75044 23.1702 7.00565 23.1775 7.21445 23.1552 7.40007 23.1087 7.58568 23.0342 7.79449 22.9156 8.02651 22.7446 8.32812 22.4805 8.69934 22.1586 8.88495 22.0363 9.02417 21.9771 9.14016 21.9555 9.25617 21.964 9.37218 22.0067 9.48819 22.0869 9.6042 22.2073 9.7202 22.3692 9.85941 22.6186 10.0218 22.9822 10.2074 23.4815 10.4626 24.2685 10.8571 25.4897 11.0195 25.8963 11.1355 26.1201 11.2283 26.2484 11.3211 26.3244 11.3907 26.3434 11.4603 26.3272 11.5299 26.2735 11.5995 26.1808 11.6923 25.9938 11.7851 25.7326 11.9011 25.3002 12.0171 24.7518 12.1563 23.9486 12.3187 22.8341 12.5276 21.1886 13.0844 16.6642 13.2236 15.7842 13.3396 15.2095 13.4324 14.8748 13.502 14.7058 13.5716 14.6129 13.618 14.5954 13.6644 14.6149 13.7109 14.6725 13.7804 14.8318 13.85 15.0805 13.9429 15.5535 14.0356 16.188 14.1516 17.2033 14.2909 18.7299 14.4532 20.8855 14.6621 24.1092 15.2886 34.1429 15.4277 35.8248 15.5437 36.9204 15.6366 37.5634 15.7062 37.8961 15.7758 38.0927 15.8222 38.1454 15.8454 38.1476 15.8918 38.1031 15.9382 37.9927 16.0078 37.7024 16.0774 37.2614 16.1702 36.4412 16.263 35.3616 16.379 33.6654 16.5181 31.1683 16.6806 27.7227 16.9126 22.13 17.3535 11.3444 17.5159 8.02599 17.6551 5.71374 17.7711 4.24396 17.8638 3.40332 17.9335 2.98133 18.0031 2.74475 18.0495 2.6921 18.0727 2.69759 18.1191 2.77246 18.1654 2.93254 18.2351 3.33168 18.3047 3.91905 18.3976 4.98659 18.5136 6.75354 18.6527 9.44645 18.8152 13.2445 19.0472 19.5025 19.5575 33.5868 19.7431 37.7711 19.8824 40.2944 19.9984 41.9186 20.0913 42.8742 20.1607 43.3797 20.2304 43.699 20.2769 43.8069 20.3 43.8292 20.3232 43.8303 20.3464 43.8104 20.3929 43.7069 20.4392 43.5192 20.5089 43.0818 20.5785 42.4609 20.6712 41.3577 20.7872 39.562 20.9265 36.8575 21.0888 33.0708 21.3208 26.8455 21.8546 12.1361 22.0402 7.98779 22.1793 5.49838 22.2953 3.90616 22.3882 2.97791 22.4578 2.49357 22.5274 2.19586 22.5738 2.10249 22.5969 2.0875 22.6201 2.0937 22.6665 2.16951 22.713 2.32962 22.7825 2.72635 22.8521 3.3076 22.945 4.36023 23.061 6.09734 23.2001 8.74033 23.3626 12.4701 23.5714 17.9992 24.1978 35.0849 24.3602 38.5408 24.4994 40.8948 24.6154 42.3608 24.7083 43.1816 24.7779 43.5828 24.8243 43.7458 24.8707 43.8246 24.8939 43.8323 24.9171 43.8187 24.9634 43.7284 25.0099 43.5538 25.0796 43.1357 25.149 42.5335 25.2419 41.4541 25.3579 39.686 25.4972 37.0104 25.6595 33.2506 25.8915 27.0476 26.4484 11.7465 26.6107 8.13202 26.75 5.61205 26.866 3.99117 26.9589 3.03841 27.0283 2.53501 27.098 2.21786 27.1445 2.11142 27.1676 2.08988 27.1908 2.08951 27.214 2.11031 27.2605 2.21526 27.3068 2.40433 27.3765 2.84389 27.4461 3.4669 27.5388 4.57289 27.6548 6.37175 27.7941 9.07955 27.9564 12.8692 28.1884 19.0971 28.7222 33.8035 28.9078 37.948 29.0469 40.434 29.1629 42.0229 29.2558 42.9483 29.3254 43.4305 29.395 43.726 29.4414 43.8179 29.4645 43.8322 29.4877 43.8252 29.5341 43.7479 29.5805 43.5863 29.6501 43.1875 29.7197 42.604 29.8126 41.5487 29.9286 39.8083 30.0677 37.162 30.2302 33.4292 30.439 27.8976 31.0422 11.3623 31.2047 7.81276 31.3438 5.36117 31.4599 3.80434 31.5527 2.90631 31.6223 2.44541 31.6919 2.1716 31.7383 2.09429 31.7615 2.08737 31.7847 2.1016 31.831 2.19348 31.8775 2.36956 31.9472 2.78992 32.0166 3.39422 32.1095 4.4763 32.2255 6.24755 32.3648 8.92642 32.5271 12.6894 32.7591 18.8949 33.316 34.1928 33.4783 37.804 33.6176 40.3204 33.7336 41.9381 33.8265 42.8881 33.8959 43.3893 33.9656 43.7042 34.0121 43.8092 34.0352 43.83 34.0584 43.8296 34.0816 43.8081 34.1281 43.7017 34.1744 43.5111 34.2441 43.0693 34.3368 42.196 34.4297 41.0111 34.5457 39.1211 34.6849 36.3187 34.8473 32.4426 35.0793 26.1442 35.5665 12.669 35.7521 8.42477 35.8914 5.84447 36.0074 4.16673 36.1001 3.16521 36.193 2.48441 36.2626 2.19113 36.309 2.10074 36.3321 2.08725 36.3554 2.09493 36.4017 2.17372 36.4481 2.33679 36.5177 2.73791 36.5873 3.32343 36.6802 4.38153 36.7962 6.12499 36.9353 8.77466 37.0978 12.5106 37.3066 18.0447 37.9098 34.5768 38.0723 38.1229 38.2114 40.5709 38.3275 42.1245 38.4203 43.0197 38.4899 43.4785 38.5595 43.75 38.6059 43.8258 38.6291 43.832 38.6523 43.817 38.6986 43.7237 38.7451 43.5461 38.8148 43.1236 38.8842 42.5171 38.9771 41.4323 39.0931 39.6579 39.2324 36.9757 39.3947 33.2098 39.6267 27.0016 40.1836 11.707 40.3459 8.09908 40.4852 5.58605 40.6012 3.97168 40.6941 3.02447 40.7635 2.5254 40.8332 2.21268 40.8797 2.10922 40.9028 2.08917 40.926 2.09028 40.9492 2.11256 40.9957 2.22049 41.042 2.41253 41.1117 2.85644 41.2044 3.73258 41.2973 4.92026 41.4133 6.81318 41.5524 9.61892 41.7149 13.4978 41.9469 19.7984 42.4341 33.2572 42.6197 37.443 42.759 39.9411 42.875 41.5238 42.9677 42.4334 43.0373 42.8982 43.107 43.1725 43.1533 43.2487 43.1766 43.255 43.1997 43.2398 43.2462 43.1461 43.2926 42.9685 43.3622 42.5478 43.4318 41.9471 43.5246 40.8801 43.6406 39.1514 43.7798 36.5733 43.9654 32.4736 44.267 24.9646 44.5686 17.6574 44.7543 13.8345 44.8935 11.4879 45.0095 9.93517 45.1255 8.78039 45.2182 8.15474 45.2879 7.86159 45.3342 7.74976 45.3806 7.70412 45.4039 7.70584 45.4502 7.75769 45.4967 7.87289 45.5662 8.16085 45.6358 8.58104 45.7287 9.3333 45.8447 10.5514 45.984 12.3557 46.1696 15.1879 46.8656 26.3332 47.0279 28.2792 47.1672 29.5942 47.2832 30.4192 47.376 30.8964 47.4688 31.2116 47.5384 31.3433 47.5848 31.3825 47.6311 31.3839 47.6776 31.3487 47.724 31.2779 47.7936 31.1085 47.8864 30.7722 48.0024 30.1939 48.1416 29.3081 48.3272 27.8915 49.0465 22.1111 49.209 21.15 49.3481 20.4989 49.4641 20.0854 49.5569 19.84 49.6497 19.6691 49.7193 19.5885 49.7889 19.5468 49.8586 19.5421 49.9282 19.5723 49.9978 19.635 50.0905 19.7643 50.2065 19.99 50.3458 20.3364 50.5314 20.8861 51.1577 22.8184 51.3203 23.208 51.4826 23.5202 51.6219 23.7223 51.7379 23.8443 51.8539 23.9259 51.9698 23.9692 52.0858 23.9781 52.2018 23.9564 52.3411 23.8965 52.5034 23.7902 52.7354 23.5957 53.3155 23.0867 53.5243 22.9466 53.7332 22.8426 53.9188 22.7812 54.1276 22.7448 54.3596 22.7383 54.638 22.7647 55.0556 22.8398 55.6588 22.944 56.0764 22.9834 56.5405 22.9955 57.283 22.9789 58.4431 22.9563 58.4431 22.9563" stroke="#595959" stroke-width="0.600516" stroke-linecap="square" stroke-linejoin="round" fill="none" transform="matrix(1.68229 0 0 1 432 143.929)"/></g></g></g></g><g><g><g><g><path d="M2.78301 22.9631 3.89666 22.9425 4.89432 22.9267 5.33516 22.9501 5.75278 23.002 6.37921 23.1171 6.75044 23.1702 7.00565 23.1775 7.21445 23.1552 7.40007 23.1087 7.58568 23.0342 7.79449 22.9156 8.02651 22.7446 8.32812 22.4805 8.69934 22.1586 8.88495 22.0363 9.02417 21.9771 9.14016 21.9555 9.25617 21.964 9.37218 22.0067 9.48819 22.0869 9.6042 22.2073 9.7202 22.3692 9.85941 22.6186 10.0218 22.9822 10.2074 23.4815 10.4626 24.2685 10.8571 25.4897 11.0195 25.8963 11.1355 26.1201 11.2283 26.2484 11.3211 26.3244 11.3907 26.3434 11.4603 26.3272 11.5299 26.2735 11.5995 26.1808 11.6923 25.9938 11.7851 25.7326 11.9011 25.3002 12.0171 24.7518 12.1563 23.9486 12.3187 22.8341 12.5276 21.1886 13.0844 16.6642 13.2236 15.7842 13.3396 15.2095 13.4324 14.8748 13.502 14.7058 13.5716 14.6129 13.618 14.5954 13.6644 14.6149 13.7109 14.6725 13.7804 14.8318 13.85 15.0805 13.9429 15.5535 14.0356 16.188 14.1516 17.2033 14.2909 18.7299 14.4532 20.8855 14.6621 24.1092 15.2886 34.1429 15.4277 35.8248 15.5437 36.9204 15.6366 37.5634 15.7062 37.8961 15.7758 38.0927 15.8222 38.1454 15.8454 38.1476 15.8918 38.1031 15.9382 37.9927 16.0078 37.7024 16.0774 37.2614 16.1702 36.4412 16.263 35.3616 16.379 33.6654 16.5181 31.1683 16.6806 27.7227 16.9126 22.13 17.3535 11.3444 17.5159 8.02599 17.6551 5.71374 17.7711 4.24396 17.8638 3.40332 17.9335 2.98133 18.0031 2.74475 18.0495 2.6921 18.0727 2.69759 18.1191 2.77246 18.1654 2.93254 18.2351 3.33168 18.3047 3.91905 18.3976 4.98659 18.5136 6.75354 18.6527 9.44645 18.8152 13.2445 19.0472 19.5025 19.5575 33.5868 19.7431 37.7711 19.8824 40.2944 19.9984 41.9186 20.0913 42.8742 20.1607 43.3797 20.2304 43.699 20.2769 43.8069 20.3 43.8292 20.3232 43.8303 20.3464 43.8104 20.3929 43.7069 20.4392 43.5192 20.5089 43.0818 20.5785 42.4609 20.6712 41.3577 20.7872 39.562 20.9265 36.8575 21.0888 33.0708 21.3208 26.8455 21.8546 12.1361 22.0402 7.98779 22.1793 5.49838 22.2953 3.90616 22.3882 2.97791 22.4578 2.49357 22.5274 2.19586 22.5738 2.10249 22.5969 2.0875 22.6201 2.0937 22.6665 2.16951 22.713 2.32962 22.7825 2.72635 22.8521 3.3076 22.945 4.36023 23.061 6.09734 23.2001 8.74033 23.3626 12.4701 23.5714 17.9992 24.1978 35.0849 24.3602 38.5408 24.4994 40.8948 24.6154 42.3608 24.7083 43.1816 24.7779 43.5828 24.8243 43.7458 24.8707 43.8246 24.8939 43.8323 24.9171 43.8187 24.9634 43.7284 25.0099 43.5538 25.0796 43.1357 25.149 42.5335 25.2419 41.4541 25.3579 39.686 25.4972 37.0104 25.6595 33.2506 25.8915 27.0476 26.4484 11.7465 26.6107 8.13202 26.75 5.61205 26.866 3.99117 26.9589 3.03841 27.0283 2.53501 27.098 2.21786 27.1445 2.11142 27.1676 2.08988 27.1908 2.08951 27.214 2.11031 27.2605 2.21526 27.3068 2.40433 27.3765 2.84389 27.4461 3.4669 27.5388 4.57289 27.6548 6.37175 27.7941 9.07955 27.9564 12.8692 28.1884 19.0971 28.7222 33.8035 28.9078 37.948 29.0469 40.434 29.1629 42.0229 29.2558 42.9483 29.3254 43.4305 29.395 43.726 29.4414 43.8179 29.4645 43.8322 29.4877 43.8252 29.5341 43.7479 29.5805 43.5863 29.6501 43.1875 29.7197 42.604 29.8126 41.5487 29.9286 39.8083 30.0677 37.162 30.2302 33.4292 30.439 27.8976 31.0422 11.3623 31.2047 7.81276 31.3438 5.36117 31.4599 3.80434 31.5527 2.90631 31.6223 2.44541 31.6919 2.1716 31.7383 2.09429 31.7615 2.08737 31.7847 2.1016 31.831 2.19348 31.8775 2.36956 31.9472 2.78992 32.0166 3.39422 32.1095 4.4763 32.2255 6.24755 32.3648 8.92642 32.5271 12.6894 32.7591 18.8949 33.316 34.1928 33.4783 37.804 33.6176 40.3204 33.7336 41.9381 33.8265 42.8881 33.8959 43.3893 33.9656 43.7042 34.0121 43.8092 34.0352 43.83 34.0584 43.8296 34.0816 43.8081 34.1281 43.7017 34.1744 43.5111 34.2441 43.0693 34.3368 42.196 34.4297 41.0111 34.5457 39.1211 34.6849 36.3187 34.8473 32.4426 35.0793 26.1442 35.5665 12.669 35.7521 8.42477 35.8914 5.84447 36.0074 4.16673 36.1001 3.16521 36.193 2.48441 36.2626 2.19113 36.309 2.10074 36.3321 2.08725 36.3554 2.09493 36.4017 2.17372 36.4481 2.33679 36.5177 2.73791 36.5873 3.32343 36.6802 4.38153 36.7962 6.12499 36.9353 8.77466 37.0978 12.5106 37.3066 18.0447 37.9098 34.5768 38.0723 38.1229 38.2114 40.5709 38.3275 42.1245 38.4203 43.0197 38.4899 43.4785 38.5595 43.75 38.6059 43.8258 38.6291 43.832 38.6523 43.817 38.6986 43.7237 38.7451 43.5461 38.8148 43.1236 38.8842 42.5171 38.9771 41.4323 39.0931 39.6579 39.2324 36.9757 39.3947 33.2098 39.6267 27.0016 40.1836 11.707 40.3459 8.09908 40.4852 5.58605 40.6012 3.97168 40.6941 3.02447 40.7635 2.5254 40.8332 2.21268 40.8797 2.10922 40.9028 2.08917 40.926 2.09028 40.9492 2.11256 40.9957 2.22049 41.042 2.41253 41.1117 2.85644 41.2044 3.73258 41.2973 4.92026 41.4133 6.81318 41.5524 9.61892 41.7149 13.4978 41.9469 19.7984 42.4341 33.2572 42.6197 37.443 42.759 39.9411 42.875 41.5238 42.9677 42.4334 43.0373 42.8982 43.107 43.1725 43.1533 43.2487 43.1766 43.255 43.1997 43.2398 43.2462 43.1461 43.2926 42.9685 43.3622 42.5478 43.4318 41.9471 43.5246 40.8801 43.6406 39.1514 43.7798 36.5733 43.9654 32.4736 44.267 24.9646 44.5686 17.6574 44.7543 13.8345 44.8935 11.4879 45.0095 9.93517 45.1255 8.78039 45.2182 8.15474 45.2879 7.86159 45.3342 7.74976 45.3806 7.70412 45.4039 7.70584 45.4502 7.75769 45.4967 7.87289 45.5662 8.16085 45.6358 8.58104 45.7287 9.3333 45.8447 10.5514 45.984 12.3557 46.1696 15.1879 46.8656 26.3332 47.0279 28.2792 47.1672 29.5942 47.2832 30.4192 47.376 30.8964 47.4688 31.2116 47.5384 31.3433 47.5848 31.3825 47.6311 31.3839 47.6776 31.3487 47.724 31.2779 47.7936 31.1085 47.8864 30.7722 48.0024 30.1939 48.1416 29.3081 48.3272 27.8915 49.0465 22.1111 49.209 21.15 49.3481 20.4989 49.4641 20.0854 49.5569 19.84 49.6497 19.6691 49.7193 19.5885 49.7889 19.5468 49.8586 19.5421 49.9282 19.5723 49.9978 19.635 50.0905 19.7643 50.2065 19.99 50.3458 20.3364 50.5314 20.8861 51.1577 22.8184 51.3203 23.208 51.4826 23.5202 51.6219 23.7223 51.7379 23.8443 51.8539 23.9259 51.9698 23.9692 52.0858 23.9781 52.2018 23.9564 52.3411 23.8965 52.5034 23.7902 52.7354 23.5957 53.3155 23.0867 53.5243 22.9466 53.7332 22.8426 53.9188 22.7812 54.1276 22.7448 54.3596 22.7383 54.638 22.7647 55.0556 22.8398 55.6588 22.944 56.0764 22.9834 56.5405 22.9955 57.283 22.9789 58.4431 22.9563 58.4431 22.9563" stroke="#00B0F0" stroke-width="0.600516" stroke-linecap="square" stroke-linejoin="round" fill="none" transform="matrix(1.68229 0 0 1 756 144.928)"/></g></g></g></g><g><g><g><g><path d="M1.2705 10.4831 1.7789 10.4737 2.23436 10.4665 2.4356 10.4772 2.62626 10.5009 2.91224 10.5534 3.08171 10.5777 3.19822 10.581 3.29354 10.5708 3.37828 10.5496 3.46301 10.5156 3.55834 10.4614 3.66426 10.3834 3.80195 10.2628 3.97142 10.1158 4.05616 10.06 4.11971 10.033 4.17267 10.0231 4.22563 10.027 4.27859 10.0465 4.33155 10.0831 4.38451 10.1381 4.43747 10.212 4.50102 10.3258 4.57516 10.4918 4.6599 10.7198 4.77641 11.0791 4.95647 11.6366 5.03061 11.8222 5.08357 11.9243 5.12594 11.9829 5.16831 12.0176 5.20008 12.0263 5.23186 12.0189 5.26363 11.9944 5.29541 11.952 5.33777 11.8667 5.38014 11.7474 5.4331 11.5501 5.48606 11.2997 5.54961 10.933 5.62375 10.4242 5.71908 9.67302 5.97328 7.60752 6.03684 7.20579 6.08981 6.94344 6.13215 6.79065 6.16394 6.71349 6.19572 6.67109 6.21689 6.66309 6.23806 6.672 6.25929 6.69827 6.29101 6.771 6.3228 6.88455 6.3652 7.10049 6.40754 7.39012 6.46049 7.85367 6.52406 8.55056 6.59818 9.53466 6.69354 11.0063 6.97954 15.5869 7.04304 16.3547 7.096 16.8549 7.1384 17.1484 7.17018 17.3003 7.20197 17.3901 7.22313 17.4141 7.23375 17.4151 7.25492 17.3948 7.27609 17.3444 7.30787 17.2119 7.33966 17.0106 7.382 16.6361 7.4244 16.1433 7.47735 15.3689 7.54086 14.2289 7.61504 12.656 7.72095 10.1028 7.92221 5.17895 7.99633 3.66402 8.0599 2.60843 8.11286 1.93745 8.1552 1.55368 8.18698 1.36104 8.21876 1.25303 8.23993 1.229 8.25055 1.2315 8.27172 1.26568 8.29289 1.33876 8.32467 1.52098 8.35646 1.78912 8.39886 2.27648 8.45181 3.08313 8.51532 4.31249 8.5895 6.04638 8.69541 8.90328 8.92839 15.333 9.01313 17.2432 9.0767 18.3952 9.12965 19.1367 9.17206 19.5729 9.20378 19.8037 9.23556 19.9495 9.25679 19.9987 9.26735 20.0089 9.27796 20.0094 9.28852 20.0003 9.30975 19.953 9.33092 19.8674 9.3627 19.6677 9.39449 19.3843 9.43682 18.8806 9.48978 18.0608 9.55335 16.8262 9.62747 15.0975 9.73338 12.2555 9.97704 5.54035 10.0618 3.64658 10.1253 2.51012 10.1782 1.78324 10.2206 1.35948 10.2524 1.13836 10.2842 1.00245 10.3054 0.959829 10.3159 0.952987 10.3265 0.955814 10.3477 0.990425 10.3689 1.06352 10.4007 1.24463 10.4325 1.50999 10.4749 1.99053 10.5278 2.78356 10.5913 3.99014 10.6655 5.69283 10.7608 8.21701 11.0468 16.0169 11.1209 17.5946 11.1845 18.6693 11.2374 19.3385 11.2798 19.7133 11.3116 19.8964 11.3328 19.9708 11.354 20.0068 11.3646 20.0103 11.3751 20.0041 11.3963 19.9629 11.4175 19.8832 11.4493 19.6923 11.481 19.4174 11.5234 18.9246 11.5764 18.1174 11.64 16.896 11.7141 15.1796 11.82 12.3478 12.0742 5.36249 12.1483 3.71243 12.2119 2.56201 12.2649 1.82205 12.3073 1.38709 12.339 1.15728 12.3708 1.0125 12.392 0.963906 12.4025 0.954073 12.4132 0.953903 12.4237 0.963396 12.4449 1.01131 12.4661 1.09762 12.4979 1.29829 12.5297 1.58271 12.572 2.08761 12.625 2.90883 12.6885 4.14499 12.7627 5.87503 12.8686 8.71822 13.1122 15.432 13.197 17.324 13.2605 18.4589 13.3134 19.1843 13.3558 19.6068 13.3876 19.8269 13.4194 19.9618 13.4406 20.0038 13.4511 20.0102 13.4617 20.0071 13.4829 19.9718 13.5041 19.898 13.5359 19.7159 13.5676 19.4496 13.61 18.9678 13.663 18.1733 13.7265 16.9652 13.8007 15.2611 13.896 12.7358 14.1714 5.18711 14.2456 3.56668 14.3091 2.44748 14.3621 1.73676 14.4044 1.32679 14.4362 1.11638 14.468 0.991377 14.4892 0.956087 14.4998 0.952927 14.5103 0.959423 14.5315 1.00137 14.5527 1.08175 14.5845 1.27365 14.6162 1.54953 14.6586 2.04352 14.7116 2.85213 14.7752 4.07509 14.8493 5.79295 14.9552 8.6259 15.2094 15.6097 15.2835 17.2583 15.3471 18.4071 15.4 19.1456 15.4424 19.5793 15.4742 19.8081 15.506 19.9518 15.5272 19.9998 15.5377 20.0093 15.5484 20.0091 15.5589 19.9993 15.5801 19.9507 15.6013 19.8637 15.6331 19.662 15.6754 19.2633 15.7178 18.7224 15.7708 17.8596 15.8344 16.5802 15.9085 14.8107 16.0144 11.9354 16.2368 5.78365 16.3216 3.84607 16.3851 2.66812 16.4381 1.9022 16.4804 1.44498 16.5228 1.13418 16.5546 1.00029 16.5758 0.959029 16.5863 0.952872 16.5969 0.956378 16.6181 0.992348 16.6393 1.06679 16.6711 1.24991 16.7028 1.51721 16.7452 2.00025 16.7982 2.79618 16.8617 4.0058 16.9359 5.71133 17.0312 8.23775 17.3066 15.785 17.3808 17.4039 17.4443 18.5214 17.4973 19.2307 17.5396 19.6393 17.5714 19.8488 17.6032 19.9728 17.6243 20.0073 17.635 20.0102 17.6455 20.0033 17.6667 19.9607 17.6879 19.8797 17.7197 19.6868 17.7514 19.4099 17.7938 18.9147 17.8468 18.1046 17.9103 16.8801 17.9845 15.1609 18.0904 12.3268 18.3446 5.34447 18.4187 3.69739 18.4823 2.55014 18.5352 1.81315 18.5776 1.38073 18.6094 1.1529 18.6411 1.01013 18.6624 0.962899 18.6729 0.953745 18.6835 0.954255 18.6941 0.964427 18.7153 1.0137 18.7365 1.10137 18.7683 1.30402 18.8106 1.704 18.853 2.2462 18.906 3.11035 18.9695 4.39123 19.0437 6.162 19.1496 9.03837 19.372 15.1826 19.4567 17.0935 19.5203 18.2339 19.5733 18.9564 19.6156 19.3717 19.6474 19.5839 19.6792 19.7091 19.7003 19.7439 19.711 19.7467 19.7215 19.7398 19.7427 19.6971 19.7639 19.616 19.7957 19.4239 19.8275 19.1497 19.8698 18.6626 19.9228 17.8734 19.9863 16.6964 20.0711 14.8248 20.2088 11.3968 20.3465 8.06093 20.4312 6.3157 20.4948 5.24446 20.5477 4.5356 20.6007 4.00842 20.643 3.7228 20.6748 3.58897 20.696 3.53792 20.7171 3.51708 20.7278 3.51787 20.7489 3.54154 20.7702 3.59413 20.8019 3.72559 20.8337 3.91741 20.8761 4.26084 20.929 4.81691 20.9926 5.64062 21.0773 6.93356 21.3951 12.0216 21.4692 12.91 21.5327 13.5103 21.5857 13.8869 21.6281 14.1048 21.6704 14.2487 21.7022 14.3088 21.7234 14.3267 21.7446 14.3274 21.7658 14.3113 21.787 14.279 21.8187 14.2016 21.8611 14.0481 21.914 13.7841 21.9776 13.3797 22.0623 12.733 22.3907 10.0942 22.4649 9.65537 22.5284 9.35815 22.5813 9.16939 22.6237 9.05735 22.6661 8.97935 22.6978 8.94253 22.7296 8.92348 22.7614 8.92136 22.7932 8.93513 22.825 8.96376 22.8673 9.02278 22.9203 9.12583 22.9838 9.28397 23.0686 9.53491 23.3545 10.417 23.4287 10.5949 23.5028 10.7374 23.5664 10.8297 23.6194 10.8854 23.6723 10.9226 23.7253 10.9424 23.7782 10.9465 23.8312 10.9366 23.8947 10.9092 23.9689 10.8607 24.0748 10.7719 24.3396 10.5395 24.4349 10.4756 24.5302 10.4281 24.615 10.4001 24.7103 10.3834 24.8162 10.3805 24.9433 10.3925 25.134 10.4268 25.4094 10.4744 25.6 10.4924 25.8119 10.4979 26.1508 10.4903 26.6804 10.48 26.6804 10.48" stroke="#ED7D31" stroke-width="0.274147" stroke-linecap="square" stroke-linejoin="round" fill="none" transform="matrix(3.68503 0 0 1 760 157.906)"/></g></g></g></g><text fill="#101010" font-family="ZI Akkurat Light,ZI Akkurat Light_MSFontService,sans-serif" font-weight="300" font-size="21" transform="matrix(1 0 0 0.999334 447.529 105)">readout</text><text fill="#101010" font-family="ZI Akkurat Light,ZI Akkurat Light_MSFontService,sans-serif" font-weight="300" font-size="21" transform="matrix(1 0 0 0.999334 459.298 131)">pulse</text><path d="M591.5 264.324 661.975 264.616" stroke="#101010" stroke-width="1.33357" stroke-linecap="square" stroke-miterlimit="8" fill="none" fill-rule="evenodd"/><text fill="#00A1E6" font-family="ZI Akkurat Light,ZI Akkurat Light_MSFontService,sans-serif" font-weight="300" font-size="21" transform="matrix(1 0 0 0.999334 786.345 120)">g</text><text fill="#101010" font-family="ZI Akkurat Light,ZI Akkurat Light_MSFontService,sans-serif" font-weight="300" font-size="21" transform="matrix(1 0 0 0.999334 802.681 120)">/</text><text fill="#ED7D31" font-family="ZI Akkurat Light,ZI Akkurat Light_MSFontService,sans-serif" font-weight="300" font-size="21" transform="matrix(1 0 0 0.999334 816.517 120)">e</text><rect x="127.5" y="167.388" width="233" height="121.919" stroke="#002060" stroke-width="1.33357" stroke-miterlimit="8" fill="none"/><text fill="#101010" font-family="ZI Akkurat Light,ZI Akkurat Light_MSFontService,sans-serif" font-weight="300" font-size="21" transform="matrix(-1.83697e-16 -0.998668 1.00067 -1.83575e-16 80.7063 145)">amplitude</text><text fill="#101010" font-family="ZI Akkurat Light,ZI Akkurat Light_MSFontService,sans-serif" font-weight="300" font-size="21" transform="matrix(-1.83697e-16 -0.998668 1.00067 -1.83575e-16 80.0753 257)">phase</text><text fill="#101010" font-family="ZI Akkurat Light,ZI Akkurat Light_MSFontService,sans-serif" font-weight="300" font-size="21" transform="matrix(1 0 0 0.999334 195.154 314)">frequency</text><text fill="#00A1E6" font-family="ZI Akkurat Light,ZI Akkurat Light_MSFontService,sans-serif" font-weight="300" font-size="21" transform="matrix(1 0 0 0.999334 286.845 229)">g</text><text fill="#ED7D31" font-family="ZI Akkurat Light,ZI Akkurat Light_MSFontService,sans-serif" font-weight="300" font-size="21" transform="matrix(1 0 0 0.999334 197.975 229)">e</text><path d="M128.5 143.816 137.325 143.551 144.524 143.27 150.794 142.961 156.136 142.632 160.78 142.282 164.96 141.9 168.676 141.494 171.927 141.072 174.946 140.612 177.733 140.116 180.288 139.588 182.61 139.032 184.7 138.46 186.558 137.883 188.416 137.23 190.041 136.585 191.667 135.861 193.293 135.046 194.686 134.261 196.08 133.386 197.473 132.406 198.866 131.306 200.26 130.066 201.421 128.909 202.582 127.625 203.743 126.195 204.905 124.599 206.065 122.813 207.227 120.812 208.388 118.565 209.549 116.038 210.71 113.195 211.871 109.997 213.032 106.403 214.194 102.376 215.355 97.8857 216.516 92.9189 217.909 86.3515 219.535 78.0049 222.554 62.1958 223.483 57.9367 224.18 55.1616 224.876 52.8506 225.341 51.6107 225.805 50.6371 226.27 49.9475 226.502 49.7136 226.734 49.555 226.967 49.4727 227.199 49.467 227.431 49.5378 227.663 49.685 227.895 49.9077 228.36 50.5753 228.824 51.5281 229.289 52.7488 229.985 55.0343 230.682 57.7884 231.611 62.0269 233.004 69.1449 236.256 86.1796 237.649 92.7624 238.81 97.7437 239.971 102.248 241.133 106.288 242.293 109.895 243.455 113.105 244.616 115.958 245.777 118.493 246.938 120.748 248.1 122.756 249.261 124.548 250.422 126.149 251.583 127.584 252.744 128.873 253.905 130.033 255.299 131.277 256.692 132.38 258.086 133.363 259.479 134.24 260.873 135.027 262.498 135.845 264.123 136.571 265.749 137.216 267.607 137.871 269.465 138.45 271.555 139.023 273.877 139.58 276.199 140.065 278.754 140.529 281.541 140.967 284.792 141.404 288.275 141.801 292.224 142.18 296.636 142.532 301.513 142.852 307.086 143.151 313.589 143.431 321.253 143.691 330.31 143.929 341.224 144.143 354.462 144.335 360.5 144.404 360.5 144.404" stroke="#EE7F00" stroke-width="1.33357" stroke-linecap="square" stroke-linejoin="round" stroke-miterlimit="10" fill="none" fill-rule="evenodd"/><path d="M128.5 144.404 144.06 144.203 156.368 143.98 166.354 143.732 174.482 143.466 181.449 143.173 187.487 142.852 192.596 142.515 197.008 142.16 200.956 141.777 204.44 141.376 207.691 140.933 210.478 140.489 213.032 140.019 215.355 139.528 217.677 138.963 219.767 138.381 221.625 137.794 223.483 137.129 225.109 136.472 226.734 135.734 228.36 134.902 229.753 134.101 231.147 133.207 232.54 132.205 233.934 131.08 235.094 130.033 236.256 128.873 237.417 127.584 238.578 126.149 239.739 124.548 240.9 122.756 242.061 120.748 243.223 118.493 244.384 115.958 245.545 113.105 246.706 109.895 247.867 106.288 249.028 102.248 250.19 97.7437 251.351 92.7624 252.744 86.1796 254.37 77.8203 257.389 62.0269 258.318 57.7884 259.014 55.0343 259.711 52.7488 260.176 51.5281 260.64 50.5753 261.105 49.9077 261.337 49.685 261.569 49.5378 261.801 49.467 262.033 49.4727 262.266 49.555 262.498 49.7136 262.73 49.9475 263.195 50.6371 263.659 51.6107 264.123 52.8506 264.82 55.1616 265.517 57.9367 266.446 62.1958 267.84 69.3295 271.09 86.3515 272.484 92.9189 273.645 97.8857 274.806 102.376 275.967 106.403 277.129 109.997 278.29 113.195 279.451 116.038 280.612 118.565 281.773 120.812 282.934 122.813 284.096 124.599 285.257 126.195 286.418 127.625 287.579 128.909 288.74 130.066 290.134 131.306 291.527 132.406 292.92 133.386 294.314 134.261 295.707 135.046 297.333 135.861 298.959 136.585 300.584 137.23 302.442 137.883 304.3 138.46 306.39 139.032 308.712 139.588 311.035 140.071 313.589 140.535 316.376 140.972 319.627 141.409 323.111 141.805 327.058 142.183 331.471 142.534 336.348 142.854 341.921 143.153 348.424 143.433 356.087 143.693 360.5 143.816 360.5 143.816" stroke="#009EE0" stroke-width="1.33357" stroke-linecap="square" stroke-linejoin="round" stroke-miterlimit="10" fill="none" fill-rule="evenodd"/><rect x="128.5" y="35.4764" width="232" height="121.919" stroke="#002060" stroke-width="1.33357" stroke-miterlimit="8" fill="none"/><path d="M-0.666609 93.2714 3.99777 93.2695 3.99831 94.6022-0.666071 94.6041ZM5.33045 93.269 9.32849 93.2674 9.32903 94.6 5.33099 94.6017ZM10.6612 93.2668 14.6592 93.2652 14.6597 94.5979 10.6617 94.5995ZM15.9919 93.2647 19.9899 93.2631 19.9905 94.5957 15.9924 94.5974ZM21.3226 93.2625 25.3207 93.2609 25.3212 94.5936 21.3232 94.5952ZM26.6533 93.2604 30.6514 93.2588 30.6519 94.5914 26.6539 94.593ZM31.9841 93.2582 35.9821 93.2566 35.9826 94.5893 31.9846 94.5909ZM37.3148 93.2561 41.3128 93.2544 41.3133 94.5871 37.3153 94.5887ZM42.6455 93.2539 46.6435 93.2523 46.6441 94.585 42.646 94.5866ZM47.9762 93.2517 51.9743 93.2501 51.9748 94.5828 47.9767 94.5844ZM53.3069 93.2496 57.305 93.248 57.3055 94.5807 53.3075 94.5823ZM58.6376 93.2474 62.6357 93.2458 62.6362 94.5785 58.6382 94.5801ZM63.9684 93.2453 67.9664 93.2437 67.9669 94.5763 63.9689 94.578ZM69.2991 93.2431 73.2971 93.2415 73.2977 94.5742 69.2996 94.5758ZM74.6298 93.241 78.6278 93.2394 78.6284 94.572 74.6303 94.5736ZM79.9605 93.2388 81.3467 93.2383 83.9488 93.2001 83.9683 94.5327 81.3472 94.5709 79.9611 94.5715ZM85.2814 93.1807 86.475 93.1632 89.2649 93.0686 89.31 94.4006 86.4944 94.4958 85.3008 94.5132ZM90.5793 93.0066 92.4394 92.897 94.546 92.7096 94.6639 94.0371 92.5178 94.2274 90.6577 94.337ZM95.8452 92.548 96.4641 92.471 98.1498 92.1912 99.6194 91.8805 99.6926 91.8606 100.029 93.1501 99.8945 93.1845 98.3676 93.5059 96.6287 93.7935 96.0098 93.8705ZM100.982 91.5239 101.088 91.4964 102.339 91.0994 103.591 90.6299 104.628 90.1729 105.164 91.3928 104.058 91.878 102.741 92.37 101.424 92.7858 101.319 92.8134ZM105.783 89.5941 106.089 89.4371 107.338 88.6936 108.586 87.8379 109.028 87.4911 109.849 88.5415 109.339 88.9379 108.019 89.8391 106.698 90.6228 106.392 90.7798ZM110.035 86.6826 111.09 85.749 112.346 84.4965 112.839 83.9455 113.831 84.8359 113.286 85.4407 111.973 86.7469 110.918 87.6805ZM113.7 82.9735 114.866 81.533 116.118 79.8299 117.191 80.6193 115.902 82.3717 114.736 83.8122ZM116.846 78.7474 117.4 77.9231 118.671 75.8699 118.939 75.3995 120.096 76.0606 119.804 76.5716 118.506 78.6666 117.952 79.491ZM119.6 74.2424 120.158 73.2669 121.49 70.7446 122.669 71.3673 121.315 73.928 120.758 74.9035ZM122.078 69.5704 123.35 66.9853 123.808 65.986 125.019 66.5422 124.545 67.5735 123.274 70.1585ZM124.365 64.775 125.269 62.8065 125.991 61.1388 127.214 61.6683 126.48 63.3627 125.576 65.3312ZM126.52 59.9158 127.403 57.8755 128.077 56.2455 129.308 56.7543 128.626 58.4049 127.743 60.4453ZM128.585 55.0138 130.112 51.3186 131.344 51.8274 129.817 55.5226ZM130.616 50.0875 132.131 46.3874 133.364 46.8923 131.85 50.5923ZM132.636 45.1541 134.15 41.454 135.384 41.9588 133.869 45.6589ZM134.655 40.2206 136.17 36.5206 137.403 37.0254 135.888 40.7255ZM136.674 35.2872 137.031 34.4152 138.265 31.6013 139.485 32.1363 138.265 34.92 137.908 35.792ZM138.8 30.3808 139.178 29.5164 140.477 26.7345 141.685 27.2984 140.399 30.0514 140.02 30.9158ZM141.041 25.5271 141.112 25.3762 142.833 21.9467 142.848 21.9166 144.024 22.5445 144.024 22.5445 142.319 25.94 142.249 26.0909ZM143.483 20.7447 144.34 19.1598 145.463 17.2457 146.612 17.9201 145.512 19.7941 144.655 21.379ZM146.171 16.0854 147.362 14.2304 148.412 12.7408 149.501 13.5087 148.484 14.9506 147.292 16.8056ZM149.229 11.6514 149.965 10.7009 151.27 9.17438 151.86 8.55392 152.825 9.47334 152.283 10.0408 151.019 11.5165 150.283 12.467ZM152.818 7.57415 153.89 6.5716 155.205 5.48156 155.936 4.94831 156.72 6.02598 156.055 6.50808 154.801 7.54484 153.729 8.54739ZM157.07 4.17239 157.842 3.68261 159.162 2.9553 160.483 2.3297 160.702 2.24023 161.2 3.47609 161.052 3.53456 159.804 4.1232 158.556 4.8078 157.784 5.29758ZM161.974 1.73636 163.121 1.34412 164.437 0.964534 165.878 0.622425 166.185 1.91922 164.805 2.24521 163.552 2.60509 162.405 2.99734ZM167.215 0.363325 167.494 0.310369 169.232 0.0510785 171.183-0.166273 171.249-0.171815 171.354 1.15674 171.331 1.15825 169.428 1.36924 167.742 1.6196 167.464 1.67255ZM172.578-0.276577 173.345-0.337085 175.932-0.471649 176.602-0.492018 176.642 0.840057 176.001 0.859238 173.45 0.991471 172.683 1.05198ZM177.934-0.532192 179.157-0.569087 181.942-0.608018 181.961 0.724533 179.198 0.762987 177.974 0.799882ZM183.275-0.626605 183.664-0.632033 187.279-0.645914 187.285 0.686756 183.682 0.700518 183.293 0.705945ZM188.612-0.651018 191.377-0.661608 192.613-0.661873 192.613 0.670807 191.382 0.671062 188.617 0.681652ZM193.945-0.662153 197.943-0.662994 197.944 0.669686 193.945 0.670527ZM199.276-0.663274 203.274-0.664115 203.274 0.668566 199.276 0.669406ZM204.607-0.664395 208.605-0.665236 208.605 0.667445 204.607 0.668285ZM209.937-0.665516 214.524-0.66648 214.524 0.6662 209.938 0.667164Z" fill="#EE7F00" transform="matrix(-1.00067 0 0 1 360.5 182.378)"/><path d="M-0.667015 93.2718 3.99736 93.2671 3.99871 94.5998-0.665664 94.6045ZM5.33004 93.2657 9.32808 93.2617 9.32943 94.5944 5.33139 94.5984ZM10.6608 93.2603 14.6588 93.2563 14.6601 94.589 10.6621 94.593ZM15.9915 93.2549 19.9895 93.2509 19.9909 94.5835 15.9928 94.5876ZM21.3222 93.2495 25.3202 93.2455 25.3216 94.5781 21.3235 94.5822ZM26.6529 93.2441 30.6509 93.24 30.6523 94.5727 26.6543 94.5768ZM31.9836 93.2387 32.21 93.2385 35.9731 93.1879 35.991 94.5204 32.2113 94.5711 31.985 94.5714ZM37.3056 93.17 37.7236 93.1644 41.2901 93.053 41.3316 94.3851 37.7415 94.4969 37.3235 94.5025ZM42.6056 92.9839 44.1388 92.9007 46.4211 92.7133 46.5527 92.6978 46.7047 94.0218 46.53 94.0415 44.211 94.2314 42.6777 94.3146ZM47.8767 92.5459 48.4703 92.4777 50.2857 92.1994 51.7699 91.9102 52.0243 93.2184 50.4873 93.5168 48.6223 93.8017 48.0287 93.8698ZM53.037 91.6081 53.4514 91.508 54.8014 91.1128 56.151 90.6451 56.741 90.4041 57.2431 91.6386 56.5866 91.9046 55.1752 92.392 53.7643 92.8034 53.35 92.9035ZM57.9291 89.8905 58.844 89.4563 60.189 88.7151 61.345 87.9819 62.0577 89.108 60.8314 89.8827 59.4154 90.6603 58.5005 91.0945ZM62.4051 87.2384 62.6533 87.061 64.004 85.9749 65.3545 84.7508 65.37 84.7337 66.3183 85.67 66.2489 85.7389 64.8385 87.0139 63.4283 88.1451 63.1801 88.3225ZM66.3064 83.7854 66.708 83.3786 68.0645 81.8506 68.8895 80.8254 69.9273 81.6615 69.0608 82.7358 67.6563 84.315 67.2547 84.7217ZM69.691 79.7979 70.7868 78.3084 71.9759 76.5501 73.0797 77.2969 71.8603 79.0981 70.7645 80.5876ZM72.677 75.4465 73.7495 73.7255 74.7201 72.0379 75.8752 72.7025 74.8805 74.4303 73.808 76.1513ZM75.3725 70.8999 77.1779 67.5212 77.2444 67.3877 78.4364 67.9837 78.3533 68.1493 76.5479 71.528ZM77.8404 66.1957 79.0104 63.8555 79.5941 62.6196 80.7991 63.1888 80.2024 64.4515 79.0324 66.7917ZM80.1633 61.4146 81.0746 59.4856 81.8339 57.7963 83.0494 58.3427 82.2796 60.0549 81.3683 61.9839ZM82.3803 56.5808 83.8303 53.3552 84.0154 52.9368 85.2341 53.476 85.0458 53.9016 83.5958 57.1272ZM84.5546 51.718 86.1722 48.0619 87.391 48.6011 85.7733 52.2573ZM86.7115 46.8431 88.3291 43.187 89.5478 43.7262 87.9302 47.3824ZM88.8683 41.9683 90.4859 38.3121 91.7046 38.8513 90.087 42.5075ZM91.0251 37.0933 92.6428 33.4372 93.8615 33.9764 92.2438 37.6326ZM93.182 32.2184 93.2616 32.0384 94.9259 28.5959 96.1256 29.176 94.4803 32.5776 94.4007 32.7577ZM95.5221 27.3853 97.1902 24.147 97.3718 23.8184 98.5376 24.4642 98.3749 24.7573 96.7068 27.9956ZM98.0176 22.6526 99.0404 20.806 100.023 19.1678 101.165 19.8533 100.206 21.4517 99.1834 23.2984ZM100.724 18.0053 102.286 15.6127 102.963 14.6611 104.049 15.4344 103.402 16.3411 101.84 18.7337ZM103.757 13.5555 105.079 11.8557 106.298 10.4305 107.311 11.2971 106.131 12.6742 104.808 14.3739ZM107.227 9.42878 107.883 8.73803 109.289 7.40806 110.196 6.6444 111.053 7.66464 110.204 8.37681 108.849 9.65513 108.194 10.3459ZM111.273 5.7941 112.11 5.17267 113.524 4.25088 114.698 3.58471 115.355 4.74423 114.251 5.36785 112.905 6.24283 112.067 6.86426ZM115.922 2.96517 116.356 2.75288 117.771 2.157 119.185 1.64985 119.745 1.47961 120.131 2.75511 119.634 2.90458 118.287 3.38563 116.942 3.94979 116.508 4.16208ZM121.057 1.10549 122.239 0.809459 123.879 0.476793 125.029 0.292989 125.239 1.60907 124.143 1.78299 122.563 2.10219 121.381 2.39822ZM126.372 0.101948 127.612-0.0490795 129.703-0.238543 130.39-0.281808 130.474 1.04827 129.823 1.08872 127.773 1.27382 126.533 1.42485ZM131.72-0.365062 132.252-0.398348 135.259-0.516464 135.743-0.526791 135.771 0.805591 135.311 0.815192 132.335 0.931729 131.804 0.965015ZM137.075-0.554954 139.182-0.599492 141.081-0.615463 141.092 0.71717 139.21 0.73289 137.103 0.777429ZM142.414-0.626633 144.942-0.64783 146.416-0.65002 146.418 0.682659 144.954 0.684803 142.425 0.706ZM147.749-0.651985 151.747-0.657882 151.749 0.674796 147.751 0.680693ZM153.08-0.659848 156.911-0.665499 157.079-0.665502 157.079 0.667178 156.913 0.66718 153.082 0.672831ZM158.411-0.665517 162.409-0.665563 162.409 0.667117 158.411 0.667163ZM163.742-0.665578 167.74-0.665624 167.74 0.667056 163.742 0.667102ZM169.073-0.66564 173.071-0.665686 173.071 0.666994 169.073 0.66704ZM174.403-0.665701 178.401-0.665747 178.401 0.666933 174.403 0.666979ZM179.734-0.665763 183.732-0.665809 183.732 0.666871 179.734 0.666917ZM185.065-0.665824 189.063-0.66587 189.063 0.66681 185.065 0.666856ZM190.396-0.665886 194.394-0.665932 194.394 0.666749 190.396 0.666795ZM195.726-0.665947 199.724-0.665993 199.724 0.666687 195.726 0.666733ZM201.057-0.666008 205.055-0.666054 205.055 0.666626 201.057 0.666672ZM206.388-0.66607 210.386-0.666116 210.386 0.666564 206.388 0.66661ZM211.718-0.666131 215.716-0.666177 215.717 0.666503 211.718 0.666549ZM217.049-0.666193 221.047-0.666239 221.047 0.666441 217.049 0.666488ZM222.38-0.666254 226.378-0.6663 226.378 0.66638 222.38 0.666426ZM227.711-0.666315 230.513-0.666348 230.513 0.666332 227.711 0.666365Z" fill="#009EE0" transform="matrix(-1.00067 0 0 1 361.5 182.378)"/><path d="M262 35.9761 262 289.83" stroke="#000000" stroke-width="2.00035" stroke-miterlimit="8" stroke-dasharray="2.00035 2.00035" fill="none" fill-rule="evenodd"/><text fill="#101010" font-family="ZI Akkurat Light,ZI Akkurat Light_MSFontService,sans-serif" font-weight="300" font-size="21" transform="matrix(1 0 0 0.999334 105.087 151)">0</text><text fill="#101010" font-family="ZI Akkurat Light,ZI Akkurat Light_MSFontService,sans-serif" font-weight="300" font-size="21" transform="matrix(1 0 0 0.999334 109.247 60)">1</text><text fill="#101010" font-family="ZI Akkurat Light,ZI Akkurat Light_MSFontService,sans-serif" font-weight="300" font-size="21" transform="matrix(1 0 0 0.999334 104.328 278)">0</text><text fill="#101010" font-family="ZI Akkurat Light,ZI Akkurat Light_MSFontService,sans-serif" font-weight="300" font-size="21" transform="matrix(1 0 0 0.999334 93.066 192)">2</text><text fill="#101010" font-family="ZI Akkurat Light,ZI Akkurat Light_MSFontService,sans-serif" font-weight="300" font-size="21" transform="matrix(1 0 0 0.999334 104.401 192)">Ï€</text><text fill="#101010" font-family="ZI Akkurat Light,ZI Akkurat Light_MSFontService,sans-serif" font-weight="300" font-size="21" transform="matrix(1 0 0 0.999334 104.208 234)">Ï€</text><path d="M128.5 50.4664 359.65 50.4665" stroke="#BFBFBF" stroke-width="0.666784" stroke-linecap="square" stroke-miterlimit="8" stroke-dasharray="2.00035 0.666784" fill="none" fill-rule="evenodd"/><path d="M128.5 145.403 359.65 145.403" stroke="#BFBFBF" stroke-width="0.666784" stroke-linecap="square" stroke-miterlimit="8" stroke-dasharray="2.00035 0.666784" fill="none" fill-rule="evenodd"/><path d="M244.5 35.4764 244.5 157.251" stroke="#BFBFBF" stroke-width="0.666784" stroke-linecap="square" stroke-miterlimit="8" stroke-dasharray="2.00035 0.666784" fill="none" fill-rule="evenodd"/><path d="M187.5 35.4764 187.5 157.251" stroke="#BFBFBF" stroke-width="0.666784" stroke-linecap="square" stroke-miterlimit="8" stroke-dasharray="2.00035 0.666784" fill="none" fill-rule="evenodd"/><path d="M304.5 35.4764 304.5 157.251" stroke="#BFBFBF" stroke-width="0.666784" stroke-linecap="square" stroke-miterlimit="8" stroke-dasharray="2.00035 0.666784" fill="none" fill-rule="evenodd"/><path d="M128.5 96.4357 359.65 96.4358" stroke="#BFBFBF" stroke-width="0.666784" stroke-linecap="square" stroke-miterlimit="8" stroke-dasharray="2.00035 0.666784" fill="none" fill-rule="evenodd"/><path d="M128.5 182.378 359.65 182.379" stroke="#BFBFBF" stroke-width="0.666784" stroke-linecap="square" stroke-miterlimit="8" stroke-dasharray="2.00035 0.666784" fill="none" fill-rule="evenodd"/><path d="M128.5 277.315 359.65 277.315" stroke="#BFBFBF" stroke-width="0.666784" stroke-linecap="square" stroke-miterlimit="8" stroke-dasharray="2.00035 0.666784" fill="none" fill-rule="evenodd"/><path d="M244.5 167.388 244.5 289.163" stroke="#BFBFBF" stroke-width="0.666784" stroke-linecap="square" stroke-miterlimit="8" stroke-dasharray="2.00035 0.666784" fill="none" fill-rule="evenodd"/><path d="M186.5 167.388 186.5 289.163" stroke="#BFBFBF" stroke-width="0.666784" stroke-linecap="square" stroke-miterlimit="8" stroke-dasharray="2.00035 0.666784" fill="none" fill-rule="evenodd"/><path d="M304.5 167.388 304.5 289.163" stroke="#BFBFBF" stroke-width="0.666784" stroke-linecap="square" stroke-miterlimit="8" stroke-dasharray="2.00035 0.666784" fill="none" fill-rule="evenodd"/><path d="M128.5 228.348 359.65 228.348" stroke="#BFBFBF" stroke-width="0.666784" stroke-linecap="square" stroke-miterlimit="8" stroke-dasharray="2.00035 0.666784" fill="none" fill-rule="evenodd"/><path d="M233.668 65.9558 241.669 65.9558 241.669 67.9549 233.668 67.9548ZM247.67 65.9559 252.63 65.9559 252.63 67.9549 247.67 67.9549ZM235.001 70.9534 227 66.9553 235.001 62.9573ZM251.296 62.9574 259.298 66.9554 251.296 70.9534Z"/><text fill="#101010" font-family="Cambria Math,Cambria Math_MSFontService,sans-serif" font-weight="400" font-size="14" transform="matrix(1 0 0 0.999334 235.783 54)">2</text><text fill="#101010" font-family="Cambria Math,Cambria Math_MSFontService,sans-serif" font-weight="400" font-size="14" transform="matrix(1 0 0 0.999334 243.617 54)">ğœ’</text></g></svg>