<?xml version="1.0" encoding="UTF-8" standalone="no"?>
<svg
   width="307"
   height="203"
   xml:space="preserve"
   overflow="hidden"
   version="1.1"
   id="svg60"
   sodipodi:docname="rabi_plot.svg"
   inkscape:version="1.3.2 (091e20e, 2023-11-25)"
   xmlns:inkscape="http://www.inkscape.org/namespaces/inkscape"
   xmlns:sodipodi="http://sodipodi.sourceforge.net/DTD/sodipodi-0.dtd"
   xmlns="http://www.w3.org/2000/svg"
   xmlns:svg="http://www.w3.org/2000/svg"><defs
     id="defs60" /><sodipodi:namedview
     id="namedview60"
     pagecolor="#ffffff"
     bordercolor="#000000"
     borderopacity="0.25"
     inkscape:showpageshadow="2"
     inkscape:pageopacity="0.0"
     inkscape:pagecheckerboard="0"
     inkscape:deskcolor="#d1d1d1"
     inkscape:zoom="1.0423453"
     inkscape:cx="153.5"
     inkscape:cy="101.21406"
     inkscape:window-width="1312"
     inkscape:window-height="889"
     inkscape:window-x="46"
     inkscape:window-y="25"
     inkscape:window-maximized="0"
     inkscape:current-layer="layer1" /><g
     inkscape:groupmode="layer"
     id="layer1"
     inkscape:label="Background"><rect
       style="fill:#ffffff;stroke-width:1.89573"
       id="rect60"
       width="305.08127"
       height="196.67188"
       x="0"
       y="0.95937502" /></g><g
     transform="translate(-182 -413)"
     id="g60"><g
       id="g59"><g
         id="g58"><g
           id="g57"><g
             id="g56"><path
               d="M389.562 254.235 628.374 254.235"
               stroke="#262626"
               stroke-width="1.41438"
               stroke-linecap="square"
               stroke-linejoin="round"
               stroke-miterlimit="10"
               stroke-opacity="1"
               fill="none"
               fill-rule="evenodd"
               transform="matrix(1.0017 0 0 1 -144.928 322.455)"
               id="path1" /><path
               d="M389.562 101.993 628.374 101.993"
               stroke="#262626"
               stroke-width="1.41438"
               stroke-linecap="square"
               stroke-linejoin="round"
               stroke-miterlimit="10"
               stroke-opacity="1"
               fill="none"
               fill-rule="evenodd"
               transform="matrix(1.0017 0 0 1 -144.928 322.455)"
               id="path2" /><path
               d="M411.453 254.235 411.453 252.245"
               stroke="#262626"
               stroke-width="1.41438"
               stroke-linecap="square"
               stroke-linejoin="round"
               stroke-miterlimit="10"
               stroke-opacity="1"
               fill="none"
               fill-rule="evenodd"
               transform="matrix(1.0017 0 0 1 -144.928 322.455)"
               id="path3" /><path
               d="M455.235 254.235 455.235 252.245"
               stroke="#262626"
               stroke-width="1.41438"
               stroke-linecap="square"
               stroke-linejoin="round"
               stroke-miterlimit="10"
               stroke-opacity="1"
               fill="none"
               fill-rule="evenodd"
               transform="matrix(1.0017 0 0 1 -144.928 322.455)"
               id="path4" /><path
               d="M498.022 254.235 498.022 252.245"
               stroke="#262626"
               stroke-width="1.41438"
               stroke-linecap="square"
               stroke-linejoin="round"
               stroke-miterlimit="10"
               stroke-opacity="1"
               fill="none"
               fill-rule="evenodd"
               transform="matrix(1.0017 0 0 1 -144.928 322.455)"
               id="path5" /><path
               d="M541.804 254.235 541.804 252.245"
               stroke="#262626"
               stroke-width="1.41438"
               stroke-linecap="square"
               stroke-linejoin="round"
               stroke-miterlimit="10"
               stroke-opacity="1"
               fill="none"
               fill-rule="evenodd"
               transform="matrix(1.0017 0 0 1 -144.928 322.455)"
               id="path6" /><path
               d="M584.592 254.235 584.592 252.245"
               stroke="#262626"
               stroke-width="1.41438"
               stroke-linecap="square"
               stroke-linejoin="round"
               stroke-miterlimit="10"
               stroke-opacity="1"
               fill="none"
               fill-rule="evenodd"
               transform="matrix(1.0017 0 0 1 -144.928 322.455)"
               id="path7" /><path
               d="M411.453 101.993 411.453 103.983"
               stroke="#262626"
               stroke-width="1.41438"
               stroke-linecap="square"
               stroke-linejoin="round"
               stroke-miterlimit="10"
               stroke-opacity="1"
               fill="none"
               fill-rule="evenodd"
               transform="matrix(1.0017 0 0 1 -144.928 322.455)"
               id="path8" /><path
               d="M455.235 101.993 455.235 103.983"
               stroke="#262626"
               stroke-width="1.41438"
               stroke-linecap="square"
               stroke-linejoin="round"
               stroke-miterlimit="10"
               stroke-opacity="1"
               fill="none"
               fill-rule="evenodd"
               transform="matrix(1.0017 0 0 1 -144.928 322.455)"
               id="path9" /><path
               d="M498.022 101.993 498.022 103.983"
               stroke="#262626"
               stroke-width="1.41438"
               stroke-linecap="square"
               stroke-linejoin="round"
               stroke-miterlimit="10"
               stroke-opacity="1"
               fill="none"
               fill-rule="evenodd"
               transform="matrix(1.0017 0 0 1 -144.928 322.455)"
               id="path10" /><path
               d="M541.804 101.993 541.804 103.983"
               stroke="#262626"
               stroke-width="1.41438"
               stroke-linecap="square"
               stroke-linejoin="round"
               stroke-miterlimit="10"
               stroke-opacity="1"
               fill="none"
               fill-rule="evenodd"
               transform="matrix(1.0017 0 0 1 -144.928 322.455)"
               id="path11" /><path
               d="M584.592 101.993 584.592 103.983"
               stroke="#262626"
               stroke-width="1.41438"
               stroke-linecap="square"
               stroke-linejoin="round"
               stroke-miterlimit="10"
               stroke-opacity="1"
               fill="none"
               fill-rule="evenodd"
               transform="matrix(1.0017 0 0 1 -144.928 322.455)"
               id="path12" /><text
               fill="#262626"
               fill-opacity="1"
               font-family="ZI Akkurat Light,ZI Akkurat Light_MSFontService,sans-serif"
               font-style="oblique"
               font-variant="normal"
               font-weight="300"
               font-stretch="normal"
               font-size="18"
               text-anchor="start"
               direction="ltr"
               writing-mode="lr-tb"
               unicode-bidi="normal"
               text-decoration="none"
               transform="matrix(0.996743 0 0 0.995049 253.878 598)"
               id="text12">puls</text><text
               fill="#262626"
               fill-opacity="1"
               font-family="ZI Akkurat Light,ZI Akkurat Light_MSFontService,sans-serif"
               font-style="oblique"
               font-variant="normal"
               font-weight="300"
               font-stretch="normal"
               font-size="18"
               text-anchor="start"
               direction="ltr"
               writing-mode="lr-tb"
               unicode-bidi="normal"
               text-decoration="none"
               transform="matrix(0.996743 0 0 0.995049 288.391 598)"
               id="text13">e</text><text
               fill="#262626"
               fill-opacity="1"
               font-family="ZI Akkurat Light,ZI Akkurat Light_MSFontService,sans-serif"
               font-style="oblique"
               font-variant="normal"
               font-weight="300"
               font-stretch="normal"
               font-size="18"
               text-anchor="start"
               direction="ltr"
               writing-mode="lr-tb"
               unicode-bidi="normal"
               text-decoration="none"
               transform="matrix(0.996743 0 0 0.995049 302.719 598)"
               id="text14">amplitude</text><text
               fill="#262626"
               fill-opacity="1"
               font-family="ZI Akkurat Light,ZI Akkurat Light_MSFontService,sans-serif"
               font-style="normal"
               font-variant="normal"
               font-weight="300"
               font-stretch="normal"
               font-size="18"
               text-anchor="start"
               direction="ltr"
               writing-mode="lr-tb"
               unicode-bidi="normal"
               text-decoration="none"
               transform="matrix(0.996743 0 0 0.995049 389.934 598)"
               id="text15">(</text><text
               fill="#262626"
               fill-opacity="1"
               font-family="ZI Akkurat Light,ZI Akkurat Light_MSFontService,sans-serif"
               font-style="normal"
               font-variant="normal"
               font-weight="300"
               font-stretch="normal"
               font-size="18"
               text-anchor="start"
               direction="ltr"
               writing-mode="lr-tb"
               unicode-bidi="normal"
               text-decoration="none"
               transform="matrix(0.996743 0 0 0.995049 395.167 598)"
               id="text16">arb</text><text
               fill="#262626"
               fill-opacity="1"
               font-family="ZI Akkurat Light,ZI Akkurat Light_MSFontService,sans-serif"
               font-style="normal"
               font-variant="normal"
               font-weight="300"
               font-stretch="normal"
               font-size="18"
               text-anchor="start"
               direction="ltr"
               writing-mode="lr-tb"
               unicode-bidi="normal"
               text-decoration="none"
               transform="matrix(0.996743 0 0 0.995049 422.452 598)"
               id="text17">.</text><text
               fill="#262626"
               fill-opacity="1"
               font-family="ZI Akkurat Light,ZI Akkurat Light_MSFontService,sans-serif"
               font-style="normal"
               font-variant="normal"
               font-weight="300"
               font-stretch="normal"
               font-size="18"
               text-anchor="start"
               direction="ltr"
               writing-mode="lr-tb"
               unicode-bidi="normal"
               text-decoration="none"
               transform="matrix(0.996743 0 0 0.995049 431.299 598)"
               id="text18">units</text><text
               fill="#262626"
               fill-opacity="1"
               font-family="ZI Akkurat Light,ZI Akkurat Light_MSFontService,sans-serif"
               font-style="normal"
               font-variant="normal"
               font-weight="300"
               font-stretch="normal"
               font-size="18"
               text-anchor="start"
               direction="ltr"
               writing-mode="lr-tb"
               unicode-bidi="normal"
               text-decoration="none"
               transform="matrix(0.996743 0 0 0.995049 472.165 598)"
               id="text19">)</text><path
               d="M389.562 254.235 389.562 101.993"
               stroke="#262626"
               stroke-width="1.41438"
               stroke-linecap="square"
               stroke-linejoin="round"
               stroke-miterlimit="10"
               stroke-opacity="1"
               fill="none"
               fill-rule="evenodd"
               transform="matrix(1.0017 0 0 1 -144.928 322.455)"
               id="path19" /><path
               d="M628.374 254.235 628.374 101.993"
               stroke="#262626"
               stroke-width="1.41438"
               stroke-linecap="square"
               stroke-linejoin="round"
               stroke-miterlimit="10"
               stroke-opacity="1"
               fill="none"
               fill-rule="evenodd"
               transform="matrix(1.0017 0 0 1 -144.928 322.455)"
               id="path20" /><path
               d="M389.562 247.27 392.547 247.27"
               stroke="#262626"
               stroke-width="1.41438"
               stroke-linecap="square"
               stroke-linejoin="round"
               stroke-miterlimit="10"
               stroke-opacity="1"
               fill="none"
               fill-rule="evenodd"
               transform="matrix(1.0017 0 0 1 -144.928 322.455)"
               id="path21" /><path
               d="M389.562 219.408 392.547 219.408"
               stroke="#262626"
               stroke-width="1.41438"
               stroke-linecap="square"
               stroke-linejoin="round"
               stroke-miterlimit="10"
               stroke-opacity="1"
               fill="none"
               fill-rule="evenodd"
               transform="matrix(1.0017 0 0 1 -144.928 322.455)"
               id="path22" /><path
               d="M389.562 191.547 392.547 191.547"
               stroke="#262626"
               stroke-width="1.41438"
               stroke-linecap="square"
               stroke-linejoin="round"
               stroke-miterlimit="10"
               stroke-opacity="1"
               fill="none"
               fill-rule="evenodd"
               transform="matrix(1.0017 0 0 1 -144.928 322.455)"
               id="path23" /><path
               d="M389.562 163.686 392.547 163.686"
               stroke="#262626"
               stroke-width="1.41438"
               stroke-linecap="square"
               stroke-linejoin="round"
               stroke-miterlimit="10"
               stroke-opacity="1"
               fill="none"
               fill-rule="evenodd"
               transform="matrix(1.0017 0 0 1 -144.928 322.455)"
               id="path24" /><path
               d="M389.562 136.819 392.547 136.819"
               stroke="#262626"
               stroke-width="1.41438"
               stroke-linecap="square"
               stroke-linejoin="round"
               stroke-miterlimit="10"
               stroke-opacity="1"
               fill="none"
               fill-rule="evenodd"
               transform="matrix(1.0017 0 0 1 -144.928 322.455)"
               id="path25" /><path
               d="M389.562 108.958 392.547 108.958"
               stroke="#262626"
               stroke-width="1.41438"
               stroke-linecap="square"
               stroke-linejoin="round"
               stroke-miterlimit="10"
               stroke-opacity="1"
               fill="none"
               fill-rule="evenodd"
               transform="matrix(1.0017 0 0 1 -144.928 322.455)"
               id="path26" /><path
               d="M628.374 247.27 625.389 247.27"
               stroke="#262626"
               stroke-width="1.41438"
               stroke-linecap="square"
               stroke-linejoin="round"
               stroke-miterlimit="10"
               stroke-opacity="1"
               fill="none"
               fill-rule="evenodd"
               transform="matrix(1.0017 0 0 1 -144.928 322.455)"
               id="path27" /><path
               d="M628.374 219.408 625.389 219.408"
               stroke="#262626"
               stroke-width="1.41438"
               stroke-linecap="square"
               stroke-linejoin="round"
               stroke-miterlimit="10"
               stroke-opacity="1"
               fill="none"
               fill-rule="evenodd"
               transform="matrix(1.0017 0 0 1 -144.928 322.455)"
               id="path28" /><path
               d="M628.374 191.547 625.389 191.547"
               stroke="#262626"
               stroke-width="1.41438"
               stroke-linecap="square"
               stroke-linejoin="round"
               stroke-miterlimit="10"
               stroke-opacity="1"
               fill="none"
               fill-rule="evenodd"
               transform="matrix(1.0017 0 0 1 -144.928 322.455)"
               id="path29" /><path
               d="M628.374 163.686 625.389 163.686"
               stroke="#262626"
               stroke-width="1.41438"
               stroke-linecap="square"
               stroke-linejoin="round"
               stroke-miterlimit="10"
               stroke-opacity="1"
               fill="none"
               fill-rule="evenodd"
               transform="matrix(1.0017 0 0 1 -144.928 322.455)"
               id="path30" /><path
               d="M628.374 136.819 625.389 136.819"
               stroke="#262626"
               stroke-width="1.41438"
               stroke-linecap="square"
               stroke-linejoin="round"
               stroke-miterlimit="10"
               stroke-opacity="1"
               fill="none"
               fill-rule="evenodd"
               transform="matrix(1.0017 0 0 1 -144.928 322.455)"
               id="path31" /><path
               d="M628.374 108.958 625.389 108.958"
               stroke="#262626"
               stroke-width="1.41438"
               stroke-linecap="square"
               stroke-linejoin="round"
               stroke-miterlimit="10"
               stroke-opacity="1"
               fill="none"
               fill-rule="evenodd"
               transform="matrix(1.0017 0 0 1 -144.928 322.455)"
               id="path32" /><text
               fill="#262626"
               fill-opacity="1"
               font-family="ZI Akkurat Light,ZI Akkurat Light_MSFontService,sans-serif"
               font-style="normal"
               font-variant="normal"
               font-weight="300"
               font-stretch="normal"
               font-size="18"
               text-anchor="start"
               direction="ltr"
               writing-mode="lr-tb"
               unicode-bidi="normal"
               text-decoration="none"
               transform="matrix(0.996743 0 0 0.995049 227.735 574)"
               id="text32">0</text><text
               fill="#262626"
               fill-opacity="1"
               font-family="ZI Akkurat Light,ZI Akkurat Light_MSFontService,sans-serif"
               font-style="normal"
               font-variant="normal"
               font-weight="300"
               font-stretch="normal"
               font-size="18"
               text-anchor="start"
               direction="ltr"
               writing-mode="lr-tb"
               unicode-bidi="normal"
               text-decoration="none"
               transform="matrix(0.996743 0 0 0.995049 216.669 546)"
               id="text33">0.2</text><text
               fill="#262626"
               fill-opacity="1"
               font-family="ZI Akkurat Light,ZI Akkurat Light_MSFontService,sans-serif"
               font-style="normal"
               font-variant="normal"
               font-weight="300"
               font-stretch="normal"
               font-size="18"
               text-anchor="start"
               direction="ltr"
               writing-mode="lr-tb"
               unicode-bidi="normal"
               text-decoration="none"
               transform="matrix(0.996743 0 0 0.995049 216.669 518)"
               id="text34">0.4</text><text
               fill="#262626"
               fill-opacity="1"
               font-family="ZI Akkurat Light,ZI Akkurat Light_MSFontService,sans-serif"
               font-style="normal"
               font-variant="normal"
               font-weight="300"
               font-stretch="normal"
               font-size="18"
               text-anchor="start"
               direction="ltr"
               writing-mode="lr-tb"
               unicode-bidi="normal"
               text-decoration="none"
               transform="matrix(0.996743 0 0 0.995049 216.669 491)"
               id="text35">0.6</text><text
               fill="#262626"
               fill-opacity="1"
               font-family="ZI Akkurat Light,ZI Akkurat Light_MSFontService,sans-serif"
               font-style="normal"
               font-variant="normal"
               font-weight="300"
               font-stretch="normal"
               font-size="18"
               text-anchor="start"
               direction="ltr"
               writing-mode="lr-tb"
               unicode-bidi="normal"
               text-decoration="none"
               transform="matrix(0.996743 0 0 0.995049 216.669 463)"
               id="text36">0.8</text><text
               fill="#262626"
               fill-opacity="1"
               font-family="ZI Akkurat Light,ZI Akkurat Light_MSFontService,sans-serif"
               font-style="normal"
               font-variant="normal"
               font-weight="300"
               font-stretch="normal"
               font-size="18"
               text-anchor="start"
               direction="ltr"
               writing-mode="lr-tb"
               unicode-bidi="normal"
               text-decoration="none"
               transform="matrix(0.996743 0 0 0.995049 227.735 436)"
               id="text37">1</text><text
               fill="#262626"
               fill-opacity="1"
               font-family="Cambria Math,Cambria Math_MSFontService,sans-serif"
               font-style="normal"
               font-variant="normal"
               font-weight="400"
               font-stretch="normal"
               font-size="18"
               text-anchor="start"
               direction="ltr"
               writing-mode="lr-tb"
               unicode-bidi="normal"
               text-decoration="none"
               transform="matrix(-1.83099e-16 -0.995049 0.996743 -1.82788e-16 203.998 521)"
               id="text38">ğœŒ</text><text
               fill="#262626"
               fill-opacity="1"
               font-family="Cambria Math,Cambria Math_MSFontService,sans-serif"
               font-style="normal"
               font-variant="normal"
               font-weight="400"
               font-stretch="normal"
               font-size="18"
               text-anchor="start"
               direction="ltr"
               writing-mode="lr-tb"
               unicode-bidi="normal"
               text-decoration="none"
               transform="matrix(-1.83099e-16 -0.995049 0.996743 -1.82788e-16 203.998 512)"
               id="text39">(</text><text
               fill="#262626"
               fill-opacity="1"
               font-family="Cambria Math,Cambria Math_MSFontService,sans-serif"
               font-style="normal"
               font-variant="normal"
               font-weight="400"
               font-stretch="normal"
               font-size="18"
               text-anchor="start"
               direction="ltr"
               writing-mode="lr-tb"
               unicode-bidi="normal"
               text-decoration="none"
               transform="matrix(-1.83099e-16 -0.995049 0.996743 -1.82788e-16 203.998 504)"
               id="text40">|</text><text
               fill="#262626"
               fill-opacity="1"
               font-family="Cambria Math,Cambria Math_MSFontService,sans-serif"
               font-style="normal"
               font-variant="normal"
               font-weight="400"
               font-stretch="normal"
               font-size="18"
               text-anchor="start"
               direction="ltr"
               writing-mode="lr-tb"
               unicode-bidi="normal"
               text-decoration="none"
               transform="matrix(-1.83099e-16 -0.995049 0.996743 -1.82788e-16 203.998 498)"
               id="text41">1</text><text
               fill="#262626"
               fill-opacity="1"
               font-family="Cambria Math,Cambria Math_MSFontService,sans-serif"
               font-style="normal"
               font-variant="normal"
               font-weight="400"
               font-stretch="normal"
               font-size="18"
               text-anchor="start"
               direction="ltr"
               writing-mode="lr-tb"
               unicode-bidi="normal"
               text-decoration="none"
               transform="matrix(-1.83099e-16 -0.995049 0.996743 -1.82788e-16 203.998 488)"
               id="text42">âŸ©</text><text
               fill="#262626"
               fill-opacity="1"
               font-family="Cambria Math,Cambria Math_MSFontService,sans-serif"
               font-style="normal"
               font-variant="normal"
               font-weight="400"
               font-stretch="normal"
               font-size="18"
               text-anchor="start"
               direction="ltr"
               writing-mode="lr-tb"
               unicode-bidi="normal"
               text-decoration="none"
               transform="matrix(-1.83099e-16 -0.995049 0.996743 -1.82788e-16 203.998 482)"
               id="text43">)</text><path
               d="M0 21.4096 2.03324 28.018 4.06588 35.2604 6.09913 43.0207 8.13249 51.1775 10.165 59.6024 12.1982 68.1609 14.2309 76.7211 16.2641 85.1461 18.2975 93.3026 20.3301 101.063 22.3633 108.304 24.3959 114.913 26.4292 120.785 28.4618 125.826 30.495 129.957 32.5284 133.115 34.5609 135.248 36.5942 136.322 38.6267 136.322 40.6601 135.248 42.6926 133.115 44.7259 129.957 46.7593 125.826 48.7918 120.785 50.8251 114.913 52.8576 108.304 54.891 101.063 56.9235 93.3026 58.9568 85.1461 60.9902 76.7211 63.0227 68.1609 65.056 59.6024 67.0885 51.1775 69.1219 43.0207 71.1552 35.2604 73.1878 28.018 75.2211 21.4096 77.2537 15.5384 79.2869 10.4974 81.3194 6.3661 83.3528 3.20846 85.386 1.07523 87.4187 0 89.4519 0 91.4846 1.07523 93.5178 3.20846 95.5503 6.3661 97.5837 10.4974 99.6174 15.5384 101.649 21.4096 103.683 28.018 105.715 35.2604 107.749 43.0207 109.781 51.1775 111.815 59.6024 113.848 68.1609 115.88 76.7211 117.913 85.1461 119.946 93.3026 121.979 101.063 124.012 108.304 126.046 114.913 128.079 120.785 130.112 125.826 132.145 129.957 134.177 133.115 136.21 135.248 138.243 136.322 140.276 136.322 142.31 135.248 144.342 133.115 146.376 129.957 148.408 125.826 150.442 120.785 152.474 114.913 154.507 108.304 156.54 101.063 158.573 93.3026 160.606 85.1461 162.639 76.7211 164.673 68.1609 166.706 59.6024 168.739 51.1775 170.771 43.0207 172.804 35.2604 174.837 28.018 176.87 21.4096 178.903 15.5384 180.937 10.4974 182.969 6.3661 185.003 3.20846 187.034 1.07523 189.068 0 191.1 0 193.134 1.07523 195.167 3.20846 197.2 6.3661 199.233 10.4974 201.266 15.5384 203.3 21.4096 205.332 28.018 207.365 35.2604 209.398 43.0207 211.431 51.1775 213.464 59.6024 215.497 68.1609 217.53 76.7211 219.564 85.1461 221.596 93.3026 223.629 101.063 225.661 108.304 227.695 114.913 229.728 120.785 231.761 125.826 233.794 129.957 235.827 133.115"
               stroke="#172983"
               stroke-width="0.995049"
               stroke-linecap="butt"
               stroke-linejoin="miter"
               stroke-miterlimit="8"
               stroke-opacity="1"
               fill="none"
               fill-rule="evenodd"
               transform="matrix(-1.0017 0 0 1 484.515 431.413)"
               id="path43" /><path
               d="M398.02 223.389C398.02 222.014 399.133 220.901 400.507 220.901 401.882 220.901 402.995 222.014 402.995 223.389 402.995 224.763 401.882 225.876 400.507 225.876 399.133 225.876 398.02 224.763 398.02 223.389Z"
               fill="#009EE0"
               fill-rule="evenodd"
               fill-opacity="1"
               transform="matrix(1.0017 0 0 1 -144.928 322.455)"
               id="path44" /><path
               d="M407.97 182.592C407.97 181.217 409.307 180.104 410.955 180.104 412.604 180.104 413.941 181.217 413.941 182.592 413.941 183.966 412.604 185.079 410.955 185.079 409.307 185.079 407.97 183.966 407.97 182.592Z"
               fill="#009EE0"
               fill-rule="evenodd"
               fill-opacity="1"
               transform="matrix(1.0017 0 0 1 -144.928 322.455)"
               id="path45" /><path
               d="M418.916 139.307C418.916 137.658 420.252 136.322 421.901 136.322 423.55 136.322 424.886 137.658 424.886 139.307 424.886 140.956 423.55 142.292 421.901 142.292 420.252 142.292 418.916 140.956 418.916 139.307Z"
               fill="#009EE0"
               fill-rule="evenodd"
               fill-opacity="1"
               transform="matrix(1.0017 0 0 1 -144.928 322.455)"
               id="path46" /><path
               d="M428.866 112.441C428.866 110.792 430.203 109.455 431.851 109.455 433.5 109.455 434.837 110.792 434.837 112.441 434.837 114.089 433.5 115.426 431.851 115.426 430.203 115.426 428.866 114.089 428.866 112.441Z"
               fill="#009EE0"
               fill-rule="evenodd"
               fill-opacity="1"
               transform="matrix(1.0017 0 0 1 -144.928 322.455)"
               id="path47" /><path
               d="M439.812 113.436C439.812 111.787 441.148 110.45 442.797 110.45 444.446 110.45 445.782 111.787 445.782 113.436 445.782 115.084 444.446 116.421 442.797 116.421 441.148 116.421 439.812 115.084 439.812 113.436Z"
               fill="#009EE0"
               fill-rule="evenodd"
               fill-opacity="1"
               transform="matrix(1.0017 0 0 1 -144.928 322.455)"
               id="path48" /><path
               d="M450.757 139.307C450.757 137.658 451.871 136.322 453.245 136.322 454.619 136.322 455.733 137.658 455.733 139.307 455.733 140.956 454.619 142.292 453.245 142.292 451.871 142.292 450.757 140.956 450.757 139.307Z"
               fill="#009EE0"
               fill-rule="evenodd"
               fill-opacity="1"
               transform="matrix(1.0017 0 0 1 -144.928 322.455)"
               id="path49" /><path
               d="M460.708 178.611C460.708 177.237 462.044 176.124 463.693 176.124 465.342 176.124 466.678 177.237 466.678 178.611 466.678 179.986 465.342 181.099 463.693 181.099 462.044 181.099 460.708 179.986 460.708 178.611Z"
               fill="#009EE0"
               fill-rule="evenodd"
               fill-opacity="1"
               transform="matrix(1.0017 0 0 1 -144.928 322.455)"
               id="path50" /><path
               d="M471.653 222.394C471.653 221.019 472.99 219.906 474.639 219.906 476.287 219.906 477.624 221.019 477.624 222.394 477.624 223.768 476.287 224.881 474.639 224.881 472.99 224.881 471.653 223.768 471.653 222.394Z"
               fill="#009EE0"
               fill-rule="evenodd"
               fill-opacity="1"
               transform="matrix(1.0017 0 0 1 -144.928 322.455)"
               id="path51" /><path
               d="M481.604 243.787C481.604 242.138 482.94 240.802 484.589 240.802 486.238 240.802 487.574 242.138 487.574 243.787 487.574 245.436 486.238 246.772 484.589 246.772 482.94 246.772 481.604 245.436 481.604 243.787Z"
               fill="#009EE0"
               fill-rule="evenodd"
               fill-opacity="1"
               transform="matrix(1.0017 0 0 1 -144.928 322.455)"
               id="path52" /><path
               d="M492.549 238.812C492.549 237.163 493.886 235.827 495.535 235.827 497.183 235.827 498.52 237.163 498.52 238.812 498.52 240.461 497.183 241.797 495.535 241.797 493.886 241.797 492.549 240.461 492.549 238.812Z"
               fill="#009EE0"
               fill-rule="evenodd"
               fill-opacity="1"
               transform="matrix(1.0017 0 0 1 -144.928 322.455)"
               id="path53" /><path
               d="M503.495 208.463C503.495 207.089 504.608 205.975 505.983 205.975 507.357 205.975 508.47 207.089 508.47 208.463 508.47 209.837 507.357 210.95 505.983 210.95 504.608 210.95 503.495 209.837 503.495 208.463Z"
               fill="#009EE0"
               fill-rule="evenodd"
               fill-opacity="1"
               transform="matrix(1.0017 0 0 1 -144.928 322.455)"
               id="path54" /><path
               d="M513.446 166.173C513.446 164.524 514.782 163.188 516.431 163.188 518.079 163.188 519.416 164.524 519.416 166.173 519.416 167.822 518.079 169.158 516.431 169.158 514.782 169.158 513.446 167.822 513.446 166.173Z"
               fill="#009EE0"
               fill-rule="evenodd"
               fill-opacity="1"
               transform="matrix(1.0017 0 0 1 -144.928 322.455)"
               id="path55" /><path
               d="M524.391 127.366C524.391 125.718 525.727 124.381 527.376 124.381 529.025 124.381 530.361 125.718 530.361 127.366 530.361 129.015 529.025 130.351 527.376 130.351 525.727 130.351 524.391 129.015 524.391 127.366Z"
               fill="#009EE0"
               fill-rule="evenodd"
               fill-opacity="1"
               transform="matrix(1.0017 0 0 1 -144.928 322.455)"
               id="path56" /></g></g></g></g></g></svg>
