<?xml version="1.0" encoding="utf-8"?>
<!-- Generator: Adobe Illustrator 26.1.0, SVG Export Plug-In . SVG Version: 6.00 Build 0)  -->
<svg version="1.1" id="Layer_1" xmlns="http://www.w3.org/2000/svg" xmlns:xlink="http://www.w3.org/1999/xlink" x="0px" y="0px"
	 viewBox="0 0 169.7 168.5" style="enable-background:new 0 0 169.7 168.5;" xml:space="preserve">
<style type="text/css">
	.st0{fill:#009EE0;}
</style>
<path class="st0" d="M152.7,16.4v136.3H16.4V16.4H152.7z M155.2,13.9H13.9v141.3h141.3V13.9L155.2,13.9z"/>
<g>
	<path class="st0" d="M56.6,112.5c-15.4-15.4-15.4-40.5,0-55.9c15.4-15.4,40.5-15.4,55.9,0c13.8,13.8,15.3,35.4,4.3,50.8l9.5,9.5
		c16.1-20.7,14.7-50.7-4.4-69.7c-20.6-20.6-54.1-20.6-74.7,0c-20.6,20.6-20.6,54.1,0,74.7c19,19,49,20.5,69.7,4.4l-9.5-9.5
		C92,127.8,70.4,126.4,56.6,112.5z"/>
	
		<rect x="119.7" y="119.7" transform="matrix(0.7071 -0.7071 0.7071 0.7071 -52.3572 126.3455)" class="st0" width="13.2" height="13.4"/>
</g>
</svg>
